<svg xmlns="http://www.w3.org/2000/svg" viewBox="0 0 37 37" width="37" height="37">
	<style>
		tspan { white-space:pre }
		.shp0 { fill: #13b0a7 } 
		.shp1 { opacity: 0.702;fill: #ffffff } 
	</style>
	<g id="Payment Details">
		<g id="Details">
			<g id="Basket">
				<g id="02">
					<g id="icon">
						<path id="Ellipse 6" class="shp0" d="M18.5 0C28.72 0 37 8.28 37 18.5C37 28.72 28.72 37 18.5 37C8.28 37 0 28.72 0 18.5C0 8.28 8.28 0 18.5 0Z" />
						<path id="ï„" class="shp1" d="M12.02 27.96L10.92 27.96L10.92 26.09L9.05 26.09L9.05 24.99L11.31 22.73L14.28 25.7L12.02 27.96ZM20.61 13.9C20.79 14.07 20.77 14.37 20.59 14.54L13.75 21.38C13.58 21.55 13.29 21.57 13.11 21.4C12.93 21.22 12.95 20.93 13.13 20.75L19.96 13.92C20.14 13.74 20.43 13.72 20.61 13.9ZM20.3 11.09L7.17 24.21L7.17 29.84L12.8 29.84L25.92 16.71L20.3 11.09ZM28.97 13.66C29.69 12.94 29.69 11.73 28.97 11.01L26 8.04C25.28 7.32 24.07 7.32 23.34 8.04L21.55 9.84L27.17 15.46L28.97 13.66Z" />
					</g>
				</g>
			</g>
		</g>
	</g>
</svg>