<svg width="157" height="99" viewBox="0 0 157 99" fill="none" xmlns="http://www.w3.org/2000/svg">
<g clip-path="url(#clip0)">
<path d="M11.8799 98H151.606C153.402 98 154 57.8419 154 55.0662C153.744 38.3262 152.803 9.87704 137.496 1.63709C130.228 -2.26595 122.104 1.55036 115.434 5.36677C101.239 13.5199 85.3344 26.0098 68.7451 22.4537C61.1345 20.8057 54.6357 15.4281 47.6237 11.8719C40.6973 8.31576 33.1723 5.80043 25.6472 5.7137C5.12447 5.54023 -0.775879 34.5967 0.0793005 53.9387C0.421333 61.398 1.78946 68.8572 3.75624 75.9696C4.52582 78.3986 9.82761 98 11.8799 98Z" fill="#FAFFFF"/>
<path d="M136.158 24.4248H100.284V64.2363H136.158V24.4248Z" fill="#3D576B"/>
<path d="M136.158 25.4092H101.268V63.252H136.158V25.4092Z" fill="url(#paint0_linear)"/>
<path d="M103.346 39.9552L106.736 38.7522L107.94 38.3147V42.2521H111.002L111.986 43.4551L112.642 44.1114L112.752 44.2208L113.518 45.2051V58.5485H115.487V49.9082H117.018V44.2208L117.127 44.1114L117.345 44.0021L117.893 43.4551L118.111 43.2364L118.876 42.6895L119.095 42.3614V58.6579H119.97V45.3145H121.064V36.3459H124.455V39.0803L125.001 39.299L127.955 40.7208V43.6738L128.83 44.0021L129.814 44.4396V60.2985H131.236V56.7986H132.439V49.1425L132.548 48.9238L133.533 48.0488V41.5959L135.283 38.5334L135.392 38.2053L135.939 37.3303H136.158V63.2516H101.268V57.3455H101.815V61.7203H102.58V55.8143H103.346V39.9552Z" fill="url(#paint1_linear)"/>
<path d="M116.471 63.2518V48.049L114.174 43.7834H112.752L110.346 48.5959V63.2518H116.471Z" fill="url(#paint2_linear)"/>
<path d="M134.846 63.2517V61.1736H133.752V53.5176L132.548 52.3144V45.9708L130.142 41.7053H125.767V60.2986H125.003V55.7049H124.346V42.3615L121.393 45.3146V50.8926V51.5488L119.97 52.9706V55.0487H119.424V62.4861H118.987L118.22 63.2517H134.846Z" fill="url(#paint3_linear)"/>
<path d="M104.768 48.1584H102.253V63.2518H107.83V54.8303L104.768 52.424V48.1584Z" fill="url(#paint4_linear)"/>
<path d="M119.97 45.3146V46.4084L120.518 45.3146H119.97ZM129.814 25.737L124.017 36.3461L121.174 41.596V44.3303L124.564 38.0961L131.346 25.6277H129.814V25.737ZM133.423 53.1895L132.439 54.9394L131.454 56.7987L131.346 56.9081H133.752V57.1269H135.283V49.799L133.423 53.1895ZM136.048 30.7681L135.392 31.8619L135.173 32.19L130.033 41.7054L128.83 44.0022L125.767 49.5802L124.345 52.0957L121.72 56.9081L121.174 57.8924H122.705L123.251 56.9081L124.345 54.9394L125.767 52.4239L129.814 44.9865L130.908 42.9084L135.283 35.0337L135.502 34.7056L136.158 33.6118L136.377 33.2837V30.5493L136.048 30.7681ZM136.048 43.4554L135.392 44.549L135.173 44.8772L132.548 49.6896L132.329 50.0177L129.704 54.83L128.502 56.9081L128.392 57.1269H129.596V57.6737L129.923 57.1269L130.033 56.9081L132.329 52.752L132.548 52.3145L135.173 47.6115L135.392 47.2834L136.048 46.1897L136.267 45.8615V43.1271L136.048 43.4554ZM132.548 25.4089L132.439 25.737L125.001 39.2991L122.049 44.7678L121.501 45.8615L120.08 48.4864L119.205 50.0177L118.876 50.5645L118.22 51.8769L118.001 52.2052L117.345 53.2989L117.237 53.627L116.58 54.83L115.487 56.6894L115.377 56.9081L115.268 57.1269L114.939 57.7831L114.83 58.0018L114.612 58.2207L114.393 58.5488L111.767 63.2517H117.018L117.127 63.1423L117.237 62.8142L117.893 61.7205L118.111 61.3924L118.768 60.0799L119.314 59.0956L119.533 58.6581L119.751 58.2207L119.861 58.0018V57.8924L120.408 56.9081L124.126 50.0177L125.549 47.5021L127.736 43.4554L128.721 41.7054L135.064 30.1119L135.283 29.7838L135.939 28.6901L136.158 28.362V25.4089H132.548ZM131.346 25.737H129.814L124.017 36.3461L121.174 41.596V44.3303L124.564 38.0961L131.346 25.737ZM128.83 44.0022L125.767 49.5802L124.345 52.0957L121.72 56.9081L121.174 57.8924H122.705L123.251 56.9081L124.345 54.9394L125.767 52.4239L129.814 44.9865L130.908 42.9084L135.283 35.0337V32.2993L130.142 41.8147L128.83 44.0022ZM119.97 45.3146V46.4084L120.518 45.3146H119.97ZM117.127 51.5488V48.8145L117.018 49.0333V50.0177H116.47L115.377 51.8769V54.6113L116.47 52.752L117.127 51.5488ZM129.923 25.4089L129.814 25.737L124.017 36.3461L121.174 41.596L119.205 45.0959L118.876 45.6427L118.22 46.9553L117.893 47.2834L117.237 48.377L117.127 48.7051L117.018 48.9239L116.47 49.9083L115.377 51.7676L113.408 55.377L112.642 56.9081L112.533 57.1269L112.204 57.7831L112.096 58.0018L111.986 58.33L110.454 61.1736L109.252 63.3611H110.783L113.518 58.33L113.627 58.0018L113.737 57.7831L114.064 57.1269L114.174 56.9081L115.487 54.6113L116.58 52.752L117.237 51.5488L117.345 51.2207L118.001 50.1271L118.22 49.799L118.876 48.4864L119.205 47.9396L120.08 46.4084L120.626 45.3146L121.174 44.3303L124.564 38.0961L131.346 25.6277L131.454 25.2996H129.923V25.4089ZM117.127 48.7051L117.018 48.9239L116.47 49.9083L115.377 51.7676L113.408 55.377L112.642 56.9081H113.408V57.1269H114.064L114.174 56.9081L115.487 54.6113L116.58 52.752L117.237 51.5488L117.345 51.2207V48.4864L117.127 48.7051ZM117.893 34.7056L117.237 35.7992L117.127 36.1273L112.862 43.7835L112.642 44.2209L110.783 47.6115L107.173 54.2832L105.752 56.9081L105.205 57.8924H106.736L106.846 57.6737L107.173 57.0175L107.283 56.7987L107.83 55.8144L110.454 51.1114L113.518 45.424L114.393 43.8928L117.237 38.7523L117.345 38.4242L118.001 37.3305L118.22 37.0023V34.2681L117.893 34.7056ZM116.689 25.4089L116.58 25.737L108.048 41.2679L104.221 48.1583L103.346 49.6896L102.253 51.6582L101.924 52.2052L101.268 53.5176V63.033L101.924 61.7205V61.6112L102.143 61.1736L102.471 60.6267L103.784 58.2207L103.892 57.8924L104.44 56.9081L106.19 53.627L111.767 43.346L116.908 33.94L117.018 33.6118L117.674 32.5181L117.893 32.19L118.549 30.8774L121.393 25.6277L121.501 25.2996H116.689V25.4089ZM117.345 35.7992L117.237 36.1273L112.971 43.7835L112.752 44.2209L110.892 47.6115L107.283 54.2832L105.861 56.9081L105.315 57.8924H106.846L106.955 57.6737L107.283 57.0175L107.392 56.7987L107.94 55.8144L110.564 51.1114L113.627 45.424L114.502 43.8928L117.345 38.7523L117.455 38.4242L118.111 37.3305L118.33 37.0023V34.2681L118.111 34.5962L117.345 35.7992ZM107.065 25.4089L106.955 25.737L102.034 34.7056L101.378 36.018V38.7523L102.034 37.4399L108.486 25.6277L108.596 25.2996H107.065V25.4089ZM101.268 25.4089V33.8305L101.924 32.5181L105.752 25.6277L105.861 25.2996H101.268V25.4089ZM113.956 25.4089L113.846 25.737L106.736 38.7523L103.346 44.8772L102.034 47.2834L101.378 48.5958V51.3301L102.034 50.0177L102.361 49.4708L103.127 48.0489L103.455 47.5021L108.158 38.971L115.487 25.5183L115.595 25.1902H113.956V25.4089ZM117.127 48.7051L117.018 48.9239L116.47 49.9083L115.377 51.7676L113.408 55.377L112.642 56.9081H113.408V57.1269H114.064L114.174 56.9081L115.487 54.6113L116.58 52.752L117.237 51.5488L117.345 51.2207V48.4864L117.127 48.7051ZM123.032 25.4089L122.924 25.737L118.876 33.0649L118.22 34.3775L118.001 34.7056L117.345 35.7992L117.237 36.1273L112.971 43.7835L112.752 44.2209L110.892 47.6115L107.283 54.2832L105.861 56.9081L105.315 57.8924L105.205 58.2207L102.471 63.2517H104.002L106.736 58.2207L106.846 57.8924L106.955 57.6737L107.283 57.0175L107.392 56.7987L107.94 55.8144L110.564 51.1114L113.627 45.424L114.502 43.8928L117.345 38.7523L117.455 38.4242L118.111 37.3305L118.33 37.0023L118.986 35.6899L124.564 25.5183L124.674 25.1902H123.032V25.4089ZM133.423 53.1895L132.439 54.9394L131.454 56.7987L131.346 56.9081H133.752V57.1269H135.283V49.799L133.423 53.1895ZM136.048 43.4554L135.392 44.549L135.173 44.8772L132.548 49.6896L132.329 50.0177L129.704 54.83L128.502 56.9081L128.392 57.1269L128.065 57.7831L127.955 58.0018L127.846 58.33L125.111 63.3611H126.642L129.377 58.33L129.486 58.0018L129.596 57.7831L129.704 57.6737L130.033 57.1269L130.142 56.9081L132.439 52.752L132.658 52.3145L135.283 47.6115L135.502 47.2834L136.158 46.1897L136.377 45.8615V43.1271L136.048 43.4554ZM136.048 56.9081V57.7831L136.267 57.455V56.9081H136.048ZM136.158 59.6424L135.939 59.9705L135.283 61.0642L135.064 61.3924L134.735 62.0487L134.079 63.2517H135.61L135.939 62.7049L136.158 62.3768V59.6424ZM133.423 53.1895L132.439 54.9394L131.454 56.7987L131.346 56.9081H133.752V57.1269H135.283V49.799L133.423 53.1895ZM136.048 30.7681L135.392 31.8619L135.173 32.19L130.033 41.7054L128.83 44.0022L125.767 49.5802L124.345 52.0957L121.72 56.9081L121.174 57.8924L121.064 58.2207L119.424 61.1736L118.876 62.158L118.33 63.2517H119.861L122.595 58.2207L122.705 57.8924L123.251 56.9081L124.345 54.9394L125.767 52.4239L129.814 44.9865L130.908 42.9084L135.283 35.0337L135.502 34.7056L136.158 33.6118L136.377 33.2837V30.5493L136.048 30.7681ZM136.048 43.4554L135.392 44.549L135.173 44.8772L132.548 49.6896L132.329 50.0177L129.704 54.83L128.502 56.9081L128.392 57.1269H129.596V57.6737L129.923 57.1269L130.033 56.9081L132.329 52.752L132.548 52.3145L135.173 47.6115L135.392 47.2834L136.048 46.1897L136.267 45.8615V43.1271L136.048 43.4554ZM136.048 48.2677L135.392 49.3615L135.173 49.6896L133.314 53.0801L132.329 54.83L131.346 56.6894L131.236 56.7987V56.9081V57.0175L130.908 57.6737L130.798 57.8924L130.689 58.2207L129.814 59.7518L127.846 63.3611H133.096L134.298 61.2831L135.283 59.4237L135.502 59.0956L136.048 58.0018V57.8924L136.267 57.5643V48.0489L136.048 48.2677Z" fill="#58595B"/>
<path d="M136.158 56.9082H100.284V57.8926H136.158V56.9082Z" fill="#3D576B"/>
<path d="M136.267 24.8621H135.283V63.908H136.267V24.8621Z" fill="#3D576B"/>
<path d="M118.112 24.8621H117.127V63.908H118.112V24.8621Z" fill="#3D576B"/>
<path d="M102.034 25.4092H101.268V25.7373V56.9084H102.034V25.7373H117.127V25.4092H102.034Z" fill="#E8F4FC"/>
<path d="M102.034 57.8926H101.268V58.2207V63.2519H102.034V58.2207H117.127V57.8926H102.034Z" fill="#E8F4FC"/>
<path d="M118.877 57.8926H118.112V58.2207V63.2519H118.877V58.2207H135.283V57.8926H118.877Z" fill="#E8F4FC"/>
<path d="M118.877 25.4092H118.112V25.7373V56.9084H118.877V25.7373H135.173V25.4092H118.877Z" fill="#E8F4FC"/>
<path d="M117.345 24.4248V63.0333C117.345 63.252 117.455 63.3614 117.674 63.3614C117.893 63.3614 118.002 63.252 118.002 63.0333V24.4248H117.345Z" fill="#67B5A3"/>
<path d="M100.503 24.4248V63.0333C100.503 63.252 100.611 63.3614 100.83 63.3614C101.049 63.3614 101.159 63.252 101.159 63.0333V24.4248H100.503Z" fill="#67B5A3"/>
<path d="M117.564 57.127H106.627C106.409 57.127 106.299 57.2363 106.299 57.4551C106.299 57.6738 106.409 57.7832 106.627 57.7832H117.564V57.127Z" fill="#67B5A3"/>
<path d="M135.611 57.127H124.674C124.455 57.127 124.345 57.2363 124.345 57.4551C124.345 57.6738 124.455 57.7832 124.674 57.7832H135.611V57.127Z" fill="#67B5A3"/>
<path d="M135.392 24.4248V63.0333C135.392 63.252 135.502 63.3614 135.72 63.3614C135.939 63.3614 136.048 63.252 136.048 63.0333V24.4248H135.392Z" fill="#67B5A3"/>
<path d="M116.689 89.2825C116.143 89.6112 116.033 90.4861 116.033 91.5798C116.033 92.0173 116.033 91.7985 116.033 92.4548C116.033 93.7672 115.923 93.9859 116.033 94.6421C116.143 95.0796 116.252 95.4071 116.47 95.7358C116.799 96.0633 117.237 96.0633 117.455 96.1733C117.783 96.2833 118.33 96.2833 118.549 96.0633C118.658 95.8445 118.549 94.6421 118.439 93.7672C118.11 91.4698 117.892 89.3925 117.127 89.2825C116.908 89.1737 116.798 89.2825 116.689 89.2825Z" fill="#4C423F"/>
<path d="M120.845 89.2825C121.393 89.6112 121.502 90.4861 121.502 91.5798C121.502 92.0173 121.502 91.7985 121.502 92.4548C121.502 93.7672 121.612 93.9859 121.502 94.6421C121.393 95.0796 121.283 95.4071 121.064 95.7358C120.737 96.0633 120.299 96.0633 120.08 96.1733C119.752 96.2833 119.205 96.2833 118.987 96.0633C118.877 95.8445 118.987 94.6421 119.095 93.7672C119.424 91.4698 119.643 89.3925 120.408 89.2825C120.627 89.1737 120.845 89.2825 120.845 89.2825Z" fill="#4C423F"/>
<path d="M117.345 89.2822C117.674 91.2508 118.112 94.5319 118.112 95.1881C118.112 95.4068 118.002 95.6256 118.002 95.6256C117.892 95.7356 117.783 95.8443 117.127 95.6256C116.908 95.5168 116.581 95.4068 116.143 95.1881C116.252 95.4068 116.362 95.5168 116.471 95.6256C116.799 95.9543 117.237 95.9543 117.455 96.063C117.783 96.173 118.33 96.173 118.549 95.9543C118.658 95.7356 118.549 94.5319 118.439 93.6569C118.22 91.5796 118.002 89.7197 117.345 89.2822Z" fill="#353131"/>
<path d="M120.299 95.7356C119.643 95.9543 119.533 95.7356 119.424 95.7356C119.314 95.6256 119.314 95.5168 119.314 95.2981C119.314 94.6419 119.862 91.4696 120.08 89.501C119.533 90.0484 119.314 91.7983 118.987 93.8757C118.877 94.7506 118.768 96.063 118.877 96.173C119.096 96.3918 119.533 96.3918 119.97 96.2818C120.299 96.2818 120.627 96.173 120.955 95.8443C121.174 95.6256 121.283 95.5168 121.283 95.2981C120.955 95.5168 120.627 95.6256 120.299 95.7356Z" fill="#353131"/>
<path d="M118.22 72.3295C118.987 73.4232 118.33 74.6268 117.893 77.2517C117.564 79.7665 118.112 79.2203 117.893 83.595C117.893 84.3599 117.674 88.6259 117.783 90.4858C117.783 91.032 117.893 91.2507 117.893 91.5795C118.002 92.4544 118.22 92.6732 118.22 93.3294C118.22 93.6568 118.22 94.313 117.783 94.423C117.455 94.5318 116.908 94.0943 116.581 93.6568C116.471 93.4381 116.362 93.2194 116.362 92.017C116.362 91.142 116.362 91.032 116.362 90.5945C116.362 89.8296 116.252 89.3921 116.033 88.5172C116.033 88.5172 115.706 87.0948 115.377 85.7824C115.268 85.0162 114.831 82.9388 115.158 80.5327C115.268 79.6578 115.487 79.1103 115.487 77.9079C115.487 77.1417 115.487 76.7042 115.377 75.7205C115.048 72.9857 114.939 71.5645 115.377 71.2358C116.033 70.9083 117.455 71.3458 118.22 72.3295Z" fill="#F9B087"/>
<path d="M117.783 90.3759C117.674 88.626 117.893 84.2513 117.893 83.4851C118.112 79.1104 117.455 79.7666 117.893 77.1418C118.22 74.627 118.986 73.4233 118.22 72.2209C117.564 71.2359 116.033 70.6897 115.377 71.2359C115.049 71.4547 115.049 72.4396 115.268 74.1895C115.487 74.0795 115.814 73.9708 116.143 73.8608C116.362 73.8608 117.345 73.642 117.783 74.2982C117.893 74.517 117.893 74.7357 117.893 75.1732C117.783 76.1581 117.674 76.7043 117.564 77.2518C117.455 77.6893 117.345 78.4542 117.455 79.4391C117.455 79.8766 117.564 79.9854 117.564 80.6416C117.564 80.9703 117.564 81.4078 117.674 82.2827C117.674 83.1577 117.674 83.9226 117.674 84.1413C117.674 86.22 117.674 86.5487 117.564 87.4236C117.564 90.2672 117.674 89.0635 117.674 90.4859C117.674 90.7047 118.002 92.4546 118.112 92.6733C118.22 93.0008 118.22 93.4382 118.002 94.0944C118.33 93.8757 118.33 93.2195 118.33 93.0008C118.33 92.3445 118.22 92.1258 118.002 91.2509C117.893 91.1421 117.783 90.9234 117.783 90.3759Z" fill="#F39474"/>
<path d="M119.643 92.8918C119.752 92.6731 120.08 90.9232 120.08 90.7045C120.08 89.2821 120.189 90.4857 120.189 87.6422C120.189 86.766 120.189 86.3285 120.08 84.3599C120.08 84.0324 120.08 83.3762 120.08 82.5013C120.08 81.5163 120.08 81.0788 120.189 80.8601C120.299 80.0952 120.299 80.0952 120.299 79.6577C120.409 78.6728 120.299 77.9078 120.189 77.4703C120.08 76.9229 119.97 76.4854 119.862 75.3917C119.752 74.8455 119.752 74.6268 119.97 74.5168C120.299 73.9706 121.393 74.0793 121.611 74.0793C121.94 74.0793 122.268 74.298 122.486 74.408C122.705 72.6582 122.705 71.6732 122.376 71.4545C121.72 71.017 120.299 71.4545 119.533 72.4394C118.768 73.5331 119.424 74.7355 119.862 77.3603C120.189 79.8764 119.643 79.329 119.862 83.7037C119.862 84.4699 120.08 88.7359 119.97 90.5945C119.97 91.1419 119.862 91.3607 119.862 91.6882C119.752 92.5631 119.533 92.7818 119.533 93.438C119.533 93.7668 119.533 94.423 119.862 94.5317C119.533 93.7668 119.533 93.2193 119.643 92.8918Z" fill="#F39474"/>
<path d="M122.049 77.9082C122.049 77.142 122.049 76.7045 122.158 75.7208C122.268 75.1733 122.268 74.6271 122.268 74.1897C122.049 74.0797 121.72 73.9709 121.393 73.8609C121.174 73.8609 120.189 73.6422 119.752 74.2984C119.643 74.5171 119.643 74.7359 119.643 75.1733C119.752 76.1583 119.862 76.7045 119.97 77.252C120.08 77.6894 120.189 78.4544 120.08 79.4393C120.08 79.8768 119.97 79.9855 119.97 80.6417C119.97 80.9705 119.97 81.4079 119.862 82.2829C119.862 83.1578 119.862 83.9228 119.862 84.1415C119.862 86.2201 119.862 86.5476 119.97 87.4225C119.97 90.2674 119.862 89.0637 119.862 90.4861C119.862 90.7048 119.533 92.4547 119.424 92.6735C119.314 93.0009 119.314 93.4384 119.533 94.0946C119.862 94.2046 120.408 93.7671 120.737 93.3297C120.845 93.1109 120.955 92.8922 120.955 91.6885C120.955 90.8136 120.955 90.7048 120.955 90.2674C120.955 89.5012 121.064 89.0637 121.283 88.1887C121.283 88.1887 121.612 86.7663 121.939 85.4539C122.049 84.689 122.486 82.6104 122.158 80.2043C122.268 79.5481 122.049 79.1106 122.049 77.9082Z" fill="#F9B087"/>
<path d="M117.893 50.1272H119.643L123.252 51.1115L122.049 61.3925H115.815L114.392 51.1115L117.893 50.1272Z" fill="white"/>
<path d="M115.158 51.2209C115.487 51.1115 116.143 50.8928 117.346 50.674C118.331 50.4553 118.549 50.4553 118.768 50.4553C119.096 50.4553 119.424 50.4553 119.971 50.5647C121.393 50.7834 122.268 51.1115 122.814 51.2209C123.033 51.3302 123.143 51.3302 123.362 51.4396C123.47 51.549 123.689 51.549 123.799 51.6583C123.58 51.2209 123.362 51.0021 123.252 51.0021L119.752 50.1272H117.893L114.283 51.1115C114.173 51.1115 113.956 51.4396 113.627 51.8771C113.737 51.7677 113.956 51.6583 114.175 51.549C114.393 51.4396 114.721 51.3302 115.158 51.2209Z" fill="#EDECEB"/>
<path d="M124.455 72.5482C124.236 69.5952 122.595 63.1422 122.158 61.6109C122.049 61.1734 121.939 60.736 121.83 60.5172C121.393 59.2048 117.237 58.8767 116.143 60.5172C115.924 60.8453 115.924 61.0641 115.814 61.6109C115.596 63.0328 113.298 72.3295 113.517 72.5482C114.502 73.5332 121.174 74.1894 124.455 72.5482Z" fill="#211E27"/>
<path d="M114.94 53.6272C114.83 53.6272 114.173 54.8304 113.846 55.5959C113.955 55.5959 114.065 55.7053 114.173 55.7053C114.502 55.0491 114.83 54.5023 114.94 54.1742L115.923 61.2833H116.471C115.923 58.2209 115.596 55.7053 115.377 54.8304C115.158 54.0648 115.048 53.7367 114.94 53.6273V53.6272Z" fill="#EDECEB"/>
<path d="M122.814 54.1738C122.705 54.1738 122.595 54.5019 122.376 55.4864C122.268 56.2519 122.049 58.5487 121.611 61.3924H122.049L122.814 54.83C122.814 55.1581 123.032 55.5957 123.361 56.1426C123.47 56.0331 123.58 56.0331 123.689 55.9238C123.361 55.1581 122.924 54.1738 122.814 54.1738Z" fill="#EDECEB"/>
<path d="M114.393 55.1581C114.612 54.83 114.721 54.5019 114.831 54.2832L115.815 61.3923H116.362C115.815 58.3299 115.487 55.8143 115.268 54.9394C115.158 54.1738 115.05 53.7363 114.94 53.7363C114.94 53.8457 114.83 54.0644 114.83 54.1738C114.83 54.2832 114.611 54.7206 114.392 55.1581H114.393Z" fill="#EDECEB"/>
<path d="M122.814 54.7207C122.814 54.5019 122.814 54.3926 122.705 54.0645C122.595 54.1738 122.486 54.5019 122.376 55.2675C122.268 56.0331 122.049 58.3299 121.611 61.1736H122.049L122.814 54.7207C122.814 55.0488 123.032 55.4862 123.361 56.0331C123.47 55.9237 123.58 55.9237 123.689 55.8143C123.58 55.9238 123.47 55.9238 123.361 56.0331C123.032 55.4862 122.814 55.0488 122.814 54.7207Z" fill="#EDECEB"/>
<path d="M122.049 61.3924C122.049 61.3924 121.72 57.2361 121.72 55.9237C121.72 54.1737 121.939 52.6426 122.049 51.6581C122.049 51.33 122.158 51.0019 122.158 50.6738L121.393 50.4551C121.283 50.7832 121.283 51.2206 121.283 51.6581C121.174 52.3145 121.064 53.08 121.064 54.0643C120.408 53.955 119.643 53.8456 118.768 53.8456C118.002 53.8456 117.345 53.955 116.689 53.955C116.579 52.9707 116.579 52.2051 116.471 51.5489C116.471 51.1113 116.361 50.7832 116.361 50.3457L115.596 50.5644C115.596 50.8925 115.706 51.2206 115.706 51.5489C115.814 52.5332 116.033 53.955 116.033 55.8144C116.033 56.7987 116.033 61.283 116.033 61.283C116.033 61.283 114.721 70.3609 115.158 71.0171C116.143 72.767 122.376 72.5483 123.033 71.0171C123.251 70.3609 122.049 61.3924 122.049 61.3924Z" fill="#359591"/>
<path d="M116.471 54.3926C116.471 54.3926 117.237 54.1738 118.439 54.1738C119.97 54.1738 121.064 54.5019 121.064 54.5019C121.064 54.5019 121.283 52.0957 121.612 50.6739L121.393 50.5644C121.283 50.8927 121.283 51.3301 121.283 51.7676C121.173 52.4238 121.064 53.1894 121.064 54.1738C120.408 54.0643 119.642 53.9551 118.767 53.9551C118.002 53.9551 117.346 54.0645 116.689 54.0645C116.579 53.08 116.579 52.3145 116.471 51.6582C116.471 51.2208 116.361 50.8927 116.361 50.4551L116.142 50.5644C116.252 50.8927 116.252 51.3301 116.361 51.6582C116.471 53.8457 116.471 54.3926 116.471 54.3926Z" fill="#9EE5DB"/>
<path d="M119.095 72.2194C118.658 72.2194 117.893 72.1107 117.783 72.1107C117.345 72.0007 116.689 71.892 116.033 71.5632C115.814 71.4545 115.706 71.3445 115.596 71.2358C115.377 70.907 115.377 70.5795 115.486 70.3608C115.486 69.8137 115.486 69.1575 115.596 68.6107C115.706 67.845 115.706 67.0794 115.814 66.4232C116.143 63.6889 116.252 60.7358 116.252 60.189C116.252 58.8764 116.252 58.0015 116.252 56.5797C116.142 54.1735 116.142 53.0798 115.924 52.2047C115.814 51.6579 115.814 51.2204 115.706 50.8923H115.596C115.596 51.2204 115.706 51.5485 115.706 51.8766C115.814 52.8611 116.033 54.2829 116.033 56.1422C116.033 57.1266 116.033 61.6108 116.033 61.6108C116.033 61.6108 114.721 70.6883 115.158 71.3445C116.143 72.9856 121.72 72.8756 122.924 71.5632C121.174 72.0007 119.862 72.2194 119.095 72.2194Z" fill="#9EE5DB"/>
<path d="M122.158 61.6113V61.3927C121.174 61.502 120.08 61.0644 118.877 61.0644C117.674 61.0644 116.47 61.1739 115.814 60.9551V61.5019C115.814 61.5019 115.814 61.5019 115.814 61.6114C116.58 61.7208 117.674 61.9395 118.549 61.9395C119.97 62.0489 121.064 61.83 122.158 61.6113Z" fill="#9EE5DB"/>
<path d="M122.049 61.3924L122.158 60.5173C121.174 60.6268 119.97 60.8456 118.877 60.7361C117.674 60.7361 116.362 60.5173 115.814 60.2986L115.924 61.1737C115.924 61.1737 115.924 61.1736 115.924 61.283C116.689 61.3925 117.783 61.6111 118.658 61.6111C119.97 61.8299 121.065 61.7206 122.049 61.3924Z" fill="#7FD6CB"/>
<path d="M124.345 53.9551V53.7363V53.9551C124.236 53.9551 124.126 54.0644 124.018 53.9551H123.799L124.018 54.0644C124.126 54.0644 124.126 54.1738 124.126 54.2832V54.5019L124.236 54.2832C124.236 54.1738 124.346 54.1738 124.455 54.1738H124.674L124.455 54.0644C124.345 54.0644 124.345 53.9551 124.345 53.9551Z" fill="white"/>
<path d="M114.392 51.1113C113.955 51.1113 110.346 57.1268 109.799 60.0799C109.69 60.5173 109.58 60.7361 109.799 60.9548C109.909 61.1735 110.455 61.1735 110.674 61.0643C110.892 61.0643 114.611 55.1582 114.721 54.0644C114.94 52.9707 114.94 51.1113 114.392 51.1113Z" fill="#F9B087"/>
<path d="M109.798 60.9551C110.017 61.3926 116.799 62.8144 117.456 62.705C117.674 62.705 117.783 61.9394 117.674 61.6113C117.564 61.3926 111.548 59.3145 110.783 59.5332C110.017 59.9707 109.58 60.5175 109.798 60.9551Z" fill="#F9B087"/>
<path d="M111.221 59.9705C111.221 59.9705 112.971 60.1893 117.673 61.9393C117.673 61.8298 117.673 61.7205 117.564 61.7205C117.454 61.5018 113.517 60.1893 111.659 59.7518C112.861 57.8925 114.611 54.8301 114.721 54.0644C114.721 53.8457 114.83 53.5176 114.83 53.2988C114.502 53.7363 114.283 54.1738 114.173 54.5019C113.627 56.1425 111.111 59.8612 111.221 59.9705Z" fill="#F39474"/>
<path d="M114.393 51.1113C114.174 51.1113 113.189 52.5331 112.206 54.3925C112.425 54.6112 112.643 54.7206 112.862 54.9393C113.299 55.2674 113.737 55.5955 114.174 55.8143C114.612 55.0487 114.831 54.5019 114.939 54.1738C115.268 52.6425 114.939 51.1113 114.393 51.1113Z" fill="white"/>
<path d="M113.736 55.5957C113.846 55.5957 113.954 55.7052 114.064 55.7052C114.174 55.4865 114.283 55.3771 114.392 55.1582C114.611 54.7208 114.829 54.2833 114.829 54.1739C114.829 54.0646 114.939 53.8458 114.939 53.7365C114.721 53.6271 114.174 54.8301 113.737 55.5958L113.736 55.5957Z" fill="#EDECEB"/>
<path d="M114.393 51.1113C114.283 51.1113 114.065 51.4394 113.627 51.8769C113.737 51.7675 113.956 51.6582 114.175 51.5488C114.283 51.4394 114.502 51.4394 114.721 51.3301C114.611 51.2207 114.502 51.1113 114.393 51.1113Z" fill="#EDECEB"/>
<path d="M116.689 61.7206C116.908 61.5018 117.237 61.6111 117.564 61.7206C117.893 61.8299 118.112 62.158 118.112 62.4861C118.221 62.8142 118.112 63.5799 117.893 63.7987C117.564 64.1268 116.689 63.9082 116.252 63.5799C115.704 63.1424 116.142 62.158 116.689 61.7206Z" fill="#F9B087"/>
<path d="M123.251 51.1113C123.58 51.1113 126.751 57.1268 127.299 60.1892C127.407 60.6267 127.517 60.8454 127.299 61.1735C127.189 61.3923 125.549 59.4237 125.33 59.3143C125.111 59.3143 123.033 55.8143 122.814 54.83C122.595 53.6269 123.033 51.1113 123.251 51.1113Z" fill="#F9B087"/>
<path d="M125.22 58.986C125.111 59.5329 129.377 63.9078 130.033 63.5797C130.033 63.5797 130.689 63.6891 130.798 63.361C131.017 62.7047 127.08 58.0017 126.423 58.0017C125.657 58.0017 125.22 58.4392 125.22 58.986Z" fill="#F9B087"/>
<path d="M125.876 59.5331C125.439 58.9861 124.345 57.3456 123.799 56.2518C123.47 55.5956 123.143 54.83 122.705 54.0645C122.705 54.3926 122.705 54.6113 122.705 54.83C122.814 55.8143 125.001 59.3144 125.22 59.3144C125.986 60.5174 129.267 63.9079 129.923 63.5798C129.923 63.5798 128.83 63.1424 129.376 63.033C128.282 62.0486 126.314 60.0799 125.876 59.5331Z" fill="#F39474"/>
<path d="M125.22 54.6112C124.345 52.6425 123.362 51.1113 123.252 51.1113C122.705 51.1113 122.705 53.6269 122.814 54.83C122.814 55.1581 123.033 55.5955 123.362 56.1424C123.689 55.9236 124.126 55.5955 124.564 55.2674C124.783 54.9393 125.001 54.7206 125.22 54.6112Z" fill="white"/>
<path d="M123.799 51.7676C123.689 51.6582 123.689 51.5488 123.58 51.4394C123.58 51.4394 123.58 51.3301 123.47 51.3301C123.36 51.3301 123.251 51.4394 123.251 51.6582C123.361 51.6582 123.47 51.7676 123.58 51.7676C123.47 51.5488 123.58 51.6582 123.799 51.7676Z" fill="#EDECEB"/>
<path d="M122.814 54.1738C122.814 54.1738 122.705 54.1738 122.814 54.1738C122.814 54.3926 122.814 54.6113 122.814 54.83C122.814 55.1581 123.033 55.5957 123.361 56.1426C123.47 56.0331 123.58 56.0331 123.689 55.9238C123.361 55.1581 122.924 54.1738 122.814 54.1738Z" fill="#EDECEB"/>
<path d="M134.408 63.361C134.408 63.6892 131.892 63.6892 131.017 63.6892C130.032 63.6892 129.267 63.4704 129.267 63.0329C129.267 62.5954 130.032 62.3767 131.017 62.3767C132.001 62.5954 134.408 63.0329 134.408 63.361Z" fill="#F9B087"/>
<path d="M134.408 63.3611C134.189 63.5798 131.892 63.4706 131.017 63.4706C130.252 63.4706 129.705 63.2517 129.377 63.033C129.267 63.1425 129.267 63.1424 129.267 63.2517C129.267 63.5799 130.032 63.908 131.017 63.908C132.001 63.7985 134.408 63.7985 134.408 63.3611Z" fill="#F39474"/>
<path d="M119.314 51.8772L119.204 45.2055C119.204 45.2055 116.142 43.3461 115.923 45.0961C115.923 45.0961 114.829 49.9084 117.345 49.6897V51.1116C117.345 51.1116 117.892 52.0959 118.548 52.2053C119.204 52.3146 119.314 51.8772 119.314 51.8772Z" fill="#F8A492"/>
<path d="M117.345 46.9551C117.345 46.9551 117.345 47.0644 117.345 46.9551C117.345 47.1738 117.345 47.3926 117.454 47.3926C117.345 47.3926 117.345 47.1738 117.345 46.9551Z" fill="#75271A"/>
<path d="M117.564 46.8459C117.893 46.8459 117.783 47.3929 117.564 47.3929C117.236 47.3929 117.346 46.8459 117.564 46.8459Z" fill="#75271A"/>
<path d="M116.362 46.9553C116.362 46.846 116.362 46.9553 116.362 46.9553C116.362 47.1741 116.252 47.3928 116.143 47.3928C116.362 47.3928 116.362 47.0647 116.362 46.9553Z" fill="#75271A"/>
<path d="M116.252 46.7364C115.923 46.627 115.814 47.2833 116.142 47.2833C116.361 47.2833 116.471 46.7364 116.252 46.7364Z" fill="#75271A"/>
<path d="M117.893 46.6273C117.783 46.6273 117.783 46.518 117.674 46.518C117.564 46.518 117.564 46.4085 117.456 46.4085V46.2991C117.564 46.1897 117.674 46.2991 117.783 46.2991C117.893 46.2991 118.002 46.4086 118.002 46.518C118.112 46.518 117.893 46.6273 117.893 46.6273Z" fill="#75271A"/>
<path d="M116.033 46.4087C116.143 46.4087 116.143 46.4087 116.252 46.4087C116.362 46.4087 116.47 46.4087 116.47 46.2993V46.1899C116.362 46.0806 116.252 46.0806 116.143 46.0806C116.033 46.0806 115.924 46.0806 115.814 46.1899C115.814 46.2993 115.924 46.4087 116.033 46.4087Z" fill="#75271A"/>
<path d="M117.564 48.1586C117.455 48.2679 117.237 48.3773 117.127 48.3773C117.018 48.3773 117.018 48.3773 116.908 48.3773C116.908 48.2679 117.018 48.0492 117.018 48.0492C116.908 48.0492 116.689 48.1586 116.689 48.0492C116.799 47.5024 116.908 46.8462 117.127 46.2993C117.018 46.8462 116.799 47.393 116.799 47.9398C116.908 47.9398 117.018 47.8305 117.127 47.9398L117.018 48.3773C117.018 48.2679 117.237 48.2679 117.564 48.1586Z" fill="#75271A"/>
<path d="M117.237 49.0334C117.127 49.0334 117.127 49.0334 117.018 49.0334C116.908 49.0334 116.908 48.9241 116.908 48.9241C116.908 49.0334 117.018 49.0334 117.127 49.1428C117.127 49.1428 117.237 49.1428 117.237 49.0334Z" fill="#75271A"/>
<path d="M116.689 48.4863C116.689 48.4863 116.689 48.7051 116.908 48.8144C116.908 48.8144 117.018 48.9238 117.127 48.9238C117.237 48.9238 117.345 48.8144 117.345 48.7051C117.345 48.5957 117.345 48.4863 117.345 48.4863C117.345 48.4863 117.018 48.5957 116.689 48.4863Z" fill="#75271A"/>
<path d="M116.8 48.8148C116.8 48.8148 116.908 48.9241 117.018 48.9241C117.127 48.9241 117.237 48.8148 117.237 48.7054C117.127 48.596 116.908 48.596 116.8 48.8148Z" fill="#FF98B9"/>
<path d="M105.534 69.0483L119.643 76.4853L124.236 69.2671C124.345 69.0483 124.236 68.8296 124.018 68.8296H105.534C105.534 68.8296 105.424 69.0483 105.534 69.0483Z" fill="#FCBB03"/>
<path d="M129.486 76.3767H127.189V78.6728H129.486V76.3767Z" fill="#5E7E8E"/>
<path d="M127.189 81.9539C127.518 81.9539 127.845 81.7352 128.174 81.2977C128.501 80.8602 128.611 80.204 128.611 79.3291C128.611 78.4541 128.393 77.6892 128.174 77.3604L127.955 77.4704C128.501 78.1266 128.501 80.314 127.955 81.0789C127.626 81.5164 127.299 81.7352 126.97 81.6264C125.876 81.2977 125.112 77.5792 125.002 76.2668C125.002 75.8293 124.893 75.5018 124.783 75.0643C124.674 74.6269 124.564 74.0794 124.564 73.5319C124.564 73.3132 124.564 73.0945 124.564 72.9857C124.455 71.892 124.455 70.7984 124.127 69.8139C123.799 68.6108 123.143 67.8452 122.268 67.2983L122.158 67.5171C124.018 68.6108 124.237 71.0171 124.345 72.9857C124.345 73.2045 124.345 73.4232 124.345 73.5319C124.345 74.0794 124.455 74.5169 124.564 75.0643C124.674 75.5018 124.674 75.8293 124.783 76.2668C124.783 76.5955 125.002 77.9079 125.33 79.2203C125.768 80.7515 126.314 81.6264 126.861 81.8451C127.08 81.9539 127.189 81.9539 127.189 81.9539Z" fill="#3D576B"/>
<path d="M115.704 64.2361L115.048 64.6735L114.829 64.3454C114.829 64.2361 114.829 64.1267 114.939 64.1267L115.267 63.908C115.377 63.908 115.486 63.908 115.486 64.0173L115.704 64.2361Z" fill="#6CC8C1"/>
<path d="M120.955 68.8299H110.017C110.017 68.5017 110.236 68.283 110.455 68.283H120.518C120.736 68.3923 120.955 68.6111 120.955 68.8299Z" fill="#4A6372"/>
<path d="M110.455 68.3923H120.518L120.737 68.1735L121.502 67.6266C121.612 67.5172 121.612 67.4078 121.72 67.2985C121.72 67.0797 121.83 66.861 121.83 66.7516L121.72 66.0954L121.612 65.658L121.502 64.7829C121.283 64.2361 120.845 63.7986 120.408 63.7986H116.798C116.471 63.7986 116.033 63.908 115.704 64.1267L113.736 65.2205C113.517 65.3299 113.298 65.4392 113.08 65.658C112.861 65.7673 112.642 65.9861 112.533 66.0954C112.315 66.3142 111.986 66.5329 111.767 66.861C111.659 66.9704 111.659 66.9704 111.549 67.0797L110.455 68.3923ZM116.361 66.2048C116.142 66.2048 116.033 65.7673 116.142 65.5486L116.579 64.8923L116.689 64.7829H116.798H120.08C120.189 64.7829 120.299 64.8923 120.299 65.1111L120.408 65.7673C120.408 65.9861 120.408 66.0954 120.299 66.2048H120.189H116.361Z" fill="#E8F4FC"/>
<path d="M119.095 66.2048H117.237C117.237 66.0954 117.346 65.8767 117.456 65.8767H118.768C118.987 65.8767 119.095 65.9861 119.095 66.2048Z" fill="#6CC8C1"/>
<path d="M110.455 68.3921H120.518L121.502 67.7357C121.612 67.6264 121.612 67.517 121.72 67.4076C121.72 67.1889 121.83 66.9702 121.83 66.8608L121.72 66.2046L120.408 67.2983C120.299 67.4076 120.08 67.517 119.97 67.517H112.423C112.205 67.517 112.096 67.2983 112.096 67.0795L112.315 66.314C111.986 66.6421 111.659 66.9702 111.33 67.2983L110.455 68.3921Z" fill="#6CC8C1"/>
<path opacity="0.2" d="M110.455 68.3921H120.518L120.737 68.1734C111.659 68.3921 111.659 66.8608 111.659 66.8608C111.549 66.9702 111.549 66.9702 111.44 67.0796L110.455 68.3921Z" fill="#29235C"/>
<path opacity="0.5" d="M116.689 68.7202H118.877H116.689C116.689 68.6108 116.689 68.6108 116.689 68.7202Z" fill="white"/>
<path d="M115.486 66.2049C116.033 66.6423 118.987 66.2049 119.97 66.0955H116.361C116.142 66.0955 116.033 65.658 116.142 65.4393L116.579 64.783L116.689 64.6736C116.579 64.783 114.829 65.7674 115.486 66.2049Z" fill="#6CC8C1"/>
<path opacity="0.5" d="M113.19 65.7673C113.19 65.7673 111.986 67.0799 113.19 67.0799C113.19 67.0799 112.752 66.8611 113.19 65.7673Z" fill="white"/>
<path d="M121.72 66.8608L122.376 67.1889L122.486 67.2983V67.517C122.486 67.6265 122.376 67.6264 122.376 67.6264L121.72 67.4077V66.8608Z" fill="#6CC8C1"/>
<path d="M128.282 78.2355C128.645 78.2355 128.939 77.9422 128.939 77.5793C128.939 77.2177 128.645 76.9231 128.282 76.9231C127.921 76.9231 127.626 77.2177 127.626 77.5793C127.626 77.9422 127.921 78.2355 128.282 78.2355Z" fill="#4A6372"/>
<path d="M105.124 94.4952L105.511 94.8821L130.414 69.9795L130.027 69.5928L105.124 94.4952Z" fill="#3D576B"/>
<path d="M105.572 69.6028L105.185 69.9894L130.087 94.8922L130.473 94.5053L105.572 69.6028Z" fill="#3D576B"/>
<path d="M99.7367 69.1577H94.4866V69.5952H99.7367V69.1577Z" fill="#3D576B"/>
<path d="M94.4868 67.9546H94.0493V69.5952H94.4868V67.9546Z" fill="#3D576B"/>
<path d="M100.064 70.4697H138.673C139.002 70.4697 139.22 70.251 139.22 69.9233V69.5952C139.22 69.2671 139.002 69.0483 138.673 69.0483H100.064C99.7367 69.0483 99.518 69.2671 99.518 69.5952V69.9233C99.408 70.251 99.7367 70.4697 100.064 70.4697Z" fill="#6CC8C1"/>
<path d="M130.142 95.1877C130.444 95.1877 130.688 94.9436 130.688 94.6415C130.688 94.3393 130.444 94.094 130.142 94.094C129.84 94.094 129.594 94.3393 129.594 94.6415C129.594 94.9436 129.84 95.1877 130.142 95.1877Z" fill="#6CC8C1"/>
<path d="M105.424 95.1877C105.726 95.1877 105.971 94.9436 105.971 94.6415C105.971 94.3393 105.726 94.094 105.424 94.094C105.122 94.094 104.878 94.3393 104.878 94.6415C104.878 94.9436 105.122 95.1877 105.424 95.1877Z" fill="#6CC8C1"/>
<path d="M129.267 69.0486H136.486C136.814 69.0486 137.142 68.7205 137.142 68.3924V68.0643C137.142 67.7362 136.814 67.408 136.486 67.408H129.267C128.939 67.408 128.611 67.7362 128.611 68.0643V68.3924C128.611 68.7205 128.939 69.0486 129.267 69.0486Z" fill="white"/>
<path d="M129.267 64.4546H136.486C136.814 64.4546 137.142 64.1265 137.142 63.7984V63.4703C137.142 63.1422 136.814 62.814 136.486 62.814H129.267C128.939 62.814 128.611 63.1422 128.611 63.4703V63.7984C128.611 64.1265 128.939 64.4546 129.267 64.4546Z" fill="white"/>
<path d="M128.611 67.2988H136.158C136.486 67.2988 136.814 66.9706 136.814 66.6425V66.3144C136.814 65.9863 136.486 65.6582 136.158 65.6582H128.611C128.282 65.6582 127.955 65.9863 127.955 66.3144V66.6425C127.955 66.9706 128.282 67.2988 128.611 67.2988Z" fill="#FFDD00"/>
<path d="M129.157 65.5485H136.814C137.142 65.5485 137.47 65.3297 137.47 64.8923V64.5642C137.47 64.2361 137.252 63.908 136.814 63.908H129.157C128.83 63.908 128.501 64.1267 128.501 64.5642V64.8923C128.501 65.3297 128.72 65.5485 129.157 65.5485Z" fill="#5E7E8E"/>
<path d="M125.876 69.0486L110.017 79.6579L104.221 69.0486C104.111 68.9392 104.221 68.7205 104.44 68.7205H125.876C125.876 68.8298 125.986 68.9392 125.876 69.0486Z" fill="#FFDD00"/>
<path d="M152.62 99H4.47848C3.68994 99 3 98.25 3 97.5C3 96.75 3.68994 96 4.47848 96H152.521C153.31 96 154 96.75 154 97.5C154 98.25 153.408 99 152.62 99Z" fill="#5C8097"/>
<path d="M36.1914 57.7832H10.2703V93.9857H36.1914V57.7832Z" fill="#9DB5C4"/>
<path d="M39.4727 57.7832H13.5515V93.9857H39.4727V57.7832Z" fill="white"/>
<path d="M39.4727 57.7832H13.5515V93.9857H39.4727V57.7832Z" fill="#E8F4FC"/>
<path d="M39.4727 88.0798H13.5515V88.626H39.4727V88.0798Z" fill="#B3C6D4"/>
<path d="M39.4727 88.0798H13.5515V88.2986H39.4727V88.0798Z" fill="#9BB5C4"/>
<path d="M39.4727 57.7832H13.5515V64.8925H39.4727V57.7832Z" fill="#F5FBFF"/>
<path d="M39.4727 64.2361H13.5515V64.6736H39.4727V64.2361Z" fill="#B3C6D4"/>
<path d="M39.4727 64.2361H13.5515V64.4548H39.4727V64.2361Z" fill="#9DB5C4"/>
<path d="M39.4727 57.7832H13.5515V59.4238H39.4727V57.7832Z" fill="#F5FBFF"/>
<path d="M16.0668 59.8613H21.2074C21.6449 59.8613 21.973 60.1894 21.973 60.6269V63.3612C21.973 63.58 21.7542 63.7987 21.5355 63.7987H15.6294C15.4106 63.7987 15.1919 63.58 15.1919 63.3612V60.6269C15.3013 60.1894 15.6294 59.8613 16.0668 59.8613Z" fill="#359591"/>
<path d="M16.067 59.8613H21.3167C21.7542 59.8613 21.973 60.1894 21.973 60.5175V62.705C21.973 62.9238 21.8636 63.0331 21.6449 63.0331H15.6294C15.4106 63.0331 15.3013 62.9238 15.3013 62.705V60.5175C15.3013 60.1894 15.6294 59.8613 16.067 59.8613Z" fill="#3D576B"/>
<path d="M26.4572 63.1423C27.1821 63.1423 27.7697 62.5547 27.7697 61.8299C27.7697 61.105 27.1821 60.5173 26.4572 60.5173C25.7323 60.5173 25.1448 61.105 25.1448 61.8299C25.1448 62.5547 25.7323 63.1423 26.4572 63.1423Z" fill="#B9CFD6"/>
<path d="M26.0197 60.5173C25.5822 60.7361 25.3635 61.1737 25.3635 61.7205C25.3635 62.4861 25.9104 63.0329 26.6759 63.0329C26.7853 63.0329 26.8947 63.0329 27.004 63.0329C26.7853 63.1423 26.6759 63.1423 26.4572 63.1423C25.6916 63.1423 25.1448 62.5955 25.1448 61.8299C25.1448 61.1737 25.4729 60.7361 26.0197 60.5173Z" fill="#ABC1C6"/>
<path d="M26.4572 62.8143C27.0009 62.8143 27.4416 62.3737 27.4416 61.83C27.4416 61.2863 27.0009 60.8457 26.4572 60.8457C25.9137 60.8457 25.4729 61.2863 25.4729 61.83C25.4729 62.3737 25.9137 62.8143 26.4572 62.8143Z" fill="#3D576B"/>
<path d="M26.4572 62.8143C27.0009 62.8143 27.4416 62.3737 27.4416 61.83C27.4416 61.2863 27.0009 60.8457 26.4572 60.8457C25.9137 60.8457 25.4729 61.2863 25.4729 61.83C25.4729 62.3737 25.9137 62.8143 26.4572 62.8143Z" fill="#3D576B"/>
<path d="M26.1293 60.8457C26.02 60.9551 25.9106 61.1738 25.9106 61.3925C25.9106 61.9394 26.3481 62.3769 26.8949 62.3769C27.0043 62.3769 27.0043 62.3769 27.1137 62.3769C26.8949 62.5956 26.6762 62.705 26.3481 62.705C25.8012 62.705 25.3638 62.2675 25.3638 61.7206C25.4731 61.3925 25.8012 60.9551 26.1293 60.8457Z" fill="#184670"/>
<path d="M19.3481 60.1895H21.4263C21.4263 60.1895 21.5356 60.1895 21.5356 60.2988V60.955C21.5356 60.955 21.5356 61.0644 21.4263 61.0644H19.3481C19.3481 61.0644 19.2388 61.0644 19.2388 60.955L19.3481 60.1895C19.2388 60.1895 19.2388 60.2988 19.3481 60.1895Z" fill="#CCD9E2"/>
<path d="M36.5198 59.8613H38.1603C38.2696 59.8613 38.379 59.9707 38.379 60.0801V60.5175C38.379 60.6269 38.2696 60.7363 38.1603 60.7363H36.5198C36.4104 60.7363 36.301 60.6269 36.301 60.5175V60.0801C36.301 59.9707 36.4104 59.8613 36.5198 59.8613Z" fill="#D82156"/>
<path d="M36.5198 59.8613H38.0509C38.1603 59.8613 38.2696 59.9707 38.2696 60.0801V60.4082C38.2696 60.5175 38.1603 60.6269 38.0509 60.6269H36.5198C36.4104 60.6269 36.301 60.5175 36.301 60.4082V60.0801C36.301 59.9707 36.4104 59.8613 36.5198 59.8613Z" fill="#6CC8C1"/>
<path d="M36.5196 59.8613H36.629V60.2988C36.629 60.4082 36.7384 60.5175 36.8477 60.5175H38.2695C38.2695 60.6269 38.1602 60.6269 38.0508 60.6269H36.4103C36.3008 60.6269 36.1914 60.5175 36.1914 60.4082V59.9707C36.3008 59.9707 36.4103 59.8613 36.5196 59.8613Z" fill="#359591"/>
<path d="M28.6448 60.1895H29.4105C29.5198 60.1895 29.5198 60.1895 29.5198 60.2988V60.5176C29.5198 60.6269 29.5198 60.6269 29.4105 60.6269H28.6448C28.5354 60.6269 28.5354 60.6269 28.5354 60.5176L28.6448 60.1895C28.5354 60.2988 28.5354 60.1895 28.6448 60.1895Z" fill="#6CC8C1"/>
<path d="M28.6448 60.9551H29.4105C29.5198 60.9551 29.5198 60.9551 29.5198 61.0644V61.2832C29.5198 61.3925 29.5198 61.3926 29.4105 61.3926H28.6448C28.5354 61.3926 28.5354 61.3925 28.5354 61.2832L28.6448 60.9551C28.5354 60.9551 28.5354 60.9551 28.6448 60.9551Z" fill="#6CC8C1"/>
<path d="M28.6448 61.7205H29.4105C29.5198 61.7205 29.5198 61.7205 29.5198 61.8298V62.0486C29.5198 62.1579 29.5198 62.1579 29.4105 62.1579H28.6448C28.5354 62.1579 28.5354 62.1579 28.5354 62.0486L28.6448 61.7205C28.5354 61.7205 28.5354 61.7205 28.6448 61.7205Z" fill="#6CC8C1"/>
<path d="M28.6448 62.4863H29.4105C29.5198 62.4863 29.5198 62.4863 29.5198 62.5957V62.8144C29.5198 62.9238 29.5198 62.9238 29.4105 62.9238H28.6448C28.5354 62.9238 28.5354 62.9238 28.5354 62.8144L28.6448 62.4863C28.5354 62.4863 28.5354 62.4863 28.6448 62.4863Z" fill="#6CC8C1"/>
<path d="M28.6448 63.252H29.4105C29.5198 63.252 29.5198 63.2519 29.5198 63.3613V63.5801C29.5198 63.6895 29.5198 63.6894 29.4105 63.6894H28.6448C28.5354 63.6894 28.5354 63.6895 28.5354 63.5801L28.6448 63.252C28.5354 63.252 28.5354 63.252 28.6448 63.252Z" fill="#6CC8C1"/>
<path d="M23.395 60.1895H24.1607C24.2701 60.1895 24.2701 60.1895 24.2701 60.2988V60.5176C24.2701 60.6269 24.2701 60.6269 24.1607 60.6269H23.395C23.2856 60.6269 23.2856 60.6269 23.2856 60.5176L23.395 60.1895C23.2856 60.2988 23.395 60.1895 23.395 60.1895Z" fill="#6CC8C1"/>
<path d="M23.395 60.9551H24.1607C24.2701 60.9551 24.2701 60.9551 24.2701 61.0644V61.2832C24.2701 61.3925 24.2701 61.3926 24.1607 61.3926H23.395C23.2856 61.3926 23.2856 61.3925 23.2856 61.2832L23.395 60.9551C23.2856 60.9551 23.395 60.9551 23.395 60.9551Z" fill="#6CC8C1"/>
<path d="M23.395 61.7205H24.1607C24.2701 61.7205 24.2701 61.7205 24.2701 61.8298V62.0486C24.2701 62.1579 24.2701 62.1579 24.1607 62.1579H23.395C23.2856 62.1579 23.2856 62.1579 23.2856 62.0486L23.395 61.7205C23.2856 61.7205 23.395 61.7205 23.395 61.7205Z" fill="#6CC8C1"/>
<path d="M23.395 62.4863H24.1607C24.2701 62.4863 24.2701 62.4863 24.2701 62.5957V62.8144C24.2701 62.9238 24.2701 62.9238 24.1607 62.9238H23.395C23.2856 62.9238 23.2856 62.9238 23.2856 62.8144L23.395 62.4863C23.2856 62.4863 23.395 62.4863 23.395 62.4863Z" fill="#6CC8C1"/>
<path d="M23.395 63.252H24.1607C24.2701 63.252 24.2701 63.2519 24.2701 63.3613V63.5801C24.2701 63.6895 24.2701 63.6894 24.1607 63.6894H23.395C23.2856 63.6894 23.2856 63.6895 23.2856 63.5801L23.395 63.252C23.2856 63.252 23.395 63.252 23.395 63.252Z" fill="#6CC8C1"/>
<path d="M37.7226 63.252C38.0247 63.252 38.2695 63.0071 38.2695 62.7052C38.2695 62.4031 38.0247 62.1582 37.7226 62.1582C37.4206 62.1582 37.1758 62.4031 37.1758 62.7052C37.1758 63.0071 37.4206 63.252 37.7226 63.252Z" fill="#3D576B"/>
<path d="M39.4727 93.4382H13.5515V93.9857H39.4727V93.4382Z" fill="#B3C6D4"/>
<path d="M16.8326 89.9385H22.5199C22.7386 89.9385 22.8481 90.0485 22.8481 90.2672V93.9857H16.5044V90.2672C16.5044 90.1572 16.6138 89.9385 16.8326 89.9385Z" fill="#B3C6D4"/>
<path d="M17.3793 90.5947H21.9729C22.0823 90.5947 22.3011 90.7047 22.3011 90.9235V93.9858H17.1606V90.9235C17.0512 90.7047 17.1606 90.5947 17.3793 90.5947Z" fill="#8BA6B6"/>
<path d="M17.7075 91.251H21.7544C21.7544 91.251 21.8637 91.251 21.8637 91.361V91.4697C21.8637 91.4697 21.8637 91.5797 21.7544 91.5797H17.7075C17.7075 91.5797 17.5981 91.5797 17.5981 91.4697L17.7075 91.251C17.5981 91.251 17.7075 91.251 17.7075 91.251Z" fill="#A7BCC9"/>
<path d="M17.7075 92.0171H21.7544C21.7544 92.0171 21.8637 92.0171 21.8637 92.1258V92.2358C21.8637 92.2358 21.8637 92.3446 21.7544 92.3446H17.7075C17.7075 92.3446 17.5981 92.3446 17.5981 92.2358L17.7075 92.0171C17.5981 92.1258 17.7075 92.0171 17.7075 92.0171Z" fill="#A7BCC9"/>
<path d="M17.7075 92.7822H21.7544C21.7544 92.7822 21.8637 92.7822 21.8637 92.8922V93.001C21.8637 93.001 21.8637 93.111 21.7544 93.111H17.7075C17.7075 93.111 17.5981 93.111 17.5981 93.001L17.7075 92.7822C17.5981 92.8922 17.7075 92.7822 17.7075 92.7822Z" fill="#A7BCC9"/>
<path d="M39.4727 58.9863H13.5515V59.3144H39.4727V58.9863Z" fill="#B3C6D4"/>
<path d="M39.4727 58.877H13.5515V59.0957H39.4727V58.877Z" fill="#9DB5C4"/>
<path d="M16.067 59.8613C16.1763 59.9707 16.1763 60.1894 16.2857 60.4082C16.7232 61.7207 18.0356 62.3769 18.5824 62.4863C18.9105 62.5956 19.5669 62.705 20.8793 62.705C21.2074 62.705 21.5355 62.705 21.973 62.705V63.0331H15.3013V60.6269C15.3013 60.1894 15.6294 59.8613 16.067 59.8613Z" fill="#144566"/>
<path d="M27.0082 61.368C26.8718 61.1687 26.6399 61.09 26.4903 61.1923C26.3409 61.2947 26.3301 61.5392 26.4667 61.7386C26.6031 61.938 26.8348 62.0168 26.9844 61.9145C27.134 61.8121 27.1446 61.5676 27.0082 61.368Z" fill="#29748E"/>
<path d="M37.7226 63.252C38.0247 63.252 38.2695 63.0071 38.2695 62.7052C38.2695 62.4031 38.0247 62.1582 37.7226 62.1582C37.4206 62.1582 37.1758 62.4031 37.1758 62.7052C37.1758 63.0071 37.4206 63.252 37.7226 63.252Z" fill="#3D576B"/>
<path d="M37.6133 62.0483C37.5039 62.1577 37.5039 62.2671 37.5039 62.4858C37.5039 62.8139 37.7226 63.0327 38.0507 63.0327H38.1601C38.0507 63.142 37.9414 63.2514 37.7226 63.2514C37.3945 63.2514 37.1758 63.0327 37.1758 62.7046C37.1758 62.3764 37.2851 62.1577 37.6133 62.0483Z" fill="#2D4351"/>
<path d="M35.8635 63.0329C36.0447 63.0329 36.1916 62.886 36.1916 62.7048C36.1916 62.5236 36.0447 62.3767 35.8635 62.3767C35.6823 62.3767 35.5354 62.5236 35.5354 62.7048C35.5354 62.886 35.6823 63.0329 35.8635 63.0329Z" fill="#B3C6D4"/>
<path d="M35.8635 62.2676C35.7541 62.3769 35.7541 62.3769 35.7541 62.4863C35.7541 62.705 35.9729 62.8144 36.0822 62.8144H36.1916C36.0822 62.9238 35.9729 62.9238 35.8635 62.9238C35.6448 62.9238 35.5354 62.705 35.5354 62.5957C35.5354 62.4863 35.6448 62.3769 35.8635 62.2676Z" fill="#A6BCC9"/>
<path d="M36.1539 62.4704C36.0868 62.37 35.9916 62.3158 35.9414 62.3493C35.8912 62.3829 35.9048 62.4915 35.9721 62.5919C36.0392 62.6924 36.1343 62.7465 36.1845 62.713C36.2347 62.6794 36.2211 62.5708 36.1539 62.4704Z" fill="#CCD9E2"/>
<path d="M34.4415 63.0329C34.6227 63.0329 34.7696 62.886 34.7696 62.7048C34.7696 62.5236 34.6227 62.3767 34.4415 62.3767C34.2602 62.3767 34.1133 62.5236 34.1133 62.7048C34.1133 62.886 34.2602 63.0329 34.4415 63.0329Z" fill="#B3C6D4"/>
<path d="M34.3323 62.2676C34.2229 62.3769 34.2229 62.3769 34.2229 62.4863C34.2229 62.705 34.4416 62.8144 34.551 62.8144H34.6604C34.551 62.9238 34.4416 62.9238 34.3323 62.9238C34.1135 62.9238 34.0042 62.705 34.0042 62.5957C34.1135 62.4863 34.2229 62.3769 34.3323 62.2676Z" fill="#A6BCC9"/>
<path d="M34.7052 62.4559C34.638 62.3555 34.5429 62.3013 34.4926 62.3349C34.4424 62.3684 34.4562 62.477 34.5233 62.5776C34.5905 62.6779 34.6857 62.7322 34.7359 62.6985C34.7861 62.665 34.7723 62.5563 34.7052 62.4559Z" fill="#CCD9E2"/>
<path d="M33.0195 63.0329C33.2008 63.0329 33.3477 62.886 33.3477 62.7048C33.3477 62.5236 33.2008 62.3767 33.0195 62.3767C32.8383 62.3767 32.6914 62.5236 32.6914 62.7048C32.6914 62.886 32.8383 63.0329 33.0195 63.0329Z" fill="#B3C6D4"/>
<path d="M32.9101 62.2676C32.8008 62.3769 32.8008 62.3769 32.8008 62.4863C32.8008 62.705 33.0195 62.8144 33.1289 62.8144H33.2382C33.1289 62.9238 33.0195 62.9238 32.9101 62.9238C32.6914 62.9238 32.582 62.705 32.582 62.5957C32.6914 62.4863 32.8008 62.3769 32.9101 62.2676Z" fill="#A6BCC9"/>
<path d="M33.3184 62.5334C33.2512 62.433 33.1561 62.3787 33.1059 62.4123C33.0557 62.4459 33.0694 62.5545 33.1365 62.6549C33.2037 62.7554 33.2989 62.8095 33.3491 62.776C33.3993 62.7424 33.3855 62.6338 33.3184 62.5334Z" fill="#CCD9E2"/>
<path d="M37.0664 59.9705H38.1601C38.1601 59.9705 38.2694 59.9705 38.2694 60.0798C38.2694 60.0798 38.2694 60.1892 38.1601 60.1892H37.0664C36.957 60.1892 36.957 60.1892 37.0664 59.9705C36.957 59.9705 36.957 60.0798 37.0664 59.9705Z" fill="#CCD9E2"/>
<path d="M39.4727 93.6567H13.5515V93.8755H39.4727V93.6567Z" fill="#8BA6B6"/>
<path opacity="0.07" d="M16.6139 83.8139C16.6139 87.2049 19.3483 90.0485 22.8482 90.0485H39.4728V93.9857H13.5515V57.7832H16.7233L16.6139 83.8139Z" fill="#082B72"/>
<path d="M26.4574 85.3448C31.9542 85.3448 36.4102 80.8892 36.4102 75.3917C36.4102 69.8951 31.9542 65.439 26.4574 65.439C20.9605 65.439 16.5044 69.8951 16.5044 75.3917C16.5044 80.8892 20.9605 85.3448 26.4574 85.3448Z" fill="#B3C6D4"/>
<path d="M26.4574 85.3448C31.9542 85.3448 36.4102 80.8892 36.4102 75.3917C36.4102 69.8951 31.9542 65.439 26.4574 65.439C20.9605 65.439 16.5044 69.8951 16.5044 75.3917C16.5044 80.8892 20.9605 85.3448 26.4574 85.3448Z" fill="#6CC8C1"/>
<path opacity="0.3" d="M24.4886 65.6582C20.3324 66.8612 17.3793 70.6899 17.3793 75.1733C17.3793 80.6417 21.8637 85.1264 27.3323 85.1264C27.9885 85.1264 28.6447 85.0177 29.1916 84.9077C28.3166 85.1264 27.3323 85.3452 26.3479 85.3452C20.8794 85.3452 16.395 80.8605 16.395 75.3921C16.5044 70.5799 19.8949 66.5331 24.4886 65.6582Z" fill="white"/>
<path d="M26.4574 83.2662C30.8064 83.2662 34.3321 79.7411 34.3321 75.3917C34.3321 71.0423 30.8064 67.5171 26.4574 67.5171C22.1082 67.5171 18.5825 71.0423 18.5825 75.3917C18.5825 79.7411 22.1082 83.2662 26.4574 83.2662Z" fill="#3D576B"/>
<path d="M26.4573 81.7353C30.2628 81.7353 33.3477 78.6996 33.3477 74.9545C33.3477 71.2095 30.2628 68.1736 26.4573 68.1736C22.6518 68.1736 19.5669 71.2095 19.5669 74.9545C19.5669 78.6996 22.6518 81.7353 26.4573 81.7353Z" fill="#144B63"/>
<path d="M26.4572 80.6415C29.115 80.6415 31.2695 78.095 31.2695 74.9543C31.2695 71.8137 29.115 69.2671 26.4572 69.2671C23.7994 69.2671 21.6448 71.8137 21.6448 74.9543C21.6448 78.095 23.7994 80.6415 26.4572 80.6415Z" fill="#3D576B"/>
<path d="M24.4886 77.908C25.473 77.6892 26.8948 77.1417 28.9729 77.2517C30.5041 77.2517 31.7073 77.5792 32.5822 77.908C31.4885 80.2041 29.0823 81.8452 26.348 81.8452C23.3949 81.8452 20.8793 79.9853 19.895 77.3605C21.8636 78.1267 23.3949 78.1267 24.4886 77.908Z" fill="#61AFBC"/>
<path opacity="0.18" d="M24.1605 68.5017C23.6136 69.4861 23.2855 70.6898 23.2855 71.8922C23.2855 75.8295 26.4573 79.0018 30.3947 79.0018C31.0509 79.0018 31.5979 78.8918 32.1447 78.783C30.9415 80.6417 28.7542 81.8453 26.4573 81.8453C22.6293 81.8453 19.5669 78.783 19.5669 75.0645C19.5669 72.0022 21.4261 69.4861 24.1605 68.5017Z" fill="#0C123A"/>
<path opacity="0.27" d="M30.9173 71.6762C30.0663 70.2853 28.7498 69.5405 27.9768 70.0133C27.2038 70.4864 27.2671 71.9973 28.1181 73.3881C28.9692 74.7802 30.2856 75.5249 31.0585 75.052C31.8316 74.5791 31.7682 73.0682 30.9173 71.6762Z" fill="white"/>
<path d="M32.3638 68.5018C32.4731 68.283 32.6919 68.283 32.9106 68.3924C33.2387 68.7206 33.5668 69.0487 33.8949 69.3768C34.2231 69.8143 34.5512 70.2524 34.6606 70.7986C34.77 71.0173 34.6606 71.2361 34.4419 71.2361C34.2231 71.3461 34.1138 71.2361 34.0043 71.0173C33.7855 70.5799 33.5668 70.1424 33.2387 69.7049C33.02 69.3768 32.6919 69.0487 32.3638 68.83C32.2544 68.83 32.2544 68.6111 32.3638 68.5018Z" fill="#CCD9E2"/>
<path d="M32.0352 82.0639C32.8008 81.4077 33.3478 80.7514 33.8946 79.8765C34.2227 79.329 35.0977 77.7979 35.207 75.6105C35.207 74.8456 35.207 74.0794 35.0976 73.3144C35.0976 73.0957 35.207 72.9857 35.3164 72.877C35.5351 72.877 35.7539 72.9857 35.7539 73.2044C35.8634 74.0794 35.9727 74.8456 35.9727 75.7205C35.8632 78.0166 34.9883 79.6578 34.5508 80.314C34.004 81.1889 33.3478 81.9539 32.5821 82.6101C32.4727 82.7201 32.1446 82.7201 32.0352 82.6101C31.8165 82.3913 31.9259 82.1726 32.0352 82.0639Z" fill="#CCD9E2"/>
<path d="M65.2844 57.7832H39.363V93.9857H65.2844V57.7832Z" fill="#9DB5C4"/>
<path d="M68.5657 57.7832H42.6445V93.9857H68.5657V57.7832Z" fill="white"/>
<path d="M68.5657 57.7832H42.6445V93.9857H68.5657V57.7832Z" fill="#E8F4FC"/>
<path d="M68.5657 88.0798H42.6445V88.626H68.5657V88.0798Z" fill="#B3C6D4"/>
<path d="M68.5657 88.0798H42.6445V88.2986H68.5657V88.0798Z" fill="#9BB5C4"/>
<path d="M68.5657 57.7832H42.6445V64.8925H68.5657V57.7832Z" fill="#F5FBFF"/>
<path d="M68.5657 64.2361H42.6445V64.6736H68.5657V64.2361Z" fill="#B3C6D4"/>
<path d="M68.5657 64.2361H42.6445V64.4548H68.5657V64.2361Z" fill="#9DB5C4"/>
<path d="M68.5657 57.7832H42.6445V59.4238H68.5657V57.7832Z" fill="#F5FBFF"/>
<path d="M45.1597 59.8613H50.3001C50.7376 59.8613 51.0658 60.1894 51.0658 60.6269V63.3612C51.0658 63.58 50.847 63.7987 50.6283 63.7987H44.7221C44.5034 63.7987 44.2847 63.58 44.2847 63.3612V60.6269C44.394 60.1894 44.7221 59.8613 45.1597 59.8613Z" fill="#359591"/>
<path d="M45.1599 59.8613H50.4098C50.8472 59.8613 51.066 60.1894 51.066 60.5175V62.705C51.066 62.9238 50.9566 63.0331 50.7379 63.0331H44.7224C44.5037 63.0331 44.3943 62.9238 44.3943 62.705V60.5175C44.3943 60.1894 44.7224 59.8613 45.1599 59.8613Z" fill="#3D576B"/>
<path d="M55.5502 63.1423C56.2751 63.1423 56.8627 62.5547 56.8627 61.8299C56.8627 61.105 56.2751 60.5173 55.5502 60.5173C54.8253 60.5173 54.2378 61.105 54.2378 61.8299C54.2378 62.5547 54.8253 63.1423 55.5502 63.1423Z" fill="#B9CFD6"/>
<path d="M55.1127 60.5173C54.6753 60.7361 54.4565 61.1737 54.4565 61.7205C54.4565 62.4861 55.0034 63.0329 55.7689 63.0329C55.8783 63.0329 55.9877 63.0329 56.0972 63.0329C55.8783 63.1423 55.7689 63.1423 55.5502 63.1423C54.7846 63.1423 54.2378 62.5955 54.2378 61.8299C54.2378 61.1737 54.5659 60.7361 55.1127 60.5173Z" fill="#ABC1C6"/>
<path d="M55.55 62.8143C56.0937 62.8143 56.5343 62.3737 56.5343 61.83C56.5343 61.2863 56.0937 60.8457 55.55 60.8457C55.0063 60.8457 54.5657 61.2863 54.5657 61.83C54.5657 62.3737 55.0063 62.8143 55.55 62.8143Z" fill="#3D576B"/>
<path d="M55.55 62.8143C56.0937 62.8143 56.5343 62.3737 56.5343 61.83C56.5343 61.2863 56.0937 60.8457 55.55 60.8457C55.0063 60.8457 54.5657 61.2863 54.5657 61.83C54.5657 62.3737 55.0063 62.8143 55.55 62.8143Z" fill="#3D576B"/>
<path d="M55.3312 60.8457C55.2219 60.9551 55.1125 61.1738 55.1125 61.3925C55.1125 61.9394 55.55 62.3769 56.0968 62.3769C56.2062 62.3769 56.2062 62.3769 56.3156 62.3769C56.0968 62.5956 55.8781 62.705 55.55 62.705C55.0031 62.705 54.5657 62.2675 54.5657 61.7206C54.5657 61.3925 54.8938 60.9551 55.3312 60.8457Z" fill="#184670"/>
<path d="M48.4409 60.1895H50.519C50.519 60.1895 50.6284 60.1895 50.6284 60.2988V60.955C50.6284 60.955 50.6284 61.0644 50.519 61.0644H48.4409C48.4409 61.0644 48.3315 61.0644 48.3315 60.955L48.4409 60.1895C48.3315 60.1895 48.3315 60.2988 48.4409 60.1895Z" fill="#CCD9E2"/>
<path d="M65.6123 59.8613H67.2529C67.3623 59.8613 67.4717 59.9707 67.4717 60.0801V60.5175C67.4717 60.6269 67.3623 60.7363 67.2529 60.7363H65.6123C65.5029 60.7363 65.3936 60.6269 65.3936 60.5175V60.0801C65.5029 59.9707 65.5029 59.8613 65.6123 59.8613Z" fill="#D82156"/>
<path d="M65.6123 59.8613H67.1436C67.2529 59.8613 67.3623 59.9707 67.3623 60.0801V60.4082C67.3623 60.5175 67.2529 60.6269 67.1436 60.6269H65.6123C65.5029 60.6269 65.3936 60.5175 65.3936 60.4082V60.0801C65.5029 59.9707 65.5029 59.8613 65.6123 59.8613Z" fill="#6CC8C1"/>
<path d="M65.6125 59.8613H65.7219V60.2988C65.7219 60.4082 65.8313 60.5175 65.9406 60.5175H67.3625C67.3625 60.6269 67.2532 60.6269 67.1438 60.6269H65.5032C65.3938 60.6269 65.2844 60.5175 65.2844 60.4082V59.9707C65.5032 59.9707 65.5032 59.8613 65.6125 59.8613Z" fill="#359591"/>
<path d="M57.7375 60.1895H58.5031C58.6125 60.1895 58.6125 60.1895 58.6125 60.2988V60.5176C58.6125 60.6269 58.6125 60.6269 58.5031 60.6269H57.7375C57.6282 60.6269 57.6282 60.6269 57.6282 60.5176L57.7375 60.1895C57.6282 60.2988 57.6282 60.1895 57.7375 60.1895Z" fill="#6CC8C1"/>
<path d="M57.7375 60.9551H58.5031C58.6125 60.9551 58.6125 60.9551 58.6125 61.0644V61.2832C58.6125 61.3925 58.6125 61.3926 58.5031 61.3926H57.7375C57.6282 61.3926 57.6282 61.3925 57.6282 61.2832L57.7375 60.9551C57.6282 60.9551 57.6282 60.9551 57.7375 60.9551Z" fill="#6CC8C1"/>
<path d="M57.7375 61.7205H58.5031C58.6125 61.7205 58.6125 61.7205 58.6125 61.8298V62.0486C58.6125 62.1579 58.6125 62.1579 58.5031 62.1579H57.7375C57.6282 62.1579 57.6282 62.1579 57.6282 62.0486L57.7375 61.7205C57.6282 61.7205 57.6282 61.7205 57.7375 61.7205Z" fill="#6CC8C1"/>
<path d="M57.7375 62.4863H58.5031C58.6125 62.4863 58.6125 62.4863 58.6125 62.5957V62.8144C58.6125 62.9238 58.6125 62.9238 58.5031 62.9238H57.7375C57.6282 62.9238 57.6282 62.9238 57.6282 62.8144L57.7375 62.4863C57.6282 62.4863 57.6282 62.4863 57.7375 62.4863Z" fill="#6CC8C1"/>
<path d="M57.7375 63.252H58.5031C58.6125 63.252 58.6125 63.2519 58.6125 63.3613V63.5801C58.6125 63.6895 58.6125 63.6894 58.5031 63.6894H57.7375C57.6282 63.6894 57.6282 63.6895 57.6282 63.5801L57.7375 63.252C57.6282 63.252 57.6282 63.252 57.7375 63.252Z" fill="#6CC8C1"/>
<path d="M52.4876 60.1895H53.3626C53.472 60.1895 53.472 60.1895 53.472 60.2988V60.5176C53.472 60.6269 53.472 60.6269 53.3626 60.6269H52.5969C52.4876 60.6269 52.4876 60.6269 52.4876 60.5176V60.1895C52.3782 60.2988 52.4876 60.1895 52.4876 60.1895Z" fill="#6CC8C1"/>
<path d="M52.4876 60.9551H53.3626C53.472 60.9551 53.472 60.9551 53.472 61.0644V61.2832C53.472 61.3925 53.472 61.3926 53.3626 61.3926H52.5969C52.4876 61.3926 52.4876 61.3925 52.4876 61.2832V60.9551C52.3782 60.9551 52.4876 60.9551 52.4876 60.9551Z" fill="#6CC8C1"/>
<path d="M52.4876 61.7205H53.3626C53.472 61.7205 53.472 61.7205 53.472 61.8298V62.0486C53.472 62.1579 53.472 62.1579 53.3626 62.1579H52.5969C52.4876 62.1579 52.4876 62.1579 52.4876 62.0486V61.7205C52.3782 61.7205 52.4876 61.7205 52.4876 61.7205Z" fill="#6CC8C1"/>
<path d="M52.4876 62.4863H53.3626C53.472 62.4863 53.472 62.4863 53.472 62.5957V62.8144C53.472 62.9238 53.472 62.9238 53.3626 62.9238H52.5969C52.4876 62.9238 52.4876 62.9238 52.4876 62.8144V62.4863C52.3782 62.4863 52.4876 62.4863 52.4876 62.4863Z" fill="#6CC8C1"/>
<path d="M52.4876 63.252H53.3626C53.472 63.252 53.472 63.2519 53.472 63.3613V63.5801C53.472 63.6895 53.472 63.6894 53.3626 63.6894H52.5969C52.4876 63.6894 52.4876 63.6895 52.4876 63.5801V63.252C52.3782 63.252 52.4876 63.252 52.4876 63.252Z" fill="#6CC8C1"/>
<path d="M66.8156 63.252C67.1177 63.252 67.3625 63.0071 67.3625 62.7052C67.3625 62.4031 67.1177 62.1582 66.8156 62.1582C66.5136 62.1582 66.2688 62.4031 66.2688 62.7052C66.2688 63.0071 66.5136 63.252 66.8156 63.252Z" fill="#3D576B"/>
<path d="M68.5657 93.4382H42.6445V93.9857H68.5657V93.4382Z" fill="#B3C6D4"/>
<path d="M45.9253 89.9385H51.6126C51.8314 89.9385 51.9407 90.0485 51.9407 90.2672V93.9857H45.5972V90.2672C45.5972 90.1572 45.7065 89.9385 45.9253 89.9385Z" fill="#B3C6D4"/>
<path d="M46.4724 90.5947H51.0661C51.1755 90.5947 51.3942 90.7047 51.3942 90.9235V93.9858H46.2537V90.9235C46.1443 90.7047 46.3631 90.5947 46.4724 90.5947Z" fill="#8BA6B6"/>
<path d="M46.8005 91.251H50.8474C50.8474 91.251 50.9568 91.251 50.9568 91.361V91.4697C50.9568 91.4697 50.9568 91.5797 50.8474 91.5797H46.8005C46.8005 91.5797 46.6912 91.5797 46.6912 91.4697L46.8005 91.251C46.6912 91.251 46.8005 91.251 46.8005 91.251Z" fill="#A7BCC9"/>
<path d="M46.8005 92.0171H50.8474C50.8474 92.0171 50.9568 92.0171 50.9568 92.1258V92.2358C50.9568 92.2358 50.9568 92.3446 50.8474 92.3446H46.8005C46.8005 92.3446 46.6912 92.3446 46.6912 92.2358L46.8005 92.0171C46.6912 92.1258 46.8005 92.0171 46.8005 92.0171Z" fill="#A7BCC9"/>
<path d="M46.8005 92.7822H50.8474C50.8474 92.7822 50.9568 92.7822 50.9568 92.8922V93.001C50.9568 93.001 50.9568 93.111 50.8474 93.111H46.8005C46.8005 93.111 46.6912 93.111 46.6912 93.001L46.8005 92.7822C46.6912 92.8922 46.8005 92.7822 46.8005 92.7822Z" fill="#A7BCC9"/>
<path d="M68.5657 58.9861H42.6445V59.3142H68.5657V58.9861Z" fill="#B3C6D4"/>
<path d="M68.5657 58.877H42.6445V59.0957H68.5657V58.877Z" fill="#9DB5C4"/>
<path d="M45.1599 59.8613C45.2692 59.9707 45.2692 60.1894 45.3786 60.4082C45.8161 61.7207 47.1286 62.3769 47.6754 62.4863C48.0036 62.5956 48.6598 62.705 49.9723 62.705C50.3004 62.705 50.6285 62.705 51.066 62.705V63.0331H44.3943V60.6269C44.3943 60.1894 44.7224 59.8613 45.1599 59.8613Z" fill="#144566"/>
<path d="M56.1269 61.3815C55.9905 61.1821 55.7586 61.1034 55.609 61.2057C55.4595 61.3081 55.4488 61.5527 55.5853 61.7521C55.7217 61.9514 55.9536 62.0302 56.1031 61.9279C56.2527 61.8255 56.2633 61.581 56.1269 61.3815Z" fill="#29748E"/>
<path d="M66.8156 63.2516C67.1177 63.2516 67.3625 63.0069 67.3625 62.7048C67.3625 62.4027 67.1177 62.158 66.8156 62.158C66.5136 62.158 66.2688 62.4027 66.2688 62.7048C66.2688 63.0069 66.5136 63.2516 66.8156 63.2516Z" fill="#3D576B"/>
<path d="M66.7063 62.0483C66.5969 62.1577 66.5969 62.2671 66.5969 62.4858C66.5969 62.8139 66.8156 63.0327 67.1437 63.0327H67.2531C67.1437 63.142 67.0344 63.2514 66.8156 63.2514C66.4875 63.2514 66.2688 63.0327 66.2688 62.7046C66.2688 62.3764 66.4875 62.1577 66.7063 62.0483Z" fill="#2D4351"/>
<path d="M64.9563 63.0329C65.1375 63.0329 65.2844 62.886 65.2844 62.7048C65.2844 62.5236 65.1375 62.3767 64.9563 62.3767C64.7751 62.3767 64.6282 62.5236 64.6282 62.7048C64.6282 62.886 64.7751 63.0329 64.9563 63.0329Z" fill="#B3C6D4"/>
<path d="M64.9563 62.2676C64.8469 62.3769 64.8469 62.3769 64.8469 62.4863C64.8469 62.705 65.0656 62.8144 65.175 62.8144H65.2844C65.175 62.9238 65.0656 62.9238 64.9563 62.9238C64.7375 62.9238 64.6282 62.705 64.6282 62.5957C64.6282 62.4863 64.7375 62.3769 64.9563 62.2676Z" fill="#A6BCC9"/>
<path d="M65.2725 62.4843C65.2053 62.3838 65.1102 62.3297 65.06 62.3632C65.0098 62.3968 65.0235 62.5054 65.0906 62.6058C65.1578 62.7063 65.253 62.7605 65.3032 62.7269C65.3534 62.6933 65.3397 62.5847 65.2725 62.4843Z" fill="#CCD9E2"/>
<path d="M63.5344 63.0329C63.7156 63.0329 63.8625 62.886 63.8625 62.7048C63.8625 62.5236 63.7156 62.3767 63.5344 62.3767C63.3531 62.3767 63.2063 62.5236 63.2063 62.7048C63.2063 62.886 63.3531 63.0329 63.5344 63.0329Z" fill="#B3C6D4"/>
<path d="M63.5344 62.2676C63.425 62.3769 63.425 62.3769 63.425 62.4863C63.425 62.705 63.6438 62.8144 63.7531 62.8144H63.8625C63.7531 62.9238 63.6438 62.9238 63.5344 62.9238C63.3157 62.9238 63.2063 62.705 63.2063 62.5957C63.2063 62.4863 63.3157 62.3769 63.5344 62.2676Z" fill="#A6BCC9"/>
<path d="M63.8238 62.4701C63.7567 62.3697 63.6615 62.3154 63.6113 62.3491C63.5611 62.3827 63.5749 62.4913 63.642 62.5917C63.7091 62.6921 63.8042 62.7463 63.8544 62.7127C63.9047 62.6792 63.8909 62.5706 63.8238 62.4701Z" fill="#CCD9E2"/>
<path d="M62.1123 63.0329C62.2935 63.0329 62.4404 62.886 62.4404 62.7048C62.4404 62.5236 62.2935 62.3767 62.1123 62.3767C61.9311 62.3767 61.7842 62.5236 61.7842 62.7048C61.7842 62.886 61.9311 63.0329 62.1123 63.0329Z" fill="#B3C6D4"/>
<path d="M62.0032 62.2676C61.8938 62.3769 61.8938 62.3769 61.8938 62.4863C61.8938 62.705 62.1125 62.8144 62.2219 62.8144H62.3313C62.2219 62.9238 62.1125 62.9238 62.0032 62.9238C61.7844 62.9238 61.675 62.705 61.675 62.5957C61.7844 62.4863 61.8938 62.3769 62.0032 62.2676Z" fill="#A6BCC9"/>
<path d="M62.3761 62.4564C62.309 62.356 62.2137 62.3018 62.1635 62.3354C62.1134 62.3689 62.127 62.4775 62.1943 62.578C62.2614 62.6784 62.3565 62.7325 62.4067 62.699C62.4569 62.6654 62.4432 62.5568 62.3761 62.4564Z" fill="#CCD9E2"/>
<path d="M66.1594 59.9705H67.2531C67.2531 59.9705 67.3625 59.9705 67.3625 60.0798C67.3625 60.0798 67.3625 60.1892 67.2531 60.1892H66.1594C66.0501 60.1892 66.0501 60.1892 66.1594 59.9705C66.0501 59.9705 66.0501 60.0798 66.1594 59.9705Z" fill="#CCD9E2"/>
<path d="M68.5657 93.6567H42.6445V93.8755H68.5657V93.6567Z" fill="#8BA6B6"/>
<path opacity="0.07" d="M45.707 83.8139C45.707 87.2049 48.4413 90.0485 51.9412 90.0485H68.5657V93.9857H42.6445V57.7832H45.8163L45.707 83.8139Z" fill="#082B72"/>
<path d="M55.55 85.3448C61.0469 85.3448 65.503 80.8892 65.503 75.3917C65.503 69.8951 61.0469 65.439 55.55 65.439C50.0532 65.439 45.5972 69.8951 45.5972 75.3917C45.5972 80.8892 50.0532 85.3448 55.55 85.3448Z" fill="#B3C6D4"/>
<path d="M55.55 85.3448C61.0469 85.3448 65.503 80.8892 65.503 75.3917C65.503 69.8951 61.0469 65.439 55.55 65.439C50.0532 65.439 45.5972 69.8951 45.5972 75.3917C45.5972 80.8892 50.0532 85.3448 55.55 85.3448Z" fill="#6CC8C1"/>
<path opacity="0.3" d="M53.5815 65.6582C49.4254 66.8612 46.4723 70.6899 46.4723 75.1733C46.4723 80.6417 50.9567 85.1264 56.4252 85.1264C57.0815 85.1264 57.7377 85.0177 58.2846 84.9077C57.4096 85.1264 56.4252 85.3452 55.4409 85.3452C49.9722 85.3452 45.488 80.8605 45.488 75.3921C45.5974 70.5799 48.9879 66.5331 53.5815 65.6582Z" fill="white"/>
<path d="M55.55 83.2662C59.8992 83.2662 63.4249 79.7411 63.4249 75.3917C63.4249 71.0423 59.8992 67.5171 55.55 67.5171C51.2009 67.5171 47.6753 71.0423 47.6753 75.3917C47.6753 79.7411 51.2009 83.2662 55.55 83.2662Z" fill="#3D576B"/>
<path d="M55.55 81.7353C59.3555 81.7353 62.4404 78.6996 62.4404 74.9545C62.4404 71.2095 59.3555 68.1736 55.55 68.1736C51.7445 68.1736 48.6594 71.2095 48.6594 74.9545C48.6594 78.6996 51.7445 81.7353 55.55 81.7353Z" fill="#144B63"/>
<path d="M55.5501 80.6415C58.2079 80.6415 60.3625 78.095 60.3625 74.9543C60.3625 71.8137 58.2079 69.2671 55.5501 69.2671C52.8924 69.2671 50.7378 71.8137 50.7378 74.9543C50.7378 78.095 52.8924 80.6415 55.5501 80.6415Z" fill="#3D576B"/>
<path d="M53.5815 77.908C54.5658 77.6892 55.9877 77.1417 58.0658 77.2517C59.597 77.2517 60.8 77.5792 61.6751 77.908C60.5813 80.2041 58.1752 81.8452 55.4409 81.8452C52.4878 81.8452 49.9722 79.9853 48.9878 77.3605C50.9565 78.1267 52.4878 78.1267 53.5815 77.908Z" fill="#61AFBC"/>
<path opacity="0.18" d="M53.2531 68.5017C52.7063 69.4861 52.3782 70.6898 52.3782 71.8922C52.3782 75.8295 55.55 79.0018 59.4873 79.0018C60.1436 79.0018 60.6904 78.8918 61.2372 78.783C60.0342 80.6417 57.8467 81.8453 55.55 81.8453C51.7218 81.8453 48.6594 78.783 48.6594 75.0645C48.6594 72.0022 50.5188 69.4861 53.2531 68.5017Z" fill="#0C123A"/>
<path opacity="0.27" d="M60.035 71.6895C59.1839 70.2975 57.8675 69.5533 57.0944 70.026C56.3215 70.4985 56.3847 72.0094 57.2358 73.4015C58.0868 74.7923 59.4033 75.537 60.1762 75.0641C60.9492 74.5913 60.8859 73.0803 60.035 71.6895Z" fill="white"/>
<path d="M61.4563 68.5018C61.5657 68.283 61.7844 68.283 62.0031 68.3924C62.3312 68.7206 62.6593 69.0487 62.9874 69.3768C63.3155 69.8143 63.6436 70.2524 63.753 70.7986C63.8624 71.0173 63.753 71.2361 63.5343 71.2361C63.3155 71.3461 63.2062 71.2361 63.0968 71.0173C62.8781 70.5799 62.6593 70.1424 62.3312 69.7049C62.1125 69.3768 61.7844 69.0487 61.4563 68.83C61.3469 68.83 61.3469 68.6111 61.4563 68.5018Z" fill="#CCD9E2"/>
<path d="M61.1282 82.0639C61.8939 81.4077 62.4407 80.7514 62.9875 79.8765C63.3156 79.329 64.1906 77.7979 64.3 75.6105C64.3 74.8456 64.3 74.0794 64.1906 73.3144C64.1906 73.0957 64.3 72.9857 64.4093 72.877C64.6282 72.877 64.8469 72.9857 64.8469 73.2044C64.9563 74.0794 65.0657 74.8456 65.0657 75.7205C64.9563 78.0166 64.0812 79.6578 63.6438 80.314C63.0969 81.1889 62.4407 81.9539 61.6751 82.6101C61.5658 82.7201 61.2375 82.7201 61.1282 82.6101C61.0188 82.3913 61.0188 82.1726 61.1282 82.0639Z" fill="#CCD9E2"/>
<path d="M34.9879 52.6424C34.9879 52.6424 39.691 47.3925 37.7222 46.955C35.7535 46.5176 34.5504 47.7207 34.5504 47.7207C34.5504 47.7207 33.1286 44.4396 31.488 45.5333C29.9567 46.6269 27.5506 51.8768 27.9881 52.7518C28.2068 53.7362 34.9879 52.6424 34.9879 52.6424Z" fill="#3D576B"/>
<path d="M26.2385 52.2049L33.7851 50.7831C33.7851 50.7831 33.7851 48.1582 33.0196 47.9395C32.254 47.6113 26.5666 45.9707 25.6915 47.1738C24.8166 48.3769 26.2385 52.2049 26.2385 52.2049Z" fill="#FFDD00"/>
<path d="M31.1602 50.3457C31.1602 50.3457 36.5194 50.6738 36.6288 52.2051C36.8475 53.7362 36.3007 55.4862 36.3007 55.4862L30.6133 54.5018L31.1602 50.3457Z" fill="#3D576B"/>
<path d="M36.738 52.9704C36.738 52.9704 34.2224 51.3299 31.7069 53.9549C29.1914 56.5798 28.4258 56.9079 28.4258 56.9079H35.863L36.738 52.9704Z" fill="#FFEC00"/>
<path d="M28.6447 48.2676C28.6447 48.2676 24.3792 53.9548 25.9104 56.4704C25.9104 56.4704 29.3009 58.1111 31.379 56.7985C33.4571 55.4861 31.9259 48.8144 31.9259 48.8144L28.6447 48.2676Z" fill="white"/>
<path d="M29.1914 51.3301H28.6445V52.0957H29.1914V51.3301Z" fill="#6CC8C1"/>
<path d="M29.1914 52.8613H28.6445V53.6269H29.1914V52.8613Z" fill="#6CC8C1"/>
<path d="M29.1914 55.8142H28.6445V56.5798H29.1914V55.8142Z" fill="#6CC8C1"/>
<path d="M29.1914 54.283H28.6445V55.0487H29.1914V54.283Z" fill="#6CC8C1"/>
<path d="M29.1914 49.9084H28.6445V50.674H29.1914V49.9084Z" fill="#6CC8C1"/>
<path d="M30.3945 52.8613H29.8477V53.6269H30.3945V52.8613Z" fill="#6CC8C1"/>
<path d="M30.3945 54.283H29.8477V55.0487H30.3945V54.283Z" fill="#6CC8C1"/>
<path d="M30.3945 55.8142H29.8477V56.5798H30.3945V55.8142Z" fill="#6CC8C1"/>
<path d="M30.3945 49.9084H29.8477V50.674H30.3945V49.9084Z" fill="#6CC8C1"/>
<path d="M30.3945 51.3301H29.8477V52.0957H30.3945V51.3301Z" fill="#6CC8C1"/>
<path d="M31.488 55.8142H30.9412V56.5798H31.488V55.8142Z" fill="#6CC8C1"/>
<path d="M31.488 51.3301H30.9412V52.0957H31.488V51.3301Z" fill="#6CC8C1"/>
<path d="M31.488 52.8613H30.9412V53.6269H31.488V52.8613Z" fill="#6CC8C1"/>
<path d="M31.488 54.283H30.9412V55.0487H31.488V54.283Z" fill="#6CC8C1"/>
<path d="M31.488 49.9084H30.9412V50.674H31.488V49.9084Z" fill="#6CC8C1"/>
<path d="M32.5819 49.9084H32.0349V50.674H32.5819V49.9084Z" fill="#6CC8C1"/>
<path d="M32.5819 55.8142H32.0349V56.5798H32.5819V55.8142Z" fill="#6CC8C1"/>
<path d="M32.5819 51.3301H32.0349V52.0957H32.5819V51.3301Z" fill="#6CC8C1"/>
<path d="M32.5819 54.283H32.0349V55.0487H32.5819V54.283Z" fill="#6CC8C1"/>
<path d="M32.5819 52.8613H32.0349V53.6269H32.5819V52.8613Z" fill="#6CC8C1"/>
<path d="M33.6757 49.9084H33.1289V50.674H33.6757V49.9084Z" fill="#6CC8C1"/>
<path d="M33.6757 52.8613H33.1289V53.6269H33.6757V52.8613Z" fill="#6CC8C1"/>
<path d="M33.6757 55.8142H33.1289V56.5798H33.6757V55.8142Z" fill="#6CC8C1"/>
<path d="M33.6757 51.3301H33.1289V52.0957H33.6757V51.3301Z" fill="#6CC8C1"/>
<path d="M33.6757 54.283H33.1289V55.0487H33.6757V54.283Z" fill="#6CC8C1"/>
<path d="M34.7695 55.8142H34.2227V56.5798H34.7695V55.8142Z" fill="#6CC8C1"/>
<path d="M34.7695 49.9084H34.2227V50.674H34.7695V49.9084Z" fill="#6CC8C1"/>
<path d="M34.7695 51.3301H34.2227V52.0957H34.7695V51.3301Z" fill="#6CC8C1"/>
<path d="M34.7695 54.283H34.2227V55.0487H34.7695V54.283Z" fill="#6CC8C1"/>
<path d="M34.7695 52.8613H34.2227V53.6269H34.7695V52.8613Z" fill="#6CC8C1"/>
<path d="M35.8632 55.8142H35.3164V56.5798H35.8632V55.8142Z" fill="#6CC8C1"/>
<path d="M35.8632 51.3301H35.3164V52.0957H35.8632V51.3301Z" fill="#6CC8C1"/>
<path d="M35.8632 54.283H35.3164V55.0487H35.8632V54.283Z" fill="#6CC8C1"/>
<path d="M35.8632 52.8613H35.3164V53.6269H35.8632V52.8613Z" fill="#6CC8C1"/>
<path d="M35.8632 49.9084H35.3164V50.674H35.8632V49.9084Z" fill="#6CC8C1"/>
<path d="M36.7378 53.6269L36.8471 52.8613H36.4097V53.6269H36.7378Z" fill="#6CC8C1"/>
<path d="M36.9565 51.3301H36.4097V52.205H36.8471L36.9565 51.8769V51.3301Z" fill="#6CC8C1"/>
<path d="M36.519 55.0487L36.6284 54.283H36.4097V55.0487H36.519Z" fill="#6CC8C1"/>
<path d="M36.9565 49.9084H36.4097V50.674H36.9565V49.9084Z" fill="#6CC8C1"/>
<path d="M28.0974 51.3301H27.5505V52.0957H28.0974V51.3301Z" fill="#6CC8C1"/>
<path d="M28.0974 52.8613H27.5505V53.6269H28.0974V52.8613Z" fill="#6CC8C1"/>
<path d="M28.0974 49.9084H27.5505V50.674H28.0974V49.9084Z" fill="#6CC8C1"/>
<path d="M28.0974 55.8142H27.5505V56.5798H28.0974V55.8142Z" fill="#6CC8C1"/>
<path d="M28.0974 54.283H27.5505V55.0487H28.0974V54.283Z" fill="#6CC8C1"/>
<path d="M27.0039 52.8613H26.457V53.6269H27.0039V52.8613Z" fill="#6CC8C1"/>
<path d="M27.0039 54.283H26.457V55.0487H27.0039V54.283Z" fill="#6CC8C1"/>
<path d="M27.0039 51.3301H26.457V52.0957H27.0039V51.3301Z" fill="#6CC8C1"/>
<path d="M27.0039 55.8142H26.457V56.5798H27.0039V55.8142Z" fill="#6CC8C1"/>
<path d="M27.0039 49.9084H26.457V50.674H27.0039V49.9084Z" fill="#6CC8C1"/>
<path d="M25.6917 54.283L25.801 55.0487H25.9104V54.283H25.6917Z" fill="#6CC8C1"/>
<path d="M25.9102 52.205V51.3301H25.3633V51.8769V52.205H25.9102Z" fill="#6CC8C1"/>
<path d="M25.9102 49.9084H25.3633V50.674H25.9102V49.9084Z" fill="#6CC8C1"/>
<path d="M25.4724 52.8613L25.5818 53.6269H25.9099V52.8613H25.4724Z" fill="#6CC8C1"/>
<path d="M35.3162 56.5798H34.7693H34.2224H33.6755H33.1287H32.5818H32.035H31.4882H30.9412H30.3944H29.8475H29.3007H28.7539H28.207H27.66H27.1132H26.5664H26.0195C26.1289 56.7986 26.2383 57.0173 26.457 57.0173H35.863C36.0817 57.0173 36.3005 56.7986 36.3005 56.5798H35.863H35.3162Z" fill="#6CC8C1"/>
<path d="M30.9413 55.0488H30.285H29.8475H29.1913H28.6445H28.0976H27.5507H27.0038H26.457H25.9101H25.8008L25.9101 55.8145H26.457H27.0038H27.5507H28.0976H28.6445H29.1913H29.8475H30.285H30.9413H31.3788H32.035H32.4725H33.1287H33.5661H34.2225H34.7693H35.3162H35.863H36.4098L36.5192 55.0488H36.4098H35.863H35.3162H34.7693H34.2225H33.5661H33.1287H32.4725H32.035H31.3788H30.9413Z" fill="#6CC8C1"/>
<path d="M30.9416 53.627H30.2853H29.8479H29.1917H28.6447H28.0979H27.551H27.0042H26.4573H25.9104H25.5823L25.6916 54.2832H25.9104H26.4573H27.0042H27.551H28.0979H28.6447H29.1917H29.8479H30.2853H30.9416H31.379H32.0352H32.4728H33.129H33.5665H34.2227H34.7696H35.3165H35.8634H36.4102H36.6289L36.7383 53.627H36.4102H35.8634H35.3165H34.7696H34.2227H33.5665H33.129H32.4728H32.0352H31.379H30.9416Z" fill="#6CC8C1"/>
<path d="M30.9413 52.2048H30.2851H29.8476H29.1914H28.6444H28.0976H27.5508H27.0039H26.4571H25.9102H25.3633L25.4726 52.861H25.9102H26.4571H27.0039H27.5508H28.0976H28.6444H29.1914H29.8476H30.2851H30.9413H31.3788H32.0351H32.4726H33.1288H33.5662H34.2225H34.7693H35.3163H35.8631H36.4099H36.8474V52.2048H36.4099H35.8631H35.3163H34.7693H34.2225H33.5662H33.1288H32.4726H32.0351H31.3788H30.9413Z" fill="#6CC8C1"/>
<path d="M31.3788 50.6738H30.9413H30.2851H29.8476H29.1913H28.6444H28.0976H27.5508H27.0039H26.4571H25.9101H25.3633H25.2539L25.3633 51.3302H25.9101H26.4571H27.0039H27.5508H28.0976H28.6444H29.1913H29.8476H30.2851H30.9413H31.3788H32.035H32.4726H33.1288H33.5662H34.2224H34.7693H35.3161H35.8631H36.4099H36.9568L37.0661 50.6738H36.9568H36.4099H35.8631H35.3161H34.7693H34.2224H33.5662H33.1288H32.4726H32.035H31.3788Z" fill="#6CC8C1"/>
<path d="M29.1914 49.9083H29.8476H30.2851H30.9413H31.3787H32.035H32.4725H33.1288H33.5662H34.2224H34.7693H35.3162H35.8631H36.4099H36.9568H37.1755V49.3613H25.0352L25.1445 49.9083H25.3633H25.9101H26.4571H27.0039H27.5507H28.0976H28.6444H29.1914Z" fill="#6CC8C1"/>
<path d="M37.5038 49.0334C37.3944 48.9241 37.2851 48.8147 37.1757 48.8147H25.0354C24.926 48.8147 24.8166 48.9241 24.7073 49.0334C24.5979 49.1428 24.5979 49.2522 24.5979 49.3615V49.4709L24.7073 49.9084L25.4728 56.4707C25.4728 56.5801 25.4728 56.6894 25.4728 56.6894C25.5822 57.1269 25.9103 57.4551 26.3478 57.4551H35.8632C36.3008 57.4551 36.6289 57.1269 36.7382 56.6894C36.7382 56.5801 36.7382 56.4707 36.8476 56.3613L37.6132 49.799L37.7225 49.3615V49.2522C37.6132 49.2522 37.6132 49.1428 37.5038 49.0334ZM36.7382 49.9084L35.9725 56.252C35.9725 56.3613 35.9725 56.3613 35.8632 56.3613H26.4571C26.4571 56.3613 26.3478 56.3613 26.3478 56.252L25.5822 49.9084H36.7382Z" fill="#6CC8C1"/>
<path d="M38.3786 48.8144C38.3786 49.2519 38.1599 49.4706 37.8318 49.4706H24.4882C24.1601 49.4706 23.9414 49.2519 23.9414 48.9238V48.8144V48.7051C24.0508 48.4863 24.1601 48.2676 24.4882 48.2676H37.8318C38.0505 48.2676 38.2692 48.3769 38.3786 48.7051C38.3786 48.7051 38.3786 48.7051 38.3786 48.8144Z" fill="#6CC8C1"/>
<path opacity="0.2" d="M37.6132 49.3613C37.6132 49.4708 37.6132 49.4708 37.6132 49.3613L37.5038 49.9083H24.7073L24.5979 49.4708V49.3613H37.6132Z" fill="#29235C"/>
<path opacity="0.2" d="M36.7383 56.7988C36.6289 57.2363 36.3008 57.5644 35.8634 57.5644H26.4573C26.0197 57.5644 25.6916 57.2363 25.5823 56.7988H36.7383Z" fill="#29235C"/>
<path d="M28.0977 48.2678C28.0977 48.2678 32.2539 46.4084 33.0195 48.2678C33.2382 48.924 33.4569 49.3615 33.4569 49.6896C33.5663 52.0958 28.207 48.3772 28.0977 48.2678Z" fill="white"/>
<path opacity="0.2" d="M28.0977 48.2676C28.0977 48.2676 32.582 51.1111 33.4569 49.6894C33.5663 52.0956 28.207 48.3769 28.0977 48.2676Z" fill="#29235C"/>
<path d="M65.1747 52.5333C65.1747 52.5333 69.8777 47.2834 67.909 46.846C65.9402 46.4085 64.7372 47.6115 64.7372 47.6115C64.7372 47.6115 63.3153 44.3304 61.6748 45.4242C60.1435 46.5178 57.7374 51.7678 58.1749 52.6427C58.3936 53.627 65.1747 52.5333 65.1747 52.5333Z" fill="#3D576B"/>
<path d="M56.425 52.0956L63.9717 50.6737C63.9717 50.6737 63.9717 48.0487 63.2061 47.83C62.4405 47.5019 56.7531 45.8614 55.8781 47.0644C55.0031 48.2676 56.425 52.0956 56.425 52.0956Z" fill="#FFDD00"/>
<path d="M61.3468 50.2366C61.3468 50.2366 66.7059 50.5647 66.8153 52.096C67.034 53.6271 66.4872 55.3771 66.4872 55.3771L60.7998 54.3927L61.3468 50.2366Z" fill="#3D576B"/>
<path d="M66.9248 52.9707C66.9248 52.9707 64.4092 51.3301 61.8937 53.955C59.3781 56.58 58.6125 56.9081 58.6125 56.9081H66.0498L66.9248 52.9707Z" fill="#FFEC00"/>
<path d="M58.9406 48.1584C58.9406 48.1584 54.6751 53.8458 56.2063 56.3614C56.2063 56.3614 59.5969 58.0021 61.6749 56.6895C63.753 55.3771 62.2218 48.7054 62.2218 48.7054L58.9406 48.1584Z" fill="white"/>
<path d="M59.4878 51.3301H58.9409V52.0957H59.4878V51.3301Z" fill="#6CC8C1"/>
<path d="M59.4878 52.752H58.9409V53.5175H59.4878V52.752Z" fill="#6CC8C1"/>
<path d="M59.4878 55.7051H58.9409V56.4707H59.4878V55.7051Z" fill="#6CC8C1"/>
<path d="M59.4878 54.1738H58.9409V54.9394H59.4878V54.1738Z" fill="#6CC8C1"/>
<path d="M59.4878 49.7991H58.9409V50.5648H59.4878V49.7991Z" fill="#6CC8C1"/>
<path d="M60.5815 52.752H60.0347V53.5175H60.5815V52.752Z" fill="#6CC8C1"/>
<path d="M60.5815 54.1738H60.0347V54.9394H60.5815V54.1738Z" fill="#6CC8C1"/>
<path d="M60.5815 55.7051H60.0347V56.4707H60.5815V55.7051Z" fill="#6CC8C1"/>
<path d="M60.5815 49.7991H60.0347V50.5648H60.5815V49.7991Z" fill="#6CC8C1"/>
<path d="M60.5815 51.3301H60.0347V52.0957H60.5815V51.3301Z" fill="#6CC8C1"/>
<path d="M61.6753 55.7051H61.1284V56.4707H61.6753V55.7051Z" fill="#6CC8C1"/>
<path d="M61.6753 51.3301H61.1284V52.0957H61.6753V51.3301Z" fill="#6CC8C1"/>
<path d="M61.6753 52.752H61.1284V53.5175H61.6753V52.752Z" fill="#6CC8C1"/>
<path d="M61.6753 54.1738H61.1284V54.9394H61.6753V54.1738Z" fill="#6CC8C1"/>
<path d="M61.6753 49.7991H61.1284V50.5648H61.6753V49.7991Z" fill="#6CC8C1"/>
<path d="M62.769 49.7991H62.2222V50.5648H62.769V49.7991Z" fill="#6CC8C1"/>
<path d="M62.769 55.7051H62.2222V56.4707H62.769V55.7051Z" fill="#6CC8C1"/>
<path d="M62.769 51.3301H62.2222V52.0957H62.769V51.3301Z" fill="#6CC8C1"/>
<path d="M62.769 54.1738H62.2222V54.9394H62.769V54.1738Z" fill="#6CC8C1"/>
<path d="M62.769 52.752H62.2222V53.5175H62.769V52.752Z" fill="#6CC8C1"/>
<path d="M63.8623 49.7991H63.3154V50.5648H63.8623V49.7991Z" fill="#6CC8C1"/>
<path d="M63.8623 52.752H63.3154V53.5175H63.8623V52.752Z" fill="#6CC8C1"/>
<path d="M63.8623 55.7051H63.3154V56.4707H63.8623V55.7051Z" fill="#6CC8C1"/>
<path d="M63.8623 51.3301H63.3154V52.0957H63.8623V51.3301Z" fill="#6CC8C1"/>
<path d="M63.8623 54.1738H63.3154V54.9394H63.8623V54.1738Z" fill="#6CC8C1"/>
<path d="M64.956 55.7051H64.4092V56.4707H64.956V55.7051Z" fill="#6CC8C1"/>
<path d="M64.956 49.7991H64.4092V50.5648H64.956V49.7991Z" fill="#6CC8C1"/>
<path d="M64.956 51.3301H64.4092V52.0957H64.956V51.3301Z" fill="#6CC8C1"/>
<path d="M64.956 54.1738H64.4092V54.9394H64.956V54.1738Z" fill="#6CC8C1"/>
<path d="M64.956 52.752H64.4092V53.5175H64.956V52.752Z" fill="#6CC8C1"/>
<path d="M66.05 55.7051H65.5032V56.4707H66.05V55.7051Z" fill="#6CC8C1"/>
<path d="M66.05 51.3301H65.5032V52.0957H66.05V51.3301Z" fill="#6CC8C1"/>
<path d="M66.05 54.1738H65.5032V54.9394H66.05V54.1738Z" fill="#6CC8C1"/>
<path d="M66.05 52.752H65.5032V53.5175H66.05V52.752Z" fill="#6CC8C1"/>
<path d="M66.05 49.7991H65.5032V50.5648H66.05V49.7991Z" fill="#6CC8C1"/>
<path d="M66.925 53.5175L67.0344 52.752H66.5969V53.5175H66.925Z" fill="#6CC8C1"/>
<path d="M67.1438 51.3301H66.5969V52.0957H67.1438V51.7676V51.3301Z" fill="#6CC8C1"/>
<path d="M66.7063 54.9394L66.8157 54.1738H66.5969V54.9394H66.7063Z" fill="#6CC8C1"/>
<path d="M66.5969 55.9238L66.7063 55.7051H66.5969V55.9238Z" fill="#6CC8C1"/>
<path d="M67.1438 49.7991H66.5969V50.5648H67.1438V49.7991Z" fill="#6CC8C1"/>
<path d="M58.3938 51.3301H57.8469V52.0957H58.3938V51.3301Z" fill="#6CC8C1"/>
<path d="M58.3938 52.752H57.8469V53.5175H58.3938V52.752Z" fill="#6CC8C1"/>
<path d="M58.3938 49.7991H57.8469V50.5648H58.3938V49.7991Z" fill="#6CC8C1"/>
<path d="M58.3938 55.7051H57.8469V56.4707H58.3938V55.7051Z" fill="#6CC8C1"/>
<path d="M58.3938 54.1738H57.8469V54.9394H58.3938V54.1738Z" fill="#6CC8C1"/>
<path d="M57.3003 52.752H56.7534V53.5175H57.3003V52.752Z" fill="#6CC8C1"/>
<path d="M57.3003 54.1738H56.7534V54.9394H57.3003V54.1738Z" fill="#6CC8C1"/>
<path d="M57.3003 51.3301H56.7534V52.0957H57.3003V51.3301Z" fill="#6CC8C1"/>
<path d="M57.3003 55.7051H56.7534V56.4707H57.3003V55.7051Z" fill="#6CC8C1"/>
<path d="M57.3003 49.7991H56.7534V50.5648H57.3003V49.7991Z" fill="#6CC8C1"/>
<path d="M55.8787 54.1738L55.988 54.9394H56.0974V54.1738H55.8787Z" fill="#6CC8C1"/>
<path d="M56.0971 52.0957V51.3301H55.5503V51.7676L55.6597 52.0957H56.0971Z" fill="#6CC8C1"/>
<path d="M56.0971 49.7991H55.5503V50.5648H56.0971V49.7991Z" fill="#6CC8C1"/>
<path d="M55.7688 52.752V53.5175H56.0969V52.752H55.7688Z" fill="#6CC8C1"/>
<path d="M65.5034 56.4707H64.9566H64.4098H63.8629H63.3161H62.7691H62.2223H61.6754H61.1286H60.5817H60.0348H59.4879H58.9411H58.3943H57.8474H57.3006H56.7536H56.2068C56.3162 56.6894 56.4255 56.9082 56.6443 56.9082H66.0503C66.2691 56.9082 66.4879 56.6894 66.4879 56.4707H65.9409H65.5034Z" fill="#6CC8C1"/>
<path d="M61.1286 54.9397H60.5817H60.0349H59.3786H58.9411H58.2849H57.8474H57.1912H56.7536H56.0974H55.988L56.0974 55.7053H56.7536H57.1912H57.8474H58.2849H58.9411H59.3786H60.0349H60.5817H61.1286H61.6754H62.2223H62.7691H63.3161H63.8629H64.4097H64.9566H65.5034H66.0504H66.5972H66.7066V54.9397H66.5972H66.0504H65.5034H64.9566H64.4097H63.8629H63.3161H62.7691H62.2223H61.6754H61.1286Z" fill="#6CC8C1"/>
<path d="M61.1281 53.5173H60.5812H60.0344H59.3782H58.9406H58.2844H57.8469H57.1907H56.7532H56.0969H55.7688L55.8782 54.1735H56.0969H56.7532H57.1907H57.8469H58.2844H58.9406H59.3782H60.0344H60.5812H61.1281H61.6749H62.2218H62.7687H63.3156H63.8624H64.4092H64.9561H65.503H66.0499H66.5967H66.8155L66.9248 53.5173H66.5967H66.0499H65.503H64.9561H64.4092H63.8624H63.3156H62.7687H62.2218H61.6749H61.1281Z" fill="#6CC8C1"/>
<path d="M61.1283 52.0957H60.5815H60.0346H59.3783H58.9408H58.2846H57.8472H57.191H56.7534H56.0971H55.6597L55.769 52.752H56.0971H56.7534H57.191H57.8472H58.2846H58.9408H59.3783H60.0346H60.5815H61.1283H61.6752H62.222H62.7688H63.3158H63.8626H64.4095H64.9563H65.5032H66.05H66.597H67.0344L67.1438 52.0957H66.597H66.05H65.5032H64.9563H64.4095H63.8626H63.3158H62.7688H62.222H61.6752H61.1283Z" fill="#6CC8C1"/>
<path d="M61.6751 50.5645H61.1283H60.5815H60.0346H59.3783H58.9408H58.2846H57.8471H57.1909H56.7535H56.0971H55.5503H55.4409L55.5503 51.33H56.0971H56.7535H57.1909H57.8471H58.2846H58.9408H59.3783H60.0346H60.5815H61.1283H61.6751H62.222H62.7688H63.3158H63.8626H64.4095H64.9563H65.5031H66.0501H66.5969H67.1438H67.2531V50.5645H67.1438H66.5969H66.0501H65.5031H64.9563H64.4095H63.8626H63.3158H62.7688H62.222H61.6751Z" fill="#6CC8C1"/>
<path d="M59.3783 49.7988H60.0345H60.5814H61.1283H61.6751H62.222H62.7688H63.3156H63.8626H64.4095H64.9563H65.5031H66.05H66.5969H67.1438H67.3625L67.4719 49.252H55.3315V49.7988H55.5503H56.0971H56.7533H57.1908H57.8471H58.2846H58.9408H59.3783Z" fill="#6CC8C1"/>
<path d="M67.7999 48.9243C67.6906 48.8149 67.5812 48.7056 67.4718 48.7056H55.3315C55.2221 48.7056 55.1128 48.8149 55.0034 48.9243C54.894 49.0337 54.894 49.143 54.894 49.2524V49.3618L55.0034 49.7993L55.769 56.3616C55.769 56.4709 55.769 56.5803 55.769 56.5803C55.8784 57.0178 56.2065 57.3459 56.6439 57.3459H66.0501C66.4875 57.3459 66.8156 57.0178 66.925 56.5803C66.925 56.4709 66.925 56.3616 67.0344 56.2522L67.7999 49.6899L67.9093 49.2524V49.143C67.9093 49.143 67.7999 49.0337 67.7999 48.9243ZM66.925 49.9086L66.1594 56.2522C66.1594 56.3616 66.1594 56.3616 66.0501 56.3616H56.6439C56.6439 56.3616 56.5346 56.3616 56.5346 56.2522L55.769 49.9086H66.925Z" fill="#6CC8C1"/>
<path d="M68.5656 48.7054C68.5656 49.1429 68.3469 49.3616 68.0188 49.3616H54.6753C54.3472 49.3616 54.1284 49.1429 54.1284 48.8148V48.7054V48.5959C54.2378 48.3772 54.3472 48.1584 54.6753 48.1584H68.0188C68.2375 48.1584 68.4562 48.2678 68.5656 48.5959C68.5656 48.5959 68.5656 48.5959 68.5656 48.7054Z" fill="#6CC8C1"/>
<path opacity="0.2" d="M67.9091 49.252C67.9091 49.3613 67.9091 49.3613 67.9091 49.252L67.7997 49.7988H54.8938L54.7844 49.3613V49.252H67.9091Z" fill="#29235C"/>
<path opacity="0.2" d="M66.9248 56.6895C66.8155 57.1271 66.4874 57.4552 66.0499 57.4552H56.6439C56.2063 57.4552 55.8782 57.1271 55.7688 56.6895H66.9248Z" fill="#29235C"/>
<path d="M58.2844 48.1587C58.2844 48.1587 62.4407 46.2993 63.2062 48.1587C63.425 48.8149 63.6437 49.2523 63.6437 49.5804C63.7531 51.9867 58.5032 48.268 58.2844 48.1587Z" fill="white"/>
<path opacity="0.2" d="M58.2844 48.1584C58.2844 48.1584 62.7688 51.0021 63.6437 49.5803C63.7531 51.9866 58.5032 48.2678 58.2844 48.1584Z" fill="#29235C"/>
<path d="M118.33 14.1434C119.418 14.1434 120.299 13.262 120.299 12.1748C120.299 11.0874 119.418 10.2061 118.33 10.2061C117.243 10.2061 116.362 11.0874 116.362 12.1748C116.362 13.262 117.243 14.1434 118.33 14.1434Z" fill="#FFF200"/>
<path d="M119.862 5.06567H116.689V7.03442H119.862V5.06567Z" fill="white"/>
<path d="M119.533 6.81543H117.127C114.283 6.81543 111.986 9.11228 111.986 11.956H124.564C124.674 9.11228 122.376 6.81543 119.533 6.81543Z" fill="white"/>
<path d="M121.501 7.25293C120.518 9.00294 118.002 11.0809 112.096 11.2997C112.096 11.5184 111.986 11.7371 111.986 11.9559H124.564C124.674 9.76852 123.361 8.0185 121.501 7.25293Z" fill="#E6E7E8"/>
<path d="M36.1913 15.6747C37.2786 15.6747 38.16 14.7933 38.16 13.7059C38.16 12.6187 37.2786 11.7373 36.1913 11.7373C35.1041 11.7373 34.2227 12.6187 34.2227 13.7059C34.2227 14.7933 35.1041 15.6747 36.1913 15.6747Z" fill="#FFF200"/>
<path d="M37.8317 6.59692H34.6599V8.56567H37.8317V6.59692Z" fill="white"/>
<path d="M37.5034 8.4563H35.0973C32.2536 8.4563 29.9568 10.753 29.9568 13.5967H42.5346C42.5346 10.753 40.2377 8.4563 37.5034 8.4563Z" fill="white"/>
<path d="M39.363 8.78418C38.3786 10.5341 35.8631 12.6122 29.957 12.8309C29.957 13.0497 29.8477 13.2684 29.8477 13.4871H42.4255C42.5348 11.4091 41.2223 9.54975 39.363 8.78418Z" fill="#E6E7E8"/>
<path d="M119.095 48.4863C119.095 48.4863 120.736 48.4862 120.08 45.3145C120.08 45.3145 118.439 45.5332 119.095 48.4863Z" fill="#75271A"/>
<path d="M115.924 45.0959C115.924 45.0959 114.283 43.8928 116.033 42.6897C117.237 41.8148 119.314 43.3459 119.314 43.3459C119.314 43.3459 120.408 42.471 121.283 43.3459C122.158 44.221 120.189 45.3147 120.189 45.3147C120.189 45.3147 120.189 46.1896 119.643 46.6271C119.643 46.6271 119.095 46.8458 119.095 47.1741C119.095 47.1741 118.439 46.4084 118.439 45.8615C118.439 45.7521 117.345 45.8615 115.924 45.0959Z" fill="#75271A"/>
<path d="M118.876 47.5021C118.876 47.5021 119.205 46.5178 119.643 46.6271C120.08 46.7365 119.97 48.0489 119.643 48.2677C119.205 48.5958 118.986 48.2677 118.986 48.2677L118.876 47.5021Z" fill="#F8A492"/>
<path d="M119.643 46.9551C119.424 47.1738 119.314 47.5019 119.314 47.83C119.424 47.7207 119.533 47.6113 119.643 47.6113C119.533 47.6113 119.424 47.7207 119.314 47.83C119.314 47.9394 119.314 48.0488 119.205 48.1581H119.095C119.095 47.83 119.205 47.1738 119.643 46.9551Z" fill="#75271A"/>
</g>
<defs>
<linearGradient id="paint0_linear" x1="118.74" y1="51.3865" x2="118.74" y2="26.2659" gradientUnits="userSpaceOnUse">
<stop stop-color="white"/>
<stop offset="1" stop-color="#BCDFF5"/>
</linearGradient>
<linearGradient id="paint1_linear" x1="118.74" y1="54.5492" x2="118.74" y2="38.1393" gradientUnits="userSpaceOnUse">
<stop stop-color="white"/>
<stop offset="1" stop-color="#BCDFF5"/>
</linearGradient>
<linearGradient id="paint2_linear" x1="113.459" y1="62.9103" x2="113.459" y2="50.5184" gradientUnits="userSpaceOnUse">
<stop stop-color="white"/>
<stop offset="1" stop-color="#BCDFF5"/>
</linearGradient>
<linearGradient id="paint3_linear" x1="126.539" y1="63.2318" x2="126.539" y2="49.5605" gradientUnits="userSpaceOnUse">
<stop stop-color="white"/>
<stop offset="1" stop-color="#BCDFF5"/>
</linearGradient>
<linearGradient id="paint4_linear" x1="105.039" y1="64.0361" x2="105.039" y2="56.6369" gradientUnits="userSpaceOnUse">
<stop stop-color="white"/>
<stop offset="1" stop-color="#BCDFF5"/>
</linearGradient>
<clipPath id="clip0">
<rect width="157" height="99" fill="white"/>
</clipPath>
</defs>
</svg>
