<svg xmlns="http://www.w3.org/2000/svg" viewBox="0 0 21 30" width="21" height="30">
	<style>
		tspan { white-space:pre }
		.shp0 { opacity: 0.502;fill: #999999 } 
	</style>
	<g id="Banner">
		<g id="Text">
			<g id="Input">
				<path id="Shape 1" class="shp0" d="M10.5 0.74C4.77 0.74 0.11 5.4 0.11 11.12C0.11 18.23 9.41 28.67 9.8 29.11C10.18 29.52 10.82 29.52 11.2 29.11C11.59 28.67 20.89 18.23 20.89 11.12C20.89 5.4 16.23 0.74 10.5 0.74ZM10.5 27.05C7.37 23.33 1.98 16 1.98 11.12C1.98 6.43 5.8 2.61 10.5 2.61C15.2 2.61 19.02 6.43 19.02 11.12C19.02 16 13.63 23.33 10.5 27.05ZM10.5 5.9C7.62 5.9 5.27 8.24 5.27 11.12C5.27 14 7.62 16.35 10.5 16.35C13.38 16.35 15.73 14 15.73 11.12C15.73 8.24 13.38 5.9 10.5 5.9ZM10.5 14.48C8.65 14.48 7.14 12.97 7.14 11.12C7.14 9.27 8.65 7.77 10.5 7.77C12.35 7.77 13.86 9.27 13.86 11.12C13.86 12.97 12.35 14.48 10.5 14.48Z" />
			</g>
		</g>
	</g>
</svg>