<svg width="112" height="24" viewBox="0 0 112 24" fill="none" xmlns="http://www.w3.org/2000/svg">
<rect x="78.5" y="0.5" width="33" height="23" rx="3.5" fill="white" stroke="#D9D9D9"/>
<path fill-rule="evenodd" clip-rule="evenodd" d="M95.179 16.8295C93.9949 17.8275 92.459 18.43 90.7807 18.43C87.0358 18.43 84 15.4303 84 11.73C84 8.02972 87.0358 5.03003 90.7807 5.03003C92.459 5.03003 93.9949 5.63253 95.179 6.63057C96.363 5.63253 97.8989 5.03003 99.5773 5.03003C103.322 5.03003 106.358 8.02972 106.358 11.73C106.358 15.4303 103.322 18.43 99.5773 18.43C97.8989 18.43 96.363 17.8275 95.179 16.8295Z" fill="#ED0006"/>
<path fill-rule="evenodd" clip-rule="evenodd" d="M95.179 16.8295C96.6369 15.6006 97.5614 13.772 97.5614 11.73C97.5614 9.68807 96.6369 7.85947 95.179 6.63057C96.363 5.63253 97.8989 5.03003 99.5772 5.03003C103.322 5.03003 106.358 8.02972 106.358 11.73C106.358 15.4303 103.322 18.43 99.5772 18.43C97.8989 18.43 96.363 17.8275 95.179 16.8295Z" fill="#F9A000"/>
<path fill-rule="evenodd" clip-rule="evenodd" d="M95.179 16.8295C96.6369 15.6006 97.5614 13.772 97.5614 11.7301C97.5614 9.68811 96.6369 7.85952 95.179 6.63062C93.7211 7.85952 92.7966 9.68811 92.7966 11.7301C92.7966 13.772 93.7211 15.6006 95.179 16.8295Z" fill="#FF5E00"/>
<rect x="0.5" y="0.5" width="33" height="23" rx="3.5" fill="white" stroke="#D9D9D9"/>
<path d="M14 23L33 17.25V20C33 21.6569 31.6569 23 30 23H14Z" fill="#FD6020"/>
<path fill-rule="evenodd" clip-rule="evenodd" d="M29.3937 9.11084C30.439 9.11084 31.0139 9.59438 31.0139 10.5077C31.0661 11.2062 30.5958 11.7972 29.9686 11.9046L31.3797 13.8925H30.2822L29.0801 11.9584H28.9756V13.8925H28.0871V9.11084H29.3937ZM28.9756 11.3137H29.2369C29.8118 11.3137 30.0731 11.045 30.0731 10.5615C30.0731 10.1317 29.8118 9.86304 29.2369 9.86304H28.9756V11.3137ZM25.0034 13.8925H27.5122V13.0866H25.8919V11.7972H27.4599V10.9913H25.8919V9.91674H27.5122V9.11084H25.0034V13.8925V13.8925ZM22.3902 12.3345L21.1881 9.11084H20.2474L22.1812 14H22.6515L24.5853 9.11084H23.6446L22.3902 12.3345V12.3345ZM11.7805 11.5286C11.7805 12.8717 12.8258 14 14.1324 14C14.5505 14 14.9164 13.8925 15.2822 13.7314V12.6568C15.0209 12.9792 14.655 13.1941 14.2369 13.1941C13.4007 13.1941 12.7212 12.5494 12.7212 11.6897V11.5823C12.669 10.7227 13.3484 9.97048 14.1847 9.91675C14.6028 9.91675 15.0209 10.1317 15.2822 10.454V9.37948C14.9686 9.16458 14.5505 9.11085 14.1847 9.11085C12.8258 9.0034 11.7805 10.1317 11.7805 11.5286V11.5286ZM10.1603 10.9376C9.63762 10.7227 9.48082 10.6152 9.48082 10.3466C9.53309 10.0242 9.79441 9.75557 10.108 9.8093C10.3693 9.8093 10.6306 9.97048 10.8397 10.1854L11.3101 9.54066C10.9442 9.2183 10.4739 9.00339 10.0035 9.00339C9.27176 8.94967 8.64459 9.54066 8.59232 10.2928V10.3466C8.59232 10.9913 8.85365 11.3674 9.68988 11.636C9.89894 11.6897 10.108 11.7972 10.3171 11.9046C10.4739 12.0121 10.5784 12.1733 10.5784 12.3882C10.5784 12.7643 10.2648 13.0866 9.95121 13.0866H9.89894C9.48082 13.0866 9.11497 12.818 8.95818 12.4419L8.38326 13.0329C8.69685 13.6239 9.32403 13.9463 9.95121 13.9463C10.7874 14 11.4669 13.3553 11.5191 12.4956V12.3345C11.4669 11.6897 11.2056 11.3674 10.1603 10.9376V10.9376ZM7.12892 13.8925H8.01742V9.11084H7.12892V13.8925V13.8925ZM3 9.11086H4.30662H4.56794C5.8223 9.16458 6.81532 10.2391 6.76306 11.5286C6.76306 12.227 6.44947 12.8717 5.92682 13.3553C5.45644 13.7314 4.88153 13.9463 4.30662 13.8926H3V9.11086ZM4.14983 13.0866C4.56794 13.1404 5.03833 12.9792 5.35191 12.7105C5.6655 12.3882 5.8223 11.9584 5.8223 11.4748C5.8223 11.045 5.6655 10.6152 5.35191 10.2928C5.03833 10.0242 4.56794 9.86302 4.14983 9.91674H3.8885V13.0866H4.14983Z" fill="black"/>
<path fill-rule="evenodd" clip-rule="evenodd" d="M17.9476 9C16.641 9 15.5435 10.0745 15.5435 11.4714C15.5435 12.8146 16.5888 13.9429 17.9476 13.9966C19.3065 14.0503 20.3518 12.9221 20.4041 11.5252C20.3518 10.1283 19.3065 9 17.9476 9V9Z" fill="#FD6020"/>
<rect x="39.5" y="0.5" width="33" height="23" rx="3.5" fill="white" stroke="#D9D9D9"/>
<path fill-rule="evenodd" clip-rule="evenodd" d="M49.7503 15.8583H47.6906L46.146 9.79247C46.0727 9.51344 45.917 9.26676 45.6881 9.1505C45.1166 8.85833 44.487 8.6258 43.8 8.50853V8.27499H47.1181C47.5761 8.27499 47.9195 8.6258 47.9768 9.03323L48.7782 13.4087L50.8369 8.27499H52.8394L49.7503 15.8583ZM53.9843 15.8583H52.039L53.6408 8.27499H55.5861L53.9843 15.8583ZM58.1028 10.3758C58.16 9.96738 58.5035 9.73384 58.9042 9.73384C59.5338 9.6752 60.2197 9.79248 60.7922 10.0836L61.1356 8.45091C60.5632 8.21737 59.9335 8.1001 59.3621 8.1001C57.4741 8.1001 56.1003 9.1505 56.1003 10.6083C56.1003 11.7174 57.0734 12.2997 57.7603 12.6505C58.5035 13.0003 58.7897 13.2338 58.7324 13.5836C58.7324 14.1083 58.16 14.3419 57.5886 14.3419C56.9017 14.3419 56.2147 14.167 55.5861 13.8748L55.2426 15.5086C55.9295 15.7997 56.6727 15.917 57.3596 15.917C59.4766 15.9746 60.7922 14.9252 60.7922 13.3501C60.7922 11.3666 58.1028 11.2503 58.1028 10.3758V10.3758ZM67.6001 15.8583L66.0555 8.27499H64.3965C64.053 8.27499 63.7095 8.50853 63.5951 8.85833L60.7349 15.8583H62.7374L63.1371 14.7503H65.5976L65.8265 15.8583H67.6001ZM64.6827 10.3172L65.2541 13.1752H63.6523L64.6827 10.3172Z" fill="#172B85"/>
</svg>
