<svg width="300" height="257" viewBox="0 0 300 257" fill="none" xmlns="http://www.w3.org/2000/svg">
<path d="M277.33 253C277.33 253 317.31 199.09 291.084 152.43C264.859 105.77 249.454 172.135 189.301 141.462C129.148 110.789 53.0393 55.3919 14.5266 135.142C-23.9861 214.891 26.2638 253 26.2638 253H277.33Z" fill="#FAFFFF"/>
<g opacity="0.06">
<g opacity="0.06">
<g opacity="0.06">
<path opacity="0.06" d="M119.107 99.0879H117.821V86.5716L118.556 85.0771L119.107 86.5716V99.0879Z" fill="#D7EAF0"/>
<path opacity="0.06" d="M119.107 99.0876H118.74V86.5714L118.556 85.0769L119.107 86.5714V99.0876Z" fill="#7FA9B5"/>
</g>
<g opacity="0.06">
<path opacity="0.06" d="M156.592 103.945H103.121V255.821H156.592V103.945Z" fill="#D7EAF0"/>
<path opacity="0.06" d="M156.591 107.494H142.443V255.635H156.591V107.494Z" fill="#7FA9B5"/>
<path opacity="0.06" d="M150.712 91.989H126.824V103.945H150.712V91.989Z" fill="#D7EAF0"/>
<path opacity="0.06" d="M150.896 91.989H144.097V103.945H150.896V91.989Z" fill="#7FA9B5"/>
<path opacity="0.06" d="M140.238 98.5276H130.683V103.758H140.238V98.5276Z" fill="#7FA9B5"/>
<path opacity="0.06" d="M131.786 98.5276H130.683V103.758H131.786V98.5276Z" fill="#B8D9DE"/>
<path opacity="0.06" d="M129.213 98.7141H112.125V103.945H129.213V98.7141Z" fill="#D7EAF0"/>
<path opacity="0.06" d="M129.03 98.7141H125.171V103.945H129.03V98.7141Z" fill="#B8D9DE"/>
<path opacity="0.06" d="M127.744 242.931H123.517V255.821H127.744V242.931Z" fill="#66929B"/>
<path opacity="0.06" d="M121.863 242.931H117.637V255.821H121.863V242.931Z" fill="#66929B"/>
<path opacity="0.06" d="M139.32 209.492H136.747V213.042H139.32V209.492Z" fill="#66929B"/>
<path opacity="0.06" d="M139.32 204.448H136.747V207.811H139.32V204.448Z" fill="#66929B"/>
<path opacity="0.06" d="M139.32 199.218H136.747V202.58H139.32V199.218Z" fill="#66929B"/>
<path opacity="0.06" d="M139.32 224.998H136.747V228.547H139.32V224.998Z" fill="#66929B"/>
<path opacity="0.06" d="M139.32 219.767H136.747V223.316H139.32V219.767Z" fill="#66929B"/>
<path opacity="0.06" d="M139.32 214.723H136.747V218.272H139.32V214.723Z" fill="#66929B"/>
<path opacity="0.06" d="M139.32 168.394H136.747V171.943H139.32V168.394Z" fill="#66929B"/>
<path opacity="0.06" d="M139.32 173.625H136.747V177.174H139.32V173.625Z" fill="#66929B"/>
<path opacity="0.06" d="M139.32 230.228H136.747V233.591H139.32V230.228Z" fill="#66929B"/>
<path opacity="0.06" d="M139.32 194.174H136.747V197.723H139.32V194.174Z" fill="#66929B"/>
<path opacity="0.06" d="M139.32 163.35H136.747V166.713H139.32V163.35Z" fill="#66929B"/>
<path opacity="0.06" d="M139.32 188.943H136.747V192.306H139.32V188.943Z" fill="#66929B"/>
<path opacity="0.06" d="M139.32 183.899H136.747V187.449H139.32V183.899Z" fill="#66929B"/>
<path opacity="0.06" d="M139.32 178.668H136.747V182.031H139.32V178.668Z" fill="#66929B"/>
<path opacity="0.06" d="M119.107 214.723H116.535V218.272H119.107V214.723Z" fill="#66929B"/>
<path opacity="0.06" d="M119.107 199.218H116.535V202.58H119.107V199.218Z" fill="#66929B"/>
<path opacity="0.06" d="M119.107 209.492H116.535V213.042H119.107V209.492Z" fill="#66929B"/>
<path opacity="0.06" d="M119.107 204.448H116.535V207.811H119.107V204.448Z" fill="#66929B"/>
<path opacity="0.06" d="M119.107 188.943H116.535V192.306H119.107V188.943Z" fill="#66929B"/>
<path opacity="0.06" d="M119.107 194.174H116.535V197.723H119.107V194.174Z" fill="#66929B"/>
<path opacity="0.06" d="M119.107 230.228H116.535V233.591H119.107V230.228Z" fill="#66929B"/>
<path opacity="0.06" d="M119.107 219.767H116.535V223.316H119.107V219.767Z" fill="#66929B"/>
<path opacity="0.06" d="M129.213 230.228H126.641V233.591H129.213V230.228Z" fill="#66929B"/>
<path opacity="0.06" d="M139.32 158.12H136.747V161.482H139.32V158.12Z" fill="#66929B"/>
<path opacity="0.06" d="M119.107 224.998H116.535V228.547H119.107V224.998Z" fill="#66929B"/>
<path opacity="0.06" d="M134.174 230.228H131.602V233.591H134.174V230.228Z" fill="#66929B"/>
<path opacity="0.06" d="M124.068 142.615H121.496V145.977H124.068V142.615Z" fill="#66929B"/>
<path opacity="0.06" d="M113.963 127.296H111.39V130.845H113.963V127.296Z" fill="#66929B"/>
<path opacity="0.06" d="M129.213 122.065H126.641V125.615H129.213V122.065Z" fill="#66929B"/>
<path opacity="0.06" d="M124.068 132.34H121.496V135.703H124.068V132.34Z" fill="#66929B"/>
<path opacity="0.06" d="M124.068 122.065H121.496V125.615H124.068V122.065Z" fill="#66929B"/>
<path opacity="0.06" d="M113.963 122.065H111.39V125.615H113.963V122.065Z" fill="#66929B"/>
<path opacity="0.06" d="M139.32 152.889H136.747V156.439H139.32V152.889Z" fill="#66929B"/>
<path opacity="0.06" d="M119.107 122.065H116.535V125.615H119.107V122.065Z" fill="#66929B"/>
<path opacity="0.06" d="M119.107 132.34H116.535V135.703H119.107V132.34Z" fill="#66929B"/>
<path opacity="0.06" d="M113.963 158.12H111.39V161.482H113.963V158.12Z" fill="#66929B"/>
<path opacity="0.06" d="M119.107 183.899H116.535V187.449H119.107V183.899Z" fill="#66929B"/>
<path opacity="0.06" d="M113.963 163.35H111.39V166.713H113.963V163.35Z" fill="#66929B"/>
<path opacity="0.06" d="M119.107 152.889H116.535V156.439H119.107V152.889Z" fill="#66929B"/>
<path opacity="0.06" d="M124.068 147.845H121.496V151.207H124.068V147.845Z" fill="#66929B"/>
<path opacity="0.06" d="M124.068 152.889H121.496V156.439H124.068V152.889Z" fill="#66929B"/>
<path opacity="0.06" d="M124.068 137.571H121.496V140.933H124.068V137.571Z" fill="#66929B"/>
<path opacity="0.06" d="M129.213 137.571H126.641V140.933H129.213V137.571Z" fill="#66929B"/>
<path opacity="0.06" d="M129.213 127.296H126.641V130.845H129.213V127.296Z" fill="#66929B"/>
<path opacity="0.06" d="M119.107 127.296H116.535V130.845H119.107V127.296Z" fill="#66929B"/>
<path opacity="0.06" d="M124.068 127.296H121.496V130.845H124.068V127.296Z" fill="#66929B"/>
<path opacity="0.06" d="M129.213 147.845H126.641V151.207H129.213V147.845Z" fill="#66929B"/>
<path opacity="0.06" d="M134.174 122.065H131.602V125.615H134.174V122.065Z" fill="#66929B"/>
<path opacity="0.06" d="M129.213 142.615H126.641V145.977H129.213V142.615Z" fill="#66929B"/>
<path opacity="0.06" d="M139.32 127.296H136.747V130.845H139.32V127.296Z" fill="#66929B"/>
<path opacity="0.06" d="M139.32 122.065H136.747V125.615H139.32V122.065Z" fill="#66929B"/>
<path opacity="0.06" d="M134.174 127.296H131.602V130.845H134.174V127.296Z" fill="#66929B"/>
<path opacity="0.06" d="M129.213 132.34H126.641V135.703H129.213V132.34Z" fill="#66929B"/>
<path opacity="0.06" d="M129.213 163.35H126.641V166.713H129.213V163.35Z" fill="#66929B"/>
<path opacity="0.06" d="M129.213 178.668H126.641V182.031H129.213V178.668Z" fill="#66929B"/>
<path opacity="0.06" d="M129.213 173.625H126.641V177.174H129.213V173.625Z" fill="#66929B"/>
<path opacity="0.06" d="M129.213 183.899H126.641V187.449H129.213V183.899Z" fill="#66929B"/>
<path opacity="0.06" d="M129.213 168.394H126.641V171.943H129.213V168.394Z" fill="#66929B"/>
<path opacity="0.06" d="M129.213 188.943H126.641V192.306H129.213V188.943Z" fill="#66929B"/>
<path opacity="0.06" d="M129.213 199.218H126.641V202.58H129.213V199.218Z" fill="#66929B"/>
<path opacity="0.06" d="M129.213 194.174H126.641V197.723H129.213V194.174Z" fill="#66929B"/>
<path opacity="0.06" d="M124.068 168.394H121.496V171.943H124.068V168.394Z" fill="#66929B"/>
<path opacity="0.06" d="M124.068 178.668H121.496V182.031H124.068V178.668Z" fill="#66929B"/>
<path opacity="0.06" d="M124.068 173.625H121.496V177.174H124.068V173.625Z" fill="#66929B"/>
<path opacity="0.06" d="M124.068 183.899H121.496V187.449H124.068V183.899Z" fill="#66929B"/>
<path opacity="0.06" d="M129.213 204.448H126.641V207.811H129.213V204.448Z" fill="#66929B"/>
<path opacity="0.06" d="M124.068 163.35H121.496V166.713H124.068V163.35Z" fill="#66929B"/>
<path opacity="0.06" d="M113.963 168.394H111.39V171.943H113.963V168.394Z" fill="#66929B"/>
<path opacity="0.06" d="M129.213 209.492H126.641V213.042H129.213V209.492Z" fill="#66929B"/>
<path opacity="0.06" d="M113.963 152.889H111.39V156.439H113.963V152.889Z" fill="#66929B"/>
<path opacity="0.06" d="M124.068 188.943H121.496V192.306H124.068V188.943Z" fill="#66929B"/>
<path opacity="0.06" d="M124.068 230.228H121.496V233.591H124.068V230.228Z" fill="#66929B"/>
<path opacity="0.06" d="M129.213 214.723H126.641V218.272H129.213V214.723Z" fill="#66929B"/>
<path opacity="0.06" d="M129.213 219.767H126.641V223.316H129.213V219.767Z" fill="#66929B"/>
<path opacity="0.06" d="M134.174 152.889H131.602V156.439H134.174V152.889Z" fill="#66929B"/>
<path opacity="0.06" d="M124.068 224.998H121.496V228.547H124.068V224.998Z" fill="#66929B"/>
<path opacity="0.06" d="M119.107 173.625H116.535V177.174H119.107V173.625Z" fill="#66929B"/>
<path opacity="0.06" d="M134.174 188.943H131.602V192.306H134.174V188.943Z" fill="#66929B"/>
<path opacity="0.06" d="M134.174 163.35H131.602V166.713H134.174V163.35Z" fill="#66929B"/>
<path opacity="0.06" d="M134.174 158.12H131.602V161.482H134.174V158.12Z" fill="#66929B"/>
<path opacity="0.06" d="M134.174 183.899H131.602V187.449H134.174V183.899Z" fill="#66929B"/>
<path opacity="0.06" d="M129.213 152.889H126.641V156.439H129.213V152.889Z" fill="#66929B"/>
<path opacity="0.06" d="M134.174 178.668H131.602V182.031H134.174V178.668Z" fill="#66929B"/>
<path opacity="0.06" d="M134.174 173.625H131.602V177.174H134.174V173.625Z" fill="#66929B"/>
<path opacity="0.06" d="M129.213 158.12H126.641V161.482H129.213V158.12Z" fill="#66929B"/>
<path opacity="0.06" d="M119.107 168.394H116.535V171.943H119.107V168.394Z" fill="#66929B"/>
<path opacity="0.06" d="M119.107 178.668H116.535V182.031H119.107V178.668Z" fill="#66929B"/>
<path opacity="0.06" d="M119.107 163.35H116.535V166.713H119.107V163.35Z" fill="#66929B"/>
<path opacity="0.06" d="M124.068 158.12H121.496V161.482H124.068V158.12Z" fill="#66929B"/>
<path opacity="0.06" d="M119.107 158.12H116.535V161.482H119.107V158.12Z" fill="#66929B"/>
<path opacity="0.06" d="M134.174 194.174H131.602V197.723H134.174V194.174Z" fill="#66929B"/>
<path opacity="0.06" d="M124.068 209.492H121.496V213.042H124.068V209.492Z" fill="#66929B"/>
<path opacity="0.06" d="M129.213 224.998H126.641V228.547H129.213V224.998Z" fill="#66929B"/>
<path opacity="0.06" d="M124.068 219.767H121.496V223.316H124.068V219.767Z" fill="#66929B"/>
<path opacity="0.06" d="M124.068 214.723H121.496V218.272H124.068V214.723Z" fill="#66929B"/>
<path opacity="0.06" d="M124.068 199.218H121.496V202.58H124.068V199.218Z" fill="#66929B"/>
<path opacity="0.06" d="M124.068 204.448H121.496V207.811H124.068V204.448Z" fill="#66929B"/>
<path opacity="0.06" d="M124.068 194.174H121.496V197.723H124.068V194.174Z" fill="#66929B"/>
<path opacity="0.06" d="M134.174 224.998H131.602V228.547H134.174V224.998Z" fill="#66929B"/>
<path opacity="0.06" d="M134.174 204.448H131.602V207.811H134.174V204.448Z" fill="#66929B"/>
<path opacity="0.06" d="M134.174 199.218H131.602V202.58H134.174V199.218Z" fill="#66929B"/>
<path opacity="0.06" d="M134.174 209.492H131.602V213.042H134.174V209.492Z" fill="#66929B"/>
<path opacity="0.06" d="M134.174 214.723H131.602V218.272H134.174V214.723Z" fill="#66929B"/>
<path opacity="0.06" d="M134.174 219.767H131.602V223.316H134.174V219.767Z" fill="#66929B"/>
<path opacity="0.06" d="M134.174 168.394H131.602V171.943H134.174V168.394Z" fill="#66929B"/>
<path opacity="0.06" d="M134.174 240.503H131.602V244.052H134.174V240.503Z" fill="#66929B"/>
<path opacity="0.06" d="M139.32 240.503H136.747V244.052H139.32V240.503Z" fill="#66929B"/>
<path opacity="0.06" d="M113.963 240.503H111.39V244.052H113.963V240.503Z" fill="#66929B"/>
<path opacity="0.06" d="M109.001 194.174H106.428V197.723H109.001V194.174Z" fill="#66929B"/>
<path opacity="0.06" d="M109.001 199.218H106.428V202.58H109.001V199.218Z" fill="#66929B"/>
<path opacity="0.06" d="M109.001 188.943H106.428V192.306H109.001V188.943Z" fill="#66929B"/>
<path opacity="0.06" d="M109.001 183.899H106.428V187.449H109.001V183.899Z" fill="#66929B"/>
<path opacity="0.06" d="M109.001 178.668H106.428V182.031H109.001V178.668Z" fill="#66929B"/>
<path opacity="0.06" d="M109.001 204.448H106.428V207.811H109.001V204.448Z" fill="#66929B"/>
<path opacity="0.06" d="M109.001 224.998H106.428V228.547H109.001V224.998Z" fill="#66929B"/>
<path opacity="0.06" d="M109.001 230.228H106.428V233.591H109.001V230.228Z" fill="#66929B"/>
<path opacity="0.06" d="M109.001 209.492H106.428V213.042H109.001V209.492Z" fill="#66929B"/>
<path opacity="0.06" d="M109.001 235.272H106.428V238.635H109.001V235.272Z" fill="#66929B"/>
<path opacity="0.06" d="M109.001 240.503H106.428V244.052H109.001V240.503Z" fill="#66929B"/>
<path opacity="0.06" d="M109.001 219.767H106.428V223.316H109.001V219.767Z" fill="#66929B"/>
<path opacity="0.06" d="M109.001 214.723H106.428V218.272H109.001V214.723Z" fill="#66929B"/>
<path opacity="0.06" d="M113.963 245.546H111.39V249.096H113.963V245.546Z" fill="#66929B"/>
<path opacity="0.06" d="M119.107 111.791H116.535V115.154H119.107V111.791Z" fill="#66929B"/>
<path opacity="0.06" d="M113.963 111.791H111.39V115.154H113.963V111.791Z" fill="#66929B"/>
<path opacity="0.06" d="M124.068 111.791H121.496V115.154H124.068V111.791Z" fill="#66929B"/>
<path opacity="0.06" d="M109.001 111.791H106.428V115.154H109.001V111.791Z" fill="#66929B"/>
<path opacity="0.06" d="M139.32 111.791H136.747V115.154H139.32V111.791Z" fill="#66929B"/>
<path opacity="0.06" d="M129.213 111.791H126.641V115.154H129.213V111.791Z" fill="#66929B"/>
<path opacity="0.06" d="M134.174 111.791H131.602V115.154H134.174V111.791Z" fill="#66929B"/>
<path opacity="0.06" d="M139.32 245.546H136.747V249.096H139.32V245.546Z" fill="#66929B"/>
<path opacity="0.06" d="M134.174 245.546H131.602V249.096H134.174V245.546Z" fill="#66929B"/>
<path opacity="0.06" d="M109.001 245.546H106.428V249.096H109.001V245.546Z" fill="#66929B"/>
<path opacity="0.06" d="M109.001 173.625H106.428V177.174H109.001V173.625Z" fill="#66929B"/>
<path opacity="0.06" d="M113.963 214.723H111.39V218.272H113.963V214.723Z" fill="#66929B"/>
<path opacity="0.06" d="M139.32 235.272H136.747V238.635H139.32V235.272Z" fill="#66929B"/>
<path opacity="0.06" d="M113.963 183.899H111.39V187.449H113.963V183.899Z" fill="#66929B"/>
<path opacity="0.06" d="M113.963 194.174H111.39V197.723H113.963V194.174Z" fill="#66929B"/>
<path opacity="0.06" d="M113.963 199.218H111.39V202.58H113.963V199.218Z" fill="#66929B"/>
<path opacity="0.06" d="M113.963 188.943H111.39V192.306H113.963V188.943Z" fill="#66929B"/>
<path opacity="0.06" d="M134.174 235.272H131.602V238.635H134.174V235.272Z" fill="#66929B"/>
<path opacity="0.06" d="M109.001 168.394H106.428V171.943H109.001V168.394Z" fill="#66929B"/>
<path opacity="0.06" d="M113.963 178.668H111.39V182.031H113.963V178.668Z" fill="#66929B"/>
<path opacity="0.06" d="M113.963 230.228H111.39V233.591H113.963V230.228Z" fill="#66929B"/>
<path opacity="0.06" d="M113.963 209.492H111.39V213.042H113.963V209.492Z" fill="#66929B"/>
<path opacity="0.06" d="M113.963 224.998H111.39V228.547H113.963V224.998Z" fill="#66929B"/>
<path opacity="0.06" d="M113.963 235.272H111.39V238.635H113.963V235.272Z" fill="#66929B"/>
<path opacity="0.06" d="M113.963 219.767H111.39V223.316H113.963V219.767Z" fill="#66929B"/>
<path opacity="0.06" d="M113.963 173.625H111.39V177.174H113.963V173.625Z" fill="#66929B"/>
<path opacity="0.06" d="M113.963 204.448H111.39V207.811H113.963V204.448Z" fill="#66929B"/>
<path opacity="0.06" d="M109.001 122.065H106.428V125.615H109.001V122.065Z" fill="#66929B"/>
<path opacity="0.06" d="M119.107 137.571H116.535V140.933H119.107V137.571Z" fill="#66929B"/>
<g opacity="0.06">
<path opacity="0.06" d="M134.174 132.34H131.602V135.703H134.174V132.34Z" fill="#66929B"/>
<path opacity="0.06" d="M139.32 132.34H136.747V135.703H139.32V132.34Z" fill="#66929B"/>
<path opacity="0.06" d="M113.962 132.34H111.39V135.703H113.962V132.34Z" fill="#66929B"/>
<path opacity="0.06" d="M109.001 132.341H106.428V135.703H109.001V132.341Z" fill="#66929B"/>
</g>
<g opacity="0.06">
<path opacity="0.06" d="M134.174 137.571H131.602V140.933H134.174V137.571Z" fill="#66929B"/>
<path opacity="0.06" d="M139.32 137.571H136.747V140.933H139.32V137.571Z" fill="#66929B"/>
<path opacity="0.06" d="M113.962 137.571H111.39V140.933H113.962V137.571Z" fill="#66929B"/>
<path opacity="0.06" d="M109.001 137.571H106.428V140.933H109.001V137.571Z" fill="#66929B"/>
</g>
<g opacity="0.06">
<path opacity="0.06" d="M134.174 142.615H131.602V145.977H134.174V142.615Z" fill="#66929B"/>
<path opacity="0.06" d="M139.32 142.615H136.747V145.977H139.32V142.615Z" fill="#66929B"/>
<path opacity="0.06" d="M113.962 142.615H111.39V145.977H113.962V142.615Z" fill="#66929B"/>
<path opacity="0.06" d="M109.001 142.615H106.428V145.978H109.001V142.615Z" fill="#66929B"/>
</g>
<g opacity="0.06">
<path opacity="0.06" d="M134.174 147.845H131.602V151.207H134.174V147.845Z" fill="#66929B"/>
<path opacity="0.06" d="M139.32 147.845H136.747V151.207H139.32V147.845Z" fill="#66929B"/>
<path opacity="0.06" d="M113.962 147.845H111.39V151.207H113.962V147.845Z" fill="#66929B"/>
<path opacity="0.06" d="M109.001 147.845H106.428V151.207H109.001V147.845Z" fill="#66929B"/>
</g>
<path opacity="0.06" d="M109.001 127.296H106.428V130.845H109.001V127.296Z" fill="#66929B"/>
<path opacity="0.06" d="M109.001 117.021H106.428V120.571H109.001V117.021Z" fill="#66929B"/>
<path opacity="0.06" d="M113.963 117.021H111.39V120.571H113.963V117.021Z" fill="#66929B"/>
<path opacity="0.06" d="M109.001 163.35H106.428V166.713H109.001V163.35Z" fill="#66929B"/>
<path opacity="0.06" d="M109.001 152.889H106.428V156.439H109.001V152.889Z" fill="#66929B"/>
<path opacity="0.06" d="M119.107 142.615H116.535V145.977H119.107V142.615Z" fill="#66929B"/>
<path opacity="0.06" d="M119.107 117.021H116.535V120.571H119.107V117.021Z" fill="#66929B"/>
<path opacity="0.06" d="M109.001 158.12H106.428V161.482H109.001V158.12Z" fill="#66929B"/>
<path opacity="0.06" d="M119.107 147.845H116.535V151.207H119.107V147.845Z" fill="#66929B"/>
<path opacity="0.06" d="M129.213 117.021H126.641V120.571H129.213V117.021Z" fill="#66929B"/>
<path opacity="0.06" d="M139.32 117.021H136.747V120.571H139.32V117.021Z" fill="#66929B"/>
<path opacity="0.06" d="M134.174 117.021H131.602V120.571H134.174V117.021Z" fill="#66929B"/>
<path opacity="0.06" d="M124.068 117.021H121.496V120.571H124.068V117.021Z" fill="#66929B"/>
<g opacity="0.06">
<path opacity="0.06" d="M153.835 111.791H151.079V115.154H153.835V111.791Z" fill="#52738A"/>
<path opacity="0.06" d="M153.835 224.998H151.079V228.547H153.835V224.998Z" fill="#52738A"/>
<path opacity="0.06" d="M153.835 240.503H151.079V244.052H153.835V240.503Z" fill="#52738A"/>
<path opacity="0.06" d="M153.835 230.228H151.079V233.591H153.835V230.228Z" fill="#52738A"/>
<path opacity="0.06" d="M153.835 235.272H151.079V238.635H153.835V235.272Z" fill="#52738A"/>
<path opacity="0.06" d="M148.874 240.503H146.118V244.052H148.874V240.503Z" fill="#52738A"/>
<path opacity="0.06" d="M153.835 199.218H151.079V202.58H153.835V199.218Z" fill="#52738A"/>
<path opacity="0.06" d="M153.835 188.943H151.079V192.306H153.835V188.943Z" fill="#52738A"/>
<path opacity="0.06" d="M153.835 204.449H151.079V207.811H153.835V204.449Z" fill="#52738A"/>
<path opacity="0.06" d="M153.835 194.174H151.079V197.723H153.835V194.174Z" fill="#52738A"/>
<path opacity="0.06" d="M153.835 209.493H151.079V213.042H153.835V209.493Z" fill="#52738A"/>
<path opacity="0.06" d="M153.835 214.723H151.079V218.273H153.835V214.723Z" fill="#52738A"/>
<path opacity="0.06" d="M153.835 219.767H151.079V223.316H153.835V219.767Z" fill="#52738A"/>
<path opacity="0.06" d="M148.874 111.792H146.118V115.154H148.874V111.792Z" fill="#52738A"/>
<path opacity="0.06" d="M148.874 245.547H146.118V255.635H148.874V245.547Z" fill="#52738A"/>
<path opacity="0.06" d="M153.835 245.547H151.079V255.635H153.835V245.547Z" fill="#52738A"/>
<path opacity="0.06" d="M153.835 158.12H151.079V161.482H153.835V158.12Z" fill="#52738A"/>
<path opacity="0.06" d="M153.835 163.351H151.079V166.713H153.835V163.351Z" fill="#52738A"/>
<path opacity="0.06" d="M153.835 168.394H151.079V171.944H153.835V168.394Z" fill="#52738A"/>
<path opacity="0.06" d="M153.835 183.9H151.079V187.449H153.835V183.9Z" fill="#52738A"/>
<path opacity="0.06" d="M153.835 152.889H151.079V156.439H153.835V152.889Z" fill="#52738A"/>
<path opacity="0.06" d="M153.835 178.669H151.079V182.032H153.835V178.669Z" fill="#52738A"/>
<path opacity="0.06" d="M153.835 173.625H151.079V177.174H153.835V173.625Z" fill="#52738A"/>
<path opacity="0.06" d="M153.835 117.022H151.079V120.571H153.835V117.022Z" fill="#52738A"/>
<path opacity="0.06" d="M153.835 127.296H151.079V130.845H153.835V127.296Z" fill="#52738A"/>
<path opacity="0.06" d="M153.835 122.065H151.079V125.615H153.835V122.065Z" fill="#52738A"/>
<path opacity="0.06" d="M153.835 132.34H151.079V135.703H153.835V132.34Z" fill="#52738A"/>
<path opacity="0.06" d="M153.835 142.615H151.079V145.977H153.835V142.615Z" fill="#52738A"/>
<path opacity="0.06" d="M153.835 147.845H151.079V151.208H153.835V147.845Z" fill="#52738A"/>
<path opacity="0.06" d="M153.835 137.571H151.079V140.933H153.835V137.571Z" fill="#52738A"/>
<path opacity="0.06" d="M148.874 204.449H146.118V207.811H148.874V204.449Z" fill="#52738A"/>
<path opacity="0.06" d="M148.874 219.767H146.118V223.316H148.874V219.767Z" fill="#52738A"/>
<path opacity="0.06" d="M148.874 209.493H146.118V213.042H148.874V209.493Z" fill="#52738A"/>
<path opacity="0.06" d="M148.874 214.723H146.118V218.273H148.874V214.723Z" fill="#52738A"/>
<path opacity="0.06" d="M148.874 224.998H146.118V228.547H148.874V224.998Z" fill="#52738A"/>
<path opacity="0.06" d="M148.874 235.272H146.118V238.635H148.874V235.272Z" fill="#52738A"/>
<path opacity="0.06" d="M148.874 230.228H146.118V233.591H148.874V230.228Z" fill="#52738A"/>
<path opacity="0.06" d="M148.874 178.669H146.118V182.032H148.874V178.669Z" fill="#52738A"/>
<path opacity="0.06" d="M148.874 173.625H146.118V177.174H148.874V173.625Z" fill="#52738A"/>
<path opacity="0.06" d="M148.874 183.9H146.118V187.449H148.874V183.9Z" fill="#52738A"/>
<path opacity="0.06" d="M148.874 188.943H146.118V192.306H148.874V188.943Z" fill="#52738A"/>
<path opacity="0.06" d="M148.874 199.218H146.118V202.58H148.874V199.218Z" fill="#52738A"/>
<path opacity="0.06" d="M148.874 194.174H146.118V197.723H148.874V194.174Z" fill="#52738A"/>
<path opacity="0.06" d="M148.874 168.394H146.118V171.944H148.874V168.394Z" fill="#52738A"/>
<path opacity="0.06" d="M148.874 163.351H146.118V166.713H148.874V163.351Z" fill="#52738A"/>
<path opacity="0.06" d="M148.874 147.845H146.118V151.208H148.874V147.845Z" fill="#52738A"/>
<path opacity="0.06" d="M148.874 132.34H146.118V135.703H148.874V132.34Z" fill="#52738A"/>
<path opacity="0.06" d="M148.874 137.571H146.118V140.933H148.874V137.571Z" fill="#52738A"/>
<path opacity="0.06" d="M148.874 142.615H146.118V145.977H148.874V142.615Z" fill="#52738A"/>
<path opacity="0.06" d="M148.874 152.889H146.118V156.439H148.874V152.889Z" fill="#52738A"/>
<path opacity="0.06" d="M148.874 158.12H146.118V161.482H148.874V158.12Z" fill="#52738A"/>
<path opacity="0.06" d="M148.874 122.065H146.118V125.615H148.874V122.065Z" fill="#52738A"/>
<path opacity="0.06" d="M148.874 117.022H146.118V120.571H148.874V117.022Z" fill="#52738A"/>
<path opacity="0.06" d="M148.874 127.296H146.118V130.845H148.874V127.296Z" fill="#52738A"/>
</g>
</g>
</g>
<g opacity="0.06">
<path opacity="0.06" d="M266.657 72H236.155V79.2856H266.657V72Z" fill="#D7EAF0"/>
<path opacity="0.06" d="M266.657 72H245.893V79.2856H266.657V72Z" fill="#7FA9B5"/>
<path opacity="0.06" d="M241.667 75.1758H239.646V79.2856H241.667V75.1758Z" fill="#7FA9B5"/>
<path opacity="0.06" d="M240.197 75.1758H239.646V79.2856H240.197V75.1758Z" fill="#B8D9DE"/>
<path opacity="0.06" d="M271.067 78.7256H231.745V88.6265H271.067V78.7256Z" fill="#D7EAF0"/>
<path opacity="0.06" d="M271.066 78.7256H243.688V88.6265H271.066V78.7256Z" fill="#7FA9B5"/>
<path opacity="0.06" d="M238.176 84.1426H235.971V88.626H238.176V84.1426Z" fill="#7FA9B5"/>
<path opacity="0.06" d="M236.522 84.1426H235.971V88.626H236.522V84.1426Z" fill="#B8D9DE"/>
<path opacity="0.06" d="M276.763 88.0662H227.151V255.635H276.763V88.0662Z" fill="#D7EAF0"/>
<path opacity="0.06" d="M276.763 88.0662H241.483V255.635H276.763V88.0662Z" fill="#7FA9B5"/>
<path opacity="0.06" d="M274.925 92.1753H243.321V95.1642H274.925V92.1753Z" fill="#52738A"/>
<path opacity="0.06" d="M240.014 92.1753H228.254V95.1642H240.014V92.1753Z" fill="#66929B"/>
<path opacity="0.06" d="M274.925 98.7136H243.321V101.703H274.925V98.7136Z" fill="#52738A"/>
<path opacity="0.06" d="M240.014 98.7136H228.254V101.703H240.014V98.7136Z" fill="#66929B"/>
<path opacity="0.06" d="M274.925 105.065H243.321V108.054H274.925V105.065Z" fill="#52738A"/>
<path opacity="0.06" d="M240.014 105.065H228.254V108.054H240.014V105.065Z" fill="#66929B"/>
<path opacity="0.06" d="M274.925 111.604H243.321V114.592H274.925V111.604Z" fill="#52738A"/>
<path opacity="0.06" d="M240.014 111.604H228.254V114.592H240.014V111.604Z" fill="#66929B"/>
<path opacity="0.06" d="M274.925 118.142H243.321V121.131H274.925V118.142Z" fill="#52738A"/>
<path opacity="0.06" d="M240.014 118.142H228.254V121.131H240.014V118.142Z" fill="#66929B"/>
<path opacity="0.06" d="M274.925 124.68H243.321V127.669H274.925V124.68Z" fill="#52738A"/>
<path opacity="0.06" d="M240.014 124.68H228.254V127.669H240.014V124.68Z" fill="#66929B"/>
<path opacity="0.06" d="M274.925 131.219H243.321V134.208H274.925V131.219Z" fill="#52738A"/>
<path opacity="0.06" d="M240.014 131.219H228.254V134.208H240.014V131.219Z" fill="#66929B"/>
<path opacity="0.06" d="M274.925 137.571H243.321V140.56H274.925V137.571Z" fill="#52738A"/>
<path opacity="0.06" d="M240.014 137.571H228.254V140.56H240.014V137.571Z" fill="#66929B"/>
<path opacity="0.06" d="M274.925 144.109H243.321V147.098H274.925V144.109Z" fill="#52738A"/>
<path opacity="0.06" d="M240.014 144.109H228.254V147.098H240.014V144.109Z" fill="#66929B"/>
<path opacity="0.06" d="M274.925 150.647H243.321V153.636H274.925V150.647Z" fill="#52738A"/>
<path opacity="0.06" d="M240.014 150.647H228.254V153.636H240.014V150.647Z" fill="#66929B"/>
<path opacity="0.06" d="M274.925 157.185H243.321V160.174H274.925V157.185Z" fill="#52738A"/>
<path opacity="0.06" d="M240.014 157.185H228.254V160.174H240.014V157.185Z" fill="#66929B"/>
<path opacity="0.06" d="M274.925 163.724H243.321V166.713H274.925V163.724Z" fill="#52738A"/>
<path opacity="0.06" d="M240.014 163.724H228.254V166.713H240.014V163.724Z" fill="#66929B"/>
<path opacity="0.06" d="M274.925 170.075H243.321V173.064H274.925V170.075Z" fill="#52738A"/>
<path opacity="0.06" d="M240.014 170.075H228.254V173.064H240.014V170.075Z" fill="#66929B"/>
<path opacity="0.06" d="M274.925 176.614H243.321V179.602H274.925V176.614Z" fill="#52738A"/>
<path opacity="0.06" d="M240.014 176.614H228.254V179.602H240.014V176.614Z" fill="#66929B"/>
<path opacity="0.06" d="M274.925 183.152H243.321V186.141H274.925V183.152Z" fill="#52738A"/>
<path opacity="0.06" d="M240.014 183.152H228.254V186.141H240.014V183.152Z" fill="#66929B"/>
<path opacity="0.06" d="M274.925 189.69H243.321V192.679H274.925V189.69Z" fill="#52738A"/>
<path opacity="0.06" d="M240.014 189.69H228.254V192.679H240.014V189.69Z" fill="#66929B"/>
<path opacity="0.06" d="M274.925 196.228H243.321V199.217H274.925V196.228Z" fill="#52738A"/>
<path opacity="0.06" d="M240.014 196.228H228.254V199.217H240.014V196.228Z" fill="#66929B"/>
<path opacity="0.06" d="M274.925 202.58H243.321V205.569H274.925V202.58Z" fill="#52738A"/>
<path opacity="0.06" d="M240.014 202.58H228.254V205.569H240.014V202.58Z" fill="#66929B"/>
<path opacity="0.06" d="M274.925 209.118H243.321V212.107H274.925V209.118Z" fill="#52738A"/>
<path opacity="0.06" d="M240.014 209.118H228.254V212.107H240.014V209.118Z" fill="#66929B"/>
<path opacity="0.06" d="M274.925 215.656H243.321V218.645H274.925V215.656Z" fill="#52738A"/>
<path opacity="0.06" d="M240.014 215.656H228.254V218.645H240.014V215.656Z" fill="#66929B"/>
<path opacity="0.06" d="M274.925 222.195H243.321V225.184H274.925V222.195Z" fill="#52738A"/>
<path opacity="0.06" d="M240.014 222.195H228.254V225.184H240.014V222.195Z" fill="#66929B"/>
<path opacity="0.06" d="M274.925 228.733H243.321V231.909H274.925V228.733Z" fill="#52738A"/>
<path opacity="0.06" d="M240.014 228.733H228.254V231.909H240.014V228.733Z" fill="#66929B"/>
<path opacity="0.06" d="M274.925 235.085H243.321V238.074H274.925V235.085Z" fill="#52738A"/>
<path opacity="0.06" d="M240.014 235.085H228.254V238.074H240.014V235.085Z" fill="#66929B"/>
<path opacity="0.06" d="M258.388 243.492H254.346V255.821H258.388V243.492Z" fill="#52738A"/>
<path opacity="0.06" d="M263.533 243.492H259.49V255.821H263.533V243.492Z" fill="#52738A"/>
<path opacity="0.06" d="M264.635 242.184H253.059V245.36H264.635V242.184Z" fill="#96BDBD"/>
</g>
<g opacity="0.06">
<g opacity="0.06">
<path opacity="0.06" d="M205.835 108.428H175.333V114.966H205.835V108.428Z" fill="#B5CFE8"/>
<path opacity="0.06" d="M206.019 108.428H199.956V114.966H206.019V108.428Z" fill="#7FA9B5"/>
<path opacity="0.06" d="M207.489 105.439H173.496V109.922H207.489V105.439Z" fill="#D7EAF0"/>
</g>
<g opacity="0.06">
<path opacity="0.06" d="M213.186 117.021H168.167V123.559H213.186V117.021Z" fill="#B5CFE8"/>
<path opacity="0.06" d="M213.002 117.021H204.182V123.559H213.002V117.021Z" fill="#7FA9B5"/>
<path opacity="0.06" d="M215.574 112.911H165.595V118.702H215.574V112.911Z" fill="#D7EAF0"/>
</g>
<path opacity="0.06" d="M219.616 125.801H161.736V222.008H219.616V125.801Z" fill="#D7EAF0"/>
<path opacity="0.06" d="M219.616 125.801H208.224V222.008H219.616V125.801Z" fill="#7FA9B5"/>
<path opacity="0.06" d="M229.355 223.129H151.814V255.634H229.355V223.129Z" fill="#D7EAF0"/>
<path opacity="0.06" d="M229.355 213.788H151.814V226.678H229.355V213.788Z" fill="#B5CFE8"/>
<g opacity="0.06">
<path opacity="0.06" d="M162.838 213.976H156.591V255.821H162.838V213.976Z" fill="#52738A"/>
<path opacity="0.06" d="M174.23 213.975H167.983V255.821H174.23V213.975Z" fill="#52738A"/>
<path opacity="0.06" d="M185.439 213.975H179.192V255.821H185.439V213.975Z" fill="#52738A"/>
<path opacity="0.06" d="M196.832 213.975H190.584V255.821H196.832V213.975Z" fill="#52738A"/>
<path opacity="0.06" d="M208.04 213.975H201.793V255.821H208.04V213.975Z" fill="#52738A"/>
</g>
<path opacity="0.06" d="M229.171 212.667H214.104V255.633H229.171V212.667Z" fill="#7FA9B5"/>
<path opacity="0.06" d="M225.129 213.975H218.882V255.821H225.129V213.975Z" fill="#52738A"/>
<path opacity="0.7" d="M229.355 213.788H151.814V221.261H229.355V213.788Z" fill="#B5CFE8"/>
<path opacity="0.06" d="M231.376 212.667H149.792V218.458H231.376V212.667Z" fill="#D7EAF0"/>
<g opacity="0.06">
<path opacity="0.06" d="M168.535 129.538H164.308V139.812H168.535V129.538Z" fill="#B5CFE8"/>
<path opacity="0.06" d="M175.701 129.537H171.474V139.812H175.701V129.537Z" fill="#B5CFE8"/>
<path opacity="0.06" d="M183.05 129.537H178.824V139.812H183.05V129.537Z" fill="#B5CFE8"/>
<path opacity="0.06" d="M190.217 129.537H185.991V139.812H190.217V129.537Z" fill="#B5CFE8"/>
<path opacity="0.06" d="M197.383 129.537H193.156V139.812H197.383V129.537Z" fill="#B5CFE8"/>
<path opacity="0.06" d="M204.733 129.537H200.507V139.812H204.733V129.537Z" fill="#B5CFE8"/>
<path opacity="0.06" d="M216.125 129.537H211.899V139.812H216.125V129.537Z" fill="#52738A"/>
</g>
<g opacity="0.06">
<path opacity="0.06" d="M168.535 143.174H164.308V153.449H168.535V143.174Z" fill="#B5CFE8"/>
<path opacity="0.06" d="M175.701 143.174H171.474V153.449H175.701V143.174Z" fill="#B5CFE8"/>
<path opacity="0.06" d="M183.05 143.174H178.824V153.449H183.05V143.174Z" fill="#B5CFE8"/>
<path opacity="0.06" d="M190.217 143.174H185.991V153.449H190.217V143.174Z" fill="#B5CFE8"/>
<path opacity="0.06" d="M197.383 143.174H193.156V153.449H197.383V143.174Z" fill="#B5CFE8"/>
<path opacity="0.06" d="M204.733 143.174H200.507V153.449H204.733V143.174Z" fill="#B5CFE8"/>
<path opacity="0.06" d="M216.125 143.174H211.899V153.449H216.125V143.174Z" fill="#52738A"/>
</g>
<g opacity="0.06">
<path opacity="0.06" d="M168.535 156.812H164.308V167.086H168.535V156.812Z" fill="#B5CFE8"/>
<path opacity="0.06" d="M175.701 156.812H171.474V167.086H175.701V156.812Z" fill="#B5CFE8"/>
<path opacity="0.06" d="M183.05 156.812H178.824V167.086H183.05V156.812Z" fill="#B5CFE8"/>
<path opacity="0.06" d="M190.217 156.812H185.991V167.086H190.217V156.812Z" fill="#B5CFE8"/>
<path opacity="0.06" d="M197.383 156.812H193.156V167.086H197.383V156.812Z" fill="#B5CFE8"/>
<path opacity="0.06" d="M204.733 156.812H200.507V167.086H204.733V156.812Z" fill="#B5CFE8"/>
<path opacity="0.06" d="M216.125 156.812H211.899V167.086H216.125V156.812Z" fill="#52738A"/>
</g>
<g opacity="0.06">
<path opacity="0.06" d="M168.535 170.449H164.308V180.724H168.535V170.449Z" fill="#B5CFE8"/>
<path opacity="0.06" d="M175.701 170.449H171.474V180.723H175.701V170.449Z" fill="#B5CFE8"/>
<path opacity="0.06" d="M183.05 170.449H178.824V180.723H183.05V170.449Z" fill="#B5CFE8"/>
<path opacity="0.06" d="M190.217 170.449H185.991V180.723H190.217V170.449Z" fill="#B5CFE8"/>
<path opacity="0.06" d="M197.383 170.449H193.156V180.723H197.383V170.449Z" fill="#B5CFE8"/>
<path opacity="0.06" d="M204.733 170.449H200.507V180.723H204.733V170.449Z" fill="#B5CFE8"/>
<path opacity="0.06" d="M216.125 170.449H211.899V180.723H216.125V170.449Z" fill="#52738A"/>
</g>
<g opacity="0.06">
<path opacity="0.06" d="M168.535 183.899H164.308V194.173H168.535V183.899Z" fill="#B5CFE8"/>
<path opacity="0.06" d="M175.701 183.899H171.474V194.173H175.701V183.899Z" fill="#B5CFE8"/>
<path opacity="0.06" d="M183.05 183.899H178.824V194.173H183.05V183.899Z" fill="#B5CFE8"/>
<path opacity="0.06" d="M190.217 183.899H185.991V194.173H190.217V183.899Z" fill="#B5CFE8"/>
<path opacity="0.06" d="M197.383 183.899H193.156V194.173H197.383V183.899Z" fill="#B5CFE8"/>
<path opacity="0.06" d="M204.733 183.899H200.507V194.173H204.733V183.899Z" fill="#B5CFE8"/>
<path opacity="0.06" d="M216.125 183.899H211.899V194.173H216.125V183.899Z" fill="#52738A"/>
</g>
<g opacity="0.06">
<path opacity="0.06" d="M168.535 197.536H164.308V207.811H168.535V197.536Z" fill="#B5CFE8"/>
<path opacity="0.06" d="M175.701 197.536H171.474V207.811H175.701V197.536Z" fill="#B5CFE8"/>
<path opacity="0.06" d="M183.05 197.536H178.824V207.811H183.05V197.536Z" fill="#B5CFE8"/>
<path opacity="0.06" d="M190.217 197.536H185.991V207.811H190.217V197.536Z" fill="#B5CFE8"/>
<path opacity="0.06" d="M197.383 197.536H193.156V207.811H197.383V197.536Z" fill="#B5CFE8"/>
<path opacity="0.06" d="M204.733 197.536H200.507V207.811H204.733V197.536Z" fill="#B5CFE8"/>
<path opacity="0.06" d="M216.125 197.536H211.899V207.811H216.125V197.536Z" fill="#52738A"/>
</g>
<path opacity="0.7" d="M178.824 130.658H183.051V129.537H178.824V130.658ZM171.474 130.658H175.701V129.537H171.474V130.658ZM211.899 129.537V130.658H216.125V129.537H211.899ZM164.308 130.658H168.535V129.537H164.308V130.658ZM185.991 130.658H190.217V129.537H185.991V130.658ZM200.507 130.658H204.733V129.537H200.507V130.658ZM193.157 130.658H197.383V129.537H193.157V130.658Z" fill="#B5CFE8"/>
<path opacity="0.7" d="M185.991 144.295H190.217V143.174H185.991V144.295ZM178.824 144.295H183.051V143.174H178.824V144.295ZM171.474 144.295H175.701V143.174H171.474V144.295ZM164.308 144.295H168.535V143.174H164.308V144.295ZM211.899 143.174V144.295H216.125V143.174H211.899ZM193.157 144.295H197.383V143.174H193.157V144.295ZM200.507 144.295H204.733V143.174H200.507V144.295Z" fill="#B5CFE8"/>
<path opacity="0.7" d="M171.474 157.745H175.701V156.625H171.474V157.745ZM178.824 157.745H183.051V156.625H178.824V157.745ZM164.308 157.745H168.535V156.625H164.308V157.745ZM200.507 157.745H204.733V156.625H200.507V157.745ZM211.899 156.811V157.932H216.125V156.811H211.899ZM185.991 157.745H190.217V156.625H185.991V157.745ZM193.157 157.745H197.383V156.625H193.157V157.745Z" fill="#B5CFE8"/>
<path opacity="0.7" d="M171.474 171.383H175.701V170.449H171.474V171.383ZM185.991 171.383H190.217V170.449H185.991V171.383ZM164.308 171.383H168.535V170.449H164.308V171.383ZM178.824 171.383H183.051V170.449H178.824V171.383ZM211.899 170.449V171.57H216.125V170.449H211.899ZM200.507 171.383H204.733V170.449H200.507V171.383ZM193.157 171.383H197.383V170.449H193.157V171.383Z" fill="#B5CFE8"/>
<path opacity="0.7" d="M171.474 185.02H175.701V183.899H171.474V185.02ZM178.824 185.02H183.051V183.899H178.824V185.02ZM164.308 185.02H168.535V183.899H164.308V185.02ZM185.991 185.02H190.217V183.899H185.991V185.02ZM211.899 183.899V185.02H216.125V183.899H211.899ZM193.157 185.02H197.383V183.899H193.157V185.02ZM200.507 185.02H204.733V183.899H200.507V185.02Z" fill="#B5CFE8"/>
<path opacity="0.7" d="M178.824 198.657H183.051V197.536H178.824V198.657ZM185.991 198.657H190.217V197.536H185.991V198.657ZM164.308 198.657H168.535V197.536H164.308V198.657ZM171.474 198.657H175.701V197.536H171.474V198.657ZM211.899 197.536V198.657H216.125V197.536H211.899ZM200.507 198.657H204.733V197.536H200.507V198.657ZM193.157 198.657H197.383V197.536H193.157V198.657Z" fill="#B5CFE8"/>
<path opacity="0.7" d="M219.616 125.801H161.736V130.284H219.616V125.801Z" fill="#B5CFE8"/>
<path opacity="0.06" d="M222.74 121.691H158.429V127.482H222.74V121.691Z" fill="#D7EAF0"/>
</g>
<g opacity="0.06">
<g opacity="0.06">
<g opacity="0.06">
<path opacity="0.06" d="M50.7528 93.8569H49.4666V120.01H50.7528V93.8569Z" fill="#D7EAF0"/>
<path opacity="0.06" d="M50.753 93.8567H50.3855V120.01H50.753V93.8567Z" fill="#7FA9B5"/>
</g>
<g opacity="0.06">
<path opacity="0.06" d="M82.7246 110.857H55.8975V119.637H82.7246V110.857Z" fill="#D7EAF0"/>
<path opacity="0.06" d="M82.541 110.857H75.0073V119.637H82.541V110.857Z" fill="#7FA9B5"/>
<path opacity="0.06" d="M66.5549 113.659H63.0637V119.637H66.5549V113.659Z" fill="#7FA9B5"/>
<path opacity="0.06" d="M63.9825 113.659H63.0637V119.637H63.9825V113.659Z" fill="#B8D9DE"/>
</g>
<g opacity="0.06">
<path opacity="0.06" d="M98.1597 127.483H25.3958V134.395H98.1597V127.483Z" fill="#66929B"/>
<path opacity="0.06" d="M98.1594 141.867H25.3955V148.779H98.1594V141.867Z" fill="#66929B"/>
<path opacity="0.06" d="M98.1594 156.064H25.3955V162.976H98.1594V156.064Z" fill="#66929B"/>
<path opacity="0.06" d="M98.1594 170.449H25.3955V177.361H98.1594V170.449Z" fill="#66929B"/>
<path opacity="0.06" d="M98.1594 184.646H25.3955V191.558H98.1594V184.646Z" fill="#66929B"/>
<path opacity="0.06" d="M98.1594 199.031H25.3955V205.943H98.1594V199.031Z" fill="#66929B"/>
<path opacity="0.06" d="M98.1594 213.228H25.3955V220.14H98.1594V213.228Z" fill="#66929B"/>
<path opacity="0.06" d="M98.1594 227.613H25.3955V234.525H98.1594V227.613Z" fill="#66929B"/>
</g>
<path opacity="0.06" d="M99.6297 191.558H23.9258V198.844H99.6297V191.558Z" fill="#D7EAF0"/>
<path opacity="0.06" d="M99.6297 119.263H23.9258V127.483H99.6297V119.263Z" fill="#D7EAF0"/>
<path opacity="0.06" d="M99.6297 177.361H23.9258V184.646H99.6297V177.361Z" fill="#D7EAF0"/>
<path opacity="0.06" d="M99.6297 205.943H23.9258V213.229H99.6297V205.943Z" fill="#D7EAF0"/>
<path opacity="0.06" d="M99.6297 220.14H23.9258V227.426H99.6297V220.14Z" fill="#D7EAF0"/>
<path opacity="0.06" d="M99.6297 134.582H23.9258V141.867H99.6297V134.582Z" fill="#D7EAF0"/>
<path opacity="0.06" d="M99.6297 162.977H23.9258V170.262H99.6297V162.977Z" fill="#D7EAF0"/>
<path opacity="0.06" d="M99.6297 234.525H23.9258V253.953H99.6297V234.525Z" fill="#B8C7D6"/>
<path opacity="0.06" d="M99.6297 148.779H23.9258V156.064H99.6297V148.779Z" fill="#D7EAF0"/>
<path opacity="0.06" d="M99.6298 220.14H82.7251V227.426H99.6298V220.14Z" fill="#7FA9B5"/>
<path opacity="0.06" d="M99.6298 119.263H82.7251V127.483H99.6298V119.263Z" fill="#7FA9B5"/>
<path opacity="0.06" d="M99.6298 191.558H82.7251V198.844H99.6298V191.558Z" fill="#7FA9B5"/>
<path opacity="0.06" d="M99.6298 177.361H82.7251V184.646H99.6298V177.361Z" fill="#7FA9B5"/>
<path opacity="0.06" d="M99.6298 205.943H82.7251V213.229H99.6298V205.943Z" fill="#7FA9B5"/>
<path opacity="0.6" d="M99.6298 234.525H82.7251V253.953H99.6298V234.525Z" fill="#7FA9B5"/>
<path opacity="0.06" d="M99.6298 134.582H82.7251V141.867H99.6298V134.582Z" fill="#7FA9B5"/>
<path opacity="0.06" d="M99.6298 148.779H82.7251V156.064H99.6298V148.779Z" fill="#7FA9B5"/>
<path opacity="0.06" d="M99.6298 162.977H82.7251V170.262H99.6298V162.977Z" fill="#7FA9B5"/>
</g>
<g opacity="0.06">
<path opacity="0.06" d="M54.6115 241.623H50.5691V253.953H54.6115V241.623Z" fill="#52738A"/>
<path opacity="0.06" d="M59.9401 241.623H55.8977V253.953H59.9401V241.623Z" fill="#52738A"/>
<path opacity="0.06" d="M61.0426 240.315H49.4666V243.491H61.0426V240.315Z" fill="#D7EAF0"/>
</g>
</g>
</g>
<path d="M261.538 244.351C261.538 244.351 260.326 245.584 260.326 246.076C260.326 246.569 260.326 251.498 260.811 251.991C261.296 252.484 262.75 252.73 262.265 253.223C262.023 253.716 259.114 253.469 257.175 253.469C256.69 253.469 255.963 249.034 255.721 248.294C255.478 247.309 254.266 245.337 254.509 244.598C254.751 244.351 255.721 243.612 256.69 242.873C257.66 242.134 258.629 240.655 258.629 240.655L261.538 244.351Z" fill="#FFC6BD"/>
<path d="M278.263 247.555L277.051 250.759C277.051 251.252 276.566 252.484 276.566 252.977C276.566 254.702 284.322 251.498 282.626 250.759C282.383 250.759 281.898 250.02 281.898 249.527C281.898 248.541 282.626 247.555 282.626 247.555H278.263Z" fill="#FFC6BD"/>
<path d="M288.928 185.948L291.594 193.341C291.594 193.341 293.291 210.838 292.321 221.188C291.836 225.623 282.383 249.034 282.383 249.034L277.535 248.295L283.838 220.448L281.414 209.852L278.02 188.905L288.928 185.948Z" fill="#211E27"/>
<path d="M275.839 186.193L273.415 194.326L269.779 218.968L257.417 241.886C257.417 241.886 259.356 244.843 261.295 245.336L278.747 222.172L288.201 193.093L287.958 186.686L275.839 186.193Z" fill="#1C1921"/>
<path d="M294.988 182.744C293.776 179.787 291.837 174.858 291.594 174.612L289.655 163.03L283.838 162.291C283.838 162.291 286.262 174.858 286.504 175.598C286.747 176.091 291.837 186.687 294.018 190.383C294.018 187.919 294.261 185.208 294.988 182.744Z" fill="#F8A492"/>
<path d="M291.594 171.902L284.808 172.641C284.808 172.641 284.565 166.973 284.565 164.262C284.565 161.059 285.05 156.87 285.535 156.87C286.504 157.116 287.959 157.609 288.686 158.841C291.594 163.03 291.594 171.902 291.594 171.902Z" fill="#D9F9F7"/>
<path d="M256.69 242.873C256.69 242.873 259.356 251.005 260.326 251.498C260.568 251.498 262.265 251.991 262.507 252.73C262.507 253.223 262.265 253.469 261.78 253.469H256.448C256.448 253.469 255.72 249.773 255.478 248.295C255.478 248.295 253.781 244.352 254.024 244.105C254.508 243.612 256.69 242.873 256.69 242.873Z" fill="#454745"/>
<path d="M276.323 253.47L277.293 250.512C277.293 250.512 279.232 251.252 280.202 251.252C281.171 251.005 282.868 250.512 282.868 250.512C286.504 251.745 289.655 252.484 288.928 253.47H276.323Z" fill="#454745"/>
<path d="M276.566 156.377C276.566 156.377 272.93 156.87 271.96 157.609C270.991 158.348 267.597 162.045 267.597 162.045C267.597 162.045 274.384 182.005 274.142 185.455C273.9 188.905 273.172 194.327 273.172 194.327C273.172 194.327 286.504 195.066 291.594 193.095C291.594 193.095 289.897 184.962 289.897 182.991C289.897 180.773 288.928 159.827 288.443 158.595C287.716 157.609 286.504 156.87 284.08 156.377C281.656 155.884 276.566 156.377 276.566 156.377Z" fill="#DEFFFE"/>
<path d="M263.234 169.191L269.294 173.873C269.294 173.873 271.96 171.409 273.172 168.451C274.627 165.494 274.142 156.869 272.688 157.116C269.536 158.101 263.234 169.191 263.234 169.191Z" fill="#D9F9F7"/>
<path d="M276.566 156.376L279.717 158.594L278.262 161.305L275.596 156.623L276.566 156.376Z" fill="#BFD8D8"/>
<path d="M279.717 158.595L280.929 162.538L281.172 159.088L280.929 158.841L279.717 155.391V158.595Z" fill="#FFC6BD"/>
<path d="M280.444 161.305L282.867 194.327H284.079L280.928 161.552V162.784L280.444 161.305Z" fill="#BFD8D8"/>
<path d="M282.625 156.13L280.686 158.594L282.383 160.319L283.353 156.377L282.625 156.13Z" fill="#BFD8D8"/>
<path d="M287.473 167.219H283.595V167.959H287.473V167.219Z" fill="white"/>
<path d="M292.321 169.684L289.412 169.93V171.901L292.321 171.655V169.684Z" fill="#BFD8D8"/>
<path d="M280.687 159.827C279.475 160.073 277.778 157.855 276.809 156.377C276.809 156.377 277.051 155.145 277.051 153.666C277.051 152.927 277.293 151.941 277.293 150.955C277.293 150.709 282.868 152.434 282.868 152.434C282.868 152.434 282.141 154.159 282.141 155.884C282.141 156.13 282.141 156.13 282.141 156.13C282.626 157.116 281.899 159.58 280.687 159.827Z" fill="#F8A492"/>
<path d="M282.384 156.377C282.141 156.377 281.899 156.377 281.899 156.377C278.505 156.13 277.778 152.187 277.778 151.202C278.748 151.448 283.111 152.68 283.111 152.68C283.111 152.68 282.384 154.405 282.384 156.13C282.384 156.13 282.384 156.13 282.384 156.377Z" fill="#EF8978"/>
<path d="M276.566 144.548C276.081 146.519 277.535 152.187 278.989 153.173C281.171 154.898 284.564 154.898 286.019 152.187C287.473 149.723 285.292 142.577 283.595 141.591C281.171 140.112 277.05 141.591 276.566 144.548Z" fill="#F8A492"/>
<path d="M282.141 147.506C282.141 147.998 282.383 148.245 281.898 148.491C282.383 148.491 282.383 147.752 282.141 147.506Z" fill="#75271A"/>
<path d="M281.655 147.259C280.928 147.259 281.171 148.491 281.898 148.491C282.625 148.245 282.383 147.013 281.655 147.259Z" fill="#75271A"/>
<path d="M284.322 147.012C284.322 147.505 284.565 147.752 285.049 147.998C284.565 147.998 284.322 147.505 284.322 147.012Z" fill="#75271A"/>
<path d="M284.564 146.52C285.291 146.274 285.534 147.506 284.807 147.752C284.322 147.999 284.08 146.766 284.564 146.52Z" fill="#75271A"/>
<path d="M281.171 146.766C281.414 146.766 281.414 146.519 281.656 146.519C281.898 146.519 281.898 146.273 282.141 146.273V146.026C281.898 145.78 281.656 146.026 281.414 146.026C281.171 146.273 280.929 146.273 280.929 146.519C280.686 146.519 280.929 146.766 281.171 146.766Z" fill="#75271A"/>
<path d="M284.807 145.78C284.565 145.78 284.565 145.78 284.322 145.78C284.08 145.78 283.838 145.78 283.838 145.534V145.287C284.08 145.041 284.322 145.041 284.565 145.041C284.807 145.041 285.05 145.041 285.292 145.287C285.292 145.534 285.05 145.78 284.807 145.78Z" fill="#75271A"/>
<path d="M282.383 150.955C282.383 150.955 282.625 151.201 282.868 151.201C283.11 151.201 283.11 151.201 283.352 150.955C283.352 151.201 283.11 151.201 282.868 151.201C282.625 151.448 282.625 151.201 282.383 150.955Z" fill="#75271A"/>
<path d="M282.626 149.723C282.868 149.97 283.353 150.216 283.595 150.216C283.838 150.216 283.838 150.216 284.08 150.216C284.08 149.97 283.838 149.477 283.838 149.477C283.838 149.477 284.565 149.723 284.565 149.477C284.322 148.245 283.838 146.766 283.111 145.781C283.353 147.013 283.838 148.245 284.08 149.231C283.838 149.231 283.595 149.231 283.353 149.231C283.353 149.231 283.595 149.97 283.595 150.216C283.595 150.216 283.353 149.97 282.626 149.723Z" fill="#75271A"/>
<path d="M283.838 149.97C283.838 149.97 283.595 150.463 283.353 150.463C283.11 150.463 283.11 150.463 282.868 150.463C282.626 150.463 282.383 150.216 282.383 149.97C282.383 149.723 282.383 149.477 282.383 149.477C282.383 149.477 283.11 150.216 283.838 149.97Z" fill="#75271A"/>
<path d="M283.352 150.709C283.11 150.709 283.11 150.709 282.868 150.709C282.625 150.709 282.383 150.462 282.383 150.216C282.868 150.216 283.352 150.216 283.352 150.709Z" fill="#FF98B9"/>
<path d="M284.806 143.316C284.564 142.823 284.079 142.33 283.837 142.33C283.594 142.33 283.352 143.07 282.867 143.316C281.897 143.562 281.413 142.823 279.958 143.07C278.019 143.316 277.534 145.041 278.019 147.505C278.504 149.723 277.05 150.216 277.05 150.216C277.05 150.216 275.111 145.287 276.323 143.562C277.535 141.591 280.686 140.112 283.109 141.345C284.321 141.591 284.806 143.316 284.806 143.316Z" fill="#75271A"/>
<path d="M278.263 148.984C278.263 148.984 276.809 147.259 276.081 147.752C275.354 148.245 276.566 150.709 277.536 151.202C278.505 151.448 278.748 150.463 278.748 150.463L278.263 148.984Z" fill="#F8A492"/>
<path d="M276.323 148.491C277.051 148.737 277.535 149.23 277.778 149.97C277.535 149.723 277.293 149.723 276.808 149.97C277.051 149.97 277.293 149.97 277.535 150.216C277.778 150.462 277.778 150.462 278.02 150.709C278.02 150.709 278.263 150.709 278.02 150.709C278.02 149.723 277.293 148.491 276.323 148.491Z" fill="#75271A"/>
<path d="M284.564 142.084C284.079 142.084 280.928 142.823 279.716 143.563C278.504 144.302 276.323 146.766 276.323 146.766C276.323 146.766 274.626 142.084 278.504 140.606C282.625 138.881 284.564 142.084 284.564 142.084Z" fill="#359591"/>
<path d="M276.566 146.766C276.566 146.766 278.505 142.823 279.959 141.837C281.171 140.852 284.565 139.619 286.746 140.112C288.443 140.605 285.05 143.316 285.05 143.316C285.05 143.316 284.807 142.823 284.322 142.576C283.353 142.33 281.414 143.069 280.444 143.562C278.747 144.301 276.566 146.766 276.566 146.766Z" fill="#FFC727"/>
<path d="M276.566 146.766C276.566 146.766 278.505 142.823 279.959 141.837C281.171 140.852 284.565 139.619 286.746 140.112C288.443 140.605 285.05 143.316 285.05 143.316C285.05 143.316 284.807 142.823 284.322 142.576C283.353 142.33 281.414 143.069 280.444 143.562C278.747 144.301 276.566 146.766 276.566 146.766Z" fill="#6CC8C1"/>
<path d="M295.715 179.295H268.81V202.952H295.715V179.295Z" fill="#E8E8E9"/>
<path d="M295.714 179.295H285.534V202.952H295.714V179.295Z" fill="#DADADC"/>
<path d="M276.082 197.284C275.597 196.298 274.627 194.573 274.627 194.573C273.658 193.587 258.63 180.28 259.599 178.062C259.842 177.323 264.689 168.205 264.689 168.205L269.537 171.902L265.659 178.802C266.144 179.295 274.627 189.891 274.627 189.891C274.627 189.891 277.051 192.602 277.294 192.848C277.536 192.848 277.778 192.848 279.717 193.341C280.202 193.587 280.929 194.08 280.929 194.08C280.929 194.08 281.657 194.82 281.657 195.066C281.657 195.312 281.172 195.312 281.172 195.312C280.929 195.312 280.687 194.82 280.445 194.82C280.202 194.82 279.717 195.066 279.475 195.066C279.475 195.066 280.202 196.052 281.172 196.791C281.414 197.037 281.657 197.53 281.414 198.023C281.414 198.27 281.172 198.023 281.172 198.516C280.929 198.762 280.687 199.009 280.445 199.255C280.202 199.502 279.96 199.995 279.717 200.241C279.475 200.487 278.99 200.487 278.748 200.241C278.263 199.748 278.021 199.502 278.021 199.502C277.536 199.009 276.566 198.27 276.082 197.284Z" fill="#F8A492"/>
<path d="M264.204 167.219L262.75 169.437L269.294 174.612L270.749 172.641L264.204 167.219Z" fill="#BFD8D8"/>
<path d="M290.566 257H34.434C33.1234 257 32 256.5 32 256C32 255.5 33.1234 255 34.434 255H290.566C291.877 255 293 255.5 293 256C293 256.625 292.064 257 290.566 257Z" fill="#5C8097"/>
<path d="M240.467 233.277L237.439 236.234C237.439 236.234 236.274 235.002 233.945 234.755C231.615 234.509 198.536 237.466 198.536 237.466C198.536 237.466 194.11 236.727 192.479 236.234C190.848 235.741 79.031 234.755 79.031 234.755L77.6333 236.48C77.6333 236.48 75.3037 234.755 71.8094 234.262C68.3152 233.769 37.0994 232.044 37.0994 232.044C37.0994 232.044 35.2358 233.769 34.0711 233.277C32.9063 232.784 28.7131 228.841 28.7131 228.841L33.1392 205.677L61.3266 201.241L96.7354 199.516L200.632 203.212L239.536 205.43L242.564 222.68L240.467 233.277Z" fill="black"/>
<path d="M218.57 188.427C218.57 188.427 219.269 185.716 219.036 185.716C218.803 185.47 212.513 183.252 211.814 182.759C211.115 182.266 184.559 155.652 179.667 156.145C174.775 156.638 184.093 173.395 184.093 173.395L212.746 191.63L218.57 188.427Z" fill="#99E2E9"/>
<path d="M9.14505 219.723C9.14505 219.723 5.18485 220.462 5.18485 222.434C5.18485 224.405 2.85531 232.044 14.7359 231.305C26.3836 230.812 15.6677 218.737 9.14505 219.723Z" fill="#2E2E2E"/>
<path d="M242.331 197.545L244.427 198.777C244.427 198.777 246.99 204.938 246.99 207.402C246.99 209.866 246.99 217.013 246.524 217.752C246.058 218.491 242.331 218.245 242.331 218.245L239.07 217.752C239.07 217.752 239.768 199.023 242.331 197.545Z" fill="white"/>
<path d="M12.8727 183.251C12.4068 181.773 16.8329 166.741 16.8329 166.741H13.3386C14.5034 162.551 16.134 158.855 17.9977 156.637C17.9977 156.637 18.6965 151.216 31.043 152.448L68.0825 151.708L153.11 152.694C153.11 152.694 178.269 151.709 183.161 157.376L212.513 186.455C212.513 186.455 218.337 187.441 219.269 185.223L243.729 196.558C243.729 196.558 244.661 196.805 244.894 198.53C244.894 198.53 242.331 199.023 242.098 201.734C241.865 204.444 241.633 217.012 242.331 217.259C243.03 217.505 246.99 217.259 247.223 216.519C247.223 216.519 247.456 217.012 246.99 217.505C246.525 217.998 245.127 218.244 244.195 218.491C243.263 218.491 234.411 218.737 234.411 218.737C234.411 218.737 227.189 208.634 214.843 210.851C202.263 212.823 198.303 220.216 196.44 226.869C194.576 233.523 194.576 236.48 192.014 236.726C189.451 236.973 77.8666 236.726 77.8666 236.726C77.8666 236.726 76.2359 234.262 76.7018 233.03C77.1677 231.551 76.7018 206.909 54.5713 208.387C32.4407 210.112 34.0714 233.276 34.0714 233.276L12.6397 231.305C12.6397 231.305 11.475 229.826 11.475 227.855C11.475 225.637 11.475 221.201 11.475 221.201C11.475 221.201 8.21362 222.187 8.21362 218.984V202.473C8.21362 202.473 8.44657 193.355 10.0772 183.005H12.8727V183.251Z" fill="#359591"/>
<path d="M191.78 172.162C191.78 172.162 182.694 162.305 180.598 161.319C178.501 160.087 175.473 157.623 170.115 157.623C164.99 157.623 160.331 157.13 160.331 157.13H154.74C154.74 157.13 153.109 156.884 152.877 158.362C152.411 159.841 152.877 183.252 152.877 183.252C152.877 183.252 152.877 184.73 153.575 184.977C154.507 185.223 190.615 185.716 190.615 185.716L191.78 172.162Z" fill="#99E2E9"/>
<path d="M245.36 216.273C245.36 216.273 251.882 217.505 251.882 219.969C251.882 222.434 251.882 232.044 251.882 232.044C251.882 232.044 250.95 236.234 246.757 236.234C242.331 236.48 237.439 236.234 237.439 236.234C237.439 236.234 240.235 221.694 233.945 218.984C232.78 218.491 245.36 216.273 245.36 216.273Z" fill="#393B3A"/>
<path d="M12.8719 183.252H9.84351C10.5424 177.584 11.7071 171.67 13.1048 166.741H16.5991C16.5991 166.741 12.406 181.773 12.8719 183.252Z" fill="#BA1F25"/>
<path d="M216.474 256.194C226.895 256.194 235.343 247.258 235.343 236.234C235.343 225.21 226.895 216.273 216.474 216.273C206.053 216.273 197.605 225.21 197.605 236.234C197.605 247.258 206.053 256.194 216.474 256.194Z" fill="#27262C"/>
<path d="M216.241 251.512C224.217 251.512 230.684 244.672 230.684 236.234C230.684 227.796 224.217 220.955 216.241 220.955C208.264 220.955 201.798 227.796 201.798 236.234C201.798 244.672 208.264 251.512 216.241 251.512Z" fill="#C3BFBE"/>
<path d="M221.366 226.129L218.105 230.072C218.105 230.072 217.639 231.058 216.707 231.058C216.008 231.058 215.31 230.319 215.31 230.319L211.815 226.129C211.815 226.129 211.349 225.637 211.815 225.144C212.281 224.651 213.912 224.158 216.241 224.158C218.571 224.158 222.065 224.651 221.366 226.129Z" fill="#27262C"/>
<path d="M221.366 246.337L218.105 242.394C218.105 242.394 217.639 241.408 216.707 241.408C216.008 241.408 215.31 242.147 215.31 242.147L211.815 246.337C211.815 246.337 211.349 246.83 211.815 247.323C212.281 247.815 213.912 248.308 216.241 248.308C218.571 248.555 222.065 247.815 221.366 246.337Z" fill="#27262C"/>
<path d="M206.689 231.305L210.417 234.755C210.417 234.755 211.349 235.247 211.349 236.233C211.349 236.972 210.65 237.712 210.65 237.712L206.689 241.408C206.689 241.408 206.224 241.901 205.758 241.408C205.292 240.915 204.826 239.19 204.826 236.726C204.593 234.015 205.292 230.319 206.689 231.305Z" fill="#27262C"/>
<path d="M225.792 231.305L222.065 234.755C222.065 234.755 221.133 235.247 221.133 236.233C221.133 236.972 221.832 237.712 221.832 237.712L225.792 241.408C225.792 241.408 226.258 241.901 226.724 241.408C227.19 240.915 227.656 239.19 227.656 236.726C227.656 234.015 227.19 230.319 225.792 231.305Z" fill="#27262C"/>
<path d="M54.5713 254.962C64.9925 254.962 73.4405 246.026 73.4405 235.002C73.4405 223.978 64.9925 215.041 54.5713 215.041C44.1502 215.041 35.7021 223.978 35.7021 235.002C35.7021 246.026 44.1502 254.962 54.5713 254.962Z" fill="#27262C"/>
<path d="M54.571 250.28C62.5477 250.28 69.0141 243.44 69.0141 235.001C69.0141 226.563 62.5477 219.723 54.571 219.723C46.5943 219.723 40.1279 226.563 40.1279 235.001C40.1279 243.44 46.5943 250.28 54.571 250.28Z" fill="#C3BFBE"/>
<path d="M59.6952 224.897L56.4338 228.84C56.4338 228.84 55.9679 229.826 55.0361 229.826C54.3372 229.826 53.6384 229.087 53.6384 229.087L50.1441 224.897C50.1441 224.897 49.6782 224.405 50.1441 223.912C50.61 223.419 52.2407 222.926 54.5702 222.926C56.8997 222.926 60.394 223.419 59.6952 224.897Z" fill="#27262C"/>
<path d="M59.6952 245.105L56.4338 241.162C56.4338 241.162 55.9679 240.177 55.0361 240.177C54.3372 240.177 53.6384 240.916 53.6384 240.916L50.1441 245.105C50.1441 245.105 49.6782 245.598 50.1441 246.091C50.61 246.584 52.2407 247.077 54.5702 247.077C56.8997 247.323 60.394 246.584 59.6952 245.105Z" fill="#27262C"/>
<path d="M44.787 230.073L48.5142 233.523C48.5142 233.523 49.446 234.016 49.446 235.001C49.446 235.741 48.7472 236.48 48.7472 236.48L44.787 240.176C44.787 240.176 44.3211 240.669 43.8551 240.176C43.3892 239.684 42.9233 237.959 42.9233 235.494C42.9233 232.784 43.6222 229.087 44.787 230.073Z" fill="#27262C"/>
<path d="M64.122 230.073L60.3947 233.523C60.3947 233.523 59.4629 234.016 59.4629 235.001C59.4629 235.741 60.1617 236.48 60.1617 236.48L64.122 240.176C64.122 240.176 64.5879 240.669 65.0538 240.176C65.5197 239.684 65.9856 237.959 65.9856 235.494C65.9856 232.784 65.2867 229.087 64.122 230.073Z" fill="#27262C"/>
<path d="M146.821 234.509H189.684C191.315 234.509 191.78 233.77 191.78 233.523C192.013 232.291 192.712 230.073 193.877 227.116C195.741 221.941 198.303 214.795 199.002 208.88C200.167 199.516 198.536 172.902 198.536 172.655H198.07C198.07 172.902 199.701 199.516 198.536 208.88C197.837 214.795 195.275 221.941 193.411 227.116C192.479 230.073 191.548 232.291 191.315 233.523C191.315 233.523 190.849 234.016 189.684 234.016H147.053C146.821 233.77 146.122 233.277 146.122 232.538C146.122 231.305 146.821 153.68 146.821 152.941H146.355C146.355 153.68 145.656 231.552 145.656 232.538C145.656 233.77 146.821 234.263 146.821 234.509Z" fill="#7FD6CB"/>
<path d="M187.121 183.745C187.121 185.47 188.519 186.948 190.149 186.948C191.78 186.948 193.178 185.47 193.178 183.745V174.627C193.178 172.902 191.78 171.423 190.149 171.423C188.519 171.423 187.121 172.902 187.121 174.627V183.745Z" fill="#D8D8D6"/>
<path d="M147.752 197.298C147.752 198.777 148.684 199.762 150.081 199.762H150.314C151.712 199.762 152.644 198.777 152.644 197.298V190.891C152.644 189.412 151.479 188.18 150.314 188.18H150.081C148.684 188.18 147.752 189.412 147.752 190.891V197.298Z" fill="#D8D8D6"/>
<path d="M148.917 196.805C148.917 197.298 149.383 197.545 149.616 197.545C150.082 197.545 150.314 197.052 150.314 196.805V190.152C150.314 189.659 149.849 189.412 149.616 189.412C149.15 189.412 148.917 189.905 148.917 190.152V196.805Z" fill="white"/>
<path d="M16.3665 184.73L22.1903 164.769C23.1221 162.059 24.0539 160.334 26.6164 160.334H135.871C138.434 160.334 140.53 162.305 140.53 164.769V184.73C140.53 187.194 138.434 189.659 135.871 189.659H20.7926C18.463 189.659 16.3665 187.441 16.3665 184.73ZM26.6164 161.073C24.5198 161.073 23.588 162.552 22.6562 165.262L16.8324 184.977C16.8324 187.194 18.696 189.166 20.7926 189.166H135.871C137.968 189.166 140.065 187.194 140.065 184.73V164.769C140.065 162.552 138.201 160.827 135.871 160.827H26.6164V161.073Z" fill="#7FD6CB"/>
<path d="M186.189 182.512C186.189 184.237 187.587 185.716 189.217 185.716C190.848 185.716 192.246 184.237 192.246 182.512V173.394C192.246 171.669 190.848 170.191 189.217 170.191C187.587 170.191 186.189 171.669 186.189 173.394V182.512Z" fill="#E5E5E3"/>
<path d="M151.7 21.4C145.8 21.4 141 16.6 141 10.7C141 4.8 145.8 0 151.7 0C157.6 0 162.4 4.8 162.4 10.7C162.4 16.6 157.6 21.4 151.7 21.4ZM151.7 0.400002C146 0.400002 141.4 5 141.4 10.7C141.4 16.4 146 21 151.7 21C157.4 21 162 16.4 162 10.7C162 5 157.4 0.400002 151.7 0.400002Z" fill="#359591"/>
<path d="M139.7 17.7001V8.1001H137.4V4.1001H144.7V17.7001H139.7Z" fill="#359591"/>
<path d="M144.3 4.50005V17.4001H139.9V7.80005H137.7V4.50005H144.3ZM145 3.80005H144.3H137.7H137V4.50005V7.80005V8.50005H137.7H139.2V17.5V18.2001H139.9H144.3H145V17.5V4.50005V3.80005Z" fill="#D7EAF0"/>
</svg>
