<svg width="281" height="265" viewBox="0 0 281 265" fill="none" xmlns="http://www.w3.org/2000/svg">
<path d="M82.3529 112.574C41.8252 138.67 54.8765 177.222 54.8765 177.222C54.8765 177.222 9.19697 184.042 1.98441 218.442C-5.22814 253.138 9.54043 264.703 9.54043 264.703L264.041 265C264.041 265 303.538 169.511 261.98 124.436C220.765 79.9537 123.224 86.4778 82.3529 112.574Z" fill="#FAFFFF"/>
<path d="M169.19 247.755C170.615 249.231 170.33 252.185 170.615 252.185C171.185 252.677 172.326 249.724 172.326 249.724L170.615 244.555C170.615 244.555 167.194 241.602 163.203 237.91C162.063 238.894 160.922 239.879 160.067 241.109C164.058 243.817 167.479 246.278 169.19 247.755Z" fill="#F8A492"/>
<path d="M170.9 244.801C170.9 244.801 171.185 244.309 172.326 244.801C173.466 245.293 176.317 249.231 176.317 249.231L175.462 249.97C175.462 249.97 173.181 247.016 172.896 247.262C172.611 247.508 174.891 250.708 174.606 251.2C174.321 251.693 171.755 254.154 170.9 254.154C170.045 254.154 170.615 251.939 170.615 251.939C170.615 251.939 172.326 250.954 172.326 250.462C172.041 250.216 170.9 244.801 170.9 244.801Z" fill="#09434C"/>
<path d="M150.943 252.923C150.658 254.892 148.092 256.615 148.092 257.107C148.092 257.845 151.228 256.615 151.228 256.615L154.364 251.938C154.364 251.938 154.364 247.754 154.649 242.832C152.939 242.832 151.513 242.832 149.803 243.078C150.658 246.77 151.228 250.708 150.943 252.923Z" fill="#F8A492"/>
<path d="M154.649 251.692C154.649 251.692 155.22 251.446 155.505 252.431C156.075 253.415 154.649 258.092 154.649 258.092H153.509C153.509 258.092 154.364 254.646 154.079 254.646C153.794 254.646 152.654 258.092 152.084 258.338C151.513 258.584 147.522 258.584 146.952 258.092C146.382 257.599 148.663 256.369 148.663 256.369C148.663 256.369 150.658 256.615 150.943 256.369C151.228 256.369 154.649 251.692 154.649 251.692Z" fill="#09434C"/>
<path d="M150.944 193.853L144.102 190.9L144.387 193.361C144.387 193.361 138.115 217.481 139.54 221.173C142.961 229.788 163.488 244.063 163.488 244.063L167.479 240.863C167.479 240.863 151.799 222.158 151.799 218.712C151.799 215.266 156.931 195.084 156.931 195.084L150.944 193.853Z" fill="#EFC700"/>
<path opacity="0.51" d="M151.799 218.958C151.799 215.512 156.93 195.33 156.93 195.33L150.943 194.099L144.101 191.146L144.386 193.607C144.386 193.607 143.531 197.299 142.391 201.976C145.812 203.944 146.097 219.696 148.093 232.003L154.364 224.127C152.654 221.665 151.799 219.943 151.799 218.958Z" fill="#531C2E"/>
<path d="M144.102 190.899C144.102 190.899 144.387 195.084 144.387 195.576C144.387 196.068 150.373 241.355 148.378 248.739H155.505C155.505 248.739 163.202 207.39 163.202 200.498C163.202 193.607 159.496 189.177 159.496 189.177L144.102 190.899Z" fill="#FFDD00"/>
<path d="M159.496 189.177L143.816 190.899C143.816 190.899 144.101 195.084 144.101 195.576C144.101 195.576 144.101 196.314 144.387 197.299C147.523 196.314 151.229 195.084 153.224 194.099C157.215 192.376 158.356 190.407 160.351 190.407C160.066 189.669 159.496 189.177 159.496 189.177Z" fill="#F7604B"/>
<path d="M154.65 155.211C154.65 155.211 156.361 160.38 155.506 163.334C154.65 166.779 151.8 170.717 151.8 170.717L161.207 163.087L158.642 153.489L154.65 155.211Z" fill="#F8A492"/>
<path d="M162.062 161.611C162.062 161.611 154.365 161.857 148.948 166.534C143.532 171.21 143.532 170.964 143.532 172.687C143.532 174.41 142.962 182.286 142.962 186.716C142.962 191.146 142.391 193.853 142.962 193.853C147.808 194.592 155.505 188.931 160.352 189.669C160.352 189.669 164.628 184.008 163.773 181.793C162.918 179.578 164.343 178.101 164.628 174.163C165.198 170.225 166.339 161.611 162.062 161.611Z" fill="#ACF0FD"/>
<path d="M160.067 173.425C162.632 170.225 164.913 164.81 160.637 164.072C160.637 164.072 158.071 170.717 153.795 173.671C151.514 175.148 146.953 176.624 143.247 177.609C143.247 179.824 142.961 182.531 142.961 184.993C147.238 182.777 157.786 176.132 160.067 173.425Z" fill="#69BFDB"/>
<path d="M160.637 163.826C160.637 163.826 156.361 162.841 152.369 165.549C148.378 168.01 141.251 174.902 140.396 174.902C138.685 175.148 133.554 175.148 133.554 175.148C133.554 175.148 132.128 175.886 131.843 180.316C131.843 182.531 139.255 183.516 141.536 183.516C144.102 183.27 157.501 175.886 160.067 172.933C162.918 169.733 164.913 164.81 160.637 163.826Z" fill="#CCF7FF"/>
<path d="M134.124 175.148C134.409 175.148 134.409 175.148 134.694 175.148C135.264 177.855 134.694 180.809 134.124 182.285C133.553 182.039 133.268 181.793 132.698 181.547C132.413 180.07 132.698 178.347 132.698 178.347L134.124 175.148Z" fill="#69BFDB"/>
<path d="M152.37 145.367C152.37 145.367 150.944 146.105 150.089 148.074C149.234 150.043 149.804 158.657 151.8 159.396C153.795 159.888 157.216 158.657 161.208 154.719C165.484 150.289 159.212 142.413 152.37 145.367Z" fill="#F8A492"/>
<path d="M150.374 147.09C150.374 147.09 152.084 147.582 152.369 150.289C152.654 152.997 155.505 153.735 156.645 154.719C157.786 155.95 158.356 158.411 162.062 157.427C165.768 156.442 165.198 153.243 164.343 151.028C163.487 148.812 160.352 145.613 157.501 144.628C154.65 143.398 148.378 144.382 150.374 147.09Z" fill="#75271A"/>
<path d="M159.212 145.367C161.207 146.844 163.203 148.813 163.773 150.536C164.628 152.751 165.198 155.951 161.492 156.935C160.067 157.181 159.212 157.181 158.641 156.935C159.497 157.427 160.352 157.92 162.347 157.427C166.054 156.443 165.483 153.243 164.628 151.028C163.773 149.059 161.492 146.598 159.212 145.367Z" fill="#6D1B11"/>
<path d="M162.633 148.813C162.633 148.813 163.203 150.782 164.628 151.028C166.054 151.274 166.909 151.274 167.194 150.289C167.479 149.551 169.19 149.797 168.334 148.32C167.479 146.844 167.194 145.859 165.768 145.859C164.343 145.859 163.773 146.351 162.633 146.597C161.492 147.09 162.633 148.813 162.633 148.813Z" fill="#75271A"/>
<path d="M133.839 175.886C133.839 175.886 119.869 173.425 117.589 173.179C115.308 172.932 107.326 173.425 107.326 173.917C107.611 174.409 112.742 174.655 112.742 174.901C112.742 174.901 112.172 175.886 112.457 176.378C112.742 176.87 113.027 176.87 113.312 177.363C113.598 177.855 114.168 177.855 114.453 178.101C114.738 178.347 116.163 178.593 117.019 178.347C117.874 178.101 118.159 177.117 119.584 177.117C120.725 177.117 132.698 180.562 132.698 180.562L133.839 175.886Z" fill="#F8A492"/>
<path d="M128.422 180.808C128.422 180.808 132.698 183.024 133.554 182.777C134.124 182.531 135.549 174.901 134.409 174.163C133.554 173.671 130.132 173.917 129.847 174.409C129.562 174.655 127.567 180.316 128.422 180.808Z" fill="#ACF0FD"/>
<path d="M150.167 150.042C150.167 150.042 148.568 154.435 148.568 154.923C148.887 155.167 149.847 154.923 149.847 154.923C149.847 154.923 151.126 154.679 151.126 154.923C151.126 155.167 152.086 154.679 152.086 154.679L152.725 154.435L150.167 150.042Z" fill="#F8A492"/>
<path d="M150.657 152.258C150.657 152.258 150.942 152.258 150.657 152.258C150.657 152.75 150.657 153.242 151.227 153.242C150.657 153.242 150.657 152.504 150.657 152.258Z" fill="#75271A"/>
<path d="M151.226 151.766C152.081 151.766 152.081 152.996 151.226 152.996C150.656 153.242 150.656 151.766 151.226 151.766Z" fill="#75271A"/>
<path d="M151.797 151.273C151.512 151.273 151.512 151.273 151.227 151.027C150.942 151.027 150.942 151.027 150.657 150.781V150.535C150.942 150.289 151.227 150.289 151.512 150.535C151.797 150.535 152.082 150.781 152.082 151.027C152.367 151.027 152.082 151.273 151.797 151.273Z" fill="#75271A"/>
<path d="M152.083 156.934C151.798 156.934 151.798 156.934 151.513 156.934C151.228 156.934 151.228 156.688 151.228 156.688C151.228 156.934 151.513 157.18 151.513 157.18C151.798 157.18 152.083 157.18 152.083 156.934Z" fill="#75271A"/>
<path d="M150.088 154.473C149.802 154.473 148.662 154.719 148.947 154.473C149.232 153.242 149.517 151.765 150.088 150.535C149.802 151.765 149.232 152.996 149.232 154.227C149.517 154.227 149.802 154.227 150.088 154.227" fill="#75271A"/>
<path d="M150.657 155.704C150.657 155.704 150.657 156.196 150.942 156.442C150.942 156.442 151.227 156.688 151.512 156.688C151.797 156.688 152.082 156.442 152.082 156.196C152.082 155.95 152.082 155.704 152.082 155.704C152.082 155.704 151.512 155.95 150.657 155.704Z" fill="#75271A"/>
<path d="M151.228 156.442C151.228 156.442 151.513 156.688 151.798 156.688C152.083 156.688 152.368 156.442 152.368 156.196C151.798 155.949 151.513 155.949 151.228 156.442Z" fill="#FF98B9"/>
<path d="M36.9382 250.671C36.9382 250.671 35.5468 251.864 35.5468 252.342C35.5468 252.819 35.5468 257.832 36.1033 258.309C36.6599 258.787 38.6079 259.025 37.773 259.503C37.2165 259.98 34.1554 259.741 31.9292 259.741C31.3726 259.741 30.5378 255.206 30.2595 254.729C29.9812 253.774 28.5899 251.625 28.8681 251.148C29.1464 250.909 30.2595 250.193 31.3726 249.477C32.4857 248.761 33.5989 247.329 33.5989 247.329L36.9382 250.671Z" fill="#FFC6BD"/>
<path d="M57.4353 253.404L56.0098 256.982C56.0098 257.493 55.4397 258.77 55.4397 259.281C55.4397 261.07 64.8474 257.748 62.5667 256.726C62.2816 256.726 61.7115 255.96 61.7115 255.449C61.7115 254.427 62.5667 253.149 62.5667 253.149L57.4353 253.404Z" fill="#FFC6BD"/>
<path d="M69.978 189.915L73.3991 197.545C73.3991 197.545 75.6797 215.512 74.2543 226.341C73.6841 230.772 61.9957 255.138 61.9957 255.138L56.2939 254.4L63.9912 225.849L61.1404 215.02L57.1492 193.361L69.978 189.915Z" fill="#211E27"/>
<path d="M54.0131 190.407L51.1622 198.775L46.886 224.126L32.0615 248C32.0615 248 34.3422 250.954 36.6229 251.446L57.7192 227.326L69.1226 197.298L68.8375 190.653L54.0131 190.407Z" fill="#1C1921"/>
<path d="M77.0587 187.233C75.6433 184.248 73.3788 179.024 73.0958 178.776L70.8313 166.587L63.7546 165.841C63.7546 165.841 66.5853 179.024 66.8683 179.522C67.1514 180.019 73.3788 190.964 75.9264 194.944C75.9264 192.456 76.4925 189.72 77.0587 187.233Z" fill="#F8A492"/>
<path d="M72.896 175.101L64.863 175.819C64.863 175.819 64.5859 170.074 64.5859 167.441C64.5859 164.09 65.1399 160.021 65.694 160.021C67.079 160.26 68.464 160.739 69.572 161.936C73.173 166.244 72.896 175.101 72.896 175.101Z" fill="#D9F9F7"/>
<path d="M30.9849 248.991C30.9849 248.991 33.9435 257.344 35.2884 257.836C35.5573 257.836 37.4401 258.327 37.978 259.064C37.978 259.555 37.7091 259.801 37.1711 259.801H30.9849C30.9849 259.801 30.178 256.116 29.6401 254.396C29.6401 254.396 27.7573 250.22 28.0263 249.974C28.5642 249.728 30.9849 248.991 30.9849 248.991Z" fill="#454745"/>
<path d="M54.6082 259.801L55.708 256.475C55.708 256.475 57.9077 257.306 59.0075 257.306C60.1074 257.029 62.3071 256.475 62.3071 256.475C66.7065 257.861 70.2809 258.692 69.4561 259.801H54.6082Z" fill="#454745"/>
<path d="M55.1001 159.506C55.1001 159.506 49.2775 160.497 48.1129 161.24C46.6573 161.983 47.2395 164.954 47.2395 164.954C47.2395 164.954 52.4799 186.252 52.1888 189.719C51.8977 193.434 51.0243 198.882 51.0243 198.882C51.0243 198.882 67.6188 199.873 73.7326 197.644C73.7326 197.644 71.6946 189.224 71.6946 186.995C71.6946 184.766 70.5301 162.973 69.6567 161.735C68.7833 160.497 67.3277 160.001 64.1252 159.259C61.505 159.011 55.1001 159.506 55.1001 159.506Z" fill="#DEFFFE"/>
<path d="M54.9505 160.021L58.7656 161.892L57.0048 164.178L53.7766 160.021H54.9505Z" fill="#BFD8D8"/>
<path d="M58.7656 161.601L60.5474 165.841L61.2601 162.099L60.5474 161.85L58.7656 158.358V161.601Z" fill="#FFC6BD"/>
<path d="M59.5969 164.178L63.0269 199.101H64.5859L60.5324 164.429L60.2205 165.686L59.5969 164.178Z" fill="#BFD8D8"/>
<path d="M62.715 159.189L59.5969 161.961L62.0221 164.178L63.7544 159.189H62.715Z" fill="#BFD8D8"/>
<path d="M67.9121 170.83H63.7546V171.662H67.9121V170.83Z" fill="white"/>
<path d="M74.5643 173.325L71.2383 173.602V175.819L74.5643 175.542V173.325Z" fill="#BFD8D8"/>
<path d="M60.0011 163.334C58.5756 163.58 56.58 161.365 55.4397 159.642C55.4397 159.642 55.7248 158.411 55.7248 156.935C55.7248 155.95 56.0099 154.966 56.0099 154.227C56.0099 153.981 62.8519 155.704 62.8519 155.704C62.8519 155.704 61.9967 157.673 61.9967 159.15C61.9967 159.396 61.9967 159.396 61.9967 159.642C62.5668 160.38 61.7116 162.842 60.0011 163.334Z" fill="#F8A492"/>
<path d="M62.2813 159.395C62.2813 159.395 62.2813 159.642 62.2813 159.395C61.9962 159.395 61.7111 159.395 61.7111 159.395C57.7199 159.149 56.8647 154.965 56.5796 153.981C57.7199 154.227 63.1365 155.457 63.1365 155.457C63.1365 155.457 62.2813 157.426 62.2813 158.903C62.2813 159.149 62.2813 159.395 62.2813 159.395Z" fill="#EF8978"/>
<path d="M54.868 147.335C54.2978 149.304 56.0083 155.211 58.0039 156.442C60.5697 158.165 64.846 158.165 66.5565 155.457C68.267 152.996 65.7012 145.612 63.7056 144.382C60.8548 142.659 55.7233 144.382 54.868 147.335Z" fill="#F8A492"/>
<path d="M61.9948 150.289C61.9948 150.289 61.9948 150.535 61.9948 150.289C61.9948 150.781 62.2799 151.274 61.7097 151.274C62.2799 151.274 62.2799 150.781 61.9948 150.289Z" fill="#75271A"/>
<path d="M61.4244 150.042C60.5691 150.042 60.8542 151.519 61.7094 151.273C62.2796 151.273 61.9945 150.042 61.4244 150.042Z" fill="#75271A"/>
<path d="M64.5596 150.042C64.5596 150.535 64.8447 150.781 65.4148 151.027C64.8447 151.027 64.5596 150.289 64.5596 150.042Z" fill="#75271A"/>
<path d="M64.846 149.55C65.7012 149.304 65.9863 150.535 65.4161 150.781C64.5609 151.027 64.2758 149.55 64.846 149.55Z" fill="#75271A"/>
<path d="M60.569 149.55C60.854 149.55 60.854 149.304 61.1391 149.304C61.4242 149.304 61.4242 149.058 61.7093 149.058V148.812C61.4242 148.566 61.1391 148.812 60.854 148.812C60.569 149.058 60.2839 149.058 60.2839 149.304C59.9988 149.55 60.2839 149.797 60.569 149.55Z" fill="#75271A"/>
<path d="M65.1301 148.812C64.845 148.812 64.845 148.812 64.5599 148.812C64.2748 148.812 63.9897 148.812 63.9897 148.566V148.32C64.2748 148.074 64.5599 148.073 64.845 148.073C65.1301 148.073 65.4152 148.074 65.7003 148.32C65.7003 148.566 65.7003 148.812 65.1301 148.812Z" fill="#75271A"/>
<path d="M62.2793 153.98C62.2793 153.98 62.5644 154.226 62.8495 154.226C63.1345 154.226 63.1346 154.226 63.4196 153.98C63.4196 154.226 63.1345 154.226 62.8495 154.226C62.5644 154.472 62.2793 154.226 62.2793 153.98Z" fill="#75271A"/>
<path d="M62.5645 152.75C62.8495 152.996 63.4197 153.242 63.7048 153.242C63.9899 153.242 63.9899 153.242 64.275 153.242C64.275 152.996 63.9899 152.504 63.9899 152.504C64.275 152.504 64.8451 152.75 64.8451 152.504C64.5601 151.273 63.9899 149.796 63.1346 148.566C63.4197 149.796 63.9899 151.027 64.56 152.258C64.275 152.258 63.9899 152.258 63.7048 152.258L63.9899 153.242C63.7048 152.996 63.1346 152.996 62.5645 152.75Z" fill="#75271A"/>
<path d="M63.99 152.996C63.99 152.996 63.705 153.488 63.4199 153.734C63.1348 153.734 63.1348 153.98 62.8497 153.734C62.5646 153.734 62.2795 153.488 62.2795 153.242C62.2795 152.996 62.2795 152.75 62.2795 152.75C62.2795 152.75 63.1348 153.242 63.99 152.996Z" fill="#75271A"/>
<path d="M63.4196 153.734C63.1346 153.734 63.1345 153.98 62.8495 153.734C62.5644 153.734 62.2793 153.488 62.2793 153.242C62.8495 153.242 63.4196 153.242 63.4196 153.734Z" fill="#FF98B9"/>
<path d="M65.131 146.104C64.8459 145.612 64.2757 145.12 63.9907 145.12C63.7056 145.12 63.4205 145.858 62.8503 146.104C61.71 146.35 61.1398 145.612 59.4293 145.858C57.1486 146.104 56.5784 147.827 57.1486 150.535C57.7188 152.996 56.0082 153.488 56.0082 153.488C56.0082 153.488 53.7276 148.566 55.153 146.597C56.5784 144.628 60.2845 143.151 63.4205 144.381C64.2757 144.381 65.131 146.104 65.131 146.104Z" fill="#75271A"/>
<path d="M57.1489 152.012C57.1489 152.012 55.4383 150.289 54.298 150.781C53.4427 151.274 54.8682 153.981 56.0085 154.227C57.1488 154.473 57.719 153.489 57.719 153.489L57.1489 152.012Z" fill="#F8A492"/>
<path d="M54.8679 151.52C55.7232 151.766 56.2933 152.504 56.5784 152.996C56.2933 152.75 56.0083 152.75 55.4381 152.996C55.7232 152.996 56.0083 152.996 56.2933 153.242C56.5784 153.489 56.5784 153.489 56.8635 153.735H57.1486C56.8635 152.75 56.0083 151.52 54.8679 151.52Z" fill="#75271A"/>
<path d="M64.8472 144.874C64.277 144.874 60.5709 145.612 58.8604 146.351C57.4349 147.089 54.8692 149.55 54.8692 149.797C54.8692 150.043 52.8736 145.12 57.4349 143.397C62.5665 141.674 64.8472 144.874 64.8472 144.874Z" fill="#359591"/>
<path d="M55.1545 149.55C55.1545 149.55 57.4352 145.612 59.1457 144.382C60.8563 143.397 64.5623 142.166 67.4132 142.659C69.4088 143.151 65.1325 145.858 65.1325 145.858C65.1325 145.858 64.8474 145.366 64.2773 145.12C62.8518 144.874 60.8562 145.612 59.4308 146.104C58.0054 147.089 55.1545 149.55 55.1545 149.55Z" fill="#FFC727"/>
<path d="M55.1545 149.55C55.1545 149.55 57.4352 145.612 59.1457 144.382C60.8563 143.397 64.5623 142.166 67.4132 142.659C69.4088 143.151 65.1325 145.858 65.1325 145.858C65.1325 145.858 64.8474 145.366 64.2773 145.12C62.8518 144.874 60.8562 145.612 59.4308 146.104C58.0054 147.089 55.1545 149.55 55.1545 149.55Z" fill="#6CC8C1"/>
<path d="M154.079 153.242C154.079 153.242 155.22 151.027 156.36 151.519C157.5 151.765 156.93 154.719 155.79 155.211C154.65 155.703 154.079 154.965 154.079 154.965V153.242Z" fill="#F8A492"/>
<path d="M156.361 152.258C155.506 152.75 155.221 153.488 155.221 154.227C155.506 153.98 155.791 153.734 156.076 153.98C155.791 153.98 155.506 153.98 155.221 154.227C155.221 154.473 154.935 154.719 154.935 154.719H154.65C154.65 153.98 155.221 152.504 156.361 152.258Z" fill="#75271A"/>
<path d="M254.999 128.876H188.289V261.537H254.999V128.876Z" fill="#6CC8C1"/>
<path d="M214.517 121H210.241V261.537H214.517V121Z" fill="#359591"/>
<path d="M214.518 121C214.518 121.246 214.518 261.537 214.518 261.537H255V128.63L214.518 121Z" fill="#7FD6CB"/>
<path opacity="0.57" d="M247.018 136.998L224.496 132.814C224.496 134.783 222.501 136.26 220.505 136.26C220.22 136.26 219.935 136.26 219.65 136.26L219.365 175.148C221.36 175.394 223.071 176.871 223.071 178.593L245.593 181.055C245.593 179.086 247.588 177.609 249.584 177.609C249.869 177.609 249.869 177.609 250.154 177.609L250.439 140.444C248.443 140.198 247.018 138.721 247.018 136.998ZM248.443 176.378C246.448 176.624 244.737 178.101 244.167 179.578L224.496 177.363C223.926 175.886 222.786 174.655 221.075 173.917L221.36 137.491C223.356 137.244 225.352 136.014 225.922 134.291L245.593 137.983C245.878 139.46 247.018 140.69 248.729 141.182L248.443 176.378Z" fill="#BED9EC"/>
<path opacity="0.57" d="M246.448 204.683L240.461 204.19C240.461 206.159 238.75 207.636 236.47 207.636H236.185V252.431C238.465 252.431 240.176 253.908 240.176 255.877H246.163C246.163 253.908 247.873 252.431 250.154 252.431V208.128C248.158 207.882 246.448 206.406 246.448 204.683ZM248.443 251.2C246.448 251.692 245.022 252.923 244.452 254.646H241.316C240.746 252.923 239.321 251.692 237.325 251.2V208.867C239.321 208.375 241.031 207.144 241.601 205.667L244.737 205.913C245.307 207.39 246.448 208.621 248.158 209.359L248.443 251.2Z" fill="#BED9EC"/>
<path opacity="0.57" d="M229.628 203.452L224.496 202.96C224.496 204.929 222.785 206.406 220.505 206.406H220.22L220.505 252.185C222.785 252.185 224.496 253.662 224.496 255.631H229.342C229.342 253.662 231.053 252.185 233.334 252.185V206.652C231.338 206.652 229.628 205.175 229.628 203.452ZM231.908 251.2C229.913 251.693 228.487 252.923 227.917 254.646H225.921C225.351 253.169 223.926 251.693 221.93 251.447L221.645 208.129C222.785 207.882 223.641 207.39 224.496 206.898C225.066 206.406 225.636 205.667 225.921 204.929L228.487 205.175C229.057 206.652 230.198 207.882 231.908 208.621V251.2Z" fill="#BED9EC"/>
<path d="M223.639 194.099C224.584 194.099 225.35 192.887 225.35 191.392C225.35 189.897 224.584 188.685 223.639 188.685C222.695 188.685 221.929 189.897 221.929 191.392C221.929 192.887 222.695 194.099 223.639 194.099Z" fill="#F7CC7F"/>
<path d="M226.775 190.407V192.623H223.354C223.354 192.376 223.069 191.884 223.069 191.392C223.069 191.146 223.069 190.654 223.069 190.407H226.775Z" fill="#F47458"/>
<path d="M226.775 195.576C228.192 195.576 229.341 193.702 229.341 191.392C229.341 189.081 228.192 187.208 226.775 187.208C225.358 187.208 224.209 189.081 224.209 191.392C224.209 193.702 225.358 195.576 226.775 195.576Z" fill="#FAE0B2"/>
<path d="M227.345 195.576C228.762 195.576 229.911 193.702 229.911 191.392C229.911 189.081 228.762 187.208 227.345 187.208C225.928 187.208 224.779 189.081 224.779 191.392C224.779 193.702 225.928 195.576 227.345 195.576Z" fill="#FAE0B2"/>
<path opacity="0.19" d="M77.1067 211.574C66.8436 211.082 57.4358 209.359 47.4578 207.39C47.7428 196.56 49.1683 186.223 51.449 175.64C56.0103 173.179 61.1419 170.964 66.5585 169.733C67.6988 169.979 68.269 170.225 69.4094 169.979C74.2558 172.44 78.5321 175.148 82.2382 178.84C81.9531 189.423 80.8128 201.483 77.1067 211.574Z" fill="#6CC8C1"/>
<path d="M67.699 177.117C69.9797 176.624 71.9753 175.394 73.4007 173.671C71.6902 173.425 69.9797 173.425 68.2692 173.179C66.2736 172.933 63.9929 172.686 61.9973 171.702C63.1377 174.163 65.1333 176.132 67.699 177.117Z" fill="#F19679"/>
<path d="M68.554 170.471C68.554 169.487 69.4093 168.748 70.2645 168.502C71.1198 168.256 72.2601 167.764 72.8303 167.025C73.6856 166.287 73.6856 165.056 73.1154 164.072C72.5452 163.087 71.69 162.349 70.5496 162.103C69.6944 161.857 68.554 161.857 67.6988 162.103C66.8435 162.349 65.9883 163.087 65.7032 164.072C65.4181 164.81 65.7032 166.287 66.8435 166.533C67.1286 166.533 67.1286 166.533 67.4137 166.533C67.9838 166.287 67.4137 165.795 67.4137 165.302C67.4137 164.81 67.4137 164.318 67.9839 163.826C68.8391 163.333 69.9795 163.333 70.8347 163.826C71.69 164.318 71.69 165.302 71.4049 166.287C71.1198 167.025 70.2645 167.764 69.4093 168.256C68.554 168.748 67.9839 169.733 67.9839 170.471C67.9839 170.471 68.2689 170.471 68.554 170.471Z" fill="#363347"/>
<path d="M61.427 172.44L68.2691 169.979L74.2558 173.916L73.4006 174.163L68.2691 171.209L61.7121 172.932L61.427 172.44Z" fill="#363347"/>
<path d="M78.5316 201.729C77.1062 201.729 75.6808 201.483 73.9703 201.237C73.6852 201.237 73.6852 201.237 73.4001 201.237C73.115 203.206 72.8299 204.929 72.5448 206.898C66.558 206.898 60.0011 206.159 54.2994 204.683C54.5844 203.206 54.8695 201.237 54.8695 199.76C54.5845 199.76 54.5844 199.76 54.2994 199.76C52.3038 199.514 50.3082 199.022 48.5977 198.53C49.1678 190.9 50.3082 183.516 52.3038 175.886C55.1546 173.917 58.5757 172.44 61.9967 171.456C63.4221 173.179 64.8475 174.655 66.558 176.132C69.1238 175.64 71.6896 174.655 73.4001 173.179C76.536 174.655 78.8167 176.378 81.0974 178.593C81.0974 186.469 80.2421 194.345 78.5316 201.729Z" fill="url(#paint0_linear)"/>
<path d="M61.1419 172.933C61.1419 175.148 61.7121 177.609 63.1375 179.578C64.2779 178.593 65.7033 177.609 66.8436 176.871C67.984 177.855 69.1243 178.84 69.9796 180.07C71.6901 178.347 72.8304 176.378 73.9708 174.409C73.1155 176.624 71.6901 178.84 69.9796 180.809C69.1243 179.578 67.984 178.347 66.8436 177.363C65.4182 178.347 63.9928 179.332 62.5674 180.562C61.427 178.347 60.8568 175.64 61.1419 172.933ZM57.7209 181.793C56.5806 187.7 55.4402 193.361 54.585 199.268C54.585 199.268 54.585 199.514 54.585 199.76C54.87 199.76 54.8701 199.76 55.1551 199.76C56.5806 193.607 57.4358 188.192 57.7209 181.793ZM74.2559 201.237C74.826 195.33 75.6813 189.423 76.8216 183.516C75.3962 189.423 74.541 195.33 73.6857 201.237C73.9708 201.237 73.9708 201.237 74.2559 201.237ZM66.5586 181.793C64.848 189.669 63.7077 197.791 62.8524 205.913C64.563 198.037 65.9884 189.915 66.5586 181.793Z" fill="#F19679"/>
<path d="M66.8442 179.331C67.1293 179.331 67.4143 179.577 67.4143 180.07C67.4143 180.316 67.1293 180.562 66.8442 180.808C66.5591 180.808 65.9889 180.562 65.9889 180.316C65.7038 179.577 66.274 179.331 66.8442 179.331Z" fill="#FCA746"/>
<path d="M77.3914 205.421C78.8168 196.806 79.9572 188.438 81.0975 179.824C80.2423 180.562 79.387 181.054 78.5317 181.793C78.8168 180.808 79.387 180.07 79.6721 179.331C78.5317 179.577 77.6765 179.577 76.5361 179.824C77.6765 179.331 78.8168 178.839 80.2422 178.593C77.1063 175.886 73.1151 173.67 69.1239 171.701C68.8388 172.44 68.8388 172.932 68.5537 173.67C68.2687 172.932 67.9836 172.194 67.6985 171.701C67.1283 172.194 66.2731 172.932 65.4178 173.178C65.7029 172.686 65.988 172.194 65.988 171.455C61.7117 172.932 58.0056 174.655 54.2995 176.624C54.8696 177.116 55.4398 177.362 56.01 177.608C55.1547 177.608 54.5846 177.362 53.7293 177.362C54.0144 178.101 54.2995 178.839 54.8697 179.331C54.0144 178.839 53.4442 178.347 52.874 177.608C51.7337 181.3 50.8784 184.992 50.0232 188.684C50.3083 184.5 50.8785 180.07 52.0188 175.886C56.5802 173.424 61.1415 170.963 66.5582 170.225C67.6985 169.979 68.8388 170.471 69.9792 170.471C74.2555 172.932 78.5317 175.639 82.2379 178.839C81.6677 187.7 79.9572 196.806 77.3914 205.421Z" fill="#CDBFA1"/>
<path d="M77.3908 191.638C68.5531 191.884 60.0006 187.946 55.4392 181.793C57.1497 185.485 60.0006 188.93 63.9918 190.653C68.2681 192.376 72.8294 192.868 77.3908 191.638Z" fill="#CDBFA1"/>
<path d="M75.3959 195.822C69.124 196.806 62.567 196.068 57.1504 193.36C59.4311 195.575 61.9968 197.298 65.4179 197.544C68.8389 198.037 72.2599 197.544 75.3959 195.822Z" fill="#CDBFA1"/>
<path d="M54.585 204.682C61.1419 194.099 65.1331 184.746 70.8348 173.671C74.2559 174.901 77.1067 177.116 79.9576 179.331C74.5409 189.669 70.5498 196.806 62.8524 206.159" fill="url(#paint1_linear)"/>
<path d="M70.5498 163.825C71.4051 164.564 71.4051 165.302 71.12 166.041L73.4007 166.287C73.6857 165.548 73.6857 164.81 73.4007 164.318L70.5498 163.825Z" fill="#363347"/>
<path d="M42.967 176.942L51.7749 179.145C51.7749 179.145 53.4797 175.718 53.7638 172.291C54.0479 169.108 49.5019 160.784 48.0813 161.763C44.9559 163.967 42.967 176.942 42.967 176.942Z" fill="#D9F9F7"/>
<path d="M69.9731 198.418C68.836 197.67 67.1303 196.424 67.1303 196.424C65.4247 195.925 42.967 188.946 42.967 186.703C42.967 185.955 44.3884 174.988 44.3884 174.988L51.4953 176.732L50.3582 184.958C50.9267 185.207 65.1404 191.937 65.1404 191.937C65.1404 191.937 69.1203 193.682 69.4045 193.682C69.6888 193.682 69.9731 193.432 72.2473 193.183C72.8158 193.183 73.9529 193.432 73.9529 193.432C73.9529 193.432 75.09 193.931 75.09 194.18C75.09 194.429 74.8057 194.679 74.5215 194.679C74.2372 194.679 73.9529 194.429 73.6687 194.429C73.3844 194.429 72.8158 194.928 72.8158 195.177C72.8158 195.427 74.2372 195.925 75.3743 196.174C75.9428 196.424 76.2271 196.922 76.2271 197.421C76.2271 197.67 75.9428 197.67 75.9428 197.919C75.9428 198.168 75.6586 198.667 75.3743 198.916C75.3743 199.165 75.09 199.913 74.8058 200.162C74.8058 200.162 74.8058 200.162 74.8058 200.412C74.5215 200.661 74.2372 200.91 73.6687 200.661C73.1001 200.412 72.5316 200.412 72.5316 200.412C72.5316 199.415 71.1102 199.165 69.9731 198.418Z" fill="#F8A492"/>
<path d="M42.7198 174.156L42.1355 176.651L52.0686 179.146L52.945 176.9L42.7198 174.156Z" fill="#BFD8D8"/>
<path d="M261.828 265H11.4281C10.2141 265 9 264.25 9 263.5C9 262.75 10.2141 262 11.4281 262H261.525C262.739 262 263.953 262.75 263.953 263.5C264.256 264.25 263.042 265 261.828 265Z" fill="#5C8097"/>
<path d="M146.299 21C140.399 21 135.599 16.2897 135.599 10.5C135.599 4.71028 140.399 0 146.299 0C152.198 0 156.998 4.71028 156.998 10.5C157.098 16.1916 152.198 21 146.299 21ZM146.299 0.392521C140.599 0.392521 135.999 4.90654 135.999 10.5C135.999 16.0935 140.599 20.6075 146.299 20.6075C151.998 20.6075 156.598 16.0935 156.598 10.5C156.598 4.90654 151.998 0.392521 146.299 0.392521Z" fill="#359591"/>
<path d="M135 17.4674C134.1 17.4674 133.1 17.3692 132.2 17.173C131.3 16.9767 130.4 16.6823 129.7 16.2898L129.4 16.0935L131.2 12.3645L131.5 12.5608C132 12.8552 132.5 13.0515 133.1 13.2477C133.7 13.444 134.2 13.444 134.8 13.444C135.2 13.444 135.6 13.3459 135.9 13.2477C136.1 13.1496 136.2 13.0515 136.2 12.8552C136.2 12.7571 136.2 12.3645 135 12.3645H132.9V9.32249L134.3 7.85053H130.2V3.92529H140.499V6.96735L138.399 9.02809C139.199 9.32249 139.799 9.71501 140.299 10.3038C140.899 10.9907 141.199 11.8739 141.199 12.7571C141.199 13.5421 140.999 14.3272 140.499 15.0141C139.999 15.701 139.299 16.2898 138.399 16.7804C137.499 17.173 136.3 17.4674 135 17.4674Z" fill="#359591"/>
<path d="M140.199 4.1215V6.77103L137.8 9.12617C138.799 9.32244 139.599 9.81309 140.099 10.4019C140.599 10.9907 140.899 11.7757 140.899 12.6589C140.899 13.4439 140.699 14.1308 140.299 14.8178C139.899 15.5047 139.199 15.9953 138.299 16.3879C137.4 16.7804 136.3 16.9766 135 16.9766C134.1 16.9766 133.2 16.8785 132.3 16.6823C131.4 16.486 130.6 16.1916 129.9 15.7991L131.4 12.6589C131.9 12.9533 132.5 13.1495 133.1 13.3458C133.7 13.5421 134.3 13.5421 134.9 13.5421C135.4 13.5421 135.8 13.4439 136.1 13.2477C136.4 13.0514 136.6 12.8551 136.6 12.5608C136.6 11.972 136.1 11.6776 135.1 11.6776H133.3V9.02804L135.2 7.16356H130.6V3.92524H140.199V4.1215ZM140.899 3.53271H140.199H130.6H129.9V4.21963V7.45795V8.14487H130.6H133.6L132.8 8.92991L132.6 9.12617V9.42057V12.0701V12.757H133.3H135C135.7 12.757 135.9 12.9533 135.9 12.9533C135.9 12.9533 135.9 12.9533 135.9 13.0514C135.9 13.0514 135.9 13.1495 135.8 13.2477C135.6 13.3458 135.3 13.4439 134.9 13.4439C134.4 13.4439 133.9 13.3458 133.3 13.2477C132.8 13.1495 132.2 12.8551 131.8 12.6589L131.2 12.2664L130.9 12.9533L129.3 15.7009L129 16.2897L129.5 16.5841C130.2 16.9766 131.1 17.271 132.1 17.4673C133 17.6636 134 17.7617 135 17.7617C136.4 17.7617 137.6 17.5654 138.599 17.0748C139.599 16.5841 140.399 15.9953 140.799 15.2103C141.299 14.4252 141.499 13.6402 141.499 12.757C141.499 11.6776 141.199 10.7944 140.499 10.0093C140.099 9.51869 139.599 9.12617 138.899 8.83178L140.599 7.16356L140.799 6.96729V6.6729V4.02337V3.53271H140.899Z" fill="#D7EAF0"/>
<defs>
<linearGradient id="paint0_linear" x1="58.1556" y1="218.192" x2="65.5321" y2="175.957" gradientUnits="userSpaceOnUse">
<stop stop-color="#F5BA85"/>
<stop offset="0.6233" stop-color="#FCDDB1"/>
<stop offset="1" stop-color="#FFEFC7"/>
</linearGradient>
<linearGradient id="paint1_linear" x1="77.9057" y1="174.679" x2="58.0718" y2="214.48" gradientUnits="userSpaceOnUse">
<stop stop-color="#9BA87E"/>
<stop offset="0.7104" stop-color="#1F2119"/>
<stop offset="0.8827"/>
</linearGradient>
</defs>
</svg>
