<svg width="300" height="260" viewBox="0 0 300 260" fill="none" xmlns="http://www.w3.org/2000/svg">
<path d="M22.6703 255C22.6703 255 -17.3096 200.073 8.91574 152.532C35.141 104.992 50.5461 172.609 110.699 141.358C170.852 110.106 246.961 53.6635 285.473 134.918C323.986 216.172 273.736 255 273.736 255H22.6703Z" fill="#FAFFFF"/>
<path d="M72.671 179.798H51.1931C50.5423 179.798 50.1084 179.347 50.1084 178.67V177.994C50.1084 177.317 50.5423 176.866 51.1931 176.866H72.671C73.3218 176.866 73.7557 177.317 73.7557 177.994V178.67C73.7557 179.347 73.3218 179.798 72.671 179.798Z" fill="#FFDD00"/>
<path opacity="0.57" d="M72.671 176.866H51.1931C50.5423 176.866 50.1084 176.415 50.1084 175.738V175.061C50.1084 174.385 50.5423 173.934 51.1931 173.934H72.671C73.3218 173.934 73.7557 174.385 73.7557 175.061V175.738C73.7557 176.189 73.3218 176.866 72.671 176.866Z" fill="#E8F4FC"/>
<path d="M73.3215 173.709H51.4097C50.5419 173.709 49.8911 173.032 49.8911 172.13V171.228C49.8911 170.326 50.5419 169.649 51.4097 169.649H73.3215C74.1893 169.649 74.8401 170.326 74.8401 171.228V172.13C74.8401 173.032 74.1893 173.709 73.3215 173.709Z" fill="#6CC8C1"/>
<path d="M242.106 149.804C242.323 149.804 247.313 150.03 247.964 159.276C248.615 168.748 257.076 168.748 255.123 178.445C253.171 188.143 241.456 182.956 241.456 182.956C241.456 182.956 223.232 175.288 231.259 164.012C238.852 152.736 242.106 149.804 242.106 149.804Z" fill="#75271A"/>
<path d="M237.333 243.396C236.248 244.072 236.031 245.876 236.031 248.132C236.031 249.034 236.031 248.583 236.031 249.936C236.031 252.642 235.815 253.093 236.031 254.446C236.248 255.348 236.465 256.025 236.899 256.701C237.55 257.378 238.418 257.378 238.852 257.603C239.503 257.829 240.587 257.829 241.021 257.378C241.238 256.927 241.021 254.446 240.804 252.642C240.153 247.906 239.72 243.621 238.201 243.396C237.984 243.17 237.55 243.396 237.333 243.396Z" fill="#4C423F"/>
<path d="M245.794 243.396C246.879 244.072 247.096 245.876 247.096 248.132C247.096 249.034 247.096 248.583 247.096 249.936C247.096 252.642 247.313 253.093 247.096 254.446C246.879 255.348 246.662 256.025 246.228 256.701C245.577 257.378 244.71 257.378 244.276 257.603C243.625 257.829 242.54 257.829 242.106 257.378C241.889 256.927 242.106 254.446 242.323 252.642C242.974 247.906 243.408 243.621 244.927 243.396C245.143 243.17 245.577 243.396 245.794 243.396Z" fill="#4C423F"/>
<path d="M238.635 243.396C239.286 247.455 240.154 254.221 240.154 255.574C240.154 256.025 239.937 256.476 239.937 256.476C239.72 256.702 239.503 256.927 238.201 256.476C237.767 256.25 237.117 256.025 236.249 255.574C236.466 256.025 236.683 256.25 236.9 256.476C237.55 257.153 238.418 257.153 238.852 257.378C239.503 257.604 240.588 257.604 241.022 257.153C241.239 256.702 241.022 254.221 240.805 252.417C240.371 248.132 239.937 244.298 238.635 243.396Z" fill="#353131"/>
<path d="M244.71 256.701C243.408 257.152 243.191 256.701 242.974 256.701C242.757 256.476 242.757 256.25 242.757 255.799C242.757 254.446 243.842 247.906 244.276 243.846C243.191 244.974 242.757 248.582 242.107 252.867C241.89 254.671 241.673 257.378 241.89 257.603C242.324 258.054 243.191 258.054 244.059 257.829C244.71 257.829 245.361 257.603 246.012 256.927C246.446 256.476 246.663 256.25 246.663 255.799C245.795 256.25 245.144 256.476 244.71 256.701Z" fill="#353131"/>
<path d="M240.371 208.439C241.889 210.695 240.587 213.175 239.72 218.588C239.069 223.775 240.154 222.647 239.72 231.668C239.72 233.247 239.286 242.042 239.503 245.876C239.503 247.004 239.72 247.455 239.72 248.131C239.937 249.935 240.371 250.387 240.371 251.74C240.371 252.416 240.37 253.769 239.503 253.995C238.852 254.22 237.767 253.318 237.116 252.416C236.899 251.965 236.682 251.514 236.682 249.033C236.682 247.229 236.682 247.004 236.682 246.102C236.682 244.523 236.465 243.621 236.032 241.817C236.032 241.817 235.381 238.885 234.73 236.179C234.513 234.6 233.645 230.315 234.296 225.354C234.513 223.549 234.947 222.422 234.947 219.941C234.947 218.362 234.947 217.46 234.73 215.431C234.079 209.793 233.862 206.861 234.73 206.184C236.032 205.508 239.069 206.41 240.371 208.439Z" fill="#F9B087"/>
<path d="M239.503 245.651C239.286 242.042 239.72 233.021 239.72 231.443C240.154 222.422 238.852 223.775 239.72 218.363C240.371 213.176 241.889 210.695 240.371 208.214C239.069 206.184 236.032 205.057 234.73 206.184C234.079 206.635 234.079 208.665 234.513 212.273C234.947 212.048 235.598 211.822 236.249 211.597C236.683 211.597 238.635 211.146 239.503 212.499C239.72 212.95 239.72 213.401 239.72 214.303C239.503 216.333 239.286 217.46 239.069 218.588C238.852 219.49 238.635 221.069 238.852 223.098C238.852 224.001 239.069 224.226 239.069 225.579C239.069 226.256 239.069 227.158 239.286 228.962C239.286 230.766 239.286 232.345 239.286 232.796C239.286 237.081 239.286 237.757 239.069 239.562C239.069 245.425 239.286 242.944 239.286 245.876C239.286 246.327 239.937 249.936 240.154 250.387C240.371 251.063 240.371 251.965 239.937 253.318C240.588 252.867 240.588 251.514 240.588 251.063C240.588 249.71 240.371 249.259 239.937 247.455C239.72 247.229 239.72 246.778 239.503 245.651Z" fill="#F39474"/>
<path d="M243.191 251.063C243.408 250.612 244.059 247.004 244.059 246.553C244.059 243.621 244.276 246.102 244.276 240.238C244.276 238.434 244.276 237.532 244.059 233.473C244.059 232.796 244.059 231.443 244.059 229.639C244.059 227.609 244.059 226.707 244.276 226.256C244.493 224.677 244.493 224.677 244.493 223.775C244.71 221.746 244.493 220.167 244.276 219.265C244.059 218.137 243.842 217.235 243.625 214.98C243.408 213.852 243.408 213.401 243.842 213.176C244.493 212.048 246.662 212.274 247.096 212.274C247.747 212.274 248.398 212.725 248.832 212.95C249.266 209.342 249.266 207.312 248.615 206.861C247.313 205.959 244.493 206.861 242.974 208.891C241.456 211.146 242.757 213.627 243.625 219.039C244.276 224.226 243.191 223.099 243.625 232.12C243.625 233.698 244.059 242.494 243.842 246.327C243.842 247.455 243.625 247.906 243.625 248.583C243.408 250.387 242.974 250.838 242.974 252.191C242.974 252.868 242.974 254.221 243.625 254.446C242.974 252.642 242.974 251.514 243.191 251.063Z" fill="#F39474"/>
<path d="M247.964 219.941C247.964 218.362 247.964 217.46 248.181 215.431C248.398 214.303 248.398 213.175 248.398 212.273C247.964 212.048 247.313 211.822 246.662 211.597C246.228 211.597 244.276 211.146 243.408 212.499C243.191 212.95 243.191 213.401 243.191 214.303C243.408 216.333 243.625 217.46 243.842 218.588C244.059 219.49 244.276 221.069 244.059 223.098C244.059 224.001 243.842 224.226 243.842 225.579C243.842 226.256 243.842 227.158 243.625 228.962C243.625 230.766 243.625 232.345 243.625 232.796C243.625 237.081 243.625 237.757 243.842 239.562C243.842 245.425 243.625 242.944 243.625 245.876C243.625 246.327 242.974 249.936 242.757 250.387C242.54 251.063 242.54 251.965 242.974 253.318C243.625 253.544 244.71 252.642 245.361 251.74C245.578 251.289 245.795 250.838 245.795 248.357C245.795 246.553 245.795 246.327 245.795 245.425C245.795 243.846 246.011 242.944 246.445 241.14C246.445 241.14 247.096 238.208 247.747 235.502C247.964 233.923 248.832 229.639 248.181 224.677C248.398 223.324 248.181 222.422 247.964 219.941Z" fill="#F9B087"/>
<path d="M247.964 185.887H235.598L232.777 164.688L239.72 162.659H243.408L250.35 164.688L247.964 185.887Z" fill="white"/>
<path d="M234.296 164.914C234.947 164.688 236.249 164.237 238.635 163.786C240.588 163.335 241.022 163.335 241.456 163.335C242.106 163.335 242.757 163.335 243.842 163.561C246.662 164.012 248.398 164.688 249.483 164.914C249.917 165.139 250.133 165.139 250.567 165.365C250.784 165.59 251.218 165.59 251.435 165.816C251.001 164.914 250.567 164.463 250.35 164.463L243.408 162.659H239.72L232.561 164.688C232.344 164.688 231.91 165.365 231.259 166.267C231.476 166.042 231.91 165.816 232.344 165.59C232.778 165.365 233.428 165.139 234.296 164.914Z" fill="#EDECEB"/>
<path d="M252.737 208.891C252.303 202.802 249.048 189.496 248.181 186.339C247.964 185.437 247.747 184.534 247.53 184.083C246.662 181.377 238.418 180.701 236.249 184.083C235.815 184.76 235.815 185.211 235.598 186.339C235.164 189.27 230.608 208.44 231.042 208.891C233.211 210.92 246.228 212.274 252.737 208.891Z" fill="#211E27"/>
<path d="M233.862 170.101C233.645 170.101 232.344 172.582 231.693 174.16C231.91 174.16 232.127 174.386 232.344 174.386C232.995 173.033 233.645 171.905 233.862 171.229L235.815 185.888H236.9C235.815 179.573 235.164 174.386 234.73 172.582C234.296 170.778 234.079 170.101 233.862 170.101Z" fill="#EDECEB"/>
<path d="M249.483 171.003C249.266 171.003 249.049 171.68 248.615 173.709C248.398 175.288 247.964 180.024 247.096 185.888H247.964L249.483 172.356C249.483 173.033 249.917 173.935 250.567 175.063C250.784 174.837 251.001 174.837 251.218 174.612C250.567 173.033 249.7 171.003 249.483 171.003Z" fill="#EDECEB"/>
<path d="M232.777 173.033C233.211 172.356 233.428 171.68 233.645 171.229L235.598 185.888H236.682C235.598 179.573 234.947 174.386 234.513 172.582C234.296 171.003 234.079 170.101 233.862 170.101C233.862 170.327 233.645 170.778 233.645 171.003C233.645 171.229 233.211 172.131 232.777 173.033Z" fill="#EDECEB"/>
<path d="M249.483 172.131C249.483 171.68 249.483 171.454 249.266 170.778C249.049 171.003 248.832 171.68 248.615 173.259C248.398 174.837 247.964 179.573 247.096 185.437H247.964L249.483 172.131C249.483 172.808 249.917 173.71 250.567 174.837C250.784 174.612 251.001 174.612 251.218 174.386C251.001 174.612 250.784 174.612 250.567 174.837C249.917 173.71 249.7 172.808 249.483 172.131Z" fill="#EDECEB"/>
<path d="M247.964 185.888C247.964 185.888 247.313 177.318 247.313 174.611C247.313 171.003 247.747 167.846 247.964 165.816C247.964 165.14 248.181 164.463 248.181 163.786L246.662 163.335C246.445 164.012 246.445 164.914 246.445 165.816C246.228 167.169 246.011 168.748 246.011 170.778C244.71 170.552 243.191 170.327 241.456 170.327C239.937 170.327 238.635 170.552 237.333 170.552C237.117 168.522 237.117 166.944 236.9 165.591C236.9 164.689 236.683 164.012 236.683 163.11L235.164 163.561C235.164 164.237 235.381 164.914 235.381 165.591C235.598 167.62 236.032 170.552 236.032 174.386C236.032 176.416 236.032 185.662 236.032 185.662C236.032 185.662 233.428 204.38 234.296 205.733C236.249 209.342 248.615 208.891 249.916 205.733C250.35 204.38 247.964 185.888 247.964 185.888Z" fill="#359591"/>
<path d="M236.9 171.454C236.9 171.454 238.418 171.003 240.805 171.003C243.842 171.003 246.011 171.68 246.011 171.68C246.011 171.68 246.445 166.718 247.096 163.787L246.662 163.561C246.445 164.238 246.445 165.14 246.445 166.042C246.228 167.395 246.011 168.973 246.011 171.003C244.71 170.778 243.191 170.552 241.456 170.552C239.937 170.552 238.635 170.778 237.334 170.778C237.117 168.748 237.117 167.169 236.9 165.816C236.9 164.914 236.683 164.238 236.683 163.335L236.249 163.561C236.466 164.238 236.466 165.14 236.683 165.816C236.9 170.327 236.9 171.454 236.9 171.454Z" fill="#9EE5DB"/>
<path d="M242.106 208.214C241.239 208.214 239.72 207.988 239.503 207.988C238.635 207.763 237.334 207.537 236.032 206.861C235.598 206.635 235.381 206.41 235.164 206.184C234.73 205.508 234.73 204.831 234.947 204.38C234.947 203.252 234.947 201.899 235.164 200.772C235.381 199.193 235.381 197.614 235.598 196.261C236.249 190.623 236.466 184.534 236.466 183.406C236.466 180.7 236.466 178.896 236.466 175.964C236.249 171.003 236.249 168.747 235.815 166.943C235.598 165.816 235.598 164.914 235.381 164.237H235.164C235.164 164.914 235.381 165.59 235.381 166.267C235.598 168.296 236.032 171.228 236.032 175.062C236.032 177.092 236.032 186.338 236.032 186.338C236.032 186.338 233.428 205.056 234.296 206.41C236.249 209.792 247.313 209.567 249.7 206.861C246.228 207.763 243.842 208.214 242.106 208.214Z" fill="#9EE5DB"/>
<path d="M248.181 186.338V185.887C246.228 186.113 244.059 185.211 241.672 185.211C239.286 185.211 236.9 185.436 235.598 184.985V186.113C235.598 186.113 235.598 186.113 235.598 186.338C237.117 186.564 239.286 187.015 241.022 187.015C243.842 187.24 246.228 186.789 248.181 186.338Z" fill="#9EE5DB"/>
<path d="M247.964 186.113C247.964 185.887 247.964 185.887 247.964 186.113L248.181 184.309C246.228 184.534 243.842 184.985 241.672 184.76C239.286 184.76 236.683 184.309 235.598 183.858L235.815 185.662C235.815 185.662 235.815 185.662 235.815 185.887C237.333 186.113 239.503 186.564 241.239 186.564C243.842 186.789 246.011 186.564 247.964 186.113Z" fill="#7FD6CB"/>
<path d="M252.52 170.552V170.101V170.552C252.303 170.552 252.086 170.778 251.869 170.552H251.435L251.869 170.778C252.086 170.778 252.086 171.003 252.086 171.229V171.68L252.303 171.229C252.303 171.003 252.52 171.003 252.737 171.003H253.171L252.737 170.778C252.52 170.778 252.52 170.552 252.52 170.552Z" fill="white"/>
<path d="M232.778 164.688C231.91 164.688 224.751 177.092 223.666 183.181C223.449 184.083 223.232 184.534 223.666 184.985C223.883 185.436 224.967 185.436 225.401 185.211C225.835 185.211 233.211 173.033 233.428 170.777C233.862 168.522 233.862 164.688 232.778 164.688Z" fill="#F9B087"/>
<path d="M223.666 185.211C224.1 186.113 237.55 189.045 238.852 188.819C239.286 188.819 239.503 187.241 239.286 186.564C239.069 186.113 227.137 181.828 225.618 182.279C224.1 182.956 223.449 184.083 223.666 185.211Z" fill="#F9B087"/>
<path d="M226.703 183.181C226.703 183.181 230.174 183.632 239.503 187.241C239.503 187.015 239.503 186.789 239.286 186.789C239.069 186.338 231.259 183.632 227.57 182.73C229.957 178.896 233.428 172.582 233.645 171.003C233.645 170.552 233.862 169.875 233.862 169.424C233.211 170.326 232.777 171.228 232.56 171.905C231.476 175.062 226.486 182.73 226.703 183.181Z" fill="#F39474"/>
<path d="M232.777 164.688C232.344 164.688 230.391 167.62 228.438 171.454C228.872 171.905 229.306 172.13 229.74 172.581C230.608 173.258 231.476 173.935 232.344 174.386C233.211 172.807 233.645 171.679 233.862 171.003C234.513 167.846 233.862 164.688 232.777 164.688Z" fill="white"/>
<path d="M231.693 173.935C231.91 173.935 232.127 174.16 232.344 174.16C232.561 173.709 232.778 173.484 232.995 173.033C233.428 172.131 233.862 171.229 233.862 171.003C233.862 170.778 234.079 170.327 234.079 170.101C233.645 169.876 232.344 172.356 231.693 173.935Z" fill="#EDECEB"/>
<path d="M232.778 164.688C232.561 164.688 232.127 165.365 231.259 166.267C231.476 166.041 231.91 165.816 232.344 165.59C232.561 165.365 232.995 165.365 233.429 165.139C233.212 164.914 232.995 164.688 232.778 164.688Z" fill="#EDECEB"/>
<path d="M237.333 186.564C237.767 186.113 238.418 186.339 239.069 186.564C239.72 186.79 240.154 187.466 240.154 188.143C240.37 188.82 240.154 190.398 239.72 190.849C239.069 191.526 237.333 191.075 236.465 190.398C235.381 189.496 236.465 187.466 237.333 186.564Z" fill="#F9B087"/>
<path d="M250.35 164.688C251.001 164.688 257.292 177.092 258.377 183.407C258.594 184.309 258.811 184.76 258.377 185.436C258.16 185.887 254.906 181.828 254.472 181.602C254.038 181.602 249.916 174.386 249.482 172.356C249.265 169.875 249.916 164.688 250.35 164.688Z" fill="#F9B087"/>
<path d="M254.256 180.926C254.039 182.054 262.5 191.074 263.801 190.398C263.801 190.398 265.103 190.623 265.32 189.947C265.754 188.594 257.944 178.896 256.642 178.896C255.123 178.896 254.256 179.798 254.256 180.926Z" fill="#F9B087"/>
<path d="M255.557 182.054C254.689 180.926 252.52 177.543 251.435 175.288C250.784 173.935 250.133 172.356 249.266 170.778C249.266 171.454 249.266 171.905 249.266 172.356C249.483 174.386 253.822 181.603 254.255 181.603C255.774 184.084 262.283 191.075 263.584 190.398C263.584 190.398 261.415 189.496 262.499 189.271C260.33 187.241 256.425 183.182 255.557 182.054Z" fill="#F39474"/>
<path d="M254.255 171.905C252.52 167.846 250.567 164.688 250.35 164.688C249.265 164.688 249.265 169.875 249.482 172.356C249.482 173.033 249.916 173.935 250.567 175.062C251.218 174.611 252.086 173.935 252.953 173.258C253.387 172.582 253.821 172.13 254.255 171.905Z" fill="white"/>
<path d="M251.435 166.042C251.218 165.816 251.218 165.591 251.001 165.365C251.001 165.365 251.001 165.14 250.785 165.14C250.568 165.14 250.351 165.365 250.351 165.816C250.568 165.816 250.784 166.042 251.001 166.042C250.784 165.591 251.218 165.816 251.435 166.042Z" fill="#EDECEB"/>
<path d="M249.482 171.003C249.482 171.454 249.482 171.905 249.482 172.356C249.482 173.033 249.916 173.935 250.567 175.063C250.784 174.837 251.001 174.837 251.218 174.612C250.567 173.033 249.699 171.003 249.482 171.003Z" fill="#EDECEB"/>
<path d="M272.696 190.173C272.696 190.849 267.706 190.849 265.97 190.849C264.018 190.849 262.499 190.398 262.499 189.496C262.499 188.819 264.018 188.143 265.97 188.143C267.706 188.368 272.696 189.27 272.696 190.173Z" fill="#F9B087"/>
<path d="M272.479 189.947C272.045 190.398 267.489 190.173 265.754 190.173C264.235 190.173 263.151 189.722 262.5 189.271C262.283 189.496 262.283 189.496 262.283 189.722C262.283 190.398 263.801 191.075 265.754 191.075C267.706 190.849 272.696 190.849 272.479 189.947C272.696 189.947 272.479 189.947 272.479 189.947Z" fill="#F39474"/>
<path d="M242.54 166.267L242.323 152.51C242.323 152.51 236.249 148.676 235.815 152.285C235.815 152.285 233.645 162.208 238.635 161.756V164.688C238.635 164.688 239.72 166.718 241.022 166.943C242.54 167.169 242.54 166.267 242.54 166.267Z" fill="#F8A492"/>
<path d="M242.106 156.344C242.106 156.344 240.587 154.766 240.153 152.059C240.153 152.059 237.984 153.864 234.946 153.638C231.909 153.413 232.343 148 234.295 148C236.248 148 240.153 150.255 240.153 150.255C240.153 150.255 242.539 148.451 243.624 151.157C244.709 154.089 242.973 156.57 242.973 156.57L242.106 156.344Z" fill="#75271A"/>
<path d="M238.852 156.119C238.852 156.119 238.852 156.344 238.852 156.119C238.852 156.57 238.852 157.021 239.069 157.021C238.636 157.021 238.636 156.57 238.852 156.119Z" fill="#75271A"/>
<path d="M239.069 155.893C239.72 155.893 239.503 157.021 239.069 157.021C238.418 157.021 238.635 155.893 239.069 155.893Z" fill="#75271A"/>
<path d="M236.683 156.119C236.683 156.57 236.466 157.021 236.249 157.021C236.683 157.021 236.683 156.344 236.683 156.119Z" fill="#75271A"/>
<path d="M236.466 155.668C235.815 155.442 235.598 156.796 236.249 156.796C236.683 156.796 236.9 155.668 236.466 155.668Z" fill="#75271A"/>
<path d="M239.72 155.442C239.503 155.442 239.503 155.217 239.286 155.217C239.069 155.217 239.069 154.991 238.852 154.991V154.766C239.069 154.54 239.286 154.766 239.503 154.766C239.72 154.766 239.937 154.991 239.937 155.217C240.154 155.217 239.937 155.442 239.72 155.442Z" fill="#75271A"/>
<path d="M236.032 154.991C236.249 154.991 236.249 154.991 236.466 154.991C236.683 154.991 236.9 154.991 236.9 154.766V154.54C236.683 154.315 236.466 154.315 236.249 154.315C236.032 154.315 235.815 154.315 235.598 154.54C235.815 154.766 235.815 154.991 236.032 154.991Z" fill="#75271A"/>
<path d="M239.069 158.599C238.852 158.825 238.418 159.051 238.202 159.051C237.985 159.051 237.985 159.051 237.768 159.051C237.768 158.825 237.985 158.374 237.985 158.374C237.768 158.374 237.334 158.599 237.334 158.374C237.551 157.246 237.768 155.893 238.202 154.766C237.985 155.893 237.551 157.021 237.551 158.148C237.768 158.148 237.985 157.923 238.202 158.148L237.985 159.051C238.202 158.825 238.418 158.825 239.069 158.599Z" fill="#75271A"/>
<path d="M238.418 160.404C238.201 160.404 238.201 160.404 237.985 160.404C237.768 160.404 237.768 160.178 237.768 160.178C237.768 160.404 237.985 160.404 238.201 160.629C238.201 160.629 238.418 160.629 238.418 160.404Z" fill="#75271A"/>
<path d="M237.334 159.276C237.334 159.276 237.334 159.727 237.768 159.952C237.768 159.952 237.985 160.178 238.202 160.178C238.418 160.178 238.635 159.952 238.635 159.727C238.635 159.501 238.635 159.276 238.635 159.276C238.635 159.276 237.985 159.501 237.334 159.276Z" fill="#75271A"/>
<path d="M237.768 159.953C237.768 159.953 237.985 160.178 238.201 160.178C238.418 160.178 238.635 159.953 238.635 159.727C238.201 159.501 237.768 159.501 237.768 159.953Z" fill="#FF98B9"/>
<path d="M241.673 157.246C241.673 157.246 242.323 155.216 243.191 155.442C244.059 155.667 243.842 158.374 243.191 158.825C242.323 159.501 241.89 158.825 241.89 158.825L241.673 157.246Z" fill="#F8A492"/>
<path d="M243.191 156.119C242.757 156.57 242.54 157.246 242.54 157.923C242.757 157.698 242.974 157.472 243.191 157.472C242.974 157.472 242.757 157.698 242.54 157.923C242.54 158.149 242.54 158.374 242.323 158.6H242.106C242.106 157.923 242.323 156.57 243.191 156.119Z" fill="#75271A"/>
<path d="M237.117 156.57C236.9 157.472 236.032 157.923 235.164 157.697C234.296 157.472 233.862 156.344 234.296 155.442C234.73 154.54 235.381 154.089 236.249 154.314C237.117 154.54 237.333 155.442 237.117 156.57Z" stroke="#EF848E" stroke-width="0.1" stroke-miterlimit="10"/>
<path d="M241.238 156.795C241.021 157.697 240.154 158.148 239.286 157.923C238.418 157.697 237.984 156.57 238.418 155.668C238.635 154.766 239.503 154.315 240.371 154.54C241.021 154.766 241.455 155.893 241.238 156.795Z" stroke="#EF848E" stroke-width="0.1" stroke-miterlimit="10"/>
<path d="M237.333 156.118H238.201" stroke="#EF848E" stroke-width="0.1" stroke-miterlimit="10"/>
<path d="M215.422 201.674L243.408 217.01L252.52 202.125C252.737 201.674 252.52 201.223 252.086 201.223H215.422C215.205 201.223 215.205 201.674 215.422 201.674Z" fill="#FCBB03"/>
<path d="M262.717 216.784H258.161V221.52H262.717V216.784Z" fill="#5E7E8E"/>
<path d="M258.378 228.286C259.029 228.286 259.679 227.835 260.33 226.933C260.981 226.031 261.198 224.678 261.198 222.874C261.198 221.069 260.764 219.491 260.33 218.814L259.896 219.04C260.981 220.393 260.981 224.903 259.896 226.482C259.246 227.384 258.595 227.835 257.944 227.61C255.774 226.933 254.256 219.265 254.039 216.559C254.039 215.657 253.822 214.98 253.605 214.078C253.388 213.176 253.171 212.049 253.171 210.921C253.171 210.47 253.171 210.019 253.171 209.793C252.954 207.538 252.954 205.283 252.303 203.253C251.652 200.772 250.351 199.194 248.615 198.066L248.398 198.517C252.086 200.772 252.52 205.734 252.737 209.793C252.737 210.244 252.737 210.695 252.737 210.921C252.737 212.049 252.954 212.951 253.171 214.078C253.388 214.98 253.388 215.657 253.605 216.559C253.605 217.236 254.039 219.942 254.69 222.648C255.557 225.805 256.642 227.61 257.727 228.061C257.944 228.286 258.161 228.286 258.378 228.286Z" fill="#3D576B"/>
<path d="M235.382 191.751L234.08 192.653L233.646 191.977C233.646 191.751 233.646 191.526 233.863 191.526L234.514 191.075C234.731 191.075 234.948 191.075 234.948 191.3L235.382 191.751Z" fill="#6CC8C1"/>
<path d="M245.795 201.448H224.1C224.1 200.772 224.534 200.321 224.968 200.321H244.927C245.361 200.321 245.795 200.772 245.795 201.448Z" fill="#4A6372"/>
<path d="M224.968 200.321H244.927L245.361 199.87L246.88 198.742C247.097 198.517 247.097 198.291 247.314 198.066C247.314 197.615 247.531 197.164 247.531 196.938L247.314 195.585L247.097 194.683L246.88 192.879C246.446 191.751 245.578 190.849 244.71 190.849H237.551C236.9 190.849 236.032 191.075 235.382 191.526L231.476 193.781C231.043 194.006 230.609 194.232 230.175 194.683C229.741 194.909 229.307 195.36 229.09 195.585C228.656 196.036 228.005 196.487 227.571 197.164C227.354 197.389 227.354 197.389 227.137 197.615L224.968 200.321ZM236.683 195.811C236.249 195.811 236.032 194.908 236.249 194.457L237.117 193.104L237.334 192.879H237.551H244.059C244.276 192.879 244.493 193.104 244.493 193.555L244.71 194.909C244.71 195.36 244.71 195.585 244.493 195.811H244.276H236.683Z" fill="#E8F4FC"/>
<path d="M242.107 195.81H238.419C238.419 195.585 238.636 195.134 238.853 195.134H241.456C241.89 195.134 242.107 195.359 242.107 195.81Z" fill="#6CC8C1"/>
<path d="M224.968 200.321H244.927L246.88 198.968C247.097 198.742 247.097 198.517 247.314 198.291C247.314 197.84 247.531 197.389 247.531 197.164L247.314 195.811L244.71 198.066C244.493 198.291 244.059 198.517 243.842 198.517H228.873C228.439 198.517 228.222 198.066 228.222 197.615L228.656 196.036C228.005 196.713 227.354 197.389 226.704 198.066L224.968 200.321Z" fill="#6CC8C1"/>
<path d="M245.362 198.742C245.601 198.742 245.796 198.541 245.796 198.291C245.796 198.042 245.601 197.84 245.362 197.84C245.122 197.84 244.928 198.042 244.928 198.291C244.928 198.541 245.122 198.742 245.362 198.742Z" fill="#FFDD00"/>
<path opacity="0.2" d="M224.968 200.321H244.927L245.361 199.87C227.354 200.321 227.354 197.164 227.354 197.164C227.138 197.389 227.138 197.389 226.921 197.615L224.968 200.321Z" fill="#29235C"/>
<path opacity="0.5" d="M237.334 200.999H241.673H237.334C237.334 200.772 237.334 200.772 237.334 200.999Z" fill="white"/>
<path d="M234.947 195.811C236.032 196.713 241.89 195.811 243.842 195.585H236.683C236.249 195.585 236.032 194.683 236.249 194.232L237.117 192.879L237.334 192.653C237.117 192.879 233.646 194.909 234.947 195.811Z" fill="#6CC8C1"/>
<path opacity="0.5" d="M230.608 194.908C230.608 194.908 228.222 197.615 230.608 197.615C230.608 197.615 229.524 197.164 230.608 194.908Z" fill="white"/>
<path d="M247.313 197.164L248.615 197.84L248.832 198.066V198.517C248.832 198.742 248.615 198.742 248.615 198.742L247.313 198.291V197.164Z" fill="#6CC8C1"/>
<path d="M260.33 220.618C261.049 220.618 261.632 220.012 261.632 219.265C261.632 218.517 261.049 217.912 260.33 217.912C259.611 217.912 259.028 218.517 259.028 219.265C259.028 220.012 259.611 220.618 260.33 220.618Z" fill="#4A6372"/>
<path d="M214.475 254.212L215.242 255.01L264.638 203.662L263.871 202.864L214.475 254.212Z" fill="#3D576B"/>
<path d="M215.285 202.862L214.518 203.659L263.914 255.007L264.681 254.21L215.285 202.862Z" fill="#3D576B"/>
<path d="M203.707 201.9H193.293V202.802H203.707V201.9Z" fill="#3D576B"/>
<path d="M193.293 199.419H192.426V202.802H193.293V199.419Z" fill="#3D576B"/>
<path d="M204.358 204.606H280.94C281.591 204.606 282.025 204.155 282.025 203.478V202.802C282.025 202.125 281.591 201.674 280.94 201.674H204.358C203.707 201.674 203.273 202.125 203.273 202.802V203.478C203.273 204.155 203.707 204.606 204.358 204.606Z" fill="#6CC8C1"/>
<path d="M264.018 255.574C264.617 255.574 265.103 255.069 265.103 254.446C265.103 253.823 264.617 253.319 264.018 253.319C263.419 253.319 262.934 253.823 262.934 254.446C262.934 255.069 263.419 255.574 264.018 255.574Z" fill="#6CC8C1"/>
<path d="M215.205 255.574C215.804 255.574 216.29 255.069 216.29 254.446C216.29 253.823 215.804 253.319 215.205 253.319C214.606 253.319 214.12 253.823 214.12 254.446C214.12 255.069 214.606 255.574 215.205 255.574Z" fill="#6CC8C1"/>
<path d="M262.5 201.674H276.818C277.469 201.674 278.12 200.998 278.12 200.321V199.644C278.12 198.968 277.469 198.291 276.818 198.291H262.5C261.849 198.291 261.198 198.968 261.198 199.644V200.321C260.981 200.998 261.632 201.674 262.5 201.674Z" fill="white"/>
<path d="M262.5 192.202H276.818C277.469 192.202 278.12 191.526 278.12 190.849V190.173C278.12 189.496 277.469 188.82 276.818 188.82H262.5C261.849 188.82 261.198 189.496 261.198 190.173V190.849C260.981 191.526 261.632 192.202 262.5 192.202Z" fill="white"/>
<path d="M260.981 198.066H275.951C276.601 198.066 277.252 197.39 277.252 196.713V196.036C277.252 195.36 276.601 194.683 275.951 194.683H260.981C260.33 194.683 259.679 195.36 259.679 196.036V196.713C259.679 197.39 260.33 198.066 260.981 198.066Z" fill="#FFDD00"/>
<path d="M262.066 194.458H277.252C277.903 194.458 278.554 194.007 278.554 193.104V192.428C278.554 191.751 278.12 191.075 277.252 191.075H262.066C261.415 191.075 260.764 191.526 260.764 192.428V193.104C260.764 194.007 261.415 194.458 262.066 194.458Z" fill="#5E7E8E"/>
<path d="M255.557 201.674L224.1 223.55L212.601 201.674C212.385 201.449 212.601 200.998 213.035 200.998H255.557C255.774 201.223 255.774 201.449 255.557 201.674Z" fill="#FFDD00"/>
<path d="M69.4166 180.024H18V254.671H69.4166V180.024Z" fill="#9DB5C4"/>
<path d="M75.9251 180.024H24.5085V254.671H75.9251V180.024Z" fill="white"/>
<path d="M75.9251 180.024H24.5085V254.671H75.9251V180.024Z" fill="#E8F4FC"/>
<path d="M75.9251 242.719H24.5085V243.847H75.9251V242.719Z" fill="#B3C6D4"/>
<path d="M75.9251 242.719H24.5085V243.17H75.9251V242.719Z" fill="#9BB5C4"/>
<path d="M75.9251 180.024H24.5085V194.683H75.9251V180.024Z" fill="#F5FBFF"/>
<path d="M75.9251 193.555H24.5085V194.457H75.9251V193.555Z" fill="#B3C6D4"/>
<path d="M75.9251 193.555H24.5085V194.006H75.9251V193.555Z" fill="#9DB5C4"/>
<path d="M75.9251 180.024H24.5085V183.407H75.9251V180.024Z" fill="#F5FBFF"/>
<path d="M29.4983 184.534H39.6948C40.5626 184.534 41.2134 185.211 41.2134 186.113V191.751C41.2134 192.202 40.7795 192.653 40.3457 192.653H28.6305C28.1966 192.653 27.7627 192.202 27.7627 191.751V186.113C27.9796 185.211 28.6305 184.534 29.4983 184.534Z" fill="#359591"/>
<path d="M29.4984 184.534H39.9119C40.7797 184.534 41.2135 185.211 41.2135 185.887V190.398C41.2135 190.849 40.9966 191.074 40.5627 191.074H28.6306C28.1967 191.074 27.9797 190.849 27.9797 190.398V185.887C27.9797 185.211 28.6306 184.534 29.4984 184.534Z" fill="#3D576B"/>
<path d="M50.1087 191.3C51.5465 191.3 52.7121 190.088 52.7121 188.594C52.7121 187.099 51.5465 185.887 50.1087 185.887C48.6709 185.887 47.5054 187.099 47.5054 188.594C47.5054 190.088 48.6709 191.3 50.1087 191.3Z" fill="#B9CFD6"/>
<path d="M49.2409 185.887C48.3732 186.338 47.9393 187.241 47.9393 188.368C47.9393 189.947 49.024 191.074 50.5426 191.074C50.7596 191.074 50.9765 191.074 51.1935 191.074C50.7596 191.3 50.5426 191.3 50.1087 191.3C48.5901 191.3 47.5054 190.172 47.5054 188.594C47.5054 187.241 48.1562 186.338 49.2409 185.887Z" fill="#ABC1C6"/>
<path d="M50.1081 190.623C51.1864 190.623 52.0606 189.714 52.0606 188.593C52.0606 187.472 51.1864 186.564 50.1081 186.564C49.0297 186.564 48.1555 187.472 48.1555 188.593C48.1555 189.714 49.0297 190.623 50.1081 190.623Z" fill="#3D576B"/>
<path d="M50.1081 190.623C51.1864 190.623 52.0606 189.714 52.0606 188.593C52.0606 187.472 51.1864 186.564 50.1081 186.564C49.0297 186.564 48.1555 187.472 48.1555 188.593C48.1555 189.714 49.0297 190.623 50.1081 190.623Z" fill="#3D576B"/>
<path d="M49.6742 186.564C49.4572 186.789 49.2403 187.24 49.2403 187.691C49.2403 188.819 50.1081 189.721 51.1928 189.721C51.4097 189.721 51.4097 189.721 51.6267 189.721C51.1928 190.172 50.7589 190.398 50.1081 190.398C49.0233 190.398 48.1555 189.495 48.1555 188.368C48.1555 187.466 48.8064 186.789 49.6742 186.564Z" fill="#184670"/>
<path d="M36.0067 185.211H40.1287C40.1287 185.211 40.3457 185.211 40.3457 185.436V186.789C40.3457 186.789 40.3457 187.015 40.1287 187.015H36.0067C36.0067 187.015 35.7898 187.015 35.7898 186.789L36.0067 185.211C35.7898 185.436 35.7898 185.211 36.0067 185.211Z" fill="#CCD9E2"/>
<path d="M70.0675 184.534H73.3217C73.5386 184.534 73.7556 184.76 73.7556 184.985V185.887C73.7556 186.113 73.5386 186.338 73.3217 186.338H70.0675C69.8505 186.338 69.6335 186.113 69.6335 185.887V184.985C69.8505 184.76 69.8505 184.534 70.0675 184.534Z" fill="#D82156"/>
<path d="M70.0675 184.534H73.1047C73.3217 184.534 73.5386 184.76 73.5386 184.985V185.662C73.5386 185.887 73.3217 186.113 73.1047 186.113H70.0675C69.8505 186.113 69.6335 185.887 69.6335 185.662V184.985C69.8505 184.76 69.8505 184.534 70.0675 184.534Z" fill="#6CC8C1"/>
<path d="M70.0676 184.534H70.2845V185.436C70.2845 185.662 70.5015 185.887 70.7184 185.887H73.5388C73.5388 186.113 73.3218 186.113 73.1049 186.113H69.8506C69.6337 186.113 69.4167 185.887 69.4167 185.662V184.76C69.8506 184.76 69.8507 184.534 70.0676 184.534Z" fill="#359591"/>
<path d="M54.4472 185.211H55.9658C56.1828 185.211 56.1828 185.211 56.1828 185.436V185.887C56.1828 186.113 56.1828 186.113 55.9658 186.113H54.4472C54.2302 186.113 54.2302 186.113 54.2302 185.887L54.4472 185.211C54.2302 185.211 54.2302 185.211 54.4472 185.211Z" fill="#6CC8C1"/>
<path d="M54.4472 186.789H55.9658C56.1828 186.789 56.1828 186.789 56.1828 187.015V187.466C56.1828 187.691 56.1828 187.691 55.9658 187.691H54.4472C54.2302 187.691 54.2302 187.691 54.2302 187.466L54.4472 186.789C54.2302 186.789 54.2302 186.789 54.4472 186.789Z" fill="#6CC8C1"/>
<path d="M54.4472 188.368H55.9658C56.1828 188.368 56.1828 188.368 56.1828 188.593V189.044C56.1828 189.27 56.1828 189.27 55.9658 189.27H54.4472C54.2302 189.27 54.2302 189.27 54.2302 189.044L54.4472 188.368C54.2302 188.368 54.2302 188.368 54.4472 188.368Z" fill="#6CC8C1"/>
<path d="M54.4472 189.947H55.9658C56.1828 189.947 56.1828 189.947 56.1828 190.173V190.624C56.1828 190.849 56.1828 190.849 55.9658 190.849H54.4472C54.2302 190.849 54.2302 190.849 54.2302 190.624L54.4472 189.947C54.2302 189.947 54.2302 189.947 54.4472 189.947Z" fill="#6CC8C1"/>
<path d="M54.4472 191.526H55.9658C56.1828 191.526 56.1828 191.526 56.1828 191.751V192.202C56.1828 192.428 56.1828 192.428 55.9658 192.428H54.4472C54.2302 192.428 54.2302 192.428 54.2302 192.202L54.4472 191.526C54.2302 191.526 54.2302 191.526 54.4472 191.526Z" fill="#6CC8C1"/>
<path d="M44.0339 185.211H45.5525C45.7694 185.211 45.7694 185.211 45.7694 185.436V185.887C45.7694 186.113 45.7694 186.113 45.5525 186.113H44.0339C43.8169 186.113 43.8169 186.113 43.8169 185.887L44.0339 185.211C43.8169 185.211 44.0339 185.211 44.0339 185.211Z" fill="#6CC8C1"/>
<path d="M44.0334 186.789H45.552C45.7689 186.789 45.7689 186.789 45.7689 187.015V187.466C45.7689 187.691 45.7689 187.691 45.552 187.691H44.0334C43.8164 187.691 43.8164 187.691 43.8164 187.466L44.0334 186.789C43.8164 186.789 44.0334 186.789 44.0334 186.789Z" fill="#6CC8C1"/>
<path d="M44.0334 188.368H45.552C45.7689 188.368 45.7689 188.368 45.7689 188.593V189.044C45.7689 189.27 45.7689 189.27 45.552 189.27H44.0334C43.8164 189.27 43.8164 189.27 43.8164 189.044L44.0334 188.368C43.8164 188.368 44.0334 188.368 44.0334 188.368Z" fill="#6CC8C1"/>
<path d="M44.0334 189.947H45.552C45.7689 189.947 45.7689 189.947 45.7689 190.173V190.624C45.7689 190.849 45.7689 190.849 45.552 190.849H44.0334C43.8164 190.849 43.8164 190.849 43.8164 190.624L44.0334 189.947C43.8164 189.947 44.0334 189.947 44.0334 189.947Z" fill="#6CC8C1"/>
<path d="M44.0334 191.526H45.552C45.7689 191.526 45.7689 191.526 45.7689 191.751V192.202C45.7689 192.428 45.7689 192.428 45.552 192.428H44.0334C43.8164 192.428 43.8164 192.428 43.8164 192.202L44.0334 191.526C43.8164 191.526 44.0334 191.526 44.0334 191.526Z" fill="#6CC8C1"/>
<path d="M72.4541 191.3C73.0532 191.3 73.5389 190.795 73.5389 190.172C73.5389 189.55 73.0532 189.045 72.4541 189.045C71.855 189.045 71.3694 189.55 71.3694 190.172C71.3694 190.795 71.855 191.3 72.4541 191.3Z" fill="#3D576B"/>
<path d="M75.9251 253.544H24.5085V254.671H75.9251V253.544Z" fill="#B3C6D4"/>
<path d="M31.0168 246.552H42.2981C42.732 246.552 42.9489 246.778 42.9489 247.229V254.897H30.366V247.229C30.366 246.778 30.5829 246.552 31.0168 246.552Z" fill="#B3C6D4"/>
<path d="M32.1015 247.906H41.2133C41.4303 247.906 41.8642 248.132 41.8642 248.583V254.897H31.4507V248.583C31.4507 248.132 31.8846 247.906 32.1015 247.906Z" fill="#8BA6B6"/>
<path d="M32.7523 249.259H40.7794C40.7794 249.259 40.9964 249.259 40.9964 249.484V249.71C40.9964 249.71 40.9964 249.935 40.7794 249.935H32.7523C32.7523 249.935 32.5354 249.935 32.5354 249.71L32.7523 249.259C32.5354 249.259 32.7523 249.259 32.7523 249.259Z" fill="#A7BCC9"/>
<path d="M32.7523 250.837H40.7794C40.7794 250.837 40.9964 250.837 40.9964 251.063V251.288C40.9964 251.288 40.9964 251.514 40.7794 251.514H32.7523C32.7523 251.514 32.5354 251.514 32.5354 251.288L32.7523 250.837C32.5354 250.837 32.7523 250.837 32.7523 250.837Z" fill="#A7BCC9"/>
<path d="M32.7523 252.417H40.7794C40.7794 252.417 40.9964 252.416 40.9964 252.642V252.868C40.9964 252.868 40.9964 253.093 40.7794 253.093H32.7523C32.7523 253.093 32.5354 253.093 32.5354 252.868L32.7523 252.417C32.5354 252.417 32.7523 252.417 32.7523 252.417Z" fill="#A7BCC9"/>
<path d="M75.9251 182.505H24.5085V183.181H75.9251V182.505Z" fill="#B3C6D4"/>
<path d="M75.9251 182.505H24.5085V182.956H75.9251V182.505Z" fill="#9DB5C4"/>
<path d="M29.4984 184.534C29.7153 184.76 29.7153 185.211 29.9323 185.662C30.8001 188.368 33.4034 189.721 34.4882 189.947C35.139 190.172 36.4407 190.398 39.0441 190.398C39.6949 190.398 40.3458 190.398 41.2135 190.398V191.074H27.9797V186.113C27.9797 185.211 28.6306 184.534 29.4984 184.534Z" fill="#144566"/>
<path d="M51.2832 187.558C51.0126 187.147 50.5527 186.985 50.256 187.196C49.9594 187.407 49.9383 187.911 50.2089 188.322C50.4796 188.733 50.9395 188.896 51.2361 188.685C51.5328 188.474 51.5539 187.969 51.2832 187.558Z" fill="#29748E"/>
<path d="M72.4541 191.3C73.0532 191.3 73.5389 190.795 73.5389 190.172C73.5389 189.55 73.0532 189.045 72.4541 189.045C71.855 189.045 71.3694 189.55 71.3694 190.172C71.3694 190.795 71.855 191.3 72.4541 191.3Z" fill="#3D576B"/>
<path d="M72.2372 189.045C72.0202 189.27 72.0202 189.496 72.0202 189.947C72.0202 190.623 72.4541 191.074 73.105 191.074H73.3219C73.105 191.3 72.888 191.525 72.4541 191.525C71.8033 191.525 71.3694 191.074 71.3694 190.398C71.3694 189.721 71.8033 189.27 72.2372 189.045Z" fill="#2D4351"/>
<path d="M73.3753 189.795C73.2421 189.587 72.9726 189.532 72.7734 189.67C72.5742 189.809 72.5207 190.089 72.6539 190.296C72.7871 190.503 73.0565 190.559 73.2557 190.42C73.4549 190.282 73.5085 190.002 73.3753 189.795Z" fill="#678699"/>
<path d="M68.7658 190.849C69.1253 190.849 69.4167 190.546 69.4167 190.172C69.4167 189.798 69.1253 189.495 68.7658 189.495C68.4064 189.495 68.115 189.798 68.115 190.172C68.115 190.546 68.4064 190.849 68.7658 190.849Z" fill="#B3C6D4"/>
<path d="M68.7658 189.495C68.5489 189.721 68.5489 189.721 68.5489 189.946C68.5489 190.397 68.9828 190.623 69.1997 190.623H69.4167C69.1997 190.848 68.9828 190.849 68.7658 190.849C68.3319 190.849 68.115 190.397 68.115 190.172C68.115 189.946 68.3319 189.495 68.7658 189.495Z" fill="#A6BCC9"/>
<path d="M69.2436 189.956C69.1104 189.749 68.9216 189.638 68.822 189.707C68.7224 189.776 68.7497 190 68.8829 190.207C69.016 190.414 69.2048 190.526 69.3044 190.457C69.404 190.387 69.3767 190.163 69.2436 189.956Z" fill="#CCD9E2"/>
<path d="M65.9453 190.849C66.3047 190.849 66.5961 190.546 66.5961 190.172C66.5961 189.798 66.3047 189.495 65.9453 189.495C65.5858 189.495 65.2944 189.798 65.2944 190.172C65.2944 190.546 65.5858 190.849 65.9453 190.849Z" fill="#B3C6D4"/>
<path d="M65.7285 189.496C65.5115 189.722 65.5115 189.722 65.5115 189.947C65.5115 190.398 65.9454 190.624 66.1624 190.624H66.3793C66.1624 190.849 65.9454 190.849 65.7285 190.849C65.2946 190.849 65.0776 190.398 65.0776 190.173C65.2946 189.947 65.5115 189.496 65.7285 189.496Z" fill="#A6BCC9"/>
<path d="M66.3695 189.927C66.2363 189.72 66.0476 189.609 65.948 189.678C65.8484 189.747 65.8757 189.971 66.0088 190.178C66.142 190.385 66.3307 190.497 66.4303 190.428C66.5299 190.358 66.5027 190.134 66.3695 189.927Z" fill="#CCD9E2"/>
<path d="M63.125 190.849C63.4844 190.849 63.7758 190.546 63.7758 190.172C63.7758 189.798 63.4844 189.495 63.125 189.495C62.7655 189.495 62.4741 189.798 62.4741 190.172C62.4741 190.546 62.7655 190.849 63.125 190.849Z" fill="#B3C6D4"/>
<path d="M62.9079 189.496C62.691 189.722 62.691 189.722 62.691 189.947C62.691 190.398 63.1249 190.624 63.3418 190.624H63.5588C63.3418 190.849 63.1249 190.849 62.9079 190.849C62.474 190.849 62.2571 190.398 62.2571 190.173C62.474 189.947 62.691 189.496 62.9079 189.496Z" fill="#A6BCC9"/>
<path d="M63.4987 189.899C63.3655 189.692 63.1768 189.58 63.0772 189.65C62.9776 189.719 63.0048 189.943 63.138 190.15C63.2712 190.357 63.4599 190.469 63.5595 190.4C63.6591 190.33 63.6319 190.106 63.4987 189.899Z" fill="#CCD9E2"/>
<path d="M71.1525 184.76H73.3219C73.3219 184.76 73.5389 184.76 73.5389 184.985C73.5389 184.985 73.5389 185.211 73.3219 185.211H71.1525C70.9355 185.211 70.9355 184.985 71.1525 184.76C70.9355 184.985 70.9355 184.76 71.1525 184.76Z" fill="#CCD9E2"/>
<path d="M75.9251 254.22H24.5085V254.671H75.9251V254.22Z" fill="#8BA6B6"/>
<path opacity="0.07" d="M30.5831 233.923C30.5831 240.915 36.0068 246.778 42.9491 246.778H75.9251V254.897H24.5085V180.249H30.8L30.5831 233.923Z" fill="#082B72"/>
<path d="M50.1082 237.081C61.0115 237.081 69.8504 227.893 69.8504 216.558C69.8504 205.224 61.0115 196.036 50.1082 196.036C39.2049 196.036 30.366 205.224 30.366 216.558C30.366 227.893 39.2049 237.081 50.1082 237.081Z" fill="#B3C6D4"/>
<path d="M50.1082 237.081C61.0115 237.081 69.8504 227.893 69.8504 216.558C69.8504 205.224 61.0115 196.036 50.1082 196.036C39.2049 196.036 30.366 205.224 30.366 216.558C30.366 227.893 39.2049 237.081 50.1082 237.081Z" fill="#6CC8C1"/>
<path opacity="0.3" d="M46.2035 196.487C37.9595 198.968 32.1019 206.861 32.1019 216.107C32.1019 227.384 40.9968 236.63 51.8442 236.63C53.1459 236.63 54.4476 236.404 55.5323 236.179C53.7967 236.63 51.8442 237.081 49.8917 237.081C39.0443 237.081 30.1494 227.835 30.1494 216.558C30.3664 206.636 37.0917 198.291 46.2035 196.487Z" fill="white"/>
<path d="M50.1085 232.796C58.7353 232.796 65.7288 225.526 65.7288 216.558C65.7288 207.59 58.7353 200.321 50.1085 200.321C41.4817 200.321 34.4883 207.59 34.4883 216.558C34.4883 225.526 41.4817 232.796 50.1085 232.796Z" fill="#3D576B"/>
<path d="M50.1081 229.639C57.6566 229.639 63.7758 223.379 63.7758 215.657C63.7758 207.934 57.6566 201.674 50.1081 201.674C42.5597 201.674 36.4404 207.934 36.4404 215.657C36.4404 223.379 42.5597 229.639 50.1081 229.639Z" fill="#144B63"/>
<path d="M50.108 227.383C55.3799 227.383 59.6537 222.133 59.6537 215.656C59.6537 209.18 55.3799 203.929 50.108 203.929C44.836 203.929 40.5623 209.18 40.5623 215.656C40.5623 222.133 44.836 227.383 50.108 227.383Z" fill="#3D576B"/>
<path d="M46.2034 221.52C48.1559 221.069 50.9762 219.941 55.0982 220.166C58.1355 220.166 60.5219 220.843 62.2575 221.52C60.088 226.256 55.3152 229.638 49.8915 229.638C44.0339 229.638 39.0441 225.804 37.0916 220.392C40.9966 221.971 44.0339 221.971 46.2034 221.52Z" fill="#61AFBC"/>
<path opacity="0.18" d="M45.5522 202.35C44.4675 204.38 43.8166 206.861 43.8166 209.341C43.8166 217.46 50.1081 224 57.9182 224C59.2199 224 60.3047 223.775 61.3894 223.549C59.003 227.383 54.664 229.864 50.1081 229.864C42.515 229.864 36.4404 223.549 36.4404 215.881C36.4404 209.567 40.1285 204.38 45.5522 202.35Z" fill="#0C123A"/>
<path opacity="0.27" d="M59.0371 208.814C57.3491 205.945 54.7377 204.41 53.2045 205.385C51.6712 206.36 51.7967 209.476 53.4848 212.344C55.1728 215.213 57.7842 216.749 59.3174 215.774C60.8507 214.799 60.7252 211.683 59.0371 208.814Z" fill="white"/>
<path d="M61.8234 202.125C62.0403 201.674 62.4742 201.674 62.9081 201.899C63.5589 202.576 64.2098 203.252 64.8606 203.929C65.5115 204.831 66.1623 205.733 66.3793 206.861C66.5962 207.312 66.3793 207.763 65.9454 207.763C65.5115 207.988 65.2945 207.763 65.0776 207.312C64.6437 206.41 64.2098 205.507 63.5589 204.605C63.125 203.929 62.4742 203.252 61.8234 202.801C61.6064 203.027 61.6064 202.576 61.8234 202.125Z" fill="#CCD9E2"/>
<path d="M61.1724 230.315C62.691 228.962 63.7758 227.609 64.8605 225.805C65.5113 224.677 67.2469 221.52 67.4639 217.009C67.4639 215.43 67.4639 213.852 67.2469 212.273C67.2469 211.822 67.4639 211.597 67.6808 211.371C68.1147 211.371 68.5486 211.597 68.5486 212.048C68.7656 213.852 68.9825 215.43 68.9825 217.235C68.7656 221.971 67.03 225.353 66.1622 226.707C65.0775 228.511 63.7758 230.089 62.2571 231.443C62.0402 231.668 61.3893 231.668 61.1724 231.443C60.7385 230.992 60.9554 230.54 61.1724 230.315Z" fill="#CCD9E2"/>
<path d="M85.0367 251.74L84.1689 230.541C84.1689 228.962 82.8672 227.834 81.5656 227.834H81.3486V225.579H75.9249V227.834H75.708C74.1893 227.834 73.1046 228.962 73.1046 230.541L72.2368 251.74C72.2368 253.318 73.3215 254.671 74.8402 254.671H82.2164C83.952 254.671 85.2537 253.318 85.0367 251.74Z" fill="#6CC8C1"/>
<path d="M81.5654 224.677C81.3485 223.549 80.6976 222.647 79.6129 222.647H77.8773C76.7926 222.647 75.9248 223.549 75.9248 224.677H75.7078C75.4909 224.677 75.2739 224.902 75.2739 225.128C75.2739 225.353 75.4909 225.579 75.7078 225.579H81.5654C81.7824 225.579 81.9993 225.353 81.9993 225.128C81.9993 224.902 81.7824 224.677 81.5654 224.677Z" fill="#FFDD00"/>
<path d="M78.7452 251.965C81.1415 251.965 83.0842 250.652 83.0842 249.033C83.0842 247.414 81.1415 246.101 78.7452 246.101C76.3489 246.101 74.4062 247.414 74.4062 249.033C74.4062 250.652 76.3489 251.965 78.7452 251.965Z" fill="white"/>
<path d="M80.9148 245.425C81.8733 245.425 82.6504 244.819 82.6504 244.072C82.6504 243.324 81.8733 242.719 80.9148 242.719C79.9563 242.719 79.1792 243.324 79.1792 244.072C79.1792 244.819 79.9563 245.425 80.9148 245.425Z" fill="white"/>
<path d="M79.4309 241.133C79.9093 241.103 80.2792 240.775 80.2572 240.403C80.2352 240.03 79.8296 239.752 79.3513 239.782C78.8729 239.813 78.5029 240.14 78.5249 240.513C78.5469 240.886 78.9526 241.164 79.4309 241.133Z" fill="white"/>
<path d="M81.7827 233.472H75.7082C75.2743 233.472 75.0574 233.247 75.0574 232.796V232.345C75.0574 231.893 75.2743 231.668 75.7082 231.668H81.7827C82.2166 231.668 82.4336 231.893 82.4336 232.345V232.796C82.4336 233.247 82.2166 233.472 81.7827 233.472Z" fill="white"/>
<path d="M95.8841 231.217L93.4977 229.188C93.0638 228.737 92.6299 228.511 91.9791 228.511H86.7723C85.4706 228.511 84.6029 229.413 84.3859 230.766L83.0842 252.191C83.0842 253.544 83.952 254.672 85.4707 254.672H94.3655C95.6672 254.672 96.7519 253.544 96.7519 252.191V233.021C96.535 232.345 96.318 231.668 95.8841 231.217ZM94.7994 244.072C94.7994 244.749 93.9316 244.974 93.7147 244.298L90.8943 236.404C90.6774 235.953 90.8943 235.728 91.1113 235.502L93.9316 234.149C94.3655 233.924 94.5824 234.375 94.5824 234.826V244.072H94.7994Z" fill="#E8F4FC"/>
<path d="M91.762 228.511H86.1213V228.285C86.1213 227.608 86.7722 226.932 87.423 226.932H90.4603C91.1111 226.932 91.762 227.608 91.762 228.285V228.511Z" fill="#6CC8C1"/>
<path d="M91.1109 226.932H87.2058V226.481C87.2058 225.579 87.8567 224.902 88.7245 224.902H89.5922C90.46 224.902 91.1109 225.579 91.1109 226.481V226.932Z" fill="#6CC8C1"/>
<path d="M86.3384 236.855L85.2537 250.387C85.2537 250.838 85.4706 251.063 85.9045 251.063H93.4977C93.9316 251.063 94.1485 250.612 94.1485 250.161L89.3757 236.63C89.3757 236.404 89.1587 236.179 88.7248 236.179H86.9892C86.5553 236.404 86.3384 236.63 86.3384 236.855Z" fill="#B6CCCA"/>
<path d="M92.1959 232.119H86.7722C86.5552 232.119 86.1213 231.894 86.1213 231.443V231.217C86.1213 230.992 86.3383 230.541 86.7722 230.541H92.1959C92.4128 230.541 92.8467 230.766 92.8467 231.217V231.443C92.8467 231.894 92.6298 232.119 92.1959 232.119Z" fill="#FFDD00"/>
<path d="M91.5454 249.71H86.7725C86.5556 249.71 86.3386 249.484 86.3386 249.259V249.033C86.3386 248.808 86.5556 248.582 86.7725 248.582H91.5454C91.7623 248.582 91.9793 248.808 91.9793 249.033V249.259C91.7623 249.71 91.7623 249.71 91.5454 249.71Z" fill="#FFDD00"/>
<path d="M89.8098 248.131H86.7725C86.5556 248.131 86.3386 247.906 86.3386 247.68V247.455C86.3386 247.229 86.5556 247.004 86.7725 247.004H89.8098C90.0267 247.004 90.2437 247.229 90.2437 247.455V247.68C90.2437 247.906 90.0267 248.131 89.8098 248.131Z" fill="#FFDD00"/>
<path d="M155.545 244.974C155.545 244.974 165.741 233.022 161.403 232.119C157.064 231.217 154.46 233.924 154.46 233.924C154.46 233.924 151.206 226.481 147.735 228.737C144.264 231.217 139.274 243.17 139.925 245.425C140.793 247.455 155.545 244.974 155.545 244.974Z" fill="#3D576B"/>
<path d="M136.453 243.847L153.158 240.464C153.158 240.464 153.158 234.6 151.423 233.924C149.687 233.247 137.321 229.413 135.369 232.345C133.416 235.277 136.453 243.847 136.453 243.847Z" fill="#FFDD00"/>
<path d="M147.301 239.562C147.301 239.562 159.016 240.239 159.45 243.847C159.884 247.455 158.799 251.515 158.799 251.515L146.216 249.259L147.301 239.562Z" fill="#3D576B"/>
<path d="M159.666 245.876C159.666 245.876 154.026 242.042 148.602 248.132C143.178 253.995 141.226 255.123 141.226 255.123H157.714L159.666 245.876Z" fill="#FFEC00"/>
<path d="M141.876 234.826C141.876 234.826 132.548 247.906 135.802 253.544C135.802 253.544 143.178 257.378 147.951 254.446C152.724 251.515 149.253 236.179 149.253 236.179L141.876 234.826Z" fill="white"/>
<path d="M142.961 242.043H141.877V243.847H142.961V242.043Z" fill="#6CC8C1"/>
<path d="M142.961 245.426H141.877V247.23H142.961V245.426Z" fill="#6CC8C1"/>
<path d="M142.961 252.191H141.877V253.996H142.961V252.191Z" fill="#6CC8C1"/>
<path d="M142.961 248.809H141.877V250.613H142.961V248.809Z" fill="#6CC8C1"/>
<path d="M142.961 238.885H141.877V240.69H142.961V238.885Z" fill="#6CC8C1"/>
<path d="M145.348 245.426H144.263V247.23H145.348V245.426Z" fill="#6CC8C1"/>
<path d="M145.348 248.809H144.263V250.613H145.348V248.809Z" fill="#6CC8C1"/>
<path d="M145.348 252.191H144.263V253.996H145.348V252.191Z" fill="#6CC8C1"/>
<path d="M145.348 238.885H144.263V240.69H145.348V238.885Z" fill="#6CC8C1"/>
<path d="M145.348 242.043H144.263V243.847H145.348V242.043Z" fill="#6CC8C1"/>
<path d="M147.734 252.191H146.65V253.996H147.734V252.191Z" fill="#6CC8C1"/>
<path d="M147.734 242.043H146.65V243.847H147.734V242.043Z" fill="#6CC8C1"/>
<path d="M147.734 245.426H146.65V247.23H147.734V245.426Z" fill="#6CC8C1"/>
<path d="M147.734 248.809H146.65V250.613H147.734V248.809Z" fill="#6CC8C1"/>
<path d="M147.734 238.885H146.65V240.69H147.734V238.885Z" fill="#6CC8C1"/>
<path d="M150.338 238.885H149.254V240.69H150.338V238.885Z" fill="#6CC8C1"/>
<path d="M150.338 252.191H149.254V253.996H150.338V252.191Z" fill="#6CC8C1"/>
<path d="M150.338 242.043H149.254V243.847H150.338V242.043Z" fill="#6CC8C1"/>
<path d="M150.338 248.809H149.254V250.613H150.338V248.809Z" fill="#6CC8C1"/>
<path d="M150.338 245.426H149.254V247.23H150.338V245.426Z" fill="#6CC8C1"/>
<path d="M152.724 238.885H151.639V240.69H152.724V238.885Z" fill="#6CC8C1"/>
<path d="M152.724 245.426H151.639V247.23H152.724V245.426Z" fill="#6CC8C1"/>
<path d="M152.724 252.191H151.639V253.996H152.724V252.191Z" fill="#6CC8C1"/>
<path d="M152.724 242.043H151.639V243.847H152.724V242.043Z" fill="#6CC8C1"/>
<path d="M152.724 248.809H151.639V250.613H152.724V248.809Z" fill="#6CC8C1"/>
<path d="M155.111 252.191H154.026V253.996H155.111V252.191Z" fill="#6CC8C1"/>
<path d="M155.111 238.885H154.026V240.69H155.111V238.885Z" fill="#6CC8C1"/>
<path d="M155.111 242.043H154.026V243.847H155.111V242.043Z" fill="#6CC8C1"/>
<path d="M155.111 248.809H154.026V250.613H155.111V248.809Z" fill="#6CC8C1"/>
<path d="M155.111 245.426H154.026V247.23H155.111V245.426Z" fill="#6CC8C1"/>
<path d="M157.497 252.191H156.412V253.996H157.497V252.191Z" fill="#6CC8C1"/>
<path d="M157.497 242.043H156.412V243.847H157.497V242.043Z" fill="#6CC8C1"/>
<path d="M157.497 248.809H156.412V250.613H157.497V248.809Z" fill="#6CC8C1"/>
<path d="M157.497 245.426H156.412V247.23H157.497V245.426Z" fill="#6CC8C1"/>
<path d="M157.497 238.885H156.412V240.69H157.497V238.885Z" fill="#6CC8C1"/>
<path d="M158.799 247.23H159.449L159.666 245.426H158.799V247.23Z" fill="#6CC8C1"/>
<path d="M158.799 242.043V243.847H159.883L160.1 243.171V242.043H158.799Z" fill="#6CC8C1"/>
<path d="M158.799 250.613H159.232L159.449 248.809H158.799V250.613Z" fill="#6CC8C1"/>
<path d="M158.799 252.868L159.016 252.191H158.799V252.868Z" fill="#6CC8C1"/>
<path d="M159.883 238.885H158.799V240.69H159.883V238.885Z" fill="#6CC8C1"/>
<path d="M140.575 242.043H139.491V243.847H140.575V242.043Z" fill="#6CC8C1"/>
<path d="M140.575 245.426H139.491V247.23H140.575V245.426Z" fill="#6CC8C1"/>
<path d="M140.575 238.885H139.491V240.69H140.575V238.885Z" fill="#6CC8C1"/>
<path d="M140.575 252.191H139.491V253.996H140.575V252.191Z" fill="#6CC8C1"/>
<path d="M140.575 248.809H139.491V250.613H140.575V248.809Z" fill="#6CC8C1"/>
<path d="M138.189 245.426H137.104V247.23H138.189V245.426Z" fill="#6CC8C1"/>
<path d="M138.189 248.809H137.104V250.613H138.189V248.809Z" fill="#6CC8C1"/>
<path d="M138.189 242.043H137.104V243.847H138.189V242.043Z" fill="#6CC8C1"/>
<path d="M138.189 252.191H137.104V253.996H138.189V252.191Z" fill="#6CC8C1"/>
<path d="M138.189 238.885H137.104V240.69H138.189V238.885Z" fill="#6CC8C1"/>
<path d="M135.802 248.809H135.152L135.369 250.613H135.802V248.809Z" fill="#6CC8C1"/>
<path d="M135.585 252.191L135.802 252.868V252.191H135.585Z" fill="#6CC8C1"/>
<path d="M135.803 242.043H134.501V243.171L134.718 243.847H135.803V242.043Z" fill="#6CC8C1"/>
<path d="M135.586 238.885H134.501V240.69H135.586V238.885Z" fill="#6CC8C1"/>
<path d="M135.802 245.426H134.935L135.152 247.23H135.802V245.426Z" fill="#6CC8C1"/>
<path d="M156.413 253.996H155.111H154.026H152.725H151.64H150.338H149.253H147.952H146.867H145.565H144.264H142.962H141.877H140.575H139.491H138.189H137.104H136.02C136.236 254.672 136.67 254.898 137.104 254.898H157.931C158.365 254.898 158.799 254.447 159.016 253.996H157.931H156.413Z" fill="#6CC8C1"/>
<path d="M157.497 250.613H156.412H155.11H154.026H152.724H151.639H150.338H149.253H147.951H146.649H145.348H144.263H142.961H141.877H140.575H139.49H138.188H137.104H135.802H135.368L135.585 252.191H135.802H137.104H138.188H139.49H140.575H141.877H142.961H144.263H145.348H146.649H147.951H149.253H150.338H151.639H152.724H154.026H155.11H156.412H157.497H158.799H159.015L159.232 250.613H158.799H157.497Z" fill="#6CC8C1"/>
<path d="M157.497 247.23H156.412H155.111H154.026H152.724H151.64H150.338H149.253H147.952H146.65H145.348H144.263H142.962H141.877H140.575H139.491H138.189H137.104H135.802H135.152V248.809H135.802H137.104H138.189H139.491H140.575H141.877H142.962H144.263H145.348H146.65H147.952H149.253H150.338H151.64H152.724H154.026H155.111H156.412H157.497H158.799H159.45V247.23H158.799H157.497Z" fill="#6CC8C1"/>
<path d="M157.497 243.847H156.412H155.111H154.026H152.724H151.639H150.338H149.253H147.951H146.65H145.348H144.263H142.962H141.877H140.575H139.49H138.189H137.104H135.802H134.718L134.934 245.426H135.802H137.104H138.189H139.49H140.575H141.877H142.962H144.263H145.348H146.65H147.951H149.253H150.338H151.639H152.724H154.026H155.111H156.412H157.497H158.799H159.667L159.883 243.847H158.799H157.497Z" fill="#6CC8C1"/>
<path d="M158.799 240.464H157.497H156.412H155.111H154.026H152.724H151.64H150.338H149.253H147.951H146.65H145.348H144.263H142.962H141.877H140.575H139.49H138.189H137.104H135.802H134.501H134.284L134.501 242.043H135.802H137.104H138.189H139.49H140.575H141.877H142.962H144.263H145.348H146.65H147.951H149.253H150.338H151.64H152.724H154.026H155.111H156.412H157.497H158.799H160.1L160.317 240.464H160.1H158.799Z" fill="#6CC8C1"/>
<path d="M133.85 237.532L134.067 238.886H134.5H135.802H137.104H138.189H139.49H140.575H141.877H142.961H144.263H145.348H146.65H147.951H149.253H150.338H151.639H152.724H154.026H155.11H156.412H157.497H158.799H160.1H160.534L160.751 237.532H133.85Z" fill="#6CC8C1"/>
<path d="M161.402 236.63C161.185 236.405 160.968 236.179 160.751 236.179H134.067C133.85 236.179 133.633 236.405 133.416 236.63C133.199 236.856 133.199 237.081 133.199 237.532V237.758L133.416 238.885L135.152 253.77C135.152 253.995 135.152 254.221 135.368 254.446C135.585 255.574 136.453 256.251 137.321 256.251H158.148C159.016 256.251 159.667 255.574 160.1 254.446C160.1 254.221 160.1 253.995 160.317 253.77L162.053 238.885L162.27 237.758V237.532C161.619 237.307 161.619 236.856 161.402 236.63ZM159.667 238.885L157.931 253.319C157.931 253.544 157.931 253.544 157.714 253.544H136.887C136.887 253.544 136.67 253.544 136.67 253.319L134.935 238.885H159.667Z" fill="#6CC8C1"/>
<path d="M163.138 236.179V236.404C163.138 237.081 162.704 237.532 162.053 237.532H132.765C132.114 237.532 131.68 237.081 131.68 236.404V236.179V235.953C131.897 235.502 132.331 235.051 132.765 235.051H162.053C162.487 235.051 162.921 235.502 163.138 235.953C163.138 235.953 163.138 235.953 163.138 236.179Z" fill="#6CC8C1"/>
<path opacity="0.2" d="M161.619 237.532C161.619 237.532 161.619 237.758 161.619 237.532L161.402 238.886H132.982L132.765 237.758V237.532H161.619Z" fill="#29235C"/>
<path opacity="0.2" d="M159.667 254.446C159.45 255.574 158.582 256.25 157.714 256.25H136.887C136.019 256.25 135.368 255.574 134.935 254.446H159.667Z" fill="#29235C"/>
<path d="M140.575 235.051C140.575 235.051 149.687 230.766 151.423 235.051C152.074 236.405 152.291 237.532 152.291 238.209C152.508 243.621 140.792 235.051 140.575 235.051Z" fill="white"/>
<path opacity="0.2" d="M140.575 235.051C140.792 235.051 150.555 241.591 152.291 238.209C152.508 243.621 140.792 235.051 140.575 235.051Z" fill="#29235C"/>
<path d="M269.622 260H19.378C18.0976 260 17 259 17 258C17 257 18.0976 256 19.378 256H269.622C270.902 256 272 257 272 258C272 259 270.902 260 269.622 260Z" fill="#5C8097"/>
<path d="M194.162 166.943C195.24 166.943 196.114 166.034 196.114 164.913C196.114 163.793 195.24 162.884 194.162 162.884C193.083 162.884 192.209 163.793 192.209 164.913C192.209 166.034 193.083 166.943 194.162 166.943Z" fill="url(#paint0_linear)"/>
<path opacity="0.19" d="M126.908 204.831C119.315 205.508 112.59 204.831 104.996 204.155C103.912 194.683 103.695 185.662 104.346 175.964C107.383 173.258 110.854 170.777 114.542 169.424C115.41 169.424 115.844 169.65 116.712 169.424C120.4 171.228 123.871 173.033 126.908 175.739C127.776 184.985 128.21 195.585 126.908 204.831Z" fill="#6CC8C1"/>
<path d="M116.06 175.965C117.579 175.288 118.88 173.935 119.965 172.356C118.664 172.356 117.362 172.356 116.277 172.356C114.758 172.356 113.023 172.356 111.721 171.68C112.372 173.709 114.108 175.288 116.06 175.965Z" fill="#F19679"/>
<path d="M115.844 170.101C115.844 169.424 116.278 168.522 116.929 168.071C117.579 167.62 118.23 167.169 118.664 166.492C119.098 165.59 119.098 164.688 118.664 164.012C118.23 163.335 117.362 162.659 116.495 162.659C115.844 162.433 114.976 162.659 114.325 162.884C113.674 163.335 113.24 164.012 113.023 164.688C113.023 165.365 113.24 166.492 114.108 166.718C114.325 166.718 114.325 166.718 114.325 166.718C114.542 166.492 114.108 166.041 114.108 165.59C114.108 165.139 114.108 164.688 114.325 164.463C114.759 163.786 115.627 163.786 116.278 164.237C116.928 164.688 117.145 165.59 116.929 166.267C116.712 166.944 116.061 167.62 115.627 168.297C115.193 168.973 114.759 169.65 114.759 170.326C115.41 170.101 115.627 170.101 115.844 170.101Z" fill="#363347"/>
<path d="M110.854 172.582L115.41 169.424L120.399 172.356L119.966 172.807L115.627 170.777L111.288 172.807L110.854 172.582Z" fill="#363347"/>
<path d="M126.691 196.262C125.606 196.487 124.522 196.262 123.437 196.262C123.22 196.262 123.22 196.262 123.003 196.262C123.003 197.84 123.003 199.644 123.003 201.223C118.664 201.9 113.891 201.9 109.552 201.223C109.552 199.87 109.552 198.066 109.335 196.938C109.118 196.938 109.118 196.938 108.901 196.938C107.6 196.938 106.081 196.713 104.779 196.487C104.345 189.947 104.345 183.181 104.779 176.416C106.732 174.386 108.901 172.807 111.288 171.68C112.372 173.033 113.674 174.16 114.976 175.288C116.711 174.611 118.447 173.484 119.532 171.905C121.918 172.807 123.871 174.16 125.606 175.965C126.691 182.505 126.908 189.496 126.691 196.262Z" fill="url(#paint1_linear)"/>
<path d="M110.853 173.032C111.07 175.062 111.938 177.092 113.023 178.67C113.674 177.768 114.542 176.866 115.409 175.964C116.494 176.641 117.145 177.543 118.013 178.445C118.881 176.641 119.748 175.062 120.399 173.032C119.965 175.062 119.314 177.092 118.23 178.896C117.579 177.994 116.494 177.092 115.626 176.19C114.759 177.317 113.891 178.219 113.023 179.347C111.504 177.543 110.853 175.287 110.853 173.032ZM109.335 180.925C109.118 186.112 109.118 191.299 109.118 196.486C109.118 196.486 109.118 196.712 109.118 196.938C109.335 196.938 109.335 196.938 109.552 196.938C109.986 191.299 109.769 186.564 109.335 180.925ZM123.436 196.261C123.22 191.074 123.22 185.887 123.22 180.7C123.003 185.887 123.003 191.074 123.003 196.261C123.22 196.261 123.436 196.261 123.436 196.261ZM115.626 180.023C115.409 187.015 115.409 194.231 115.843 201.222C116.277 194.457 116.277 187.24 115.626 180.023Z" fill="#F19679"/>
<path d="M115.626 177.994C115.843 177.994 116.06 178.219 116.06 178.445C116.06 178.67 115.843 178.896 115.626 179.121C115.409 179.121 114.976 178.896 114.976 178.67C114.976 178.219 115.193 177.768 115.626 177.994Z" fill="#FCA746"/>
<path d="M126.257 199.419C126.257 191.977 126.257 184.309 126.04 176.867C125.606 177.543 124.955 178.22 124.304 178.896C124.521 177.994 124.738 177.318 124.955 176.641C124.087 177.092 123.437 177.092 122.786 177.318C123.654 176.867 124.304 176.19 125.172 175.739C122.569 173.709 119.532 172.131 116.277 171.003C116.277 171.68 116.277 172.131 116.06 172.582C115.843 171.905 115.41 171.454 115.193 170.778C114.759 171.229 114.325 171.905 113.674 172.356C113.891 171.905 113.891 171.454 113.891 170.778C111.071 172.356 108.467 174.386 106.081 176.641C106.515 176.867 106.949 177.092 107.383 177.318C106.732 177.318 106.298 177.318 105.647 177.318C105.864 177.769 106.298 178.445 106.732 178.896C106.081 178.671 105.647 178.22 104.996 177.543C104.562 180.926 104.345 184.083 104.128 187.692C103.911 183.858 103.911 180.249 104.128 176.416C107.166 173.935 110.203 171.229 113.891 170.101C114.759 169.875 115.41 170.101 116.277 169.875C119.749 171.454 123.003 173.484 126.04 175.739C127.342 183.632 126.908 191.751 126.257 199.419Z" fill="#CDBFA1"/>
<path d="M124.738 187.691C118.447 188.819 111.721 186.338 107.816 181.376C109.552 184.534 111.938 187.015 114.975 188.142C118.23 189.044 121.484 189.044 124.738 187.691Z" fill="#CDBFA1"/>
<path d="M123.653 191.3C119.314 192.878 114.325 192.653 110.203 191.074C112.155 192.878 114.108 194.006 116.711 194.006C119.097 194.006 121.701 193.104 123.653 191.3Z" fill="#CDBFA1"/>
<path d="M125.389 176.641C122.786 186.113 119.315 195.133 114.976 204.154C112.589 204.154 110.203 203.703 108.033 203.252C111.722 193.329 115.193 182.73 118.23 172.581C120.616 173.483 123.003 175.062 125.389 176.641Z" fill="url(#paint2_linear)"/>
<path opacity="0.19" d="M150.989 221.068C144.914 221.745 138.623 221.745 132.548 221.068C129.728 205.958 128.86 190.848 129.728 175.513C132.765 173.032 136.453 171.003 140.142 169.875C140.792 169.649 141.009 169.649 141.66 169.649C145.131 170.552 149.253 173.709 152.725 176.415C153.809 191.074 153.158 206.409 150.989 221.068Z" fill="#6CC8C1"/>
<path d="M141.227 181.151C143.179 178.22 144.481 175.062 145.566 171.679C142.745 171.905 139.925 171.679 137.105 171.679C137.756 173.484 138.189 175.739 139.057 177.543C139.274 178.896 140.142 180.024 141.227 181.151Z" fill="#C1A435"/>
<path d="M141.443 170.101C141.443 169.424 141.877 168.522 142.528 168.071C143.179 167.62 143.83 167.169 144.263 166.492C144.697 165.59 144.697 164.688 144.263 164.012C143.83 163.335 142.962 162.659 142.094 162.659C141.443 162.433 140.575 162.659 139.924 162.884C139.274 163.335 138.84 164.012 138.623 164.688C138.623 165.365 138.84 166.492 139.708 166.718C139.924 166.718 139.924 166.718 139.924 166.718C140.141 166.492 139.708 166.041 139.708 165.59C139.708 165.139 139.708 164.688 139.924 164.463C140.358 163.786 141.226 163.786 141.877 164.237C142.528 164.688 142.745 165.59 142.528 166.267C142.311 166.944 141.66 167.62 141.226 168.297C140.792 168.973 140.358 169.65 140.358 170.326C140.792 170.101 141.009 170.101 141.443 170.101Z" fill="#363347"/>
<path d="M136.236 172.582L141.009 169.424L145.782 172.356L145.348 172.807L141.009 170.777L136.67 172.807L136.236 172.582Z" fill="#363347"/>
<path d="M152.941 192.427C152.508 192.427 152.291 192.427 151.857 192.427C152.291 187.015 152.291 181.377 151.857 176.19C149.687 174.386 147.735 173.033 145.348 171.679C144.047 175.062 142.528 177.769 141.009 180.475C139.491 177.994 137.972 175.062 136.887 171.679C134.718 172.807 132.548 174.16 130.596 175.964C130.379 181.602 130.162 187.466 130.596 193.104C130.379 193.104 130.162 193.104 129.728 193.33C129.945 194.232 129.945 194.908 130.162 195.81C130.379 195.81 130.596 195.81 130.596 195.81C130.596 196.261 130.596 196.938 130.813 197.389C131.681 197.614 132.548 197.84 133.416 197.84C133.633 197.84 133.633 197.84 133.85 197.84C134.284 204.155 134.718 210.469 135.152 216.784C139.491 217.46 143.396 217.911 147.735 217.235C148.386 210.695 149.036 204.155 149.47 197.389H149.687C150.338 197.163 150.989 197.163 151.64 196.938C151.64 196.261 151.857 195.585 151.857 194.908C152.074 194.908 152.291 195.134 152.724 195.134C152.724 194.232 152.941 193.33 152.941 192.427Z" fill="#E8CF4F"/>
<path d="M136.236 180.249C137.104 180.024 137.972 179.798 138.84 179.573C138.189 180.249 137.755 180.7 137.104 181.377C138.189 184.76 139.274 187.917 140.358 191.3C139.491 187.917 138.406 184.534 137.321 181.377C137.972 180.7 138.623 180.024 139.057 179.347C137.972 179.347 136.887 179.573 136.019 179.798C135.152 177.994 134.284 175.964 133.416 174.16C134.284 176.415 135.152 178.445 136.236 180.249Z" fill="#C1A435"/>
<path d="M146.434 180.249C145.566 180.024 144.698 179.798 143.83 179.573C144.264 180.249 144.915 180.7 145.566 181.377C144.264 184.76 143.179 187.917 141.878 191.3C142.745 187.917 144.047 184.534 145.349 181.377C144.698 180.7 144.264 180.024 143.613 179.347C144.698 179.347 145.783 179.573 146.651 179.798C147.518 177.994 148.603 175.964 149.471 174.16C148.386 176.415 147.518 178.445 146.434 180.249Z" fill="#C1A435"/>
<path d="M141.877 216.784C141.226 205.057 141.009 193.555 141.009 181.828C141.443 193.329 141.66 205.282 141.877 216.784Z" fill="#C1A435"/>
<path d="M133.85 197.84C133.633 197.84 133.633 197.84 133.416 197.84C133.199 191.525 133.199 184.985 133.416 178.445C133.633 184.985 133.633 191.3 133.85 197.84Z" fill="#C1A435"/>
<path d="M149.688 197.389H149.471C149.688 191.977 149.688 186.564 149.254 181.152C149.688 186.564 149.904 192.202 149.688 197.389Z" fill="#C1A435"/>
<path d="M134.284 197.84C135.369 196.712 136.237 195.585 136.888 194.232C137.538 194.683 137.972 195.134 138.189 195.81C137.755 195.359 137.538 195.134 137.104 194.683C136.237 195.81 135.152 197.163 134.284 198.291C134.501 198.066 134.284 197.84 134.284 197.84Z" fill="#C1A435"/>
<path d="M148.82 197.84C147.952 196.712 147.084 195.585 146.216 194.232C145.565 194.683 145.131 195.134 144.915 195.81C145.348 195.359 145.565 195.134 145.999 194.683C146.65 195.81 147.735 197.163 148.603 198.291C148.603 198.066 148.82 197.84 148.82 197.84Z" fill="#C1A435"/>
<path d="M132.548 195.81C132.114 195.81 131.464 195.584 131.03 195.584C131.464 195.584 131.897 195.584 132.331 195.584C132.331 194.682 132.331 193.78 132.114 192.878C131.681 192.878 131.247 193.104 130.813 193.104C131.247 192.878 131.897 192.653 132.331 192.653C132.765 193.555 132.548 194.682 132.548 195.81Z" fill="#C1A435"/>
<path d="M151.857 192.427C151.423 192.427 150.772 192.427 150.772 192.427C150.772 193.104 150.772 193.555 150.772 194.231C150.989 194.457 151.206 194.457 151.64 194.682C151.206 194.682 150.989 194.457 150.555 194.457C150.555 193.78 150.555 192.878 150.772 192.202C150.989 192.427 151.423 192.427 151.857 192.427Z" fill="#C1A435"/>
<path d="M151.64 206.635C152.508 196.487 152.725 186.113 152.291 176.19C149.254 173.483 145.783 171.228 142.095 170.101C141.444 170.101 141.01 170.101 140.359 170.326C136.671 171.454 133.2 173.258 130.162 175.964C129.512 183.632 129.512 191.525 130.162 199.193C129.946 191.976 130.162 184.534 130.813 177.092C131.681 177.768 132.332 178.445 133.2 179.347C132.766 178.219 132.115 177.543 131.464 176.641C132.115 176.866 132.766 177.092 133.417 177.092C132.983 176.641 132.332 176.19 131.681 175.739C134.068 173.934 136.454 172.356 139.274 171.228C139.057 172.807 139.057 174.16 139.057 175.739C139.708 174.385 139.925 172.807 140.359 171.228C140.576 171.905 141.01 172.356 141.444 172.807C141.444 172.13 141.661 171.454 141.661 170.777C143.179 171.454 144.481 172.581 145.566 173.934C145.132 172.807 144.481 171.905 143.613 171.003C146.217 172.356 148.603 173.934 150.989 175.739C149.905 176.19 148.82 176.866 147.952 177.543C149.037 177.317 149.905 177.317 150.989 177.092C150.556 177.768 150.122 178.445 149.905 179.121C150.556 178.445 150.989 177.994 151.64 177.317C152.291 187.015 152.508 197.163 151.64 206.635Z" fill="#CDBFA1"/>
<path d="M149.036 186.339C147.952 187.241 147.084 188.594 145.999 189.496C144.914 190.398 143.613 191.3 142.094 191.977C139.491 193.33 136.453 194.232 133.416 194.006C136.019 193.33 138.623 192.653 141.009 191.3C144.046 189.947 146.65 188.143 149.036 186.339Z" fill="#CDBFA1"/>
<path d="M147.735 196.261C144.046 200.321 138.84 202.576 133.416 202.802C134.501 202.802 135.802 202.125 136.887 201.674C138.189 201.223 139.491 200.772 140.792 200.095C143.179 198.968 145.565 197.84 147.735 196.261Z" fill="#CDBFA1"/>
<path d="M146.65 211.822C142.745 210.92 139.057 209.116 135.803 206.861C137.104 208.665 138.623 210.018 140.576 210.695C142.745 211.597 144.481 211.597 146.65 211.822Z" fill="#CDBFA1"/>
<path d="M135.152 220.843C141.877 206.41 147.084 191.074 151.206 175.739C149.687 174.385 147.952 173.483 146.216 172.581C142.528 188.142 138.189 205.507 133.199 220.843C134.067 220.843 134.284 221.068 135.152 220.843Z" fill="url(#paint3_linear)"/>
<path opacity="0.19" d="M187.002 221.068C180.928 221.745 174.636 221.745 168.562 221.068C165.525 205.958 164.44 190.848 164.874 175.513C167.911 173.032 171.599 171.003 175.287 169.875C175.938 169.649 176.155 169.649 176.806 169.649C180.494 170.552 184.616 173.709 187.87 176.415C189.172 191.074 188.955 206.409 187.002 221.068Z" fill="#6CC8C1"/>
<path d="M170.948 172.356C172.25 174.16 174.203 175.062 176.372 175.062C178.325 175.062 180.494 174.16 182.013 172.807L182.88 173.484L180.928 178.896L171.599 178.22L170.514 172.807L170.948 172.356Z" fill="#DC514A"/>
<path d="M176.372 170.101C176.372 169.424 176.806 168.522 177.457 168.071C178.108 167.62 178.759 167.169 179.193 166.492C179.627 165.59 179.41 164.688 178.976 164.012C178.542 163.335 177.674 162.659 176.806 162.659C176.156 162.433 175.288 162.659 174.637 162.884C173.986 163.335 173.552 164.012 173.335 164.688C173.335 165.365 173.769 166.492 174.42 166.718C174.637 166.718 174.637 166.718 174.637 166.718C174.854 166.492 174.42 166.041 174.42 165.59C174.42 165.139 174.42 164.688 174.637 164.463C175.071 163.786 175.939 163.786 176.589 164.237C177.24 164.688 177.457 165.59 177.24 166.267C177.023 166.944 176.589 167.62 175.939 168.297C175.505 168.973 175.071 169.65 175.071 170.326C175.939 170.101 176.156 170.101 176.372 170.101Z" fill="#363347"/>
<path d="M165.742 175.739L175.939 169.424L187.437 176.19L187.003 176.641L176.155 170.777L165.959 175.964L165.742 175.739Z" fill="#363347"/>
<path d="M185.484 175.288H166.61V175.513H185.484V175.288Z" fill="#363347"/>
<path d="M186.135 216.784C180.494 219.039 173.335 217.686 168.128 214.98C168.128 205.282 169.647 198.517 172.684 185.887C170.949 184.083 170.732 182.054 170.732 179.573C170.732 178.22 170.732 177.092 170.515 175.739C170.298 174.611 170.081 173.484 170.081 172.582C170.515 172.356 170.732 172.356 171.165 172.131C171.165 173.709 171.382 175.288 171.816 176.867C174.637 177.994 177.674 177.994 180.494 177.543C181.145 175.964 181.796 174.16 182.23 172.582C182.447 172.807 182.664 172.807 183.098 173.033C183.098 173.033 182.23 175.964 182.23 176.19C182.013 177.318 182.013 178.445 182.23 179.798C182.664 182.054 182.23 183.858 180.928 186.338C184.399 198.968 186.569 206.635 186.135 216.784Z" fill="#FF7857"/>
<path d="M185.484 216.784C180.06 218.363 173.769 217.46 168.779 214.529C168.779 211.146 169.213 207.989 170.08 204.606C169.864 207.763 169.647 210.92 169.43 214.078C170.297 214.98 171.599 215.431 172.901 215.205C173.118 212.725 173.335 210.469 173.986 207.989C173.769 210.469 173.769 212.95 173.986 215.431C176.155 217.009 179.192 217.686 181.796 217.009C182.23 212.95 182.23 208.665 181.362 204.606C182.013 208.665 182.447 212.725 182.447 216.784C182.88 216.784 184.182 216.558 184.616 216.333C184.616 212.725 184.616 208.891 184.182 205.282C185.267 208.891 185.701 212.95 185.484 216.784Z" fill="#DC514A"/>
<path d="M173.335 186.113C172.467 188.819 172.033 191.526 172.033 194.457C172.25 191.751 173.118 189.27 173.986 186.79C173.769 188.368 173.769 190.172 173.769 191.751C173.986 189.947 174.637 188.368 175.07 186.79C176.589 186.79 178.325 186.79 179.843 187.015C181.362 189.721 182.664 192.653 183.314 195.585C182.664 192.202 181.796 189.045 180.277 185.888C180.711 185.211 181.362 184.534 181.579 183.858C178.325 184.76 174.854 184.309 172.033 182.73C172.033 184.083 172.467 185.211 173.335 186.113Z" fill="#DC514A"/>
<path d="M187.436 206.635C188.087 196.487 188.304 186.113 187.653 176.19C184.399 173.483 180.928 171.228 177.24 170.101C176.589 170.101 176.155 170.101 175.504 170.326C171.816 171.454 168.345 173.258 165.307 175.964C164.874 183.632 164.874 191.525 165.741 199.193C165.524 191.976 165.524 184.534 165.958 177.092C166.826 177.768 167.477 178.445 168.345 179.347C167.911 178.219 167.26 177.543 166.609 176.641C167.26 176.866 167.911 177.092 168.562 177.092C168.128 176.641 167.477 176.19 166.826 175.739C169.213 173.934 171.599 172.356 174.202 171.228C173.985 172.807 173.985 174.16 173.985 175.739C174.636 174.385 174.853 172.807 175.07 171.228C175.287 171.905 175.721 172.356 176.155 172.807C176.155 172.13 176.372 171.454 176.372 170.777C177.89 171.454 179.192 172.581 180.277 173.934C179.843 172.807 179.192 171.905 178.324 171.003C180.928 172.356 183.314 173.934 185.701 175.739C184.616 176.19 183.531 176.866 182.663 177.543C183.748 177.317 184.616 177.317 185.701 177.092C185.267 177.768 184.833 178.445 184.616 179.121C185.267 178.445 185.701 177.994 186.351 177.317C187.653 187.015 188.087 197.163 187.436 206.635Z" fill="#CDBFA1"/>
<path d="M184.399 186.339C183.314 187.241 182.447 188.594 181.362 189.496C180.277 190.398 178.975 191.3 177.457 191.977C174.853 193.33 171.816 194.232 168.779 194.006C171.382 193.33 173.986 192.653 176.372 191.3C179.409 189.947 182.013 188.143 184.399 186.339Z" fill="#CDBFA1"/>
<path d="M183.097 196.261C179.409 200.321 174.203 202.576 168.996 202.802C170.081 202.802 171.382 202.125 172.467 201.674C173.769 201.223 175.07 200.772 176.372 200.095C178.759 198.968 181.145 197.84 183.097 196.261Z" fill="#CDBFA1"/>
<path d="M182.447 211.822C178.542 210.92 174.854 209.116 171.599 206.861C172.901 208.665 174.42 210.018 176.589 210.695C178.542 211.597 180.277 211.597 182.447 211.822Z" fill="#CDBFA1"/>
<path d="M171.165 220.843C177.674 206.41 182.663 191.074 186.568 175.739C185.05 174.385 183.314 173.483 181.362 172.581C177.891 188.142 173.985 205.507 169.213 220.843C170.08 220.843 170.297 221.068 171.165 220.843Z" fill="url(#paint4_linear)"/>
<path d="M194.161 165.816H79.1792V164.011H194.161C195.029 164.011 195.029 165.816 194.161 165.816Z" fill="#6CC8C1"/>
<path d="M194.595 164.914C194.595 164.463 194.378 164.237 194.161 164.237H79.1792V164.914H194.595Z" fill="url(#paint5_linear)"/>
<path d="M116.494 164.011C117.145 164.463 117.362 165.139 117.145 165.816H118.88C118.88 165.139 118.88 164.463 118.663 164.011H116.494Z" fill="#363347"/>
<path d="M141.877 164.011C142.528 164.463 142.745 165.139 142.528 165.816H144.263C144.263 165.139 144.263 164.463 144.046 164.011H141.877Z" fill="#363347"/>
<path d="M177.023 164.011C177.674 164.463 177.89 165.139 177.674 165.816H179.409C179.409 165.139 179.409 164.463 179.192 164.011H177.023Z" fill="#363347"/>
<path d="M153.7 21.4C147.8 21.4 143 16.6 143 10.7C143 4.8 147.8 0 153.7 0C159.6 0 164.4 4.8 164.4 10.7C164.4 16.6 159.6 21.4 153.7 21.4ZM153.7 0.4C148 0.4 143.4 5 143.4 10.7C143.4 16.4 148 21 153.7 21C159.4 21 164 16.4 164 10.7C163.9 5 159.3 0.4 153.7 0.4Z" fill="#359591"/>
<path d="M137.3 17.1999V13.9999L142.1 9.5999C142.5 9.2999 142.7 8.99991 142.8 8.69991C142.9 8.49991 143 8.2999 143 8.0999C143 7.8999 142.9 7.6999 142.8 7.5999C142.6 7.4999 142.4 7.3999 142.1 7.3999C141.8 7.3999 141.5 7.49991 141.2 7.69991C140.9 7.89991 140.7 8.0999 140.5 8.3999L140.4 8.69991L136.5 6.7999L136.7 6.4999C137.2 5.4999 138 4.69991 139 4.19991C140 3.59991 141.2 3.3999 142.6 3.3999C143.7 3.3999 144.6 3.5999 145.4 3.8999C146.2 4.2999 146.9 4.7999 147.4 5.3999C147.9 6.0999 148.1 6.79991 148.1 7.69991C148.1 8.49991 147.9 9.1999 147.6 9.7999C147.3 10.4999 146.7 11.1999 145.8 11.9999L144.6 13.0999H148.4V17.0999H137.3V17.1999Z" fill="#359591"/>
<path d="M142.5 3.5999C143.5 3.5999 144.4 3.7999 145.2 4.0999C146 4.3999 146.6 4.8999 147 5.4999C147.4 6.0999 147.7 6.7999 147.7 7.5999C147.7 8.2999 147.5 8.9999 147.2 9.5999C146.9 10.1999 146.3 10.8999 145.4 11.6999L143.6 13.3999H148V16.7999H137.7V14.0999L142.4 9.7999C142.8 9.3999 143.1 9.0999 143.2 8.7999C143.3 8.4999 143.4 8.2999 143.4 7.9999C143.4 7.6999 143.3 7.3999 143.1 7.2999C142.9 7.0999 142.6 6.9999 142.2 6.9999C141.8 6.9999 141.4 7.0999 141.1 7.2999C140.8 7.4999 140.5 7.7999 140.3 8.1999L137 6.5999C137.5 5.6999 138.2 4.8999 139.2 4.3999C140 3.8999 141.2 3.5999 142.5 3.5999ZM142.5 2.8999C141 2.8999 139.8 3.1999 138.7 3.7999C137.6 4.3999 136.8 5.1999 136.3 6.2999L136 6.8999L136.6 7.1999L139.9 8.7999L140.5 9.0999L140.8 8.4999C140.9 8.1999 141.1 7.9999 141.3 7.8999C141.5 7.7999 141.8 7.6999 142.1 7.6999C142.3 7.6999 142.5 7.6999 142.6 7.7999C142.6 7.7999 142.7 7.8999 142.7 7.9999C142.7 8.1999 142.7 8.2999 142.6 8.4999C142.5 8.5999 142.4 8.8999 141.9 9.2999L137.2 13.5999L137 13.7999V14.0999V16.7999V17.4999H137.7H148H148.7V16.7999V13.3999V12.6999H148H145.4L146 12.1999C146.9 11.2999 147.6 10.5999 147.9 9.8999C148.2 9.1999 148.4 8.3999 148.4 7.5999C148.4 6.6999 148.1 5.7999 147.6 5.0999C147.1 4.3999 146.4 3.7999 145.5 3.4999C144.6 3.0999 143.6 2.8999 142.5 2.8999Z" fill="#D7EAF0"/>
<defs>
<linearGradient id="paint0_linear" x1="190.998" y1="166.602" x2="196.988" y2="163.635" gradientUnits="userSpaceOnUse">
<stop stop-color="#C8E8BF"/>
<stop offset="0.1958" stop-color="#A2D1B2"/>
<stop offset="0.4013" stop-color="#81BDA7"/>
<stop offset="0.5134" stop-color="#74B5A3"/>
<stop offset="0.606" stop-color="#7DBAA6"/>
<stop offset="0.754" stop-color="#94C8AE"/>
<stop offset="0.938" stop-color="#BADFBA"/>
<stop offset="1" stop-color="#C8E8BF"/>
</linearGradient>
<linearGradient id="paint1_linear" x1="113.846" y1="212.619" x2="116.304" y2="175.242" gradientUnits="userSpaceOnUse">
<stop stop-color="#F5BA85"/>
<stop offset="0.6233" stop-color="#FCDDB1"/>
<stop offset="1" stop-color="#FFEFC7"/>
</linearGradient>
<linearGradient id="paint2_linear" x1="123.064" y1="172.522" x2="107.116" y2="210.159" gradientUnits="userSpaceOnUse">
<stop stop-color="#9BA87E"/>
<stop offset="0.7104" stop-color="#1F2119"/>
<stop offset="0.8827"/>
</linearGradient>
<linearGradient id="paint3_linear" x1="149.994" y1="170.724" x2="133.376" y2="221.855" gradientUnits="userSpaceOnUse">
<stop stop-color="#9BA87E"/>
<stop offset="0.7104" stop-color="#1F2119"/>
<stop offset="0.8827"/>
</linearGradient>
<linearGradient id="paint4_linear" x1="185.078" y1="170.724" x2="168.637" y2="221.61" gradientUnits="userSpaceOnUse">
<stop stop-color="#9BA87E"/>
<stop offset="0.7104" stop-color="#1F2119"/>
<stop offset="0.8827"/>
</linearGradient>
<linearGradient id="paint5_linear" x1="199.008" y1="156.243" x2="86.2617" y2="170.121" gradientUnits="userSpaceOnUse">
<stop stop-color="#87A37F"/>
<stop offset="0.2214" stop-color="#85A07D"/>
<stop offset="0.3789" stop-color="#7D9776"/>
<stop offset="0.5165" stop-color="#708769"/>
<stop offset="0.6427" stop-color="#5E7158"/>
<stop offset="0.7611" stop-color="#465542"/>
<stop offset="0.8738" stop-color="#293127"/>
<stop offset="0.9799" stop-color="#070907"/>
<stop offset="1"/>
</linearGradient>
</defs>
</svg>
