<svg width="171" height="80" viewBox="0 0 171 80" fill="none" xmlns="http://www.w3.org/2000/svg">
<path d="M6.23781 79H164.912C164.912 79 168.917 5.84618 122.866 0.563343C76.8153 -4.71949 67.3049 28.8578 39.2741 30.2009C11.2433 31.544 1.23231 62.077 6.23781 79Z" fill="#FAFFFF"/>
<path d="M18.0483 79.0757H117.469L118.562 49.8503H104.085L101.764 68.56H84.0101L81.0057 49.8503H16.9558L18.0483 79.0757Z" fill="#6CC8C1"/>
<path d="M82.5081 61.0491H17.3657V61.3222H82.5081V61.0491Z" fill="#CCD9E2"/>
<path d="M30.7544 79.1641L31.7993 49.9563L31.5264 49.9465L30.4815 79.1543L30.7544 79.1641Z" fill="#F5FBFF"/>
<path d="M53.863 79.1441L54.136 79.1335L53.0092 49.9287L52.7363 49.9392L53.863 79.1441Z" fill="#F5FBFF"/>
<path d="M76.7673 79.1421L77.0403 79.1316L75.9135 49.9267L75.6406 49.9373L76.7673 79.1421Z" fill="#F5FBFF"/>
<path d="M111.427 79.0735L112.471 49.8657L112.198 49.856L111.154 79.0637L111.427 79.0735Z" fill="#F5FBFF"/>
<path d="M30.9754 79.0828L32.0203 49.875L31.7473 49.8652L30.7024 79.073L30.9754 79.0828Z" fill="#CCD9E2"/>
<path d="M54.1629 79.1407L54.4358 79.1301L53.309 49.9253L53.0361 49.9358L54.1629 79.1407Z" fill="#CCD9E2"/>
<path d="M76.9304 79.1441L77.2034 79.1335L76.0766 49.9287L75.8037 49.9392L76.9304 79.1441Z" fill="#CCD9E2"/>
<path d="M111.643 79.1282L112.688 49.9204L112.415 49.9106L111.37 79.1184L111.643 79.1282Z" fill="#CCD9E2"/>
<path d="M118.152 61.3225H102.447V61.5956H118.152V61.3225Z" fill="#F5FBFF"/>
<path d="M82.5081 60.7756H17.3657V61.0488H82.5081V60.7756Z" fill="#F5FBFF"/>
<path d="M118.562 49.8508H104.905L102.037 69.2433H83.6008L80.5963 49.8508H16.4099L16.1367 47.6658H81.8254L84.2836 68.1508H101.218L103.54 47.6658H118.835L118.562 49.8508Z" fill="#CCD9E2"/>
<path opacity="0.18" d="M16.9558 49.8503L17.0924 52.4451L81.1422 53.1279L80.596 49.8503H16.9558Z" fill="#0C123A"/>
<path d="M18.0485 79.0758L17.7754 71.8378L17.6388 68.1505C17.6388 66.9214 17.5022 65.6923 17.5022 64.4632L16.956 49.8505V49.714H16.8194H16.2731L16.4097 49.8505L16.1366 47.5289L16 47.6655H48.9126H65.3006H69.3976H73.4946L81.6887 47.5289L73.4946 47.3923H69.3976H65.3006H48.9126H16.1366H16V47.5289L16.2731 49.8505V49.9871H16.4097H16.956L16.8194 49.8505L17.3657 64.4632C17.3657 65.6923 17.5022 66.9214 17.5022 68.1505L17.6388 71.8378L18.0485 79.0758Z" fill="#CCD9E2"/>
<path opacity="0.18" d="M83.6006 69.2428L84.6931 71.1548L104.495 71.701L107.909 53.1279L118.425 53.5377L118.562 49.8503H104.905L102.037 69.2428H83.6006Z" fill="#0C123A"/>
<path d="M49.049 52.8548L52.4632 78.8025H44.4057L34.7095 52.7183L49.049 52.8548ZM50.2781 52.8548L52.7363 78.8025H58.0624L59.7012 52.9914L50.2781 52.8548Z" fill="url(#paint0_linear)"/>
<path d="M97.8034 62.688C97.8034 62.688 103.676 56.1328 101.218 55.5866C98.7594 55.0403 97.2571 56.5425 97.2571 56.5425C97.2571 56.5425 95.4818 52.4455 93.4333 53.8112C91.5213 55.1768 88.5169 61.7321 89.0631 62.8246C89.3363 64.0537 97.8034 62.688 97.8034 62.688Z" fill="#3D576B"/>
<path d="M86.7415 62.1418L96.1646 60.3664C96.1646 60.3664 96.1646 57.0888 95.2087 56.8157C94.2527 56.5426 87.1512 54.3575 86.0587 55.8597C85.1027 57.362 86.7415 62.1418 86.7415 62.1418Z" fill="#FFDD00"/>
<path d="M93.0239 59.8208C93.0239 59.8208 99.7157 60.2305 99.8522 62.1424C100.125 64.0544 99.4425 66.2394 99.4425 66.2394L92.3411 65.0103L93.0239 59.8208Z" fill="#3D576B"/>
<path d="M99.9887 63.0983C99.9887 63.0983 96.8477 61.0498 93.7066 64.3274C90.5656 67.605 89.6096 68.0147 89.6096 68.0147H98.8962L99.9887 63.0983Z" fill="#FFEC00"/>
<path d="M89.8827 57.2253C89.8827 57.2253 84.5565 64.3268 86.4685 67.4679C86.4685 67.4679 90.7021 69.5164 93.2968 67.8776C95.8916 66.2388 93.9797 57.9082 93.9797 57.9082L89.8827 57.2253Z" fill="white"/>
<path d="M90.5656 61.1855H89.8828V62.1415H90.5656V61.1855Z" fill="#6CC8C1"/>
<path d="M90.5656 62.9614H89.8828V63.9174H90.5656V62.9614Z" fill="#6CC8C1"/>
<path d="M90.5656 66.6482H89.8828V67.6042H90.5656V66.6482Z" fill="#6CC8C1"/>
<path d="M90.5656 64.7363H89.8828V65.6923H90.5656V64.7363Z" fill="#6CC8C1"/>
<path d="M90.5656 59.2737H89.8828V60.2297H90.5656V59.2737Z" fill="#6CC8C1"/>
<path d="M91.9314 62.9614H91.2485V63.9174H91.9314V62.9614Z" fill="#6CC8C1"/>
<path d="M91.9314 64.7363H91.2485V65.6923H91.9314V64.7363Z" fill="#6CC8C1"/>
<path d="M91.9314 66.6482H91.2485V67.6042H91.9314V66.6482Z" fill="#6CC8C1"/>
<path d="M91.9314 59.2737H91.2485V60.2297H91.9314V59.2737Z" fill="#6CC8C1"/>
<path d="M91.9314 61.1855H91.2485V62.1415H91.9314V61.1855Z" fill="#6CC8C1"/>
<path d="M93.4333 66.6482H92.7505V67.6042H93.4333V66.6482Z" fill="#6CC8C1"/>
<path d="M93.4333 61.1855H92.7505V62.1415H93.4333V61.1855Z" fill="#6CC8C1"/>
<path d="M93.4333 62.9614H92.7505V63.9174H93.4333V62.9614Z" fill="#6CC8C1"/>
<path d="M93.4333 64.7363H92.7505V65.6923H93.4333V64.7363Z" fill="#6CC8C1"/>
<path d="M93.4333 59.2737H92.7505V60.2297H93.4333V59.2737Z" fill="#6CC8C1"/>
<path d="M94.799 59.2737H94.1162V60.2297H94.799V59.2737Z" fill="#6CC8C1"/>
<path d="M94.799 66.6482H94.1162V67.6042H94.799V66.6482Z" fill="#6CC8C1"/>
<path d="M94.799 61.1855H94.1162V62.1415H94.799V61.1855Z" fill="#6CC8C1"/>
<path d="M94.799 64.7363H94.1162V65.6923H94.799V64.7363Z" fill="#6CC8C1"/>
<path d="M94.799 62.9614H94.1162V63.9174H94.799V62.9614Z" fill="#6CC8C1"/>
<path d="M96.1648 59.2737H95.4819V60.2297H96.1648V59.2737Z" fill="#6CC8C1"/>
<path d="M96.1648 62.9614H95.4819V63.9174H96.1648V62.9614Z" fill="#6CC8C1"/>
<path d="M96.1648 66.6482H95.4819V67.6042H96.1648V66.6482Z" fill="#6CC8C1"/>
<path d="M96.1648 61.1855H95.4819V62.1415H96.1648V61.1855Z" fill="#6CC8C1"/>
<path d="M96.1648 64.7363H95.4819V65.6923H96.1648V64.7363Z" fill="#6CC8C1"/>
<path d="M97.5302 66.6482H96.8474V67.6042H97.5302V66.6482Z" fill="#6CC8C1"/>
<path d="M97.5302 59.2737H96.8474V60.2297H97.5302V59.2737Z" fill="#6CC8C1"/>
<path d="M97.5302 61.1855H96.8474V62.1415H97.5302V61.1855Z" fill="#6CC8C1"/>
<path d="M97.5302 64.7363H96.8474V65.6923H97.5302V64.7363Z" fill="#6CC8C1"/>
<path d="M97.5302 62.9614H96.8474V63.9174H97.5302V62.9614Z" fill="#6CC8C1"/>
<path d="M98.896 66.6482H98.2131V67.6042H98.896V66.6482Z" fill="#6CC8C1"/>
<path d="M98.896 61.1855H98.2131V62.1415H98.896V61.1855Z" fill="#6CC8C1"/>
<path d="M98.896 64.7363H98.2131V65.6923H98.896V64.7363Z" fill="#6CC8C1"/>
<path d="M98.896 62.9614H98.2131V63.9174H98.896V62.9614Z" fill="#6CC8C1"/>
<path d="M98.896 59.2737H98.2131V60.2297H98.896V59.2737Z" fill="#6CC8C1"/>
<path d="M99.5789 63.9174H99.9886L100.125 62.9614H99.5789V63.9174Z" fill="#6CC8C1"/>
<path d="M99.5789 61.1855V62.1415H100.125L100.262 61.7318V61.1855H99.5789Z" fill="#6CC8C1"/>
<path d="M99.5789 65.6923H99.7154L99.852 64.7363H99.5789V65.6923Z" fill="#6CC8C1"/>
<path d="M100.262 59.2737H99.5789V60.2297H100.262V59.2737Z" fill="#6CC8C1"/>
<path d="M89.1999 61.1855H88.5171V62.1415H89.1999V61.1855Z" fill="#6CC8C1"/>
<path d="M89.1999 62.9614H88.5171V63.9174H89.1999V62.9614Z" fill="#6CC8C1"/>
<path d="M89.1999 59.2737H88.5171V60.2297H89.1999V59.2737Z" fill="#6CC8C1"/>
<path d="M89.1999 66.6482H88.5171V67.6042H89.1999V66.6482Z" fill="#6CC8C1"/>
<path d="M89.1999 64.7363H88.5171V65.6923H89.1999V64.7363Z" fill="#6CC8C1"/>
<path d="M87.8342 62.9614H87.1514V63.9174H87.8342V62.9614Z" fill="#6CC8C1"/>
<path d="M87.8342 64.7363H87.1514V65.6923H87.8342V64.7363Z" fill="#6CC8C1"/>
<path d="M87.8342 61.1855H87.1514V62.1415H87.8342V61.1855Z" fill="#6CC8C1"/>
<path d="M87.8342 66.6482H87.1514V67.6042H87.8342V66.6482Z" fill="#6CC8C1"/>
<path d="M87.8342 59.2737H87.1514V60.2297H87.8342V59.2737Z" fill="#6CC8C1"/>
<path d="M86.4687 64.7363H86.1956L86.3321 65.6923H86.4687V64.7363Z" fill="#6CC8C1"/>
<path d="M86.332 66.6482L86.4686 66.9213V66.6482H86.332Z" fill="#6CC8C1"/>
<path d="M86.4687 61.1855H85.7859V61.7318V62.1415H86.4687V61.1855Z" fill="#6CC8C1"/>
<path d="M86.4687 59.2737H85.7859V60.2297H86.4687V59.2737Z" fill="#6CC8C1"/>
<path d="M86.4684 62.9614H85.9221L86.0587 63.9174H86.4684V62.9614Z" fill="#6CC8C1"/>
<path d="M98.2132 67.6045H97.5303H96.8475H96.1647H95.4818H94.799H94.1162H93.4333H92.7505H92.0677H91.3848H90.702H90.0192H89.3363H88.6535H87.9706H87.2878H86.605C86.7415 67.8776 86.8781 68.1508 87.1513 68.1508H98.896C99.1691 68.1508 99.4423 67.8776 99.4423 67.6045H98.7594H98.2132Z" fill="#6CC8C1"/>
<path d="M98.8962 65.6926H98.2133H97.3939H96.8477H96.0283H95.482H94.6626H94.1163H93.2969H92.7507H91.9313H91.2484H90.5656H89.8828H89.1999H88.5171H87.8343H87.1514H86.4686H86.332V66.6486H86.4686H87.1514H87.8343H88.5171H89.1999H89.8828H90.5656H91.2484H91.9313H92.7507H93.2969H94.1163H94.6626H95.482H96.0283H96.8477H97.3939H98.2133H98.8962H99.579L99.7156 65.6926H99.579H98.8962Z" fill="#6CC8C1"/>
<path d="M98.8961 63.917H98.2133H97.3939H96.8476H96.0282H95.4819H94.6625H94.1163H93.2969H92.7506H91.9312H91.2484H90.5655H89.8827H89.1999H88.517H87.8342H87.1514H86.4685H86.0588L86.1954 64.7364H86.4685H87.1514H87.8342H88.517H89.1999H89.8827H90.5655H91.2484H91.9312H92.7506H93.2969H94.1163H94.6625H95.4819H96.0282H96.8476H97.3939H98.2133H98.8961H99.5789H99.8521L99.9887 63.917H99.5789H98.8961Z" fill="#6CC8C1"/>
<path d="M98.8963 62.1418H98.2135H97.3941H96.8478H96.0284H95.4821H94.6627H94.1165H93.2971H92.7508H91.9314H91.2486H90.5657H89.8829H89.2001H88.5172H87.8344H87.1516H86.4687H85.7859L85.9225 62.9613H86.4687H87.1516H87.8344H88.5172H89.2001H89.8829H90.5657H91.2486H91.9314H92.7508H93.2971H94.1165H94.6627H95.4821H96.0284H96.8478H97.3941H98.2135H98.8963H99.5791H100.125V62.1418H99.5791H98.8963Z" fill="#6CC8C1"/>
<path d="M99.579 60.23H98.8962H98.2133H97.3939H96.8476H96.0282H95.482H94.6626H94.1163H93.2969H92.7506H91.9312H91.2484H90.5656H89.8827H89.1999H88.5171H87.8342H87.1514H86.4686H85.7857H85.6492L85.7857 61.1859H86.4686H87.1514H87.8342H88.5171H89.1999H89.8827H90.5656H91.2484H91.9312H92.7506H93.2969H94.1163H94.6626H95.482H96.0282H96.8476H97.3939H98.2133H98.8962H99.579H100.262L100.398 60.23H100.262H99.579Z" fill="#6CC8C1"/>
<path d="M85.376 58.5908L85.5125 59.2737H85.7857H86.4685H87.1513H87.8342H88.517H89.1998H89.8827H90.5655H91.2483H91.9312H92.7506H93.2968H94.1162H94.6625H95.4819H96.0282H96.8476H97.3939H98.2133H98.8961H99.5789H100.262H100.535V58.5908H85.376Z" fill="#6CC8C1"/>
<path d="M100.945 58.1811C100.808 58.0445 100.672 57.908 100.535 57.908H85.3761C85.2395 57.908 85.103 58.0445 84.9664 58.1811C84.8298 58.3177 84.8298 58.4542 84.8298 58.5908V58.7274L84.9664 59.2736L85.9224 67.4676C85.9224 67.6042 85.9224 67.7408 85.9224 67.7408C86.0589 68.287 86.4686 68.6967 87.0149 68.6967H98.7597C99.3059 68.6967 99.7156 68.287 99.8522 67.7408C99.8522 67.6042 99.8522 67.4676 99.9888 67.3311L100.945 59.1371L101.081 58.5908V58.4542C101.081 58.4542 101.081 58.3177 100.945 58.1811ZM99.9888 59.4102L99.0328 67.3311C99.0328 67.4676 99.0328 67.4676 98.8962 67.4676H87.1515C87.1515 67.4676 87.0149 67.4676 87.0149 67.3311L86.0589 59.4102H99.9888Z" fill="#6CC8C1"/>
<path d="M102.037 57.9082C102.037 58.4544 101.764 58.7276 101.354 58.7276H84.6931C84.2834 58.7276 84.0103 58.4544 84.0103 58.0447V57.9082V57.7716C84.1468 57.4985 84.2834 57.2253 84.6931 57.2253H101.354C101.627 57.2253 101.901 57.3619 102.037 57.7716C102.037 57.7716 102.037 57.7716 102.037 57.9082Z" fill="#6CC8C1"/>
<path opacity="0.2" d="M101.081 58.5908C101.081 58.7274 101.081 58.7274 101.081 58.5908L100.945 59.2737H84.9664L84.8298 58.7274V58.5908H101.081Z" fill="#29235C"/>
<path opacity="0.2" d="M99.9887 67.8772C99.8521 68.4235 99.4424 68.8332 98.8961 68.8332H87.1514C86.6051 68.8332 86.1954 68.4235 86.0588 67.8772H99.9887Z" fill="#29235C"/>
<path d="M89.2 57.2257C89.2 57.2257 94.3895 54.904 95.3455 57.2257C95.6186 58.0451 95.8917 58.5914 95.8917 59.0011C96.0283 62.0055 89.3365 57.3623 89.2 57.2257Z" fill="white"/>
<path opacity="0.2" d="M89.2 57.2253C89.2 57.2253 94.7992 60.7761 95.8917 59.0007C96.0283 62.0052 89.3365 57.3619 89.2 57.2253Z" fill="#29235C"/>
<path d="M168.7 79.8002H2.1C1.2 79.8002 0.5 79.4002 0.5 79.0002C0.5 78.6002 1.2 78.2002 2.1 78.2002H168.7C169.6 78.2002 170.3 78.6002 170.3 79.0002C170.3 79.4002 169.6 79.8002 168.7 79.8002Z" fill="#5C8097"/>
<path d="M143.007 27.7268C143.007 27.7268 139.047 33.4626 138.91 33.5992C138.774 33.7358 132.355 33.7358 131.536 33.7358C131.536 33.7358 131.263 33.5992 130.853 33.5992C130.443 33.5992 128.122 33.5992 128.122 33.5992C127.985 33.5992 127.985 33.1895 127.985 33.0529C127.985 32.9163 127.848 32.6432 127.848 32.6432L127.712 33.5992C127.712 33.7358 128.668 34.5552 129.078 34.5552C129.487 34.6917 131.399 34.5552 131.399 34.5552C131.399 34.5552 139.593 35.7843 140.003 35.6477C140.549 35.5111 144.646 31.141 145.192 29.6387C145.739 28.2731 143.007 27.7268 143.007 27.7268Z" fill="url(#paint1_linear)"/>
<path d="M141.368 23.63C141.368 23.63 141.232 23.2203 141.232 23.0838C141.232 22.9472 144.782 22.6741 144.782 22.9472C144.919 23.2203 144.509 23.9032 144.509 23.9032L141.368 23.63Z" fill="#EBFFFD"/>
<path d="M143.417 16.9384C143.417 16.9384 144.509 16.6653 145.329 17.2115C146.148 17.7578 145.465 19.1235 145.602 19.6697C145.739 20.3526 145.875 20.216 145.875 21.0354C145.875 21.8548 144.646 21.5817 144.509 22.5376C144.373 23.4936 144.919 23.4936 144.783 24.0399C144.646 24.7227 143.69 24.313 143.963 25.1324C144.236 25.9518 145.056 25.9518 145.329 26.3615C145.602 26.7712 144.919 27.4541 144.919 27.4541C144.919 27.4541 142.051 25.8152 142.051 24.8593C142.051 23.9033 143.007 20.3526 143.007 20.0794C142.871 20.0794 143.417 16.9384 143.417 16.9384Z" fill="#3F2510"/>
<path d="M138.364 29.6388C138.637 29.7754 145.329 24.0396 145.329 24.0396C145.329 24.0396 144.782 23.3567 144.646 22.4008C144.373 21.4448 145.329 20.2157 145.329 20.2157C145.329 20.2157 141.368 19.6694 141.641 20.6254C141.914 21.5814 141.505 23.7664 141.505 23.7664C141.505 23.7664 137.681 29.2291 138.364 29.6388Z" fill="#F4AB92"/>
<path d="M144.646 73.7501C144.51 71.8382 145.056 66.7852 145.056 65.0099C145.056 62.8248 143.963 59.2741 143.827 58.3181C143.69 57.3621 143.554 43.4323 143.554 43.4323L137.954 43.1592C138.091 43.5689 139.457 54.6308 139.73 57.3621C140.003 59.5472 142.324 69.9263 142.734 73.6136C142.871 74.7061 142.871 75.6621 140.276 77.7106C139.593 78.2569 139.32 78.3934 139.32 78.53C139.32 78.6666 141.505 78.53 141.642 78.3934C141.778 78.2569 143.417 77.1643 143.827 77.0278C144.236 77.0278 145.056 76.7546 145.056 75.9352C145.056 75.389 144.646 73.8867 144.646 73.7501Z" fill="#F4AB92"/>
<path d="M154.342 74.1596C154.342 74.1596 153.659 74.4327 153.659 74.2962C153.659 74.1596 153.25 73.4768 153.25 73.4768L153.523 72.7939L154.342 74.1596Z" fill="#161C2C"/>
<path d="M153.523 71.9751L154.479 73.6139V74.1602C154.479 74.1602 153.659 73.3408 153.659 73.2042C153.523 73.2042 153.523 71.9751 153.523 71.9751Z" fill="#333846"/>
<path d="M144.919 75.1157C144.919 75.1157 144.782 75.662 143.28 76.618C142.597 77.0277 141.505 77.9836 141.095 78.1202C140.685 78.2568 140.139 77.8471 140.412 77.7105C140.412 77.7105 139.183 78.5299 139.047 78.6665C138.91 78.803 139.047 79.0762 139.047 79.0762C139.047 79.0762 140.276 79.3493 141.778 78.9396C142.051 78.9396 143.28 77.4374 143.69 77.3008C144.1 77.1642 144.236 78.9396 144.236 78.9396H144.646C144.646 78.9396 145.192 76.2083 145.192 75.7986C145.192 75.5254 144.919 75.1157 144.919 75.1157Z" fill="#6CC8C1"/>
<path d="M152.704 71.2922C152.704 71.2922 153.386 71.5654 153.66 72.2482C153.796 72.6579 153.796 73.2042 153.796 74.0236C153.796 74.7064 154.342 76.3452 154.206 76.7549C154.069 77.4377 152.43 78.6668 152.157 78.5303C151.884 78.3937 152.021 76.4818 152.021 75.7989C152.021 75.2527 151.748 73.0676 151.748 72.931C151.611 72.931 152.704 71.2922 152.704 71.2922Z" fill="#6CC8C1"/>
<path d="M138.364 44.798C138.364 44.798 141.641 58.7279 141.914 59.4107C142.461 60.6398 143.826 62.4152 146.148 65.2831C149.426 69.1069 150.655 71.0189 150.655 71.0189C152.157 73.6137 151.884 77.301 152.43 77.1644C152.84 77.1644 153.523 76.4816 153.523 75.7987C153.523 74.9793 152.976 72.1114 152.976 71.8383C152.976 71.5652 152.567 71.0189 152.567 71.0189C152.567 71.0189 150.245 64.4637 149.016 62.142C147.923 60.0935 146.421 59.001 145.875 57.7719C145.329 56.6794 145.465 45.6174 145.465 44.2518C145.602 43.1592 138.364 44.798 138.364 44.798Z" fill="#FCBDA4"/>
<path d="M145.329 24.0397C145.329 24.0397 146.968 26.2248 146.968 27.3173C146.968 28.4099 143.826 34.2823 143.69 36.3308C143.69 38.3793 145.329 40.2912 146.421 43.2957C147.514 46.4367 148.606 57.0889 148.606 57.0889C148.606 57.0889 144.509 58.4546 141.232 58.5912C137.954 58.7277 135.769 57.2255 135.769 57.2255C135.769 57.2255 137.681 40.5643 137.818 38.789C137.954 37.0136 137.271 29.5024 137.408 28.8196C137.544 27.8636 140.003 24.3129 140.276 24.0397C140.549 23.7666 141.095 23.7666 141.095 23.7666C141.095 23.7666 138.91 27.8636 139.047 28.1367C139.183 28.4099 142.324 24.7226 142.324 24.7226L145.329 24.0397Z" fill="#6CC8C1"/>
<path d="M142.598 38.3794C142.598 38.3794 142.598 41.7936 142.598 44.3883C142.598 46.9831 143.554 54.3577 143.28 54.7674C141.778 56.8159 136.589 55.4502 136.042 54.904C135.496 54.3577 137.818 39.4719 137.818 39.4719L142.598 38.3794Z" fill="#EBFFFD"/>
<path d="M142.734 28.8198C142.734 28.8198 138.774 34.5556 138.637 34.6922C138.5 34.8288 132.082 34.8288 131.262 34.8288C131.262 34.8288 130.989 34.6922 130.58 34.6922C130.17 34.6922 127.848 34.6922 127.848 34.6922C127.712 34.6922 127.712 34.2825 127.712 34.1459C127.712 34.0094 127.575 33.7362 127.575 33.7362L127.438 34.6922C127.438 34.8288 128.394 35.6482 128.804 35.6482C129.214 35.7847 131.126 35.6482 131.126 35.6482C131.126 35.6482 139.32 36.8773 139.73 36.7407C140.139 36.6041 144.373 32.234 144.919 30.7318C145.329 29.3661 142.734 28.8198 142.734 28.8198Z" fill="url(#paint2_linear)"/>
<path d="M146.421 25.8151C146.012 25.542 144.509 25.8151 143.963 26.4979C143.417 27.3174 142.051 29.639 142.051 29.639C142.051 29.639 143.007 30.0487 143.417 30.4584C143.827 30.8681 144.373 31.8241 144.373 31.8241C144.373 31.8241 146.421 28.9562 146.831 28.4099C147.241 27.7271 147.104 26.3614 146.421 25.8151Z" fill="#EBFFFD"/>
<path d="M142.597 24.5858C142.597 24.5858 142.734 23.903 142.871 23.7664C143.007 23.6299 143.28 23.7664 144.1 23.4933C144.782 23.2202 145.056 22.947 145.056 22.947L145.465 24.0396C145.329 24.1761 143.963 24.859 142.597 24.5858Z" fill="#EBFFFD"/>
<path d="M145.602 19.2599C145.329 21.0352 143.554 22.1278 142.871 21.9912C142.051 21.8546 140.959 20.2158 141.232 18.4405C141.505 16.6651 142.598 15.9823 143.827 16.2554C145.056 16.5285 145.875 17.6211 145.602 19.2599Z" fill="#FCBDA4"/>
<path d="M141.095 18.7137C141.095 18.5771 140.685 17.6211 141.505 16.392C142.051 15.5726 143.007 15.1629 144.1 15.4361C145.329 15.7092 145.738 16.392 146.012 17.348C146.285 18.4405 145.465 19.3965 145.465 19.3965C145.465 19.3965 145.329 17.8943 145.056 17.348C144.782 16.9383 143.007 16.6652 142.461 16.6652C141.368 17.0749 141.095 18.7137 141.095 18.7137Z" fill="#543518"/>
<path d="M145.465 19.2598C145.465 19.2598 145.738 18.85 146.012 18.9866C146.285 19.1232 145.875 20.0791 145.602 20.2157C145.329 20.4888 145.056 20.6254 145.056 20.6254C145.056 20.4889 145.465 19.2598 145.465 19.2598Z" fill="#FCBDA4"/>
<path d="M141.915 29.7756L142.597 28.6831C142.734 28.6831 143.69 29.2294 143.826 29.5025C143.963 29.7756 143.826 30.1853 143.826 30.1853C143.826 30.1853 143.963 30.0488 144.373 30.0488C144.646 30.0488 145.329 30.7316 145.329 30.7316L144.373 31.9607C144.373 31.9607 143.826 31.2779 143.28 30.8682C142.734 30.4585 141.915 29.7756 141.915 29.7756Z" fill="#EBFFFD"/>
<path d="M143.827 37.1504C143.827 37.1504 142.598 37.8332 140.822 37.9698C139.047 38.2429 138.091 37.9698 138.091 37.9698L137.954 39.472C137.954 39.472 139.183 39.6086 140.959 39.3355C142.734 39.1989 144.236 38.2429 144.236 38.2429L143.827 37.1504Z" fill="#EBFFFD"/>
<path d="M136.042 28.9564C135.496 29.3661 133.721 29.2296 131.536 29.2296C129.487 29.2296 128.121 29.3661 127.575 28.9564C127.029 28.4102 127.165 26.7714 127.848 26.4982C128.258 26.2251 130.033 26.2251 132.218 26.2251C133.994 26.2251 135.769 26.3617 136.042 26.6348C136.589 27.1811 136.589 28.4102 136.042 28.9564Z" fill="#3D576B"/>
<path d="M137.135 32.2338C136.589 32.6435 134.677 32.0972 132.492 32.0972C130.17 32.0972 128.258 32.6435 127.848 32.2338C127.302 31.6875 127.165 29.5025 127.848 29.0928C128.258 28.8196 130.716 28.9562 133.038 29.0928C134.95 29.0928 136.862 28.9562 137.135 29.0928C137.818 29.7756 137.818 31.8241 137.135 32.2338Z" fill="#E8CF4F"/>
<path d="M137.545 29.7756C137.545 29.7756 135.086 29.7756 132.765 29.7756C130.58 29.7756 128.395 29.639 128.395 29.9122C128.258 30.8681 137.271 29.639 137.681 30.1853L137.545 29.7756Z" fill="url(#paint3_linear)"/>
<path d="M136.452 28.0002C136.452 28.0002 136.315 28.5465 135.223 28.4099C132.082 28.1368 128.121 28.1368 128.121 28.4099C128.121 28.8196 135.496 29.2294 136.179 28.8197C136.315 28.6831 136.452 28.0002 136.452 28.0002Z" fill="url(#paint4_linear)"/>
<path d="M127.439 26.908C127.439 26.908 127.985 26.6349 128.941 26.6349C131.262 26.4983 135.086 26.6349 135.223 26.908C135.496 27.864 131.262 26.908 128.941 26.908C127.848 26.908 127.302 27.3177 127.302 27.3177L127.439 26.908Z" fill="url(#paint5_linear)"/>
<path d="M127.438 30.8682C127.438 30.8682 127.848 31.2779 130.033 31.2779C132.628 31.4144 136.862 31.1413 136.862 31.1413C136.725 32.6435 127.848 33.3264 127.438 31.4144C127.438 31.2779 127.438 30.8682 127.438 30.8682Z" fill="url(#paint6_linear)"/>
<path d="M136.861 34.8283C136.452 35.1015 133.857 34.8283 131.126 34.8283C128.667 34.8283 127.985 35.238 127.712 34.6918C127.302 33.8724 126.892 32.6433 127.848 32.2336C128.941 31.8239 131.126 32.097 133.038 32.097C134.95 32.097 136.588 31.8239 136.861 32.2336C137.271 32.7798 137.408 34.4186 136.861 34.8283Z" fill="#FFDD00"/>
<path d="M137.135 32.9169C137.135 32.9169 134.677 32.9169 132.218 32.9169C130.033 32.9169 127.712 32.0975 127.848 33.0535C127.985 33.7363 129.624 33.1901 131.672 33.1901C134.267 33.1901 137.135 33.3266 137.135 33.3266V32.9169Z" fill="url(#paint7_linear)"/>
<path d="M127.438 33.8729C127.575 34.2826 128.804 33.7363 131.809 33.7363C134.267 33.7363 136.862 34.0095 136.862 34.146C136.725 34.6923 134.403 34.5557 132.082 34.4192C127.438 34.0095 127.575 34.6923 127.575 34.6923L127.438 33.8729Z" fill="url(#paint8_linear)"/>
<path d="M143.69 18.9868C143.69 19.26 143.554 19.5331 143.827 19.6697C143.554 19.5331 143.69 19.26 143.69 18.9868Z" fill="#75271A"/>
<path d="M143.962 18.8501C144.372 18.8501 144.235 19.6695 143.826 19.5329C143.553 19.5329 143.689 18.8501 143.962 18.8501Z" fill="#543518"/>
<path d="M142.461 18.8501C142.461 19.1232 142.324 19.3964 142.051 19.3964C142.324 19.3964 142.461 18.9867 142.461 18.8501Z" fill="#75271A"/>
<path d="M142.324 18.5766C141.915 18.44 141.778 19.1228 142.051 19.2594C142.461 19.2594 142.598 18.5766 142.324 18.5766Z" fill="#543518"/>
<path d="M144.373 18.5769C144.236 18.5769 144.236 18.4404 144.1 18.4404C143.963 18.4404 143.963 18.3038 143.827 18.1672V18.0307C143.963 17.8941 144.1 18.0307 144.236 18.0307C144.373 18.1672 144.509 18.1672 144.509 18.3038C144.646 18.5769 144.509 18.7135 144.373 18.5769Z" fill="#543518"/>
<path d="M142.188 18.1675C142.324 18.1675 142.324 18.1675 142.461 18.1675C142.597 18.1675 142.734 18.1675 142.734 18.031V17.8944C142.597 17.7578 142.461 17.7578 142.324 17.7578C142.188 17.7578 142.051 17.7578 141.915 17.8944C141.915 17.8944 142.051 18.1675 142.188 18.1675Z" fill="#543518"/>
<path d="M142.871 20.2156H142.461C142.598 19.6693 142.734 19.1231 143.144 18.7134C143.007 19.2596 142.734 19.6693 142.597 20.2156C142.734 20.2156 142.871 20.2156 143.007 20.2156" fill="#543518"/>
<path d="M143.007 21.172C142.87 21.172 142.87 21.3086 142.734 21.3086C142.597 21.3086 142.597 21.3086 142.461 21.172C142.461 21.3086 142.597 21.3086 142.734 21.3086C143.007 21.3086 143.007 21.172 143.007 21.172C143.144 21.172 143.007 21.0355 143.007 21.172Z" fill="#75271A"/>
<path d="M142.324 20.4893C142.324 20.4893 142.324 20.7624 142.461 21.0355C142.461 21.1721 142.597 21.1721 142.734 21.1721C143.007 21.1721 143.007 21.0355 143.144 20.899C143.144 20.7624 143.144 20.6258 143.144 20.6258C143.144 20.6258 142.87 20.6258 142.324 20.4893Z" fill="#75271A"/>
<path d="M142.461 20.899C142.461 21.0356 142.597 21.0356 142.734 21.0356C143.007 21.0356 143.144 21.0356 143.28 20.7625C143.007 20.7625 142.597 20.7624 142.461 20.899Z" fill="#FF98B9"/>
<path d="M112.143 8.47041C112.822 8.47041 113.372 7.92012 113.372 7.24131C113.372 6.5625 112.822 6.01221 112.143 6.01221C111.464 6.01221 110.914 6.5625 110.914 7.24131C110.914 7.92012 111.464 8.47041 112.143 8.47041Z" fill="url(#paint9_linear)"/>
<path opacity="0.19" d="M69.8074 31.4141C65.0276 31.8238 60.794 31.4141 56.0142 31.0044C55.3313 25.2686 55.1948 19.806 55.6045 13.9336C57.5164 12.2948 59.7015 10.7925 62.0231 9.97314C62.5694 9.97314 62.8425 10.1097 63.3888 9.97314C65.7104 11.0657 67.8955 12.1582 69.8074 13.797C70.3537 19.5328 70.6268 25.9515 69.8074 31.4141Z" fill="#6CC8C1"/>
<path d="M62.9791 13.9336C63.9351 13.5239 64.7545 12.7045 65.4373 11.7486C64.6179 11.7486 63.7985 11.7486 63.1157 11.7486C62.1597 11.7486 61.0672 11.7486 60.2478 11.3389C60.6575 12.7045 61.75 13.5239 62.9791 13.9336Z" fill="#F19679"/>
<path d="M62.9792 10.3829C62.9792 9.97315 63.2524 9.42689 63.6621 9.15375C64.0718 8.88062 64.4815 8.60749 64.7546 8.19779C65.0277 7.65152 65.0277 7.10525 64.7546 6.69555C64.4815 6.28585 63.9352 5.87615 63.3889 5.87615C62.9792 5.73958 62.433 5.87615 62.0233 6.01271C61.6136 6.28585 61.3404 6.69555 61.2039 7.10525C61.2039 7.51495 61.3404 8.19778 61.8867 8.33435C62.0233 8.33435 62.0233 8.33435 62.0233 8.33435C62.1598 8.19778 61.8867 7.92465 61.8867 7.65152C61.8867 7.37838 61.8867 7.10525 62.0233 6.96868C62.2964 6.55898 62.8427 6.55898 63.2524 6.83212C63.6621 7.10525 63.7986 7.65152 63.6621 8.06122C63.5255 8.47092 63.1158 8.88062 62.8427 9.29032C62.5695 9.70002 62.2964 10.1097 62.2964 10.5194C62.5695 10.3829 62.7061 10.3829 62.9792 10.3829Z" fill="#363347"/>
<path d="M59.7014 11.8852L62.7059 10.1099L65.7104 11.7487L65.4372 12.0218L62.7059 10.7927L59.9745 12.0218L59.7014 11.8852Z" fill="#363347"/>
<path d="M69.6707 26.2247C68.9879 26.3612 68.305 26.2247 67.6222 26.2247C67.4856 26.2247 67.4856 26.2247 67.3491 26.2247C67.3491 27.1806 67.3491 28.2732 67.3491 29.2291C64.6177 29.6388 61.6133 29.6388 58.8819 29.2291C58.8819 28.4097 58.8819 27.3172 58.7454 26.6344C58.6088 26.6344 58.6088 26.6344 58.4722 26.6344C57.6528 26.6344 56.6969 26.4978 55.8775 26.3612C55.6043 22.4008 55.6043 18.3038 55.8775 14.2068C57.1066 12.9777 58.4722 12.0217 59.9745 11.3389C60.6573 12.1583 61.4767 12.8411 62.2961 13.5239C63.3886 13.1142 64.4812 12.4314 65.164 11.4754C66.6662 12.0217 67.8953 12.8411 68.9879 13.9336C69.6707 18.0306 69.8073 22.2642 69.6707 26.2247Z" fill="url(#paint10_linear)"/>
<path d="M59.7017 12.1577C59.8382 13.3868 60.3845 14.6159 61.0673 15.5719C61.477 15.0256 62.0233 14.4794 62.5696 13.9331C63.2524 14.3428 63.6621 14.8891 64.2084 15.4353C64.7546 14.3428 65.3009 13.3868 65.7106 12.1577C65.4375 13.3868 65.0278 14.6159 64.3449 15.7085C63.9352 15.1622 63.2524 14.6159 62.7061 14.0697C62.1599 14.7525 61.6136 15.2988 61.0673 15.9816C60.1114 14.8891 59.7017 13.5234 59.7017 12.1577ZM58.7457 17.0741C58.6091 20.2152 58.6091 23.3562 58.6091 26.4972C58.6091 26.4972 58.6091 26.6338 58.6091 26.7704C58.7457 26.7704 58.7457 26.7704 58.8823 26.7704C59.1554 23.2196 59.0188 20.3517 58.7457 17.0741ZM67.6226 26.2241C67.486 23.0831 67.486 19.942 67.486 16.801C67.3494 19.942 67.3494 23.0831 67.3494 26.2241C67.486 26.2241 67.6226 26.2241 67.6226 26.2241ZM62.8427 16.5279C62.7061 20.7614 62.7061 25.1316 62.9793 29.3651C63.1158 25.1316 63.1158 20.7614 62.8427 16.5279Z" fill="#F19679"/>
<path d="M62.7061 15.1626C62.8426 15.1626 62.9792 15.2992 62.9792 15.4357C62.9792 15.5723 62.8426 15.7089 62.7061 15.8454C62.5695 15.8454 62.2964 15.7089 62.2964 15.5723C62.2964 15.2992 62.5695 15.1626 62.7061 15.1626Z" fill="#FCA746"/>
<path d="M69.398 28.2728C69.398 23.7661 69.398 19.1229 69.2614 14.6161C68.9883 15.0258 68.5786 15.4355 68.1689 15.8452C68.3054 15.299 68.442 14.8893 68.5786 14.4796C68.0323 14.7527 67.6226 14.7527 67.2129 14.8893C67.7592 14.6161 68.1689 14.2064 68.7151 13.9333C67.0763 12.7042 65.1644 11.7482 63.1159 11.0654C63.1159 11.4751 63.1159 11.7482 62.9793 12.0214C62.8428 11.6117 62.5696 11.3385 62.4331 10.9288C62.1599 11.202 61.8868 11.6117 61.4771 11.8848C61.6137 11.6117 61.6137 11.3385 61.6137 10.9288C59.8383 11.8848 58.1995 13.1139 56.6973 14.4796C56.9704 14.6161 57.2435 14.7527 57.5167 14.8893C57.107 14.8893 56.8338 14.8893 56.4241 14.8893C56.5607 15.1624 56.8338 15.5721 57.1069 15.8452C56.6972 15.7087 56.4241 15.4355 56.0144 15.0258C55.7413 17.0743 55.6047 18.9863 55.4681 21.1713C55.3316 18.8497 55.3316 16.6646 55.4681 14.343C57.3801 12.8408 59.292 11.202 61.6137 10.5191C62.1599 10.3826 62.5696 10.5191 63.1159 10.3826C65.301 11.3385 67.3495 12.5676 69.2614 13.9333C70.0808 18.7132 69.9442 23.493 69.398 28.2728Z" fill="#CDBFA1"/>
<path d="M68.4418 21.0348C64.4813 21.7176 60.2478 20.2154 57.7896 17.2109C58.8821 19.1229 60.3843 20.6251 62.2963 21.3079C64.3448 21.9908 66.3933 21.8542 68.4418 21.0348Z" fill="#CDBFA1"/>
<path d="M67.7591 23.3563C65.0278 24.3123 61.8868 24.1757 59.292 23.2197C60.5211 24.3123 61.7502 24.9951 63.389 24.9951C64.8912 24.8585 66.53 24.3123 67.7591 23.3563Z" fill="#CDBFA1"/>
<path d="M59.0186 29.229C61.3402 23.2201 62.2962 18.0305 64.2081 11.885C65.8469 12.2947 67.3491 13.3872 68.8514 14.3432C67.2126 20.079 65.8469 24.176 63.1156 29.5021" fill="url(#paint11_linear)"/>
<path opacity="0.19" d="M84.9664 41.2471C81.1426 41.6568 77.1821 41.6568 73.3583 41.2471C71.5829 32.0971 71.0366 22.9472 71.5829 13.6606C73.4948 12.1584 75.8165 10.9293 78.1381 10.2464C78.5478 10.1099 78.6844 10.1099 79.0941 10.1099C81.2791 10.6561 83.8739 12.5681 86.059 14.2069C86.7418 23.0837 86.3321 32.3703 84.9664 41.2471Z" fill="#6CC8C1"/>
<path d="M78.8211 17.0747C80.0502 15.2993 80.8696 13.3874 81.5524 11.3389C79.7771 11.4754 78.0017 11.3389 76.2263 11.3389C76.636 12.4314 76.9092 13.7971 77.4554 14.8896C77.7286 15.709 78.1383 16.5284 78.8211 17.0747Z" fill="#C1A435"/>
<path d="M78.9577 10.3829C78.9577 9.97315 79.2309 9.42689 79.6406 9.15375C80.0503 8.88062 80.46 8.60749 80.7331 8.19779C81.0062 7.65152 81.0062 7.10525 80.7331 6.69555C80.46 6.28585 79.9137 5.87615 79.3674 5.87615C78.9577 5.73958 78.4115 5.87615 78.0018 6.01271C77.5921 6.28585 77.3189 6.69555 77.1824 7.10525C77.1824 7.51495 77.3189 8.19778 77.8652 8.33435C78.0018 8.33435 78.0018 8.33435 78.0018 8.33435C78.1383 8.19778 77.8652 7.92465 77.8652 7.65152C77.8652 7.37838 77.8652 7.10525 78.0018 6.96868C78.2749 6.55898 78.8212 6.55898 79.2309 6.83212C79.6406 7.10525 79.7771 7.65152 79.6406 8.06122C79.504 8.47092 79.0943 8.88062 78.8212 9.29032C78.548 9.70002 78.2749 10.1097 78.2749 10.5194C78.548 10.3829 78.6846 10.3829 78.9577 10.3829Z" fill="#363347"/>
<path d="M75.8167 11.8852L78.6846 10.1099L81.689 11.7487L81.4159 12.0218L78.6846 10.7927L75.9532 12.0218L75.8167 11.8852Z" fill="#363347"/>
<path d="M86.1954 23.903C85.9223 23.903 85.7857 23.903 85.5126 23.903C85.7857 20.6254 85.7857 17.2112 85.5126 14.0702C84.1469 12.9777 82.9178 12.1583 81.4156 11.3389C80.5962 13.3874 79.6402 15.0262 78.6842 16.665C77.7283 15.1627 76.7723 13.3874 76.0895 11.3389C74.7238 12.0217 73.3581 12.8411 72.129 13.9336C71.9925 17.3478 71.8559 20.8985 72.129 24.3127C71.9925 24.3127 71.8559 24.3127 71.5828 24.4493C71.7193 24.9956 71.7193 25.4053 71.8559 25.9515C71.9925 25.9515 72.129 25.9515 72.129 25.9515C72.129 26.2247 72.129 26.6344 72.2656 26.9075C72.8119 27.0441 73.3581 27.1806 73.9044 27.1806C74.041 27.1806 74.041 27.1806 74.1775 27.1806C74.4507 31.0045 74.7238 34.8284 74.9969 38.6522C77.7283 39.0619 80.1865 39.3351 82.9178 38.9254C83.3275 34.9649 83.7372 31.0045 84.0104 26.9075H84.1469C84.5566 26.7709 84.9663 26.7709 85.376 26.6344C85.376 26.2247 85.5126 25.815 85.5126 25.4053C85.6492 25.4053 85.7857 25.5418 86.0589 25.5418C86.0589 24.9956 86.1954 24.4493 86.1954 23.903Z" fill="#E8CF4F"/>
<path d="M75.6797 16.6646C76.2259 16.528 76.7722 16.3915 77.3185 16.2549C76.9088 16.6646 76.6356 16.9377 76.2259 17.3474C76.9088 19.3959 77.5916 21.3079 78.2744 23.3564C77.7282 21.3079 77.0453 19.2594 76.3625 17.3474C76.7722 16.9377 77.1819 16.528 77.455 16.1183C76.7722 16.1183 76.0894 16.2549 75.5431 16.3915C74.9968 15.2989 74.4506 14.0698 73.9043 12.9773C74.5871 14.2064 74.9968 15.4355 75.6797 16.6646Z" fill="#C1A435"/>
<path d="M82.0986 16.6646C81.5523 16.528 81.0061 16.3915 80.4598 16.2549C80.7329 16.6646 81.1426 16.9377 81.5523 17.3474C80.7329 19.3959 80.0501 21.3079 79.2307 23.3564C79.777 21.3079 80.5964 19.2594 81.4158 17.3474C81.0061 16.9377 80.7329 16.528 80.3232 16.1183C81.0061 16.1183 81.6889 16.2549 82.2352 16.3915C82.7814 15.2989 83.4643 14.0698 84.0106 12.9773C83.3277 14.2064 82.7814 15.4355 82.0986 16.6646Z" fill="#C1A435"/>
<path d="M79.2306 38.6522C78.8209 31.5508 78.6843 24.5859 78.6843 17.4844C78.9575 24.5859 79.094 31.6873 79.2306 38.6522Z" fill="#C1A435"/>
<path d="M74.1776 27.3175C74.041 27.3175 74.041 27.3175 73.9044 27.3175C73.7679 23.4936 73.7679 19.5332 73.9044 15.5728C74.041 19.5332 74.041 23.3571 74.1776 27.3175Z" fill="#C1A435"/>
<path d="M84.1469 27.0437H84.0104C84.1469 23.7661 84.1469 20.4885 83.8738 17.2109C84.1469 20.352 84.2835 23.7661 84.1469 27.0437Z" fill="#C1A435"/>
<path d="M74.4509 27.1807C75.1338 26.4978 75.68 25.815 76.0897 24.9956C76.4994 25.2687 76.7726 25.5419 76.9091 25.9516C76.636 25.6784 76.4994 25.5419 76.2263 25.2687C75.68 25.9516 74.9972 26.771 74.4509 27.4538C74.5875 27.4538 74.4509 27.1807 74.4509 27.1807Z" fill="#C1A435"/>
<path d="M83.6008 27.1807C83.0545 26.4978 82.5083 25.815 81.962 24.9956C81.5523 25.2687 81.2791 25.5419 81.1426 25.9516C81.4157 25.6784 81.5523 25.5419 81.8254 25.2687C82.2351 25.9516 82.918 26.771 83.4642 27.4538L83.6008 27.1807Z" fill="#C1A435"/>
<path d="M73.3582 25.9512C73.085 25.9512 72.6753 25.8147 72.4022 25.8147C72.6753 25.8147 72.9485 25.8147 73.2216 25.8147C73.2216 25.2684 73.2216 24.7221 73.085 24.1759C72.8119 24.1759 72.5388 24.3124 72.2656 24.3124C72.5388 24.1759 72.9485 24.0393 73.2216 24.0393C73.4947 24.5856 73.4947 25.2684 73.3582 25.9512Z" fill="#C1A435"/>
<path d="M85.5128 24.0392C85.2396 24.0392 84.8299 24.0392 84.8299 24.0392C84.8299 24.4489 84.8299 24.722 84.8299 25.1317C84.9665 25.2683 85.1031 25.2683 85.3762 25.4048C85.1031 25.4048 84.9665 25.2683 84.6934 25.2683C84.6934 24.8586 84.6934 24.3123 84.8299 23.9026C84.9665 23.9026 85.2396 23.9026 85.5128 24.0392Z" fill="#C1A435"/>
<path d="M85.3762 32.5066C85.9225 26.3611 86.0591 20.0791 85.7859 14.0701C83.874 12.4313 81.6889 11.0656 79.3673 10.3828C78.9576 10.3828 78.6844 10.3828 78.2747 10.5194C75.9531 11.2022 73.768 12.2948 71.8561 13.9336C71.4464 18.5768 71.4464 23.3567 71.8561 27.9999C71.7195 23.6298 71.8561 19.1231 72.2658 14.6164C72.8121 15.0261 73.2218 15.4358 73.768 15.9821C73.4949 15.2992 73.0852 14.8895 72.6755 14.3433C73.0852 14.4798 73.4949 14.6164 73.9046 14.6164C73.6315 14.3433 73.2218 14.0701 72.8121 13.797C74.3143 12.7044 75.8165 11.7485 77.5919 11.0656C77.4553 12.0216 77.4553 12.841 77.4553 13.797C77.865 12.9776 78.0016 12.0216 78.2747 11.0656C78.4113 11.4753 78.6844 11.7485 78.9576 12.0216C78.9576 11.6119 79.0941 11.2022 79.0941 10.7925C80.0501 11.2022 80.8695 11.885 81.5523 12.7045C81.2792 12.0216 80.8695 11.4753 80.3232 10.9291C81.962 11.7485 83.4643 12.7044 84.9665 13.797C84.2837 14.0701 83.6009 14.4798 83.0546 14.8895C83.7374 14.753 84.2837 14.753 84.9665 14.6164C84.6934 15.0261 84.4203 15.4358 84.2837 15.8455C84.6934 15.4358 84.9665 15.1627 85.3762 14.753C85.7859 20.6253 85.9225 26.7708 85.3762 32.5066Z" fill="#CDBFA1"/>
<path d="M83.7371 20.2158C83.0543 20.7621 82.508 21.5815 81.8252 22.1278C81.1423 22.674 80.3229 23.2203 79.367 23.63C77.7282 24.4494 75.8162 24.9957 73.9043 24.8591C75.5431 24.4494 77.1819 24.0397 78.6841 23.2203C80.5961 22.5375 82.2349 21.4449 83.7371 20.2158Z" fill="#CDBFA1"/>
<path d="M82.9177 26.2246C80.5961 28.6828 77.3185 30.0485 73.9043 30.1851C74.5871 30.1851 75.4065 29.7753 76.0894 29.5022C76.9088 29.2291 77.7282 28.9559 78.5476 28.5462C80.0498 27.8634 81.552 27.1806 82.9177 26.2246Z" fill="#CDBFA1"/>
<path d="M82.2351 35.784C79.7769 35.2378 77.4552 34.1452 75.4067 32.7795C76.2261 33.8721 77.1821 34.6915 78.4112 35.1012C79.7769 35.6475 80.8694 35.5109 82.2351 35.784Z" fill="#CDBFA1"/>
<path d="M76.2263 38.5155C80.4598 29.7753 82.5083 23.2201 85.1031 13.7969C84.1471 12.9775 83.0546 12.4313 81.9621 11.885C79.6404 21.3081 78.0016 28.9559 74.8606 38.2424C75.4069 38.2424 75.8166 38.5155 76.2263 38.5155Z" fill="url(#paint12_linear)"/>
<path opacity="0.19" d="M107.637 41.2471C103.813 41.6568 99.8523 41.6568 96.0284 41.2471C94.1165 32.0971 93.4336 22.9472 93.8433 13.6606C95.7553 12.1584 98.0769 10.9293 100.399 10.2464C100.808 10.1099 100.945 10.1099 101.355 10.1099C103.676 10.6561 106.271 12.5681 108.319 14.2069C109.002 23.0837 108.866 32.3703 107.637 41.2471Z" fill="#6CC8C1"/>
<path d="M97.5305 11.7483C98.3499 12.8408 99.579 13.3871 100.945 13.3871C102.174 13.3871 103.539 12.8408 104.495 12.0214L105.042 12.4311L103.813 15.7087L97.9402 15.299L97.1208 12.0214L97.5305 11.7483Z" fill="#DC514A"/>
<path d="M100.945 10.3829C100.945 9.97315 101.218 9.42689 101.628 9.15375C102.037 8.88062 102.447 8.60749 102.72 8.19779C102.993 7.65152 102.857 7.10525 102.584 6.69555C102.311 6.28585 101.764 5.87615 101.218 5.87615C100.808 5.73958 100.262 5.87615 99.8524 6.01271C99.4427 6.28585 99.1695 6.69555 99.033 7.10525C99.033 7.51495 99.3061 8.19778 99.7158 8.33435C99.8524 8.33435 99.8524 8.33435 99.8524 8.33435C99.9889 8.19778 99.7158 7.92465 99.7158 7.65152C99.7158 7.37838 99.7158 7.10525 99.8524 6.96868C100.125 6.55898 100.672 6.55898 101.081 6.83212C101.491 7.10525 101.628 7.65152 101.491 8.06122C101.355 8.47092 101.081 8.88062 100.672 9.29032C100.399 9.70002 100.125 10.1097 100.125 10.5194C100.672 10.3829 100.808 10.3829 100.945 10.3829Z" fill="#363347"/>
<path d="M94.2532 13.7972L100.672 10.1099L107.91 14.2069L107.637 14.3434L100.808 10.7927L94.3897 14.0703L94.2532 13.7972Z" fill="#363347"/>
<path d="M106.681 13.6602H94.7993V13.7967H106.681V13.6602Z" fill="#363347"/>
<path d="M107.09 38.6518C103.539 40.0175 99.0327 39.1981 95.7551 37.5593C95.7551 31.6869 96.7111 27.5899 98.623 19.9422C97.5305 18.8496 97.3939 17.6205 97.3939 16.1183C97.3939 15.2989 97.3939 14.616 97.2574 13.7966C97.1208 13.1138 96.9842 12.431 96.9842 11.8847C97.2574 11.7481 97.3939 11.7481 97.6671 11.6116C97.6671 12.5675 97.8036 13.5235 98.0768 14.4795C99.8521 15.1623 101.764 15.1623 103.539 14.8892C103.949 13.9332 104.359 12.8407 104.632 11.8847C104.769 12.0213 104.905 12.0213 105.178 12.1578C105.178 12.1578 104.632 13.9332 104.632 14.0698C104.495 14.7526 104.495 15.4354 104.632 16.2548C104.905 17.6205 104.632 18.713 103.813 20.2153C105.998 27.863 107.363 32.5063 107.09 38.6518Z" fill="#FF7857"/>
<path d="M106.681 38.6524C103.267 39.6084 99.3061 39.0621 96.165 37.2868C96.165 35.2383 96.4382 33.3263 96.9844 31.2778C96.8479 33.1898 96.5747 35.2383 96.5747 37.0136C97.121 37.5599 97.9404 37.833 98.7598 37.6965C98.8964 36.1942 99.0329 34.8286 99.4426 33.3263C99.3061 34.8286 99.3061 36.3308 99.4426 37.833C100.808 38.789 102.72 39.1987 104.359 38.789C104.632 36.3308 104.632 33.736 104.086 31.2778C104.496 33.736 104.769 36.1942 104.769 38.6524C105.042 38.6524 105.861 38.5159 106.134 38.3793C106.134 36.1942 106.134 33.8726 105.861 31.6875C106.544 34.0092 106.817 36.3308 106.681 38.6524Z" fill="#DC514A"/>
<path d="M99.033 20.079C98.4868 21.7178 98.2136 23.3566 98.2136 25.132C98.3502 23.4932 98.8965 21.991 99.4427 20.4887C99.3062 21.4447 99.3062 22.5372 99.3062 23.4932C99.4427 22.4007 99.8524 21.4447 100.126 20.4887C101.082 20.4887 102.174 20.4887 103.13 20.6253C104.086 22.2641 104.905 24.0395 105.315 25.8148C104.905 23.7663 104.359 21.8544 103.403 19.9425C103.676 19.5328 104.086 19.1231 104.223 18.7134C102.174 19.2596 99.989 18.9865 98.2136 18.0305C98.2136 18.8499 98.4868 19.6693 99.033 20.079Z" fill="#DC514A"/>
<path d="M107.91 32.5064C108.319 26.3609 108.456 20.0788 108.046 14.0699C105.998 12.4311 103.813 11.0654 101.491 10.3826C101.081 10.3826 100.808 10.3826 100.399 10.5191C98.077 11.202 95.8919 12.2945 93.9799 13.9333C93.7068 18.5766 93.7068 23.3564 94.2531 27.9997C94.1165 23.6296 94.1165 19.1229 94.3896 14.6161C94.9359 15.0258 95.3456 15.4355 95.8919 15.9818C95.6187 15.299 95.209 14.8893 94.7993 14.343C95.209 14.4796 95.6187 14.6161 96.0284 14.6161C95.7553 14.343 95.3456 14.0699 94.9359 13.7967C96.4382 12.7042 97.9404 11.7482 99.5792 11.0654C99.4426 12.0214 99.4426 12.8408 99.4426 13.7967C99.8523 12.9773 99.9889 12.0214 100.125 11.0654C100.262 11.4751 100.535 11.7482 100.808 12.0214C100.808 11.6117 100.945 11.202 100.945 10.7923C101.901 11.202 102.72 11.8848 103.403 12.7042C103.13 12.0214 102.72 11.4751 102.174 10.9288C103.813 11.7482 105.315 12.7042 106.817 13.7967C106.134 14.0699 105.452 14.4796 104.905 14.8893C105.588 14.7527 106.134 14.7527 106.817 14.6161C106.544 15.0258 106.271 15.4355 106.134 15.8452C106.544 15.4355 106.817 15.1624 107.227 14.7527C108.046 20.6251 108.319 26.7706 107.91 32.5064Z" fill="#CDBFA1"/>
<path d="M105.998 20.2158C105.315 20.7621 104.769 21.5815 104.086 22.1278C103.403 22.674 102.584 23.2203 101.628 23.63C99.9889 24.4494 98.077 24.9957 96.165 24.8591C97.8038 24.4494 99.4426 24.0397 100.945 23.2203C102.857 22.5375 104.496 21.4449 105.998 20.2158Z" fill="#CDBFA1"/>
<path d="M105.315 26.2246C102.993 28.6828 99.7156 30.0485 96.438 30.1851C97.1208 30.1851 97.9402 29.7753 98.6231 29.5022C99.4425 29.2291 100.262 28.9559 101.081 28.5462C102.447 27.8634 103.949 27.1806 105.315 26.2246Z" fill="#CDBFA1"/>
<path d="M104.769 35.784C102.311 35.2378 99.9889 34.1452 97.9404 32.7795C98.7598 33.8721 99.7158 34.6915 101.081 35.1012C102.311 35.6475 103.403 35.5109 104.769 35.784Z" fill="#CDBFA1"/>
<path opacity="0.12" d="M98.7598 38.6521C102.857 29.9118 104.769 23.2201 107.227 13.7969C106.271 12.9775 105.178 12.4313 103.949 11.885C101.764 21.3081 100.125 28.9559 97.2576 38.2424C97.8038 38.2424 98.3501 38.6521 98.7598 38.6521Z" fill="url(#paint13_linear)"/>
<path d="M112.007 7.78761H23.7847V6.69507H112.007C112.826 6.69507 112.826 7.78761 112.007 7.78761Z" fill="#6CC8C1"/>
<path d="M112.417 7.24149C112.417 6.96835 112.28 6.83179 112.143 6.83179H23.7847V7.24149H112.417Z" fill="url(#paint14_linear)"/>
<path d="M63.2522 6.69507C63.6619 6.9682 63.7985 7.37791 63.6619 7.78761H64.7544C64.7544 7.37791 64.7544 6.9682 64.6179 6.69507H63.2522Z" fill="#363347"/>
<path d="M79.3672 6.69507C79.7769 6.9682 79.9134 7.37791 79.7769 7.78761H80.8694C80.8694 7.37791 80.8694 6.9682 80.7329 6.69507H79.3672Z" fill="#363347"/>
<path d="M101.354 6.69507C101.764 6.9682 101.901 7.37791 101.764 7.78761H102.856C102.856 7.37791 102.856 6.9682 102.72 6.69507H101.354Z" fill="#363347"/>
<path d="M29.5202 9.56327C29.5202 9.15357 29.7934 8.6073 30.2031 8.33417C30.6128 8.06104 31.0225 7.7879 31.2956 7.3782C31.5687 6.83193 31.5687 6.28567 31.2956 5.87597C31.0225 5.46627 30.4762 5.05657 29.9299 5.05657C29.5202 4.92 28.974 5.05657 28.5643 5.19313C28.1546 5.46627 27.8814 5.87597 27.7449 6.28567C27.7449 6.69537 27.8814 7.3782 28.4277 7.51477C28.5643 7.51477 28.5643 7.51477 28.5643 7.51477C28.7008 7.3782 28.4277 7.10507 28.4277 6.83194C28.4277 6.5588 28.4277 6.28567 28.5643 6.1491C28.8374 5.7394 29.3837 5.7394 29.7934 6.01253C30.2031 6.28567 30.3396 6.83194 30.2031 7.24164C30.0665 7.65134 29.6568 8.06104 29.3837 8.47074C29.1105 8.88044 28.8374 9.29014 28.8374 9.69984C29.1105 9.56327 29.2471 9.42671 29.5202 9.56327Z" fill="#363347"/>
<path d="M26.3792 10.9292L29.2471 9.15381L32.2515 10.9292L31.9784 11.0657L29.2471 9.97321L26.5157 11.2023L26.3792 10.9292Z" fill="#363347"/>
<path d="M25.8328 10.7925L26.5156 10.3828C27.4716 10.1097 29.3835 9.97314 30.8857 9.97314C30.8857 9.97314 31.8417 10.3828 32.5245 10.7925C32.5245 10.7925 30.476 21.1716 28.4275 21.1716C27.4716 21.1716 26.5156 18.5769 25.8328 10.7925Z" fill="#1E5BC6"/>
<path d="M32.388 11.4756C31.8417 13.6606 30.2029 21.1718 28.4275 21.1718C27.4716 21.1718 26.5156 18.7136 25.8328 11.6121C26.9253 10.7927 31.5686 11.0659 32.388 11.4756Z" fill="#252C3F"/>
<path d="M23.5111 20.0794C23.6477 19.26 23.7843 15.9824 24.0574 13.6608C24.194 12.1585 24.6037 11.2026 24.6037 11.2026H24.7403C25.15 11.2026 25.5597 11.066 25.8328 11.066C25.9694 11.066 26.1059 10.9294 26.2425 10.9294C26.2425 13.1145 26.2425 20.4891 26.1059 21.3085C25.9694 22.2645 24.194 30.7316 24.194 30.7316L21.4626 30.4585C21.7358 30.4585 23.238 21.5817 23.5111 20.0794Z" fill="#1E5BC6"/>
<path opacity="0.32" d="M25.1499 14.4803C25.2864 13.3878 25.5596 12.2953 25.1499 11.3393C25.423 11.3393 25.6961 11.2027 25.8327 11.2027C25.9693 11.2027 26.1058 11.0662 26.2424 11.0662C26.2424 13.2512 26.2424 20.6258 26.1058 21.4452C25.9693 22.4012 24.1939 30.8684 24.1939 30.8684L22.6917 30.5952C23.2379 30.049 24.7402 16.5288 25.1499 14.4803Z" fill="#878883"/>
<path d="M30.8858 10.1099C30.8858 10.1099 32.7977 10.5196 33.8903 11.0658C33.8903 11.0658 32.9343 17.8942 32.9343 20.2158C32.9343 22.4009 34.5731 30.1852 34.5731 30.1852C34.5731 30.1852 34.4366 30.7315 31.8418 30.868C29.7933 31.0046 28.0179 29.7755 28.0179 28.1367C28.0179 23.7666 28.0179 17.0748 28.0179 16.5285C27.8813 15.7091 30.7492 12.8412 30.8858 10.1099Z" fill="#1E5BC6"/>
<path opacity="0.32" d="M30.8858 10.1099C30.8858 10.1099 32.7977 10.5196 33.8903 11.0658C33.8903 11.0658 32.9343 17.8942 32.9343 20.2158C32.9343 22.4009 34.5731 30.1852 34.5731 30.1852C34.5731 30.1852 34.4366 30.7315 31.8418 30.868C29.7933 31.0046 28.0179 29.7755 28.0179 28.1367C28.0179 23.7666 28.0179 17.0748 28.0179 16.5285C27.8813 15.7091 30.7492 12.8412 30.8858 10.1099Z" fill="#878883"/>
<path opacity="0.55" d="M27.8814 28.683C27.8814 28.5464 27.8814 28.4098 27.7449 28.4098C27.7449 24.9957 27.7449 18.8501 27.7449 16.3919L28.018 16.2554V29.0927C28.018 28.9561 28.018 28.8195 27.8814 28.683Z" fill="#6D6E68"/>
<path d="M25.0133 19.9424C25.1499 19.5327 24.7402 11.3387 24.7402 11.3387C24.7402 11.3387 25.423 10.7924 26.5156 10.5193C26.5156 10.5193 26.5156 10.6559 26.5156 11.0656L27.8812 15.026V28.5461C27.8812 30.0483 25.9693 31.1409 24.1939 30.458H24.0574C24.0574 30.3215 25.0133 20.3521 25.0133 19.9424Z" fill="#1E5BC6"/>
<path opacity="0.32" d="M25.0133 19.9424C25.1499 19.5327 24.7402 11.3387 24.7402 11.3387C24.7402 11.3387 25.423 10.7924 26.5156 10.5193C26.5156 10.5193 26.5156 10.6559 26.5156 11.0656L27.8812 15.026V28.5461C27.8812 30.0483 25.9693 31.1409 24.1939 30.458H24.0574C24.0574 30.3215 25.0133 20.3521 25.0133 19.9424Z" fill="#878883"/>
<path d="M32.2514 24.3127C32.2514 24.3127 32.5245 24.9956 31.7051 24.9956C30.8857 24.9956 29.6566 25.1321 29.3835 24.9956C29.1104 24.859 29.1104 24.3127 29.2469 24.3127H32.2514Z" fill="#1E5BC6"/>
<path d="M24.6036 24.3127L26.379 24.4493C26.5155 24.4493 26.379 24.859 26.1058 24.9956C25.9693 25.1321 25.1499 25.1321 24.467 24.9956C24.467 24.7224 24.6036 24.5859 24.6036 24.3127Z" fill="#1E5BC6"/>
<path opacity="0.32" d="M31.705 21.8544C31.2953 19.8059 30.8856 17.6208 31.4318 15.5723C31.8415 14.0701 32.7975 12.9775 33.7535 11.885C33.4803 13.7969 32.7975 18.4402 32.9341 20.2156C32.9341 22.4007 34.5729 30.185 34.5729 30.185C34.5729 30.185 34.4363 30.7312 31.705 30.8678C31.5684 30.8678 31.0221 30.8678 31.1587 30.8678C32.3878 27.9999 32.1147 24.5857 31.705 21.8544Z" fill="#878883"/>
<path opacity="0.32" d="M25.0133 19.9425C25.0133 19.9425 25.0133 19.806 25.0133 19.9425C25.0133 19.806 25.0133 19.806 25.0133 19.806C25.0133 19.806 25.0133 19.806 25.0133 19.6694C25.0133 19.6694 25.0133 19.6694 25.0133 19.5328C25.0133 19.5328 25.0133 19.5328 25.0133 19.3963V19.2597C25.0133 19.2597 25.0133 19.2597 25.0133 19.1231V18.9866V18.85C25.0133 18.85 25.0133 18.85 25.0133 18.7134C25.0133 18.5769 25.0133 18.3037 25.0133 18.0306C25.0133 17.894 25.0133 17.894 25.0133 17.7575C25.0133 17.6209 25.0133 17.6209 25.0133 17.4843C25.0133 17.0746 25.0133 16.6649 25.0133 16.1187C25.2865 17.6209 25.9693 19.1231 25.8327 20.7619C25.6962 22.8104 25.6962 24.9955 25.6962 27.044C25.6962 28.1365 25.6962 29.2291 25.9693 30.185C25.423 30.3216 24.7402 30.3216 24.1939 30.185H24.0574C24.0574 30.3216 25.0133 20.3522 25.0133 19.9425Z" fill="#878883"/>
<path d="M26.5157 10.3833C26.7889 11.4758 27.7448 14.7534 28.2911 15.9825C28.1545 16.1191 28.018 16.3922 28.018 16.5288C27.1986 15.1631 26.2426 13.2512 25.5598 11.8855L25.9695 11.4758L25.4232 11.3393C25.2866 11.0661 26.5157 10.3833 26.5157 10.3833Z" fill="#1E5BC6"/>
<path d="M27.8813 16.1188C27.8813 16.1188 30.3395 11.6121 30.8857 10.1099C31.1589 10.1099 32.2514 11.2024 32.1148 11.4755L31.1589 11.7487L31.8417 12.0218C30.7492 13.6606 28.9738 15.5725 27.8813 16.8016C27.8813 16.8016 27.7447 16.3919 27.8813 16.1188Z" fill="#1E5BC6"/>
<path d="M27.3351 21.7181C27.486 21.7181 27.6083 21.5959 27.6083 21.445C27.6083 21.2942 27.486 21.1719 27.3351 21.1719C27.1843 21.1719 27.062 21.2942 27.062 21.445C27.062 21.5959 27.1843 21.7181 27.3351 21.7181Z" fill="#292C3B"/>
<path d="M27.3351 23.4933C27.486 23.4933 27.6083 23.371 27.6083 23.2202C27.6083 23.0693 27.486 22.947 27.3351 22.947C27.1843 22.947 27.062 23.0693 27.062 23.2202C27.062 23.371 27.1843 23.4933 27.3351 23.4933Z" fill="#292C3B"/>
<path d="M27.3351 19.9425C27.486 19.9425 27.6083 19.8202 27.6083 19.6694C27.6083 19.5185 27.486 19.3962 27.3351 19.3962C27.1843 19.3962 27.062 19.5185 27.062 19.6694C27.062 19.8202 27.1843 19.9425 27.3351 19.9425Z" fill="#292C3B"/>
<path d="M27.3351 18.1674C27.486 18.1674 27.6083 18.0451 27.6083 17.8942C27.6083 17.7434 27.486 17.6211 27.3351 17.6211C27.1843 17.6211 27.062 17.7434 27.062 17.8942C27.062 18.0451 27.1843 18.1674 27.3351 18.1674Z" fill="#292C3B"/>
<path d="M27.3351 25.2692C27.486 25.2692 27.6083 25.1469 27.6083 24.996C27.6083 24.8452 27.486 24.7229 27.3351 24.7229C27.1843 24.7229 27.062 24.8452 27.062 24.996C27.062 25.1469 27.1843 25.2692 27.3351 25.2692Z" fill="#292C3B"/>
<path d="M27.3351 27.0443C27.486 27.0443 27.6083 26.922 27.6083 26.7712C27.6083 26.6203 27.486 26.498 27.3351 26.498C27.1843 26.498 27.062 26.6203 27.062 26.7712C27.062 26.922 27.1843 27.0443 27.3351 27.0443Z" fill="#292C3B"/>
<path d="M32.5245 19.26C32.5245 19.26 31.8417 14.3436 31.9783 12.9779C32.1148 11.6123 33.2074 10.9294 33.7536 10.9294C34.2999 11.066 36.0753 15.4361 36.6215 21.172C37.1678 26.9078 37.3044 31.2779 37.3044 31.2779C37.3044 31.2779 35.6656 31.4145 34.0268 31.4145C34.0268 31.4145 33.2074 23.6302 33.0708 22.8108C33.0708 22.1279 32.5245 19.26 32.5245 19.26Z" fill="#1E5BC6"/>
<path opacity="0.32" d="M32.7978 19.6698C32.9343 21.5818 33.0709 23.084 33.0709 22.9474C32.9343 22.128 32.3881 19.2601 32.3881 19.2601C32.3881 19.2601 31.9784 15.5728 31.8418 13.6609C32.1149 14.2072 32.6612 18.3042 32.7978 19.6698Z" fill="#878883"/>
<path opacity="0.19" d="M37.4411 32.2336C32.6613 32.6433 25.6964 31.5508 20.9165 31.1411C20.2337 25.4053 22.8285 17.8941 23.1016 12.1583C25.0136 10.5195 26.1061 10.1098 28.4277 9.15381C28.974 9.15381 29.2471 9.29038 29.7934 9.15381C32.115 10.2463 34.3001 10.5195 36.212 12.2948C36.8949 17.8941 38.2605 26.7709 37.4411 32.2336Z" fill="#6CC8C1"/>
<path d="M35.9389 27.3171C35.9389 22.8104 35.9389 18.1671 35.8024 13.6604C35.5292 14.0701 35.1195 14.4798 34.7098 14.8895C34.8464 14.3433 34.983 13.9336 35.1195 13.5239C34.5733 13.797 34.1636 13.797 33.7539 13.9336C34.3001 13.6604 34.7098 13.2507 35.2561 12.9776C33.6173 11.7485 31.7054 10.7925 29.6569 10.1097C29.6569 10.5194 29.6569 10.7925 29.5203 11.0657C29.3837 10.656 29.1106 10.3828 28.974 9.97312C28.7009 10.2463 28.4278 10.656 28.0181 10.9291C28.1546 10.656 28.1546 10.3828 28.1546 9.97312C26.3793 10.9291 24.7404 12.1582 23.2382 13.5239C23.5113 13.6604 23.7845 13.797 24.0576 13.9336C23.6479 13.9336 23.3748 13.9336 22.9651 13.9336C23.1016 14.2067 23.3748 14.6164 23.6479 14.8895C23.2382 14.753 23.6479 16.2552 23.3748 15.9821C23.1016 18.0306 22.8285 18.7134 22.8285 20.7619C22.6919 18.4403 23.1016 14.6164 23.2382 12.2948C25.1501 10.7925 25.9695 10.2462 28.2912 9.42685C28.8375 9.29028 29.2472 9.42685 29.7934 9.29028C31.9785 10.2463 34.027 10.7925 35.9389 12.2948C36.6218 17.2112 36.4852 22.5373 35.9389 27.3171Z" fill="#CDBFA1"/>
<path d="M42.2205 11.3388C42.2205 11.3388 42.2205 11.0657 43.1764 10.9291C44.269 10.656 46.1809 10.656 47.8197 10.656C48.5025 10.656 48.5025 11.0657 49.3219 11.3388C49.3219 11.3388 47.1369 21.4448 44.9518 21.4448C43.9958 21.3082 43.0399 18.85 42.2205 11.3388Z" fill="url(#paint15_linear)"/>
<path d="M49.3221 11.8849C48.7758 14.0699 47.0005 21.4446 45.0885 21.308C43.996 21.308 43.04 18.9863 42.3572 12.0214C43.5863 11.3386 48.3661 11.4752 49.3221 11.8849Z" fill="url(#paint16_linear)"/>
<path d="M39.8991 20.3524C40.0357 19.533 40.0357 16.5286 40.3088 14.3435C40.5819 12.5681 41.1282 11.7487 41.1282 11.7487H41.2648C41.6745 11.7487 42.0842 11.6122 42.4939 11.6122C42.6304 11.6122 42.767 11.4756 42.9036 11.4756C42.9036 13.5241 42.9036 20.7621 42.767 21.5815C42.6304 22.4009 40.8551 30.7315 40.8551 30.7315L37.8506 30.3218C37.8506 30.3218 39.626 21.7181 39.8991 20.3524Z" fill="url(#paint17_linear)"/>
<path opacity="0.32" d="M41.6745 14.753C41.9476 13.6605 42.0842 12.7045 41.6745 11.612C41.9476 11.612 42.2208 11.4754 42.4939 11.4754C42.6305 11.4754 42.767 11.3389 42.9036 11.3389C42.9036 13.3874 42.9036 20.6254 42.767 21.4448C42.6305 22.2642 40.8551 30.5948 40.8551 30.5948L39.2163 30.4582C39.4894 30.0485 41.1282 16.8015 41.6745 14.753Z" fill="#878883"/>
<path d="M47.8199 10.5193C47.8199 10.5193 49.7319 10.929 50.8244 11.4753C50.8244 11.4753 49.7319 18.167 49.7319 20.3521C49.7319 22.5372 51.5072 30.0483 51.5072 30.0483C51.5072 30.0483 51.2341 30.8677 44.4058 30.7312C44.4058 30.7312 44.4058 15.982 44.4058 15.1626C44.5423 14.6163 47.6834 13.2506 47.8199 10.5193Z" fill="url(#paint18_linear)"/>
<path opacity="0.55" d="M44.6788 16.5281V30.8676H44.5422C44.5422 30.8676 44.5422 20.2154 44.5422 16.8012L44.6788 16.5281Z" fill="#6D6E68"/>
<path d="M41.401 20.2156C41.5376 19.8059 41.1279 11.7484 41.1279 11.7484C41.1279 11.7484 41.5376 11.3387 42.357 11.2021C42.4936 11.3387 42.7667 11.3387 43.0398 11.3387L44.5421 15.1626V30.8678C44.5421 30.8678 41.2645 30.5946 40.4451 30.1849C40.4451 30.1849 41.401 20.4887 41.401 20.2156Z" fill="url(#paint19_linear)"/>
<path d="M49.1856 24.4495C49.1856 24.4495 49.4587 26.498 48.6393 26.498C47.8199 26.498 46.4542 26.6345 46.1811 26.498C45.908 26.3614 45.908 24.4495 46.0445 24.4495H49.1856Z" fill="url(#paint20_linear)"/>
<path d="M40.9915 24.4495H42.9035C43.0401 24.4495 43.04 26.2248 42.7669 26.498C42.6303 26.6345 41.6744 26.6345 40.855 26.498C40.855 25.8151 40.855 25.1323 40.9915 24.4495Z" fill="url(#paint21_linear)"/>
<path d="M49.1856 24.4495C49.1856 24.4495 49.4587 25.1323 48.6393 25.1323C47.8199 25.1323 46.4542 25.2689 46.1811 25.1323C45.908 24.9957 45.908 24.4495 46.0445 24.586L49.1856 24.4495Z" fill="url(#paint22_linear)"/>
<path d="M40.9915 24.4495L42.9035 24.586C43.0401 24.586 42.9035 24.9957 42.6303 25.1323C42.4938 25.2689 41.5378 25.2689 40.855 25.1323C40.855 24.8592 40.9915 24.586 40.9915 24.4495Z" fill="url(#paint23_linear)"/>
<path opacity="0.32" d="M48.5025 21.9913C48.0928 20.0793 47.6831 17.8943 48.2294 15.8458C48.6391 14.4801 49.595 13.3875 50.6876 12.1584C50.4144 13.9338 49.7316 18.5771 49.7316 20.3525C49.7316 22.5375 51.507 30.0487 51.507 30.0487C51.507 30.0487 51.3704 30.595 47.6831 30.7315C49.3219 28.1368 49.0488 24.7226 48.5025 21.9913Z" fill="#878883"/>
<path opacity="0.32" d="M42.4939 30.5945C41.6745 30.4579 40.7185 30.3213 40.3088 30.1848C40.3088 30.1848 41.2648 20.4885 41.4014 20.0788C41.4014 19.9422 41.4014 18.3034 41.2648 16.5281C41.5379 18.0303 42.2208 19.5325 42.2208 21.0348C42.0842 23.0833 42.0842 25.1318 42.0842 27.1803C42.2208 28.4094 42.0842 29.5019 42.4939 30.5945Z" fill="#878883"/>
<path d="M44.4058 15.026C44.4058 15.026 47.2737 11.885 47.5468 10.5193C47.5468 10.5193 49.4587 10.7924 49.5953 10.929C49.5953 11.0656 49.3222 11.6118 48.9125 12.4312C48.6393 12.9775 48.2296 13.2506 47.5468 13.5238C47.9565 13.6603 47.9565 14.07 47.6834 14.3432C46.864 15.1626 45.908 16.1185 44.4058 17.8939C44.5423 17.8939 44.4058 15.1626 44.4058 15.026Z" fill="url(#paint24_linear)"/>
<path opacity="0.55" d="M44.6788 17.6207C44.6788 17.7572 44.5422 17.7573 44.5422 17.8938C44.5422 17.8938 44.5422 16.1184 44.5422 15.299C44.5422 15.1625 44.5422 15.1625 44.5422 15.0259C44.5422 15.0259 44.5422 14.8893 44.6788 14.7528L44.8154 14.6162L44.6788 17.6207Z" fill="#6D6E68"/>
<path d="M43.0399 13.5241L42.7667 13.3875C42.357 13.2509 42.2205 11.2024 42.2205 11.2024C42.2205 11.0659 43.4496 10.7927 43.4496 10.7927C43.5861 12.0218 44.5421 14.8897 44.5421 14.8897C44.5421 15.5726 44.5421 17.8942 44.5421 17.8942C44.1324 17.3479 43.5861 16.5285 42.7667 14.3435C42.4936 13.6606 43.0399 13.5241 43.0399 13.5241Z" fill="url(#paint25_linear)"/>
<path d="M43.996 21.8541C44.1469 21.8541 44.2692 21.7318 44.2692 21.581C44.2692 21.4301 44.1469 21.3079 43.996 21.3079C43.8452 21.3079 43.7229 21.4301 43.7229 21.581C43.7229 21.7318 43.8452 21.8541 43.996 21.8541Z" fill="url(#paint26_linear)"/>
<path d="M43.996 23.63C44.1469 23.63 44.2692 23.5077 44.2692 23.3569C44.2692 23.206 44.1469 23.0837 43.996 23.0837C43.8452 23.0837 43.7229 23.206 43.7229 23.3569C43.7229 23.5077 43.8452 23.63 43.996 23.63Z" fill="url(#paint27_linear)"/>
<path d="M43.996 20.2157C44.1469 20.2157 44.2692 20.0934 44.2692 19.9426C44.2692 19.7917 44.1469 19.6694 43.996 19.6694C43.8452 19.6694 43.7229 19.7917 43.7229 19.9426C43.7229 20.0934 43.8452 20.2157 43.996 20.2157Z" fill="url(#paint28_linear)"/>
<path d="M43.996 18.4401C44.1469 18.4401 44.2692 18.3178 44.2692 18.1669C44.2692 18.0161 44.1469 17.8938 43.996 17.8938C43.8452 17.8938 43.7229 18.0161 43.7229 18.1669C43.7229 18.3178 43.8452 18.4401 43.996 18.4401Z" fill="url(#paint29_linear)"/>
<path d="M43.996 25.4052C44.1469 25.4052 44.2692 25.2829 44.2692 25.132C44.2692 24.9812 44.1469 24.8589 43.996 24.8589C43.8452 24.8589 43.7229 24.9812 43.7229 25.132C43.7229 25.2829 43.8452 25.4052 43.996 25.4052Z" fill="url(#paint30_linear)"/>
<path d="M43.996 27.1801C44.1469 27.1801 44.2692 27.0578 44.2692 26.9069C44.2692 26.7561 44.1469 26.6338 43.996 26.6338C43.8452 26.6338 43.7229 26.7561 43.7229 26.9069C43.7229 27.0578 43.8452 27.1801 43.996 27.1801Z" fill="url(#paint31_linear)"/>
<path d="M49.4586 19.5329C49.4586 19.5329 48.7758 14.753 48.9123 13.3873C49.0489 12.0217 50.278 11.3388 50.8243 11.4754C51.3706 11.612 53.2825 15.8455 53.9653 21.4448C54.6482 27.044 54.6482 31.2776 54.6482 31.2776C54.6482 31.2776 52.8728 31.4142 51.0974 31.4142C51.0974 31.4142 50.1415 23.7664 50.0049 23.0836C50.0049 22.2642 49.4586 19.5329 49.4586 19.5329Z" fill="url(#paint32_linear)"/>
<path opacity="0.32" d="M49.7318 19.9426C50.005 21.718 50.005 23.2202 50.005 23.0836C49.8684 22.4008 49.3221 19.5329 49.3221 19.5329C49.3221 19.5329 48.7759 15.9822 48.7759 14.2068C48.9124 14.6165 49.5953 18.5769 49.7318 19.9426Z" fill="#878883"/>
<path d="M46.4543 9.56327C46.4543 9.15357 46.7275 8.6073 47.1372 8.33417C47.5469 8.06104 47.9566 7.7879 48.2297 7.3782C48.5028 6.83193 48.5028 6.28567 48.2297 5.87597C47.9566 5.46627 47.4103 5.05657 46.864 5.05657C46.4543 4.92 45.9081 5.05657 45.4984 5.19313C45.0887 5.46627 44.8155 5.87597 44.679 6.28567C44.679 6.69537 44.8155 7.3782 45.3618 7.51477C45.4984 7.51477 45.4984 7.51477 45.4984 7.51477C45.6349 7.3782 45.3618 7.10507 45.3618 6.83194C45.3618 6.5588 45.3618 6.28567 45.4984 6.1491C45.7715 5.7394 46.3178 5.7394 46.7275 6.01253C47.1372 6.28567 47.2737 6.83194 47.1372 7.24164C47.0006 7.65134 46.5909 8.06104 46.3178 8.47074C46.0446 8.88044 45.7715 9.29014 45.7715 9.69984C46.0446 9.56327 46.1812 9.56327 46.4543 9.56327Z" fill="#363347"/>
<path d="M43.1768 11.0657L46.1812 9.29028L49.1857 10.9291L48.9126 11.2022L46.1812 9.97312L43.4499 11.2022L43.1768 11.0657Z" fill="#363347"/>
<path opacity="0.19" d="M54.9215 31.6873C50.1416 32.097 42.4939 31.6872 37.8506 31.2775C37.1678 25.5417 39.7626 18.0306 40.0357 12.2948C41.9476 10.656 43.0402 10.2463 45.3618 9.29028C45.9081 9.29028 46.1812 9.42685 46.7275 9.29028C49.0491 10.3828 51.2342 10.656 53.1461 12.4313C53.6924 18.0306 55.8775 26.088 54.9215 31.6873Z" fill="#6CC8C1"/>
<path d="M52.873 27.4533C52.873 22.9466 52.873 18.3034 52.7364 13.7967C52.4633 14.2064 52.0536 14.6161 51.6439 15.0258C51.7805 14.4795 51.917 14.0698 52.0536 13.6601C51.5073 13.9332 51.0976 13.9332 50.6879 14.0698C51.2342 13.7967 51.6439 13.387 52.1902 13.1138C50.5514 11.8847 48.6394 10.9288 46.5909 10.2459C46.5909 10.6556 46.5909 10.9288 46.4544 11.2019C46.3178 10.7922 46.0447 10.519 45.9081 10.1093C45.635 10.3825 45.3618 10.7922 44.9521 11.0653C45.0887 10.7922 45.0887 10.519 45.0887 10.1093C43.3133 11.0653 41.6745 12.2944 40.1723 13.6601C40.4454 13.7967 40.7186 13.9332 40.9917 14.0698C40.582 14.0698 40.3089 14.0698 39.8992 14.0698C40.0357 14.3429 40.3089 14.7526 40.582 15.0258C40.1723 14.8892 40.582 16.3914 40.3089 16.1183C40.0357 18.1668 39.7626 18.8496 39.7626 20.8981C39.626 18.5765 40.0357 14.7526 40.1723 12.431C42.0842 10.9288 42.9036 10.3825 45.2253 9.56308C45.7715 9.42652 46.1812 9.56308 46.7275 9.42651C48.9126 10.3825 50.9611 10.9288 52.873 12.431C53.5558 17.2108 53.4193 22.6735 52.873 27.4533Z" fill="#CDBFA1"/>
<defs>
<linearGradient id="paint0_linear" x1="45.7505" y1="41.3877" x2="51.0569" y2="84.2184" gradientUnits="userSpaceOnUse">
<stop stop-color="#FDD8A4"/>
<stop offset="0.4741" stop-color="#77654D"/>
<stop offset="0.8827"/>
</linearGradient>
<linearGradient id="paint1_linear" x1="135.076" y1="28.9922" x2="139.101" y2="36.2721" gradientUnits="userSpaceOnUse">
<stop stop-color="#FF9A6A"/>
<stop offset="0.9923" stop-color="#F17954"/>
</linearGradient>
<linearGradient id="paint2_linear" x1="134.742" y1="30.0944" x2="138.767" y2="37.3742" gradientUnits="userSpaceOnUse">
<stop offset="0.00766284" stop-color="#FFBD95"/>
<stop offset="1" stop-color="#FF9A67"/>
</linearGradient>
<linearGradient id="paint3_linear" x1="128.312" y1="29.8918" x2="136.94" y2="29.8918" gradientUnits="userSpaceOnUse">
<stop offset="0.00383142" stop-color="#F3EDE8"/>
<stop offset="0.4141" stop-color="#F5F1ED"/>
<stop offset="0.8659" stop-color="#FCFBFA"/>
<stop offset="0.9962" stop-color="white"/>
</linearGradient>
<linearGradient id="paint4_linear" x1="128.132" y1="28.4206" x2="135.825" y2="28.4206" gradientUnits="userSpaceOnUse">
<stop offset="0.003831" stop-color="white"/>
<stop offset="0.1341" stop-color="#FCFBFA"/>
<stop offset="0.5859" stop-color="#F5F1ED"/>
<stop offset="0.9962" stop-color="#F3EDE8"/>
</linearGradient>
<linearGradient id="paint5_linear" x1="135.259" y1="27.0039" x2="127.885" y2="27.0039" gradientUnits="userSpaceOnUse">
<stop offset="0.00383142" stop-color="#F3EDE8"/>
<stop offset="0.5261" stop-color="#FBF9F7"/>
<stop offset="0.9962" stop-color="white"/>
</linearGradient>
<linearGradient id="paint6_linear" x1="136.779" y1="31.7703" x2="128.04" y2="31.7703" gradientUnits="userSpaceOnUse">
<stop offset="0.003831" stop-color="white"/>
<stop offset="0.1341" stop-color="#FCFBFA"/>
<stop offset="0.5859" stop-color="#F5F1ED"/>
<stop offset="0.9962" stop-color="#F3EDE8"/>
</linearGradient>
<linearGradient id="paint7_linear" x1="127.983" y1="32.9703" x2="136.573" y2="32.9703" gradientUnits="userSpaceOnUse">
<stop offset="0.00383142" stop-color="#F3EDE8"/>
<stop offset="0.4141" stop-color="#F5F1ED"/>
<stop offset="0.8659" stop-color="#FCFBFA"/>
<stop offset="0.9962" stop-color="white"/>
</linearGradient>
<linearGradient id="paint8_linear" x1="136.866" y1="34.1361" x2="128.071" y2="34.1361" gradientUnits="userSpaceOnUse">
<stop offset="0.003831" stop-color="white"/>
<stop offset="0.1341" stop-color="#FCFBFA"/>
<stop offset="0.5859" stop-color="#F5F1ED"/>
<stop offset="0.9962" stop-color="#F3EDE8"/>
</linearGradient>
<linearGradient id="paint9_linear" x1="110.173" y1="8.30107" x2="113.885" y2="6.39009" gradientUnits="userSpaceOnUse">
<stop stop-color="#C8E8BF"/>
<stop offset="0.1958" stop-color="#A2D1B2"/>
<stop offset="0.4013" stop-color="#81BDA7"/>
<stop offset="0.5134" stop-color="#74B5A3"/>
<stop offset="0.606" stop-color="#7DBAA6"/>
<stop offset="0.754" stop-color="#94C8AE"/>
<stop offset="0.938" stop-color="#BADFBA"/>
<stop offset="1" stop-color="#C8E8BF"/>
</linearGradient>
<linearGradient id="paint10_linear" x1="61.6062" y1="36.1678" x2="63.0386" y2="13.5262" gradientUnits="userSpaceOnUse">
<stop stop-color="#F5BA85"/>
<stop offset="0.6233" stop-color="#FCDDB1"/>
<stop offset="1" stop-color="#FFEFC7"/>
</linearGradient>
<linearGradient id="paint11_linear" x1="67.4407" y1="12.0083" x2="58.8028" y2="33.1996" gradientUnits="userSpaceOnUse">
<stop stop-color="#9BA87E"/>
<stop offset="0.7104" stop-color="#1F2119"/>
<stop offset="0.8827"/>
</linearGradient>
<linearGradient id="paint12_linear" x1="84.3592" y1="10.9801" x2="75.5823" y2="39.0512" gradientUnits="userSpaceOnUse">
<stop stop-color="#9BA87E"/>
<stop offset="0.7104" stop-color="#1F2119"/>
<stop offset="0.8827"/>
</linearGradient>
<linearGradient id="paint13_linear" x1="106.445" y1="10.979" x2="97.7616" y2="38.9166" gradientUnits="userSpaceOnUse">
<stop stop-color="#9BA87E"/>
<stop offset="0.7104" stop-color="#1F2119"/>
<stop offset="0.8827"/>
</linearGradient>
<linearGradient id="paint14_linear" x1="115.795" y1="0.92665" x2="29.2883" y2="11.9958" gradientUnits="userSpaceOnUse">
<stop stop-color="#87A37F"/>
<stop offset="0.2214" stop-color="#85A07D"/>
<stop offset="0.3789" stop-color="#7D9776"/>
<stop offset="0.5165" stop-color="#708769"/>
<stop offset="0.6427" stop-color="#5E7158"/>
<stop offset="0.7611" stop-color="#465542"/>
<stop offset="0.8738" stop-color="#293127"/>
<stop offset="0.9799" stop-color="#070907"/>
<stop offset="1"/>
</linearGradient>
<linearGradient id="paint15_linear" x1="49.4132" y1="15.9736" x2="42.2448" y2="15.9736" gradientUnits="userSpaceOnUse">
<stop stop-color="#2C2825"/>
<stop offset="1" stop-color="#3D3A37"/>
</linearGradient>
<linearGradient id="paint16_linear" x1="46.1327" y1="17.4901" x2="45.3925" y2="5.2327" gradientUnits="userSpaceOnUse">
<stop stop-color="#2C2825"/>
<stop offset="1" stop-color="#3D3A37"/>
</linearGradient>
<linearGradient id="paint17_linear" x1="40.3773" y1="11.616" x2="40.3773" y2="31.171" gradientUnits="userSpaceOnUse">
<stop stop-color="#2C2825"/>
<stop offset="1" stop-color="#3D3A37"/>
</linearGradient>
<linearGradient id="paint18_linear" x1="47.9644" y1="11.6156" x2="47.9644" y2="31.1706" gradientUnits="userSpaceOnUse">
<stop stop-color="#2C2825"/>
<stop offset="1" stop-color="#3D3A37"/>
</linearGradient>
<linearGradient id="paint19_linear" x1="42.4426" y1="11.6157" x2="42.4426" y2="31.1708" gradientUnits="userSpaceOnUse">
<stop stop-color="#2C2825"/>
<stop offset="1" stop-color="#3D3A37"/>
</linearGradient>
<linearGradient id="paint20_linear" x1="47.5563" y1="24.5733" x2="47.5563" y2="26.8287" gradientUnits="userSpaceOnUse">
<stop stop-color="#2C2825"/>
<stop offset="0.2251" stop-color="#2F2B28"/>
<stop offset="0.412" stop-color="#393633"/>
<stop offset="0.4652" stop-color="#3D3A37"/>
</linearGradient>
<linearGradient id="paint21_linear" x1="41.8594" y1="24.5993" x2="41.8594" y2="26.8252" gradientUnits="userSpaceOnUse">
<stop stop-color="#2C2825"/>
<stop offset="0.2251" stop-color="#2F2B28"/>
<stop offset="0.412" stop-color="#393633"/>
<stop offset="0.4652" stop-color="#3D3A37"/>
</linearGradient>
<linearGradient id="paint22_linear" x1="47.5563" y1="22.9759" x2="47.5563" y2="25.7447" gradientUnits="userSpaceOnUse">
<stop stop-color="#44413E"/>
<stop offset="1" stop-color="#3D3A37"/>
</linearGradient>
<linearGradient id="paint23_linear" x1="41.9119" y1="22.9759" x2="41.9119" y2="25.7447" gradientUnits="userSpaceOnUse">
<stop stop-color="#44413E"/>
<stop offset="1" stop-color="#3D3A37"/>
</linearGradient>
<linearGradient id="paint24_linear" x1="47.041" y1="11.3396" x2="47.041" y2="17.8546" gradientUnits="userSpaceOnUse">
<stop stop-color="#44413E"/>
<stop offset="1" stop-color="#3D3A37"/>
</linearGradient>
<linearGradient id="paint25_linear" x1="43.3723" y1="11.3399" x2="43.3723" y2="17.8549" gradientUnits="userSpaceOnUse">
<stop stop-color="#44413E"/>
<stop offset="1" stop-color="#3D3A37"/>
</linearGradient>
<linearGradient id="paint26_linear" x1="43.9383" y1="21.3446" x2="43.9383" y2="21.9399" gradientUnits="userSpaceOnUse">
<stop stop-color="#44413E"/>
<stop offset="1" stop-color="#3D3A37"/>
</linearGradient>
<linearGradient id="paint27_linear" x1="43.9383" y1="23.0836" x2="43.9383" y2="23.6789" gradientUnits="userSpaceOnUse">
<stop stop-color="#44413E"/>
<stop offset="1" stop-color="#3D3A37"/>
</linearGradient>
<linearGradient id="paint28_linear" x1="43.9383" y1="19.6046" x2="43.9383" y2="20.2" gradientUnits="userSpaceOnUse">
<stop stop-color="#44413E"/>
<stop offset="1" stop-color="#3D3A37"/>
</linearGradient>
<linearGradient id="paint29_linear" x1="43.9383" y1="17.8639" x2="43.9383" y2="18.4593" gradientUnits="userSpaceOnUse">
<stop stop-color="#44413E"/>
<stop offset="1" stop-color="#3D3A37"/>
</linearGradient>
<linearGradient id="paint30_linear" x1="43.9383" y1="24.8219" x2="43.9383" y2="25.4172" gradientUnits="userSpaceOnUse">
<stop stop-color="#44413E"/>
<stop offset="1" stop-color="#3D3A37"/>
</linearGradient>
<linearGradient id="paint31_linear" x1="43.9383" y1="26.5599" x2="43.9383" y2="27.1552" gradientUnits="userSpaceOnUse">
<stop stop-color="#44413E"/>
<stop offset="1" stop-color="#3D3A37"/>
</linearGradient>
<linearGradient id="paint32_linear" x1="51.7692" y1="11.6158" x2="51.7692" y2="31.1708" gradientUnits="userSpaceOnUse">
<stop stop-color="#2C2825"/>
<stop offset="1" stop-color="#3D3A37"/>
</linearGradient>
</defs>
</svg>
