<?xml version="1.0" encoding="utf-8"?>
<!-- Generator: Adobe Illustrator 19.0.0, SVG Export Plug-In . SVG Version: 6.00 Build 0)  -->
<svg version="1.1" id="Layer_1" xmlns="http://www.w3.org/2000/svg" xmlns:xlink="http://www.w3.org/1999/xlink" x="0px" y="0px"
	 viewBox="0 0 200.7 117.2" style="enable-background:new 0 0 200.7 117.2;" xml:space="preserve">
<style type="text/css">
	.st0{fill:#FAFFFF;}
	.st1{fill:#6CC8C1;}
	.st2{fill:#CCD9E2;}
	.st3{fill:#F5FBFF;}
	.st4{opacity:0.18;fill:#0C123A;}
	.st5{fill:url(#SVGID_1_);}
	.st6{fill:#3D576B;}
	.st7{fill:#FFDD00;}
	.st8{fill:#FFEC00;}
	.st9{fill:#FFFFFF;}
	.st10{fill:none;}
	.st11{opacity:0.2;fill:#29235C;}
	.st12{fill:#5C8097;}
	.st13{fill:url(#SVGID_2_);}
	.st14{fill:#EBFFFD;}
	.st15{fill:#3F2510;}
	.st16{fill:#F4AB92;}
	.st17{fill:#161C2C;}
	.st18{fill:#333846;}
	.st19{fill:#FCBDA4;}
	.st20{fill:url(#SVGID_3_);}
	.st21{fill:#543518;}
	.st22{fill:#E8CF4F;}
	.st23{fill:url(#SVGID_4_);}
	.st24{fill:url(#SVGID_5_);}
	.st25{fill:url(#SVGID_6_);}
	.st26{fill:url(#SVGID_7_);}
	.st27{fill:url(#SVGID_8_);}
	.st28{fill:url(#SVGID_9_);}
	.st29{fill:#75271A;}
	.st30{fill:#FF98B9;}
	.st31{fill:url(#SVGID_10_);}
	.st32{opacity:0.19;fill:#6CC8C1;}
	.st33{fill:#F19679;}
	.st34{fill:#363347;}
	.st35{fill:url(#SVGID_11_);}
	.st36{fill:#FCA746;}
	.st37{fill:#CDBFA1;}
	.st38{fill:url(#SVGID_12_);}
	.st39{fill:#C1A435;}
	.st40{fill:url(#SVGID_13_);}
	.st41{fill:#DC514A;}
	.st42{fill:#FF7857;}
	.st43{opacity:0.12;fill:url(#SVGID_14_);}
	.st44{fill:url(#SVGID_15_);}
	.st45{fill:#1E5BC6;}
	.st46{fill:#252C3F;}
	.st47{opacity:0.32;fill:#878883;}
	.st48{opacity:0.55;fill:#6D6E68;}
	.st49{fill:#292C3B;}
	.st50{fill:url(#SVGID_16_);}
	.st51{fill:url(#SVGID_17_);}
	.st52{fill:url(#SVGID_18_);}
	.st53{fill:url(#SVGID_19_);}
	.st54{fill:url(#SVGID_20_);}
	.st55{fill:url(#SVGID_21_);}
	.st56{fill:url(#SVGID_22_);}
	.st57{fill:url(#SVGID_23_);}
	.st58{fill:url(#SVGID_24_);}
	.st59{fill:url(#SVGID_25_);}
	.st60{fill:url(#SVGID_26_);}
	.st61{fill:url(#SVGID_27_);}
	.st62{fill:url(#SVGID_28_);}
	.st63{fill:url(#SVGID_29_);}
	.st64{fill:url(#SVGID_30_);}
	.st65{fill:url(#SVGID_31_);}
	.st66{fill:url(#SVGID_32_);}
	.st67{fill:url(#SVGID_33_);}
</style>
<g>
	<path class="st0" d="M20.7,111.1h158.5c0,0,4-81.7-42-87.6S81.7,55.1,53.7,56.6C25.7,58.1,15.7,92.2,20.7,111.1z"/>
	<g>
		<g>
			<polygon class="st1" points="41.5,110.1 114.3,110.1 115.1,88.7 104.5,88.7 102.8,102.4 89.8,102.4 87.6,88.7 40.7,88.7 			"/>
			<g>
				<rect x="41" y="96.9" class="st2" width="47.7" height="0.2"/>
			</g>
			<g>
				
					<rect x="40.4" y="99.3" transform="matrix(-3.575317e-002 0.9994 -0.9994 -3.575317e-002 152.2536 51.952)" class="st3" width="21.4" height="0.2"/>
			</g>
			<g>
				
					<rect x="67.4" y="88.7" transform="matrix(-0.9993 3.855480e-002 -3.855480e-002 -0.9993 138.6974 196.1813)" class="st3" width="0.2" height="21.4"/>
			</g>
			<g>
				
					<rect x="84.1" y="88.7" transform="matrix(-0.9993 3.855480e-002 -3.855480e-002 -0.9993 172.1572 195.536)" class="st3" width="0.2" height="21.4"/>
			</g>
			<g>
				
					<rect x="99.4" y="99.3" transform="matrix(-3.575317e-002 0.9994 -0.9994 -3.575317e-002 213.4347 -7.0794)" class="st3" width="21.4" height="0.2"/>
			</g>
			<g>
				
					<rect x="40.5" y="99.3" transform="matrix(-3.575237e-002 0.9994 -0.9994 -3.575237e-002 152.4189 51.7924)" class="st2" width="21.4" height="0.2"/>
			</g>
			<g>
				
					<rect x="67.5" y="88.7" transform="matrix(-0.9993 3.855480e-002 -3.855480e-002 -0.9993 139.0168 196.1751)" class="st2" width="0.2" height="21.4"/>
			</g>
			<g>
				
					<rect x="84.3" y="88.7" transform="matrix(-0.9993 3.855480e-002 -3.855480e-002 -0.9993 172.4766 195.5299)" class="st2" width="0.2" height="21.4"/>
			</g>
			<g>
				
					<rect x="99.6" y="99.3" transform="matrix(-3.575237e-002 0.9994 -0.9994 -3.575237e-002 213.6001 -7.2391)" class="st2" width="21.4" height="0.2"/>
			</g>
			<g>
				<g id="XMLID_17_">
					<rect id="XMLID_18_" x="103.3" y="97.1" class="st3" width="11.5" height="0.2"/>
				</g>
			</g>
			<g>
				<rect x="41" y="96.7" class="st3" width="47.7" height="0.2"/>
			</g>
			<polygon class="st2" points="115.1,88.7 105.1,88.7 103,102.9 89.5,102.9 87.3,88.7 40.3,88.7 40.1,87.1 88.2,87.1 90,102.1 
				102.4,102.1 104.1,87.1 115.3,87.1 			"/>
			<polygon class="st4" points="40.7,88.7 40.8,90.6 87.7,91.1 87.3,88.7 			"/>
			<path class="st2" d="M41.5,110.1l-0.2-5.3l-0.1-2.7c0-0.9-0.1-1.8-0.1-2.7l-0.4-10.7l0-0.1h-0.1h-0.4l0.1,0.1l-0.2-1.7l-0.1,0.1
				h24.1h12l3,0l3,0l6-0.1l-6-0.1l-3,0l-3,0h-12H40.1H40l0,0.1l0.2,1.7l0,0.1h0.1h0.4l-0.1-0.1L41,99.4c0,0.9,0.1,1.8,0.1,2.7
				l0.1,2.7L41.5,110.1z"/>
			<polygon class="st4" points="89.5,102.9 90.3,104.3 104.8,104.7 107.3,91.1 115,91.4 115.1,88.7 105.1,88.7 103,102.9 			"/>
			
				<linearGradient id="SVGID_1_" gradientUnits="userSpaceOnUse" x1="442.6218" y1="82.5033" x2="438.7362" y2="113.8657" gradientTransform="matrix(-1 0 0 1 504.4065 0)">
				<stop  offset="0" style="stop-color:#FDD8A4"/>
				<stop  offset="0.4741" style="stop-color:#77654D"/>
				<stop  offset="0.8827" style="stop-color:#000000"/>
			</linearGradient>
			<path class="st5" d="M64.2,90.9l2.5,19h-5.9l-7.1-19.1L64.2,90.9z M65.1,90.9l1.8,19h3.9L72,91L65.1,90.9z"/>
		</g>
	</g>
	<g>
		<path class="st6" d="M99.9,98.1c0,0,4.3-4.8,2.5-5.2c-1.8-0.4-2.9,0.7-2.9,0.7s-1.3-3-2.8-2c-1.4,1-3.6,5.8-3.2,6.6
			C93.7,99.1,99.9,98.1,99.9,98.1z"/>
		<path class="st7" d="M91.8,97.7l6.9-1.3c0,0,0-2.4-0.7-2.6s-5.9-1.8-6.7-0.7C90.6,94.2,91.8,97.7,91.8,97.7z"/>
		<g>
			<path class="st6" d="M96.4,96c0,0,4.9,0.3,5,1.7c0.2,1.4-0.3,3-0.3,3l-5.2-0.9L96.4,96z"/>
			<path class="st8" d="M101.5,98.4c0,0-2.3-1.5-4.6,0.9c-2.3,2.4-3,2.7-3,2.7h6.8L101.5,98.4z"/>
			<path class="st9" d="M94.1,94.1c0,0-3.9,5.2-2.5,7.5c0,0,3.1,1.5,5,0.3c1.9-1.2,0.5-7.3,0.5-7.3L94.1,94.1z"/>
			<g>
				<g>
					<rect x="94.6" y="97" class="st10" width="0.5" height="0.7"/>
					<rect x="97.6" y="97" class="st10" width="0.5" height="0.7"/>
					<rect x="98.6" y="97" class="st10" width="0.5" height="0.7"/>
					<rect x="95.6" y="97" class="st10" width="0.5" height="0.7"/>
					<rect x="96.6" y="97" class="st10" width="0.5" height="0.7"/>
					<rect x="99.6" y="97" class="st10" width="0.5" height="0.7"/>
					<polygon class="st10" points="91.1,97 91.1,97.4 91.1,97 					"/>
					<rect x="95.6" y="101" class="st10" width="0.5" height="0.7"/>
					<rect x="100.7" y="97" class="st10" width="0.5" height="0.7"/>
					<rect x="96.6" y="98.3" class="st10" width="0.5" height="0.7"/>
					<rect x="99.6" y="98.3" class="st10" width="0.5" height="0.7"/>
					<rect x="95.6" y="98.3" class="st10" width="0.5" height="0.7"/>
					<rect x="97.6" y="98.3" class="st10" width="0.5" height="0.7"/>
					<rect x="98.6" y="98.3" class="st10" width="0.5" height="0.7"/>
					<rect x="100.7" y="98.3" class="st10" width="0.5" height="0.7"/>
					<rect x="92.6" y="97" class="st10" width="0.5" height="0.7"/>
					<rect x="91.6" y="97" class="st10" width="0.5" height="0.7"/>
					<rect x="93.6" y="97" class="st10" width="0.5" height="0.7"/>
					<path class="st10" d="M92.1,101h-0.5v0.3l0,0.3c0,0,0,0.1,0,0.1h0.5V101z"/>
					<rect x="93.6" y="101" class="st10" width="0.5" height="0.7"/>
					<rect x="92.6" y="101" class="st10" width="0.5" height="0.7"/>
					<rect x="99.6" y="95.6" class="st10" width="0.5" height="0.7"/>
					<rect x="100.7" y="95.6" class="st10" width="0.5" height="0.7"/>
					<path class="st10" d="M100.7,101v0.7h0.5c0,0,0-0.1,0-0.1l0-0.3V101H100.7z"/>
					<polygon class="st10" points="101.7,96.3 101.8,96.3 101.9,95.6 101.7,95.6 					"/>
					<polygon class="st10" points="101.7,97.4 101.7,97 101.7,97 					"/>
					<rect x="98.6" y="95.6" class="st10" width="0.5" height="0.7"/>
					<rect x="93.6" y="95.6" class="st10" width="0.5" height="0.7"/>
					<rect x="92.6" y="95.6" class="st10" width="0.5" height="0.7"/>
					<rect x="94.6" y="95.6" class="st10" width="0.5" height="0.7"/>
					<rect x="91.6" y="95.6" class="st10" width="0.5" height="0.7"/>
					<rect x="94.6" y="101" class="st10" width="0.5" height="0.7"/>
					<rect x="95.6" y="95.6" class="st10" width="0.5" height="0.7"/>
					<rect x="97.6" y="95.6" class="st10" width="0.5" height="0.7"/>
					<rect x="96.6" y="95.6" class="st10" width="0.5" height="0.7"/>
					<polygon class="st10" points="91.1,95.6 90.9,95.6 91,96.3 91.1,96.3 					"/>
					<rect x="99.6" y="99.6" class="st10" width="0.5" height="0.7"/>
					<rect x="98.6" y="101" class="st10" width="0.5" height="0.7"/>
					<rect x="98.6" y="99.6" class="st10" width="0.5" height="0.7"/>
					<rect x="97.6" y="99.6" class="st10" width="0.5" height="0.7"/>
					<rect x="100.7" y="99.6" class="st10" width="0.5" height="0.7"/>
					<rect x="97.6" y="101" class="st10" width="0.5" height="0.7"/>
					<rect x="93.6" y="99.6" class="st10" width="0.5" height="0.7"/>
					<rect x="91.6" y="98.3" class="st10" width="0.5" height="0.7"/>
					<rect x="92.6" y="99.6" class="st10" width="0.5" height="0.7"/>
					<rect x="91.6" y="99.6" class="st10" width="0.5" height="0.7"/>
					<rect x="96.6" y="99.6" class="st10" width="0.5" height="0.7"/>
					<rect x="99.6" y="101" class="st10" width="0.5" height="0.7"/>
					<rect x="94.6" y="99.6" class="st10" width="0.5" height="0.7"/>
					<rect x="95.6" y="99.6" class="st10" width="0.5" height="0.7"/>
					<rect x="93.6" y="98.3" class="st10" width="0.5" height="0.7"/>
					<rect x="94.6" y="98.3" class="st10" width="0.5" height="0.7"/>
					<rect x="96.6" y="101" class="st10" width="0.5" height="0.7"/>
					<rect x="92.6" y="98.3" class="st10" width="0.5" height="0.7"/>
					<rect x="94.1" y="97" class="st1" width="0.5" height="0.7"/>
					<rect x="94.1" y="98.3" class="st1" width="0.5" height="0.7"/>
					<rect x="94.1" y="101" class="st1" width="0.5" height="0.7"/>
					<rect x="94.1" y="99.6" class="st1" width="0.5" height="0.7"/>
					<rect x="94.1" y="95.6" class="st1" width="0.5" height="0.7"/>
					<rect x="95.1" y="98.3" class="st1" width="0.5" height="0.7"/>
					<rect x="95.1" y="99.6" class="st1" width="0.5" height="0.7"/>
					<rect x="95.1" y="101" class="st1" width="0.5" height="0.7"/>
					<rect x="95.1" y="95.6" class="st1" width="0.5" height="0.7"/>
					<rect x="95.1" y="97" class="st1" width="0.5" height="0.7"/>
					<rect x="96.2" y="101" class="st1" width="0.5" height="0.7"/>
					<rect x="96.2" y="97" class="st1" width="0.5" height="0.7"/>
					<rect x="96.2" y="98.3" class="st1" width="0.5" height="0.7"/>
					<rect x="96.2" y="99.6" class="st1" width="0.5" height="0.7"/>
					<rect x="96.2" y="95.6" class="st1" width="0.5" height="0.7"/>
					<rect x="97.2" y="95.6" class="st1" width="0.5" height="0.7"/>
					<rect x="97.2" y="101" class="st1" width="0.5" height="0.7"/>
					<rect x="97.2" y="97" class="st1" width="0.5" height="0.7"/>
					<rect x="97.2" y="99.6" class="st1" width="0.5" height="0.7"/>
					<rect x="97.2" y="98.3" class="st1" width="0.5" height="0.7"/>
					<rect x="98.2" y="95.6" class="st1" width="0.5" height="0.7"/>
					<rect x="98.2" y="98.3" class="st1" width="0.5" height="0.7"/>
					<rect x="98.2" y="101" class="st1" width="0.5" height="0.7"/>
					<rect x="98.2" y="97" class="st1" width="0.5" height="0.7"/>
					<rect x="98.2" y="99.6" class="st1" width="0.5" height="0.7"/>
					<rect x="99.2" y="101" class="st1" width="0.5" height="0.7"/>
					<rect x="99.2" y="95.6" class="st1" width="0.5" height="0.7"/>
					<rect x="99.2" y="97" class="st1" width="0.5" height="0.7"/>
					<rect x="99.2" y="99.6" class="st1" width="0.5" height="0.7"/>
					<rect x="99.2" y="98.3" class="st1" width="0.5" height="0.7"/>
					<rect x="100.2" y="101" class="st1" width="0.5" height="0.7"/>
					<rect x="100.2" y="97" class="st1" width="0.5" height="0.7"/>
					<rect x="100.2" y="99.6" class="st1" width="0.5" height="0.7"/>
					<rect x="100.2" y="98.3" class="st1" width="0.5" height="0.7"/>
					<rect x="100.2" y="95.6" class="st1" width="0.5" height="0.7"/>
					<polygon class="st1" points="101.2,99 101.5,99 101.6,98.3 101.2,98.3 					"/>
					<polygon class="st1" points="101.2,97 101.2,97.7 101.6,97.7 101.7,97.4 101.7,97 					"/>
					<polygon class="st1" points="101.2,100.3 101.3,100.3 101.4,99.6 101.2,99.6 					"/>
					<polygon class="st1" points="101.2,101.2 101.2,101 101.2,101 					"/>
					<rect x="101.2" y="95.6" class="st1" width="0.5" height="0.7"/>
					<rect x="93.1" y="97" class="st1" width="0.5" height="0.7"/>
					<rect x="93.1" y="98.3" class="st1" width="0.5" height="0.7"/>
					<rect x="93.1" y="95.6" class="st1" width="0.5" height="0.7"/>
					<rect x="93.1" y="101" class="st1" width="0.5" height="0.7"/>
					<rect x="93.1" y="99.6" class="st1" width="0.5" height="0.7"/>
					<rect x="92.1" y="98.3" class="st1" width="0.5" height="0.7"/>
					<rect x="92.1" y="99.6" class="st1" width="0.5" height="0.7"/>
					<rect x="92.1" y="97" class="st1" width="0.5" height="0.7"/>
					<rect x="92.1" y="101" class="st1" width="0.5" height="0.7"/>
					<rect x="92.1" y="95.6" class="st1" width="0.5" height="0.7"/>
					<polygon class="st1" points="91.6,99.6 91.4,99.6 91.5,100.3 91.6,100.3 					"/>
					<polygon class="st1" points="91.5,101 91.6,101.2 91.6,101 					"/>
					<polygon class="st1" points="91.6,97 91.1,97 91.1,97.4 91.1,97.7 91.6,97.7 					"/>
					<rect x="91.1" y="95.6" class="st1" width="0.5" height="0.7"/>
					<polygon class="st1" points="91.6,98.3 91.2,98.3 91.3,99 91.6,99 					"/>
					<path class="st1" d="M100.2,101.7h-0.5h-0.5h-0.5h-0.5h-0.5h-0.5h-0.5h-0.5h-0.5h-0.5h-0.5h-0.5h-0.5h-0.5h-0.5h-0.5h-0.5
						c0.1,0.2,0.2,0.4,0.4,0.4h8.6c0.2,0,0.4-0.2,0.4-0.4h-0.5H100.2z"/>
					<polygon class="st1" points="100.7,100.3 100.2,100.3 99.6,100.3 99.2,100.3 98.6,100.3 98.2,100.3 97.6,100.3 97.2,100.3 
						96.6,100.3 96.2,100.3 95.6,100.3 95.1,100.3 94.6,100.3 94.1,100.3 93.6,100.3 93.1,100.3 92.6,100.3 92.1,100.3 91.6,100.3 
						91.5,100.3 91.5,101 91.6,101 92.1,101 92.6,101 93.1,101 93.6,101 94.1,101 94.6,101 95.1,101 95.6,101 96.2,101 96.6,101 
						97.2,101 97.6,101 98.2,101 98.6,101 99.2,101 99.6,101 100.2,101 100.7,101 101.2,101 101.2,101 101.3,100.3 101.2,100.3 
											"/>
					<polygon class="st1" points="100.7,99 100.2,99 99.6,99 99.2,99 98.6,99 98.2,99 97.6,99 97.2,99 96.6,99 96.2,99 95.6,99 
						95.1,99 94.6,99 94.1,99 93.6,99 93.1,99 92.6,99 92.1,99 91.6,99 91.3,99 91.4,99.6 91.6,99.6 92.1,99.6 92.6,99.6 93.1,99.6 
						93.6,99.6 94.1,99.6 94.6,99.6 95.1,99.6 95.6,99.6 96.2,99.6 96.6,99.6 97.2,99.6 97.6,99.6 98.2,99.6 98.6,99.6 99.2,99.6 
						99.6,99.6 100.2,99.6 100.7,99.6 101.2,99.6 101.4,99.6 101.5,99 101.2,99 					"/>
					<polygon class="st1" points="100.7,97.7 100.2,97.7 99.6,97.7 99.2,97.7 98.6,97.7 98.2,97.7 97.6,97.7 97.2,97.7 96.6,97.7 
						96.2,97.7 95.6,97.7 95.1,97.7 94.6,97.7 94.1,97.7 93.6,97.7 93.1,97.7 92.6,97.7 92.1,97.7 91.6,97.7 91.1,97.7 91.2,98.3 
						91.6,98.3 92.1,98.3 92.6,98.3 93.1,98.3 93.6,98.3 94.1,98.3 94.6,98.3 95.1,98.3 95.6,98.3 96.2,98.3 96.6,98.3 97.2,98.3 
						97.6,98.3 98.2,98.3 98.6,98.3 99.2,98.3 99.6,98.3 100.2,98.3 100.7,98.3 101.2,98.3 101.6,98.3 101.6,97.7 101.2,97.7 					
						"/>
					<polygon class="st1" points="101.2,96.3 100.7,96.3 100.2,96.3 99.6,96.3 99.2,96.3 98.6,96.3 98.2,96.3 97.6,96.3 97.2,96.3 
						96.6,96.3 96.2,96.3 95.6,96.3 95.1,96.3 94.6,96.3 94.1,96.3 93.6,96.3 93.1,96.3 92.6,96.3 92.1,96.3 91.6,96.3 91.1,96.3 
						91,96.3 91.1,97 91.1,97 91.6,97 92.1,97 92.6,97 93.1,97 93.6,97 94.1,97 94.6,97 95.1,97 95.6,97 96.2,97 96.6,97 97.2,97 
						97.6,97 98.2,97 98.6,97 99.2,97 99.6,97 100.2,97 100.7,97 101.2,97 101.7,97 101.7,97 101.8,96.3 101.7,96.3 					"/>
					<polygon class="st1" points="90.8,95.1 90.9,95.6 91.1,95.6 91.6,95.6 92.1,95.6 92.6,95.6 93.1,95.6 93.6,95.6 94.1,95.6 
						94.6,95.6 95.1,95.6 95.6,95.6 96.2,95.6 96.6,95.6 97.2,95.6 97.6,95.6 98.2,95.6 98.6,95.6 99.2,95.6 99.6,95.6 100.2,95.6 
						100.7,95.6 101.2,95.6 101.7,95.6 101.9,95.6 101.9,95.1 					"/>
				</g>
				<path class="st1" d="M102.2,94.8c-0.1-0.1-0.2-0.2-0.3-0.2H90.8c-0.1,0-0.2,0.1-0.3,0.2c-0.1,0.1-0.1,0.2-0.1,0.3
					c0,0,0,0.1,0,0.1l0.1,0.4l0.7,6c0,0.1,0,0.2,0,0.2c0.1,0.4,0.4,0.7,0.8,0.7h8.6c0.4,0,0.7-0.3,0.8-0.7c0-0.1,0-0.2,0.1-0.3
					l0.7-6l0.1-0.4c0,0,0-0.1,0-0.1C102.3,95,102.3,94.9,102.2,94.8z M101.5,95.7l-0.7,5.8c0,0.1,0,0.1-0.1,0.1h-8.6
					c0,0-0.1,0-0.1-0.1l-0.7-5.8H101.5z"/>
				<path class="st1" d="M103,94.6L103,94.6c0,0.4-0.2,0.6-0.5,0.6H90.3c-0.3,0-0.5-0.2-0.5-0.5v-0.1c0,0,0-0.1,0-0.1
					c0.1-0.2,0.2-0.4,0.5-0.4h12.2c0.2,0,0.4,0.1,0.5,0.4C103,94.5,103,94.5,103,94.6z"/>
				<path class="st11" d="M102.3,95.1C102.3,95.2,102.3,95.2,102.3,95.1l-0.1,0.5H90.5l-0.1-0.4c0,0,0-0.1,0-0.1H102.3z"/>
				<path class="st11" d="M101.5,101.9c-0.1,0.4-0.4,0.7-0.8,0.7h-8.6c-0.4,0-0.7-0.3-0.8-0.7H101.5z"/>
			</g>
			<path class="st9" d="M93.6,94.1L93.6,94.1L93.6,94.1L93.6,94.1L93.6,94.1c0,0,3.8-1.7,4.5,0c0.2,0.6,0.4,1,0.4,1.3v0
				C98.6,97.6,93.7,94.2,93.6,94.1z"/>
			<path class="st11" d="M93.6,94.1L93.6,94.1c0,0,4.1,2.6,4.9,1.3C98.6,97.6,93.7,94.2,93.6,94.1z"/>
		</g>
	</g>
	<path class="st12" d="M182.7,111.8H16.1c-0.9,0-1.6-0.4-1.6-0.8l0,0c0-0.4,0.7-0.8,1.6-0.8h166.6c0.9,0,1.6,0.4,1.6,0.8l0,0
		C184.3,111.4,183.6,111.8,182.7,111.8z"/>
	<g>
		<linearGradient id="SVGID_2_" gradientUnits="userSpaceOnUse" x1="127.1926" y1="73.4266" x2="130.1399" y2="78.7572">
			<stop  offset="0" style="stop-color:#FF9A6A"/>
			<stop  offset="0.9923" style="stop-color:#F17954"/>
		</linearGradient>
		<path class="st13" d="M133,72.5c0,0-2.9,4.2-3,4.3c-0.1,0.1-4.8,0.1-5.4,0.1c0,0-0.2-0.1-0.5-0.1c-0.3,0-2,0-2,0
			c-0.1,0-0.1-0.3-0.1-0.4c0-0.1-0.1-0.3-0.1-0.3c0,0-0.1,0.7-0.1,0.7c0,0.1,0.7,0.7,1,0.7c0.3,0.1,1.7,0,1.7,0s6,0.9,6.3,0.8
			c0.4-0.1,3.4-3.3,3.8-4.4C135,72.9,133,72.5,133,72.5z"/>
		<path class="st14" d="M131.8,69.5c0,0-0.1-0.3-0.1-0.4c0-0.1,2.6-0.3,2.6-0.1c0.1,0.2-0.2,0.7-0.2,0.7L131.8,69.5z"/>
		<path class="st15" d="M133.3,64.6c0,0,0.8-0.2,1.4,0.2c0.6,0.4,0.1,1.4,0.2,1.8c0.1,0.5,0.2,0.4,0.2,1c0,0.6-0.9,0.4-1,1.1
			c-0.1,0.7,0.3,0.7,0.2,1.1c-0.1,0.5-0.8,0.2-0.6,0.8c0.2,0.6,0.8,0.6,1,0.9c0.2,0.3-0.3,0.8-0.3,0.8s-2.1-1.2-2.1-1.9
			c0-0.7,0.7-3.3,0.7-3.5C132.9,66.9,133.3,64.6,133.3,64.6z"/>
		<path class="st16" d="M129.6,73.9c0.2,0.1,5.1-4.1,5.1-4.1s-0.4-0.5-0.5-1.2c-0.2-0.7,0.5-1.6,0.5-1.6s-2.9-0.4-2.7,0.3
			c0.2,0.7-0.1,2.3-0.1,2.3S129.1,73.6,129.6,73.9z"/>
		<path class="st16" d="M134.2,106.2c-0.1-1.4,0.3-5.1,0.3-6.4c0-1.6-0.8-4.2-0.9-4.9c-0.1-0.7-0.2-10.9-0.2-10.9l-4.1-0.2
			c0.1,0.3,1.1,8.4,1.3,10.4c0.2,1.6,1.9,9.2,2.2,11.9c0.1,0.8,0.1,1.5-1.8,3c-0.5,0.4-0.7,0.5-0.7,0.6c0,0.1,1.6,0,1.7-0.1
			c0.1-0.1,1.3-0.9,1.6-1c0.3,0,0.9-0.2,0.9-0.8C134.5,107.4,134.2,106.3,134.2,106.2z"/>
		<path class="st17" d="M141.3,106.5c0,0-0.5,0.2-0.5,0.1c0-0.1-0.3-0.6-0.3-0.6c0,0,0.2-0.5,0.2-0.5L141.3,106.5z"/>
		<path class="st18" d="M140.7,104.9l0.7,1.2c0,0,0,0.4,0,0.4c0,0-0.6-0.6-0.6-0.7C140.7,105.8,140.7,104.9,140.7,104.9z"/>
		<path class="st1" d="M134.4,107.2c0,0-0.1,0.4-1.2,1.1c-0.5,0.3-1.3,1-1.6,1.1c-0.3,0.1-0.7-0.2-0.5-0.3c0,0-0.9,0.6-1,0.7
			c-0.1,0.1,0,0.3,0,0.3s0.9,0.2,2-0.1c0.2,0,1.1-1.1,1.4-1.2c0.3-0.1,0.4,1.2,0.4,1.2h0.3c0,0,0.4-2,0.4-2.3
			C134.6,107.5,134.4,107.2,134.4,107.2z"/>
		<path class="st1" d="M140.1,104.4c0,0,0.5,0.2,0.7,0.7c0.1,0.3,0.1,0.7,0.1,1.3c0,0.5,0.4,1.7,0.3,2c-0.1,0.5-1.3,1.4-1.5,1.3
			c-0.2-0.1-0.1-1.5-0.1-2c0-0.4-0.2-2-0.2-2.1C139.3,105.6,140.1,104.4,140.1,104.4z"/>
		<path class="st19" d="M129.6,85c0,0,2.4,10.2,2.6,10.7c0.4,0.9,1.4,2.2,3.1,4.3c2.4,2.8,3.3,4.2,3.3,4.2c1.1,1.9,0.9,4.6,1.3,4.5
			c0.3,0,0.8-0.5,0.8-1c0-0.6-0.4-2.7-0.4-2.9c0-0.2-0.3-0.6-0.3-0.6s-1.7-4.8-2.6-6.5c-0.8-1.5-1.9-2.3-2.3-3.2
			c-0.4-0.8-0.3-8.9-0.3-9.9C134.9,83.8,129.6,85,129.6,85z"/>
		<path class="st1" d="M134.7,69.8c0,0,1.2,1.6,1.2,2.4c0,0.8-2.3,5.1-2.4,6.6c0,1.5,1.2,2.9,2,5.1c0.8,2.3,1.6,10.1,1.6,10.1
			s-3,1-5.4,1.1c-2.4,0.1-4-1-4-1s1.4-12.2,1.5-13.5c0.1-1.3-0.4-6.8-0.3-7.3c0.1-0.7,1.9-3.3,2.1-3.5c0.2-0.2,0.6-0.2,0.6-0.2
			s-1.6,3-1.5,3.2s2.4-2.5,2.4-2.5L134.7,69.8z"/>
		<path class="st14" d="M132.7,80.3c0,0,0,2.5,0,4.4c0,1.9,0.7,7.3,0.5,7.6c-1.1,1.5-4.9,0.5-5.3,0.1c-0.4-0.4,1.3-11.3,1.3-11.3
			L132.7,80.3z"/>
		<linearGradient id="SVGID_3_" gradientUnits="userSpaceOnUse" x1="126.9478" y1="74.2333" x2="129.8951" y2="79.5639">
			<stop  offset="7.662840e-003" style="stop-color:#FFBD95"/>
			<stop  offset="1" style="stop-color:#FF9A67"/>
		</linearGradient>
		<path class="st20" d="M132.8,73.3c0,0-2.9,4.2-3,4.3c-0.1,0.1-4.8,0.1-5.4,0.1c0,0-0.2-0.1-0.5-0.1c-0.3,0-2,0-2,0
			c-0.1,0-0.1-0.3-0.1-0.4c0-0.1-0.1-0.3-0.1-0.3c0,0-0.1,0.7-0.1,0.7c0,0.1,0.7,0.7,1,0.7c0.3,0.1,1.7,0,1.7,0s6,0.9,6.3,0.8
			s3.4-3.3,3.8-4.4C134.7,73.7,132.8,73.3,132.8,73.3z"/>
		<path class="st14" d="M135.5,71.1c-0.3-0.2-1.4,0-1.8,0.5c-0.4,0.6-1.4,2.3-1.4,2.3s0.7,0.3,1,0.6c0.3,0.3,0.7,1,0.7,1
			s1.5-2.1,1.8-2.5C136.1,72.5,136,71.5,135.5,71.1z"/>
		<path class="st14" d="M132.7,70.2c0,0,0.1-0.5,0.2-0.6c0.1-0.1,0.3,0,0.9-0.2c0.5-0.2,0.7-0.4,0.7-0.4l0.3,0.8
			C134.7,69.9,133.7,70.4,132.7,70.2z"/>
		<path class="st19" d="M134.9,66.3c-0.2,1.3-1.5,2.1-2,2c-0.6-0.1-1.4-1.3-1.2-2.6c0.2-1.3,1-1.8,1.9-1.6
			C134.5,64.3,135.1,65.1,134.9,66.3z"/>
		<path class="st21" d="M131.6,65.9c0-0.1-0.3-0.8,0.3-1.7c0.4-0.6,1.1-0.9,1.9-0.7c0.9,0.2,1.2,0.7,1.4,1.4
			c0.2,0.8-0.4,1.5-0.4,1.5s-0.1-1.1-0.3-1.5c-0.2-0.3-1.5-0.5-1.9-0.5C131.8,64.7,131.6,65.9,131.6,65.9z"/>
		<g>
			<path class="st19" d="M134.8,66.3c0,0,0.2-0.3,0.4-0.2c0.2,0.1-0.1,0.8-0.3,0.9c-0.2,0.2-0.4,0.3-0.4,0.3
				C134.5,67.2,134.8,66.3,134.8,66.3z"/>
		</g>
		<path class="st14" d="M132.2,74c0,0,0.5-0.8,0.5-0.8c0.1,0,0.8,0.4,0.9,0.6c0.1,0.2,0,0.5,0,0.5s0.1-0.1,0.4-0.1
			c0.2,0,0.7,0.5,0.7,0.5l-0.7,0.9c0,0-0.4-0.5-0.8-0.8S132.2,74,132.2,74z"/>
		<path class="st14" d="M133.6,79.4c0,0-0.9,0.5-2.2,0.6c-1.3,0.2-2,0-2,0l-0.1,1.1c0,0,0.9,0.1,2.2-0.1c1.3-0.1,2.4-0.8,2.4-0.8
			L133.6,79.4z"/>
		<path class="st6" d="M127.9,73.4c-0.4,0.3-1.7,0.2-3.3,0.2c-1.5,0-2.5,0.1-2.9-0.2c-0.4-0.4-0.3-1.6,0.2-1.8
			c0.3-0.2,1.6-0.2,3.2-0.2c1.3,0,2.6,0.1,2.8,0.3C128.3,72.1,128.3,73,127.9,73.4z"/>
		<path class="st22" d="M128.7,75.8c-0.4,0.3-1.8-0.1-3.4-0.1c-1.7,0-3.1,0.4-3.4,0.1c-0.4-0.4-0.5-2,0-2.3c0.3-0.2,2.1-0.1,3.8,0
			c1.4,0,2.8-0.1,3,0C129.2,74,129.2,75.5,128.7,75.8z"/>
		<linearGradient id="SVGID_4_" gradientUnits="userSpaceOnUse" x1="122.2394" y1="74.0851" x2="128.5576" y2="74.0851">
			<stop  offset="3.831420e-003" style="stop-color:#F3EDE8"/>
			<stop  offset="0.4141" style="stop-color:#F5F1ED"/>
			<stop  offset="0.8659" style="stop-color:#FCFBFA"/>
			<stop  offset="0.9962" style="stop-color:#FFFFFF"/>
		</linearGradient>
		<path class="st23" d="M129,74c0,0-1.8,0-3.5,0c-1.6,0-3.2-0.1-3.2,0.1c-0.1,0.7,6.5-0.2,6.8,0.2L129,74z"/>
		<linearGradient id="SVGID_5_" gradientUnits="userSpaceOnUse" x1="122.1079" y1="73.0078" x2="127.7411" y2="73.0078">
			<stop  offset="3.831000e-003" style="stop-color:#FFFFFF"/>
			<stop  offset="0.1341" style="stop-color:#FCFBFA"/>
			<stop  offset="0.5859" style="stop-color:#F5F1ED"/>
			<stop  offset="0.9962" style="stop-color:#F3EDE8"/>
		</linearGradient>
		<path class="st24" d="M128.2,72.7c0,0-0.1,0.4-0.9,0.3c-2.3-0.2-5.2-0.2-5.2,0c0,0.3,5.4,0.6,5.9,0.3
			C128.1,73.2,128.2,72.7,128.2,72.7z"/>
		
			<linearGradient id="SVGID_6_" gradientUnits="userSpaceOnUse" x1="397.3823" y1="71.9702" x2="402.7814" y2="71.9702" gradientTransform="matrix(-1 0 0 1 524.7086 0)">
			<stop  offset="3.831420e-003" style="stop-color:#F3EDE8"/>
			<stop  offset="0.5261" style="stop-color:#FBF9F7"/>
			<stop  offset="0.9962" style="stop-color:#FFFFFF"/>
		</linearGradient>
		<path class="st25" d="M121.6,71.9c0,0,0.4-0.2,1.1-0.2c1.7-0.1,4.5,0,4.6,0.2c0.2,0.7-2.9,0-4.6,0c-0.8,0-1.2,0.3-1.2,0.3
			L121.6,71.9z"/>
		
			<linearGradient id="SVGID_7_" gradientUnits="userSpaceOnUse" x1="396.2689" y1="75.4606" x2="402.6678" y2="75.4606" gradientTransform="matrix(-1 0 0 1 524.7086 0)">
			<stop  offset="3.831000e-003" style="stop-color:#FFFFFF"/>
			<stop  offset="0.1341" style="stop-color:#FCFBFA"/>
			<stop  offset="0.5859" style="stop-color:#F5F1ED"/>
			<stop  offset="0.9962" style="stop-color:#F3EDE8"/>
		</linearGradient>
		<path class="st26" d="M121.6,74.8c0,0,0.3,0.3,1.9,0.3c1.9,0.1,5-0.1,5-0.1c-0.1,1.1-6.6,1.6-6.9,0.2
			C121.6,75.1,121.6,74.8,121.6,74.8z"/>
		<path class="st7" d="M128.5,77.7c-0.3,0.2-2.2,0-4.2,0c-1.8,0-2.3,0.3-2.5-0.1c-0.3-0.6-0.6-1.5,0.1-1.8c0.8-0.3,2.4-0.1,3.8-0.1
			c1.4,0,2.6-0.2,2.8,0.1C128.8,76.2,128.9,77.4,128.5,77.7z"/>
		<linearGradient id="SVGID_8_" gradientUnits="userSpaceOnUse" x1="121.9989" y1="76.3391" x2="128.2887" y2="76.3391">
			<stop  offset="3.831420e-003" style="stop-color:#F3EDE8"/>
			<stop  offset="0.4141" style="stop-color:#F5F1ED"/>
			<stop  offset="0.8659" style="stop-color:#FCFBFA"/>
			<stop  offset="0.9962" style="stop-color:#FFFFFF"/>
		</linearGradient>
		<path class="st27" d="M128.7,76.3c0,0-1.8,0-3.6,0c-1.6,0-3.3-0.6-3.2,0.1c0.1,0.5,1.3,0.1,2.8,0.1c1.9,0,4,0.1,4,0.1L128.7,76.3z
			"/>
		
			<linearGradient id="SVGID_9_" gradientUnits="userSpaceOnUse" x1="396.2053" y1="77.1927" x2="402.6457" y2="77.1927" gradientTransform="matrix(-1 0 0 1 524.7086 0)">
			<stop  offset="3.831000e-003" style="stop-color:#FFFFFF"/>
			<stop  offset="0.1341" style="stop-color:#FCFBFA"/>
			<stop  offset="0.5859" style="stop-color:#F5F1ED"/>
			<stop  offset="0.9962" style="stop-color:#F3EDE8"/>
		</linearGradient>
		<path class="st28" d="M121.6,77c0.1,0.3,1-0.1,3.2-0.1c1.8,0,3.7,0.2,3.7,0.3c-0.1,0.4-1.8,0.3-3.5,0.2c-3.4-0.3-3.3,0.2-3.3,0.2
			L121.6,77z"/>
	</g>
	<g>
		<g>
			<path class="st29" d="M133.5,66.1C133.5,66.1,133.5,66.1,133.5,66.1c0,0.2-0.1,0.4,0.1,0.5c0,0,0,0,0,0
				C133.4,66.5,133.5,66.3,133.5,66.1z"/>
			<path class="st21" d="M133.7,66c0.3,0,0.2,0.6-0.1,0.5C133.4,66.5,133.5,66,133.7,66z"/>
		</g>
		<g>
			<path class="st29" d="M132.6,66C132.6,66,132.6,66,132.6,66c0,0.2-0.1,0.4-0.3,0.4c0,0,0,0,0,0C132.5,66.4,132.6,66.1,132.6,66z"
				/>
			<path class="st21" d="M132.5,65.8c-0.3-0.1-0.4,0.4-0.2,0.5C132.6,66.3,132.7,65.8,132.5,65.8z"/>
		</g>
		<path class="st21" d="M134,65.8c-0.1,0-0.1-0.1-0.2-0.1c-0.1,0-0.1-0.1-0.2-0.2c0,0,0-0.1,0-0.1c0.1-0.1,0.2,0,0.3,0
			c0.1,0.1,0.2,0.1,0.2,0.2C134.2,65.8,134.1,65.9,134,65.8z"/>
		<path class="st21" d="M132.4,65.5c0.1,0,0.1,0,0.2,0c0.1,0,0.2,0,0.2-0.1c0,0,0-0.1,0-0.1c-0.1-0.1-0.2-0.1-0.3-0.1
			c-0.1,0-0.2,0-0.3,0.1C132.2,65.3,132.3,65.5,132.4,65.5z"/>
		<g>
			<g>
				<path class="st21" d="M132.9,67c0,0-0.3,0-0.3,0c0.1-0.4,0.2-0.8,0.5-1.1c0,0,0,0,0,0c-0.1,0.4-0.3,0.7-0.4,1.1
					c0.1,0,0.2,0,0.3,0"/>
				<line class="st21" x1="132.8" y1="67.3" x2="132.8" y2="67.3"/>
				<path class="st21" d="M133.1,67.4"/>
			</g>
		</g>
		<g>
			<path class="st29" d="M133,67.7c-0.1,0-0.1,0.1-0.2,0.1c-0.1,0-0.1,0-0.2-0.1c0,0,0,0,0,0c0,0.1,0.1,0.1,0.2,0.1
				C133,67.8,133,67.7,133,67.7C133.1,67.7,133,67.6,133,67.7z"/>
			<g>
				<path class="st29" d="M132.5,67.2c0,0,0,0.2,0.1,0.4c0,0.1,0.1,0.1,0.2,0.1c0.2,0,0.2-0.1,0.3-0.2c0-0.1,0-0.2,0-0.2
					S132.9,67.3,132.5,67.2z"/>
				<path class="st30" d="M132.6,67.5c0,0.1,0.1,0.1,0.2,0.1c0.2,0,0.3,0,0.4-0.2C133,67.4,132.7,67.4,132.6,67.5z"/>
			</g>
		</g>
	</g>
	<g>
		<linearGradient id="SVGID_10_" gradientUnits="userSpaceOnUse" x1="108.9573" y1="58.276" x2="111.6755" y2="56.8767">
			<stop  offset="0" style="stop-color:#C8E8BF"/>
			<stop  offset="0.1958" style="stop-color:#A2D1B2"/>
			<stop  offset="0.4013" style="stop-color:#81BDA7"/>
			<stop  offset="0.5134" style="stop-color:#74B5A3"/>
			<stop  offset="0.606" style="stop-color:#7DBAA6"/>
			<stop  offset="0.754" style="stop-color:#94C8AE"/>
			<stop  offset="0.938" style="stop-color:#BADFBA"/>
			<stop  offset="1" style="stop-color:#C8E8BF"/>
		</linearGradient>
		<circle class="st31" cx="110.4" cy="57.5" r="0.9"/>
		<path class="st32" d="M79.4,75.2c-3.5,0.3-6.6,0-10.1-0.3c-0.5-4.2-0.6-8.2-0.3-12.5c1.4-1.2,3-2.3,4.7-2.9c0.4,0,0.6,0.1,1,0
			c1.7,0.8,3.3,1.6,4.7,2.8C79.8,66.5,80,71.2,79.4,75.2z"/>
		<path class="st33" d="M74.4,62.4c0.7-0.3,1.3-0.9,1.8-1.6c-0.6,0-1.2,0-1.7,0c-0.7,0-1.5,0-2.1-0.3C72.7,61.5,73.5,62.1,74.4,62.4
			z"/>
		<g>
			<path class="st34" d="M74.4,59.8c0-0.3,0.2-0.7,0.5-0.9c0.3-0.2,0.6-0.4,0.8-0.7c0.2-0.4,0.2-0.8,0-1.1c-0.2-0.3-0.6-0.6-1-0.6
				c-0.3-0.1-0.7,0-1,0.1c-0.3,0.2-0.5,0.5-0.6,0.8c0,0.3,0.1,0.8,0.5,0.9c0.1,0,0.1,0,0.1,0c0.1-0.1-0.1-0.3-0.1-0.5
				c0-0.2,0-0.4,0.1-0.5c0.2-0.3,0.6-0.3,0.9-0.1c0.3,0.2,0.4,0.6,0.3,0.9c-0.1,0.3-0.4,0.6-0.6,0.9c-0.2,0.3-0.4,0.6-0.4,0.9
				C74.1,59.8,74.2,59.8,74.4,59.8z"/>
			<polygon class="st34" points="72,60.9 74.2,59.6 76.4,60.8 76.2,61 74.2,60.1 72.2,61 			"/>
		</g>
		
			<linearGradient id="SVGID_11_" gradientUnits="userSpaceOnUse" x1="75.1981" y1="78.6808" x2="76.2445" y2="62.1215" gradientTransform="matrix(1 0 -1.910000e-002 1 -0.3005 0)">
			<stop  offset="0" style="stop-color:#F5BA85"/>
			<stop  offset="0.6233" style="stop-color:#FCDDB1"/>
			<stop  offset="1" style="stop-color:#FFEFC7"/>
		</linearGradient>
		<path class="st35" d="M79.3,71.4c-0.5,0.1-1,0-1.5,0c-0.1,0-0.1,0-0.2,0c0,0,0,0,0,0c0,0.7,0,1.5,0,2.2c-2,0.3-4.2,0.3-6.2,0
			c0-0.6,0-1.4-0.1-1.9h0c-0.1,0-0.1,0-0.2,0c-0.6,0-1.3-0.1-1.9-0.2c-0.2-2.9-0.2-5.9,0-8.9c0.9-0.9,1.9-1.6,3-2.1
			c0.5,0.6,1.1,1.1,1.7,1.6c0.8-0.3,1.6-0.8,2.1-1.5c1.1,0.4,2,1,2.8,1.8C79.3,65.4,79.4,68.5,79.3,71.4z"/>
		<path class="st33" d="M72,61.1c0.1,0.9,0.5,1.8,1,2.5c0.3-0.4,0.7-0.8,1.1-1.2c0.5,0.3,0.8,0.7,1.2,1.1c0.4-0.8,0.8-1.5,1.1-2.4
			c-0.2,0.9-0.5,1.8-1,2.6c-0.3-0.4-0.8-0.8-1.2-1.2c-0.4,0.5-0.8,0.9-1.2,1.4C72.3,63.1,72,62.1,72,61.1z M71.3,64.7
			c-0.1,2.3-0.1,4.6-0.1,6.9c0,0,0,0.1,0,0.2c0.1,0,0.1,0,0.2,0h0C71.6,69.2,71.5,67.1,71.3,64.7z M77.8,71.4
			c-0.1-2.3-0.1-4.6-0.1-6.9c-0.1,2.3-0.1,4.6-0.1,6.9l0,0c0,0,0,0,0,0C77.7,71.4,77.8,71.4,77.8,71.4z M74.3,64.3
			c-0.1,3.1-0.1,6.3,0.1,9.4C74.5,70.6,74.5,67.4,74.3,64.3z"/>
		<path class="st36" d="M74.2,63.3c0.1,0,0.2,0.1,0.2,0.2c0,0.1-0.1,0.2-0.2,0.3c-0.1,0-0.3-0.1-0.3-0.2
			C73.9,63.4,74.1,63.3,74.2,63.3z"/>
		<path class="st37" d="M79.1,72.9c0-3.3,0-6.7-0.1-10c-0.2,0.3-0.5,0.6-0.8,0.9c0.1-0.4,0.2-0.7,0.3-1c-0.4,0.2-0.7,0.2-1,0.3
			c0.4-0.2,0.7-0.5,1.1-0.7c-1.2-0.9-2.6-1.6-4.1-2.1c0,0.3,0,0.5-0.1,0.7c-0.1-0.3-0.3-0.5-0.4-0.8c-0.2,0.2-0.4,0.5-0.7,0.7
			c0.1-0.2,0.1-0.4,0.1-0.7c-1.3,0.7-2.5,1.6-3.6,2.6c0.2,0.1,0.4,0.2,0.6,0.3c-0.3,0-0.5,0-0.8,0c0.1,0.2,0.3,0.5,0.5,0.7
			c-0.3-0.1-0.5-0.3-0.8-0.6c-0.2,1.5-0.3,2.9-0.4,4.5c-0.1-1.7-0.1-3.3,0-5c1.4-1.1,2.8-2.3,4.5-2.8c0.4-0.1,0.7,0,1.1-0.1
			c1.6,0.7,3.1,1.6,4.5,2.6C79.6,65.9,79.5,69.4,79.1,72.9z"/>
		<path class="st37" d="M78.4,67.6c-2.9,0.5-6-0.6-7.8-2.8c0.8,1.4,1.9,2.5,3.3,3C75.4,68.3,76.9,68.2,78.4,67.6z"/>
		<path class="st37" d="M77.9,69.3c-2,0.7-4.3,0.6-6.2-0.1c0.9,0.8,1.8,1.3,3,1.3C75.8,70.4,77,70,77.9,69.3z"/>
		
			<linearGradient id="SVGID_12_" gradientUnits="userSpaceOnUse" x1="79.1325" y1="60.9903" x2="72.8911" y2="76.4214" gradientTransform="matrix(1 0 -1.910000e-002 1 -0.3005 0)">
			<stop  offset="0" style="stop-color:#9BA87E"/>
			<stop  offset="0.7104" style="stop-color:#1F2119"/>
			<stop  offset="0.8827" style="stop-color:#000000"/>
		</linearGradient>
		<path class="st38" d="M71.5,73.6c1.7-4.4,2.4-8.2,3.8-12.7c1.2,0.3,2.3,1.1,3.4,1.8c-1.2,4.2-2.2,7.2-4.2,11.1"/>
		<g>
			<path class="st32" d="M90.5,82.4c-2.8,0.3-5.7,0.3-8.5,0c-1.3-6.7-1.7-13.4-1.3-20.2c1.4-1.1,3.1-2,4.8-2.5
				c0.3-0.1,0.4-0.1,0.7-0.1c1.6,0.4,3.5,1.8,5.1,3C91.8,69.1,91.5,75.9,90.5,82.4z"/>
			<path class="st39" d="M86,64.7c0.9-1.3,1.5-2.7,2-4.2c-1.3,0.1-2.6,0-3.9,0c0.3,0.8,0.5,1.8,0.9,2.6C85.2,63.7,85.5,64.3,86,64.7
				z"/>
			<g>
				<path class="st34" d="M86.1,59.8c0-0.3,0.2-0.7,0.5-0.9c0.3-0.2,0.6-0.4,0.8-0.7c0.2-0.4,0.2-0.8,0-1.1c-0.2-0.3-0.6-0.6-1-0.6
					c-0.3-0.1-0.7,0-1,0.1c-0.3,0.2-0.5,0.5-0.6,0.8c0,0.3,0.1,0.8,0.5,0.9c0.1,0,0.1,0,0.1,0c0.1-0.1-0.1-0.3-0.1-0.5
					c0-0.2,0-0.4,0.1-0.5c0.2-0.3,0.6-0.3,0.9-0.1c0.3,0.2,0.4,0.6,0.3,0.9c-0.1,0.3-0.4,0.6-0.6,0.9c-0.2,0.3-0.4,0.6-0.4,0.9
					C85.8,59.8,85.9,59.8,86.1,59.8z"/>
				<polygon class="st34" points="83.8,60.9 85.9,59.6 88.1,60.8 87.9,61 85.9,60.1 83.9,61 				"/>
			</g>
			<path class="st22" d="M91.4,69.7c-0.2,0-0.3,0-0.5,0c0.2-2.4,0.2-4.9,0-7.2c-1-0.8-1.9-1.4-3-2c-0.6,1.5-1.3,2.7-2,3.9
				c-0.7-1.1-1.4-2.4-1.9-3.9c-1,0.5-2,1.1-2.9,1.9c-0.1,2.5-0.2,5.1,0,7.6c-0.1,0-0.2,0-0.4,0.1c0.1,0.4,0.1,0.7,0.2,1.1
				c0.1,0,0.2,0,0.2,0c0,0.2,0,0.5,0.1,0.7c0.4,0.1,0.8,0.2,1.2,0.2c0.1,0,0.1,0,0.2,0l0,0c0.2,2.8,0.4,5.6,0.6,8.4
				c2,0.3,3.8,0.5,5.8,0.2c0.3-2.9,0.6-5.8,0.8-8.8c0,0,0,0,0,0c0,0,0.1,0,0.1,0c0.3-0.1,0.6-0.1,0.9-0.2c0-0.3,0.1-0.6,0.1-0.9
				c0.1,0,0.2,0.1,0.4,0.1C91.3,70.5,91.4,70.1,91.4,69.7z"/>
			<path class="st39" d="M83.7,64.4c0.4-0.1,0.8-0.2,1.2-0.3c-0.3,0.3-0.5,0.5-0.8,0.8c0.5,1.5,1,2.9,1.5,4.4
				c-0.4-1.5-0.9-3-1.4-4.4c0.3-0.3,0.6-0.6,0.8-0.9c-0.5,0-1,0.1-1.4,0.2c-0.4-0.8-0.8-1.7-1.2-2.5C82.9,62.6,83.2,63.5,83.7,64.4z
				"/>
			<path class="st39" d="M88.4,64.4c-0.4-0.1-0.8-0.2-1.2-0.3c0.2,0.3,0.5,0.5,0.8,0.8c-0.6,1.5-1.1,2.9-1.7,4.4
				c0.4-1.5,1-3,1.6-4.4c-0.3-0.3-0.5-0.6-0.8-0.9c0.5,0,1,0.1,1.4,0.2c0.4-0.8,0.9-1.7,1.3-2.5C89.3,62.6,88.9,63.5,88.4,64.4z"/>
			<path class="st39" d="M86.3,80.5C86,75.3,85.9,70.2,85.9,65C86.1,70.2,86.2,75.4,86.3,80.5z"/>
			<path class="st39" d="M82.6,72.2c-0.1,0-0.1,0-0.2,0c-0.1-2.8-0.1-5.7,0-8.6C82.5,66.5,82.5,69.3,82.6,72.2z"/>
			<path class="st39" d="M89.9,72c0,0-0.1,0-0.1,0c0,0,0,0,0,0c0.1-2.4,0.1-4.8-0.1-7.2C89.9,67.1,90,69.6,89.9,72z"/>
			<path class="st39" d="M82.8,72.1c0.5-0.5,0.9-1,1.2-1.6c0.3,0.2,0.5,0.4,0.6,0.7c-0.2-0.2-0.3-0.3-0.5-0.5
				c-0.4,0.5-0.9,1.1-1.3,1.6C82.9,72.3,82.8,72.1,82.8,72.1z"/>
			<path class="st39" d="M89.5,72.1c-0.4-0.5-0.8-1-1.2-1.6c-0.3,0.2-0.5,0.4-0.6,0.7c0.2-0.2,0.3-0.3,0.5-0.5
				c0.3,0.5,0.8,1.1,1.2,1.6C89.4,72.3,89.5,72.1,89.5,72.1z"/>
			<path class="st39" d="M82,71.2c-0.2,0-0.5-0.1-0.7-0.1c0.2,0,0.4,0,0.6,0c0-0.4,0-0.8-0.1-1.2c-0.2,0-0.4,0.1-0.6,0.1
				c0.2-0.1,0.5-0.2,0.7-0.2C82.1,70.2,82.1,70.7,82,71.2z"/>
			<path class="st39" d="M90.9,69.8c-0.2,0-0.5,0-0.5,0c0,0.3,0,0.5,0,0.8c0.1,0.1,0.2,0.1,0.4,0.2c-0.2,0-0.3-0.1-0.5-0.1
				c0-0.3,0-0.7,0.1-1C90.5,69.7,90.7,69.7,90.9,69.8z"/>
			<path class="st37" d="M90.8,76c0.4-4.5,0.5-9.1,0.3-13.5c-1.4-1.2-3-2.2-4.7-2.7c-0.3,0-0.5,0-0.8,0.1c-1.7,0.5-3.3,1.3-4.7,2.5
				c-0.3,3.4-0.3,6.9,0,10.3c-0.1-3.2,0-6.5,0.3-9.8c0.4,0.3,0.7,0.6,1.1,1c-0.2-0.5-0.5-0.8-0.8-1.2c0.3,0.1,0.6,0.2,0.9,0.2
				c-0.2-0.2-0.5-0.4-0.8-0.6c1.1-0.8,2.2-1.5,3.5-2c-0.1,0.7-0.1,1.3-0.1,2c0.3-0.6,0.4-1.3,0.6-2c0.1,0.3,0.3,0.5,0.5,0.7
				c0-0.3,0.1-0.6,0.1-0.9c0.7,0.3,1.3,0.8,1.8,1.4c-0.2-0.5-0.5-0.9-0.9-1.3c1.2,0.6,2.3,1.3,3.4,2.1c-0.5,0.2-1,0.5-1.4,0.8
				c0.5-0.1,0.9-0.1,1.4-0.2c-0.2,0.3-0.4,0.6-0.5,0.9c0.3-0.3,0.5-0.5,0.8-0.8C91.1,67.3,91.2,71.8,90.8,76z"/>
			<path class="st37" d="M89.6,67c-0.5,0.4-0.9,1-1.4,1.4c-0.5,0.4-1.1,0.8-1.8,1.1c-1.2,0.6-2.6,1-4,0.9c1.2-0.3,2.4-0.6,3.5-1.2
				C87.3,68.7,88.5,67.9,89.6,67z"/>
			<path class="st37" d="M89,71.4c-1.7,1.8-4.1,2.8-6.6,2.9c0.5,0,1.1-0.3,1.6-0.5c0.6-0.2,1.2-0.4,1.8-0.7
				C86.9,72.6,88,72.1,89,71.4z"/>
			<path class="st37" d="M88.5,78.4c-1.8-0.4-3.5-1.2-5-2.2c0.6,0.8,1.3,1.4,2.2,1.7C86.7,78.3,87.5,78.2,88.5,78.4z"/>
			
				<linearGradient id="SVGID_13_" gradientUnits="userSpaceOnUse" x1="91.5063" y1="60.2374" x2="85.1489" y2="80.6918" gradientTransform="matrix(1 0 -1.910000e-002 1 -0.3005 0)">
				<stop  offset="0" style="stop-color:#9BA87E"/>
				<stop  offset="0.7104" style="stop-color:#1F2119"/>
				<stop  offset="0.8827" style="stop-color:#000000"/>
			</linearGradient>
			<path class="st40" d="M84.1,80.4c3.1-6.4,4.6-11.2,6.5-18.1c-0.7-0.6-1.5-1-2.3-1.4c-1.7,6.9-2.9,12.5-5.2,19.3
				C83.5,80.2,83.8,80.4,84.1,80.4z"/>
		</g>
		<g>
			<path class="st32" d="M107.1,82.4c-2.8,0.3-5.7,0.3-8.5,0C97.2,75.7,96.7,69,97,62.2c1.4-1.1,3.1-2,4.8-2.5
				c0.3-0.1,0.4-0.1,0.7-0.1c1.7,0.4,3.6,1.8,5.1,3C108.1,69.1,108,75.9,107.1,82.4z"/>
			<path class="st41" d="M99.7,60.8c0.6,0.8,1.5,1.2,2.5,1.2c0.9,0,1.9-0.4,2.6-1l0.4,0.3l-0.9,2.4l-4.3-0.3L99.4,61L99.7,60.8z"/>
			<g>
				<path class="st34" d="M102.2,59.8c0-0.3,0.2-0.7,0.5-0.9c0.3-0.2,0.6-0.4,0.8-0.7c0.2-0.4,0.1-0.8-0.1-1.1
					c-0.2-0.3-0.6-0.6-1-0.6c-0.3-0.1-0.7,0-1,0.1c-0.3,0.2-0.5,0.5-0.6,0.8c0,0.3,0.2,0.8,0.5,0.9c0.1,0,0.1,0,0.1,0
					c0.1-0.1-0.1-0.3-0.1-0.5c0-0.2,0-0.4,0.1-0.5c0.2-0.3,0.6-0.3,0.9-0.1c0.3,0.2,0.4,0.6,0.3,0.9c-0.1,0.3-0.3,0.6-0.6,0.9
					c-0.2,0.3-0.4,0.6-0.4,0.9C102,59.8,102.1,59.8,102.2,59.8z"/>
				<polygon class="st34" points="97.3,62.3 102,59.6 107.3,62.6 107.1,62.7 102.1,60.1 97.4,62.5 				"/>
			</g>
			<rect x="97.7" y="62.2" class="st34" width="8.7" height="0.1"/>
			<path class="st42" d="M106.7,80.5c-2.6,1-5.9,0.4-8.3-0.8c0-4.3,0.7-7.3,2.1-12.9c-0.8-0.8-0.9-1.7-0.9-2.8c0-0.6,0-1.1-0.1-1.7
				c-0.1-0.5-0.2-1-0.2-1.4c0.2-0.1,0.3-0.1,0.5-0.2c0,0.7,0.1,1.4,0.3,2.1c1.3,0.5,2.7,0.5,4,0.3c0.3-0.7,0.6-1.5,0.8-2.2
				c0.1,0.1,0.2,0.1,0.4,0.2c0,0-0.4,1.3-0.4,1.4c-0.1,0.5-0.1,1,0,1.6c0.2,1,0,1.8-0.6,2.9C105.9,72.6,106.9,76,106.7,80.5z"/>
			<path class="st41" d="M106.4,80.5c-2.5,0.7-5.4,0.3-7.7-1c0-1.5,0.2-2.9,0.6-4.4C99.2,76.5,99,78,99,79.3c0.4,0.4,1,0.6,1.6,0.5
				c0.1-1.1,0.2-2.1,0.5-3.2c-0.1,1.1-0.1,2.2,0,3.3c1,0.7,2.4,1,3.6,0.7c0.2-1.8,0.2-3.7-0.2-5.5c0.3,1.8,0.5,3.6,0.5,5.4
				c0.2,0,0.8-0.1,1-0.2c0-1.6,0-3.3-0.2-4.9C106.3,77.1,106.5,78.8,106.4,80.5z"/>
			<path class="st41" d="M100.8,66.9c-0.4,1.2-0.6,2.4-0.6,3.7c0.1-1.2,0.5-2.3,0.9-3.4c-0.1,0.7-0.1,1.5-0.1,2.2
				c0.1-0.8,0.4-1.5,0.6-2.2c0.7,0,1.5,0,2.2,0.1c0.7,1.2,1.3,2.5,1.6,3.8c-0.3-1.5-0.7-2.9-1.4-4.3c0.2-0.3,0.5-0.6,0.6-0.9
				c-1.5,0.4-3.1,0.2-4.4-0.5C100.2,66,100.4,66.6,100.8,66.9z"/>
			<path class="st37" d="M107.3,76c0.3-4.5,0.4-9.1,0.1-13.5c-1.5-1.2-3.1-2.2-4.8-2.7c-0.3,0-0.5,0-0.8,0.1
				c-1.7,0.5-3.3,1.3-4.7,2.5c-0.2,3.4-0.2,6.9,0.2,10.3c-0.1-3.2-0.1-6.5,0.1-9.8c0.4,0.3,0.7,0.6,1.1,1c-0.2-0.5-0.5-0.8-0.8-1.2
				c0.3,0.1,0.6,0.2,0.9,0.2c-0.2-0.2-0.5-0.4-0.8-0.6c1.1-0.8,2.2-1.5,3.4-2c-0.1,0.7-0.1,1.3-0.1,2c0.3-0.6,0.4-1.3,0.5-2
				c0.1,0.3,0.3,0.5,0.5,0.7c0-0.3,0.1-0.6,0.1-0.9c0.7,0.3,1.3,0.8,1.8,1.4c-0.2-0.5-0.5-0.9-0.9-1.3c1.2,0.6,2.3,1.3,3.4,2.1
				c-0.5,0.2-1,0.5-1.4,0.8c0.5-0.1,0.9-0.1,1.4-0.2c-0.2,0.3-0.4,0.6-0.5,0.9c0.3-0.3,0.5-0.5,0.8-0.8
				C107.4,67.3,107.6,71.8,107.3,76z"/>
			<path class="st37" d="M105.9,67c-0.5,0.4-0.9,1-1.4,1.4c-0.5,0.4-1.1,0.8-1.8,1.1c-1.2,0.6-2.6,1-4,0.9c1.2-0.3,2.4-0.6,3.5-1.2
				C103.6,68.7,104.8,67.9,105.9,67z"/>
			<path class="st37" d="M105.4,71.4c-1.7,1.8-4.1,2.8-6.5,2.9c0.5,0,1.1-0.3,1.6-0.5c0.6-0.2,1.2-0.4,1.8-0.7
				C103.3,72.6,104.4,72.1,105.4,71.4z"/>
			<path class="st37" d="M105,78.4c-1.8-0.4-3.5-1.2-5-2.2c0.6,0.8,1.3,1.4,2.3,1.7C103.2,78.3,104,78.2,105,78.4z"/>
			<linearGradient id="SVGID_14_" gradientUnits="userSpaceOnUse" x1="106.2274" y1="60.2366" x2="99.8691" y2="80.6937">
				<stop  offset="0" style="stop-color:#9BA87E"/>
				<stop  offset="0.7104" style="stop-color:#1F2119"/>
				<stop  offset="0.8827" style="stop-color:#000000"/>
			</linearGradient>
			<path class="st43" d="M100.6,80.5c3-6.4,4.4-11.3,6.2-18.2c-0.7-0.6-1.5-1-2.4-1.4c-1.6,6.9-2.8,12.5-4.9,19.3
				C99.9,80.2,100.3,80.5,100.6,80.5z"/>
		</g>
		<path class="st1" d="M110.3,57.9H45.7v-0.8h64.6C110.9,57.1,110.9,57.9,110.3,57.9z"/>
		<linearGradient id="SVGID_15_" gradientUnits="userSpaceOnUse" x1="113.0735" y1="52.876" x2="49.73" y2="60.9813">
			<stop  offset="0" style="stop-color:#87A37F"/>
			<stop  offset="0.2214" style="stop-color:#85A07D"/>
			<stop  offset="0.3789" style="stop-color:#7D9776"/>
			<stop  offset="0.5165" style="stop-color:#708769"/>
			<stop  offset="0.6427" style="stop-color:#5E7158"/>
			<stop  offset="0.7611" style="stop-color:#465542"/>
			<stop  offset="0.8738" style="stop-color:#293127"/>
			<stop  offset="0.9799" style="stop-color:#070907"/>
			<stop  offset="1" style="stop-color:#000000"/>
		</linearGradient>
		<path class="st44" d="M110.6,57.5c0-0.2-0.1-0.3-0.2-0.3H45.7v0.3H110.6z"/>
		<path class="st34" d="M74.6,57.1c0.3,0.2,0.4,0.5,0.3,0.8h0.8c0-0.3,0-0.6-0.1-0.8H74.6z"/>
		<path class="st34" d="M86.4,57.1c0.3,0.2,0.4,0.5,0.3,0.8h0.8c0-0.3,0-0.6-0.1-0.8H86.4z"/>
		<path class="st34" d="M102.5,57.1c0.3,0.2,0.4,0.5,0.3,0.8h0.8c0-0.3,0-0.6-0.1-0.8H102.5z"/>
		<g>
			<g>
				<path class="st34" d="M49.9,59.2c0-0.3,0.2-0.7,0.5-0.9c0.3-0.2,0.6-0.4,0.8-0.7c0.2-0.4,0.2-0.8,0-1.1c-0.2-0.3-0.6-0.6-1-0.6
					c-0.3-0.1-0.7,0-1,0.1c-0.3,0.2-0.5,0.5-0.6,0.8c0,0.3,0.1,0.8,0.5,0.9c0.1,0,0.1,0,0.1,0c0.1-0.1-0.1-0.3-0.1-0.5
					c0-0.2,0-0.4,0.1-0.5c0.2-0.3,0.6-0.3,0.9-0.1c0.3,0.2,0.4,0.6,0.3,0.9c-0.1,0.3-0.4,0.6-0.6,0.9c-0.2,0.3-0.4,0.6-0.4,0.9
					C49.6,59.2,49.7,59.1,49.9,59.2z"/>
				<polygon class="st34" points="47.6,60.2 49.7,58.9 51.9,60.2 51.7,60.3 49.7,59.5 47.7,60.4 				"/>
			</g>
			<g>
				<path class="st45" d="M47.2,60.1l0.5-0.3c0.7-0.2,2.1-0.3,3.2-0.3c0,0,0.7,0.3,1.2,0.6c0,0-1.5,7.6-3,7.6
					C48.4,67.7,47.7,65.8,47.2,60.1z"/>
				<path class="st46" d="M52,60.6c-0.4,1.6-1.6,7.1-2.9,7.1c-0.7,0-1.4-1.8-1.9-7C48,60.1,51.4,60.3,52,60.6z"/>
				<g>
					<g>
						<path class="st45" d="M45.5,66.9c0.1-0.6,0.2-3,0.4-4.7c0.1-1.1,0.4-1.8,0.4-1.8c0,0,0,0,0,0c0,0,0.1,0,0.1,0
							c0.3,0,0.6-0.1,0.8-0.1c0.1,0,0.2-0.1,0.3-0.1c0,1.6,0,7-0.1,7.6c-0.1,0.7-1.4,6.9-1.4,6.9l-2-0.2
							C44.2,74.5,45.3,68,45.5,66.9z"/>
						<path class="st47" d="M46.7,62.8c0.1-0.8,0.3-1.6,0-2.3c0.2,0,0.4-0.1,0.5-0.1c0.1,0,0.2-0.1,0.3-0.1c0,1.6,0,7-0.1,7.6
							c-0.1,0.7-1.4,6.9-1.4,6.9l-1.1-0.2C45.3,74.2,46.4,64.3,46.7,62.8z"/>
					</g>
					<path class="st45" d="M50.9,59.6c0,0,1.4,0.3,2.2,0.7c0,0-0.7,5-0.7,6.7c0,1.6,1.2,7.3,1.2,7.3s-0.1,0.4-2,0.5
						c-1.5,0.1-2.8-0.8-2.8-2c0-3.2,0-8.1,0-8.5C48.7,63.7,50.8,61.6,50.9,59.6z"/>
					<path class="st47" d="M50.9,59.6c0,0,1.4,0.3,2.2,0.7c0,0-0.7,5-0.7,6.7c0,1.6,1.2,7.3,1.2,7.3s-0.1,0.4-2,0.5
						c-1.5,0.1-2.8-0.8-2.8-2c0-3.2,0-8.1,0-8.5C48.7,63.7,50.8,61.6,50.9,59.6z"/>
					<path class="st48" d="M48.7,73.2c0-0.1,0-0.2-0.1-0.2c0-2.5,0-7,0-8.8l0.2-0.1l0,9.4C48.8,73.4,48.8,73.3,48.7,73.2z"/>
					<path class="st45" d="M46.6,66.8c0.1-0.3-0.2-6.3-0.2-6.3c0,0,0.5-0.4,1.3-0.6c0,0,0,0.1,0,0.4l1,2.9l0,9.9
						c0,1.1-1.4,1.9-2.7,1.4c0,0-0.1,0-0.1,0C45.9,74.4,46.6,67.1,46.6,66.8z"/>
					<path class="st47" d="M46.6,66.8c0.1-0.3-0.2-6.3-0.2-6.3c0,0,0.5-0.4,1.3-0.6c0,0,0,0.1,0,0.4l1,2.9l0,9.9
						c0,1.1-1.4,1.9-2.7,1.4c0,0-0.1,0-0.1,0C45.9,74.4,46.6,67.1,46.6,66.8z"/>
					<path class="st45" d="M51.9,70c0,0,0.2,0.5-0.4,0.5c-0.6,0-1.5,0.1-1.7,0c-0.2-0.1-0.2-0.5-0.1-0.5L51.9,70z"/>
					<path class="st45" d="M46.3,70l1.3,0.1c0.1,0,0,0.3-0.2,0.4c-0.1,0.1-0.7,0.1-1.2,0C46.2,70.3,46.3,70.2,46.3,70z"/>
					<path class="st47" d="M51.5,68.2c-0.3-1.5-0.6-3.1-0.2-4.6c0.3-1.1,1-1.9,1.7-2.7c-0.2,1.4-0.7,4.8-0.6,6.1
						c0,1.6,1.2,7.3,1.2,7.3s-0.1,0.4-2.1,0.5c-0.1,0-0.5,0-0.4,0C52,72.7,51.8,70.2,51.5,68.2z"/>
					<path class="st47" d="M46.6,66.8C46.6,66.8,46.6,66.8,46.6,66.8C46.6,66.8,46.6,66.7,46.6,66.8c0-0.1,0-0.1,0-0.1c0,0,0,0,0,0
						c0,0,0,0,0-0.1c0,0,0,0,0,0c0,0,0,0,0-0.1c0,0,0,0,0-0.1c0,0,0-0.1,0-0.1c0,0,0,0,0-0.1c0,0,0-0.1,0-0.1c0,0,0-0.1,0-0.1
						c0,0,0,0,0-0.1c0-0.1,0-0.3,0-0.5c0,0,0,0,0,0c0-0.1,0-0.1,0-0.2c0,0,0,0,0,0c0-0.1,0-0.1,0-0.2c0,0,0,0,0,0c0-0.3,0-0.6,0-1
						c0.2,1.1,0.7,2.2,0.6,3.4c-0.1,1.5-0.1,3.1-0.1,4.6c0,0.8,0,1.6,0.2,2.3c-0.4,0.1-0.9,0.1-1.3,0c0,0-0.1,0-0.1,0
						C45.9,74.4,46.6,67.1,46.6,66.8z"/>
					<path class="st45" d="M47.7,59.8c0.2,0.8,0.9,3.2,1.3,4.1c-0.1,0.1-0.2,0.3-0.2,0.4c-0.6-1-1.3-2.4-1.8-3.4l0.3-0.3l-0.4-0.1
						C46.8,60.3,47.7,59.8,47.7,59.8z"/>
					<path class="st45" d="M48.7,64c0,0,1.8-3.3,2.2-4.4h0c0.2,0,1,0.8,0.9,1l-0.7,0.2l0.5,0.2c-0.8,1.2-2.1,2.6-2.9,3.5
						C48.7,64.5,48.6,64.2,48.7,64z"/>
					<ellipse class="st49" cx="48.3" cy="67.9" rx="0.2" ry="0.2"/>
					<ellipse class="st49" cx="48.3" cy="69.2" rx="0.2" ry="0.2"/>
					<ellipse class="st49" cx="48.3" cy="66.6" rx="0.2" ry="0.2"/>
					<ellipse class="st49" cx="48.3" cy="65.3" rx="0.2" ry="0.2"/>
					<ellipse class="st49" cx="48.3" cy="70.5" rx="0.2" ry="0.2"/>
					<ellipse class="st49" cx="48.3" cy="71.8" rx="0.2" ry="0.2"/>
					<path class="st45" d="M52.1,66.3c0,0-0.5-3.6-0.4-4.6c0.1-1,0.9-1.5,1.3-1.5c0.4,0.1,1.7,3.3,2.1,7.5c0.4,4.2,0.5,7.4,0.5,7.4
						s-1.2,0.1-2.4,0.1c0,0-0.6-5.7-0.7-6.3C52.5,68.4,52.1,66.3,52.1,66.3z"/>
					<path class="st47" d="M52.3,66.6c0.1,1.4,0.2,2.5,0.2,2.4c-0.1-0.6-0.5-2.7-0.5-2.7s-0.3-2.7-0.4-4.1
						C51.8,62.6,52.2,65.6,52.3,66.6z"/>
				</g>
			</g>
			<path class="st32" d="M55.7,75.8c-3.5,0.3-8.6-0.5-12.1-0.8c-0.5-4.2,1.4-9.7,1.6-13.9c1.4-1.2,2.2-1.5,3.9-2.2
				c0.4,0,0.6,0.1,1,0c1.7,0.8,3.3,1,4.7,2.3C55.3,65.3,56.3,71.8,55.7,75.8z"/>
			<path class="st37" d="M54.6,72.2c0-3.3,0-6.7-0.1-10c-0.2,0.3-0.5,0.6-0.8,0.9c0.1-0.4,0.2-0.7,0.3-1c-0.4,0.2-0.7,0.2-1,0.3
				c0.4-0.2,0.7-0.5,1.1-0.7c-1.2-0.9-2.6-1.6-4.1-2.1c0,0.3,0,0.5-0.1,0.7c-0.1-0.3-0.3-0.5-0.4-0.8c-0.2,0.2-0.4,0.5-0.7,0.7
				c0.1-0.2,0.1-0.4,0.1-0.7c-1.3,0.7-2.5,1.6-3.6,2.6c0.2,0.1,0.4,0.2,0.6,0.3c-0.3,0-0.5,0-0.8,0c0.1,0.2,0.3,0.5,0.5,0.7
				c-0.3-0.1,0,1-0.2,0.8c-0.2,1.5-0.4,2-0.4,3.5c-0.1-1.7,0.2-4.5,0.3-6.2c1.4-1.1,2-1.5,3.7-2.1c0.4-0.1,0.7,0,1.1-0.1
				c1.6,0.7,3.1,1.1,4.5,2.2C55.1,64.8,55,68.7,54.6,72.2z"/>
		</g>
		<g>
			
				<linearGradient id="SVGID_16_" gradientUnits="userSpaceOnUse" x1="491.6318" y1="63.8938" x2="496.8808" y2="63.8938" gradientTransform="matrix(-1 0 0 1 556.0986 0)">
				<stop  offset="0" style="stop-color:#2C2825"/>
				<stop  offset="1" style="stop-color:#3D3A37"/>
			</linearGradient>
			<path class="st50" d="M59.2,60.5c0,0,0-0.2,0.7-0.3c0.8-0.2,2.2-0.2,3.4-0.2c0.5,0,0.5,0.3,1.1,0.5c0,0-1.6,7.4-3.2,7.4
				C60.5,67.8,59.8,66,59.2,60.5z"/>
			
				<linearGradient id="SVGID_17_" gradientUnits="userSpaceOnUse" x1="494.034" y1="65.0044" x2="494.576" y2="56.029" gradientTransform="matrix(-1 0 0 1 556.0986 0)">
				<stop  offset="0" style="stop-color:#2C2825"/>
				<stop  offset="1" style="stop-color:#3D3A37"/>
			</linearGradient>
			<path class="st51" d="M64.4,60.9c-0.4,1.6-1.7,7-3.1,6.9c-0.8,0-1.5-1.7-2-6.8C60.2,60.5,63.7,60.6,64.4,60.9z"/>
			<g>
				<g>
					
						<linearGradient id="SVGID_18_" gradientUnits="userSpaceOnUse" x1="498.2484" y1="60.7028" x2="498.2484" y2="75.0218" gradientTransform="matrix(-1 0 0 1 556.0986 0)">
						<stop  offset="0" style="stop-color:#2C2825"/>
						<stop  offset="1" style="stop-color:#3D3A37"/>
					</linearGradient>
					<path class="st52" d="M57.5,67.1c0.1-0.6,0.1-2.8,0.3-4.4c0.2-1.3,0.6-1.9,0.6-1.9c0,0,0,0,0,0c0,0,0.1,0,0.1,0
						c0.3,0,0.6-0.1,0.9-0.1c0.1,0,0.2-0.1,0.3-0.1c0,1.5,0,6.8-0.1,7.4c-0.1,0.6-1.4,6.7-1.4,6.7L56,74.4
						C56,74.4,57.3,68.1,57.5,67.1z"/>
					<path class="st47" d="M58.8,63c0.2-0.8,0.3-1.5,0-2.3c0.2,0,0.4-0.1,0.6-0.1c0.1,0,0.2-0.1,0.3-0.1c0,1.5,0,6.8-0.1,7.4
						c-0.1,0.6-1.4,6.7-1.4,6.7L57,74.5C57.2,74.2,58.4,64.5,58.8,63z"/>
				</g>
				
					<linearGradient id="SVGID_19_" gradientUnits="userSpaceOnUse" x1="492.6928" y1="60.7028" x2="492.6928" y2="75.0218" gradientTransform="matrix(-1 0 0 1 556.0986 0)">
					<stop  offset="0" style="stop-color:#2C2825"/>
					<stop  offset="1" style="stop-color:#3D3A37"/>
				</linearGradient>
				<path class="st53" d="M63.3,59.9c0,0,1.4,0.3,2.2,0.7c0,0-0.8,4.9-0.8,6.5c0,1.6,1.3,7.1,1.3,7.1s-0.2,0.6-5.2,0.5
					c0,0,0-10.8,0-11.4C60.9,62.9,63.2,61.9,63.3,59.9z"/>
				<path class="st48" d="M61,64.3l0,10.5c0,0-0.1,0-0.1,0c0,0,0-7.8,0-10.3L61,64.3z"/>
				
					<linearGradient id="SVGID_20_" gradientUnits="userSpaceOnUse" x1="496.7359" y1="60.7028" x2="496.7359" y2="75.0219" gradientTransform="matrix(-1 0 0 1 556.0986 0)">
					<stop  offset="0" style="stop-color:#2C2825"/>
					<stop  offset="1" style="stop-color:#3D3A37"/>
				</linearGradient>
				<path class="st54" d="M58.6,67c0.1-0.3-0.2-6.2-0.2-6.2s0.3-0.3,0.9-0.4c0,0,0,0,0,0c0.1,0.1,0.3,0.1,0.5,0.1l1.1,2.8l0,11.5
					c0,0-2.4-0.2-3-0.5C57.9,74.3,58.6,67.2,58.6,67z"/>
				
					<linearGradient id="SVGID_21_" gradientUnits="userSpaceOnUse" x1="492.9916" y1="70.1907" x2="492.9916" y2="71.8422" gradientTransform="matrix(-1 0 0 1 556.0986 0)">
					<stop  offset="0" style="stop-color:#2C2825"/>
					<stop  offset="0.2251" style="stop-color:#2F2B28"/>
					<stop  offset="0.412" style="stop-color:#393633"/>
					<stop  offset="0.4652" style="stop-color:#3D3A37"/>
				</linearGradient>
				<path class="st55" d="M64.3,70.1c0,0,0.2,1.5-0.4,1.5c-0.6,0-1.6,0.1-1.8,0c-0.2-0.1-0.2-1.5-0.1-1.5L64.3,70.1z"/>
				
					<linearGradient id="SVGID_22_" gradientUnits="userSpaceOnUse" x1="497.1631" y1="70.2097" x2="497.1631" y2="71.8396" gradientTransform="matrix(-1 0 0 1 556.0986 0)">
					<stop  offset="0" style="stop-color:#2C2825"/>
					<stop  offset="0.2251" style="stop-color:#2F2B28"/>
					<stop  offset="0.412" style="stop-color:#393633"/>
					<stop  offset="0.4652" style="stop-color:#3D3A37"/>
				</linearGradient>
				<path class="st56" d="M58.3,70.1l1.4,0c0.1,0,0.1,1.3-0.1,1.5c-0.1,0.1-0.8,0.1-1.4,0C58.2,71.1,58.2,70.6,58.3,70.1z"/>
				
					<linearGradient id="SVGID_23_" gradientUnits="userSpaceOnUse" x1="492.9916" y1="69.021" x2="492.9916" y2="71.0484" gradientTransform="matrix(-1 0 0 1 556.0986 0)">
					<stop  offset="0" style="stop-color:#44413E"/>
					<stop  offset="1" style="stop-color:#3D3A37"/>
				</linearGradient>
				<path class="st57" d="M64.3,70.1c0,0,0.2,0.5-0.4,0.5c-0.6,0-1.6,0.1-1.8,0c-0.2-0.1-0.2-0.5-0.1-0.4L64.3,70.1z"/>
				
					<linearGradient id="SVGID_24_" gradientUnits="userSpaceOnUse" x1="497.1247" y1="69.021" x2="497.1247" y2="71.0484" gradientTransform="matrix(-1 0 0 1 556.0986 0)">
					<stop  offset="0" style="stop-color:#44413E"/>
					<stop  offset="1" style="stop-color:#3D3A37"/>
				</linearGradient>
				<path class="st58" d="M58.3,70.1l1.4,0.1c0.1,0,0,0.3-0.2,0.4c-0.1,0.1-0.8,0.1-1.3,0C58.2,70.4,58.3,70.2,58.3,70.1z"/>
				<path class="st47" d="M63.8,68.3c-0.3-1.4-0.6-3-0.2-4.5c0.3-1,1-1.8,1.8-2.7c-0.2,1.3-0.7,4.7-0.7,6c0,1.6,1.3,7.1,1.3,7.1
					s-0.1,0.4-2.8,0.5C64.4,72.8,64.2,70.3,63.8,68.3z"/>
				<path class="st47" d="M59.4,74.6c-0.6-0.1-1.3-0.2-1.6-0.3c0,0,0.7-7.1,0.8-7.4c0-0.1,0-1.3-0.1-2.6c0.2,1.1,0.7,2.2,0.7,3.3
					c-0.1,1.5-0.1,3-0.1,4.5C59.2,73,59.1,73.8,59.4,74.6z"/>
				
					<linearGradient id="SVGID_25_" gradientUnits="userSpaceOnUse" x1="493.369" y1="60.5007" x2="493.369" y2="65.2712" gradientTransform="matrix(-1 0 0 1 556.0986 0)">
					<stop  offset="0" style="stop-color:#44413E"/>
					<stop  offset="1" style="stop-color:#3D3A37"/>
				</linearGradient>
				<path class="st59" d="M60.8,63.2c0,0,2.1-2.3,2.3-3.3c0,0,1.4,0.2,1.5,0.3c0,0.1-0.2,0.5-0.5,1.1c-0.2,0.4-0.5,0.6-1,0.8l0,0
					l0,0c0.3,0.1,0.3,0.4,0.1,0.6c-0.6,0.6-1.3,1.3-2.4,2.6C60.9,65.3,60.8,63.3,60.8,63.2z"/>
				<path class="st48" d="M61,65.1c0,0.1-0.1,0.1-0.1,0.2c0,0,0-1.3,0-1.9c0-0.1,0-0.1,0-0.2c0,0,0-0.1,0.1-0.2c0,0,0.1-0.1,0.1-0.1
					L61,65.1z"/>
				
					<linearGradient id="SVGID_26_" gradientUnits="userSpaceOnUse" x1="496.0552" y1="60.5007" x2="496.0552" y2="65.2712" gradientTransform="matrix(-1 0 0 1 556.0986 0)">
					<stop  offset="0" style="stop-color:#44413E"/>
					<stop  offset="1" style="stop-color:#3D3A37"/>
				</linearGradient>
				<path class="st60" d="M59.8,62.1L59.6,62c-0.3-0.1-0.4-1.6-0.4-1.6c0-0.1,0.9-0.3,0.9-0.3c0.1,0.9,0.8,3,0.8,3
					c0,0.5,0,2.2,0,2.2c-0.3-0.4-0.7-1-1.3-2.6C59.4,62.2,59.8,62.1,59.8,62.1z"/>
				
					<linearGradient id="SVGID_27_" gradientUnits="userSpaceOnUse" x1="495.6409" y1="67.8269" x2="495.6409" y2="68.2628" gradientTransform="matrix(-1 0 0 1 556.0986 0)">
					<stop  offset="0" style="stop-color:#44413E"/>
					<stop  offset="1" style="stop-color:#3D3A37"/>
				</linearGradient>
				<ellipse class="st61" cx="60.5" cy="68" rx="0.2" ry="0.2"/>
				
					<linearGradient id="SVGID_28_" gradientUnits="userSpaceOnUse" x1="495.6409" y1="69.0999" x2="495.6409" y2="69.5358" gradientTransform="matrix(-1 0 0 1 556.0986 0)">
					<stop  offset="0" style="stop-color:#44413E"/>
					<stop  offset="1" style="stop-color:#3D3A37"/>
				</linearGradient>
				<ellipse class="st62" cx="60.5" cy="69.3" rx="0.2" ry="0.2"/>
				
					<linearGradient id="SVGID_29_" gradientUnits="userSpaceOnUse" x1="495.6409" y1="66.5525" x2="495.6409" y2="66.9885" gradientTransform="matrix(-1 0 0 1 556.0986 0)">
					<stop  offset="0" style="stop-color:#44413E"/>
					<stop  offset="1" style="stop-color:#3D3A37"/>
				</linearGradient>
				<ellipse class="st63" cx="60.5" cy="66.8" rx="0.2" ry="0.2"/>
				
					<linearGradient id="SVGID_30_" gradientUnits="userSpaceOnUse" x1="495.6409" y1="65.2781" x2="495.6409" y2="65.7141" gradientTransform="matrix(-1 0 0 1 556.0986 0)">
					<stop  offset="0" style="stop-color:#44413E"/>
					<stop  offset="1" style="stop-color:#3D3A37"/>
				</linearGradient>
				<ellipse class="st64" cx="60.5" cy="65.5" rx="0.2" ry="0.2"/>
				
					<linearGradient id="SVGID_31_" gradientUnits="userSpaceOnUse" x1="495.6409" y1="70.3729" x2="495.6409" y2="70.8088" gradientTransform="matrix(-1 0 0 1 556.0986 0)">
					<stop  offset="0" style="stop-color:#44413E"/>
					<stop  offset="1" style="stop-color:#3D3A37"/>
				</linearGradient>
				<ellipse class="st65" cx="60.5" cy="70.6" rx="0.2" ry="0.2"/>
				
					<linearGradient id="SVGID_32_" gradientUnits="userSpaceOnUse" x1="495.6409" y1="71.6459" x2="495.6409" y2="72.0818" gradientTransform="matrix(-1 0 0 1 556.0986 0)">
					<stop  offset="0" style="stop-color:#44413E"/>
					<stop  offset="1" style="stop-color:#3D3A37"/>
				</linearGradient>
				<ellipse class="st66" cx="60.5" cy="71.9" rx="0.2" ry="0.2"/>
				
					<linearGradient id="SVGID_33_" gradientUnits="userSpaceOnUse" x1="489.9067" y1="60.7028" x2="489.9067" y2="75.0218" gradientTransform="matrix(-1 0 0 1 556.0986 0)">
					<stop  offset="0" style="stop-color:#2C2825"/>
					<stop  offset="1" style="stop-color:#3D3A37"/>
				</linearGradient>
				<path class="st67" d="M64.5,66.5c0,0-0.5-3.5-0.4-4.5c0.1-1,1-1.5,1.4-1.4c0.4,0.1,1.8,3.2,2.3,7.3s0.5,7.2,0.5,7.2
					s-1.3,0.1-2.6,0.1c0,0-0.7-5.6-0.8-6.1C64.9,68.5,64.5,66.5,64.5,66.5z"/>
				<path class="st47" d="M64.7,66.8c0.2,1.3,0.2,2.4,0.2,2.3c-0.1-0.5-0.5-2.6-0.5-2.6s-0.4-2.6-0.4-3.9
					C64.1,62.9,64.6,65.8,64.7,66.8z"/>
			</g>
		</g>
		<g>
			<g>
				<g>
					<path class="st34" d="M62.3,59.2c0-0.3,0.2-0.7,0.5-0.9c0.3-0.2,0.6-0.4,0.8-0.7c0.2-0.4,0.2-0.8,0-1.1c-0.2-0.3-0.6-0.6-1-0.6
						c-0.3-0.1-0.7,0-1,0.1c-0.3,0.2-0.5,0.5-0.6,0.8c0,0.3,0.1,0.8,0.5,0.9c0.1,0,0.1,0,0.1,0c0.1-0.1-0.1-0.3-0.1-0.5
						c0-0.2,0-0.4,0.1-0.5c0.2-0.3,0.6-0.3,0.9-0.1s0.4,0.6,0.3,0.9c-0.1,0.3-0.4,0.6-0.6,0.9c-0.2,0.3-0.4,0.6-0.4,0.9
						C62,59.2,62.1,59.2,62.3,59.2z"/>
					<polygon class="st34" points="59.9,60.3 62.1,59 64.3,60.2 64.1,60.4 62.1,59.5 60.1,60.4 					"/>
				</g>
				<path class="st32" d="M68.5,75.4c-3.5,0.3-9.1,0-12.5-0.3c-0.5-4.2,1.4-9.7,1.6-13.9c1.4-1.2,2.2-1.5,3.9-2.2c0.4,0,0.6,0.1,1,0
					c1.7,0.8,3.3,1,4.7,2.3C67.6,65.4,69.2,71.3,68.5,75.4z"/>
				<path class="st37" d="M67,72.3c0-3.3,0-6.7-0.1-10c-0.2,0.3-0.5,0.6-0.8,0.9c0.1-0.4,0.2-0.7,0.3-1c-0.4,0.2-0.7,0.2-1,0.3
					c0.4-0.2,0.7-0.5,1.1-0.7c-1.2-0.9-2.6-1.6-4.1-2.1c0,0.3,0,0.5-0.1,0.7c-0.1-0.3-0.3-0.5-0.4-0.8c-0.2,0.2-0.4,0.5-0.7,0.7
					c0.1-0.2,0.1-0.4,0.1-0.7c-1.3,0.7-2.5,1.6-3.6,2.6c0.2,0.1,0.4,0.2,0.6,0.3c-0.3,0-0.5,0-0.8,0c0.1,0.2,0.3,0.5,0.5,0.7
					c-0.3-0.1,0,1-0.2,0.8c-0.2,1.5-0.4,2-0.4,3.5c-0.1-1.7,0.2-4.5,0.3-6.2c1.4-1.1,2-1.5,3.7-2.1c0.4-0.1,0.7,0,1.1-0.1
					c1.6,0.7,3.1,1.1,4.5,2.2C67.5,64.8,67.4,68.8,67,72.3z"/>
			</g>
		</g>
	</g>
</g>
</svg>
