<svg width="171" height="80" viewBox="0 0 171 80" fill="none" xmlns="http://www.w3.org/2000/svg">
<path d="M6.23781 79H164.912C164.912 79 168.917 5.84618 122.866 0.563343C76.8153 -4.71949 67.3049 28.8578 39.2741 30.2009C11.2433 31.544 1.23231 62.077 6.23781 79Z" fill="#FAFFFF"/>
<path d="M27.5 78.0997H100.3L101.1 56.6997H90.5L88.8 70.3997H75.8L73.5999 56.6997H26.7L27.5 78.0997Z" fill="#6CC8C1"/>
<path d="M74.7 64.8999H27V65.0999H74.7V64.8999Z" fill="#CCD9E2"/>
<path d="M36.8037 78.1645L37.5688 56.7773L37.369 56.7702L36.6039 78.1574L36.8037 78.1645Z" fill="#F5FBFF"/>
<path d="M53.7249 78.1498L53.9248 78.1421L53.0997 56.7571L52.8999 56.7648L53.7249 78.1498Z" fill="#F5FBFF"/>
<path d="M70.4964 78.1483L70.6963 78.1406L69.8712 56.7556L69.6714 56.7633L70.4964 78.1483Z" fill="#F5FBFF"/>
<path d="M95.8753 78.0981L96.6404 56.7109L96.4405 56.7038L95.6754 78.0909L95.8753 78.0981Z" fill="#F5FBFF"/>
<path d="M36.9656 78.1049L37.7307 56.7178L37.5308 56.7106L36.7657 78.0978L36.9656 78.1049Z" fill="#CCD9E2"/>
<path d="M53.9444 78.1474L54.1443 78.1396L53.3192 56.7546L53.1194 56.7623L53.9444 78.1474Z" fill="#CCD9E2"/>
<path d="M70.6158 78.1498L70.8157 78.1421L69.9906 56.7571L69.7907 56.7648L70.6158 78.1498Z" fill="#CCD9E2"/>
<path d="M96.0337 78.1381L96.7988 56.751L96.599 56.7438L95.8339 78.131L96.0337 78.1381Z" fill="#CCD9E2"/>
<path d="M100.8 65.1001H89.3V65.3001H100.8V65.1001Z" fill="#F5FBFF"/>
<path d="M74.7 64.6997H27V64.8997H74.7V64.6997Z" fill="#F5FBFF"/>
<path d="M101.1 56.7001H91.1001L89.0001 70.9001H75.5001L73.3001 56.7001H26.3001L26.1001 55.1001H74.2001L76.0001 70.1001H88.4001L90.1001 55.1001H101.3L101.1 56.7001Z" fill="#CCD9E2"/>
<path opacity="0.18" d="M26.7 56.6997L26.7999 58.5997L73.6999 59.0997L73.3 56.6997H26.7Z" fill="#0C123A"/>
<path d="M27.5 78.0999L27.3 72.7999L27.2 70.0999C27.2 69.1999 27.1 68.2999 27.1 67.3999L26.7 56.6999V56.5999H26.6H26.2L26.3 56.6999L26.1 54.9999L26 55.0999H50.1H62.1H65.1H68.1L74.1 54.9999L68.1 54.8999H65.1H62.1H50.1H26.1H26V54.9999L26.2 56.6999V56.7999H26.3H26.7L26.6 56.6999L27 67.3999C27 68.2999 27.1 69.1999 27.1 70.0999L27.2 72.7999L27.5 78.0999Z" fill="#CCD9E2"/>
<path opacity="0.18" d="M75.5 70.8997L76.3 72.2997L90.8 72.6997L93.3 59.0997L101 59.3997L101.1 56.6997H91.1L89 70.8997H75.5Z" fill="#0C123A"/>
<path d="M50.1999 58.8998L52.6999 77.8998H46.7999L39.7 58.7998L50.1999 58.8998ZM51.0999 58.8998L52.9 77.8998H56.8L58 58.9998L51.0999 58.8998Z" fill="url(#paint0_linear)"/>
<path d="M85.9 66.1001C85.9 66.1001 90.2 61.3001 88.4 60.9001C86.6 60.5001 85.5 61.6001 85.5 61.6001C85.5 61.6001 84.2 58.6001 82.7 59.6001C81.3 60.6001 79.1 65.4001 79.5 66.2001C79.7 67.1001 85.9 66.1001 85.9 66.1001Z" fill="#3D576B"/>
<path d="M77.8001 65.7001L84.7001 64.4001C84.7001 64.4001 84.7001 62.0001 84.0001 61.8001C83.3001 61.6001 78.1001 60.0001 77.3001 61.1001C76.6001 62.2001 77.8001 65.7001 77.8001 65.7001Z" fill="#FFDD00"/>
<path d="M82.4001 64.0005C82.4001 64.0005 87.3001 64.3005 87.4001 65.7005C87.6001 67.1005 87.1001 68.7005 87.1001 68.7005L81.9001 67.8005L82.4001 64.0005Z" fill="#3D576B"/>
<path d="M87.5001 66.4005C87.5001 66.4005 85.2001 64.9005 82.9001 67.3005C80.6001 69.7005 79.9001 70.0005 79.9001 70.0005H86.7001L87.5001 66.4005Z" fill="#FFEC00"/>
<path d="M80.1 62.1001C80.1 62.1001 76.2 67.3001 77.6 69.6001C77.6 69.6001 80.7 71.1001 82.6 69.9001C84.5 68.7001 83.1 62.6001 83.1 62.6001L80.1 62.1001Z" fill="white"/>
<path d="M80.6001 65H80.1001V65.7H80.6001V65Z" fill="#6CC8C1"/>
<path d="M80.6001 66.3003H80.1001V67.0003H80.6001V66.3003Z" fill="#6CC8C1"/>
<path d="M80.6001 69H80.1001V69.7H80.6001V69Z" fill="#6CC8C1"/>
<path d="M80.6001 67.6001H80.1001V68.3001H80.6001V67.6001Z" fill="#6CC8C1"/>
<path d="M80.6001 63.6001H80.1001V64.3001H80.6001V63.6001Z" fill="#6CC8C1"/>
<path d="M81.6001 66.3003H81.1001V67.0003H81.6001V66.3003Z" fill="#6CC8C1"/>
<path d="M81.6001 67.6001H81.1001V68.3001H81.6001V67.6001Z" fill="#6CC8C1"/>
<path d="M81.6001 69H81.1001V69.7H81.6001V69Z" fill="#6CC8C1"/>
<path d="M81.6001 63.6001H81.1001V64.3001H81.6001V63.6001Z" fill="#6CC8C1"/>
<path d="M81.6001 65H81.1001V65.7H81.6001V65Z" fill="#6CC8C1"/>
<path d="M82.7 69H82.2V69.7H82.7V69Z" fill="#6CC8C1"/>
<path d="M82.7 65H82.2V65.7H82.7V65Z" fill="#6CC8C1"/>
<path d="M82.7 66.3003H82.2V67.0003H82.7V66.3003Z" fill="#6CC8C1"/>
<path d="M82.7 67.6001H82.2V68.3001H82.7V67.6001Z" fill="#6CC8C1"/>
<path d="M82.7 63.6001H82.2V64.3001H82.7V63.6001Z" fill="#6CC8C1"/>
<path d="M83.7 63.6001H83.2V64.3001H83.7V63.6001Z" fill="#6CC8C1"/>
<path d="M83.7 69H83.2V69.7H83.7V69Z" fill="#6CC8C1"/>
<path d="M83.7 65H83.2V65.7H83.7V65Z" fill="#6CC8C1"/>
<path d="M83.7 67.6001H83.2V68.3001H83.7V67.6001Z" fill="#6CC8C1"/>
<path d="M83.7 66.3003H83.2V67.0003H83.7V66.3003Z" fill="#6CC8C1"/>
<path d="M84.7 63.6001H84.2V64.3001H84.7V63.6001Z" fill="#6CC8C1"/>
<path d="M84.7 66.3003H84.2V67.0003H84.7V66.3003Z" fill="#6CC8C1"/>
<path d="M84.7 69H84.2V69.7H84.7V69Z" fill="#6CC8C1"/>
<path d="M84.7 65H84.2V65.7H84.7V65Z" fill="#6CC8C1"/>
<path d="M84.7 67.6001H84.2V68.3001H84.7V67.6001Z" fill="#6CC8C1"/>
<path d="M85.7 69H85.2V69.7H85.7V69Z" fill="#6CC8C1"/>
<path d="M85.7 63.6001H85.2V64.3001H85.7V63.6001Z" fill="#6CC8C1"/>
<path d="M85.7 65H85.2V65.7H85.7V65Z" fill="#6CC8C1"/>
<path d="M85.7 67.6001H85.2V68.3001H85.7V67.6001Z" fill="#6CC8C1"/>
<path d="M85.7 66.3003H85.2V67.0003H85.7V66.3003Z" fill="#6CC8C1"/>
<path d="M86.7 69H86.2V69.7H86.7V69Z" fill="#6CC8C1"/>
<path d="M86.7 65H86.2V65.7H86.7V65Z" fill="#6CC8C1"/>
<path d="M86.7 67.6001H86.2V68.3001H86.7V67.6001Z" fill="#6CC8C1"/>
<path d="M86.7 66.3003H86.2V67.0003H86.7V66.3003Z" fill="#6CC8C1"/>
<path d="M86.7 63.6001H86.2V64.3001H86.7V63.6001Z" fill="#6CC8C1"/>
<path d="M87.2 67.0003H87.5L87.6 66.3003H87.2V67.0003Z" fill="#6CC8C1"/>
<path d="M87.2 65V65.7H87.6L87.7 65.4V65H87.2Z" fill="#6CC8C1"/>
<path d="M87.2 68.3001H87.3L87.4 67.6001H87.2V68.3001Z" fill="#6CC8C1"/>
<path d="M87.7 63.6001H87.2V64.3001H87.7V63.6001Z" fill="#6CC8C1"/>
<path d="M79.6001 65H79.1001V65.7H79.6001V65Z" fill="#6CC8C1"/>
<path d="M79.6001 66.3003H79.1001V67.0003H79.6001V66.3003Z" fill="#6CC8C1"/>
<path d="M79.6001 63.6001H79.1001V64.3001H79.6001V63.6001Z" fill="#6CC8C1"/>
<path d="M79.6001 69H79.1001V69.7H79.6001V69Z" fill="#6CC8C1"/>
<path d="M79.6001 67.6001H79.1001V68.3001H79.6001V67.6001Z" fill="#6CC8C1"/>
<path d="M78.6001 66.3003H78.1001V67.0003H78.6001V66.3003Z" fill="#6CC8C1"/>
<path d="M78.6001 67.6001H78.1001V68.3001H78.6001V67.6001Z" fill="#6CC8C1"/>
<path d="M78.6001 65H78.1001V65.7H78.6001V65Z" fill="#6CC8C1"/>
<path d="M78.6001 69H78.1001V69.7H78.6001V69Z" fill="#6CC8C1"/>
<path d="M78.6001 63.6001H78.1001V64.3001H78.6001V63.6001Z" fill="#6CC8C1"/>
<path d="M77.6001 67.6001H77.4001L77.5001 68.3001H77.6001V67.6001Z" fill="#6CC8C1"/>
<path d="M77.5 69L77.6 69.2V69H77.5Z" fill="#6CC8C1"/>
<path d="M77.6001 65H77.1001V65.4V65.7H77.6001V65Z" fill="#6CC8C1"/>
<path d="M77.6001 63.6001H77.1001V64.3001H77.6001V63.6001Z" fill="#6CC8C1"/>
<path d="M77.6 66.3003H77.2L77.3 67.0003H77.6V66.3003Z" fill="#6CC8C1"/>
<path d="M86.2 69.7002H85.7H85.2H84.7H84.2H83.7H83.2H82.7H82.2H81.7H81.2H80.7H80.2H79.7H79.2H78.7H78.2H77.7C77.8 69.9002 77.9 70.1002 78.1 70.1002H86.7C86.9 70.1002 87.1 69.9002 87.1 69.7002H86.6H86.2Z" fill="#6CC8C1"/>
<path d="M86.7 68.3003H86.2H85.6H85.2H84.6H84.2H83.6H83.2H82.6H82.2H81.6H81.1H80.6H80.1H79.6H79.1H78.6H78.1H77.6H77.5V69.0003H77.6H78.1H78.6H79.1H79.6H80.1H80.6H81.1H81.6H82.2H82.6H83.2H83.6H84.2H84.6H85.2H85.6H86.2H86.7H87.2L87.3 68.3003H87.2H86.7Z" fill="#6CC8C1"/>
<path d="M86.7 67H86.2H85.6H85.2H84.6H84.2H83.6H83.2H82.6H82.2H81.6H81.1H80.6H80.1H79.6H79.1H78.6H78.1H77.6H77.3L77.4 67.6H77.6H78.1H78.6H79.1H79.6H80.1H80.6H81.1H81.6H82.2H82.6H83.2H83.6H84.2H84.6H85.2H85.6H86.2H86.7H87.2H87.4L87.5 67H87.2H86.7Z" fill="#6CC8C1"/>
<path d="M86.7001 65.7002H86.2001H85.6001H85.2001H84.6001H84.2001H83.6001H83.2001H82.6001H82.2001H81.6001H81.1001H80.6001H80.1001H79.6001H79.1001H78.6001H78.1001H77.6001H77.1001L77.2001 66.3002H77.6001H78.1001H78.6001H79.1001H79.6001H80.1001H80.6001H81.1001H81.6001H82.2001H82.6001H83.2001H83.6001H84.2001H84.6001H85.2001H85.6001H86.2001H86.7001H87.2001H87.6001V65.7002H87.2001H86.7001Z" fill="#6CC8C1"/>
<path d="M87.2 64.3003H86.7H86.2H85.6H85.2H84.6H84.2H83.6H83.2H82.6H82.2H81.6H81.1H80.6H80.1H79.6H79.1H78.6H78.1H77.6H77.1H77L77.1 65.0003H77.6H78.1H78.6H79.1H79.6H80.1H80.6H81.1H81.6H82.2H82.6H83.2H83.6H84.2H84.6H85.2H85.6H86.2H86.7H87.2H87.7L87.8 64.3003H87.7H87.2Z" fill="#6CC8C1"/>
<path d="M76.8 63.1001L76.9 63.6001H77.1H77.6H78.1H78.6H79.1H79.6H80.1H80.6H81.1H81.6H82.2H82.6H83.2H83.6H84.2H84.6H85.2H85.6H86.2H86.7H87.2H87.7H87.9V63.1001H76.8Z" fill="#6CC8C1"/>
<path d="M88.2001 62.8001C88.1001 62.7001 88.0001 62.6001 87.9001 62.6001H76.8001C76.7001 62.6001 76.6001 62.7001 76.5001 62.8001C76.4001 62.9001 76.4001 63.0001 76.4001 63.1001V63.2001L76.5001 63.6001L77.2001 69.6001C77.2001 69.7001 77.2001 69.8001 77.2001 69.8001C77.3001 70.2001 77.6001 70.5001 78.0001 70.5001H86.6001C87.0001 70.5001 87.3001 70.2001 87.4001 69.8001C87.4001 69.7001 87.4001 69.6001 87.5001 69.5001L88.2001 63.5001L88.3001 63.1001V63.0001C88.3001 63.0001 88.3001 62.9001 88.2001 62.8001ZM87.5001 63.7001L86.8001 69.5001C86.8001 69.6001 86.8001 69.6001 86.7001 69.6001H78.1001C78.1001 69.6001 78.0001 69.6001 78.0001 69.5001L77.3001 63.7001H87.5001Z" fill="#6CC8C1"/>
<path d="M89 62.6001C89 63.0001 88.8 63.2001 88.5 63.2001H76.3C76 63.2001 75.8 63.0001 75.8 62.7001V62.6001V62.5001C75.9 62.3001 76 62.1001 76.3 62.1001H88.5C88.7 62.1001 88.9 62.2001 89 62.5001C89 62.5001 89 62.5001 89 62.6001Z" fill="#6CC8C1"/>
<path opacity="0.2" d="M88.3001 63.1001C88.3001 63.2001 88.3001 63.2001 88.3001 63.1001L88.2001 63.6001H76.5001L76.4001 63.2001V63.1001H88.3001Z" fill="#29235C"/>
<path opacity="0.2" d="M87.5 69.8999C87.4 70.2999 87.1 70.5999 86.7 70.5999H78.1C77.7 70.5999 77.4 70.2999 77.3 69.8999H87.5Z" fill="#29235C"/>
<path d="M79.6001 62.1003C79.6001 62.1003 83.4001 60.4003 84.1001 62.1003C84.3001 62.7003 84.5001 63.1003 84.5001 63.4003C84.6001 65.6003 79.7001 62.2003 79.6001 62.1003Z" fill="white"/>
<path opacity="0.2" d="M79.6001 62.1001C79.6001 62.1001 83.7001 64.7001 84.5001 63.4001C84.6001 65.6001 79.7001 62.2001 79.6001 62.1001Z" fill="#29235C"/>
<path d="M168.7 79.8002H2.1C1.2 79.8002 0.5 79.4002 0.5 79.0002C0.5 78.6002 1.2 78.2002 2.1 78.2002H168.7C169.6 78.2002 170.3 78.6002 170.3 79.0002C170.3 79.4002 169.6 79.8002 168.7 79.8002Z" fill="#5C8097"/>
<path d="M119 40.5C119 40.5 116.1 44.7 116 44.8C115.9 44.9 111.2 44.9 110.6 44.9C110.6 44.9 110.4 44.8 110.1 44.8C109.8 44.8 108.1 44.8 108.1 44.8C108 44.8 108 44.5 108 44.4C108 44.3 107.9 44.1 107.9 44.1L107.8 44.8C107.8 44.9 108.5 45.5 108.8 45.5C109.1 45.6 110.5 45.5 110.5 45.5C110.5 45.5 116.5 46.4 116.8 46.3C117.2 46.2 120.2 43 120.6 41.9C121 40.9 119 40.5 119 40.5Z" fill="url(#paint1_linear)"/>
<path d="M117.8 37.5001C117.8 37.5001 117.7 37.2001 117.7 37.1001C117.7 37.0001 120.3 36.8001 120.3 37.0001C120.4 37.2001 120.1 37.7001 120.1 37.7001L117.8 37.5001Z" fill="#EBFFFD"/>
<path d="M119.3 32.6003C119.3 32.6003 120.1 32.4003 120.7 32.8003C121.3 33.2003 120.8 34.2003 120.9 34.6003C121 35.1003 121.1 35.0003 121.1 35.6003C121.1 36.2003 120.2 36.0003 120.1 36.7003C120 37.4003 120.4 37.4003 120.3 37.8003C120.2 38.3003 119.5 38.0003 119.7 38.6003C119.9 39.2003 120.5 39.2003 120.7 39.5003C120.9 39.8003 120.4 40.3003 120.4 40.3003C120.4 40.3003 118.3 39.1003 118.3 38.4003C118.3 37.7003 119 35.1003 119 34.9003C118.9 34.9003 119.3 32.6003 119.3 32.6003Z" fill="#3F2510"/>
<path d="M115.6 41.9C115.8 42 120.7 37.8 120.7 37.8C120.7 37.8 120.3 37.3 120.2 36.6C120 35.9 120.7 35 120.7 35C120.7 35 117.8 34.6 118 35.3C118.2 36 117.9 37.6 117.9 37.6C117.9 37.6 115.1 41.6 115.6 41.9Z" fill="#F4AB92"/>
<path d="M120.2 74.2003C120.1 72.8003 120.5 69.1003 120.5 67.8003C120.5 66.2003 119.7 63.6003 119.6 62.9003C119.5 62.2003 119.4 52.0003 119.4 52.0003L115.3 51.8003C115.4 52.1003 116.4 60.2003 116.6 62.2003C116.8 63.8003 118.5 71.4003 118.8 74.1003C118.9 74.9003 118.9 75.6003 117 77.1003C116.5 77.5003 116.3 77.6003 116.3 77.7003C116.3 77.8003 117.9 77.7003 118 77.6003C118.1 77.5003 119.3 76.7003 119.6 76.6003C119.9 76.6003 120.5 76.4003 120.5 75.8003C120.5 75.4003 120.2 74.3003 120.2 74.2003Z" fill="#F4AB92"/>
<path d="M127.3 74.5C127.3 74.5 126.8 74.7 126.8 74.6C126.8 74.5 126.5 74 126.5 74L126.7 73.5L127.3 74.5Z" fill="#161C2C"/>
<path d="M126.7 72.9004L127.4 74.1004V74.5004C127.4 74.5004 126.8 73.9004 126.8 73.8004C126.7 73.8004 126.7 72.9004 126.7 72.9004Z" fill="#333846"/>
<path d="M120.4 75.2002C120.4 75.2002 120.3 75.6002 119.2 76.3002C118.7 76.6002 117.9 77.3002 117.6 77.4002C117.3 77.5002 116.9 77.2002 117.1 77.1002C117.1 77.1002 116.2 77.7002 116.1 77.8002C116 77.9002 116.1 78.1002 116.1 78.1002C116.1 78.1002 117 78.3002 118.1 78.0002C118.3 78.0002 119.2 76.9002 119.5 76.8002C119.8 76.7002 119.9 78.0002 119.9 78.0002H120.2C120.2 78.0002 120.6 76.0002 120.6 75.7002C120.6 75.5002 120.4 75.2002 120.4 75.2002Z" fill="#6CC8C1"/>
<path d="M126.1 72.4004C126.1 72.4004 126.6 72.6004 126.8 73.1004C126.9 73.4004 126.9 73.8004 126.9 74.4004C126.9 74.9004 127.3 76.1004 127.2 76.4004C127.1 76.9004 125.9 77.8004 125.7 77.7004C125.5 77.6004 125.6 76.2004 125.6 75.7004C125.6 75.3004 125.4 73.7004 125.4 73.6004C125.3 73.6004 126.1 72.4004 126.1 72.4004Z" fill="#6CC8C1"/>
<path d="M115.6 53.0002C115.6 53.0002 118 63.2002 118.2 63.7002C118.6 64.6002 119.6 65.9002 121.3 68.0002C123.7 70.8002 124.6 72.2002 124.6 72.2002C125.7 74.1002 125.5 76.8002 125.9 76.7002C126.2 76.7002 126.7 76.2002 126.7 75.7002C126.7 75.1002 126.3 73.0002 126.3 72.8002C126.3 72.6002 126 72.2002 126 72.2002C126 72.2002 124.3 67.4002 123.4 65.7002C122.6 64.2002 121.5 63.4002 121.1 62.5002C120.7 61.7002 120.8 53.6002 120.8 52.6002C120.9 51.8002 115.6 53.0002 115.6 53.0002Z" fill="#FCBDA4"/>
<path d="M120.7 37.8001C120.7 37.8001 121.9 39.4001 121.9 40.2001C121.9 41.0001 119.6 45.3001 119.5 46.8001C119.5 48.3001 120.7 49.7001 121.5 51.9001C122.3 54.2001 123.1 62.0001 123.1 62.0001C123.1 62.0001 120.1 63.0001 117.7 63.1001C115.3 63.2001 113.7 62.1001 113.7 62.1001C113.7 62.1001 115.1 49.9001 115.2 48.6001C115.3 47.3001 114.8 41.8001 114.9 41.3001C115 40.6001 116.8 38.0001 117 37.8001C117.2 37.6001 117.6 37.6001 117.6 37.6001C117.6 37.6001 116 40.6001 116.1 40.8001C116.2 41.0001 118.5 38.3001 118.5 38.3001L120.7 37.8001Z" fill="#6CC8C1"/>
<path d="M118.7 48.3003C118.7 48.3003 118.7 50.8003 118.7 52.7003C118.7 54.6003 119.4 60.0003 119.2 60.3003C118.1 61.8003 114.3 60.8003 113.9 60.4003C113.5 60.0003 115.2 49.1003 115.2 49.1003L118.7 48.3003Z" fill="#EBFFFD"/>
<path d="M118.8 41.3003C118.8 41.3003 115.9 45.5003 115.8 45.6003C115.7 45.7003 111 45.7003 110.4 45.7003C110.4 45.7003 110.2 45.6003 109.9 45.6003C109.6 45.6003 107.9 45.6003 107.9 45.6003C107.8 45.6003 107.8 45.3003 107.8 45.2003C107.8 45.1003 107.7 44.9003 107.7 44.9003L107.6 45.6003C107.6 45.7003 108.3 46.3003 108.6 46.3003C108.9 46.4003 110.3 46.3003 110.3 46.3003C110.3 46.3003 116.3 47.2003 116.6 47.1003C116.9 47.0003 120 43.8003 120.4 42.7003C120.7 41.7003 118.8 41.3003 118.8 41.3003Z" fill="url(#paint2_linear)"/>
<path d="M121.5 39.1001C121.2 38.9001 120.1 39.1001 119.7 39.6001C119.3 40.2001 118.3 41.9001 118.3 41.9001C118.3 41.9001 119 42.2001 119.3 42.5001C119.6 42.8001 120 43.5001 120 43.5001C120 43.5001 121.5 41.4001 121.8 41.0001C122.1 40.5001 122 39.5001 121.5 39.1001Z" fill="#EBFFFD"/>
<path d="M118.7 38.2C118.7 38.2 118.8 37.7 118.9 37.6C119 37.5 119.2 37.6 119.8 37.4C120.3 37.2 120.5 37 120.5 37L120.8 37.8C120.7 37.9 119.7 38.4 118.7 38.2Z" fill="#EBFFFD"/>
<path d="M120.9 34.3002C120.7 35.6002 119.4 36.4002 118.9 36.3002C118.3 36.2002 117.5 35.0002 117.7 33.7002C117.9 32.4002 118.7 31.9002 119.6 32.1002C120.5 32.3002 121.1 33.1002 120.9 34.3002Z" fill="#FCBDA4"/>
<path d="M117.6 33.9002C117.6 33.8002 117.3 33.1002 117.9 32.2002C118.3 31.6002 119 31.3002 119.8 31.5002C120.7 31.7002 121 32.2002 121.2 32.9002C121.4 33.7002 120.8 34.4002 120.8 34.4002C120.8 34.4002 120.7 33.3002 120.5 32.9002C120.3 32.6002 119 32.4002 118.6 32.4002C117.8 32.7002 117.6 33.9002 117.6 33.9002Z" fill="#543518"/>
<path d="M120.8 34.3C120.8 34.3 121 34 121.2 34.1C121.4 34.2 121.1 34.9 120.9 35C120.7 35.2 120.5 35.3 120.5 35.3C120.5 35.2 120.8 34.3 120.8 34.3Z" fill="#FCBDA4"/>
<path d="M118.2 42.0002L118.7 41.2002C118.8 41.2002 119.5 41.6002 119.6 41.8002C119.7 42.0002 119.6 42.3002 119.6 42.3002C119.6 42.3002 119.7 42.2002 120 42.2002C120.2 42.2002 120.7 42.7002 120.7 42.7002L120 43.6002C120 43.6002 119.6 43.1002 119.2 42.8002C118.8 42.5002 118.2 42.0002 118.2 42.0002Z" fill="#EBFFFD"/>
<path d="M119.6 47.4004C119.6 47.4004 118.7 47.9004 117.4 48.0004C116.1 48.2004 115.4 48.0004 115.4 48.0004L115.3 49.1004C115.3 49.1004 116.2 49.2004 117.5 49.0004C118.8 48.9004 119.9 48.2004 119.9 48.2004L119.6 47.4004Z" fill="#EBFFFD"/>
<path d="M113.9 41.4004C113.5 41.7004 112.2 41.6004 110.6 41.6004C109.1 41.6004 108.1 41.7004 107.7 41.4004C107.3 41.0004 107.4 39.8004 107.9 39.6004C108.2 39.4004 109.5 39.4004 111.1 39.4004C112.4 39.4004 113.7 39.5004 113.9 39.7004C114.3 40.1004 114.3 41.0004 113.9 41.4004Z" fill="#3D576B"/>
<path d="M114.7 43.8002C114.3 44.1002 112.9 43.7002 111.3 43.7002C109.6 43.7002 108.2 44.1002 107.9 43.8002C107.5 43.4002 107.4 41.8002 107.9 41.5002C108.2 41.3002 110 41.4002 111.7 41.5002C113.1 41.5002 114.5 41.4002 114.7 41.5002C115.2 42.0002 115.2 43.5002 114.7 43.8002Z" fill="#E8CF4F"/>
<path d="M115 42.0001C115 42.0001 113.2 42.0001 111.5 42.0001C109.9 42.0001 108.3 41.9001 108.3 42.1001C108.2 42.8001 114.8 41.9001 115.1 42.3001L115 42.0001Z" fill="url(#paint3_linear)"/>
<path d="M114.2 40.7002C114.2 40.7002 114.1 41.1002 113.3 41.0002C111 40.8002 108.1 40.8002 108.1 41.0002C108.1 41.3002 113.5 41.6002 114 41.3002C114.1 41.2002 114.2 40.7002 114.2 40.7002Z" fill="url(#paint4_linear)"/>
<path d="M107.6 39.9004C107.6 39.9004 108 39.7004 108.7 39.7004C110.4 39.6004 113.2 39.7004 113.3 39.9004C113.5 40.6004 110.4 39.9004 108.7 39.9004C107.9 39.9004 107.5 40.2004 107.5 40.2004L107.6 39.9004Z" fill="url(#paint5_linear)"/>
<path d="M107.6 42.8003C107.6 42.8003 107.9 43.1003 109.5 43.1003C111.4 43.2003 114.5 43.0003 114.5 43.0003C114.4 44.1003 107.9 44.6003 107.6 43.2003C107.6 43.1003 107.6 42.8003 107.6 42.8003Z" fill="url(#paint6_linear)"/>
<path d="M114.5 45.7001C114.2 45.9001 112.3 45.7001 110.3 45.7001C108.5 45.7001 108 46.0001 107.8 45.6001C107.5 45.0001 107.2 44.1001 107.9 43.8001C108.7 43.5001 110.3 43.7001 111.7 43.7001C113.1 43.7001 114.3 43.5001 114.5 43.8001C114.8 44.2001 114.9 45.4001 114.5 45.7001Z" fill="#FFDD00"/>
<path d="M114.7 44.3004C114.7 44.3004 112.9 44.3004 111.1 44.3004C109.5 44.3004 107.8 43.7004 107.9 44.4004C108 44.9004 109.2 44.5004 110.7 44.5004C112.6 44.5004 114.7 44.6004 114.7 44.6004V44.3004Z" fill="url(#paint7_linear)"/>
<path d="M107.6 45.0004C107.7 45.3004 108.6 44.9004 110.8 44.9004C112.6 44.9004 114.5 45.1004 114.5 45.2004C114.4 45.6004 112.7 45.5004 111 45.4004C107.6 45.1004 107.7 45.6004 107.7 45.6004L107.6 45.0004Z" fill="url(#paint8_linear)"/>
<path d="M119.5 34.1001C119.5 34.3001 119.4 34.5001 119.6 34.6001C119.4 34.5001 119.5 34.3001 119.5 34.1001Z" fill="#75271A"/>
<path d="M119.7 34C120 34 119.9 34.6 119.6 34.5C119.4 34.5 119.5 34 119.7 34Z" fill="#543518"/>
<path d="M118.6 34C118.6 34.2 118.5 34.4 118.3 34.4C118.5 34.4 118.6 34.1 118.6 34Z" fill="#75271A"/>
<path d="M118.5 33.7998C118.2 33.6998 118.1 34.1998 118.3 34.2998C118.6 34.2998 118.7 33.7998 118.5 33.7998Z" fill="#543518"/>
<path d="M120 33.7999C119.9 33.7999 119.9 33.6999 119.8 33.6999C119.7 33.6999 119.7 33.5999 119.6 33.4999V33.3999C119.7 33.2999 119.8 33.3999 119.9 33.3999C120 33.4999 120.1 33.4999 120.1 33.5999C120.2 33.7999 120.1 33.8999 120 33.7999Z" fill="#543518"/>
<path d="M118.4 33.5002C118.5 33.5002 118.5 33.5002 118.6 33.5002C118.7 33.5002 118.8 33.5002 118.8 33.4002V33.3002C118.7 33.2002 118.6 33.2002 118.5 33.2002C118.4 33.2002 118.3 33.2002 118.2 33.3002C118.2 33.3002 118.3 33.5002 118.4 33.5002Z" fill="#543518"/>
<path d="M118.9 34.9999H118.6C118.7 34.5999 118.8 34.1999 119.1 33.8999C119 34.2999 118.8 34.5999 118.7 34.9999C118.8 34.9999 118.9 34.9999 119 34.9999" fill="#543518"/>
<path d="M119 35.7002C118.9 35.7002 118.9 35.8002 118.8 35.8002C118.7 35.8002 118.7 35.8002 118.6 35.7002C118.6 35.8002 118.7 35.8002 118.8 35.8002C119 35.8002 119 35.7002 119 35.7002C119 35.6002 119.1 35.7002 119 35.7002Z" fill="#75271A"/>
<path d="M118.5 35.2002C118.5 35.2002 118.5 35.4002 118.6 35.6002C118.6 35.7002 118.7 35.7002 118.8 35.7002C119 35.7002 119 35.6002 119.1 35.5002C119.1 35.4002 119.1 35.3002 119.1 35.3002C119.1 35.3002 118.9 35.3002 118.5 35.2002Z" fill="#75271A"/>
<path d="M118.6 35.5004C118.6 35.6004 118.7 35.6004 118.8 35.6004C119 35.6004 119.1 35.6004 119.2 35.4004C119 35.4004 118.7 35.4004 118.6 35.5004Z" fill="#FF98B9"/>
<path d="M96.4 26.3996C96.8971 26.3996 97.3 25.9967 97.3 25.4996C97.3 25.0026 96.8971 24.5996 96.4 24.5996C95.9029 24.5996 95.5 25.0026 95.5 25.4996C95.5 25.9967 95.9029 26.3996 96.4 26.3996Z" fill="url(#paint9_linear)"/>
<path opacity="0.19" d="M65.4 43.2C61.9 43.5 58.8001 43.2 55.3001 42.9C54.8001 38.7 54.7 34.7 55 30.4C56.4 29.2 58 28.1 59.7 27.5C60.1 27.5 60.3 27.6 60.7 27.5C62.4 28.3 64 29.1 65.4 30.3C65.8 34.5 66 39.2 65.4 43.2Z" fill="#6CC8C1"/>
<path d="M60.4001 30.4C61.1001 30.1 61.7001 29.5 62.2001 28.8C61.6001 28.8 61.0001 28.8 60.5001 28.8C59.8001 28.8 59.0001 28.8 58.4001 28.5C58.7001 29.5 59.5001 30.1 60.4001 30.4Z" fill="#F19679"/>
<path d="M60.4001 27.7999C60.4001 27.4999 60.6001 27.0999 60.9001 26.8999C61.2001 26.6999 61.5001 26.4999 61.7001 26.1999C61.9001 25.7999 61.9001 25.3999 61.7001 25.0999C61.5001 24.7999 61.1001 24.4999 60.7001 24.4999C60.4001 24.3999 60.0001 24.4999 59.7001 24.5999C59.4001 24.7999 59.2001 25.0999 59.1001 25.3999C59.1001 25.6999 59.2001 26.1999 59.6001 26.2999C59.7001 26.2999 59.7001 26.2999 59.7001 26.2999C59.8001 26.1999 59.6001 25.9999 59.6001 25.7999C59.6001 25.5999 59.6001 25.3999 59.7001 25.2999C59.9001 24.9999 60.3001 24.9999 60.6001 25.1999C60.9001 25.3999 61.0001 25.7999 60.9001 26.0999C60.8001 26.3999 60.5001 26.6999 60.3001 26.9999C60.1001 27.2999 59.9001 27.5999 59.9001 27.8999C60.1001 27.7999 60.2001 27.7999 60.4001 27.7999Z" fill="#363347"/>
<path d="M58 28.9001L60.2 27.6001L62.4 28.8001L62.2 29.0001L60.2 28.1001L58.2 29.0001L58 28.9001Z" fill="#363347"/>
<path d="M65.3001 39.4C64.8001 39.5 64.3001 39.4 63.8001 39.4C63.7001 39.4 63.7 39.4 63.6 39.4C63.6 40.1 63.6 40.9 63.6 41.6C61.6 41.9 59.4001 41.9 57.4001 41.6C57.4001 41 57.4001 40.2 57.3001 39.7C57.2001 39.7 57.2001 39.7 57.1001 39.7C56.5001 39.7 55.8 39.6 55.2 39.5C55 36.6 55 33.6 55.2 30.6C56.1 29.7 57.1 29 58.2 28.5C58.7 29.1 59.3001 29.6 59.9001 30.1C60.7001 29.8 61.5001 29.3 62.0001 28.6C63.1001 29 64.0001 29.6 64.8001 30.4C65.3001 33.4 65.4001 36.5 65.3001 39.4Z" fill="url(#paint10_linear)"/>
<path d="M58.0002 29.0996C58.1002 29.9996 58.5002 30.8996 59.0002 31.5996C59.3002 31.1996 59.7002 30.7996 60.1002 30.3996C60.6002 30.6996 60.9002 31.0996 61.3002 31.4996C61.7002 30.6996 62.1002 29.9996 62.4002 29.0996C62.2002 29.9996 61.9002 30.8996 61.4002 31.6996C61.1002 31.2996 60.6002 30.8996 60.2002 30.4996C59.8002 30.9996 59.4002 31.3996 59.0002 31.8996C58.3002 31.0996 58.0002 30.0996 58.0002 29.0996ZM57.3002 32.6996C57.2002 34.9996 57.2002 37.2996 57.2002 39.5996C57.2002 39.5996 57.2002 39.6996 57.2002 39.7996C57.3002 39.7996 57.3002 39.7996 57.4002 39.7996C57.6002 37.1996 57.5002 35.0996 57.3002 32.6996ZM63.8002 39.3996C63.7002 37.0996 63.7002 34.7996 63.7002 32.4996C63.6002 34.7996 63.6002 37.0996 63.6002 39.3996C63.7002 39.3996 63.8002 39.3996 63.8002 39.3996ZM60.3002 32.2996C60.2002 35.3996 60.2002 38.5996 60.4002 41.6996C60.5002 38.5996 60.5002 35.3996 60.3002 32.2996Z" fill="#F19679"/>
<path d="M60.2001 31.2998C60.3001 31.2998 60.4001 31.3998 60.4001 31.4998C60.4001 31.5998 60.3001 31.6998 60.2001 31.7998C60.1001 31.7998 59.9001 31.6998 59.9001 31.5998C59.9001 31.3998 60.1001 31.2998 60.2001 31.2998Z" fill="#FCA746"/>
<path d="M65.1002 40.8998C65.1002 37.5998 65.1002 34.1998 65.0002 30.8998C64.8002 31.1998 64.5002 31.4998 64.2002 31.7998C64.3002 31.3998 64.4002 31.0998 64.5002 30.7998C64.1002 30.9998 63.8002 30.9998 63.5002 31.0998C63.9002 30.8998 64.2002 30.5998 64.6002 30.3998C63.4002 29.4998 62.0002 28.7998 60.5002 28.2998C60.5002 28.5998 60.5002 28.7998 60.4002 28.9998C60.3002 28.6998 60.1002 28.4998 60.0002 28.1998C59.8002 28.3998 59.6002 28.6998 59.3002 28.8998C59.4002 28.6998 59.4002 28.4998 59.4002 28.1998C58.1002 28.8998 56.9002 29.7998 55.8002 30.7998C56.0002 30.8998 56.2002 30.9998 56.4002 31.0998C56.1002 31.0998 55.9002 31.0998 55.6002 31.0998C55.7002 31.2998 55.9002 31.5998 56.1002 31.7998C55.8002 31.6998 55.6002 31.4998 55.3002 31.1998C55.1002 32.6998 55.0002 34.0998 54.9002 35.6998C54.8002 33.9998 54.8002 32.3998 54.9002 30.6998C56.3002 29.5998 57.7002 28.3998 59.4002 27.8998C59.8002 27.7998 60.1002 27.8998 60.5002 27.7998C62.1002 28.4998 63.6002 29.3998 65.0002 30.3998C65.6002 33.8998 65.5002 37.3998 65.1002 40.8998Z" fill="#CDBFA1"/>
<path d="M64.4001 35.5998C61.5001 36.0998 58.4001 34.9998 56.6001 32.7998C57.4001 34.1998 58.5001 35.2998 59.9001 35.7998C61.4001 36.2998 62.9001 36.1998 64.4001 35.5998Z" fill="#CDBFA1"/>
<path d="M63.9002 37.2997C61.9002 37.9997 59.6002 37.8997 57.7002 37.1997C58.6002 37.9997 59.5002 38.4997 60.7002 38.4997C61.8002 38.3997 63.0002 37.9997 63.9002 37.2997Z" fill="#CDBFA1"/>
<path d="M57.5 41.5999C59.2 37.1999 59.9 33.3999 61.3 28.8999C62.5 29.1999 63.6 29.9999 64.7 30.6999C63.5 34.8999 62.5 37.8999 60.5 41.7999" fill="url(#paint11_linear)"/>
<path opacity="0.19" d="M76.5002 50.4001C73.7002 50.7001 70.8002 50.7001 68.0002 50.4001C66.7002 43.7001 66.3002 37.0001 66.7002 30.2001C68.1002 29.1001 69.8002 28.2001 71.5002 27.7001C71.8002 27.6001 71.9002 27.6001 72.2002 27.6001C73.8002 28.0001 75.7002 29.4001 77.3002 30.6001C77.8002 37.1001 77.5002 43.9001 76.5002 50.4001Z" fill="#6CC8C1"/>
<path d="M72.0003 32.7C72.9003 31.4 73.5003 30 74.0003 28.5C72.7003 28.6 71.4003 28.5 70.1003 28.5C70.4003 29.3 70.6003 30.3 71.0003 31.1C71.2003 31.7 71.5003 32.3 72.0003 32.7Z" fill="#C1A435"/>
<path d="M72.1003 27.7999C72.1003 27.4999 72.3003 27.0999 72.6003 26.8999C72.9003 26.6999 73.2003 26.4999 73.4003 26.1999C73.6003 25.7999 73.6003 25.3999 73.4003 25.0999C73.2003 24.7999 72.8003 24.4999 72.4003 24.4999C72.1003 24.3999 71.7003 24.4999 71.4003 24.5999C71.1003 24.7999 70.9003 25.0999 70.8003 25.3999C70.8003 25.6999 70.9003 26.1999 71.3003 26.2999C71.4003 26.2999 71.4003 26.2999 71.4003 26.2999C71.5003 26.1999 71.3003 25.9999 71.3003 25.7999C71.3003 25.5999 71.3003 25.3999 71.4003 25.2999C71.6003 24.9999 72.0003 24.9999 72.3003 25.1999C72.6003 25.3999 72.7003 25.7999 72.6003 26.0999C72.5003 26.3999 72.2003 26.6999 72.0003 26.9999C71.8003 27.2999 71.6003 27.5999 71.6003 27.8999C71.8003 27.7999 71.9003 27.7999 72.1003 27.7999Z" fill="#363347"/>
<path d="M69.8003 28.9001L71.9003 27.6001L74.1003 28.8001L73.9003 29.0001L71.9003 28.1001L69.9003 29.0001L69.8003 28.9001Z" fill="#363347"/>
<path d="M77.4002 37.7C77.2002 37.7 77.1002 37.7 76.9002 37.7C77.1002 35.3 77.1002 32.8 76.9002 30.5C75.9002 29.7 75.0002 29.1 73.9002 28.5C73.3002 30 72.6002 31.2 71.9002 32.4C71.2002 31.3 70.5002 30 70.0002 28.5C69.0002 29 68.0002 29.6 67.1002 30.4C67.0002 32.9 66.9002 35.5 67.1002 38C67.0002 38 66.9002 38 66.7002 38.1C66.8002 38.5 66.8002 38.8 66.9002 39.2C67.0002 39.2 67.1002 39.2 67.1002 39.2C67.1002 39.4 67.1002 39.7 67.2002 39.9C67.6002 40 68.0002 40.1 68.4002 40.1C68.5002 40.1 68.5002 40.1 68.6002 40.1C68.8002 42.9 69.0002 45.7 69.2002 48.5C71.2002 48.8 73.0002 49 75.0002 48.7C75.3002 45.8 75.6002 42.9 75.8002 39.9H75.9002C76.2002 39.8 76.5002 39.8 76.8002 39.7C76.8002 39.4 76.9002 39.1 76.9002 38.8C77.0002 38.8 77.1002 38.9 77.3002 38.9C77.3002 38.5 77.4002 38.1 77.4002 37.7Z" fill="#E8CF4F"/>
<path d="M69.7001 32.3997C70.1001 32.2997 70.5001 32.1997 70.9001 32.0997C70.6001 32.3997 70.4001 32.5997 70.1001 32.8997C70.6001 34.3997 71.1001 35.7997 71.6001 37.2997C71.2001 35.7997 70.7001 34.2997 70.2001 32.8997C70.5001 32.5997 70.8001 32.2997 71.0001 31.9997C70.5001 31.9997 70.0001 32.0997 69.6001 32.1997C69.2001 31.3997 68.8001 30.4997 68.4001 29.6997C68.9001 30.5997 69.2001 31.4997 69.7001 32.3997Z" fill="#C1A435"/>
<path d="M74.4003 32.3997C74.0003 32.2997 73.6003 32.1997 73.2003 32.0997C73.4003 32.3997 73.7003 32.5997 74.0003 32.8997C73.4003 34.3997 72.9003 35.7997 72.3003 37.2997C72.7003 35.7997 73.3003 34.2997 73.9003 32.8997C73.6003 32.5997 73.4003 32.2997 73.1003 31.9997C73.6003 31.9997 74.1003 32.0997 74.5003 32.1997C74.9003 31.3997 75.4003 30.4997 75.8003 29.6997C75.3003 30.5997 74.9003 31.4997 74.4003 32.3997Z" fill="#C1A435"/>
<path d="M72.3001 48.5C72.0001 43.3 71.9001 38.2 71.9001 33C72.1001 38.2 72.2001 43.4 72.3001 48.5Z" fill="#C1A435"/>
<path d="M68.6002 40.2001C68.5002 40.2001 68.5002 40.2001 68.4002 40.2001C68.3002 37.4001 68.3002 34.5001 68.4002 31.6001C68.5002 34.5001 68.5002 37.3001 68.6002 40.2001Z" fill="#C1A435"/>
<path d="M75.9002 39.9998H75.8002C75.9002 37.5998 75.9002 35.1998 75.7002 32.7998C75.9002 35.0998 76.0002 37.5998 75.9002 39.9998Z" fill="#C1A435"/>
<path d="M68.8003 40.1C69.3003 39.6 69.7003 39.1 70.0003 38.5C70.3003 38.7 70.5003 38.9 70.6003 39.2C70.4003 39 70.3003 38.9 70.1003 38.7C69.7003 39.2 69.2003 39.8 68.8003 40.3C68.9003 40.3 68.8003 40.1 68.8003 40.1Z" fill="#C1A435"/>
<path d="M75.5002 40.1C75.1002 39.6 74.7002 39.1 74.3002 38.5C74.0002 38.7 73.8002 38.9 73.7002 39.2C73.9002 39 74.0002 38.9 74.2002 38.7C74.5002 39.2 75.0002 39.8 75.4002 40.3L75.5002 40.1Z" fill="#C1A435"/>
<path d="M68.0002 39.1998C67.8002 39.1998 67.5002 39.0998 67.3002 39.0998C67.5002 39.0998 67.7002 39.0998 67.9002 39.0998C67.9002 38.6998 67.9002 38.2998 67.8002 37.8998C67.6002 37.8998 67.4002 37.9998 67.2002 37.9998C67.4002 37.8998 67.7002 37.7998 67.9002 37.7998C68.1002 38.1998 68.1002 38.6998 68.0002 39.1998Z" fill="#C1A435"/>
<path d="M76.9003 37.7997C76.7003 37.7997 76.4003 37.7997 76.4003 37.7997C76.4003 38.0997 76.4003 38.2997 76.4003 38.5997C76.5003 38.6997 76.6003 38.6997 76.8003 38.7997C76.6003 38.7997 76.5003 38.6997 76.3003 38.6997C76.3003 38.3997 76.3003 37.9997 76.4003 37.6997C76.5003 37.6997 76.7003 37.6997 76.9003 37.7997Z" fill="#C1A435"/>
<path d="M76.8003 43.9998C77.2003 39.4998 77.3003 34.8998 77.1003 30.4998C75.7003 29.2998 74.1003 28.2998 72.4003 27.7998C72.1003 27.7998 71.9003 27.7998 71.6003 27.8998C69.9003 28.3998 68.3003 29.1998 66.9003 30.3998C66.6003 33.7998 66.6003 37.2998 66.9003 40.6998C66.8003 37.4998 66.9003 34.1998 67.2003 30.8998C67.6003 31.1998 67.9003 31.4998 68.3003 31.8998C68.1003 31.3998 67.8003 31.0998 67.5003 30.6998C67.8003 30.7998 68.1003 30.8998 68.4003 30.8998C68.2003 30.6998 67.9003 30.4998 67.6003 30.2998C68.7003 29.4998 69.8003 28.7998 71.1003 28.2998C71.0003 28.9998 71.0003 29.5998 71.0003 30.2998C71.3003 29.6998 71.4003 28.9998 71.6003 28.2998C71.7003 28.5998 71.9003 28.7998 72.1003 28.9998C72.1003 28.6998 72.2003 28.3998 72.2003 28.0998C72.9003 28.3998 73.5003 28.8998 74.0003 29.4998C73.8003 28.9998 73.5003 28.5998 73.1003 28.1998C74.3003 28.7998 75.4003 29.4998 76.5003 30.2998C76.0003 30.4998 75.5003 30.7998 75.1003 31.0998C75.6003 30.9998 76.0003 30.9998 76.5003 30.8998C76.3003 31.1998 76.1003 31.4998 76.0003 31.7998C76.3003 31.4998 76.5003 31.2998 76.8003 30.9998C77.1003 35.2998 77.2003 39.7998 76.8003 43.9998Z" fill="#CDBFA1"/>
<path d="M75.6001 35C75.1001 35.4 74.7001 36 74.2001 36.4C73.7001 36.8 73.1001 37.2 72.4001 37.5C71.2001 38.1 69.8001 38.5 68.4001 38.4C69.6001 38.1 70.8001 37.8 71.9001 37.2C73.3001 36.7 74.5001 35.9 75.6001 35Z" fill="#CDBFA1"/>
<path d="M75.0001 39.3999C73.3001 41.1999 70.9001 42.1999 68.4001 42.2999C68.9001 42.2999 69.5001 41.9999 70.0001 41.7999C70.6001 41.5999 71.2001 41.3999 71.8001 41.0999C72.9001 40.5999 74.0001 40.0999 75.0001 39.3999Z" fill="#CDBFA1"/>
<path d="M74.5002 46.3997C72.7002 45.9997 71.0002 45.1997 69.5002 44.1997C70.1002 44.9997 70.8002 45.5997 71.7002 45.8997C72.7002 46.2997 73.5002 46.1997 74.5002 46.3997Z" fill="#CDBFA1"/>
<path d="M70.1003 48.3999C73.2003 41.9999 74.7003 37.1999 76.6003 30.2999C75.9003 29.6999 75.1003 29.2999 74.3003 28.8999C72.6003 35.7999 71.4003 41.3999 69.1003 48.1999C69.5003 48.1999 69.8003 48.3999 70.1003 48.3999Z" fill="url(#paint12_linear)"/>
<path opacity="0.19" d="M93.1002 50.4001C90.3002 50.7001 87.4002 50.7001 84.6002 50.4001C83.2002 43.7001 82.7002 37.0001 83.0002 30.2001C84.4002 29.1001 86.1002 28.2001 87.8002 27.7001C88.1002 27.6001 88.2002 27.6001 88.5002 27.6001C90.2002 28.0001 92.1002 29.4001 93.6002 30.6001C94.1002 37.1001 94.0002 43.9001 93.1002 50.4001Z" fill="#6CC8C1"/>
<path d="M85.7001 28.7998C86.3001 29.5998 87.2001 29.9998 88.2001 29.9998C89.1001 29.9998 90.1001 29.5998 90.8001 28.9998L91.2001 29.2998L90.3001 31.6998L86.0001 31.3998L85.4001 28.9998L85.7001 28.7998Z" fill="#DC514A"/>
<path d="M88.2003 27.7999C88.2003 27.4999 88.4003 27.0999 88.7003 26.8999C89.0003 26.6999 89.3003 26.4999 89.5003 26.1999C89.7003 25.7999 89.6003 25.3999 89.4003 25.0999C89.2003 24.7999 88.8003 24.4999 88.4003 24.4999C88.1003 24.3999 87.7003 24.4999 87.4003 24.5999C87.1003 24.7999 86.9003 25.0999 86.8003 25.3999C86.8003 25.6999 87.0003 26.1999 87.3003 26.2999C87.4003 26.2999 87.4003 26.2999 87.4003 26.2999C87.5003 26.1999 87.3003 25.9999 87.3003 25.7999C87.3003 25.5999 87.3003 25.3999 87.4003 25.2999C87.6003 24.9999 88.0003 24.9999 88.3003 25.1999C88.6003 25.3999 88.7003 25.7999 88.6003 26.0999C88.5003 26.3999 88.3003 26.6999 88.0003 26.9999C87.8003 27.2999 87.6003 27.5999 87.6003 27.8999C88.0003 27.7999 88.1003 27.7999 88.2003 27.7999Z" fill="#363347"/>
<path d="M83.3003 30.3001L88.0003 27.6001L93.3003 30.6001L93.1003 30.7001L88.1003 28.1001L83.4003 30.5001L83.3003 30.3001Z" fill="#363347"/>
<path d="M92.4002 30.1997H83.7002V30.2997H92.4002V30.1997Z" fill="#363347"/>
<path d="M92.7001 48.4997C90.1001 49.4997 86.8001 48.8997 84.4001 47.6997C84.4001 43.3997 85.1001 40.3997 86.5001 34.7997C85.7001 33.9997 85.6001 33.0997 85.6001 31.9997C85.6001 31.3997 85.6001 30.8997 85.5001 30.2997C85.4001 29.7997 85.3001 29.2997 85.3001 28.8997C85.5001 28.7997 85.6001 28.7997 85.8001 28.6997C85.8001 29.3997 85.9001 30.0997 86.1001 30.7997C87.4001 31.2997 88.8001 31.2997 90.1001 31.0997C90.4001 30.3997 90.7001 29.5997 90.9001 28.8997C91.0001 28.9997 91.1001 28.9997 91.3001 29.0997C91.3001 29.0997 90.9001 30.3997 90.9001 30.4997C90.8001 30.9997 90.8001 31.4997 90.9001 32.0997C91.1001 33.0997 90.9001 33.8997 90.3001 34.9997C91.9001 40.5997 92.9001 43.9997 92.7001 48.4997Z" fill="#FF7857"/>
<path d="M92.4002 48.5001C89.9002 49.2001 87.0002 48.8001 84.7002 47.5001C84.7002 46.0001 84.9002 44.6001 85.3002 43.1001C85.2002 44.5001 85.0002 46.0001 85.0002 47.3001C85.4002 47.7001 86.0002 47.9001 86.6002 47.8001C86.7002 46.7001 86.8002 45.7001 87.1002 44.6001C87.0002 45.7001 87.0002 46.8001 87.1002 47.9001C88.1002 48.6001 89.5002 48.9001 90.7002 48.6001C90.9002 46.8001 90.9002 44.9001 90.5002 43.1001C90.8002 44.9001 91.0002 46.7001 91.0002 48.5001C91.2002 48.5001 91.8002 48.4001 92.0002 48.3001C92.0002 46.7001 92.0002 45.0001 91.8002 43.4001C92.3002 45.1001 92.5002 46.8001 92.4002 48.5001Z" fill="#DC514A"/>
<path d="M86.8002 34.8999C86.4002 36.0999 86.2002 37.2999 86.2002 38.5999C86.3002 37.3999 86.7002 36.2999 87.1002 35.1999C87.0002 35.8999 87.0002 36.6999 87.0002 37.3999C87.1002 36.5999 87.4002 35.8999 87.6002 35.1999C88.3002 35.1999 89.1002 35.1999 89.8002 35.2999C90.5002 36.4999 91.1002 37.7999 91.4002 39.0999C91.1002 37.5999 90.7002 36.1999 90.0002 34.7999C90.2002 34.4999 90.5002 34.1999 90.6002 33.8999C89.1002 34.2999 87.5002 34.0999 86.2002 33.3999C86.2002 33.9999 86.4002 34.5999 86.8002 34.8999Z" fill="#DC514A"/>
<path d="M93.3001 43.9998C93.6001 39.4998 93.7001 34.8998 93.4001 30.4998C91.9001 29.2998 90.3001 28.2998 88.6001 27.7998C88.3001 27.7998 88.1001 27.7998 87.8001 27.8998C86.1001 28.3998 84.5001 29.1998 83.1001 30.3998C82.9001 33.7998 82.9001 37.2998 83.3001 40.6998C83.2001 37.4998 83.2001 34.1998 83.4001 30.8998C83.8001 31.1998 84.1001 31.4998 84.5001 31.8998C84.3001 31.3998 84.0001 31.0998 83.7001 30.6998C84.0001 30.7998 84.3001 30.8998 84.6001 30.8998C84.4001 30.6998 84.1001 30.4998 83.8001 30.2998C84.9001 29.4998 86.0001 28.7998 87.2001 28.2998C87.1001 28.9998 87.1001 29.5998 87.1001 30.2998C87.4001 29.6998 87.5001 28.9998 87.6001 28.2998C87.7001 28.5998 87.9001 28.7998 88.1001 28.9998C88.1001 28.6998 88.2001 28.3998 88.2001 28.0998C88.9001 28.3998 89.5001 28.8998 90.0001 29.4998C89.8001 28.9998 89.5001 28.5998 89.1001 28.1998C90.3001 28.7998 91.4001 29.4998 92.5001 30.2998C92.0001 30.4998 91.5001 30.7998 91.1001 31.0998C91.6001 30.9998 92.0001 30.9998 92.5001 30.8998C92.3001 31.1998 92.1001 31.4998 92.0001 31.7998C92.3001 31.4998 92.5001 31.2998 92.8001 30.9998C93.4001 35.2998 93.6001 39.7998 93.3001 43.9998Z" fill="#CDBFA1"/>
<path d="M91.9002 35C91.4002 35.4 91.0002 36 90.5002 36.4C90.0002 36.8 89.4002 37.2 88.7002 37.5C87.5002 38.1 86.1002 38.5 84.7002 38.4C85.9002 38.1 87.1002 37.8 88.2002 37.2C89.6002 36.7 90.8002 35.9 91.9002 35Z" fill="#CDBFA1"/>
<path d="M91.4001 39.3999C89.7001 41.1999 87.3001 42.1999 84.9001 42.2999C85.4001 42.2999 86.0001 41.9999 86.5001 41.7999C87.1001 41.5999 87.7001 41.3999 88.3001 41.0999C89.3001 40.5999 90.4001 40.0999 91.4001 39.3999Z" fill="#CDBFA1"/>
<path d="M91.0002 46.3997C89.2002 45.9997 87.5002 45.1997 86.0002 44.1997C86.6002 44.9997 87.3002 45.5997 88.3002 45.8997C89.2002 46.2997 90.0002 46.1997 91.0002 46.3997Z" fill="#CDBFA1"/>
<path opacity="0.12" d="M86.6002 48.4999C89.6002 42.0999 91.0002 37.1999 92.8002 30.2999C92.1002 29.6999 91.3002 29.2999 90.4002 28.8999C88.8002 35.7999 87.6002 41.3999 85.5002 48.1999C85.9002 48.1999 86.3002 48.4999 86.6002 48.4999Z" fill="url(#paint13_linear)"/>
<path d="M96.3002 25.8996H31.7002V25.0996H96.3002C96.9002 25.0996 96.9002 25.8996 96.3002 25.8996Z" fill="#6CC8C1"/>
<path d="M96.6002 25.4997C96.6002 25.2997 96.5002 25.1997 96.4002 25.1997H31.7002V25.4997H96.6002Z" fill="url(#paint14_linear)"/>
<path d="M60.6001 25.0996C60.9001 25.2996 61.0001 25.5996 60.9001 25.8996H61.7001C61.7001 25.5996 61.7001 25.2996 61.6001 25.0996H60.6001Z" fill="#363347"/>
<path d="M72.4001 25.0996C72.7001 25.2996 72.8001 25.5996 72.7001 25.8996H73.5001C73.5001 25.5996 73.5001 25.2996 73.4001 25.0996H72.4001Z" fill="#363347"/>
<path d="M88.5 25.0996C88.8 25.2996 88.9 25.5996 88.8 25.8996H89.6C89.6 25.5996 89.6 25.2996 89.5 25.0996H88.5Z" fill="#363347"/>
<path d="M35.9001 27.1998C35.9001 26.8998 36.1001 26.4998 36.4001 26.2998C36.7001 26.0998 37.0001 25.8998 37.2001 25.5998C37.4001 25.1998 37.4001 24.7998 37.2001 24.4998C37.0001 24.1998 36.6001 23.8998 36.2001 23.8998C35.9001 23.7998 35.5001 23.8998 35.2001 23.9998C34.9001 24.1998 34.7001 24.4998 34.6001 24.7998C34.6001 25.0998 34.7001 25.5998 35.1001 25.6998C35.2001 25.6998 35.2001 25.6998 35.2001 25.6998C35.3001 25.5998 35.1001 25.3998 35.1001 25.1998C35.1001 24.9998 35.1001 24.7998 35.2001 24.6998C35.4001 24.3998 35.8001 24.3998 36.1001 24.5998C36.4001 24.7998 36.5001 25.1998 36.4001 25.4998C36.3001 25.7998 36.0001 26.0998 35.8001 26.3998C35.6001 26.6998 35.4001 26.9998 35.4001 27.2998C35.6001 27.1998 35.7001 27.0998 35.9001 27.1998Z" fill="#363347"/>
<path d="M33.6001 28.1999L35.7001 26.8999L37.9001 28.1999L37.7001 28.2999L35.7001 27.4999L33.7001 28.3999L33.6001 28.1999Z" fill="#363347"/>
<path d="M33.2 28.1L33.7 27.8C34.4 27.6 35.8 27.5 36.9 27.5C36.9 27.5 37.5999 27.8 38.0999 28.1C38.0999 28.1 36.5999 35.7 35.0999 35.7C34.3999 35.7 33.7 33.8 33.2 28.1Z" fill="#1E5BC6"/>
<path d="M38 28.6C37.6 30.2 36.3999 35.7 35.0999 35.7C34.3999 35.7 33.7 33.9001 33.2 28.7001C34 28.1001 37.4 28.3 38 28.6Z" fill="#252C3F"/>
<path d="M31.5 34.9002C31.6 34.3002 31.7 31.9002 31.9 30.2002C32 29.1002 32.3 28.4002 32.3 28.4002H32.4C32.7 28.4002 33 28.3002 33.2 28.3002C33.3 28.3002 33.4 28.2002 33.5 28.2002C33.5 29.8002 33.5 35.2002 33.4 35.8002C33.3 36.5002 32 42.7002 32 42.7002L30 42.5002C30.2 42.5002 31.3 36.0002 31.5 34.9002Z" fill="#1E5BC6"/>
<path opacity="0.32" d="M32.6999 30.8003C32.7999 30.0003 32.9999 29.2003 32.6999 28.5003C32.8999 28.5003 33.0999 28.4003 33.1999 28.4003C33.2999 28.4003 33.3999 28.3003 33.4999 28.3003C33.4999 29.9003 33.4999 35.3003 33.3999 35.9003C33.2999 36.6003 31.9999 42.8003 31.9999 42.8003L30.8999 42.6003C31.2999 42.2003 32.3999 32.3003 32.6999 30.8003Z" fill="#878883"/>
<path d="M36.9001 27.6001C36.9001 27.6001 38.3001 27.9001 39.1001 28.3001C39.1001 28.3001 38.4001 33.3001 38.4001 35.0001C38.4001 36.6001 39.6001 42.3001 39.6001 42.3001C39.6001 42.3001 39.5001 42.7001 37.6001 42.8001C36.1001 42.9001 34.8001 42.0001 34.8001 40.8001C34.8001 37.6001 34.8001 32.7001 34.8001 32.3001C34.7001 31.7001 36.8001 29.6001 36.9001 27.6001Z" fill="#1E5BC6"/>
<path opacity="0.32" d="M36.9001 27.6001C36.9001 27.6001 38.3001 27.9001 39.1001 28.3001C39.1001 28.3001 38.4001 33.3001 38.4001 35.0001C38.4001 36.6001 39.6001 42.3001 39.6001 42.3001C39.6001 42.3001 39.5001 42.7001 37.6001 42.8001C36.1001 42.9001 34.8001 42.0001 34.8001 40.8001C34.8001 37.6001 34.8001 32.7001 34.8001 32.3001C34.7001 31.7001 36.8001 29.6001 36.9001 27.6001Z" fill="#878883"/>
<path opacity="0.55" d="M34.7001 41.2001C34.7001 41.1001 34.7001 41.0001 34.6001 41.0001C34.6001 38.5001 34.6001 34.0001 34.6001 32.2001L34.8001 32.1001V41.5001C34.8001 41.4001 34.8001 41.3001 34.7001 41.2001Z" fill="#6D6E68"/>
<path d="M32.5999 34.7999C32.6999 34.4999 32.3999 28.4999 32.3999 28.4999C32.3999 28.4999 32.8999 28.0999 33.6999 27.8999C33.6999 27.8999 33.6999 27.9999 33.6999 28.2999L34.6999 31.1999V41.0999C34.6999 42.1999 33.2999 42.9999 31.9999 42.4999H31.8999C31.8999 42.3999 32.5999 35.0999 32.5999 34.7999Z" fill="#1E5BC6"/>
<path opacity="0.32" d="M32.5999 34.7999C32.6999 34.4999 32.3999 28.4999 32.3999 28.4999C32.3999 28.4999 32.8999 28.0999 33.6999 27.8999C33.6999 27.8999 33.6999 27.9999 33.6999 28.2999L34.6999 31.1999V41.0999C34.6999 42.1999 33.2999 42.9999 31.9999 42.4999H31.8999C31.8999 42.3999 32.5999 35.0999 32.5999 34.7999Z" fill="#878883"/>
<path d="M37.9 38C37.9 38 38.1 38.5 37.5 38.5C36.9 38.5 36 38.6 35.8 38.5C35.6 38.4 35.6 38 35.7 38H37.9Z" fill="#1E5BC6"/>
<path d="M32.2999 38L33.5999 38.1C33.6999 38.1 33.6 38.4 33.4 38.5C33.3 38.6 32.7 38.6 32.2 38.5C32.2 38.3 32.2999 38.2 32.2999 38Z" fill="#1E5BC6"/>
<path opacity="0.32" d="M37.4999 36.1999C37.1999 34.6999 36.8999 33.0999 37.2999 31.5999C37.5999 30.4999 38.2999 29.6999 38.9999 28.8999C38.7999 30.2999 38.2999 33.6999 38.3999 34.9999C38.3999 36.5999 39.5999 42.2999 39.5999 42.2999C39.5999 42.2999 39.4999 42.6999 37.4999 42.7999C37.3999 42.7999 36.9999 42.7999 37.0999 42.7999C37.9999 40.6999 37.7999 38.1999 37.4999 36.1999Z" fill="#878883"/>
<path opacity="0.32" d="M32.5999 34.8C32.5999 34.8 32.5999 34.7 32.5999 34.8C32.5999 34.7 32.5999 34.7 32.5999 34.7C32.5999 34.7 32.5999 34.7 32.5999 34.6C32.5999 34.6 32.5999 34.6 32.5999 34.5C32.5999 34.5 32.5999 34.5 32.5999 34.4V34.3C32.5999 34.3 32.5999 34.3 32.5999 34.2V34.1V34C32.5999 34 32.5999 34 32.5999 33.9C32.5999 33.8 32.5999 33.6 32.5999 33.4C32.5999 33.3 32.5999 33.3 32.5999 33.2C32.5999 33.1 32.5999 33.1 32.5999 33C32.5999 32.7 32.5999 32.4 32.5999 32C32.7999 33.1 33.2999 34.2 33.1999 35.4C33.0999 36.9 33.0999 38.5 33.0999 40C33.0999 40.8 33.0999 41.6 33.2999 42.3C32.8999 42.4 32.3999 42.4 31.9999 42.3H31.8999C31.8999 42.4 32.5999 35.1 32.5999 34.8Z" fill="#878883"/>
<path d="M33.7001 27.8003C33.9001 28.6003 34.6001 31.0003 35.0001 31.9003C34.9001 32.0003 34.8001 32.2003 34.8001 32.3003C34.2001 31.3003 33.5001 29.9003 33.0001 28.9003L33.3001 28.6003L32.9001 28.5003C32.8001 28.3003 33.7001 27.8003 33.7001 27.8003Z" fill="#1E5BC6"/>
<path d="M34.7 32.0001C34.7 32.0001 36.5 28.7001 36.9 27.6001C37.1 27.6001 37.9 28.4001 37.8 28.6001L37.1 28.8001L37.6 29.0001C36.8 30.2001 35.5 31.6001 34.7 32.5001C34.7 32.5001 34.6 32.2001 34.7 32.0001Z" fill="#1E5BC6"/>
<path d="M34.3001 36.1002C34.4106 36.1002 34.5001 36.0107 34.5001 35.9002C34.5001 35.7897 34.4106 35.7002 34.3001 35.7002C34.1896 35.7002 34.1001 35.7897 34.1001 35.9002C34.1001 36.0107 34.1896 36.1002 34.3001 36.1002Z" fill="#292C3B"/>
<path d="M34.3001 37.4C34.4106 37.4 34.5001 37.3105 34.5001 37.2C34.5001 37.0895 34.4106 37 34.3001 37C34.1896 37 34.1001 37.0895 34.1001 37.2C34.1001 37.3105 34.1896 37.4 34.3001 37.4Z" fill="#292C3B"/>
<path d="M34.3001 34.7999C34.4106 34.7999 34.5001 34.7104 34.5001 34.5999C34.5001 34.4894 34.4106 34.3999 34.3001 34.3999C34.1896 34.3999 34.1001 34.4894 34.1001 34.5999C34.1001 34.7104 34.1896 34.7999 34.3001 34.7999Z" fill="#292C3B"/>
<path d="M34.3001 33.5001C34.4106 33.5001 34.5001 33.4106 34.5001 33.3001C34.5001 33.1896 34.4106 33.1001 34.3001 33.1001C34.1896 33.1001 34.1001 33.1896 34.1001 33.3001C34.1001 33.4106 34.1896 33.5001 34.3001 33.5001Z" fill="#292C3B"/>
<path d="M34.3001 38.7003C34.4106 38.7003 34.5001 38.6107 34.5001 38.5003C34.5001 38.3898 34.4106 38.3003 34.3001 38.3003C34.1896 38.3003 34.1001 38.3898 34.1001 38.5003C34.1001 38.6107 34.1896 38.7003 34.3001 38.7003Z" fill="#292C3B"/>
<path d="M34.3001 40.0001C34.4106 40.0001 34.5001 39.9106 34.5001 39.8001C34.5001 39.6896 34.4106 39.6001 34.3001 39.6001C34.1896 39.6001 34.1001 39.6896 34.1001 39.8001C34.1001 39.9106 34.1896 40.0001 34.3001 40.0001Z" fill="#292C3B"/>
<path d="M38.1 34.3002C38.1 34.3002 37.6 30.7002 37.7 29.7002C37.8 28.7002 38.6 28.2002 39 28.2002C39.4 28.3002 40.7 31.5002 41.1 35.7002C41.5 39.9002 41.6 43.1002 41.6 43.1002C41.6 43.1002 40.4 43.2002 39.2 43.2002C39.2 43.2002 38.6 37.5002 38.5 36.9002C38.5 36.4002 38.1 34.3002 38.1 34.3002Z" fill="#1E5BC6"/>
<path opacity="0.32" d="M38.3001 34.6002C38.4001 36.0002 38.5001 37.1002 38.5001 37.0002C38.4001 36.4002 38.0001 34.3002 38.0001 34.3002C38.0001 34.3002 37.7001 31.6002 37.6001 30.2002C37.8001 30.6002 38.2001 33.6002 38.3001 34.6002Z" fill="#878883"/>
<path opacity="0.19" d="M41.7001 43.7999C38.2001 44.0999 33.1001 43.2999 29.6001 42.9999C29.1001 38.7999 31.0001 33.2999 31.2001 29.0999C32.6001 27.8999 33.4001 27.5999 35.1001 26.8999C35.5001 26.8999 35.7001 26.9999 36.1001 26.8999C37.8001 27.6999 39.4001 27.8999 40.8001 29.1999C41.3001 33.2999 42.3001 39.7999 41.7001 43.7999Z" fill="#6CC8C1"/>
<path d="M40.6001 40.2C40.6001 36.9 40.6001 33.5 40.5001 30.2C40.3001 30.5 40.0001 30.8 39.7001 31.1C39.8001 30.7 39.9001 30.4 40.0001 30.1C39.6001 30.3 39.3001 30.3 39.0001 30.4C39.4001 30.2 39.7001 29.9 40.1001 29.7C38.9001 28.8 37.5001 28.1 36.0001 27.6C36.0001 27.9 36.0001 28.1 35.9001 28.3C35.8001 28 35.6001 27.8 35.5001 27.5C35.3001 27.7 35.1001 28 34.8001 28.2C34.9001 28 34.9001 27.8 34.9001 27.5C33.6001 28.2 32.4001 29.1 31.3001 30.1C31.5001 30.2 31.7001 30.3 31.9001 30.4C31.6001 30.4 31.4001 30.4 31.1001 30.4C31.2001 30.6 31.4001 30.9 31.6001 31.1C31.3001 31 31.6001 32.1 31.4001 31.9C31.2001 33.4 31.0001 33.9 31.0001 35.4C30.9001 33.7 31.2001 30.9 31.3001 29.2C32.7001 28.1 33.3001 27.7 35.0001 27.1C35.4001 27 35.7001 27.1 36.1001 27C37.7001 27.7 39.2001 28.1 40.6001 29.2C41.1001 32.8 41.0001 36.7 40.6001 40.2Z" fill="#CDBFA1"/>
<path d="M45.2 28.5C45.2 28.5 45.2 28.3 45.9 28.2C46.7 28 48.0999 28 49.2999 28C49.7999 28 49.8 28.3 50.4 28.5C50.4 28.5 48.8 35.9 47.2 35.9C46.5 35.8 45.8 34 45.2 28.5Z" fill="url(#paint15_linear)"/>
<path d="M50.4001 28.8999C50.0001 30.4999 48.7 35.8999 47.3 35.7999C46.5 35.7999 45.8 34.0999 45.3 28.9999C46.2 28.4999 49.7001 28.5999 50.4001 28.8999Z" fill="url(#paint16_linear)"/>
<path d="M43.5 35.1001C43.6 34.5001 43.6 32.3001 43.8 30.7001C44 29.4001 44.4 28.8001 44.4 28.8001H44.5C44.8 28.8001 45.1 28.7001 45.4 28.7001C45.5 28.7001 45.6 28.6001 45.7 28.6001C45.7 30.1001 45.7 35.4001 45.6 36.0001C45.5 36.6001 44.2 42.7001 44.2 42.7001L42 42.4001C42 42.4001 43.3 36.1001 43.5 35.1001Z" fill="url(#paint17_linear)"/>
<path opacity="0.32" d="M44.8 31C45 30.2 45.1 29.5 44.8 28.7C45 28.7 45.2 28.6 45.4 28.6C45.5 28.6 45.6 28.5 45.7 28.5C45.7 30 45.7 35.3 45.6 35.9C45.5 36.5 44.2 42.6 44.2 42.6L43 42.5C43.2 42.2 44.4 32.5 44.8 31Z" fill="#878883"/>
<path d="M49.3 27.8999C49.3 27.8999 50.7 28.1999 51.5 28.5999C51.5 28.5999 50.7 33.4999 50.7 35.0999C50.7 36.6999 52 42.1999 52 42.1999C52 42.1999 51.8 42.7999 46.8 42.6999C46.8 42.6999 46.8 31.8999 46.8 31.2999C46.9 30.8999 49.2 29.8999 49.3 27.8999Z" fill="url(#paint18_linear)"/>
<path opacity="0.55" d="M46.9999 32.2998V42.7998H46.8999C46.8999 42.7998 46.8999 34.9998 46.8999 32.4998L46.9999 32.2998Z" fill="#6D6E68"/>
<path d="M44.5999 34.9999C44.6999 34.6999 44.3999 28.7999 44.3999 28.7999C44.3999 28.7999 44.6999 28.4999 45.2999 28.3999C45.3999 28.4999 45.5999 28.4999 45.7999 28.4999L46.8999 31.2999V42.7999C46.8999 42.7999 44.4999 42.5999 43.8999 42.2999C43.8999 42.2999 44.5999 35.1999 44.5999 34.9999Z" fill="url(#paint19_linear)"/>
<path d="M50.3 38.1001C50.3 38.1001 50.5 39.6001 49.9 39.6001C49.3 39.6001 48.3 39.7001 48.1 39.6001C47.9 39.5001 47.9 38.1001 48 38.1001H50.3Z" fill="url(#paint20_linear)"/>
<path d="M44.2999 38.1001H45.7C45.8 38.1001 45.7999 39.4001 45.5999 39.6001C45.4999 39.7001 44.8 39.7001 44.2 39.6001C44.2 39.1001 44.1999 38.6001 44.2999 38.1001Z" fill="url(#paint21_linear)"/>
<path d="M50.3 38.1001C50.3 38.1001 50.5 38.6001 49.9 38.6001C49.3 38.6001 48.3 38.7001 48.1 38.6001C47.9 38.5001 47.9 38.1001 48 38.2001L50.3 38.1001Z" fill="url(#paint22_linear)"/>
<path d="M44.2999 38.1001L45.7 38.2001C45.8 38.2001 45.7 38.5001 45.5 38.6001C45.4 38.7001 44.7 38.7001 44.2 38.6001C44.2 38.4001 44.2999 38.2001 44.2999 38.1001Z" fill="url(#paint23_linear)"/>
<path opacity="0.32" d="M49.7999 36.3001C49.4999 34.9001 49.1999 33.3001 49.5999 31.8001C49.8999 30.8001 50.6 30.0001 51.4 29.1001C51.2 30.4001 50.6999 33.8001 50.6999 35.1001C50.6999 36.7001 52 42.2001 52 42.2001C52 42.2001 51.9 42.6001 49.2 42.7001C50.4 40.8001 50.1999 38.3001 49.7999 36.3001Z" fill="#878883"/>
<path opacity="0.32" d="M45.4001 42.5998C44.8001 42.4998 44.1 42.3998 43.8 42.2998C43.8 42.2998 44.5 35.1998 44.6 34.8998C44.6 34.7998 44.6 33.5998 44.5 32.2998C44.7 33.3998 45.2001 34.4998 45.2001 35.5998C45.1001 37.0998 45.1 38.5998 45.1 40.0998C45.2 40.9998 45.1001 41.7998 45.4001 42.5998Z" fill="#878883"/>
<path d="M46.8 31.1999C46.8 31.1999 48.9 28.8999 49.1 27.8999C49.1 27.8999 50.5 28.0999 50.6 28.1999C50.6 28.2999 50.4 28.6999 50.1 29.2999C49.9 29.6999 49.6 29.8999 49.1 30.0999C49.4 30.1999 49.4001 30.4999 49.2001 30.6999C48.6001 31.2999 47.9 31.9999 46.8 33.2999C46.9 33.2999 46.8 31.2999 46.8 31.1999Z" fill="url(#paint24_linear)"/>
<path opacity="0.55" d="M46.9999 33.0999C46.9999 33.1999 46.8999 33.1999 46.8999 33.2999C46.8999 33.2999 46.8999 31.9999 46.8999 31.3999C46.8999 31.2999 46.8999 31.2999 46.8999 31.1999C46.8999 31.1999 46.8999 31.0999 46.9999 30.9999L47.0999 30.8999L46.9999 33.0999Z" fill="#6D6E68"/>
<path d="M45.7999 30.1001L45.5999 30.0001C45.2999 29.9001 45.2 28.4001 45.2 28.4001C45.2 28.3001 46.0999 28.1001 46.0999 28.1001C46.1999 29.0001 46.9 31.1001 46.9 31.1001C46.9 31.6001 46.9 33.3001 46.9 33.3001C46.6 32.9001 46.1999 32.3001 45.5999 30.7001C45.3999 30.2001 45.7999 30.1001 45.7999 30.1001Z" fill="url(#paint25_linear)"/>
<path d="M46.5 36.1998C46.6105 36.1998 46.7001 36.1103 46.7001 35.9998C46.7001 35.8893 46.6105 35.7998 46.5 35.7998C46.3896 35.7998 46.3 35.8893 46.3 35.9998C46.3 36.1103 46.3896 36.1998 46.5 36.1998Z" fill="url(#paint26_linear)"/>
<path d="M46.5 37.5001C46.6105 37.5001 46.7001 37.4106 46.7001 37.3001C46.7001 37.1896 46.6105 37.1001 46.5 37.1001C46.3896 37.1001 46.3 37.1896 46.3 37.3001C46.3 37.4106 46.3896 37.5001 46.5 37.5001Z" fill="url(#paint27_linear)"/>
<path d="M46.5 35.0001C46.6105 35.0001 46.7001 34.9106 46.7001 34.8001C46.7001 34.6896 46.6105 34.6001 46.5 34.6001C46.3896 34.6001 46.3 34.6896 46.3 34.8001C46.3 34.9106 46.3896 35.0001 46.5 35.0001Z" fill="url(#paint28_linear)"/>
<path d="M46.5 33.6998C46.6105 33.6998 46.7001 33.6103 46.7001 33.4998C46.7001 33.3893 46.6105 33.2998 46.5 33.2998C46.3896 33.2998 46.3 33.3893 46.3 33.4998C46.3 33.6103 46.3896 33.6998 46.5 33.6998Z" fill="url(#paint29_linear)"/>
<path d="M46.5 38.7999C46.6105 38.7999 46.7001 38.7104 46.7001 38.5999C46.7001 38.4894 46.6105 38.3999 46.5 38.3999C46.3896 38.3999 46.3 38.4894 46.3 38.5999C46.3 38.7104 46.3896 38.7999 46.5 38.7999Z" fill="url(#paint30_linear)"/>
<path d="M46.5 40.0997C46.6105 40.0997 46.7001 40.0102 46.7001 39.8997C46.7001 39.7893 46.6105 39.6997 46.5 39.6997C46.3896 39.6997 46.3 39.7893 46.3 39.8997C46.3 40.0102 46.3896 40.0997 46.5 40.0997Z" fill="url(#paint31_linear)"/>
<path d="M50.4999 34.5C50.4999 34.5 49.9999 31 50.0999 30C50.1999 29 51.0999 28.5 51.4999 28.6C51.8999 28.7 53.2999 31.8 53.7999 35.9C54.2999 40 54.2999 43.1 54.2999 43.1C54.2999 43.1 52.9999 43.2 51.6999 43.2C51.6999 43.2 50.9999 37.6 50.8999 37.1C50.8999 36.5 50.4999 34.5 50.4999 34.5Z" fill="url(#paint32_linear)"/>
<path opacity="0.32" d="M50.7 34.8001C50.9 36.1001 50.9 37.2001 50.9 37.1001C50.8 36.6001 50.4 34.5001 50.4 34.5001C50.4 34.5001 50 31.9001 50 30.6001C50.1 30.9001 50.6 33.8001 50.7 34.8001Z" fill="#878883"/>
<path d="M48.3 27.1998C48.3 26.8998 48.5 26.4998 48.8 26.2998C49.1 26.0998 49.4 25.8998 49.6 25.5998C49.8 25.1998 49.8 24.7998 49.6 24.4998C49.4 24.1998 49 23.8998 48.6 23.8998C48.3 23.7998 47.9 23.8998 47.6 23.9998C47.3 24.1998 47.1 24.4998 47 24.7998C47 25.0998 47.1 25.5998 47.5 25.6998C47.6 25.6998 47.6 25.6998 47.6 25.6998C47.7 25.5998 47.5 25.3998 47.5 25.1998C47.5 24.9998 47.5 24.7998 47.6 24.6998C47.8 24.3998 48.2 24.3998 48.5 24.5998C48.8 24.7998 48.9 25.1998 48.8 25.4998C48.7 25.7998 48.4 26.0998 48.2 26.3998C48 26.6998 47.8 26.9998 47.8 27.2998C48 27.1998 48.1 27.1998 48.3 27.1998Z" fill="#363347"/>
<path d="M45.8999 28.3L48.0999 27L50.2999 28.2L50.0999 28.4L48.0999 27.5L46.0999 28.4L45.8999 28.3Z" fill="#363347"/>
<path opacity="0.19" d="M54.5 43.4C51 43.7 45.4 43.4 42 43.1C41.5 38.9 43.4 33.4 43.6 29.2C45 28 45.8 27.7 47.5 27C47.9 27 48.1 27.1 48.5 27C50.2 27.8 51.8 28 53.2 29.3C53.6 33.4 55.2 39.3 54.5 43.4Z" fill="#6CC8C1"/>
<path d="M53 40.2996C53 36.9996 53 33.5996 52.9 30.2996C52.7 30.5996 52.4 30.8996 52.1 31.1996C52.2 30.7996 52.3 30.4996 52.4 30.1996C52 30.3996 51.7 30.3996 51.4 30.4996C51.8 30.2996 52.1 29.9996 52.5 29.7996C51.3 28.8996 49.9 28.1996 48.4 27.6996C48.4 27.9996 48.4 28.1996 48.3 28.3996C48.2 28.0996 48 27.8996 47.9 27.5996C47.7 27.7996 47.5 28.0996 47.2 28.2996C47.3 28.0996 47.3 27.8996 47.3 27.5996C46 28.2996 44.8 29.1996 43.7 30.1996C43.9 30.2996 44.1 30.3996 44.3 30.4996C44 30.4996 43.8 30.4996 43.5 30.4996C43.6 30.6996 43.8 30.9996 44 31.1996C43.7 31.0996 44 32.1996 43.8 31.9996C43.6 33.4996 43.4 33.9996 43.4 35.4996C43.3 33.7996 43.6 30.9996 43.7 29.2996C45.1 28.1996 45.7 27.7996 47.4 27.1996C47.8 27.0996 48.1 27.1996 48.5 27.0996C50.1 27.7996 51.6 28.1996 53 29.2996C53.5 32.7996 53.4 36.7996 53 40.2996Z" fill="#CDBFA1"/>
<defs>
<linearGradient id="paint0_linear" x1="47.7847" y1="50.5031" x2="51.6702" y2="81.8655" gradientUnits="userSpaceOnUse">
<stop stop-color="#FDD8A4"/>
<stop offset="0.4741" stop-color="#77654D"/>
<stop offset="0.8827"/>
</linearGradient>
<linearGradient id="paint1_linear" x1="113.193" y1="41.4266" x2="116.14" y2="46.7572" gradientUnits="userSpaceOnUse">
<stop stop-color="#FF9A6A"/>
<stop offset="0.9923" stop-color="#F17954"/>
</linearGradient>
<linearGradient id="paint2_linear" x1="112.948" y1="42.2336" x2="115.895" y2="47.5642" gradientUnits="userSpaceOnUse">
<stop offset="0.00766284" stop-color="#FFBD95"/>
<stop offset="1" stop-color="#FF9A67"/>
</linearGradient>
<linearGradient id="paint3_linear" x1="108.239" y1="42.0852" x2="114.558" y2="42.0852" gradientUnits="userSpaceOnUse">
<stop offset="0.00383142" stop-color="#F3EDE8"/>
<stop offset="0.4141" stop-color="#F5F1ED"/>
<stop offset="0.8659" stop-color="#FCFBFA"/>
<stop offset="0.9962" stop-color="white"/>
</linearGradient>
<linearGradient id="paint4_linear" x1="108.108" y1="41.008" x2="113.741" y2="41.008" gradientUnits="userSpaceOnUse">
<stop offset="0.003831" stop-color="white"/>
<stop offset="0.1341" stop-color="#FCFBFA"/>
<stop offset="0.5859" stop-color="#F5F1ED"/>
<stop offset="0.9962" stop-color="#F3EDE8"/>
</linearGradient>
<linearGradient id="paint5_linear" x1="113.326" y1="39.9706" x2="107.927" y2="39.9706" gradientUnits="userSpaceOnUse">
<stop offset="0.00383142" stop-color="#F3EDE8"/>
<stop offset="0.5261" stop-color="#FBF9F7"/>
<stop offset="0.9962" stop-color="white"/>
</linearGradient>
<linearGradient id="paint6_linear" x1="114.44" y1="43.4609" x2="108.041" y2="43.4609" gradientUnits="userSpaceOnUse">
<stop offset="0.003831" stop-color="white"/>
<stop offset="0.1341" stop-color="#FCFBFA"/>
<stop offset="0.5859" stop-color="#F5F1ED"/>
<stop offset="0.9962" stop-color="#F3EDE8"/>
</linearGradient>
<linearGradient id="paint7_linear" x1="107.999" y1="44.3395" x2="114.289" y2="44.3395" gradientUnits="userSpaceOnUse">
<stop offset="0.00383142" stop-color="#F3EDE8"/>
<stop offset="0.4141" stop-color="#F5F1ED"/>
<stop offset="0.8659" stop-color="#FCFBFA"/>
<stop offset="0.9962" stop-color="white"/>
</linearGradient>
<linearGradient id="paint8_linear" x1="114.503" y1="45.1931" x2="108.063" y2="45.1931" gradientUnits="userSpaceOnUse">
<stop offset="0.003831" stop-color="white"/>
<stop offset="0.1341" stop-color="#FCFBFA"/>
<stop offset="0.5859" stop-color="#F5F1ED"/>
<stop offset="0.9962" stop-color="#F3EDE8"/>
</linearGradient>
<linearGradient id="paint9_linear" x1="94.9573" y1="26.2756" x2="97.6755" y2="24.8763" gradientUnits="userSpaceOnUse">
<stop stop-color="#C8E8BF"/>
<stop offset="0.1958" stop-color="#A2D1B2"/>
<stop offset="0.4013" stop-color="#81BDA7"/>
<stop offset="0.5134" stop-color="#74B5A3"/>
<stop offset="0.606" stop-color="#7DBAA6"/>
<stop offset="0.754" stop-color="#94C8AE"/>
<stop offset="0.938" stop-color="#BADFBA"/>
<stop offset="1" stop-color="#C8E8BF"/>
</linearGradient>
<linearGradient id="paint10_linear" x1="59.3948" y1="46.6808" x2="60.4438" y2="30.1016" gradientUnits="userSpaceOnUse">
<stop stop-color="#F5BA85"/>
<stop offset="0.6233" stop-color="#FCDDB1"/>
<stop offset="1" stop-color="#FFEFC7"/>
</linearGradient>
<linearGradient id="paint11_linear" x1="63.6671" y1="28.9902" x2="57.342" y2="44.5073" gradientUnits="userSpaceOnUse">
<stop stop-color="#9BA87E"/>
<stop offset="0.7104" stop-color="#1F2119"/>
<stop offset="0.8827"/>
</linearGradient>
<linearGradient id="paint12_linear" x1="76.0556" y1="28.2373" x2="69.6288" y2="48.7922" gradientUnits="userSpaceOnUse">
<stop stop-color="#9BA87E"/>
<stop offset="0.7104" stop-color="#1F2119"/>
<stop offset="0.8827"/>
</linearGradient>
<linearGradient id="paint13_linear" x1="92.2276" y1="28.2365" x2="85.8694" y2="48.6936" gradientUnits="userSpaceOnUse">
<stop stop-color="#9BA87E"/>
<stop offset="0.7104" stop-color="#1F2119"/>
<stop offset="0.8827"/>
</linearGradient>
<linearGradient id="paint14_linear" x1="99.0737" y1="20.8757" x2="35.7302" y2="28.981" gradientUnits="userSpaceOnUse">
<stop stop-color="#87A37F"/>
<stop offset="0.2214" stop-color="#85A07D"/>
<stop offset="0.3789" stop-color="#7D9776"/>
<stop offset="0.5165" stop-color="#708769"/>
<stop offset="0.6427" stop-color="#5E7158"/>
<stop offset="0.7611" stop-color="#465542"/>
<stop offset="0.8738" stop-color="#293127"/>
<stop offset="0.9799" stop-color="#070907"/>
<stop offset="1"/>
</linearGradient>
<linearGradient id="paint15_linear" x1="50.4668" y1="31.8938" x2="45.2178" y2="31.8938" gradientUnits="userSpaceOnUse">
<stop stop-color="#2C2825"/>
<stop offset="1" stop-color="#3D3A37"/>
</linearGradient>
<linearGradient id="paint16_linear" x1="48.0646" y1="33.0043" x2="47.5226" y2="24.0289" gradientUnits="userSpaceOnUse">
<stop stop-color="#2C2825"/>
<stop offset="1" stop-color="#3D3A37"/>
</linearGradient>
<linearGradient id="paint17_linear" x1="43.8502" y1="28.7029" x2="43.8502" y2="43.0219" gradientUnits="userSpaceOnUse">
<stop stop-color="#2C2825"/>
<stop offset="1" stop-color="#3D3A37"/>
</linearGradient>
<linearGradient id="paint18_linear" x1="49.4058" y1="28.7027" x2="49.4058" y2="43.0217" gradientUnits="userSpaceOnUse">
<stop stop-color="#2C2825"/>
<stop offset="1" stop-color="#3D3A37"/>
</linearGradient>
<linearGradient id="paint19_linear" x1="45.3626" y1="28.7027" x2="45.3626" y2="43.0218" gradientUnits="userSpaceOnUse">
<stop stop-color="#2C2825"/>
<stop offset="1" stop-color="#3D3A37"/>
</linearGradient>
<linearGradient id="paint20_linear" x1="49.107" y1="38.1908" x2="49.107" y2="39.8423" gradientUnits="userSpaceOnUse">
<stop stop-color="#2C2825"/>
<stop offset="0.2251" stop-color="#2F2B28"/>
<stop offset="0.412" stop-color="#393633"/>
<stop offset="0.4652" stop-color="#3D3A37"/>
</linearGradient>
<linearGradient id="paint21_linear" x1="44.9355" y1="38.2098" x2="44.9355" y2="39.8397" gradientUnits="userSpaceOnUse">
<stop stop-color="#2C2825"/>
<stop offset="0.2251" stop-color="#2F2B28"/>
<stop offset="0.412" stop-color="#393633"/>
<stop offset="0.4652" stop-color="#3D3A37"/>
</linearGradient>
<linearGradient id="paint22_linear" x1="49.107" y1="37.0211" x2="49.107" y2="39.0485" gradientUnits="userSpaceOnUse">
<stop stop-color="#44413E"/>
<stop offset="1" stop-color="#3D3A37"/>
</linearGradient>
<linearGradient id="paint23_linear" x1="44.9739" y1="37.0211" x2="44.9739" y2="39.0485" gradientUnits="userSpaceOnUse">
<stop stop-color="#44413E"/>
<stop offset="1" stop-color="#3D3A37"/>
</linearGradient>
<linearGradient id="paint24_linear" x1="48.7296" y1="28.5006" x2="48.7296" y2="33.2711" gradientUnits="userSpaceOnUse">
<stop stop-color="#44413E"/>
<stop offset="1" stop-color="#3D3A37"/>
</linearGradient>
<linearGradient id="paint25_linear" x1="46.0434" y1="28.5008" x2="46.0434" y2="33.2713" gradientUnits="userSpaceOnUse">
<stop stop-color="#44413E"/>
<stop offset="1" stop-color="#3D3A37"/>
</linearGradient>
<linearGradient id="paint26_linear" x1="46.4577" y1="35.8267" x2="46.4577" y2="36.2626" gradientUnits="userSpaceOnUse">
<stop stop-color="#44413E"/>
<stop offset="1" stop-color="#3D3A37"/>
</linearGradient>
<linearGradient id="paint27_linear" x1="46.4577" y1="37.1" x2="46.4577" y2="37.5359" gradientUnits="userSpaceOnUse">
<stop stop-color="#44413E"/>
<stop offset="1" stop-color="#3D3A37"/>
</linearGradient>
<linearGradient id="paint28_linear" x1="46.4577" y1="34.5526" x2="46.4577" y2="34.9886" gradientUnits="userSpaceOnUse">
<stop stop-color="#44413E"/>
<stop offset="1" stop-color="#3D3A37"/>
</linearGradient>
<linearGradient id="paint29_linear" x1="46.4577" y1="33.2779" x2="46.4577" y2="33.7139" gradientUnits="userSpaceOnUse">
<stop stop-color="#44413E"/>
<stop offset="1" stop-color="#3D3A37"/>
</linearGradient>
<linearGradient id="paint30_linear" x1="46.4577" y1="38.3728" x2="46.4577" y2="38.8087" gradientUnits="userSpaceOnUse">
<stop stop-color="#44413E"/>
<stop offset="1" stop-color="#3D3A37"/>
</linearGradient>
<linearGradient id="paint31_linear" x1="46.4577" y1="39.6456" x2="46.4577" y2="40.0815" gradientUnits="userSpaceOnUse">
<stop stop-color="#44413E"/>
<stop offset="1" stop-color="#3D3A37"/>
</linearGradient>
<linearGradient id="paint32_linear" x1="52.1918" y1="28.7028" x2="52.1918" y2="43.0218" gradientUnits="userSpaceOnUse">
<stop stop-color="#2C2825"/>
<stop offset="1" stop-color="#3D3A37"/>
</linearGradient>
</defs>
</svg>
