<svg xmlns="http://www.w3.org/2000/svg" viewBox="0 0 37 37" width="37" height="37">
	<style>
		tspan { white-space:pre }
		.shp0 { fill: #13b0a7 } 
		.shp1 { opacity: 0.702;fill: #ffffff } 
	</style>
	<g id="Payment Details">
		<g id="Details">
			<g id="Shipping Details">
				<g id="02">
					<g id="icon">
						<path id="Ellipse 6" class="shp0" d="M18.5 0C28.72 0 37 8.28 37 18.5C37 28.72 28.72 37 18.5 37C8.28 37 0 28.72 0 18.5C0 8.28 8.28 0 18.5 0Z" />
						<path id="Forma 1" class="shp1" d="M25.36 9.37C23.66 7.68 21.4 6.75 19 6.75C16.6 6.75 14.34 7.68 12.64 9.37C9.49 12.49 9.1 18.36 11.79 21.92L19 32.25L26.2 21.93C28.9 18.36 28.51 12.49 25.36 9.37ZM19.08 18.86C17.27 18.86 15.8 17.39 15.8 15.6C15.8 13.8 17.27 12.34 19.08 12.34C20.89 12.34 22.37 13.8 22.37 15.6C22.37 17.39 20.89 18.86 19.08 18.86Z" />
					</g>
				</g>
			</g>
		</g>
	</g>
</svg>