<svg width="191" height="94" viewBox="0 0 191 94" fill="none" xmlns="http://www.w3.org/2000/svg">
<path d="M187.372 94H8.32118C-7.94713 78.4077 2.63226 56.4003 14.6089 53.7274C26.5856 51.0544 23.292 0.268154 79.9816 0.000857919C100.043 -0.0882408 115.413 6.77236 127.689 16.0386C130.483 18.0879 133.078 20.3154 135.474 22.5428C135.773 22.8101 136.072 23.0774 136.372 23.4338C153.638 39.5607 164.118 58.9842 174.198 63.6173C192.363 71.8144 187.372 94 187.372 94Z" fill="#FAFFFF"/>
<path d="M108.3 51.2003L109.3 53.1003C109.3 53.1003 109.6 53.2003 110.2 52.8003C110.8 52.4003 110.8 51.7003 110.8 51.7003L109.4 49.8003L108.3 51.2003Z" fill="#F9BB6E"/>
<path d="M108.9 52.3001C108.9 52.3001 109.3 52.0001 109.6 51.4001C109.9 50.8001 109.8 50.3001 109.8 50.3001L109.6 50.1001L108.6 51.9001L108.9 52.3001Z" fill="#EF8E4D"/>
<path d="M112.9 70.3003C112.9 70.3003 114.7 74.8003 115.3 76.4003C117.6 80.9003 118.8 88.6003 118.8 88.6003L118.5 91.3003L118 91.7003L119.4 91.6003L120.2 88.4003L119.9 83.9003C119.7 81.1003 119.1 78.3003 118 75.7003L117.1 69.8003L112.9 70.3003Z" fill="#F9BB6E"/>
<path d="M117.8 75.6002L115.3 76.6002L114.3 73.7002L117.4 73.2002L117.8 75.6002Z" fill="#EF8E4D"/>
<path d="M112 65.7002C112 65.7002 110.7 72.7002 110.1 75.4002C109.6 79.2002 107 88.9002 107 88.9002L106.6 92.2002L106.1 92.6002L107.5 92.5002L108.3 89.3002L111.2 82.9002C111.8 81.7002 112.1 80.8002 112.5 79.1002L112.9 76.3002L115.7 70.9002L112 65.7002Z" fill="#F9BB6E"/>
<path d="M110.4 73.7002C110.4 73.7002 111.8 74.0002 112.4 74.7002C112.8 75.3002 112.7 76.2002 112.7 76.2002L114 73.6002L110.6 72.7002L110.4 73.7002Z" fill="#EF8E4D"/>
<path d="M117.4 70.2002C117.3 69.3002 117.8 67.9002 118 65.8002C118.2 63.7002 116.1 61.9002 116 60.7002C114.6 61.0002 113.3 61.4002 111.9 61.8002C112 62.9002 112.2 63.9002 112.1 64.9002C112 66.5002 109.6 73.3002 109.6 73.3002C109.6 73.3002 112.7 74.4002 114.5 74.6002C116.3 74.8002 118.2 74.1002 118.2 74.1002C118.2 74.1002 117.5 71.2002 117.4 70.2002Z" fill="#63BAB1"/>
<path d="M108.1 89.3003L107.3 92.5003L105.7 92.6003C105.7 92.6003 105.5 92.7003 105.6 93.0003C105.6 93.3003 105.8 93.2003 106.6 93.2003C107.4 93.2003 107.7 93.1003 107.7 93.1003C107.7 93.1003 107.9 93.1003 108 92.5003C108.1 91.9003 108.4 90.7003 108.4 90.7003L108.9 90.5003C108.9 90.5003 109.1 89.9003 108.9 89.6003C108.6 89.3003 108.1 89.3003 108.1 89.3003Z" fill="#63BAB1"/>
<path d="M108.8 90.5L108.6 93H108.5L108.4 90.7L108.8 90.5Z" fill="#645013"/>
<path d="M120 88.5L119.2 91.7L117.6 91.8C117.6 91.8 117.4 91.9 117.5 92.2C117.6 92.5 117.7 92.4 118.5 92.4C119.2 92.4 119.6 92.3 119.6 92.3C119.6 92.3 119.8 92.3 119.9 91.7C120 91.1 120.3 89.9 120.3 89.9L120.8 89.7C120.8 89.7 121 89.1 120.8 88.8C120.6 88.5 120 88.5 120 88.5Z" fill="#63BAB1"/>
<path d="M120.8 89.6001L120.5 92.2001H120.4L120.3 89.9001L120.8 89.6001Z" fill="#645013"/>
<path d="M115.9 60.9004C115.9 60.9004 115 61.4004 113.9 61.6004C112.9 61.8004 111.8 61.8004 111.8 61.8004C111.8 61.8004 111.8 62.6004 111.9 63.5004C112 64.4004 111.8 65.4004 111.6 66.6004C111.4 67.8004 110.6 70.0004 110.6 70.0004C110.6 70.0004 111.4 70.2004 112.6 70.0004C113.8 69.8004 114.6 68.5004 114.9 66.9004C115.2 65.3004 115 62.1004 115 62.1004L116.3 61.5004L115.9 60.9004Z" fill="#EBFFFD"/>
<path d="M118 76.2001C118 76.2001 117.7 75.7001 117.1 76.9001C116.5 78.1001 116.6 79.9001 116.6 79.9001C116.6 79.9001 115.6 77.3001 115.2 76.5001C114.8 75.7001 116.8 75.1001 116.8 75.1001L117.7 75.5001L118 76.2001Z" fill="#EF8E4D"/>
<path d="M113.2 53.1002C112.7 51.8002 111.4 51.7002 111 51.7002C111 51.8002 110.9 51.8002 110.9 51.9002C110.9 52.0002 110.9 52.1002 110.9 52.1002C110.8 52.4002 110.7 52.7002 110.6 52.9002C110.5 53.1002 110.5 53.3002 110.5 53.4002C110.4 53.6002 110.5 53.6002 110.4 53.4002C110.6 53.7002 110.4 54.0002 110.1 54.1002V54.2002C110.1 54.2002 110.1 54.3002 110 54.3002C110 54.4002 109.9 54.4002 109.9 54.5002C109.8 54.6002 109.7 54.7002 109.5 54.8002C109.4 54.8002 109.4 54.8002 109.3 54.9002H109.2C109.2 54.9002 109.2 54.9002 109.2 55.0002C109.1 55.6002 108.9 56.2002 108.8 56.8002C108.8 57.0002 108.7 57.3002 108.7 57.5002C108.7 57.7002 108.7 57.9002 108.8 58.0002C109.2 59.0002 110.5 58.9002 111.4 60.9002C111.5 61.2002 111.7 61.5002 111.8 61.8002C112.8 60.8002 113.8 59.8002 114.8 58.8002C114.2 57.0002 113.6 54.1002 113.2 53.1002Z" fill="#63BAB1"/>
<path d="M111.3 62.2001L111.4 62.1001C111.6 61.8001 111.7 61.4001 111.9 61.0001C112.7 58.9001 113 56.8001 113 55.9001C113 55.9001 113.3 54.6001 113 53.2001C112.7 51.9001 111.4 51.6001 110.8 52.6001C110.2 53.6001 110.5 55.5001 110.5 55.5001C110.5 55.5001 110.6 59.1001 110.1 61.1001C109.6 63.1001 107.6 65.8001 107.6 65.8001C107.6 65.8001 106 67.5001 106.1 67.7001C106.1 67.9001 107.1 68.9001 107.3 68.8001C107.5 68.7001 107.3 67.8001 107.3 67.8001C107.3 67.7001 108.1 67.1001 108.2 66.9001C108.4 66.7001 108.4 66.4001 108.4 66.4001C108.4 66.4001 110 64.7001 111.2 62.5001C111.2 62.4001 111.2 62.3001 111.3 62.2001Z" fill="#F9BB6E"/>
<path d="M111.4 52.1002C111.4 52.1002 112.3 51.9002 112.8 52.6002C113.3 53.4002 113.2 55.2002 113.2 55.2002C113.2 55.2002 112.6 55.4002 111.7 55.4002C110.8 55.4002 110.3 55.1002 110.3 55.1002C110.3 55.1002 110.1 53.3002 110.6 52.7002C111.1 52.1002 111.4 52.1002 111.4 52.1002Z" fill="#EBFFFD"/>
<path d="M110.5 51.2002L110.7 51.5002C110.7 51.5002 110.6 52.0002 110.3 52.9002C110 53.8002 109.2 55.0002 109.2 55.0002V55.2002C109.2 55.2002 110.1 54.7002 110.4 54.2002C110.7 53.7002 111.7 51.9002 111.7 51.7002C111.6 51.4002 110.5 51.2002 110.5 51.2002Z" fill="#F8FFFE"/>
<path d="M108.5 52.2C108.5 52.2 108 52.1 108.7 51.4C109.5 50.6 110.2 50.3 110.4 50.4C110.6 50.5 110.6 50.1 110.6 50.1C110.6 50.1 110.4 49.4 110.3 49.3C110.2 49.2 109 49 109 49L106.1 50C106.1 50 106.5 50.9 107 51.5C107.5 52.1 108.2 52.3 108.2 52.3L108.5 52.2Z" fill="#422D1A"/>
<path d="M108.2 46.7002C108.2 46.7002 109.3 46.7002 110.3 48.4002C111.3 50.1002 110.5 50.9002 110.5 50.9002C110.5 50.9002 110.4 50.2002 110.2 49.7002C110 49.2002 109.8 49.1002 109.8 49.1002L108.7 48.5002C108.6 48.4002 108.2 46.7002 108.2 46.7002Z" fill="#5E4226"/>
<path d="M105.8 48.5C105.8 48.5 105.3 49.4 106.4 51C107.5 52.6 108.5 52.2 108.5 52.2C108.5 52.2 107.7 51.8 107.3 51.4C106.6 50.8 106.2 49.9 106.2 49.9C106.2 49.9 106.9 49.6 106.9 49.5C106.9 49.5 105.8 48.5 105.8 48.5Z" fill="#5E4226"/>
<path d="M106.7 50.4L106.8 50.5C107.1 50.9 107.4 51.3 107.8 51.6C108.1 51.9 108.7 52 108.8 51.9C109.5 51.5 109.8 50.9 109.8 50.5C109.8 50.1 109.8 49.7 109.8 49.7C109.8 49.7 110.2 49.6 110 49C109.8 48.4 109.6 48.5 109.6 48.5C109.6 48.5 109.4 48.5 109.3 48.7C109.2 48.9 109.2 48.9 109.2 48.9C109.2 48.9 108.9 47.8 108.4 47.5C107.9 47.1 106.7 47.4 106.2 48.4C105.7 49.4 106.7 50.4 106.7 50.4Z" fill="#F9BB6E"/>
<path d="M109.9 49.0003C109.9 49.0003 109.8 48.8003 109.7 48.8003C109.6 48.8003 109.4 49.0003 109.6 49.3003C109.7 49.6003 109.8 49.5003 109.9 49.5003C110 49.5003 109.9 49.3003 109.9 49.2003C109.8 49.1003 109.8 49.2003 109.8 49.2003C109.8 49.2003 109.8 49.0003 109.9 48.9003C109.8 48.8003 109.9 49.0003 109.9 49.0003Z" fill="#EF8E4D"/>
<path d="M107.9 48.1002C107.9 48.1002 108 48.5002 108.4 48.8002C108.8 49.1002 109.3 49.0002 109.3 49.0002C109.3 49.0002 109.4 48.8002 109.5 48.7002C109.6 48.6002 109.7 48.6002 109.7 48.6002C109.7 48.6002 109.1 47.5002 108.9 47.2002C108.7 46.9002 108.3 46.8002 108.3 46.8002C108.3 46.8002 108.1 46.7002 108 46.7002C107.9 46.7002 107.8 46.8002 107.8 46.8002C107.8 46.8002 108 46.8002 108.1 46.8002C108.2 46.8002 108.2 46.9002 108.2 46.9002C108.2 46.9002 107.3 47.0002 106.4 47.9002C105.5 48.9002 105.7 49.5002 105.9 49.9002C106.1 50.3002 106.3 50.3002 106.3 50.3002C106.3 50.3002 107.1 49.8002 107.5 49.1002C107.9 48.4002 107.9 48.1002 107.9 48.1002Z" fill="#5E4226"/>
<path opacity="0.24" d="M106.2 48.0003C106.2 48.0003 105.9 48.4003 106.2 48.5003C106.5 48.6003 108.1 47.3003 108.1 47.3003C108.1 47.3003 108 47.6003 107.9 47.7003C107.8 47.8003 106.9 48.7003 106.3 49.0003C105.7 49.3003 105.8 48.7003 105.9 48.5003C106 48.3003 106.2 48.0003 106.2 48.0003Z" fill="#FFEFC1"/>
<path d="M109.4 48.7C109.4 48.7 108.8 47.2 107.5 47.6C106.2 48 105.7 49 105.7 49V49.1C105.7 49.1 105.4 48.7 106 48C106.7 47.3 107.7 47 108.4 47.2C109.1 47.4 109.6 48.6 109.6 48.6L109.4 48.7Z" fill="#63BAB1"/>
<path d="M107.9 49.8003C108 50.0003 108.1 50.1003 108.2 50.1003C108.1 50.1003 108 49.9003 107.9 49.8003Z" fill="#75271A"/>
<path d="M108 49.5003C108.2 49.4003 108.5 49.8003 108.3 49.9003C108 50.1003 107.8 49.7003 108 49.5003Z" fill="#75271A"/>
<path d="M107.2 50.2002C107.1 50.2002 107.1 50.2002 107.2 50.2002C107.3 50.4002 107.4 50.5002 107.2 50.7002C107.4 50.6002 107.3 50.4002 107.2 50.2002Z" fill="#75271A"/>
<path d="M106.9 50.2004C106.7 50.3004 106.9 50.8004 107.1 50.7004C107.4 50.5004 107.1 50.1004 106.9 50.2004Z" fill="#75271A"/>
<path d="M108.1 49.2004C108 49.2004 108 49.2004 107.9 49.2004C107.8 49.2004 107.8 49.2004 107.7 49.2004C107.7 49.2004 107.6 49.1004 107.7 49.1004C107.7 49.0004 107.8 49.0004 107.9 48.9004C108 48.9004 108.1 48.9004 108.2 48.9004C108.2 49.1004 108.2 49.2004 108.1 49.2004Z" fill="#75271A"/>
<path d="M108.7 50.5003C108.7 50.7003 108.6 50.8003 108.5 50.9003C108.4 50.9003 108.4 51.0003 108.3 51.0003C108.2 50.9003 108.2 50.7003 108.2 50.7003C108.2 50.7003 108 51.0003 108 50.9003C107.8 50.4003 107.5 49.9003 107.4 49.3003C107.6 49.8003 107.8 50.3003 108 50.7003C108.1 50.6003 108.1 50.5003 108.2 50.5003C108.2 50.5003 108.4 50.8003 108.4 50.9003C108.4 50.9003 108.5 50.8003 108.7 50.5003C108.7 50.5003 108.6 50.5003 108.7 50.5003Z" fill="#75271A"/>
<path d="M108.9 51.2002L108.8 51.3002C108.7 51.3002 108.7 51.3002 108.6 51.3002C108.7 51.4002 108.8 51.4002 108.8 51.3002C108.8 51.4002 108.9 51.3002 108.9 51.2002Z" fill="#75271A"/>
<path d="M108.1 51.1003C108.1 51.1003 108.2 51.2003 108.4 51.2003C108.5 51.2003 108.5 51.2003 108.6 51.2003C108.7 51.1003 108.7 51.0003 108.7 50.9003C108.7 50.8003 108.6 50.8003 108.6 50.8003C108.6 50.8003 108.4 51.0003 108.1 51.1003Z" fill="#75271A"/>
<path d="M108.4 51.2004C108.5 51.2004 108.5 51.2004 108.6 51.2004C108.7 51.1004 108.7 51.0004 108.7 50.9004C108.5 51.0004 108.4 51.1004 108.4 51.2004Z" fill="#FF98B9"/>
<path d="M99.8 81.3998L101.6 85.3998L105.1 93.0998C105.2 93.1998 105.3 93.2998 105.4 93.2998C105.7 93.2998 105.8 93.0998 105.8 92.7998L103 82.7998L102.6 81.2998L99.8 81.3998Z" fill="#E8F4FC"/>
<path d="M101.6 85.3998C101.4 83.5998 103.1 82.7998 103.1 82.7998L102.7 81.2998L99.8 81.3998L101.6 85.3998Z" fill="#F3FBFF"/>
<path d="M118.7 81.3998L120.5 85.3998L124 93.0998C124.1 93.1998 124.2 93.2998 124.3 93.2998C124.6 93.2998 124.7 93.0998 124.7 92.7998L121.9 82.7998L121.5 81.2998L118.7 81.3998Z" fill="#E8F4FC"/>
<path d="M120.5 85.3998C120.3 83.5998 122 82.7998 122 82.7998L121.6 81.2998L118.7 81.3998L120.5 85.3998Z" fill="#F3FBFF"/>
<path d="M124.8 74.3V81C124.8 81.4 124.5 81.8 124 81.8H40.5C40.1 81.8 39.7 81.5 39.7 81V74.3C39.7 73.9 40 73.5 40.5 73.5H124.1C124.5 73.6 124.8 73.9 124.8 74.3Z" fill="#E8F4FC"/>
<path d="M43.4999 81.3999L43.0999 82.8999L40.2999 92.8999C40.1999 93.0999 40.3999 93.3999 40.6999 93.3999C40.7999 93.3999 40.9999 93.2999 40.9999 93.1999L44.4999 85.4999L46.2999 81.4999L43.4999 81.3999Z" fill="#F3FBFF"/>
<path d="M58.4001 81.3999L58.0001 82.8999L55.2001 92.8999C55.1001 93.0999 55.3001 93.3999 55.6001 93.3999C55.7001 93.3999 55.9001 93.2999 55.9001 93.1999L59.4001 85.4999L61.2001 81.4999L58.4001 81.3999Z" fill="#F3FBFF"/>
<path d="M72.8 50.4V76.2C72.8 76.7 72.5 77.1 72 77.1H40.5C40.1 77.1 39.7 76.7 39.7 76.2V50.4C39.7 49.9 40 49.5 40.5 49.5H72C72.4 49.6 72.8 50 72.8 50.4Z" fill="#E8F4FC"/>
<path d="M45.6999 75.6998C45.6999 75.6998 39.9 75.1998 39.7 75.0998V69.7998C40.9 68.5998 43.2999 67.2998 43.2999 67.2998L45.6999 75.6998Z" fill="#E8F4FC"/>
<path d="M47.8999 56.4002C48.176 56.4002 48.3999 56.1316 48.3999 55.8002C48.3999 55.4688 48.176 55.2002 47.8999 55.2002C47.6238 55.2002 47.3999 55.4688 47.3999 55.8002C47.3999 56.1316 47.6238 56.4002 47.8999 56.4002Z" fill="white"/>
<path d="M66.8999 56.4002C67.176 56.4002 67.3999 56.1316 67.3999 55.8002C67.3999 55.4688 67.176 55.2002 66.8999 55.2002C66.6238 55.2002 66.3999 55.4688 66.3999 55.8002C66.3999 56.1316 66.6238 56.4002 66.8999 56.4002Z" fill="white"/>
<path d="M47.8999 66.9002C48.176 66.9002 48.3999 66.6316 48.3999 66.3002C48.3999 65.9688 48.176 65.7002 47.8999 65.7002C47.6238 65.7002 47.3999 65.9688 47.3999 66.3002C47.3999 66.6316 47.6238 66.9002 47.8999 66.9002Z" fill="#273F76"/>
<path d="M66.8999 66.9002C67.176 66.9002 67.3999 66.6316 67.3999 66.3002C67.3999 65.9688 67.176 65.7002 66.8999 65.7002C66.6238 65.7002 66.3999 65.9688 66.3999 66.3002C66.3999 66.6316 66.6238 66.9002 66.8999 66.9002Z" fill="#EAC3A2"/>
<path d="M96.8999 74.3V81C96.8999 81.4 96.5999 81.8 96.0999 81.8H39.6999C39.2999 81.8 38.8999 81.5 38.8999 81V74.3C38.8999 73.9 39.1999 73.5 39.6999 73.5H96.0999C96.5999 73.6 96.8999 73.9 96.8999 74.3Z" fill="#F3FBFF"/>
<path d="M58.1 63.5C58.1 63.5 56 69.7 57.1 73.6H60.8C60.8 73.6 62.1 66.4 58.1 63.5Z" fill="#ECF3FE"/>
<path d="M58.1001 63.5001C58.1001 63.5001 65.5001 62.5001 69.5001 63.5001L72.6001 73.6001H60.8001C60.8001 73.6001 62.1001 67.5001 58.1001 63.5001Z" fill="white"/>
<path d="M98.9 73.3002C98.8 73.3002 98.8 73.2002 98.8 73.2002C98.8 73.3002 98.8 73.3002 98.9 73.3002Z" fill="#D67330"/>
<path d="M43.8 63.5C43.8 63.5 41.7 69.7 42.8 73.6H46.5C46.4 73.6 47.8 66.4 43.8 63.5Z" fill="#ECF3FE"/>
<path d="M43.8 63.5001C43.8 63.5001 51.2 62.5001 55.2 63.5001L58.3001 73.6001H46.4001C46.4001 73.6001 47.8 67.5001 43.8 63.5001Z" fill="white"/>
<path d="M34.9001 68.0001V68.6001C34.9001 68.8001 34.8001 69.0001 34.7001 69.0001H11.3001C11.2001 69.0001 11.1001 68.8001 11.1001 68.6001V68.0001C11.1001 67.8001 11.2001 67.6001 11.3001 67.6001H34.7001C34.8001 67.6001 34.9001 67.7001 34.9001 68.0001Z" fill="#B9CCD6"/>
<path d="M34.9 68.0001V68.6001C34.9 68.8001 34.8 69.0001 34.8 69.0001H16.1C16 69.0001 16 68.8001 16 68.6001V68.0001C16 67.8001 16.1 67.6001 16.1 67.6001H34.7C34.8 67.6001 34.9 67.7001 34.9 68.0001Z" fill="#FAFEFF"/>
<path d="M28.9001 69H12.3V93.2H28.9001V69Z" fill="#9DB5C4"/>
<path d="M33.6 69H17V93.2H33.6V69Z" fill="#F3FBFF"/>
<path d="M32.7001 91.9002H17.9001V69.7002H32.7001V91.9002ZM18.0001 91.8002H32.5001V69.9002H18.0001V91.8002Z" fill="#9DB5C4"/>
<path d="M32.7002 77.1001H18.0002V77.3001H32.7002V77.1001Z" fill="#9DB5C4"/>
<path d="M32.7002 84.5H18.0002V84.7H32.7002V84.5Z" fill="#9DB5C4"/>
<path d="M26.8001 71.1002H24.1001C24.0001 71.1002 23.9001 71.0002 23.9001 70.9002C23.9001 70.8002 24.0001 70.7002 24.1001 70.7002H26.8001C26.9001 70.7002 27.0001 70.8002 27.0001 70.9002C27.0001 71.0002 26.9001 71.1002 26.8001 71.1002Z" fill="#9DB5C4"/>
<path d="M26.8001 78.5001H24.1001C24.0001 78.5001 23.9001 78.4001 23.9001 78.3001C23.9001 78.2001 24.0001 78.1001 24.1001 78.1001H26.8001C26.9001 78.1001 27.0001 78.2001 27.0001 78.3001C27.0001 78.4001 26.9001 78.5001 26.8001 78.5001Z" fill="#9DB5C4"/>
<path d="M26.8001 86.1002H24.1001C24.0001 86.1002 23.9001 86.0002 23.9001 85.9002C23.9001 85.8002 24.0001 85.7002 24.1001 85.7002H26.8001C26.9001 85.7002 27.0001 85.8002 27.0001 85.9002C27.0001 86.0002 26.9001 86.1002 26.8001 86.1002Z" fill="#9DB5C4"/>
<path d="M18.9999 59.0002C18.9999 59.0002 17.5999 57.4002 18.8999 56.4002C18.8999 56.4002 19.7999 55.8002 20.5999 55.9002C20.5999 55.9002 19.4999 57.7002 19.8999 57.9002C20.2999 58.1002 20.9999 55.8002 20.9999 55.8002C20.9999 55.8002 23.0999 55.6002 23.7999 55.9002C23.7999 55.9002 21.9999 57.4002 22.3999 57.5002C22.7999 57.6002 24.7999 56.1002 24.7999 56.1002C24.7999 56.1002 26.7999 56.4002 26.6999 57.7002C26.5999 58.9002 25.8999 59.3002 25.5999 59.3002C25.2999 59.3002 23.4999 58.6002 23.4999 58.8002C23.4999 59.0002 24.4999 59.9002 25.2999 59.9002C25.2999 59.9002 23.8999 61.4002 22.9999 61.0002C22.0999 60.6002 21.9999 59.8002 21.3999 59.6002C20.7999 59.3002 20.2999 59.3002 20.5999 59.6002C20.7999 59.9002 21.8999 60.1002 22.1999 60.7002C22.4999 61.3002 22.7999 61.7002 21.8999 61.5002C20.8999 61.4002 19.3999 60.6002 19.2999 59.8002C18.9999 59.0002 18.9999 59.0002 18.9999 59.0002Z" fill="#60BAB1"/>
<path d="M25.6 57.7003C25.6 57.7003 20.2 57.5003 19 59.0003C19 59.0003 18.7001 59.8003 17.9001 60.5003L17.8 60.8003C17.8 60.8003 18.7 59.8003 19.1 59.8003C19 59.8003 18.5 57.9003 25.6 57.7003Z" fill="#3A9B91"/>
<path d="M17.9 60.5002C17.9 60.5002 16.7 61.4002 16.7 62.9002H16.9C16.9 62.9002 17.3 61.3002 17.9 60.7002C18.6 60.1002 17.9 60.5002 17.9 60.5002Z" fill="#82B378"/>
<path d="M14.2 57.0001C14.2 57.0001 16.4 55.8001 15.4 54.1001C15.4 54.1001 14.6 53.1001 13.7 52.8001C13.7 52.8001 14.2 55.3001 13.7 55.3001C13.2 55.4001 13.4 52.5001 13.4 52.5001C13.4 52.5001 11.1 51.4001 10.2 51.5001C10.2 51.5001 11.6 53.9001 11.2 53.9001C10.7 53.8001 9.09998 51.4001 9.09998 51.4001C9.09998 51.4001 6.69998 51.0001 6.39998 52.4001C5.99998 53.8001 6.59998 54.5001 6.99998 54.6001C7.29998 54.7001 9.59998 54.7001 9.49998 54.9001C9.39998 55.2001 7.89998 55.7001 7.09998 55.4001C7.09998 55.4001 7.99998 57.7001 9.29998 57.6001C10.5 57.5001 10.9 56.7001 11.7 56.7001C12.5 56.6001 13 56.8001 12.6 57.0001C12.2 57.2001 10.9 57.1001 10.3 57.6001C9.69998 58.1001 9.19998 58.4001 10.3 58.7001C11.4 58.9001 13.5 58.8001 13.9 57.9001C14.2 57.0001 14.2 57.0001 14.2 57.0001Z" fill="#6CC8C1"/>
<path d="M7.3999 52.8003C7.3999 52.8003 13.4999 54.8003 14.1999 57.0003C14.1999 57.0003 14.1999 58.0003 14.7999 59.1003V59.5003C14.7999 59.5003 14.1999 58.0003 13.7999 57.8003C13.7999 57.9003 15.0999 55.9003 7.3999 52.8003Z" fill="#3A9B91"/>
<path d="M14.7999 59.1002C14.7999 59.1002 15.6999 60.5002 15.1999 62.3002L14.9999 62.2002C14.9999 62.2002 15.1999 60.3002 14.6999 59.3002C14.1999 58.4002 14.7999 59.1002 14.7999 59.1002Z" fill="#3A9B91"/>
<path d="M17.5999 55.3C17.5999 55.3 14.6999 53.7 16.0999 51.5C16.0999 51.5 17.1999 50.2 18.2999 49.8C18.2999 49.8 17.6999 53.1 18.2999 53.1C18.8999 53.2 18.6999 49.4 18.6999 49.4C18.6999 49.4 21.6999 47.9 22.8999 48.1C22.8999 48.1 20.9999 51.3 21.5999 51.2C22.1999 51.1 24.2999 47.9 24.2999 47.9C24.2999 47.9 27.3999 47.3 27.8999 49.2C28.3999 51 27.5999 52 27.0999 52.1C26.5999 52.2 23.6999 52.2 23.7999 52.6C23.8999 53 25.8999 53.6 26.9999 53.3C26.9999 53.3 25.7999 56.3 24.1999 56.2C22.5999 56 22.0999 55.1 21.0999 55C20.0999 54.9 19.3999 55.2 19.8999 55.5C20.3999 55.8 22.0999 55.6 22.8999 56.3C23.6999 57 24.3999 57.4 22.8999 57.7C21.3999 58 18.6999 57.8 18.1999 56.7C17.5999 55.3 17.5999 55.3 17.5999 55.3Z" fill="#6CC8C1"/>
<path d="M26.5998 49.7998C26.5998 49.7998 18.5998 52.3998 17.5998 55.2998C17.5998 55.2998 17.5998 56.5998 16.7998 58.0998V58.6998C16.7998 58.6998 17.5998 56.6998 18.0998 56.4998C18.1998 56.4998 16.3998 53.8998 26.5998 49.7998Z" fill="#3A9B91"/>
<path d="M16.8999 58.0997C16.8999 58.0997 15.6999 59.9997 16.3999 62.2997L16.6999 62.1997C16.6999 62.1997 16.3999 59.6997 16.9999 58.3997C17.5999 57.0997 16.8999 58.0997 16.8999 58.0997Z" fill="#3A9B91"/>
<path d="M23.1999 61.6001C23.1999 64.7001 20.6999 67.2001 17.5999 67.2001C16.9999 67.2001 16.2999 67.1001 15.6999 66.9001C13.4999 66.1001 11.8999 64.0001 11.8999 61.6001H23.1999Z" fill="#144B63"/>
<path d="M19.4999 61.6001C19.4999 63.7001 18.9999 65.9001 17.2999 66.8001C16.9999 67.0001 16.0999 66.8001 15.6999 66.9001C13.4999 66.1001 11.8999 64.0001 11.8999 61.6001H19.4999Z" fill="#327187"/>
<path d="M23.3 67.4998H11.8C11.8 67.2998 11.9 67.0998 12 66.9998C12.1 66.8998 12.3 66.7998 12.5 66.7998H22.5C22.9 66.7998 23.3 67.1998 23.3 67.4998Z" fill="#144B63"/>
<path d="M17.9001 67.4998H11.8C11.8 67.2998 11.9 67.0998 12 66.9998C12.1 66.8998 12.3 66.7998 12.5 66.7998H17.2001C17.6001 66.7998 17.9001 67.1998 17.9001 67.4998Z" fill="#327187"/>
<path d="M23.2999 61.6001H11.7V61.8001H23.2999V61.6001Z" fill="#0E4254"/>
<path d="M28.4001 66.9002C29.836 66.9002 31 65.7361 31 64.3002C31 62.8643 29.836 61.7002 28.4001 61.7002C26.9641 61.7002 25.8 62.8643 25.8 64.3002C25.8 65.7361 26.9641 66.9002 28.4001 66.9002Z" fill="#144B63"/>
<path d="M26.7001 66.2L26.4001 67.2C26.3001 67.4 26.5001 67.5 26.6001 67.5H26.7001C26.8001 67.5 26.8001 67.5 26.9001 67.4L27.6001 66.7C27.7001 66.6 27.7001 66.4 27.6001 66.3L27.0001 66.1C26.9001 66 26.7001 66.1 26.7001 66.2Z" fill="#144B63"/>
<path d="M30.2999 66.2L30.5999 67.2C30.6999 67.4 30.5 67.5 30.4 67.5H30.2999C30.1999 67.5 30.1999 67.5 30.0999 67.4L29.4 66.7C29.3 66.6 29.3 66.4 29.4 66.3L29.9 66C30.1 66 30.2999 66.1 30.2999 66.2Z" fill="#144B63"/>
<path d="M25.8 61.2001C25.3 61.6001 25.1 62.3002 25.3 62.9002C25.4 63.2002 25.8 63.4001 26 63.1001L27.6 61.8002C27.9 61.6002 27.8 61.2001 27.5 61.0001C27 60.7001 26.3 60.7001 25.8 61.2001Z" fill="#144B63"/>
<path d="M31.2001 61.4004C30.7001 60.9004 30.1001 60.8004 29.5001 61.0004C29.2001 61.1004 29.1001 61.5004 29.3001 61.8004L30.8001 63.3004C31.0001 63.5004 31.4001 63.5004 31.5001 63.2004C31.8001 62.5004 31.6001 61.9004 31.2001 61.4004Z" fill="#144B63"/>
<path d="M28.4 66.5001C29.615 66.5001 30.5999 65.5151 30.5999 64.3001C30.5999 63.0851 29.615 62.1001 28.4 62.1001C27.1849 62.1001 26.2 63.0851 26.2 64.3001C26.2 65.5151 27.1849 66.5001 28.4 66.5001Z" fill="white"/>
<path d="M29.9001 65.3001C29.9553 65.3001 30 65.2553 30 65.2001C30 65.1449 29.9553 65.1001 29.9001 65.1001C29.8448 65.1001 29.8 65.1449 29.8 65.2001C29.8 65.2553 29.8448 65.3001 29.9001 65.3001Z" fill="#B0D4FF"/>
<path d="M26.9001 63.5999C26.9553 63.5999 27 63.5551 27 63.4999C27 63.4447 26.9553 63.3999 26.9001 63.3999C26.8448 63.3999 26.8 63.4447 26.8 63.4999C26.8 63.5551 26.8448 63.5999 26.9001 63.5999Z" fill="#B0D4FF"/>
<path d="M28.4001 62.7C28.4553 62.7 28.5 62.6552 28.5 62.6C28.5 62.5448 28.4553 62.5 28.4001 62.5C28.3448 62.5 28.3 62.5448 28.3 62.6C28.3 62.6552 28.3448 62.7 28.4001 62.7Z" fill="#B0D4FF"/>
<path d="M28.4001 66.0999C28.4553 66.0999 28.5 66.0551 28.5 65.9999C28.5 65.9447 28.4553 65.8999 28.4001 65.8999C28.3448 65.8999 28.3 65.9447 28.3 65.9999C28.3 66.0551 28.3448 66.0999 28.4001 66.0999Z" fill="#B0D4FF"/>
<path d="M29.3002 62.9998C29.3554 62.9998 29.4002 62.955 29.4002 62.8998C29.4002 62.8446 29.3554 62.7998 29.3002 62.7998C29.245 62.7998 29.2002 62.8446 29.2002 62.8998C29.2002 62.955 29.245 62.9998 29.3002 62.9998Z" fill="#B0D4FF"/>
<path d="M27.5001 65.7996C27.5554 65.7996 27.6001 65.7548 27.6001 65.6996C27.6001 65.6444 27.5554 65.5996 27.5001 65.5996C27.4449 65.5996 27.4001 65.6444 27.4001 65.6996C27.4001 65.7548 27.4449 65.7996 27.5001 65.7996Z" fill="#B0D4FF"/>
<path d="M29.9001 63.5999C29.9553 63.5999 30 63.5551 30 63.4999C30 63.4447 29.9553 63.3999 29.9001 63.3999C29.8448 63.3999 29.8 63.4447 29.8 63.4999C29.8 63.5551 29.8448 63.5999 29.9001 63.5999Z" fill="#B0D4FF"/>
<path d="M26.9001 65.2C26.9553 65.2 27 65.1552 27 65.1C27 65.0448 26.9553 65 26.9001 65C26.8448 65 26.8 65.0448 26.8 65.1C26.8 65.1552 26.8448 65.2 26.9001 65.2Z" fill="#B0D4FF"/>
<path d="M30.1 64.4002C30.1552 64.4002 30.2 64.3554 30.2 64.3002C30.2 64.245 30.1552 64.2002 30.1 64.2002C30.0448 64.2002 30 64.245 30 64.3002C30 64.3554 30.0448 64.4002 30.1 64.4002Z" fill="#B0D4FF"/>
<path d="M26.7001 64.4002C26.7553 64.4002 26.8001 64.3554 26.8001 64.3002C26.8001 64.245 26.7553 64.2002 26.7001 64.2002C26.6449 64.2002 26.6001 64.245 26.6001 64.3002C26.6001 64.3554 26.6449 64.4002 26.7001 64.4002Z" fill="#B0D4FF"/>
<path d="M29.2001 65.8001C29.2553 65.8001 29.3001 65.7553 29.3001 65.7001C29.3001 65.6449 29.2553 65.6001 29.2001 65.6001C29.1449 65.6001 29.1001 65.6449 29.1001 65.7001C29.1001 65.7553 29.1449 65.8001 29.2001 65.8001Z" fill="#B0D4FF"/>
<path d="M27.6 62.9002C27.6552 62.9002 27.7 62.8554 27.7 62.8002C27.7 62.745 27.6552 62.7002 27.6 62.7002C27.5448 62.7002 27.5 62.745 27.5 62.8002C27.5 62.8554 27.5448 62.9002 27.6 62.9002Z" fill="#B0D4FF"/>
<path d="M28.4 64.5001C28.5104 64.5001 28.5999 64.4106 28.5999 64.3001C28.5999 64.1896 28.5104 64.1001 28.4 64.1001C28.2895 64.1001 28.2 64.1896 28.2 64.3001C28.2 64.4106 28.2895 64.5001 28.4 64.5001Z" fill="#144B63"/>
<path d="M27.3 64.3002C27.6 64.3002 28.3 64.2002 28.3 64.2002V64.4002L27.3 64.3002Z" fill="#144B63"/>
<path d="M28.5001 63.1004C28.5001 63.6004 28.6001 64.3004 28.6001 64.3004H28.4001L28.5001 63.1004C28.5001 63.0004 28.4001 63.0004 28.5001 63.1004Z" fill="#144B63"/>
<path d="M120.4 73.5998C120.4 73.5998 108.7 68.2998 106.6 68.2998C104.5 68.2998 94.9 70.8998 92.7 70.4998C90.5 70.0998 78.4 66.2998 76.7 66.2998C75 66.2998 49.1 69.0998 45.2 73.5998C44.5 74.3998 56.5 90.3998 63.6 89.4998C68.3 88.8998 78.8 73.4998 80.1 73.1998C81.4 72.9998 106.6 73.4998 106.6 73.4998C112.2 73.5998 120.4 73.5998 120.4 73.5998Z" fill="#6CC8C1"/>
<path d="M109.4 73.5999C109.4 73.5999 115.8 76.5999 116.5 76.2999C117.1 75.9999 120.4 73.6999 120.4 73.6999L115 72.8999L109.4 73.5999Z" fill="#6CC8C1"/>
<path d="M63.5001 89.5C63.5001 89.5 63.0001 90.2 63.5001 91.2C63.5001 91.2 64.1001 91.2 64.6001 90.8C64.7001 90.7 64.5001 89.5 63.5001 89.5Z" fill="#6CC8C1"/>
<path d="M116.3 76.2002C116.3 76.2002 116 76.6002 116.2 77.4002C116.2 77.4002 116.9 77.5002 117.2 77.3002C117.2 77.2002 116.9 76.2002 116.3 76.2002Z" fill="#6CC8C1"/>
<path d="M70.4 90.2998C70.4 90.2998 66.9 91.2998 66.8 93.2998H77.6C77.6 93.2998 77.5 92.7998 77.2 92.7998C76.9 92.7998 72.6 92.6998 72.6 92.6998C72.6 92.6998 71.6 90.2998 70.4 90.2998Z" fill="#6CC8C1"/>
<path d="M83.7001 90.2998C83.7001 90.2998 80.2001 91.2998 80.1001 93.2998H90.9001C90.9001 93.2998 90.8001 92.7998 90.5001 92.7998C90.2001 92.7998 85.9001 92.6998 85.9001 92.6998C85.9001 92.6998 85.0001 90.2998 83.7001 90.2998Z" fill="#6CC8C1"/>
<path d="M188.4 93.7001H2.99995C1.99995 93.7001 1.19995 93.3001 1.19995 92.9001C1.19995 92.5001 1.99995 92.1001 2.99995 92.1001H188.4C189.4 92.1001 190.2 92.5001 190.2 92.9001C190.2 93.4001 189.4 93.7001 188.4 93.7001Z" fill="#5C8097"/>
<path d="M135.4 13.5002V43.1002H99.5V6.2002H127.6C130.3 8.5002 132.9 11.0002 135.4 13.5002Z" fill="url(#paint0_linear)"/>
<path d="M135.5 26.2002L135.4 43.1002V43.3002H135.3L99 44.2002V43.1002L99.1 33.1002V30.8002L99.2 21.5002H99.5H101V19.8002H102.3V17.0002H103.5V13.7002H104V17.0002H105.2V19.8002H106.5V21.5002H107.8V26.0002H111V22.7002H115.3V18.6002H121.2L121.1 25.9002H123.8V18.6002L129.6 20.9002V22.7002H133.2C133.7 23.6002 134.3 24.6002 135 25.4002C135.1 25.5002 135.2 25.6002 135.3 25.8002C135.3 26.0002 135.4 26.1002 135.5 26.2002Z" fill="url(#paint1_linear)"/>
<path d="M125.56 22.8818L126.36 22.8872L126.371 21.1872L125.571 21.1818L125.56 22.8818Z" fill="white"/>
<path d="M112.427 28.5391L113.227 28.5444L113.238 26.8444L112.438 26.8391L112.427 28.5391Z" fill="white"/>
<path d="M103.28 19.3311L104.08 19.3364L104.092 17.6364L103.292 17.6311L103.28 19.3311Z" fill="white"/>
<path d="M106.711 34.0957L107.511 34.1011L107.523 32.4011L106.723 32.3957L106.711 34.0957Z" fill="white"/>
<path d="M116.372 24.4478L117.172 24.4531L117.183 22.7531L116.383 22.7477L116.372 24.4478Z" fill="white"/>
<path d="M136.3 14.4002C136 14.1002 135.7 13.8002 135.4 13.4002V25.9002V42.9002V43.1002H99.5V6.2002C99.4 6.2002 99.2 6.3002 99.1 6.4002C99 6.5002 98.8 6.50019 98.7 6.60019V44.3002H136.3V27.0002C136.1 26.8002 136.3 18.2002 136.3 14.4002Z" fill="#6CC8C1"/>
<path d="M109.4 16.2001C110.394 16.2001 111.2 15.3942 111.2 14.4001C111.2 13.406 110.394 12.6001 109.4 12.6001C108.406 12.6001 107.6 13.406 107.6 14.4001C107.6 15.3942 108.406 16.2001 109.4 16.2001Z" fill="white"/>
<path d="M137.3 43.1001H97.2V44.7001H137.3V43.1001Z" fill="#5FB7AE"/>
<path d="M133.5 34.4003C133 34.5003 131.4 33.8003 131.4 33.7003C131.4 33.6003 132.8 32.6003 133.3 32.5003C133.8 32.4003 134.3 32.8003 134.3 33.3003C134.4 33.9003 134 34.4003 133.5 34.4003Z" fill="#6CC8C1"/>
<path d="M124.2 28.0001C124.5 28.4001 124.7 30.1001 124.6 30.2001C124.5 30.3001 123 29.5001 122.7 29.0001C122.4 28.6001 122.5 28.0001 123 27.7001C123.3 27.5001 123.9 27.6001 124.2 28.0001Z" fill="#6CC8C1"/>
<path d="M129.1 33.9999C129.2 34.4999 128.9 36.1999 128.7 36.1999C128.6 36.1999 127.4 34.9999 127.2 34.4999C127.1 33.9999 127.4 33.4999 127.9 33.2999C128.4 33.1999 128.9 33.4999 129.1 33.9999Z" fill="#6CC8C1"/>
<path d="M123.6 31C124.1 31.1 125.5 32.1 125.5 32.3C125.5 32.4 123.8 33 123.3 32.9C122.8 32.8 122.4 32.3 122.5 31.8C122.6 31.3 123.1 31 123.6 31Z" fill="#6CC8C1"/>
<path d="M125 35.3001C125.5 35.6001 126.6 37.4001 126.5 37.6001C126.4 37.8001 124.3 37.6001 123.8 37.3001C123.3 37.0001 123.1 36.3001 123.4 35.7001C123.8 35.2001 124.5 35.0001 125 35.3001Z" fill="#6CC8C1"/>
<path d="M127.7 31.8003C127.3 32.1003 125.6 32.4003 125.5 32.2003C125.4 32.1003 126.2 30.5003 126.6 30.2003C127 29.9003 127.6 30.0003 127.9 30.4003C128.2 30.9003 128.1 31.5003 127.7 31.8003Z" fill="#6CC8C1"/>
<path d="M130.4 37.9C129.9 37.9 128.3 37.2 128.3 37C128.3 36.9 129.8 36 130.3 36C130.8 36 131.3 36.4 131.3 36.9C131.3 37.4 130.9 37.9 130.4 37.9Z" fill="#6CC8C1"/>
<path d="M127.5 38.8001C127.5 38.8001 128.8 35.1001 131.4 33.7001V33.6001C128.7 35.0001 127.5 38.8001 127.5 38.8001Z" fill="#6CC8C1"/>
<path d="M126.6 38.7999C126.7 38.6999 126.3 32.3999 124.3 29.8999H124.2C126.2 32.4999 126.6 38.6999 126.6 38.7999Z" fill="#6CC8C1"/>
<path d="M127.1 38.9001C127.2 33.4001 129.8 29.2001 129.9 29.1001H129.8C129.7 29.2001 127.1 33.4001 127.1 38.9001Z" fill="#6CC8C1"/>
<path d="M130.6 28.9001C130.5 29.0001 129.8 29.2001 129.8 29.1001C129.8 29.1001 130 28.5001 130.2 28.3001C130.3 28.2001 130.6 28.2001 130.7 28.3001C130.7 28.6001 130.7 28.8001 130.6 28.9001Z" fill="white"/>
<path d="M129.7 28.3001C129.8 28.5001 129.8 29.1001 129.7 29.1001C129.7 29.1001 129.1 28.8001 129 28.6001C128.9 28.4001 129 28.2001 129.1 28.1001C129.4 28.1001 129.6 28.1001 129.7 28.3001Z" fill="white"/>
<path d="M128.9 28.8999C129.1 28.8999 129.7 29.0999 129.7 29.1999C129.7 29.2999 129.2 29.5999 129 29.5999C128.8 29.5999 128.6 29.4999 128.6 29.2999C128.6 28.9999 128.8 28.8999 128.9 28.8999Z" fill="white"/>
<path d="M129.2 29.8001C129.2 29.6001 129.7 29.1001 129.7 29.1001C129.8 29.1001 129.9 29.7001 129.8 29.9001C129.8 30.1001 129.6 30.2001 129.4 30.2001C129.3 30.1001 129.2 29.9001 129.2 29.8001Z" fill="white"/>
<path d="M130.2 29.9002C130 29.8002 129.8 29.2002 129.8 29.2002C129.8 29.2002 130.5 29.3002 130.6 29.4002C130.7 29.5002 130.8 29.7002 130.7 29.9002C130.6 29.9002 130.3 30.0002 130.2 29.9002Z" fill="white"/>
<path d="M129.8 29.2C129.855 29.2 129.9 29.1552 129.9 29.1C129.9 29.0448 129.855 29 129.8 29C129.745 29 129.7 29.0448 129.7 29.1C129.7 29.1552 129.745 29.2 129.8 29.2Z" fill="#FA7267"/>
<path d="M125.3 38.9001C125.1 36.3001 121.8 34.1001 121.8 34.1001V34.2001C121.8 34.2001 125 36.3001 125.3 38.9001Z" fill="#6CC8C1"/>
<path d="M120.9 33.9C121 34 121.7 34.2 121.7 34.1C121.7 34.1 121.5 33.5 121.3 33.3C121.1 33.1 120.9 33.2 120.8 33.3C120.7 33.6 120.8 33.8 120.9 33.9Z" fill="white"/>
<path d="M121.7 33.3003C121.6 33.5003 121.6 34.1003 121.7 34.1003C121.7 34.1003 122.3 33.8003 122.4 33.6003C122.5 33.4003 122.4 33.2003 122.3 33.1003C122 33.0003 121.8 33.1003 121.7 33.3003Z" fill="white"/>
<path d="M122.5 33.8003C122.3 33.8003 121.7 34.0003 121.7 34.1003C121.7 34.2003 122.2 34.5003 122.4 34.5003C122.6 34.5003 122.8 34.4003 122.8 34.2003C122.9 34.0003 122.7 33.9003 122.5 33.8003Z" fill="white"/>
<path d="M122.2 34.7005C122.2 34.5005 121.7 34.0005 121.7 34.0005C121.6 34.0005 121.5 34.6005 121.6 34.8005C121.6 35.0005 121.8 35.1005 122 35.1005C122.2 35.1005 122.3 34.9005 122.2 34.7005Z" fill="white"/>
<path d="M121.3 34.8001C121.5 34.7001 121.7 34.1001 121.7 34.1001C121.7 34.1001 121 34.2001 120.9 34.3001C120.8 34.4001 120.7 34.6001 120.8 34.8001C120.9 35.0001 121.1 35.0001 121.3 34.8001Z" fill="white"/>
<path d="M121.7 34.2005C121.755 34.2005 121.8 34.1557 121.8 34.1005C121.8 34.0453 121.755 34.0005 121.7 34.0005C121.645 34.0005 121.6 34.0453 121.6 34.1005C121.6 34.1557 121.645 34.2005 121.7 34.2005Z" fill="#FA7267"/>
<path d="M126.8 43.1003C128.5 43.1003 129.9 41.7003 129.9 40.0003V38.8003H123.6V40.0003C123.7 41.7003 125.1 43.1003 126.8 43.1003Z" fill="#144B63"/>
<path opacity="0.32" d="M102.2 43.1002L117.2 6.2002H122.8L108.2 43.1002H102.2Z" fill="white"/>
<path d="M126.4 5.2002L127.6 6.2002H99.4L98.5 6.50019H97.2V5.2002H126.4Z" fill="#6CC8C1"/>
<defs>
<linearGradient id="paint0_linear" x1="99.4425" y1="24.626" x2="135.382" y2="24.626" gradientUnits="userSpaceOnUse">
<stop stop-color="white"/>
<stop offset="1" stop-color="#BCDFF5"/>
</linearGradient>
<linearGradient id="paint1_linear" x1="117.233" y1="55.224" x2="117.233" y2="25.2096" gradientUnits="userSpaceOnUse">
<stop stop-color="white"/>
<stop offset="1" stop-color="#BCDFF5"/>
</linearGradient>
</defs>
</svg>
