<?xml version="1.0" encoding="utf-8"?>
<!-- Generator: Adobe Illustrator 19.0.0, SVG Export Plug-In . SVG Version: 6.00 Build 0)  -->
<svg version="1.1" id="Layer_1" xmlns="http://www.w3.org/2000/svg" xmlns:xlink="http://www.w3.org/1999/xlink" x="0px" y="0px"
	 viewBox="0 0 219.3 140" style="enable-background:new 0 0 219.3 140;" xml:space="preserve">
<style type="text/css">
	.st0{fill:#FAFFFF;}
	.st1{fill:#F9BB6E;}
	.st2{fill:#EF8E4D;}
	.st3{fill:#63BAB1;}
	.st4{fill:#645013;}
	.st5{fill:#EBFFFD;}
	.st6{fill:#F8FFFE;}
	.st7{fill:#422D1A;}
	.st8{fill:#5E4226;}
	.st9{opacity:0.24;fill:#FFEFC1;}
	.st10{fill:#75271A;}
	.st11{fill:#FF98B9;}
	.st12{fill:#E8F4FC;}
	.st13{fill:#F3FBFF;}
	.st14{fill:#FFFFFF;}
	.st15{fill:#273F76;}
	.st16{fill:#EAC3A2;}
	.st17{fill:#ECF3FE;}
	.st18{fill:#D67330;}
	.st19{fill:#B9CCD6;}
	.st20{fill:#FAFEFF;}
	.st21{fill:#9DB5C4;}
	.st22{fill:#60BAB1;}
	.st23{fill:#3A9B91;}
	.st24{fill:#82B378;}
	.st25{fill:#6CC8C1;}
	.st26{fill:#144B63;}
	.st27{fill:#327187;}
	.st28{fill:#0E4254;}
	.st29{fill:#B0D4FF;}
	.st30{fill:#5C8097;}
	.st31{fill:url(#SVGID_1_);}
	.st32{fill:url(#SVGID_2_);}
	.st33{fill:#5FB7AE;}
	.st34{fill:#FA7267;}
	.st35{opacity:0.32;fill:#FFFFFF;}
	.st36{fill:#6B3904;}
	.st37{fill:#F64610;}
</style>
<g>
	<path class="st0" d="M206.3,125.7H26.9c-16.3-17.5-5.7-42.2,6.3-45.2s8.7-60,65.5-60.3c20.1-0.1,35.5,7.6,47.8,18
		c2.8,2.3,5.4,4.8,7.8,7.3c0.3,0.3,0.6,0.6,0.9,1c17.3,18.1,27.8,39.9,37.9,45.1C211.3,100.8,206.3,125.7,206.3,125.7z"/>
	<g>
		<g>
			<path class="st1" d="M127.3,83.2l1,1.9c0,0,0.3,0.1,0.9-0.3c0.6-0.4,0.6-1.1,0.6-1.1l-1.4-1.9L127.3,83.2z"/>
			<path class="st2" d="M127.9,84.3c0,0,0.4-0.3,0.7-0.9c0.3-0.6,0.2-1.1,0.2-1.1l-0.2-0.2l-1,1.8L127.9,84.3z"/>
			<g>
				<g>
					<path class="st1" d="M131.9,102.3c0,0,1.8,4.5,2.4,6.1c2.3,4.5,3.5,12.2,3.5,12.2l-0.3,2.7l-0.5,0.4l1.4-0.1l0.8-3.2l-0.3-4.5
						c-0.2-2.8-0.8-5.6-1.9-8.2v0l-0.9-5.9L131.9,102.3z"/>
					<polygon class="st2" points="136.8,107.6 134.3,108.6 133.3,105.7 136.4,105.2 					"/>
					<path class="st1" d="M131,97.7c0,0-1.3,7-1.9,9.7c-0.5,3.8-3.1,13.5-3.1,13.5l-0.4,3.3l-0.5,0.4l1.4-0.1l0.8-3.2l2.9-6.4
						c0.6-1.2,0.9-2.1,1.3-3.8l0.4-2.8l2.8-5.4L131,97.7z"/>
					<path class="st2" d="M129.4,105.7c0,0,1.4,0.3,2,1c0.4,0.6,0.3,1.5,0.3,1.5l1.3-2.6l-3.4-0.9L129.4,105.7z"/>
					<path class="st3" d="M136.4,102.2c-0.1-0.9,0.4-2.3,0.6-4.4c0.2-2.1-1.9-3.9-2-5.1c-1.4,0.3-2.7,0.7-4.1,1.1
						c0.1,1.1,0.3,2.1,0.2,3.1c-0.1,1.6-2.5,8.4-2.5,8.4s3.1,1.1,4.9,1.3c1.8,0.2,3.7-0.5,3.7-0.5S136.5,103.2,136.4,102.2z"/>
					<path class="st3" d="M127.1,121.3l-0.8,3.2l-1.6,0.1c0,0-0.2,0.1-0.1,0.4c0,0.3,0.2,0.2,1,0.2s1.1-0.1,1.1-0.1s0.2,0,0.3-0.6
						c0.1-0.6,0.4-1.8,0.4-1.8l0.5-0.2c0,0,0.2-0.6,0-0.9C127.6,121.3,127.1,121.3,127.1,121.3z"/>
					<polygon class="st4" points="127.8,122.5 127.6,125 127.5,125 127.4,122.7 					"/>
					<path class="st3" d="M139,120.5l-0.8,3.2l-1.6,0.1c0,0-0.2,0.1-0.1,0.4s0.2,0.2,1,0.2c0.7,0,1.1-0.1,1.1-0.1s0.2,0,0.3-0.6
						c0.1-0.6,0.4-1.8,0.4-1.8l0.5-0.2c0,0,0.2-0.6,0-0.9C139.6,120.5,139,120.5,139,120.5z"/>
					<polygon class="st4" points="139.8,121.6 139.5,124.2 139.4,124.2 139.3,121.9 					"/>
					<path class="st5" d="M134.9,92.9c0,0-0.9,0.5-2,0.7c-1,0.2-2.1,0.2-2.1,0.2s0,0.8,0.1,1.7c0.1,0.9-0.1,1.9-0.3,3.1
						s-1,3.4-1,3.4s0.8,0.2,2,0c1.2-0.2,2-1.5,2.3-3.1s0.1-4.8,0.1-4.8l1.3-0.6L134.9,92.9z"/>
					<path class="st2" d="M137,108.2c0,0-0.3-0.5-0.9,0.7c-0.6,1.2-0.5,3-0.5,3s-1-2.6-1.4-3.4c-0.4-0.8,1.6-1.4,1.6-1.4l0.9,0.4
						L137,108.2z"/>
				</g>
				<path class="st3" d="M132.2,85.1c-0.5-1.3-1.8-1.4-2.2-1.4c0,0.1-0.1,0.1-0.1,0.2c0,0.1,0,0.2,0,0.2c-0.1,0.3-0.2,0.6-0.3,0.8
					c-0.1,0.2-0.1,0.4-0.1,0.5c-0.1,0.2,0,0.2-0.1,0c0.2,0.3,0,0.6-0.3,0.7c0,0,0,0.1,0,0.1c0,0,0,0.1-0.1,0.1
					c0,0.1-0.1,0.1-0.1,0.2c-0.1,0.1-0.2,0.2-0.4,0.3c-0.1,0-0.1,0-0.2,0.1c0,0-0.1,0-0.1,0c0,0,0,0,0,0.1c-0.1,0.6-0.3,1.2-0.4,1.8
					c0,0.2-0.1,0.5-0.1,0.7c0,0.2,0,0.4,0.1,0.5c0.4,1,1.7,0.9,2.6,2.9c0.1,0.3,0.3,0.6,0.4,0.9c1-1,2-2,3-3
					C133.2,89,132.6,86.1,132.2,85.1z"/>
				<path class="st1" d="M130.3,94.2c0,0,0.1-0.1,0.1-0.1c0.2-0.3,0.3-0.7,0.5-1.1c0.8-2.1,1.1-4.2,1.1-5.1c0,0,0.3-1.3,0-2.7
					c-0.3-1.3-1.6-1.6-2.2-0.6c-0.6,1-0.3,2.9-0.3,2.9s0.1,3.6-0.4,5.6c-0.5,2-2.5,4.7-2.5,4.7s-1.6,1.7-1.5,1.9
					c0,0.2,1,1.2,1.2,1.1c0.2-0.1,0-1,0-1c0-0.1,0.8-0.7,0.9-0.9c0.2-0.2,0.2-0.5,0.2-0.5s1.6-1.7,2.8-3.9
					C130.2,94.4,130.2,94.3,130.3,94.2z"/>
				<path class="st5" d="M130.4,84.1c0,0,0.9-0.2,1.4,0.5c0.5,0.8,0.4,2.6,0.4,2.6s-0.6,0.2-1.5,0.2s-1.4-0.3-1.4-0.3
					s-0.2-1.8,0.3-2.4C130.1,84.1,130.4,84.1,130.4,84.1z"/>
				<path class="st6" d="M129.5,83.2l0.2,0.3c0,0-0.1,0.5-0.4,1.4c-0.3,0.9-1.1,2.1-1.1,2.1l0,0.2c0,0,0.9-0.5,1.2-1
					s1.3-2.3,1.3-2.5C130.6,83.4,129.5,83.2,129.5,83.2z"/>
			</g>
		</g>
		<g>
			<g>
				<path class="st7" d="M127.5,84.2c0,0-0.5-0.1,0.2-0.8c0.8-0.8,1.5-1.1,1.7-1c0.2,0.1,0.2-0.3,0.2-0.3s-0.2-0.7-0.3-0.8
					c-0.1-0.1-1.3-0.3-1.3-0.3c0,0-2.9,1-2.9,1s0.4,0.9,0.9,1.5s1.2,0.8,1.2,0.8L127.5,84.2z"/>
				<path class="st8" d="M127.2,78.7c0,0,1.1,0,2.1,1.7c1,1.7,0.2,2.5,0.2,2.5s-0.1-0.7-0.3-1.2s-0.4-0.6-0.4-0.6s-1.1-0.6-1.1-0.6
					C127.6,80.4,127.2,78.7,127.2,78.7z"/>
				<path class="st8" d="M124.8,80.5c0,0-0.5,0.9,0.6,2.5s2.1,1.2,2.1,1.2s-0.8-0.4-1.2-0.8c-0.7-0.6-1.1-1.5-1.1-1.5
					s0.7-0.3,0.7-0.4C125.9,81.5,124.8,80.5,124.8,80.5z"/>
				<path class="st1" d="M125.7,82.4l0.1,0.1c0.3,0.4,0.6,0.8,1,1.1c0.3,0.3,0.9,0.4,1,0.3c0.7-0.4,1-1,1-1.4s0-0.8,0-0.8
					s0.4-0.1,0.2-0.7s-0.4-0.5-0.4-0.5s-0.2,0-0.3,0.2c-0.1,0.2-0.1,0.2-0.1,0.2s-0.3-1.1-0.8-1.4c-0.5-0.4-1.7-0.1-2.2,0.9
					C124.7,81.4,125.7,82.4,125.7,82.4z"/>
				<path class="st2" d="M128.9,81c0,0-0.1-0.2-0.2-0.2c-0.1,0-0.3,0.2-0.1,0.5c0.1,0.3,0.2,0.2,0.3,0.2s0-0.2,0-0.3
					c-0.1-0.1-0.1,0-0.1,0s0-0.2,0.1-0.3C128.8,80.8,128.9,81,128.9,81L128.9,81z"/>
				<path class="st8" d="M126.9,80.1c0,0,0.1,0.4,0.5,0.7s0.9,0.2,0.9,0.2s0.1-0.2,0.2-0.3c0.1-0.1,0.2-0.1,0.2-0.1
					s-0.6-1.1-0.8-1.4c-0.2-0.3-0.6-0.4-0.6-0.4s-0.2-0.1-0.3-0.1c-0.1,0-0.2,0.1-0.2,0.1s0.2,0,0.3,0s0.1,0.1,0.1,0.1
					s-0.9,0.1-1.8,1c-0.9,1-0.7,1.6-0.5,2s0.4,0.4,0.4,0.4s0.8-0.5,1.2-1.2C126.9,80.4,126.9,80.1,126.9,80.1z"/>
				<path class="st9" d="M125.2,80c0,0-0.3,0.4,0,0.5c0.3,0.1,1.9-1.2,1.9-1.2s-0.1,0.3-0.2,0.4c-0.1,0.1-1,1-1.6,1.3
					s-0.5-0.3-0.4-0.5S125.2,80,125.2,80z"/>
				<path class="st3" d="M128.4,80.7c0,0-0.6-1.5-1.9-1.1s-1.8,1.4-1.8,1.4l0,0.1c0,0-0.3-0.4,0.3-1.1c0.7-0.7,1.7-1,2.4-0.8
					c0.7,0.2,1.2,1.4,1.2,1.4L128.4,80.7z"/>
			</g>
			<g>
				<g>
					<path class="st10" d="M126.9,81.8C126.9,81.8,126.9,81.8,126.9,81.8c0.1,0.2,0.2,0.3,0.3,0.3c0,0,0,0,0,0
						C127.1,82.1,127,81.9,126.9,81.8z"/>
					<path class="st10" d="M127,81.5c0.2-0.1,0.5,0.3,0.3,0.4C127,82.1,126.8,81.7,127,81.5z"/>
				</g>
				<g>
					<path class="st10" d="M126.2,82.2C126.1,82.2,126.1,82.2,126.2,82.2c0.1,0.2,0.2,0.3,0,0.5c0,0,0,0,0,0
						C126.4,82.6,126.3,82.4,126.2,82.2z"/>
					<path class="st10" d="M125.9,82.2c-0.2,0.1,0,0.6,0.2,0.5C126.4,82.5,126.1,82.1,125.9,82.2z"/>
				</g>
				<path class="st10" d="M127.1,81.2c-0.1,0-0.1,0-0.2,0c-0.1,0-0.1,0-0.2,0c0,0-0.1-0.1,0-0.1c0-0.1,0.1-0.1,0.2-0.2
					c0.1,0,0.2,0,0.3,0C127.2,81.1,127.2,81.2,127.1,81.2z"/>
				<g>
					<g>
						<path class="st10" d="M127.7,82.5c0,0.2-0.1,0.3-0.2,0.4c-0.1,0-0.1,0.1-0.2,0.1c0,0,0,0,0,0c0,0,0,0,0,0c0,0,0,0,0,0l0,0
							c0,0,0,0,0,0c0,0,0,0,0,0l0,0c-0.1-0.1-0.1-0.3-0.1-0.3c0,0-0.2,0.3-0.2,0.2c-0.2-0.5-0.5-1-0.6-1.6c0,0,0,0,0,0
							c0.2,0.5,0.4,1,0.6,1.4c0.1-0.1,0.1-0.2,0.2-0.2c0,0,0.2,0.3,0.2,0.4c0,0,0,0,0,0C127.4,82.9,127.5,82.8,127.7,82.5
							C127.6,82.5,127.7,82.5,127.7,82.5z"/>
					</g>
				</g>
				<g>
					<path class="st10" d="M127.9,83.2c0,0-0.1,0.1-0.1,0.1c-0.1,0-0.1,0-0.2,0c0,0,0,0,0,0c0.1,0.1,0.2,0.1,0.2,0
						C127.8,83.4,127.9,83.3,127.9,83.2C127.9,83.2,127.9,83.2,127.9,83.2z"/>
					<g>
						<path class="st10" d="M127.1,83.1c0,0,0.1,0.1,0.3,0.1c0.1,0,0.1,0,0.2,0c0.1-0.1,0.1-0.2,0.1-0.3c0-0.1-0.1-0.1-0.1-0.1
							S127.4,83,127.1,83.1z"/>
						<path class="st11" d="M127.4,83.2c0.1,0,0.1,0,0.2,0c0.1-0.1,0.1-0.2,0.1-0.3C127.5,83,127.4,83.1,127.4,83.2z"/>
					</g>
				</g>
			</g>
		</g>
	</g>
	<g>
		<g>
			<path class="st12" d="M118.8,113.4l1.8,4v0l3.5,7.7c0.1,0.1,0.2,0.2,0.3,0.2h0c0.3,0,0.4-0.2,0.4-0.5l-2.8-10l-0.4-1.5
				L118.8,113.4z"/>
		</g>
		<path class="st13" d="M120.6,117.4c-0.2-1.8,1.5-2.6,1.5-2.6l-0.4-1.5l-2.9,0.1L120.6,117.4z"/>
		<g>
			<path class="st12" d="M137.7,113.4l1.8,4v0l3.5,7.7c0.1,0.1,0.2,0.2,0.3,0.2h0c0.3,0,0.4-0.2,0.4-0.5l-2.8-10l-0.4-1.5
				L137.7,113.4z"/>
		</g>
		<path class="st13" d="M139.5,117.4c-0.2-1.8,1.5-2.6,1.5-2.6l-0.4-1.5l-2.9,0.1L139.5,117.4z"/>
		<path class="st12" d="M143.8,106.3v6.7c0,0.4-0.3,0.8-0.8,0.8H59.5c-0.4,0-0.8-0.3-0.8-0.8v-6.7c0-0.4,0.3-0.8,0.8-0.8h83.6
			C143.5,105.6,143.8,105.9,143.8,106.3z"/>
		<path class="st13" d="M62.5,113.4l-0.4,1.5l-2.8,10c-0.1,0.2,0.1,0.5,0.4,0.5h0c0.1,0,0.3-0.1,0.3-0.2l3.5-7.7v0l1.8-4L62.5,113.4
			z"/>
		<path class="st13" d="M77.4,113.4l-0.4,1.5l-2.8,10c-0.1,0.2,0.1,0.5,0.4,0.5h0c0.1,0,0.3-0.1,0.3-0.2l3.5-7.7v0l1.8-4L77.4,113.4
			z"/>
		<path class="st12" d="M91.8,82.4v25.8c0,0.5-0.3,0.9-0.8,0.9H59.5c-0.4,0-0.8-0.4-0.8-0.9V82.4c0-0.5,0.3-0.9,0.8-0.9H91
			C91.4,81.6,91.8,82,91.8,82.4z"/>
		<path class="st12" d="M64.7,107.7c0,0-5.8-0.5-6-0.6v-5.3c1.2-1.2,3.6-2.5,3.6-2.5L64.7,107.7z"/>
		<ellipse class="st14" cx="66.9" cy="87.8" rx="0.5" ry="0.6"/>
		<ellipse class="st14" cx="85.9" cy="87.8" rx="0.5" ry="0.6"/>
		<ellipse class="st15" cx="66.9" cy="98.3" rx="0.5" ry="0.6"/>
		<ellipse class="st16" cx="85.9" cy="98.3" rx="0.5" ry="0.6"/>
		<path class="st13" d="M115.9,106.3v6.7c0,0.4-0.3,0.8-0.8,0.8H58.7c-0.4,0-0.8-0.3-0.8-0.8v-6.7c0-0.4,0.3-0.8,0.8-0.8h56.4
			C115.6,105.6,115.9,105.9,115.9,106.3z"/>
		<g>
			<path class="st17" d="M77.1,95.5c0,0-2.1,6.2-1,10.1h3.7C79.8,105.6,81.1,98.4,77.1,95.5z"/>
			<path class="st14" d="M77.1,95.5c0,0,7.4-1,11.4,0l3.1,10.1H79.8C79.8,105.6,81.1,99.5,77.1,95.5z"/>
		</g>
		<path class="st18" d="M117.9,105.3c-0.1,0-0.1-0.1-0.1-0.1C117.8,105.3,117.8,105.3,117.9,105.3z"/>
		<g>
			<path class="st17" d="M62.8,95.5c0,0-2.1,6.2-1,10.1h3.7C65.4,105.6,66.8,98.4,62.8,95.5z"/>
			<path class="st14" d="M62.8,95.5c0,0,7.4-1,11.4,0l3.1,10.1H65.4C65.4,105.6,66.8,99.5,62.8,95.5z"/>
		</g>
		<g>
			<path class="st19" d="M53.9,100v0.6c0,0.2-0.1,0.4-0.2,0.4H30.3c-0.1,0-0.2-0.2-0.2-0.4V100c0-0.2,0.1-0.4,0.2-0.4h23.4
				C53.8,99.6,53.9,99.7,53.9,100z"/>
			<path class="st20" d="M53.9,100v0.6c0,0.2-0.1,0.4-0.1,0.4H35.1c-0.1,0-0.1-0.2-0.1-0.4V100c0-0.2,0.1-0.4,0.1-0.4h18.6
				C53.8,99.6,53.9,99.7,53.9,100z"/>
			<rect x="31.3" y="101" class="st21" width="16.6" height="24.2"/>
			<rect x="36" y="101" class="st13" width="16.6" height="24.2"/>
			<g>
				<g>
					<path class="st21" d="M51.7,123.9H36.9v-22.2h14.8V123.9z M37,123.8h14.5v-21.9H37V123.8z"/>
				</g>
				<g>
					<rect x="37" y="109.1" class="st21" width="14.7" height="0.2"/>
				</g>
				<g>
					<rect x="37" y="116.5" class="st21" width="14.7" height="0.2"/>
				</g>
				<path class="st21" d="M45.8,103.1h-2.7c-0.1,0-0.2-0.1-0.2-0.2l0,0c0-0.1,0.1-0.2,0.2-0.2h2.7c0.1,0,0.2,0.1,0.2,0.2l0,0
					C46,103,45.9,103.1,45.8,103.1z"/>
				<path class="st21" d="M45.8,110.5h-2.7c-0.1,0-0.2-0.1-0.2-0.2l0,0c0-0.1,0.1-0.2,0.2-0.2h2.7c0.1,0,0.2,0.1,0.2,0.2l0,0
					C46,110.4,45.9,110.5,45.8,110.5z"/>
				<path class="st21" d="M45.8,118.1h-2.7c-0.1,0-0.2-0.1-0.2-0.2l0,0c0-0.1,0.1-0.2,0.2-0.2h2.7c0.1,0,0.2,0.1,0.2,0.2l0,0
					C46,118,45.9,118.1,45.8,118.1z"/>
			</g>
		</g>
		<g>
			<g>
				<path class="st22" d="M38,91c0,0-1.4-1.6-0.1-2.6c0,0,0.9-0.6,1.7-0.5c0,0-1.1,1.8-0.7,2c0.4,0.2,1.1-2.1,1.1-2.1
					s2.1-0.2,2.8,0.1c0,0-1.8,1.5-1.4,1.6c0.4,0.1,2.4-1.4,2.4-1.4s2,0.3,1.9,1.6c-0.1,1.2-0.8,1.6-1.1,1.6c-0.3,0-2.1-0.7-2.1-0.5
					c0,0.2,1,1.1,1.8,1.1c0,0-1.4,1.5-2.3,1.1c-0.9-0.4-1-1.2-1.6-1.4c-0.6-0.3-1.1-0.3-0.8,0c0.2,0.3,1.3,0.5,1.6,1.1
					c0.3,0.6,0.6,1-0.3,0.8c-1-0.1-2.5-0.9-2.6-1.7C38,91,38,91,38,91z"/>
				<g>
					<path class="st23" d="M44.6,89.7c0,0-5.4-0.2-6.6,1.3c0,0-0.3,0.8-1.1,1.5l-0.1,0.3c0,0,0.9-1,1.3-1
						C38,91.8,37.5,89.9,44.6,89.7z"/>
					<path class="st24" d="M36.9,92.5c0,0-1.2,0.9-1.2,2.4l0.2,0c0,0,0.4-1.6,1-2.2C37.6,92.1,36.9,92.5,36.9,92.5z"/>
				</g>
			</g>
			<g>
				<path class="st25" d="M33.2,89c0,0,2.2-1.2,1.2-2.9c0,0-0.8-1-1.7-1.3c0,0,0.5,2.5,0,2.5c-0.5,0.1-0.3-2.8-0.3-2.8
					s-2.3-1.1-3.2-1c0,0,1.4,2.4,1,2.4c-0.5-0.1-2.1-2.5-2.1-2.5s-2.4-0.4-2.7,1c-0.4,1.4,0.2,2.1,0.6,2.2c0.3,0.1,2.6,0.1,2.5,0.3
					c-0.1,0.3-1.6,0.8-2.4,0.5c0,0,0.9,2.3,2.2,2.2c1.2-0.1,1.6-0.9,2.4-0.9c0.8-0.1,1.3,0.1,0.9,0.3c-0.4,0.2-1.7,0.1-2.3,0.6
					c-0.6,0.5-1.1,0.8,0,1.1c1.1,0.2,3.2,0.1,3.6-0.8C33.2,89,33.2,89,33.2,89z"/>
				<g>
					<path class="st23" d="M26.4,84.8c0,0,6.1,2,6.8,4.2c0,0,0,1,0.6,2.1v0.4c0,0-0.6-1.5-1-1.7C32.8,89.9,34.1,87.9,26.4,84.8z"/>
					<path class="st23" d="M33.8,91.1c0,0,0.9,1.4,0.4,3.2l-0.2-0.1c0,0,0.2-1.9-0.3-2.9C33.2,90.4,33.8,91.1,33.8,91.1z"/>
				</g>
			</g>
			<g>
				<path class="st25" d="M36.6,87.3c0,0-2.9-1.6-1.5-3.8c0,0,1.1-1.3,2.2-1.7c0,0-0.6,3.3,0,3.3c0.6,0.1,0.4-3.7,0.4-3.7
					s3-1.5,4.2-1.3c0,0-1.9,3.2-1.3,3.1c0.6-0.1,2.7-3.3,2.7-3.3s3.1-0.6,3.6,1.3c0.5,1.8-0.3,2.8-0.8,2.9c-0.5,0.1-3.4,0.1-3.3,0.5
					c0.1,0.4,2.1,1,3.2,0.7c0,0-1.2,3-2.8,2.9c-1.6-0.2-2.1-1.1-3.1-1.2c-1-0.1-1.7,0.2-1.2,0.5c0.5,0.3,2.2,0.1,3,0.8
					c0.8,0.7,1.5,1.1,0,1.4c-1.5,0.3-4.2,0.1-4.7-1C36.6,87.3,36.6,87.3,36.6,87.3z"/>
				<g>
					<path class="st23" d="M45.6,81.8c0,0-8,2.6-9,5.5c0,0,0,1.3-0.8,2.8v0.6c0,0,0.8-2,1.3-2.2C37.2,88.5,35.4,85.9,45.6,81.8z"/>
					<path class="st23" d="M35.9,90.1c0,0-1.2,1.9-0.5,4.2l0.3-0.1c0,0-0.3-2.5,0.3-3.8C36.6,89.1,35.9,90.1,35.9,90.1z"/>
				</g>
			</g>
			<path class="st26" d="M42.2,93.6c0,3.1-2.5,5.6-5.6,5.6c-0.6,0-1.3-0.1-1.9-0.3c-2.2-0.8-3.8-2.9-3.8-5.3H42.2z"/>
			<path class="st27" d="M38.5,93.6c0,2.1-0.5,4.3-2.2,5.2c-0.3,0.2-1.2,0-1.6,0.1c-2.2-0.8-3.8-2.9-3.8-5.3H38.5z"/>
			<path class="st26" d="M42.3,99.5H30.8c0-0.2,0.1-0.4,0.2-0.5c0.1-0.1,0.3-0.2,0.5-0.2h10C41.9,98.8,42.3,99.2,42.3,99.5z"/>
			<path class="st27" d="M36.9,99.5h-6.1c0-0.2,0.1-0.4,0.2-0.5c0.1-0.1,0.3-0.2,0.5-0.2h4.7C36.6,98.8,36.9,99.2,36.9,99.5z"/>
			<rect x="30.7" y="93.6" class="st28" width="11.6" height="0.2"/>
		</g>
		<g>
			<circle class="st26" cx="47.4" cy="96.3" r="2.6"/>
			<g>
				<path class="st26" d="M45.7,98.2l-0.3,1c-0.1,0.2,0.1,0.3,0.2,0.3h0.1c0.1,0,0.1,0,0.2-0.1l0.7-0.7c0.1-0.1,0.1-0.3,0-0.4
					L46,98.1C45.9,98,45.7,98.1,45.7,98.2z"/>
				<path class="st26" d="M49.3,98.2l0.3,1c0.1,0.2-0.1,0.3-0.2,0.3h-0.1c-0.1,0-0.1,0-0.2-0.1l-0.7-0.7c-0.1-0.1-0.1-0.3,0-0.4
					l0.5-0.3C49.1,98,49.3,98.1,49.3,98.2z"/>
			</g>
			<path class="st26" d="M44.8,93.2c-0.5,0.4-0.7,1.1-0.5,1.7c0.1,0.3,0.5,0.5,0.7,0.2l1.6-1.3c0.3-0.2,0.2-0.6-0.1-0.8
				C46,92.7,45.3,92.7,44.8,93.2z"/>
			<path class="st26" d="M50.2,93.4c-0.5-0.5-1.1-0.6-1.7-0.4c-0.3,0.1-0.4,0.5-0.2,0.8l1.5,1.5c0.2,0.2,0.6,0.2,0.7-0.1
				C50.8,94.5,50.6,93.9,50.2,93.4z"/>
			<circle class="st14" cx="47.4" cy="96.3" r="2.2"/>
			<g>
				<g>
					<circle class="st29" cx="48.9" cy="97.2" r="0.1"/>
					<circle class="st29" cx="45.9" cy="95.5" r="0.1"/>
				</g>
				<g>
					<g>
						<circle class="st29" cx="47.4" cy="94.6" r="0.1"/>
						<circle class="st29" cx="47.4" cy="98" r="0.1"/>
					</g>
					<g>
						<circle class="st29" cx="48.3" cy="94.9" r="0.1"/>
						<circle class="st29" cx="46.5" cy="97.7" r="0.1"/>
					</g>
					<g>
						<circle class="st29" cx="48.9" cy="95.5" r="0.1"/>
						<circle class="st29" cx="45.9" cy="97.1" r="0.1"/>
					</g>
					<g>
						<circle class="st29" cx="49.1" cy="96.3" r="0.1"/>
						<circle class="st29" cx="45.7" cy="96.3" r="0.1"/>
					</g>
					<g>
						<circle class="st29" cx="48.2" cy="97.7" r="0.1"/>
						<circle class="st29" cx="46.6" cy="94.8" r="0.1"/>
					</g>
				</g>
			</g>
			<circle class="st26" cx="47.4" cy="96.3" r="0.2"/>
			<path class="st26" d="M46.3,96.3c0.3,0,1-0.1,1-0.1v0.2L46.3,96.3C46.3,96.3,46.3,96.3,46.3,96.3z"/>
			<path class="st26" d="M47.5,95.1c0,0.5,0.1,1.2,0.1,1.2h-0.2L47.5,95.1C47.4,95,47.5,95,47.5,95.1z"/>
		</g>
		<path class="st25" d="M139.4,105.6c0,0-11.7-5.3-13.8-5.3c-2.1,0-11.7,2.6-13.9,2.2c-2.2-0.4-14.3-4.2-16-4.2
			c-1.7,0-27.6,2.8-31.5,7.3c-0.7,0.8,11.3,16.8,18.4,15.9c4.7-0.6,15.2-16,16.5-16.3c1.3-0.2,26.5,0.3,26.5,0.3
			C131.2,105.6,139.4,105.6,139.4,105.6z"/>
		<path class="st25" d="M128.4,105.6c0,0,6.4,3,7.1,2.7c0.6-0.3,3.9-2.6,3.9-2.6l-5.4-0.8L128.4,105.6z"/>
		<path class="st25" d="M82.5,121.5c0,0-0.5,0.7,0,1.7c0,0,0.6,0,1.1-0.4C83.7,122.7,83.5,121.5,82.5,121.5z"/>
		<path class="st25" d="M135.3,108.2c0,0-0.3,0.4-0.1,1.2c0,0,0.7,0.1,1-0.1C136.2,109.2,135.9,108.2,135.3,108.2z"/>
		<path class="st25" d="M89.4,122.3c0,0-3.5,1-3.6,3h10.8c0,0-0.1-0.5-0.4-0.5c-0.3,0-4.6-0.1-4.6-0.1S90.6,122.3,89.4,122.3z"/>
		<path class="st25" d="M102.7,122.3c0,0-3.5,1-3.6,3h10.8c0,0-0.1-0.5-0.4-0.5c-0.3,0-4.6-0.1-4.6-0.1S104,122.3,102.7,122.3z"/>
	</g>
	<path class="st30" d="M207.4,125.7H22c-1,0-1.8-0.4-1.8-0.8l0,0c0-0.4,0.8-0.8,1.8-0.8h185.4c1,0,1.8,0.4,1.8,0.8l0,0
		C209.2,125.4,208.4,125.7,207.4,125.7z"/>
	<linearGradient id="SVGID_1_" gradientUnits="userSpaceOnUse" x1="118.4425" y1="56.6258" x2="154.3825" y2="56.6258">
		<stop  offset="0" style="stop-color:#FFFFFF"/>
		<stop  offset="1" style="stop-color:#BCDFF5"/>
	</linearGradient>
	<path class="st31" d="M154.4,45.5v29.6h-35.9V38.2h28.1C149.3,40.5,151.9,43,154.4,45.5z"/>
	<g>
		<g>
			<linearGradient id="SVGID_2_" gradientUnits="userSpaceOnUse" x1="136.2329" y1="87.2238" x2="136.2329" y2="57.2094">
				<stop  offset="0" style="stop-color:#FFFFFF"/>
				<stop  offset="1" style="stop-color:#BCDFF5"/>
			</linearGradient>
			<path class="st32" d="M154.5,58.2l-0.1,16.9v0.2h-0.1L118,76.2l0-1.1l0.1-10v0l0-2.3l0.1-9.3h0.3l1.5,0l0-1.7l1.3,0l0-2.8l1.2,0
				l0-3.3l0.5,0l0,3.3l1.2,0l0,2.8l1.3,0l0,1.7l1.3,0l0,4.5l3.2,0l0-3.3l4.3,0l0-4.1l5.9,0l-0.1,7.3l2.7,0l0-7.3l5.8,2.3l0,1.8
				l3.6,0c0.5,0.9,1.1,1.9,1.8,2.7c0.1,0.1,0.2,0.2,0.3,0.4C154.3,58,154.4,58.1,154.5,58.2z"/>
			
				<rect x="144.5" y="53.1" transform="matrix(-1 -6.717815e-003 6.717815e-003 -1 289.5031 108.9576)" class="st14" width="0.8" height="1.7"/>
			
				<rect x="131.4" y="58.8" transform="matrix(-1 -6.717854e-003 6.717854e-003 -1 263.2316 120.2269)" class="st14" width="0.8" height="1.7"/>
			
				<rect x="122.2" y="49.7" transform="matrix(-1 -6.688562e-003 6.688562e-003 -1 244.9479 101.8534)" class="st14" width="0.8" height="1.7"/>
			
				<rect x="125.8" y="64.5" transform="matrix(-1 -6.694691e-003 6.694691e-003 -1 251.8796 131.443)" class="st14" width="0.8" height="1.7"/>
			
				<rect x="135.4" y="54.8" transform="matrix(-1 -6.717854e-003 6.717854e-003 -1 271.2035 112.1626)" class="st14" width="0.8" height="1.7"/>
		</g>
		<g>
			<path class="st25" d="M155.3,46.4c-0.3-0.3-0.6-0.6-0.9-1l0,12.5l0,17v0.2h-35.9V38.2c-0.1,0-0.3,0.1-0.4,0.2
				c-0.1,0.1-0.3,0.1-0.4,0.2v37.7h37.6V59C155.1,58.8,155.3,50.2,155.3,46.4z"/>
		</g>
		<circle class="st14" cx="128.4" cy="46.4" r="1.8"/>
		<rect x="116.2" y="75.1" class="st33" width="40.1" height="1.6"/>
		<g>
			<path class="st25" d="M152.5,66.4c-0.5,0.1-2.1-0.6-2.1-0.7c0-0.1,1.4-1.1,1.9-1.2c0.5-0.1,1,0.3,1,0.8
				C153.4,65.9,153,66.4,152.5,66.4z"/>
			<path class="st25" d="M143.2,60c0.3,0.4,0.5,2.1,0.4,2.2c-0.1,0.1-1.6-0.7-1.9-1.2c-0.3-0.4-0.2-1,0.3-1.3
				C142.3,59.5,142.9,59.6,143.2,60z"/>
			<path class="st25" d="M148.1,66c0.1,0.5-0.2,2.2-0.4,2.2c-0.1,0-1.3-1.2-1.5-1.7c-0.1-0.5,0.2-1,0.7-1.2
				C147.4,65.2,147.9,65.5,148.1,66z"/>
			<path class="st25" d="M142.6,63c0.5,0.1,1.9,1.1,1.9,1.3c0,0.1-1.7,0.7-2.2,0.6c-0.5-0.1-0.9-0.6-0.8-1.1
				C141.6,63.3,142.1,63,142.6,63z"/>
			<path class="st25" d="M144,67.3c0.5,0.3,1.6,2.1,1.5,2.3c-0.1,0.2-2.2,0-2.7-0.3c-0.5-0.3-0.7-1-0.4-1.6
				C142.8,67.2,143.5,67,144,67.3z"/>
			<path class="st25" d="M146.7,63.8c-0.4,0.3-2.1,0.6-2.2,0.4c-0.1-0.1,0.7-1.7,1.1-2c0.4-0.3,1-0.2,1.3,0.2
				C147.2,62.9,147.1,63.5,146.7,63.8z"/>
			<path class="st25" d="M149.4,69.9c-0.5,0-2.1-0.7-2.1-0.9c0-0.1,1.5-1,2-1c0.5,0,1,0.4,1,0.9C150.3,69.4,149.9,69.9,149.4,69.9z"
				/>
			<g>
				<path class="st25" d="M146.5,70.8c0,0,1.3-3.7,3.9-5.1l0-0.1C147.7,67,146.5,70.8,146.5,70.8L146.5,70.8z"/>
			</g>
			<g>
				<path class="st25" d="M145.6,70.8L145.6,70.8c0.1-0.1-0.3-6.4-2.3-8.9l-0.1,0C145.2,64.5,145.6,70.7,145.6,70.8z"/>
			</g>
			<g>
				<path class="st25" d="M146.1,70.9c0.1-5.5,2.7-9.7,2.8-9.8l-0.1,0C148.7,61.2,146.1,65.4,146.1,70.9L146.1,70.9z"/>
			</g>
			<g>
				<path class="st14" d="M149.6,60.9c-0.1,0.1-0.8,0.3-0.8,0.2c0,0,0.2-0.6,0.4-0.8c0.1-0.1,0.4-0.1,0.5,0
					C149.7,60.6,149.7,60.8,149.6,60.9z"/>
				<path class="st14" d="M148.7,60.3c0.1,0.2,0.1,0.8,0,0.8c0,0-0.6-0.3-0.7-0.5c-0.1-0.2,0-0.4,0.1-0.5
					C148.4,60.1,148.6,60.1,148.7,60.3z"/>
				<path class="st14" d="M147.9,60.9c0.2,0,0.8,0.2,0.8,0.3c0,0.1-0.5,0.4-0.7,0.4c-0.2,0-0.4-0.1-0.4-0.3
					C147.6,61,147.8,60.9,147.9,60.9z"/>
				<path class="st14" d="M148.2,61.8c0-0.2,0.5-0.7,0.5-0.7c0.1,0,0.2,0.6,0.1,0.8c0,0.2-0.2,0.3-0.4,0.3
					C148.3,62.1,148.2,61.9,148.2,61.8z"/>
				<path class="st14" d="M149.2,61.9c-0.2-0.1-0.4-0.7-0.4-0.7c0,0,0.7,0.1,0.8,0.2s0.2,0.3,0.1,0.5
					C149.6,61.9,149.3,62,149.2,61.9z"/>
				<circle class="st34" cx="148.8" cy="61.1" r="0.1"/>
			</g>
			<g>
				<path class="st25" d="M144.3,70.9L144.3,70.9c-0.2-2.6-3.5-4.8-3.5-4.8l0,0.1C140.8,66.2,144,68.3,144.3,70.9z"/>
			</g>
			<g>
				<path class="st14" d="M139.9,65.9c0.1,0.1,0.8,0.3,0.8,0.2c0,0-0.2-0.6-0.4-0.8s-0.4-0.1-0.5,0
					C139.7,65.6,139.8,65.8,139.9,65.9z"/>
				<path class="st14" d="M140.7,65.3c-0.1,0.2-0.1,0.8,0,0.8c0,0,0.6-0.3,0.7-0.5c0.1-0.2,0-0.4-0.1-0.5
					C141,65,140.8,65.1,140.7,65.3z"/>
				<path class="st14" d="M141.5,65.8c-0.2,0-0.8,0.2-0.8,0.3c0,0.1,0.5,0.4,0.7,0.4c0.2,0,0.4-0.1,0.4-0.3
					C141.9,66,141.7,65.9,141.5,65.8z"/>
				<path class="st14" d="M141.2,66.7c0-0.2-0.5-0.7-0.5-0.7c-0.1,0-0.2,0.6-0.1,0.8c0,0.2,0.2,0.3,0.4,0.3
					C141.2,67.1,141.3,66.9,141.2,66.7z"/>
				<path class="st14" d="M140.3,66.8c0.2-0.1,0.4-0.7,0.4-0.7c0,0-0.7,0.1-0.8,0.2s-0.2,0.3-0.1,0.5S140.1,67,140.3,66.8z"/>
				<circle class="st34" cx="140.7" cy="66.1" r="0.1"/>
			</g>
			<path class="st26" d="M145.8,75.1L145.8,75.1c1.7,0,3.1-1.4,3.1-3.1v-1.2h-6.3V72C142.7,73.7,144.1,75.1,145.8,75.1z"/>
		</g>
	</g>
	<polygon class="st35" points="121.2,75.1 136.2,38.2 141.8,38.2 127.2,75.1 	"/>
	<polygon class="st25" points="145.4,37.2 146.6,38.2 118.4,38.2 117.5,38.5 116.2,38.5 116.2,37.2 	"/>
	<path class="st36" d="M125.9,80.2"/>
	<path class="st37" d="M127.9,82.4"/>
</g>
</svg>
