<svg width="191" height="94" viewBox="0 0 191 94" fill="none" xmlns="http://www.w3.org/2000/svg">
<g clip-path="url(#clip0)">
<path d="M187.372 94H8.32118C-7.94713 78.4077 2.63226 56.4003 14.6089 53.7274C26.5856 51.0544 23.292 0.268154 79.9816 0.000857919C100.043 -0.0882408 115.413 6.77236 127.689 16.0386C130.483 18.0879 133.078 20.3154 135.474 22.5428C135.773 22.8101 136.072 23.0774 136.372 23.4338C153.638 39.5607 164.118 58.9842 174.198 63.6173C192.363 71.8144 187.372 94 187.372 94Z" fill="#FAFFFF"/>
<path d="M164 7.70461V43H120V-1H154.44C157.749 1.74255 160.936 4.72358 164 7.70461Z" fill="url(#paint0_linear)"/>
<path d="M164.291 23.2289L164.169 43.894V44.1385H164.047L119.659 45.239V43.894L119.782 31.6661V28.8537L119.904 17.4818H120.271H122.105V15.4031H123.695V11.9793H125.162V7.94409H125.773V11.9793H127.241V15.4031H128.83V17.4818H130.42V22.9843H134.333V18.9492H139.591V13.9357H146.805L146.683 22.8621H149.984V13.9357L157.077 16.7481V18.9492H161.479C162.09 20.0497 162.824 21.2724 163.68 22.2507C163.802 22.373 163.924 22.4952 164.047 22.7398C164.047 22.9843 164.169 23.1066 164.291 23.2289Z" fill="url(#paint1_linear)"/>
<path d="M152.136 19.1712L153.115 19.1777L153.128 17.099L152.15 17.0924L152.136 19.1712Z" fill="white"/>
<path d="M136.077 26.0891L137.055 26.0957L137.069 24.017L136.091 24.0104L136.077 26.0891Z" fill="white"/>
<path d="M124.893 14.8294L125.872 14.8359L125.885 12.7572L124.907 12.7507L124.893 14.8294Z" fill="white"/>
<path d="M129.089 32.8836L130.067 32.8901L130.081 30.8114L129.103 30.8049L129.089 32.8836Z" fill="white"/>
<path d="M140.901 21.0862L141.879 21.0928L141.893 19.014L140.915 19.0075L140.901 21.0862Z" fill="white"/>
<path d="M165.269 8.80003C164.902 8.43319 164.536 8.06636 164.169 7.57724V22.862V43.6494V43.8939H120.271V-1.22681C120.148 -1.22681 119.904 -1.10453 119.782 -0.982249C119.659 -0.85997 119.415 -0.859974 119.292 -0.737696V45.3613H165.269V24.2071C165.025 23.9626 165.269 13.4466 165.269 8.80003Z" fill="#6CC8C1"/>
<path d="M132.376 11.0009C133.592 11.0009 134.577 10.0155 134.577 8.79989C134.577 7.58431 133.592 6.59888 132.376 6.59888C131.16 6.59888 130.175 7.58431 130.175 8.79989C130.175 10.0155 131.16 11.0009 132.376 11.0009Z" fill="white"/>
<path d="M166.492 43.8938H117.458V45.8503H166.492V43.8938Z" fill="#5FB7AE"/>
<path d="M161.845 33.2557C161.234 33.378 159.278 32.5221 159.278 32.3998C159.278 32.2775 160.989 31.0547 161.601 30.9324C162.212 30.8102 162.824 31.2993 162.824 31.9107C162.946 32.6443 162.457 33.2557 161.845 33.2557Z" fill="#6CC8C1"/>
<path d="M150.474 25.4298C150.84 25.9189 151.085 27.9976 150.963 28.1199C150.84 28.2422 149.006 27.264 148.639 26.6526C148.273 26.1635 148.395 25.4298 149.006 25.063C149.373 24.8184 150.107 24.9407 150.474 25.4298Z" fill="#6CC8C1"/>
<path d="M156.465 32.7666C156.588 33.378 156.221 35.4567 155.976 35.4567C155.854 35.4567 154.387 33.9894 154.142 33.378C154.02 32.7666 154.387 32.1552 154.998 31.9106C155.609 31.7884 156.221 32.1552 156.465 32.7666Z" fill="#6CC8C1"/>
<path d="M149.74 29.0981C150.351 29.2204 152.063 30.4432 152.063 30.6878C152.063 30.81 149.984 31.5437 149.373 31.4214C148.762 31.2992 148.273 30.6878 148.395 30.0764C148.517 29.465 149.129 29.0981 149.74 29.0981Z" fill="#6CC8C1"/>
<path d="M151.452 34.3564C152.063 34.7233 153.408 36.9243 153.286 37.1688C153.164 37.4134 150.596 37.1688 149.984 36.802C149.373 36.4352 149.129 35.5792 149.495 34.8455C149.984 34.2342 150.84 33.9896 151.452 34.3564Z" fill="#6CC8C1"/>
<path d="M154.753 30.0765C154.264 30.4433 152.185 30.8102 152.063 30.5656C151.941 30.4433 152.919 28.4869 153.408 28.12C153.897 27.7532 154.631 27.8755 154.998 28.3646C155.365 28.976 155.242 29.7097 154.753 30.0765Z" fill="#6CC8C1"/>
<path d="M158.055 37.5355C157.444 37.5355 155.487 36.6795 155.487 36.4349C155.487 36.3127 157.321 35.2122 157.933 35.2122C158.544 35.2122 159.155 35.7013 159.155 36.3127C159.155 36.9241 158.666 37.5355 158.055 37.5355Z" fill="#6CC8C1"/>
<path d="M154.509 38.6361C154.509 38.6361 156.098 34.1118 159.278 32.3999V32.2776C155.976 33.9895 154.509 38.6361 154.509 38.6361Z" fill="#6CC8C1"/>
<path d="M153.408 38.636C153.53 38.5137 153.041 30.8101 150.596 27.7532H150.473C152.919 30.9324 153.408 38.5137 153.408 38.636Z" fill="#6CC8C1"/>
<path d="M154.02 38.7582C154.142 32.0329 157.321 26.8972 157.444 26.7749H157.321C157.199 26.8972 154.02 32.0329 154.02 38.7582Z" fill="#6CC8C1"/>
<path d="M158.3 26.5302C158.177 26.6525 157.321 26.897 157.321 26.7748C157.321 26.7748 157.566 26.0411 157.81 25.7965C157.933 25.6743 158.3 25.6743 158.422 25.7965C158.422 26.1634 158.422 26.4079 158.3 26.5302Z" fill="white"/>
<path d="M157.199 25.7966C157.322 26.0411 157.322 26.7748 157.199 26.7748C157.199 26.7748 156.466 26.408 156.343 26.1634C156.221 25.9188 156.343 25.6743 156.466 25.552C156.832 25.552 157.077 25.552 157.199 25.7966Z" fill="white"/>
<path d="M156.221 26.5303C156.465 26.5303 157.199 26.7748 157.199 26.8971C157.199 27.0194 156.588 27.3862 156.343 27.3862C156.099 27.3862 155.854 27.2639 155.854 27.0194C155.854 26.6525 156.099 26.5303 156.221 26.5303Z" fill="white"/>
<path d="M156.588 27.6306C156.588 27.3861 157.199 26.7747 157.199 26.7747C157.322 26.7747 157.444 27.5083 157.322 27.7529C157.322 27.9974 157.077 28.1197 156.832 28.1197C156.71 27.9974 156.588 27.7529 156.588 27.6306Z" fill="white"/>
<path d="M157.81 27.7532C157.566 27.6309 157.321 26.8972 157.321 26.8972C157.321 26.8972 158.177 27.0195 158.3 27.1418C158.422 27.2641 158.544 27.5086 158.422 27.7532C158.3 27.7532 157.933 27.8754 157.81 27.7532Z" fill="white"/>
<path d="M157.322 26.8969C157.389 26.8969 157.444 26.8422 157.444 26.7746C157.444 26.7071 157.389 26.6523 157.322 26.6523C157.254 26.6523 157.199 26.7071 157.199 26.7746C157.199 26.8422 157.254 26.8969 157.322 26.8969Z" fill="#FA7267"/>
<path d="M151.819 38.7583C151.574 35.579 147.539 32.8889 147.539 32.8889V33.0112C147.539 33.0112 151.452 35.579 151.819 38.7583Z" fill="#6CC8C1"/>
<path d="M146.438 32.6444C146.561 32.7667 147.417 33.0112 147.417 32.8889C147.417 32.8889 147.172 32.1553 146.927 31.9107C146.683 31.6662 146.438 31.7884 146.316 31.9107C146.194 32.2776 146.316 32.5221 146.438 32.6444Z" fill="white"/>
<path d="M147.417 31.9107C147.295 32.1553 147.295 32.8889 147.417 32.8889C147.417 32.8889 148.151 32.5221 148.273 32.2775C148.395 32.033 148.273 31.7884 148.151 31.6661C147.784 31.5439 147.539 31.6661 147.417 31.9107Z" fill="white"/>
<path d="M148.395 32.5222C148.15 32.5222 147.417 32.7668 147.417 32.889C147.417 33.0113 148.028 33.3782 148.272 33.3782C148.517 33.3782 148.762 33.2559 148.762 33.0113C148.884 32.7668 148.639 32.6445 148.395 32.5222Z" fill="white"/>
<path d="M148.028 33.6225C148.028 33.378 147.417 32.7666 147.417 32.7666C147.294 32.7666 147.172 33.5003 147.294 33.7448C147.294 33.9894 147.539 34.1117 147.783 34.1117C148.028 34.1117 148.15 33.8671 148.028 33.6225Z" fill="white"/>
<path d="M146.927 33.7451C147.172 33.6228 147.417 32.8892 147.417 32.8892C147.417 32.8892 146.561 33.0114 146.438 33.1337C146.316 33.256 146.194 33.5006 146.316 33.7451C146.438 33.9897 146.683 33.9897 146.927 33.7451Z" fill="white"/>
<path d="M147.417 33.0112C147.484 33.0112 147.539 32.9564 147.539 32.8889C147.539 32.8213 147.484 32.7666 147.417 32.7666C147.349 32.7666 147.294 32.8213 147.294 32.8889C147.294 32.9564 147.349 33.0112 147.417 33.0112Z" fill="#FA7267"/>
<path d="M153.653 43.8937C155.732 43.8937 157.444 42.1818 157.444 40.1031V38.6357H149.74V40.1031C149.863 42.1818 151.574 43.8937 153.653 43.8937Z" fill="#144B63"/>
<path opacity="0.32" d="M123 43L141.204 -1H148L130.282 43H123Z" fill="white"/>
<path d="M131.031 41.7988L132.254 44.1221C132.254 44.1221 132.62 44.2444 133.354 43.7553C134.088 43.2662 134.088 42.4102 134.088 42.4102L132.376 40.0869L131.031 41.7988Z" fill="#F9BB6E"/>
<path d="M131.765 43.144C131.765 43.144 132.254 42.7772 132.62 42.0435C132.987 41.3098 132.865 40.6984 132.865 40.6984L132.62 40.4539L131.398 42.6549L131.765 43.144Z" fill="#EF8E4D"/>
<path d="M136.656 65.1539C136.656 65.1539 138.857 70.6564 139.59 72.6129C142.403 78.1154 143.87 87.5308 143.87 87.5308L143.503 90.8323L142.892 91.3215L144.604 91.1992L145.582 87.2863L145.215 81.7837C144.97 78.3599 144.237 74.9361 142.892 71.7569L141.791 64.5425L136.656 65.1539Z" fill="#F9BB6E"/>
<path d="M142.647 71.6346L139.59 72.8574L138.368 69.3113L142.158 68.7L142.647 71.6346Z" fill="#EF8E4D"/>
<path d="M135.555 59.5291C135.555 59.5291 133.966 68.0886 133.232 71.3901C132.621 76.0367 129.441 87.8977 129.441 87.8977L128.952 91.9328L128.341 92.422L130.053 92.2997L131.031 88.3868L134.577 80.561C135.311 79.0936 135.678 77.9931 136.167 75.9144L136.656 72.4906L140.08 65.8875L135.555 59.5291Z" fill="#F9BB6E"/>
<path d="M133.599 69.3114C133.599 69.3114 135.311 69.6782 136.044 70.5342C136.533 71.2679 136.411 72.3684 136.411 72.3684L138.001 69.1891L133.843 68.0886L133.599 69.3114Z" fill="#EF8E4D"/>
<path d="M142.158 65.0315C142.036 63.931 142.647 62.2191 142.892 59.6512C143.137 57.0834 140.569 54.8824 140.446 53.415C138.735 53.7819 137.145 54.271 135.433 54.7601C135.555 56.1052 135.8 57.328 135.678 58.5507C135.555 60.5072 132.621 68.8221 132.621 68.8221C132.621 68.8221 136.411 70.1672 138.612 70.4117C140.813 70.6563 143.137 69.8004 143.137 69.8004C143.137 69.8004 142.281 66.2543 142.158 65.0315Z" fill="#63BAB1"/>
<path d="M130.786 88.387L129.808 92.2999L127.852 92.4221C127.852 92.4221 127.607 92.5444 127.729 92.9113C127.729 93.2781 127.974 93.1558 128.952 93.1558C129.93 93.1558 130.297 93.0335 130.297 93.0335C130.297 93.0335 130.542 93.0335 130.664 92.2999C130.786 91.5662 131.153 90.0989 131.153 90.0989L131.764 89.8543C131.764 89.8543 132.009 89.1206 131.764 88.7538C131.398 88.387 130.786 88.387 130.786 88.387Z" fill="#63BAB1"/>
<path d="M131.642 89.8542L131.398 92.9112H131.276L131.153 90.0988L131.642 89.8542Z" fill="#645013"/>
<path d="M145.337 87.4087L144.359 91.3216L142.403 91.4439C142.403 91.4439 142.158 91.5662 142.28 91.933C142.403 92.2998 142.525 92.1776 143.503 92.1776C144.359 92.1776 144.848 92.0553 144.848 92.0553C144.848 92.0553 145.093 92.0553 145.215 91.3216C145.337 90.5879 145.704 89.1206 145.704 89.1206L146.316 88.876C146.316 88.876 146.56 88.1424 146.316 87.7755C146.071 87.4087 145.337 87.4087 145.337 87.4087Z" fill="#63BAB1"/>
<path d="M146.316 88.7537L145.949 91.9329H145.827L145.704 89.1205L146.316 88.7537Z" fill="#645013"/>
<path d="M140.324 53.6594C140.324 53.6594 139.223 54.2708 137.878 54.5154C136.656 54.7599 135.311 54.7599 135.311 54.7599C135.311 54.7599 135.311 55.7382 135.433 56.8387C135.555 57.9392 135.311 59.162 135.066 60.6293C134.821 62.0966 133.843 64.7868 133.843 64.7868C133.843 64.7868 134.821 65.0313 136.289 64.7868C137.756 64.5422 138.734 62.9526 139.101 60.9961C139.468 59.0397 139.224 55.1268 139.224 55.1268L140.813 54.3931L140.324 53.6594Z" fill="#EBFFFD"/>
<path d="M142.892 72.3683C142.892 72.3683 142.525 71.7569 141.791 73.2242C141.058 74.6916 141.18 76.8926 141.18 76.8926C141.18 76.8926 139.957 73.7133 139.468 72.7351C138.979 71.7569 141.424 71.0232 141.424 71.0232L142.525 71.5123L142.892 72.3683Z" fill="#EF8E4D"/>
<path d="M137.023 44.1218C136.411 42.5322 134.822 42.4099 134.332 42.4099C134.332 42.5322 134.21 42.5322 134.21 42.6545C134.21 42.7768 134.21 42.899 134.21 42.899C134.088 43.2659 133.966 43.6327 133.843 43.8773C133.721 44.1218 133.721 44.3664 133.721 44.4887C133.599 44.7332 133.721 44.7332 133.599 44.4887C133.843 44.8555 133.599 45.2223 133.232 45.3446V45.4669C133.232 45.4669 133.232 45.5892 133.11 45.5892C133.11 45.7114 132.987 45.7114 132.987 45.8337C132.865 45.956 132.743 46.0783 132.498 46.2006C132.376 46.2006 132.376 46.2006 132.254 46.3228H132.131C132.131 46.3228 132.131 46.3228 132.131 46.4451C132.009 47.1788 131.765 47.9125 131.642 48.6461C131.642 48.8907 131.52 49.2575 131.52 49.5021C131.52 49.7466 131.52 49.9912 131.642 50.1135C132.131 51.3362 133.721 51.214 134.822 53.6595C134.944 54.0264 135.188 54.3932 135.311 54.76C136.533 53.5373 137.756 52.3145 138.979 51.0917C138.245 48.8907 137.512 45.3446 137.023 44.1218Z" fill="#63BAB1"/>
<path d="M134.699 55.2493L134.821 55.127C135.066 54.7602 135.188 54.2711 135.433 53.782C136.411 51.2141 136.778 48.6463 136.778 47.5458C136.778 47.5458 137.145 45.9561 136.778 44.2442C136.411 42.6546 134.821 42.2878 134.088 43.5106C133.354 44.7334 133.721 47.0566 133.721 47.0566C133.721 47.0566 133.843 51.4587 133.232 53.9042C132.62 56.3498 130.175 59.6513 130.175 59.6513C130.175 59.6513 128.218 61.7301 128.34 61.9746C128.34 62.2192 129.563 63.442 129.808 63.3197C130.052 63.1974 129.808 62.0969 129.808 62.0969C129.808 61.9746 130.786 61.2409 130.908 60.9964C131.153 60.7518 131.153 60.385 131.153 60.385C131.153 60.385 133.109 58.3063 134.577 55.6161C134.577 55.4939 134.577 55.3716 134.699 55.2493Z" fill="#F9BB6E"/>
<path d="M134.822 42.8993C134.822 42.8993 135.922 42.6547 136.533 43.5107C137.145 44.4889 137.023 46.6899 137.023 46.6899C137.023 46.6899 136.289 46.9345 135.188 46.9345C134.088 46.9345 133.477 46.5676 133.477 46.5676C133.477 46.5676 133.232 44.3666 133.843 43.633C134.455 42.8993 134.822 42.8993 134.822 42.8993Z" fill="#EBFFFD"/>
<path d="M133.721 41.7986L133.966 42.1654C133.966 42.1654 133.843 42.7768 133.476 43.8773C133.11 44.9778 132.131 46.4452 132.131 46.4452V46.6897C132.131 46.6897 133.232 46.0783 133.599 45.4669C133.966 44.8555 135.188 42.6545 135.188 42.41C135.066 42.0431 133.721 41.7986 133.721 41.7986Z" fill="#F8FFFE"/>
<path d="M131.275 43.0213C131.275 43.0213 130.664 42.899 131.52 42.0431C132.498 41.0649 133.354 40.698 133.599 40.8203C133.843 40.9426 133.843 40.4535 133.843 40.4535C133.843 40.4535 133.599 39.5975 133.476 39.4752C133.354 39.353 131.887 39.1084 131.887 39.1084L128.341 40.3312C128.341 40.3312 128.83 41.4317 129.441 42.1654C130.052 42.899 130.908 43.1436 130.908 43.1436L131.275 43.0213Z" fill="#422D1A"/>
<path d="M130.908 36.2961C130.908 36.2961 132.254 36.2961 133.476 38.3749C134.699 40.4536 133.721 41.4318 133.721 41.4318C133.721 41.4318 133.599 40.5759 133.354 39.9645C133.109 39.3531 132.865 39.2308 132.865 39.2308L131.52 38.4972C131.398 38.3749 130.908 36.2961 130.908 36.2961Z" fill="#5E4226"/>
<path d="M127.974 38.4973C127.974 38.4973 127.362 39.5978 128.707 41.5543C130.052 43.5107 131.275 43.0216 131.275 43.0216C131.275 43.0216 130.297 42.5325 129.808 42.0434C128.952 41.3097 128.463 40.2092 128.463 40.2092C128.463 40.2092 129.319 39.8424 129.319 39.7201L127.974 38.4973Z" fill="#5E4226"/>
<path d="M129.074 40.8204L129.197 40.9427C129.563 41.4318 129.93 41.9209 130.419 42.2877C130.786 42.6546 131.52 42.7768 131.642 42.6546C132.498 42.1655 132.865 41.4318 132.865 40.9427C132.865 40.4536 132.865 39.9644 132.865 39.9644C132.865 39.9644 133.354 39.8422 133.11 39.1085C132.865 38.3748 132.62 38.4971 132.62 38.4971C132.62 38.4971 132.376 38.4971 132.254 38.7417C132.131 38.9862 132.131 38.9862 132.131 38.9862C132.131 38.9862 131.764 37.6412 131.153 37.2743C130.542 36.7852 129.074 37.152 128.463 38.3748C127.852 39.5976 129.074 40.8204 129.074 40.8204Z" fill="#F9BB6E"/>
<path d="M132.987 39.1086C132.987 39.1086 132.865 38.864 132.743 38.864C132.62 38.864 132.376 39.1086 132.62 39.4754C132.743 39.8422 132.865 39.72 132.987 39.72C133.109 39.72 132.987 39.4754 132.987 39.3531C132.865 39.2308 132.865 39.3531 132.865 39.3531C132.865 39.3531 132.865 39.1086 132.987 38.9863C132.865 38.864 132.987 39.1086 132.987 39.1086Z" fill="#EF8E4D"/>
<path d="M130.541 38.008C130.541 38.008 130.663 38.4972 131.152 38.864C131.641 39.2308 132.253 39.1086 132.253 39.1086C132.253 39.1086 132.375 38.864 132.497 38.7417C132.62 38.6194 132.742 38.6194 132.742 38.6194C132.742 38.6194 132.008 37.2744 131.764 36.9075C131.519 36.5407 131.03 36.4184 131.03 36.4184C131.03 36.4184 130.785 36.2961 130.663 36.2961C130.541 36.2961 130.419 36.4184 130.419 36.4184C130.419 36.4184 130.663 36.4184 130.785 36.4184C130.908 36.4184 130.908 36.5407 130.908 36.5407C130.908 36.5407 129.807 36.663 128.707 37.7635C127.606 38.9863 127.851 39.7199 128.095 40.2091C128.34 40.6982 128.584 40.6982 128.584 40.6982C128.584 40.6982 129.563 40.0868 130.052 39.2308C130.541 38.3749 130.541 38.008 130.541 38.008Z" fill="#5E4226"/>
<path opacity="0.24" d="M128.463 37.8857C128.463 37.8857 128.096 38.3748 128.463 38.4971C128.83 38.6194 130.786 37.0298 130.786 37.0298C130.786 37.0298 130.664 37.3966 130.542 37.5189C130.419 37.6412 129.319 38.7417 128.585 39.1085C127.852 39.4754 127.974 38.7417 128.096 38.4971C128.218 38.2526 128.463 37.8857 128.463 37.8857Z" fill="#FFEFC1"/>
<path d="M132.376 38.7416C132.376 38.7416 131.642 36.9074 130.052 37.3965C128.463 37.8856 127.851 39.1084 127.851 39.1084V39.2307C127.851 39.2307 127.485 38.7416 128.218 37.8856C129.074 37.0297 130.297 36.6628 131.153 36.9074C132.009 37.1519 132.62 38.6193 132.62 38.6193L132.376 38.7416Z" fill="#63BAB1"/>
<path d="M130.542 40.0867C130.664 40.3312 130.786 40.4535 130.908 40.4535C130.786 40.4535 130.664 40.2089 130.542 40.0867Z" fill="#75271A"/>
<path d="M130.663 39.7197C130.907 39.5974 131.274 40.0865 131.03 40.2088C130.663 40.4533 130.418 39.9642 130.663 39.7197Z" fill="#75271A"/>
<path d="M129.686 40.5757C129.563 40.5757 129.563 40.5757 129.686 40.5757C129.808 40.8202 129.93 40.9425 129.686 41.1871C129.93 41.0648 129.808 40.8202 129.686 40.5757Z" fill="#75271A"/>
<path d="M129.319 40.5759C129.074 40.6982 129.319 41.3096 129.563 41.1873C129.93 40.9428 129.563 40.4537 129.319 40.5759Z" fill="#75271A"/>
<path d="M130.786 39.3532C130.664 39.3532 130.664 39.3532 130.542 39.3532C130.419 39.3532 130.419 39.3532 130.297 39.3532C130.297 39.3532 130.175 39.2309 130.297 39.2309C130.297 39.1086 130.419 39.1086 130.542 38.9863C130.664 38.9863 130.786 38.9863 130.908 38.9863C130.908 39.2309 130.908 39.3532 130.786 39.3532Z" fill="#75271A"/>
<path d="M131.52 40.9424C131.52 41.187 131.398 41.3093 131.275 41.4316C131.153 41.4316 131.153 41.5538 131.031 41.5538C130.908 41.4315 130.908 41.187 130.908 41.187C130.908 41.187 130.664 41.5538 130.664 41.4316C130.419 40.8202 130.052 40.2088 129.93 39.4751C130.175 40.0865 130.419 40.6979 130.664 41.187C130.786 41.0647 130.786 40.9424 130.908 40.9424C130.908 40.9424 131.153 41.3093 131.153 41.4316C131.153 41.4316 131.275 41.3093 131.52 40.9424C131.398 40.9424 131.52 40.9424 131.52 40.9424Z" fill="#75271A"/>
<path d="M131.764 41.7983L131.642 41.9206C131.52 41.9206 131.52 41.9206 131.397 41.9206C131.52 42.0429 131.642 42.0429 131.642 41.9206C131.642 42.0429 131.764 41.9206 131.764 41.7983Z" fill="#75271A"/>
<path d="M130.786 41.6762C130.786 41.6762 130.908 41.7984 131.153 41.7984C131.275 41.7984 131.275 41.7984 131.398 41.7984C131.52 41.6762 131.52 41.5539 131.52 41.4316C131.52 41.3093 131.398 41.3093 131.398 41.3093C131.398 41.3093 131.153 41.5539 130.786 41.6762Z" fill="#75271A"/>
<path d="M131.153 41.7987C131.275 41.7987 131.275 41.7987 131.398 41.7987C131.52 41.6764 131.52 41.5542 131.52 41.4319C131.275 41.5542 131.153 41.6764 131.153 41.7987Z" fill="#FF98B9"/>
<path d="M120.638 78.727L122.839 83.6182L127.118 93.0336C127.241 93.1559 127.363 93.2782 127.485 93.2782C127.852 93.2782 127.974 93.0336 127.974 92.6668L124.551 80.4389L124.061 78.6047L120.638 78.727Z" fill="#E8F4FC"/>
<path d="M122.839 83.6182C122.594 81.4171 124.673 80.4389 124.673 80.4389L124.184 78.6047L120.638 78.727L122.839 83.6182Z" fill="#F3FBFF"/>
<path d="M143.748 78.727L145.949 83.6182L150.229 93.0336C150.351 93.1559 150.473 93.2782 150.596 93.2782C150.962 93.2782 151.085 93.0336 151.085 92.6668L147.661 80.4389L147.172 78.6047L143.748 78.727Z" fill="#E8F4FC"/>
<path d="M145.949 83.6182C145.705 81.4171 147.783 80.4389 147.783 80.4389L147.294 78.6047L143.748 78.727L145.949 83.6182Z" fill="#F3FBFF"/>
<path d="M151.207 70.0451V78.2378C151.207 78.7269 150.84 79.216 150.229 79.216H48.1262C47.6371 79.216 47.1479 78.8492 47.1479 78.2378V70.0451C47.1479 69.556 47.5148 69.0669 48.1262 69.0669H150.351C150.84 69.1892 151.207 69.556 151.207 70.0451Z" fill="#E8F4FC"/>
<path d="M51.7946 78.7266L51.3055 80.5607L47.8817 92.7886C47.7594 93.0331 48.0039 93.4 48.3708 93.4C48.4931 93.4 48.7376 93.2777 48.7376 93.1554L53.0174 83.74L55.2184 78.8488L51.7946 78.7266Z" fill="#F3FBFF"/>
<path d="M70.0143 78.7266L69.5252 80.5607L66.1014 92.7886C65.9791 93.0331 66.2237 93.4 66.5905 93.4C66.7128 93.4 66.9573 93.2777 66.9573 93.1554L71.2371 83.74L73.4381 78.8488L70.0143 78.7266Z" fill="#F3FBFF"/>
<path d="M87.6221 40.8205V72.3683C87.6221 72.9797 87.2553 73.4688 86.6439 73.4688H48.1262C47.6371 73.4688 47.1479 72.9797 47.1479 72.3683V40.8205C47.1479 40.2091 47.5148 39.72 48.1262 39.72H86.6439C87.133 39.8422 87.6221 40.3314 87.6221 40.8205Z" fill="#E8F4FC"/>
<path d="M54.4847 71.757C54.4847 71.757 47.3925 71.1456 47.1479 71.0233V64.5426C48.6153 63.0752 51.55 61.4856 51.55 61.4856L54.4847 71.757Z" fill="#E8F4FC"/>
<path d="M57.1749 48.1573C57.5125 48.1573 57.7863 47.8288 57.7863 47.4236C57.7863 47.0184 57.5125 46.6899 57.1749 46.6899C56.8372 46.6899 56.5635 47.0184 56.5635 47.4236C56.5635 47.8288 56.8372 48.1573 57.1749 48.1573Z" fill="white"/>
<path d="M80.4078 48.1573C80.7454 48.1573 81.0192 47.8288 81.0192 47.4236C81.0192 47.0184 80.7454 46.6899 80.4078 46.6899C80.0701 46.6899 79.7964 47.0184 79.7964 47.4236C79.7964 47.8288 80.0701 48.1573 80.4078 48.1573Z" fill="white"/>
<path d="M57.1749 60.9964C57.5125 60.9964 57.7863 60.6679 57.7863 60.2627C57.7863 59.8575 57.5125 59.5291 57.1749 59.5291C56.8372 59.5291 56.5635 59.8575 56.5635 60.2627C56.5635 60.6679 56.8372 60.9964 57.1749 60.9964Z" fill="#273F76"/>
<path d="M80.4078 60.9964C80.7454 60.9964 81.0192 60.6679 81.0192 60.2627C81.0192 59.8575 80.7454 59.5291 80.4078 59.5291C80.0701 59.5291 79.7964 59.8575 79.7964 60.2627C79.7964 60.6679 80.0701 60.9964 80.4078 60.9964Z" fill="#EAC3A2"/>
<path d="M117.091 70.0451V78.2378C117.091 78.7269 116.725 79.216 116.113 79.216H47.1481C46.659 79.216 46.1699 78.8492 46.1699 78.2378V70.0451C46.1699 69.556 46.5368 69.0669 47.1481 69.0669H116.113C116.725 69.1892 117.091 69.556 117.091 70.0451Z" fill="#F3FBFF"/>
<path d="M69.6475 56.8389C69.6475 56.8389 67.0796 64.4201 68.4247 69.189H72.949C72.949 69.189 74.5386 60.3849 69.6475 56.8389Z" fill="#ECF3FE"/>
<path d="M69.6475 56.8389C69.6475 56.8389 78.6961 55.6161 83.5872 56.8389L87.3778 69.189H72.949C72.949 69.189 74.5386 61.73 69.6475 56.8389Z" fill="white"/>
<path d="M119.536 68.8215C119.415 68.8215 119.415 68.7 119.415 68.7C119.415 68.8215 119.415 68.8215 119.536 68.8215Z" fill="#D67330"/>
<path d="M52.1616 56.8389C52.1616 56.8389 49.5938 64.4201 50.9388 69.189H55.4632C55.3409 69.189 57.0528 60.3849 52.1616 56.8389Z" fill="#ECF3FE"/>
<path d="M52.1616 56.8389C52.1616 56.8389 61.2102 55.6161 66.1014 56.8389L69.892 69.189H55.3409C55.3409 69.189 57.0528 61.73 52.1616 56.8389Z" fill="white"/>
<path d="M41.2788 62.3414V63.0751C41.2788 63.3196 41.1565 63.5642 41.0342 63.5642H12.4211C12.2988 63.5642 12.1765 63.3196 12.1765 63.0751V62.3414C12.1765 62.0969 12.2988 61.8523 12.4211 61.8523H41.0342C41.1565 61.8523 41.2788 61.9746 41.2788 62.3414Z" fill="#B9CCD6"/>
<path d="M41.2788 62.3414V63.0751C41.2788 63.3196 41.1566 63.5642 41.1566 63.5642H18.2905C18.1682 63.5642 18.1682 63.3196 18.1682 63.0751V62.3414C18.1682 62.0969 18.2905 61.8523 18.2905 61.8523H41.0343C41.1566 61.8523 41.2788 61.9746 41.2788 62.3414Z" fill="#FAFEFF"/>
<path d="M33.942 63.564H13.6438V93.1553H33.942V63.564Z" fill="#9DB5C4"/>
<path d="M39.6891 63.564H19.3909V93.1553H39.6891V63.564Z" fill="#F3FBFF"/>
<path d="M38.5887 91.566H20.4915V64.4202H38.5887V91.566ZM20.6137 91.4437H38.3441V64.6647H20.6137V91.4437Z" fill="#9DB5C4"/>
<path d="M38.5889 73.4688H20.614V73.7133H38.5889V73.4688Z" fill="#9DB5C4"/>
<path d="M38.5889 82.5176H20.614V82.7621H38.5889V82.5176Z" fill="#9DB5C4"/>
<path d="M31.3742 66.1319H28.0727C27.9504 66.1319 27.8281 66.0097 27.8281 65.8874C27.8281 65.7651 27.9504 65.6428 28.0727 65.6428H31.3742C31.4965 65.6428 31.6188 65.7651 31.6188 65.8874C31.6188 66.0097 31.4965 66.1319 31.3742 66.1319Z" fill="#9DB5C4"/>
<path d="M31.3742 75.1805H28.0727C27.9504 75.1805 27.8281 75.0582 27.8281 74.936C27.8281 74.8137 27.9504 74.6914 28.0727 74.6914H31.3742C31.4965 74.6914 31.6188 74.8137 31.6188 74.936C31.6188 75.0582 31.4965 75.1805 31.3742 75.1805Z" fill="#9DB5C4"/>
<path d="M31.3742 84.474H28.0727C27.9504 84.474 27.8281 84.3517 27.8281 84.2294C27.8281 84.1071 27.9504 83.9849 28.0727 83.9849H31.3742C31.4965 83.9849 31.6188 84.1071 31.6188 84.2294C31.6188 84.3517 31.4965 84.474 31.3742 84.474Z" fill="#9DB5C4"/>
<path d="M21.8363 51.3363C21.8363 51.3363 20.1244 49.3798 21.714 48.157C21.714 48.157 22.8145 47.4234 23.7927 47.5456C23.7927 47.5456 22.4476 49.7467 22.9368 49.9912C23.4259 50.2358 24.2818 47.4234 24.2818 47.4234C24.2818 47.4234 26.8497 47.1788 27.7056 47.5456C27.7056 47.5456 25.5046 49.3798 25.9937 49.5021C26.4828 49.6244 28.9284 47.7902 28.9284 47.7902C28.9284 47.7902 31.374 48.157 31.2517 49.7466C31.1294 51.214 30.2735 51.7031 29.9066 51.7031C29.5398 51.7031 27.3388 50.8472 27.3388 51.0917C27.3388 51.3363 28.5616 52.4368 29.5398 52.4368C29.5398 52.4368 27.8279 54.271 26.7274 53.7818C25.6269 53.2927 25.5046 52.3145 24.7709 52.0699C24.0373 51.7031 23.4259 51.7031 23.7927 52.0699C24.0373 52.4368 25.3823 52.6813 25.7492 53.415C26.116 54.1487 26.4828 54.6378 25.3823 54.3932C24.1595 54.271 22.3254 53.2927 22.2031 52.3145C21.8363 51.3363 21.8363 51.3363 21.8363 51.3363Z" fill="#60BAB1"/>
<path d="M29.9069 49.7467C29.9069 49.7467 23.3038 49.5021 21.8365 51.3363C21.8365 51.3363 21.4696 52.3145 20.4914 53.1705L20.3691 53.5373C20.3691 53.5373 21.4696 52.3145 21.9588 52.3145C21.8365 52.3145 21.2251 49.9912 29.9069 49.7467Z" fill="#3A9B91"/>
<path d="M20.4915 53.1705C20.4915 53.1705 19.0242 54.271 19.0242 56.1051H19.2687C19.2687 56.1051 19.7578 54.1487 20.4915 53.415C21.3475 52.6813 20.4915 53.1705 20.4915 53.1705Z" fill="#82B378"/>
<path d="M15.9671 48.891C15.9671 48.891 18.6572 47.4237 17.4344 45.345C17.4344 45.345 16.4562 44.1222 15.3557 43.7553C15.3557 43.7553 15.9671 46.8123 15.3557 46.8123C14.7443 46.9346 14.9889 43.3885 14.9889 43.3885C14.9889 43.3885 12.1765 42.0434 11.076 42.1657C11.076 42.1657 12.7878 45.1004 12.2987 45.1004C11.6873 44.9781 9.73089 42.0434 9.73089 42.0434C9.73089 42.0434 6.7962 41.5543 6.42937 43.2662C5.94025 44.9781 6.67392 45.8341 7.16304 45.9563C7.52987 46.0786 10.3423 46.0786 10.22 46.3232C10.0977 46.69 8.26355 47.3014 7.28532 46.9346C7.28532 46.9346 8.38582 49.747 9.97544 49.6247C11.4428 49.5024 11.9319 48.5242 12.9101 48.5242C13.8884 48.4019 14.4997 48.6465 14.0106 48.891C13.5215 49.1356 11.9319 49.0133 11.1982 49.6247C10.4646 50.2361 9.85316 50.6029 11.1982 50.9698C12.5433 51.2143 15.1111 51.092 15.6003 49.9915C15.9671 48.891 15.9671 48.891 15.9671 48.891Z" fill="#6CC8C1"/>
<path d="M7.6521 43.7554C7.6521 43.7554 15.1111 46.2009 15.967 48.8911C15.967 48.8911 15.967 50.1138 16.7007 51.4589V51.948C16.7007 51.948 15.967 50.1139 15.4779 49.8693C15.4779 49.9916 17.0675 47.546 7.6521 43.7554Z" fill="#3A9B91"/>
<path d="M16.7008 51.4585C16.7008 51.4585 17.8013 53.1704 17.1899 55.3714L16.9453 55.2491C16.9453 55.2491 17.1899 52.9258 16.5785 51.7031C15.9671 50.6025 16.7008 51.4585 16.7008 51.4585Z" fill="#3A9B91"/>
<path d="M20.1246 46.8121C20.1246 46.8121 16.5785 44.8557 18.2904 42.1655C18.2904 42.1655 19.6355 40.5759 20.9806 40.0868C20.9806 40.0868 20.2469 44.122 20.9806 44.122C21.7142 44.2443 21.4697 39.5977 21.4697 39.5977C21.4697 39.5977 25.138 37.7635 26.6054 38.0081C26.6054 38.0081 24.2821 41.921 25.0157 41.7987C25.7494 41.6764 28.3173 37.7635 28.3173 37.7635C28.3173 37.7635 32.1079 37.0298 32.7193 39.3531C33.3307 41.5541 32.3525 42.7769 31.7411 42.8992C31.1297 43.0215 27.5836 43.0215 27.7059 43.5106C27.8281 43.9997 30.2737 44.7334 31.6188 44.3665C31.6188 44.3665 30.1514 48.0349 28.195 47.9126C26.2385 47.6681 25.6271 46.5675 24.4044 46.4453C23.1816 46.323 22.3256 46.6898 22.937 47.0567C23.5484 47.4235 25.6271 47.1789 26.6054 48.0349C27.5836 48.8908 28.4395 49.38 26.6054 49.7468C24.7712 50.1136 21.4697 49.8691 20.8583 48.524C20.1246 46.8121 20.1246 46.8121 20.1246 46.8121Z" fill="#6CC8C1"/>
<path d="M31.1293 40.0869C31.1293 40.0869 21.347 43.2662 20.1242 46.8122C20.1242 46.8122 20.1242 48.4018 19.146 50.236V50.9697C19.146 50.9697 20.1242 48.5241 20.7356 48.2796C20.8579 48.2796 18.6569 45.1003 31.1293 40.0869Z" fill="#3A9B91"/>
<path d="M19.2684 50.236C19.2684 50.236 17.8011 52.5593 18.657 55.3717L19.0238 55.2494C19.0238 55.2494 18.657 52.1925 19.3907 50.6028C20.1244 49.0132 19.2684 50.236 19.2684 50.236Z" fill="#3A9B91"/>
<path d="M26.9723 54.5156C26.9723 58.3063 23.9153 61.3632 20.1247 61.3632C19.391 61.3632 18.535 61.2409 17.8014 60.9964C15.1112 60.0182 13.1548 57.4503 13.1548 54.5156H26.9723Z" fill="#144B63"/>
<path d="M22.4479 54.5156C22.4479 57.0835 21.8366 59.7736 19.7578 60.8741C19.391 61.1187 18.2905 60.8741 17.8014 60.9964C15.1112 60.0182 13.1548 57.4503 13.1548 54.5156H22.4479Z" fill="#327187"/>
<path d="M27.0945 61.7302H13.0325C13.0325 61.4857 13.1548 61.2411 13.277 61.1188C13.3993 60.9965 13.6439 60.8743 13.8884 60.8743H26.1163C26.6054 60.8743 27.0945 61.3634 27.0945 61.7302Z" fill="#144B63"/>
<path d="M20.4915 61.7302H13.0325C13.0325 61.4857 13.1548 61.2411 13.277 61.1188C13.3993 60.9965 13.6439 60.8743 13.8884 60.8743H19.6355C20.1246 60.8743 20.4915 61.3634 20.4915 61.7302Z" fill="#327187"/>
<path d="M27.0942 54.5156H12.9099V54.7602H27.0942V54.5156Z" fill="#0E4254"/>
<path d="M33.3309 60.9964C35.0867 60.9964 36.5101 59.573 36.5101 57.8172C36.5101 56.0613 35.0867 54.6379 33.3309 54.6379C31.575 54.6379 30.1516 56.0613 30.1516 57.8172C30.1516 59.573 31.575 60.9964 33.3309 60.9964Z" fill="#144B63"/>
<path d="M31.252 60.1412L30.8851 61.364C30.7629 61.6085 31.0074 61.7308 31.1297 61.7308H31.252C31.3742 61.7308 31.3742 61.7308 31.4965 61.6085L32.3525 60.7526C32.4747 60.6303 32.4747 60.3858 32.3525 60.2635L31.6188 60.0189C31.4965 59.8966 31.252 60.0189 31.252 60.1412Z" fill="#144B63"/>
<path d="M35.6536 60.1403L36.0205 61.3631C36.1428 61.6076 35.8982 61.7299 35.7759 61.7299H35.6536C35.5314 61.7299 35.5314 61.7299 35.4091 61.6077L34.5531 60.7517C34.4309 60.6294 34.4309 60.3849 34.5531 60.2626L35.1645 59.8958C35.4091 59.8958 35.6536 60.018 35.6536 60.1403Z" fill="#144B63"/>
<path d="M30.1514 54.0266C29.54 54.5158 29.2954 55.3717 29.54 56.1054C29.6623 56.4722 30.1514 56.7168 30.396 56.3499L32.3524 54.7603C32.7192 54.5158 32.597 54.0266 32.2301 53.7821C31.6187 53.4153 30.7628 53.4153 30.1514 54.0266Z" fill="#144B63"/>
<path d="M36.7545 54.271C36.1431 53.6596 35.4094 53.5374 34.6757 53.7819C34.3089 53.9042 34.1866 54.3933 34.4312 54.7601L36.2654 56.5943C36.5099 56.8389 36.999 56.8389 37.1213 56.472C37.4881 55.6161 37.2436 54.8824 36.7545 54.271Z" fill="#144B63"/>
<path d="M33.3308 60.5072C34.8165 60.5072 36.0209 59.3028 36.0209 57.8171C36.0209 56.3314 34.8165 55.127 33.3308 55.127C31.845 55.127 30.6406 56.3314 30.6406 57.8171C30.6406 59.3028 31.845 60.5072 33.3308 60.5072Z" fill="white"/>
<path d="M35.1648 59.0397C35.2323 59.0397 35.287 58.985 35.287 58.9174C35.287 58.8499 35.2323 58.7952 35.1648 58.7952C35.0972 58.7952 35.0425 58.8499 35.0425 58.9174C35.0425 58.985 35.0972 59.0397 35.1648 59.0397Z" fill="#B0D4FF"/>
<path d="M31.4963 56.9611C31.5638 56.9611 31.6186 56.9064 31.6186 56.8388C31.6186 56.7713 31.5638 56.7166 31.4963 56.7166C31.4288 56.7166 31.374 56.7713 31.374 56.8388C31.374 56.9064 31.4288 56.9611 31.4963 56.9611Z" fill="#B0D4FF"/>
<path d="M33.3308 55.8608C33.3983 55.8608 33.4531 55.806 33.4531 55.7385C33.4531 55.671 33.3983 55.6162 33.3308 55.6162C33.2632 55.6162 33.2085 55.671 33.2085 55.7385C33.2085 55.806 33.2632 55.8608 33.3308 55.8608Z" fill="#B0D4FF"/>
<path d="M33.3308 60.0182C33.3983 60.0182 33.4531 59.9635 33.4531 59.896C33.4531 59.8284 33.3983 59.7737 33.3308 59.7737C33.2632 59.7737 33.2085 59.8284 33.2085 59.896C33.2085 59.9635 33.2632 60.0182 33.3308 60.0182Z" fill="#B0D4FF"/>
<path d="M34.4316 56.2277C34.4991 56.2277 34.5539 56.173 34.5539 56.1054C34.5539 56.0379 34.4991 55.9832 34.4316 55.9832C34.3641 55.9832 34.3093 56.0379 34.3093 56.1054C34.3093 56.173 34.3641 56.2277 34.4316 56.2277Z" fill="#B0D4FF"/>
<path d="M32.2304 59.6515C32.298 59.6515 32.3527 59.5968 32.3527 59.5293C32.3527 59.4617 32.298 59.407 32.2304 59.407C32.1629 59.407 32.1082 59.4617 32.1082 59.5293C32.1082 59.5968 32.1629 59.6515 32.2304 59.6515Z" fill="#B0D4FF"/>
<path d="M35.1653 56.9611C35.2328 56.9611 35.2875 56.9064 35.2875 56.8388C35.2875 56.7713 35.2328 56.7166 35.1653 56.7166C35.0977 56.7166 35.043 56.7713 35.043 56.8388C35.043 56.9064 35.0977 56.9611 35.1653 56.9611Z" fill="#B0D4FF"/>
<path d="M31.4968 58.9179C31.5643 58.9179 31.6191 58.8631 31.6191 58.7956C31.6191 58.7281 31.5643 58.6733 31.4968 58.6733C31.4293 58.6733 31.3745 58.7281 31.3745 58.7956C31.3745 58.8631 31.4293 58.9179 31.4968 58.9179Z" fill="#B0D4FF"/>
<path d="M35.4094 57.9394C35.4769 57.9394 35.5317 57.8846 35.5317 57.8171C35.5317 57.7496 35.4769 57.6948 35.4094 57.6948C35.3419 57.6948 35.2871 57.7496 35.2871 57.8171C35.2871 57.8846 35.3419 57.9394 35.4094 57.9394Z" fill="#B0D4FF"/>
<path d="M31.2519 57.9396C31.3195 57.9396 31.3742 57.8849 31.3742 57.8174C31.3742 57.7498 31.3195 57.6951 31.2519 57.6951C31.1844 57.6951 31.1296 57.7498 31.1296 57.8174C31.1296 57.8849 31.1844 57.9396 31.2519 57.9396Z" fill="#B0D4FF"/>
<path d="M34.309 59.6513C34.3766 59.6513 34.4313 59.5965 34.4313 59.529C34.4313 59.4615 34.3766 59.4067 34.309 59.4067C34.2415 59.4067 34.1868 59.4615 34.1868 59.529C34.1868 59.5965 34.2415 59.6513 34.309 59.6513Z" fill="#B0D4FF"/>
<path d="M32.3525 56.1052C32.42 56.1052 32.4748 56.0504 32.4748 55.9829C32.4748 55.9153 32.42 55.8606 32.3525 55.8606C32.285 55.8606 32.2302 55.9153 32.2302 55.9829C32.2302 56.0504 32.285 56.1052 32.3525 56.1052Z" fill="#B0D4FF"/>
<path d="M33.3307 58.0616C33.4658 58.0616 33.5753 57.9521 33.5753 57.8171C33.5753 57.682 33.4658 57.5725 33.3307 57.5725C33.1957 57.5725 33.0862 57.682 33.0862 57.8171C33.0862 57.9521 33.1957 58.0616 33.3307 58.0616Z" fill="#144B63"/>
<path d="M31.9856 57.8171C32.3524 57.8171 33.2084 57.6948 33.2084 57.6948V57.9394L31.9856 57.8171Z" fill="#144B63"/>
<path d="M33.4531 56.3495C33.4531 56.9609 33.5754 57.8169 33.5754 57.8169H33.3308L33.4531 56.3495C33.3308 56.2272 33.4531 56.2272 33.4531 56.3495Z" fill="#144B63"/>
<path d="M145.827 69.189C145.827 69.189 131.52 62.7083 128.952 62.7083C126.384 62.7083 114.646 65.8875 111.956 65.3984C109.265 64.9093 94.4697 60.2627 92.391 60.2627C90.3122 60.2627 58.6421 63.6865 53.8732 69.189C53.0173 70.1672 67.6907 89.7318 76.3725 88.6313C82.1196 87.8976 94.9588 69.0667 96.5484 68.6999C98.1381 68.4553 128.952 69.0667 128.952 69.0667C135.8 69.189 145.827 69.189 145.827 69.189Z" fill="#6CC8C1"/>
<path d="M132.376 69.189C132.376 69.189 140.202 72.8573 141.058 72.4905C141.791 72.1236 145.827 69.3112 145.827 69.3112L139.224 68.333L132.376 69.189Z" fill="#6CC8C1"/>
<path d="M76.2505 88.6313C76.2505 88.6313 75.6391 89.4873 76.2505 90.7101C76.2505 90.7101 76.9842 90.7101 77.5956 90.221C77.7178 90.0987 77.4733 88.6313 76.2505 88.6313Z" fill="#6CC8C1"/>
<path d="M140.813 72.3684C140.813 72.3684 140.446 72.8575 140.691 73.8358C140.691 73.8358 141.547 73.958 141.914 73.7135C141.914 73.5912 141.547 72.3684 140.813 72.3684Z" fill="#6CC8C1"/>
<path d="M84.6877 89.6096C84.6877 89.6096 80.4079 90.8324 80.2856 93.278H93.4917C93.4917 93.278 93.3694 92.6666 93.0026 92.6666C92.6358 92.6666 87.3778 92.5443 87.3778 92.5443C87.3778 92.5443 86.155 89.6096 84.6877 89.6096Z" fill="#6CC8C1"/>
<path d="M100.951 89.6096C100.951 89.6096 96.6709 90.8324 96.5486 93.278H109.755C109.755 93.278 109.632 92.6666 109.266 92.6666C108.899 92.6666 103.641 92.5443 103.641 92.5443C103.641 92.5443 102.54 89.6096 100.951 89.6096Z" fill="#6CC8C1"/>
<path d="M188.4 93.7001H2.99995C1.99995 93.7001 1.19995 93.3001 1.19995 92.9001C1.19995 92.5001 1.99995 92.1001 2.99995 92.1001H188.4C189.4 92.1001 190.2 92.5001 190.2 92.9001C190.2 93.4001 189.4 93.7001 188.4 93.7001Z" fill="#5C8097"/>
</g>
<defs>
<linearGradient id="paint0_linear" x1="119.93" y1="20.9711" x2="163.979" y2="20.9711" gradientUnits="userSpaceOnUse">
<stop stop-color="white"/>
<stop offset="1" stop-color="#BCDFF5"/>
</linearGradient>
<linearGradient id="paint1_linear" x1="141.954" y1="58.7187" x2="141.954" y2="22.0176" gradientUnits="userSpaceOnUse">
<stop stop-color="white"/>
<stop offset="1" stop-color="#BCDFF5"/>
</linearGradient>
<clipPath id="clip0">
<rect width="191" height="94.0002" fill="white"/>
</clipPath>
</defs>
</svg>
