<svg xmlns="http://www.w3.org/2000/svg" viewBox="0 0 1600 787" width="1600" height="787">
	<style>
		tspan { white-space:pre }
		.shp0 { fill: #ffffff } 
		.shp1 { fill: #f6f8fc } 
		.shp2 { opacity: 0.051;fill: #13b0a7 } 
		.shp3 { opacity: 0.078;fill: #738bcd } 
		.shp4 { opacity: 0.051;fill: #738bcd } 
	</style>
	<g id="How We Work">
		<g id="bg">
			<path id="Rectangle 430" class="shp0" d="M0 0L1600 0L1600 787L0 787L0 0Z" />
			<path id="Rectangle 430 copy" class="shp1" d="M0 0L1600 0L1600 787L0 787L0 0Z" />
			<path id="Ellipse 19" class="shp2" d="M1483.5 689C1545.63 689 1596 739.37 1596 801.5C1596 863.63 1545.63 914 1483.5 914C1421.37 914 1371 863.63 1371 801.5C1371 739.37 1421.37 689 1483.5 689Z" />
			<path id="Ellipse 19 copy" class="shp2" d="M1605.5 224C1643.88 224 1675 255.11 1675 293.5C1675 331.88 1643.88 363 1605.5 363C1567.12 363 1536 331.88 1536 293.5C1536 255.11 1567.12 224 1605.5 224Z" />
			<path id="Ellipse 19 copy 2" class="shp3" d="M1627.5 604C1678.03 604 1719 644.96 1719 695.5C1719 746.03 1678.03 787 1627.5 787C1576.97 787 1536 746.03 1536 695.5C1536 644.96 1576.97 604 1627.5 604Z" />
			<path id="Ellipse 19 copy 3" class="shp3" d="M1499.5 160C1512.48 160 1523 170.52 1523 183.5C1523 196.48 1512.48 207 1499.5 207C1486.52 207 1476 196.48 1476 183.5C1476 170.52 1486.52 160 1499.5 160Z" />
			<path id="Ellipse 19 copy 4" class="shp2" d="M-17.99 640C35.02 640 78 682.98 78 736C78 789.02 35.02 832 -17.99 832C-71.01 832 -113.99 789.02 -113.99 736C-113.99 682.98 -71.01 640 -17.99 640Z" />
			<path id="Ellipse 19 copy 6" class="shp2" d="M-61.99 87C8.14 87 65 144.09 65 214.5C65 284.92 8.14 342 -61.99 342C-132.13 342 -188.99 284.92 -188.99 214.5C-188.99 144.09 -132.13 87 -61.99 87Z" />
			<path id="Ellipse 19 copy 8" class="shp4" d="M114.5 65C126.37 65 136 74.85 136 87C136 99.15 126.37 109 114.5 109C102.63 109 93 99.15 93 87C93 74.85 102.63 65 114.5 65Z" />
			<path id="Ellipse 19 copy 5" class="shp3" d="M111 757C124.81 757 136.01 768.19 136.01 781.99C136.01 795.8 124.81 806.99 111 806.99C97.19 806.99 86 795.8 86 781.99C86 768.19 97.19 757 111 757Z" />
		</g>
	</g>
</svg>