<svg width="181" height="131" viewBox="0 0 181 131" fill="none" xmlns="http://www.w3.org/2000/svg">
<g clip-path="url(#clip0)">
<path d="M23.7492 119.949H165.096C166.913 119.949 167.518 79.8983 167.518 77.1301C167.259 60.4349 166.307 32.0618 150.823 23.8439C143.47 19.9513 135.252 23.7574 128.505 27.5636C114.145 35.6949 98.0558 48.1514 81.2741 44.6048C73.5752 42.9612 67.001 37.598 59.9077 34.0513C52.9009 30.5047 45.2886 27.9961 37.6762 27.9096C16.9154 27.7366 10.9466 56.7153 11.8117 76.0056C12.1577 83.4449 13.5417 90.8842 15.5313 97.9775C16.3098 100.4 21.6731 119.949 23.7492 119.949V119.949Z" fill="#FAFFFF"/>
<path d="M132.225 63.8086H103.852V95.2959H132.225V63.8086Z" fill="#3D576B"/>
<path d="M132.225 64.5872H104.63V94.5174H132.225V64.5872Z" fill="url(#paint0_linear)"/>
<path d="M106.274 76.0919L108.955 75.1404L109.907 74.7944V77.9085H112.329L113.107 78.86L113.626 79.3791L113.713 79.4656L114.319 80.2441V90.7975H115.876V83.9638H117.087V79.4656L117.173 79.3791L117.346 79.2926L117.779 78.86L117.952 78.687L118.557 78.2545L118.73 77.995V90.884H119.422V80.3306H120.287V73.2373H122.969V75.3999L123.401 75.5729L125.737 76.6974V79.033L126.429 79.2926L127.208 79.6386V92.1816H128.332V89.4135H129.284V83.3582L129.37 83.1852L130.149 82.4932V77.3895L131.533 74.9674L131.619 74.7079L132.052 74.0158H132.225V94.5172H104.63V89.846H105.063V93.3061H105.668V88.635H106.274V76.0919Z" fill="url(#paint1_linear)"/>
<path d="M116.654 94.5173V82.4933L114.838 79.1196H113.713L111.81 82.9258V94.5173H116.654Z" fill="url(#paint2_linear)"/>
<path d="M131.187 94.5173V92.8737H130.322V86.8185L129.37 85.8669V80.8497L127.467 77.4761H124.007V92.1817H123.402V88.5485H122.883V77.9951L120.547 80.3307V84.7424V85.2614L119.422 86.3859V88.0295H118.99V93.9118H118.644L118.038 94.5173H131.187Z" fill="url(#paint3_linear)"/>
<path d="M107.398 82.5798H105.409V94.5173H109.82V87.8566L107.398 85.9535V82.5798Z" fill="url(#paint4_linear)"/>
<path d="M119.422 80.3307V81.1958L119.855 80.3307H119.422ZM127.208 64.8466L122.623 73.2374L120.374 77.3896V79.5522L123.055 74.6215L128.419 64.7601H127.208V64.8466ZM130.062 86.559L129.284 87.943L128.505 89.4136L128.419 89.5001H130.322V89.6731H131.533V83.8774L130.062 86.559ZM132.138 68.8257L131.619 69.6908L131.446 69.9503L127.381 77.4761L126.429 79.2927L124.007 83.7044L122.882 85.6939L120.806 89.5001L120.374 90.2786H121.585L122.017 89.5001L122.882 87.943L124.007 85.9535L127.208 80.0712L128.073 78.4276L131.533 72.1994L131.706 71.9399L132.225 71.0748L132.398 70.8153V68.6527L132.138 68.8257ZM132.138 78.8602L131.619 79.7252L131.446 79.9847L129.37 83.7909L129.197 84.0504L127.121 87.8565L126.17 89.5001L126.083 89.6731H127.035V90.1056L127.294 89.6731L127.381 89.5001L129.197 86.213L129.37 85.867L131.446 82.1473L131.619 81.8878L132.138 81.0228L132.311 80.7632V78.6006L132.138 78.8602ZM129.37 64.5871L129.284 64.8466L123.401 75.573L121.066 79.8982L120.633 80.7632L119.509 82.8393L118.817 84.0504L118.557 84.4829L118.038 85.5209L117.865 85.7805L117.346 86.6455L117.26 86.905L116.741 87.8565L115.876 89.3271L115.789 89.5001L115.703 89.6731L115.443 90.1921L115.357 90.3651L115.184 90.5382L115.011 90.7977L112.934 94.5173H117.087L117.173 94.4308L117.26 94.1713L117.779 93.3063L117.952 93.0468L118.471 92.0087L118.903 91.2302L119.076 90.8842L119.249 90.5382L119.336 90.3651V90.2786L119.768 89.5001L122.709 84.0504L123.834 82.0608L125.564 78.8602L126.343 77.4761L131.36 68.3067L131.533 68.0472L132.052 67.1822L132.225 66.9227V64.5871H129.37ZM128.419 64.8466H127.208L122.623 73.2374L120.374 77.3896V79.5522L123.055 74.6215L128.419 64.8466ZM126.429 79.2927L124.007 83.7044L122.882 85.6939L120.806 89.5001L120.374 90.2786H121.585L122.017 89.5001L122.882 87.943L124.007 85.9535L127.208 80.0712L128.073 78.4276L131.533 72.1994V70.0368L127.467 77.5626L126.429 79.2927ZM119.422 80.3307V81.1958L119.855 80.3307H119.422ZM117.173 85.2614V83.0988L117.087 83.2718V84.0504H116.654L115.789 85.5209V87.6835L116.654 86.213L117.173 85.2614ZM127.294 64.5871L127.208 64.8466L122.623 73.2374L120.374 77.3896L118.817 80.1577L118.557 80.5902L118.038 81.6283L117.779 81.8878L117.26 82.7528L117.173 83.0123L117.087 83.1853L116.654 83.9639L115.789 85.4344L114.232 88.2891L113.626 89.5001L113.54 89.6731L113.28 90.1921L113.194 90.3651L113.107 90.6247L111.896 92.8737L110.945 94.6038H112.156L114.319 90.6247L114.405 90.3651L114.492 90.1921L114.751 89.6731L114.838 89.5001L115.876 87.6835L116.741 86.213L117.26 85.2614L117.346 85.0019L117.865 84.1369L118.038 83.8774L118.557 82.8393L118.817 82.4068L119.509 81.1958L119.941 80.3307L120.374 79.5522L123.055 74.6215L128.419 64.7601L128.505 64.5006H127.294V64.5871ZM117.173 83.0123L117.087 83.1853L116.654 83.9639L115.789 85.4344L114.232 88.2891L113.626 89.5001H114.232V89.6731H114.751L114.838 89.5001L115.876 87.6835L116.741 86.213L117.26 85.2614L117.346 85.0019V82.8393L117.173 83.0123ZM117.779 71.9399L117.26 72.8049L117.173 73.0644L113.8 79.1197L113.626 79.4657L112.156 82.1473L109.301 87.424L108.177 89.5001L107.744 90.2786H108.955L109.042 90.1056L109.301 89.5866L109.388 89.4136L109.82 88.6351L111.896 84.9154L114.319 80.4172L115.011 79.2062L117.26 75.1405L117.346 74.881L117.865 74.016L118.038 73.7564V71.5939L117.779 71.9399ZM116.827 64.5871L116.741 64.8466L109.993 77.1301L106.966 82.5798L106.274 83.7909L105.409 85.3479L105.149 85.7805L104.63 86.8185V94.3443L105.149 93.3063V93.2198L105.322 92.8737L105.582 92.4412L106.62 90.5382L106.706 90.2786L107.139 89.5001L108.523 86.905L112.934 78.7737L117 71.3344L117.087 71.0748L117.606 70.2098L117.779 69.9503L118.298 68.9122L120.547 64.7601L120.633 64.5006H116.827V64.5871ZM117.346 72.8049L117.26 73.0644L113.886 79.1197L113.713 79.4657L112.242 82.1473L109.388 87.424L108.263 89.5001L107.831 90.2786H109.042L109.128 90.1056L109.388 89.5866L109.474 89.4136L109.907 88.6351L111.983 84.9154L114.405 80.4172L115.097 79.2062L117.346 75.1405L117.433 74.881L117.952 74.016L118.125 73.7564V71.5939L117.952 71.8534L117.346 72.8049ZM109.215 64.5871L109.128 64.8466L105.236 71.9399L104.717 72.9779V75.1405L105.236 74.1025L110.339 64.7601L110.426 64.5006H109.215V64.5871ZM104.63 64.5871V71.2478L105.149 70.2098L108.177 64.7601L108.263 64.5006H104.63V64.5871ZM114.665 64.5871L114.578 64.8466L108.955 75.1405L106.274 79.9847L105.236 81.8878L104.717 82.9258V85.0884L105.236 84.0504L105.495 83.6179L106.101 82.4933L106.36 82.0608L110.08 75.3135L115.876 64.6736L115.962 64.4141H114.665V64.5871ZM117.173 83.0123L117.087 83.1853L116.654 83.9639L115.789 85.4344L114.232 88.2891L113.626 89.5001H114.232V89.6731H114.751L114.838 89.5001L115.876 87.6835L116.741 86.213L117.26 85.2614L117.346 85.0019V82.8393L117.173 83.0123ZM121.844 64.5871L121.758 64.8466L118.557 70.6423L118.038 71.6804L117.865 71.9399L117.346 72.8049L117.26 73.0644L113.886 79.1197L113.713 79.4657L112.242 82.1473L109.388 87.424L108.263 89.5001L107.831 90.2786L107.744 90.5382L105.582 94.5173H106.793L108.955 90.5382L109.042 90.2786L109.128 90.1056L109.388 89.5866L109.474 89.4136L109.907 88.6351L111.983 84.9154L114.405 80.4172L115.097 79.2062L117.346 75.1405L117.433 74.881L117.952 74.016L118.125 73.7564L118.644 72.7184L123.055 64.6736L123.142 64.4141H121.844V64.5871ZM130.062 86.559L129.284 87.943L128.505 89.4136L128.419 89.5001H130.322V89.6731H131.533V83.8774L130.062 86.559ZM132.138 78.8602L131.619 79.7252L131.446 79.9847L129.37 83.7909L129.197 84.0504L127.121 87.8565L126.17 89.5001L126.083 89.6731L125.824 90.1921L125.737 90.3651L125.651 90.6247L123.488 94.6038H124.699L126.862 90.6247L126.948 90.3651L127.035 90.1921L127.121 90.1056L127.381 89.6731L127.467 89.5001L129.284 86.213L129.457 85.867L131.533 82.1473L131.706 81.8878L132.225 81.0228L132.398 80.7632V78.6006L132.138 78.8602ZM132.138 89.5001V90.1921L132.311 89.9326V89.5001H132.138ZM132.225 91.6627L132.052 91.9222L131.533 92.7872L131.36 93.0468L131.1 93.5658L130.581 94.5173H131.792L132.052 94.0848L132.225 93.8253V91.6627ZM130.062 86.559L129.284 87.943L128.505 89.4136L128.419 89.5001H130.322V89.6731H131.533V83.8774L130.062 86.559ZM132.138 68.8257L131.619 69.6908L131.446 69.9503L127.381 77.4761L126.429 79.2927L124.007 83.7044L122.882 85.6939L120.806 89.5001L120.374 90.2786L120.287 90.5382L118.99 92.8737L118.557 93.6523L118.125 94.5173H119.336L121.498 90.5382L121.585 90.2786L122.017 89.5001L122.882 87.943L124.007 85.9535L127.208 80.0712L128.073 78.4276L131.533 72.1994L131.706 71.9399L132.225 71.0748L132.398 70.8153V68.6527L132.138 68.8257ZM132.138 78.8602L131.619 79.7252L131.446 79.9847L129.37 83.7909L129.197 84.0504L127.121 87.8565L126.17 89.5001L126.083 89.6731H127.035V90.1056L127.294 89.6731L127.381 89.5001L129.197 86.213L129.37 85.867L131.446 82.1473L131.619 81.8878L132.138 81.0228L132.311 80.7632V78.6006L132.138 78.8602ZM132.138 82.6663L131.619 83.5314L131.446 83.7909L129.976 86.4725L129.197 87.8565L128.419 89.3271L128.332 89.4136V89.5001V89.5866L128.073 90.1056L127.986 90.2786L127.9 90.5382L127.208 91.7492L125.651 94.6038H129.803L130.754 92.9603L131.533 91.4897L131.706 91.2302L132.138 90.3651V90.2786L132.311 90.0191V82.4933L132.138 82.6663Z" fill="#58595B"/>
<path d="M132.225 89.5002H103.852V90.2788H132.225V89.5002Z" fill="#3D576B"/>
<path d="M132.311 64.1545H131.533V95.0363H132.311V64.1545Z" fill="#3D576B"/>
<path d="M117.952 64.1545H117.173V95.0363H117.952V64.1545Z" fill="#3D576B"/>
<path d="M105.236 64.5872H104.63V64.8467V89.5002H105.236V64.8467H117.173V64.5872H105.236Z" fill="#E8F4FC"/>
<path d="M105.236 90.2788H104.63V90.5383V94.5175H105.236V90.5383H117.173V90.2788H105.236Z" fill="#E8F4FC"/>
<path d="M118.557 90.2788H117.952V90.5383V94.5175H118.557V90.5383H131.533V90.2788H118.557Z" fill="#E8F4FC"/>
<path d="M118.557 64.5872H117.952V64.8467V89.5002H118.557V64.8467H131.446V64.5872H118.557Z" fill="#E8F4FC"/>
<path d="M117.346 63.8086V94.3444C117.346 94.5174 117.433 94.6039 117.606 94.6039C117.779 94.6039 117.865 94.5174 117.865 94.3444V63.8086H117.346Z" fill="#67B5A3"/>
<path d="M104.025 63.8086V94.3444C104.025 94.5174 104.111 94.6039 104.284 94.6039C104.457 94.6039 104.544 94.5174 104.544 94.3444V63.8086H104.025Z" fill="#67B5A3"/>
<path d="M117.519 89.6731H108.869C108.696 89.6731 108.609 89.7596 108.609 89.9326C108.609 90.1056 108.696 90.1921 108.869 90.1921H117.519V89.6731Z" fill="#67B5A3"/>
<path d="M131.792 89.6731H123.142C122.969 89.6731 122.882 89.7596 122.882 89.9326C122.882 90.1056 122.969 90.1921 123.142 90.1921H131.792V89.6731Z" fill="#67B5A3"/>
<path d="M131.619 63.8086V94.3444C131.619 94.5174 131.706 94.6039 131.879 94.6039C132.052 94.6039 132.138 94.5174 132.138 94.3444V63.8086H131.619Z" fill="#67B5A3"/>
<path d="M116.827 115.105C116.395 115.365 116.308 116.057 116.308 116.922C116.308 117.268 116.308 117.095 116.308 117.614C116.308 118.652 116.221 118.825 116.308 119.344C116.395 119.69 116.481 119.949 116.654 120.209C116.914 120.468 117.26 120.468 117.433 120.555C117.692 120.642 118.125 120.642 118.298 120.468C118.384 120.295 118.298 119.344 118.211 118.652C117.951 116.835 117.778 115.192 117.173 115.105C117 115.019 116.913 115.105 116.827 115.105L116.827 115.105Z" fill="#4C423F"/>
<path d="M120.114 115.105C120.547 115.365 120.633 116.057 120.633 116.922C120.633 117.268 120.633 117.095 120.633 117.614C120.633 118.652 120.72 118.825 120.633 119.344C120.547 119.69 120.46 119.949 120.287 120.209C120.028 120.468 119.682 120.468 119.509 120.555C119.249 120.642 118.817 120.642 118.644 120.468C118.557 120.295 118.644 119.344 118.73 118.652C118.99 116.835 119.163 115.192 119.768 115.105C119.941 115.019 120.114 115.105 120.114 115.105L120.114 115.105Z" fill="#4C423F"/>
<path d="M117.346 115.105C117.606 116.662 117.952 119.257 117.952 119.776C117.952 119.949 117.865 120.122 117.865 120.122C117.778 120.209 117.692 120.295 117.173 120.122C117 120.036 116.741 119.949 116.395 119.776C116.481 119.949 116.568 120.036 116.654 120.122C116.914 120.382 117.26 120.382 117.433 120.468C117.692 120.555 118.125 120.555 118.298 120.382C118.384 120.209 118.298 119.257 118.211 118.565C118.038 116.922 117.865 115.451 117.346 115.105L117.346 115.105Z" fill="#353131"/>
<path d="M119.682 120.209C119.163 120.382 119.076 120.209 118.99 120.209C118.903 120.122 118.903 120.036 118.903 119.863C118.903 119.344 119.336 116.835 119.509 115.278C119.076 115.711 118.903 117.095 118.644 118.738C118.557 119.43 118.471 120.468 118.557 120.555C118.73 120.728 119.076 120.728 119.422 120.641C119.682 120.641 119.941 120.555 120.201 120.295C120.374 120.122 120.46 120.036 120.46 119.863C120.201 120.036 119.941 120.122 119.682 120.209L119.682 120.209Z" fill="#353131"/>
<path d="M118.038 101.697C118.644 102.562 118.125 103.514 117.779 105.59C117.519 107.579 117.952 107.147 117.779 110.607C117.779 111.212 117.606 114.586 117.692 116.057C117.692 116.489 117.779 116.662 117.779 116.922C117.865 117.614 118.038 117.787 118.038 118.306C118.038 118.565 118.038 119.084 117.692 119.171C117.433 119.257 117 118.911 116.741 118.565C116.654 118.392 116.568 118.219 116.568 117.268C116.568 116.576 116.568 116.489 116.568 116.143C116.568 115.538 116.481 115.192 116.308 114.5C116.308 114.5 116.049 113.375 115.789 112.337C115.703 111.731 115.357 110.088 115.616 108.185C115.703 107.493 115.876 107.06 115.876 106.109C115.876 105.503 115.876 105.157 115.789 104.379C115.529 102.216 115.443 101.092 115.789 100.832C116.308 100.573 117.433 100.919 118.038 101.697H118.038Z" fill="#F9B087"/>
<path d="M117.692 115.97C117.606 114.586 117.779 111.126 117.779 110.52C117.952 107.06 117.433 107.579 117.779 105.503C118.038 103.514 118.644 102.562 118.038 101.611C117.519 100.832 116.308 100.4 115.789 100.832C115.53 101.005 115.53 101.784 115.703 103.168C115.876 103.081 116.135 102.995 116.395 102.908C116.568 102.908 117.346 102.735 117.692 103.254C117.779 103.427 117.779 103.6 117.779 103.946C117.692 104.725 117.606 105.157 117.519 105.59C117.433 105.936 117.346 106.541 117.433 107.32C117.433 107.666 117.519 107.752 117.519 108.271C117.519 108.531 117.519 108.877 117.606 109.569C117.606 110.261 117.606 110.866 117.606 111.039C117.606 112.683 117.606 112.943 117.519 113.635C117.519 115.884 117.606 114.932 117.606 116.057C117.606 116.23 117.865 117.614 117.952 117.787C118.038 118.046 118.038 118.392 117.865 118.911C118.125 118.738 118.125 118.219 118.125 118.046C118.125 117.527 118.038 117.354 117.865 116.662C117.779 116.576 117.692 116.403 117.692 115.97H117.692Z" fill="#F39474"/>
<path d="M119.163 117.96C119.249 117.787 119.509 116.403 119.509 116.23C119.509 115.105 119.595 116.057 119.595 113.808C119.595 113.115 119.595 112.769 119.509 111.212C119.509 110.953 119.509 110.434 119.509 109.742C119.509 108.963 119.509 108.617 119.595 108.444C119.682 107.839 119.682 107.839 119.682 107.493C119.769 106.714 119.682 106.109 119.595 105.763C119.509 105.33 119.422 104.984 119.336 104.119C119.249 103.687 119.249 103.514 119.422 103.427C119.682 102.995 120.547 103.081 120.72 103.081C120.98 103.081 121.239 103.254 121.412 103.341C121.585 101.957 121.585 101.178 121.325 101.005C120.806 100.659 119.682 101.005 119.076 101.784C118.471 102.649 118.99 103.6 119.336 105.676C119.595 107.666 119.163 107.233 119.336 110.693C119.336 111.299 119.509 114.673 119.422 116.143C119.422 116.576 119.336 116.749 119.336 117.008C119.249 117.7 119.076 117.873 119.076 118.392C119.076 118.652 119.076 119.171 119.336 119.257C119.076 118.652 119.076 118.219 119.163 117.96H119.163Z" fill="#F39474"/>
<path d="M121.066 106.109C121.066 105.503 121.066 105.157 121.152 104.379C121.239 103.946 121.239 103.514 121.239 103.168C121.066 103.081 120.806 102.995 120.547 102.908C120.374 102.908 119.595 102.735 119.249 103.254C119.163 103.427 119.163 103.6 119.163 103.946C119.249 104.725 119.336 105.157 119.422 105.59C119.509 105.936 119.595 106.541 119.509 107.32C119.509 107.666 119.422 107.752 119.422 108.271C119.422 108.531 119.422 108.877 119.336 109.569C119.336 110.261 119.336 110.866 119.336 111.039C119.336 112.683 119.336 112.942 119.422 113.634C119.422 115.884 119.336 114.932 119.336 116.057C119.336 116.23 119.076 117.614 118.99 117.787C118.903 118.046 118.903 118.392 119.076 118.911C119.336 118.998 119.768 118.652 120.028 118.306C120.114 118.133 120.201 117.96 120.201 117.008C120.201 116.316 120.201 116.23 120.201 115.884C120.201 115.278 120.287 114.932 120.46 114.24C120.46 114.24 120.72 113.115 120.979 112.077C121.066 111.472 121.412 109.828 121.152 107.925C121.239 107.406 121.066 107.06 121.066 106.109V106.109Z" fill="#F9B087"/>
<path d="M117.779 84.137H119.163L122.017 84.9155L121.066 93.0468H116.135L115.01 84.9155L117.779 84.137Z" fill="white"/>
<path d="M115.616 85.002C115.876 84.9155 116.395 84.7425 117.346 84.5695C118.125 84.3965 118.298 84.3965 118.471 84.3965C118.73 84.3965 118.99 84.3965 119.422 84.483C120.547 84.656 121.239 84.9155 121.671 85.002C121.844 85.0885 121.931 85.0885 122.104 85.175C122.19 85.2615 122.363 85.2615 122.45 85.348C122.277 85.002 122.104 84.829 122.017 84.829L119.249 84.137H117.779L114.924 84.9155C114.837 84.9155 114.665 85.175 114.405 85.521C114.492 85.4345 114.665 85.348 114.838 85.2615C115.011 85.175 115.27 85.0885 115.616 85.002V85.002Z" fill="#EDECEB"/>
<path d="M122.969 101.87C122.796 99.5344 121.498 94.4307 121.152 93.2196C121.066 92.8736 120.979 92.5276 120.893 92.3546C120.547 91.3166 117.26 91.0571 116.395 92.3546C116.222 92.6141 116.222 92.7871 116.135 93.2196C115.962 94.3442 114.145 101.697 114.318 101.87C115.097 102.649 120.374 103.168 122.969 101.87V101.87Z" fill="#211E27"/>
<path d="M115.443 86.905C115.356 86.905 114.837 87.8566 114.578 88.4621C114.664 88.4621 114.751 88.5486 114.837 88.5486C115.097 88.0296 115.356 87.5971 115.443 87.3376L116.221 92.9603H116.654C116.221 90.5382 115.962 88.5486 115.789 87.8566C115.616 87.2511 115.529 86.9916 115.443 86.9051V86.905Z" fill="#EDECEB"/>
<path d="M121.671 87.3374C121.585 87.3374 121.498 87.5969 121.325 88.3755C121.239 88.981 121.066 90.7975 120.72 93.0466H121.066L121.671 87.8564C121.671 88.1159 121.844 88.462 122.104 88.8945C122.19 88.8079 122.277 88.8079 122.363 88.7215C122.104 88.1159 121.758 87.3374 121.671 87.3374Z" fill="#EDECEB"/>
<path d="M115.011 88.116C115.184 87.8565 115.27 87.597 115.357 87.424L116.135 93.0467H116.568C116.135 90.6246 115.876 88.635 115.703 87.943C115.616 87.3375 115.53 86.9915 115.443 86.9915C115.443 87.078 115.356 87.251 115.356 87.3375C115.356 87.424 115.183 87.77 115.01 88.116H115.011Z" fill="#EDECEB"/>
<path d="M121.671 87.77C121.671 87.597 121.671 87.5105 121.585 87.251C121.498 87.3375 121.412 87.597 121.325 88.2025C121.239 88.808 121.066 90.6246 120.72 92.8737H121.066L121.671 87.77C121.671 88.0295 121.844 88.3755 122.104 88.808C122.19 88.7215 122.277 88.7215 122.363 88.635C122.277 88.7216 122.19 88.7216 122.104 88.808C121.844 88.3755 121.671 88.0295 121.671 87.77H121.671Z" fill="#EDECEB"/>
<path d="M121.066 93.0467C121.066 93.0467 120.806 89.7595 120.806 88.7215C120.806 87.3374 120.979 86.1264 121.066 85.3478C121.066 85.0883 121.152 84.8288 121.152 84.5693L120.547 84.3963C120.46 84.6558 120.46 85.0018 120.46 85.3478C120.374 85.8669 120.287 86.4724 120.287 87.2509C119.768 87.1644 119.163 87.0779 118.471 87.0779C117.865 87.0779 117.346 87.1644 116.827 87.1644C116.74 86.3859 116.74 85.7804 116.654 85.2614C116.654 84.9153 116.567 84.6558 116.567 84.3098L115.962 84.4828C115.962 84.7423 116.049 85.0018 116.049 85.2614C116.135 86.0399 116.308 87.1644 116.308 88.635C116.308 89.4135 116.308 92.9602 116.308 92.9602C116.308 92.9602 115.27 100.14 115.616 100.659C116.395 102.043 121.325 101.87 121.844 100.659C122.017 100.14 121.066 93.0467 121.066 93.0467V93.0467Z" fill="#359591"/>
<path d="M116.654 87.5104C116.654 87.5104 117.26 87.3374 118.211 87.3374C119.422 87.3374 120.287 87.5969 120.287 87.5969C120.287 87.5969 120.46 85.6938 120.72 84.5693L120.547 84.4827C120.46 84.7423 120.46 85.0883 120.46 85.4343C120.373 85.9533 120.287 86.5588 120.287 87.3374C119.768 87.2508 119.162 87.1644 118.47 87.1644C117.865 87.1644 117.346 87.2509 116.827 87.2509C116.74 86.4723 116.74 85.8668 116.654 85.3478C116.654 85.0018 116.567 84.7423 116.567 84.3962L116.394 84.4827C116.481 84.7423 116.481 85.0883 116.567 85.3478C116.654 87.0779 116.654 87.5104 116.654 87.5104L116.654 87.5104Z" fill="#9EE5DB"/>
<path d="M118.73 101.61C118.384 101.61 117.779 101.524 117.692 101.524C117.346 101.437 116.827 101.351 116.308 101.091C116.135 101.005 116.049 100.918 115.962 100.832C115.789 100.572 115.789 100.313 115.875 100.14C115.875 99.7073 115.875 99.1883 115.962 98.7558C116.049 98.1502 116.049 97.5447 116.135 97.0257C116.395 94.8631 116.481 92.5275 116.481 92.095C116.481 91.0569 116.481 90.3649 116.481 89.2404C116.394 87.3373 116.394 86.4723 116.222 85.7802C116.135 85.3477 116.135 85.0017 116.049 84.7422H115.962C115.962 85.0017 116.049 85.2612 116.049 85.5207C116.135 86.2993 116.308 87.4238 116.308 88.8944C116.308 89.6729 116.308 93.2195 116.308 93.2195C116.308 93.2195 115.27 100.399 115.616 100.918C116.395 102.216 120.806 102.129 121.758 101.091C120.374 101.437 119.336 101.61 118.73 101.61V101.61Z" fill="#9EE5DB"/>
<path d="M121.152 93.2197V93.0468C120.374 93.1333 119.509 92.7872 118.557 92.7872C117.606 92.7872 116.654 92.8738 116.135 92.7007V93.1332C116.135 93.1332 116.135 93.1332 116.135 93.2198C116.741 93.3063 117.606 93.4793 118.298 93.4793C119.422 93.5658 120.287 93.3927 121.152 93.2197Z" fill="#9EE5DB"/>
<path d="M121.066 93.0467L121.152 92.3546C120.374 92.4412 119.422 92.6142 118.557 92.5276C117.606 92.5276 116.568 92.3546 116.135 92.1816L116.222 92.8737C116.222 92.8737 116.222 92.8737 116.222 92.9602C116.827 93.0468 117.692 93.2197 118.384 93.2197C119.422 93.3927 120.288 93.3063 121.066 93.0467L121.066 93.0467Z" fill="#7FD6CB"/>
<path d="M122.882 87.1645V86.9915V87.1645C122.796 87.1645 122.709 87.251 122.623 87.1645H122.45L122.623 87.251C122.709 87.251 122.709 87.3375 122.709 87.424V87.597L122.796 87.424C122.796 87.3375 122.883 87.3375 122.969 87.3375H123.142L122.969 87.251C122.882 87.251 122.882 87.1645 122.882 87.1645L122.882 87.1645Z" fill="white"/>
<path d="M115.01 84.9153C114.664 84.9153 111.81 89.673 111.377 92.0086C111.291 92.3546 111.204 92.5276 111.377 92.7006C111.464 92.8736 111.896 92.8736 112.069 92.7872C112.242 92.7872 115.183 88.116 115.27 87.2509C115.443 86.3859 115.443 84.9153 115.01 84.9153V84.9153Z" fill="#F9B087"/>
<path d="M111.377 92.7008C111.55 93.0468 116.914 94.1713 117.433 94.0848C117.606 94.0848 117.692 93.4793 117.606 93.2198C117.519 93.0468 112.761 91.4032 112.156 91.5762C111.55 91.9222 111.204 92.3547 111.377 92.7008V92.7008Z" fill="#F9B087"/>
<path d="M112.502 91.9222C112.502 91.9222 113.886 92.0952 117.605 93.4793C117.605 93.3927 117.605 93.3063 117.519 93.3063C117.432 93.1333 114.318 92.0952 112.848 91.7492C113.799 90.2787 115.183 87.8566 115.27 87.251C115.27 87.078 115.356 86.8185 115.356 86.6455C115.097 86.9915 114.924 87.3375 114.837 87.597C114.405 88.8946 112.415 91.8357 112.502 91.9222H112.502Z" fill="#F39474"/>
<path d="M115.011 84.9153C114.838 84.9153 114.059 86.0398 113.281 87.5104C113.454 87.6834 113.627 87.7699 113.8 87.9429C114.146 88.2024 114.492 88.4619 114.838 88.6349C115.184 88.0294 115.357 87.5969 115.443 87.3374C115.703 86.1263 115.443 84.9153 115.011 84.9153Z" fill="white"/>
<path d="M114.491 88.4621C114.578 88.4621 114.664 88.5487 114.751 88.5487C114.838 88.3757 114.924 88.2892 115.01 88.1161C115.183 87.7701 115.356 87.4241 115.356 87.3376C115.356 87.2511 115.443 87.0781 115.443 86.9916C115.27 86.9051 114.838 87.8566 114.492 88.4622L114.491 88.4621Z" fill="#EDECEB"/>
<path d="M115.011 84.9153C114.924 84.9153 114.751 85.1748 114.405 85.5208C114.492 85.4343 114.665 85.3478 114.838 85.2613C114.924 85.1748 115.097 85.1748 115.27 85.0883C115.183 85.0018 115.097 84.9153 115.011 84.9153V84.9153Z" fill="#EDECEB"/>
<path d="M116.827 93.3062C117 93.1332 117.26 93.2196 117.519 93.3062C117.779 93.3927 117.952 93.6522 117.952 93.9117C118.038 94.1712 117.952 94.7768 117.779 94.9498C117.519 95.2093 116.827 95.0364 116.481 94.7768C116.048 94.4307 116.394 93.6522 116.827 93.3062V93.3062Z" fill="#F9B087"/>
<path d="M122.017 84.9153C122.277 84.9153 124.785 89.673 125.218 92.0951C125.304 92.4411 125.391 92.6141 125.218 92.8736C125.131 93.0466 123.834 91.4896 123.661 91.4031C123.488 91.4031 121.844 88.6349 121.671 87.8564C121.498 86.9049 121.844 84.9153 122.017 84.9153V84.9153Z" fill="#F9B087"/>
<path d="M123.574 91.1435C123.488 91.576 126.862 95.0362 127.381 94.7767C127.381 94.7767 127.9 94.8632 127.986 94.6037C128.159 94.0846 125.045 90.365 124.526 90.365C123.92 90.365 123.574 90.711 123.574 91.1435V91.1435Z" fill="#F9B087"/>
<path d="M124.093 91.5762C123.747 91.1436 122.882 89.8461 122.45 88.981C122.19 88.462 121.931 87.8565 121.585 87.251C121.585 87.5105 121.585 87.6835 121.585 87.8565C121.671 88.635 123.401 91.4032 123.574 91.4032C124.18 92.3547 126.775 95.0363 127.294 94.7768C127.294 94.7768 126.429 94.4308 126.861 94.3443C125.996 93.5657 124.439 92.0087 124.093 91.5762V91.5762Z" fill="#F39474"/>
<path d="M123.574 87.6834C122.882 86.1263 122.104 84.9153 122.017 84.9153C121.585 84.9153 121.585 86.9049 121.671 87.8564C121.671 88.1159 121.844 88.4619 122.104 88.8944C122.363 88.7214 122.709 88.4619 123.055 88.2024C123.228 87.9429 123.401 87.7699 123.574 87.6834V87.6834Z" fill="white"/>
<path d="M122.45 85.4344C122.363 85.3479 122.363 85.2614 122.277 85.1749C122.277 85.1749 122.277 85.0884 122.19 85.0884C122.103 85.0884 122.017 85.1749 122.017 85.3479C122.104 85.3479 122.19 85.4344 122.277 85.4344C122.19 85.2614 122.277 85.3479 122.45 85.4344H122.45Z" fill="#EDECEB"/>
<path d="M121.671 87.3374C121.671 87.3374 121.585 87.3374 121.671 87.3374C121.671 87.5104 121.671 87.6834 121.671 87.8564C121.671 88.1159 121.844 88.462 122.104 88.8945C122.19 88.8079 122.277 88.8079 122.363 88.7215C122.104 88.1159 121.758 87.3374 121.671 87.3374Z" fill="#EDECEB"/>
<path d="M130.841 94.6037C130.841 94.8633 128.851 94.8633 128.159 94.8633C127.38 94.8633 126.775 94.6902 126.775 94.3442C126.775 93.9982 127.38 93.8252 128.159 93.8252C128.937 93.9982 130.841 94.3442 130.841 94.6037Z" fill="#F9B087"/>
<path d="M130.841 94.6037C130.668 94.7767 128.851 94.6903 128.159 94.6903C127.554 94.6903 127.121 94.5172 126.862 94.3442C126.775 94.4308 126.775 94.4308 126.775 94.5172C126.775 94.7768 127.38 95.0363 128.159 95.0363C128.937 94.9497 130.841 94.9497 130.841 94.6037L130.841 94.6037Z" fill="#F39474"/>
<path d="M118.903 85.5209L118.816 80.2442C118.816 80.2442 116.394 78.7736 116.221 80.1577C116.221 80.1577 115.356 83.9638 117.346 83.7908V84.9154C117.346 84.9154 117.778 85.6939 118.297 85.7804C118.816 85.8669 118.903 85.5209 118.903 85.5209L118.903 85.5209Z" fill="#F8A492"/>
<path d="M117.346 81.6282C117.346 81.6282 117.346 81.7147 117.346 81.6282C117.346 81.8012 117.346 81.9742 117.432 81.9742C117.346 81.9742 117.346 81.8012 117.346 81.6282Z" fill="#75271A"/>
<path d="M117.519 81.5417C117.779 81.5417 117.692 81.9743 117.519 81.9743C117.259 81.9743 117.346 81.5417 117.519 81.5417Z" fill="#75271A"/>
<path d="M116.568 81.6283C116.568 81.5418 116.568 81.6283 116.568 81.6283C116.568 81.8013 116.481 81.9743 116.395 81.9743C116.568 81.9743 116.568 81.7148 116.568 81.6283Z" fill="#75271A"/>
<path d="M116.481 81.4553C116.221 81.3688 116.135 81.8878 116.394 81.8878C116.567 81.8878 116.654 81.4553 116.481 81.4553Z" fill="#75271A"/>
<path d="M117.779 81.3688C117.692 81.3688 117.692 81.2823 117.606 81.2823C117.519 81.2823 117.519 81.1957 117.433 81.1957V81.1092C117.519 81.0227 117.606 81.1092 117.692 81.1092C117.779 81.1092 117.865 81.1958 117.865 81.2823C117.952 81.2823 117.779 81.3688 117.779 81.3688V81.3688Z" fill="#75271A"/>
<path d="M116.308 81.1958C116.395 81.1958 116.395 81.1958 116.481 81.1958C116.568 81.1958 116.654 81.1958 116.654 81.1093V81.0228C116.568 80.9363 116.481 80.9363 116.395 80.9363C116.308 80.9363 116.222 80.9363 116.135 81.0228C116.135 81.1093 116.222 81.1958 116.308 81.1958V81.1958Z" fill="#75271A"/>
<path d="M117.519 82.5799C117.433 82.6664 117.26 82.7529 117.173 82.7529C117.087 82.7529 117.087 82.7529 117 82.7529C117 82.6664 117.087 82.4934 117.087 82.4934C117 82.4934 116.827 82.5799 116.827 82.4934C116.914 82.0609 117 81.5419 117.173 81.1094C117.087 81.5419 116.914 81.9744 116.914 82.4069C117 82.4069 117.087 82.3204 117.173 82.4069L117.087 82.7529C117.087 82.6664 117.26 82.6664 117.519 82.5799V82.5799Z" fill="#75271A"/>
<path d="M117.26 83.2718C117.173 83.2718 117.173 83.2718 117.087 83.2718C117 83.2718 117 83.1853 117 83.1853C117 83.2718 117.087 83.2718 117.173 83.3583C117.173 83.3583 117.26 83.3583 117.26 83.2718V83.2718Z" fill="#75271A"/>
<path d="M116.827 82.8394C116.827 82.8394 116.827 83.0124 117 83.0989C117 83.0989 117.087 83.1854 117.173 83.1854C117.26 83.1854 117.346 83.0989 117.346 83.0124C117.346 82.9259 117.346 82.8394 117.346 82.8394C117.346 82.8394 117.087 82.9259 116.827 82.8394V82.8394Z" fill="#75271A"/>
<path d="M116.914 83.0989C116.914 83.0989 117 83.1854 117.087 83.1854C117.173 83.1854 117.26 83.0989 117.26 83.0124C117.173 82.9259 117 82.9259 116.914 83.0989V83.0989Z" fill="#FF98B9"/>
<path d="M108.004 99.102L119.163 104.984L122.796 99.275C122.882 99.102 122.796 98.929 122.623 98.929H108.004C108.004 98.929 107.917 99.102 108.004 99.102V99.102Z" fill="#FCBB03"/>
<path d="M126.948 104.898H125.131V106.714H126.948V104.898Z" fill="#5E7E8E"/>
<path d="M125.131 109.309C125.391 109.309 125.65 109.136 125.91 108.79C126.169 108.444 126.256 107.925 126.256 107.233C126.256 106.541 126.083 105.936 125.91 105.676L125.737 105.763C126.169 106.282 126.169 108.012 125.737 108.617C125.477 108.963 125.218 109.136 124.958 109.05C124.093 108.79 123.488 105.849 123.401 104.811C123.401 104.465 123.315 104.206 123.228 103.86C123.142 103.514 123.055 103.081 123.055 102.648C123.055 102.475 123.055 102.302 123.055 102.216C122.969 101.351 122.969 100.486 122.709 99.7074C122.45 98.7558 121.931 98.1503 121.239 97.7178L121.152 97.8908C122.623 98.7558 122.796 100.659 122.882 102.216C122.882 102.389 122.882 102.562 122.882 102.648C122.882 103.081 122.969 103.427 123.055 103.86C123.142 104.206 123.142 104.465 123.228 104.811C123.228 105.071 123.401 106.109 123.661 107.147C124.007 108.358 124.439 109.05 124.872 109.223C125.045 109.309 125.131 109.309 125.131 109.309V109.309Z" fill="#3D576B"/>
<path d="M116.048 95.2959L115.529 95.6419L115.356 95.3824C115.356 95.2959 115.356 95.2094 115.443 95.2094L115.702 95.0364C115.789 95.0364 115.875 95.0364 115.875 95.1229L116.048 95.2959Z" fill="#6CC8C1"/>
<path d="M120.201 98.9289H111.55C111.55 98.6693 111.723 98.4963 111.896 98.4963H119.855C120.028 98.5828 120.201 98.7558 120.201 98.9289Z" fill="#4A6372"/>
<path d="M111.896 98.5829H119.855L120.028 98.4099L120.633 97.9773C120.72 97.8908 120.72 97.8043 120.806 97.7178C120.806 97.5448 120.893 97.3718 120.893 97.2853L120.806 96.7663L120.72 96.4203L120.633 95.7282C120.46 95.2957 120.114 94.9497 119.768 94.9497H116.913C116.654 94.9497 116.308 95.0362 116.048 95.2092L114.491 96.0743C114.318 96.1608 114.145 96.2473 113.972 96.4203C113.799 96.5068 113.626 96.6798 113.54 96.7663C113.367 96.9393 113.107 97.1123 112.934 97.3718C112.848 97.4583 112.848 97.4583 112.761 97.5448L111.896 98.5829ZM116.567 96.8528C116.394 96.8528 116.308 96.5068 116.394 96.3338L116.74 95.8147L116.827 95.7282H116.913H119.509C119.595 95.7282 119.682 95.8147 119.682 95.9878L119.768 96.5068C119.768 96.6798 119.768 96.7663 119.682 96.8528H119.595H116.567Z" fill="#E8F4FC"/>
<path d="M118.73 96.8528H117.26C117.26 96.7663 117.346 96.5933 117.433 96.5933H118.471C118.644 96.5933 118.73 96.6798 118.73 96.8528Z" fill="#6CC8C1"/>
<path d="M111.896 98.5829H119.855L120.633 98.0638C120.72 97.9773 120.72 97.8908 120.806 97.8043C120.806 97.6313 120.893 97.4583 120.893 97.3718L120.806 96.8528L119.768 97.7178C119.682 97.8043 119.509 97.8908 119.422 97.8908H113.453C113.28 97.8908 113.194 97.7178 113.194 97.5448L113.367 96.9393C113.107 97.1988 112.848 97.4583 112.588 97.7178L111.896 98.5829Z" fill="#6CC8C1"/>
<path opacity="0.2" d="M111.896 98.5829H119.855L120.028 98.4099C112.848 98.5829 112.848 97.3718 112.848 97.3718C112.761 97.4583 112.761 97.4583 112.675 97.5448L111.896 98.5829Z" fill="#29235C"/>
<path opacity="0.5" d="M116.827 98.8425H118.557H116.827C116.827 98.756 116.827 98.756 116.827 98.8425Z" fill="white"/>
<path d="M115.875 96.8529C116.308 97.1989 118.644 96.8529 119.422 96.7664H116.567C116.394 96.7664 116.308 96.4204 116.394 96.2474L116.74 95.7283L116.827 95.6418C116.74 95.7283 115.356 96.5069 115.875 96.8529V96.8529Z" fill="#6CC8C1"/>
<path opacity="0.5" d="M114.059 96.5068C114.059 96.5068 113.107 97.5449 114.059 97.5449C114.059 97.5449 113.713 97.3719 114.059 96.5068Z" fill="white"/>
<path d="M120.806 97.3718L121.325 97.6313L121.412 97.7178V97.8908C121.412 97.9774 121.325 97.9773 121.325 97.9773L120.806 97.8043V97.3718Z" fill="#6CC8C1"/>
<path d="M125.996 106.368C126.283 106.368 126.515 106.136 126.515 105.849C126.515 105.563 126.283 105.33 125.996 105.33C125.71 105.33 125.477 105.563 125.477 105.849C125.477 106.136 125.71 106.368 125.996 106.368Z" fill="#4A6372"/>
<path d="M107.68 119.228L107.986 119.534L127.682 99.8383L127.376 99.5324L107.68 119.228Z" fill="#3D576B"/>
<path d="M108.034 99.5404L107.728 99.8462L127.423 119.542L127.729 119.236L108.034 99.5404Z" fill="#3D576B"/>
<path d="M103.419 99.1885H99.2666V99.5345H103.419V99.1885Z" fill="#3D576B"/>
<path d="M99.2667 98.2368H98.9207V99.5344H99.2667V98.2368Z" fill="#3D576B"/>
<path d="M103.678 100.226H134.214C134.474 100.226 134.647 100.053 134.647 99.7938V99.5343C134.647 99.2748 134.474 99.1018 134.214 99.1018H103.678C103.419 99.1018 103.246 99.2748 103.246 99.5343V99.7938C103.159 100.053 103.419 100.226 103.678 100.226Z" fill="#6CC8C1"/>
<path d="M127.467 119.776C127.706 119.776 127.899 119.583 127.899 119.344C127.899 119.105 127.706 118.911 127.467 118.911C127.228 118.911 127.034 119.105 127.034 119.344C127.034 119.583 127.228 119.776 127.467 119.776Z" fill="#6CC8C1"/>
<path d="M107.917 119.776C108.156 119.776 108.35 119.583 108.35 119.344C108.35 119.105 108.156 118.911 107.917 118.911C107.678 118.911 107.485 119.105 107.485 119.344C107.485 119.583 107.678 119.776 107.917 119.776Z" fill="#6CC8C1"/>
<path d="M126.775 99.102H132.484C132.744 99.102 133.003 98.8425 133.003 98.583V98.3235C133.003 98.064 132.744 97.8044 132.484 97.8044H126.775C126.515 97.8044 126.256 98.064 126.256 98.3235V98.583C126.256 98.8425 126.515 99.102 126.775 99.102V99.102Z" fill="white"/>
<path d="M126.775 95.4687H132.484C132.744 95.4687 133.003 95.2092 133.003 94.9497V94.6902C133.003 94.4307 132.744 94.1711 132.484 94.1711H126.775C126.515 94.1711 126.256 94.4307 126.256 94.6902V94.9497C126.256 95.2092 126.515 95.4687 126.775 95.4687Z" fill="white"/>
<path d="M126.256 97.718H132.225C132.484 97.718 132.744 97.4584 132.744 97.1989V96.9394C132.744 96.6799 132.484 96.4204 132.225 96.4204H126.256C125.996 96.4204 125.737 96.6799 125.737 96.9394V97.1989C125.737 97.4584 125.996 97.718 126.256 97.718Z" fill="#FFDD00"/>
<path d="M126.688 96.3339H132.744C133.003 96.3339 133.263 96.1609 133.263 95.8149V95.5554C133.263 95.2959 133.09 95.0364 132.744 95.0364H126.688C126.429 95.0364 126.169 95.2094 126.169 95.5554V95.8149C126.169 96.1609 126.342 96.3339 126.688 96.3339Z" fill="#5E7E8E"/>
<path d="M124.093 99.102L111.55 107.493L106.966 99.102C106.879 99.0155 106.966 98.8425 107.139 98.8425H124.093C124.093 98.929 124.18 99.0155 124.093 99.102V99.102Z" fill="#FFDD00"/>
<path d="M166.638 121H20.4589C19.6808 121 19 120.5 19 120C19 119.5 19.6808 119 20.4589 119H166.541C167.319 119 168 119.5 168 120C168 120.5 167.416 121 166.638 121V121Z" fill="#5C8097"/>
<path d="M53.1605 90.1921H32.6592V118.825H53.1605V90.1921Z" fill="#9DB5C4"/>
<path d="M55.7557 90.1921H35.2544V118.825H55.7557V90.1921Z" fill="white"/>
<path d="M55.7557 90.1921H35.2544V118.825H55.7557V90.1921Z" fill="#E8F4FC"/>
<path d="M55.7557 114.154H35.2544V114.586H55.7557V114.154Z" fill="#B3C6D4"/>
<path d="M55.7557 114.154H35.2544V114.327H55.7557V114.154Z" fill="#9BB5C4"/>
<path d="M55.7557 90.1921H35.2544V95.8149H55.7557V90.1921Z" fill="#F5FBFF"/>
<path d="M55.7557 95.2959H35.2544V95.6419H55.7557V95.2959Z" fill="#B3C6D4"/>
<path d="M55.7557 95.2959H35.2544V95.4689H55.7557V95.2959Z" fill="#9DB5C4"/>
<path d="M55.7557 90.1921H35.2544V91.4897H55.7557V90.1921Z" fill="#F5FBFF"/>
<path d="M37.2438 91.8357H41.3095C41.6555 91.8357 41.915 92.0952 41.915 92.4412V94.6038C41.915 94.7768 41.742 94.9498 41.569 94.9498H36.8978C36.7248 94.9498 36.5518 94.7768 36.5518 94.6038V92.4412C36.6383 92.0952 36.8978 91.8357 37.2438 91.8357V91.8357Z" fill="#359591"/>
<path d="M37.244 91.8357H41.3961C41.7421 91.8357 41.9151 92.0952 41.9151 92.3547V94.0848C41.9151 94.2578 41.8286 94.3443 41.6556 94.3443H36.8979C36.7249 94.3443 36.6384 94.2578 36.6384 94.0848V92.3547C36.6384 92.0952 36.8979 91.8357 37.244 91.8357V91.8357Z" fill="#3D576B"/>
<path d="M45.4616 94.4308C46.0349 94.4308 46.4997 93.9661 46.4997 93.3928C46.4997 92.8195 46.0349 92.3547 45.4616 92.3547C44.8883 92.3547 44.4236 92.8195 44.4236 93.3928C44.4236 93.9661 44.8883 94.4308 45.4616 94.4308Z" fill="#B9CFD6"/>
<path d="M45.1156 92.3547C44.7696 92.5277 44.5966 92.8738 44.5966 93.3063C44.5966 93.9118 45.0291 94.3443 45.6346 94.3443C45.7211 94.3443 45.8076 94.3443 45.8941 94.3443C45.7211 94.4308 45.6346 94.4308 45.4616 94.4308C44.8561 94.4308 44.4236 93.9983 44.4236 93.3928C44.4236 92.8738 44.6831 92.5277 45.1156 92.3547V92.3547Z" fill="#ABC1C6"/>
<path d="M45.4616 94.1713C45.8916 94.1713 46.2402 93.8228 46.2402 93.3928C46.2402 92.9628 45.8916 92.6143 45.4616 92.6143C45.0317 92.6143 44.6831 92.9628 44.6831 93.3928C44.6831 93.8228 45.0317 94.1713 45.4616 94.1713Z" fill="#3D576B"/>
<path d="M45.4616 94.1713C45.8916 94.1713 46.2402 93.8228 46.2402 93.3928C46.2402 92.9628 45.8916 92.6143 45.4616 92.6143C45.0317 92.6143 44.6831 92.9628 44.6831 93.3928C44.6831 93.8228 45.0317 94.1713 45.4616 94.1713Z" fill="#3D576B"/>
<path d="M45.2022 92.6143C45.1157 92.7008 45.0292 92.8738 45.0292 93.0468C45.0292 93.4793 45.3752 93.8253 45.8077 93.8253C45.8942 93.8253 45.8942 93.8253 45.9807 93.8253C45.8077 93.9983 45.6347 94.0848 45.3752 94.0848C44.9427 94.0848 44.5967 93.7388 44.5967 93.3063C44.6832 93.0468 44.9427 92.7008 45.2022 92.6143Z" fill="#184670"/>
<path d="M39.8389 92.0952H41.4825C41.4825 92.0952 41.569 92.0952 41.569 92.1817V92.7007C41.569 92.7007 41.569 92.7872 41.4825 92.7872H39.8389C39.8389 92.7872 39.7524 92.7872 39.7524 92.7007L39.8389 92.0952C39.7524 92.1817 39.7524 92.0952 39.8389 92.0952V92.0952Z" fill="#CCD9E2"/>
<path d="M53.4201 91.8357H54.7176C54.8041 91.8357 54.8906 91.9222 54.8906 92.0087V92.3547C54.8906 92.4412 54.8041 92.5277 54.7176 92.5277H53.4201C53.3336 92.5277 53.2471 92.4412 53.2471 92.3547V92.0087C53.2471 91.9222 53.3336 91.8357 53.4201 91.8357V91.8357Z" fill="#D82156"/>
<path d="M53.4201 91.8357H54.6311C54.7176 91.8357 54.8041 91.9222 54.8041 92.0087V92.2682C54.8041 92.3547 54.7176 92.4412 54.6311 92.4412H53.4201C53.3336 92.4412 53.2471 92.3547 53.2471 92.2682V92.0087C53.2471 91.9222 53.3336 91.8357 53.4201 91.8357Z" fill="#6CC8C1"/>
<path d="M53.4202 91.8357H53.5067V92.1817C53.5067 92.2682 53.5932 92.3547 53.6797 92.3547H54.8042C54.8042 92.4412 54.7177 92.4412 54.6312 92.4412H53.3337C53.2471 92.4412 53.1606 92.3547 53.1606 92.2682V91.9222C53.2471 91.9222 53.3337 91.8357 53.4202 91.8357V91.8357Z" fill="#359591"/>
<path d="M47.1917 92.0952H47.7973C47.8838 92.0952 47.8838 92.0952 47.8838 92.1817V92.3547C47.8838 92.4412 47.8838 92.4412 47.7973 92.4412H47.1917C47.1052 92.4412 47.1052 92.4412 47.1052 92.3547L47.1917 92.0952C47.1052 92.0952 47.1052 92.1817 47.1917 92.0952Z" fill="#6CC8C1"/>
<path d="M47.1917 92.7007H47.7973C47.8838 92.7007 47.8838 92.7007 47.8838 92.7872V92.9602C47.8838 93.0467 47.8838 93.0467 47.7973 93.0467H47.1917C47.1052 93.0467 47.1052 93.0467 47.1052 92.9602L47.1917 92.7007C47.1052 92.7007 47.1052 92.7007 47.1917 92.7007Z" fill="#6CC8C1"/>
<path d="M47.1917 93.3062H47.7973C47.8838 93.3062 47.8838 93.3062 47.8838 93.3927V93.5657C47.8838 93.6522 47.8838 93.6522 47.7973 93.6522H47.1917C47.1052 93.6522 47.1052 93.6522 47.1052 93.5657L47.1917 93.3062C47.1052 93.3062 47.1052 93.3062 47.1917 93.3062Z" fill="#6CC8C1"/>
<path d="M47.1917 93.9119H47.7973C47.8838 93.9119 47.8838 93.9119 47.8838 93.9984V94.1714C47.8838 94.2579 47.8838 94.2579 47.7973 94.2579H47.1917C47.1052 94.2579 47.1052 94.2579 47.1052 94.1714L47.1917 93.9119C47.1052 93.9119 47.1052 93.9119 47.1917 93.9119Z" fill="#6CC8C1"/>
<path d="M47.1917 94.5173H47.7973C47.8838 94.5173 47.8838 94.5173 47.8838 94.6038V94.7768C47.8838 94.8634 47.8838 94.8633 47.7973 94.8633H47.1917C47.1052 94.8633 47.1052 94.8634 47.1052 94.7768L47.1917 94.5173C47.1052 94.5173 47.1052 94.5173 47.1917 94.5173Z" fill="#6CC8C1"/>
<path d="M43.0396 92.0952H43.6452C43.7317 92.0952 43.7317 92.0952 43.7317 92.1817V92.3547C43.7317 92.4412 43.7317 92.4412 43.6452 92.4412H43.0396C42.9531 92.4412 42.9531 92.4412 42.9531 92.3547L43.0396 92.0952C43.0396 92.0952 42.9531 92.1817 43.0396 92.0952Z" fill="#6CC8C1"/>
<path d="M43.0396 92.7007H43.6452C43.7317 92.7007 43.7317 92.7007 43.7317 92.7872V92.9602C43.7317 93.0467 43.7317 93.0467 43.6452 93.0467H43.0396C42.9531 93.0467 42.9531 93.0467 42.9531 92.9602L43.0396 92.7007C43.0396 92.7007 42.9531 92.7007 43.0396 92.7007Z" fill="#6CC8C1"/>
<path d="M43.0396 93.3062H43.6452C43.7317 93.3062 43.7317 93.3062 43.7317 93.3927V93.5657C43.7317 93.6522 43.7317 93.6522 43.6452 93.6522H43.0396C42.9531 93.6522 42.9531 93.6522 42.9531 93.5657L43.0396 93.3062C43.0396 93.3062 42.9531 93.3062 43.0396 93.3062Z" fill="#6CC8C1"/>
<path d="M43.0396 93.9119H43.6452C43.7317 93.9119 43.7317 93.9119 43.7317 93.9984V94.1714C43.7317 94.2579 43.7317 94.2579 43.6452 94.2579H43.0396C42.9531 94.2579 42.9531 94.2579 42.9531 94.1714L43.0396 93.9119C43.0396 93.9119 42.9531 93.9119 43.0396 93.9119Z" fill="#6CC8C1"/>
<path d="M43.0396 94.5173H43.6452C43.7317 94.5173 43.7317 94.5173 43.7317 94.6038V94.7768C43.7317 94.8634 43.7317 94.8633 43.6452 94.8633H43.0396C42.9531 94.8633 42.9531 94.8634 42.9531 94.7768L43.0396 94.5173C43.0396 94.5173 42.9531 94.5173 43.0396 94.5173Z" fill="#6CC8C1"/>
<path d="M54.3715 94.5174C54.6104 94.5174 54.804 94.3237 54.804 94.0849C54.804 93.846 54.6104 93.6523 54.3715 93.6523C54.1326 93.6523 53.939 93.846 53.939 94.0849C53.939 94.3237 54.1326 94.5174 54.3715 94.5174Z" fill="#3D576B"/>
<path d="M55.7557 118.392H35.2544V118.825H55.7557V118.392Z" fill="#B3C6D4"/>
<path d="M37.8494 115.624H42.3475C42.5205 115.624 42.6071 115.711 42.6071 115.884V118.825H37.5898V115.884C37.5898 115.797 37.6763 115.624 37.8494 115.624Z" fill="#B3C6D4"/>
<path d="M38.2819 116.143H41.915C42.0015 116.143 42.1746 116.23 42.1746 116.403V118.825H38.1089V116.403C38.0224 116.23 38.1089 116.143 38.2819 116.143Z" fill="#8BA6B6"/>
<path d="M38.5413 116.662H41.742C41.742 116.662 41.8285 116.662 41.8285 116.749V116.835C41.8285 116.835 41.8285 116.922 41.742 116.922H38.5413C38.5413 116.922 38.4548 116.922 38.4548 116.835L38.5413 116.662C38.5413 116.662 38.4548 116.662 38.5413 116.662Z" fill="#A7BCC9"/>
<path d="M38.5413 117.268H41.742C41.742 117.268 41.8285 117.268 41.8285 117.354V117.441C41.8285 117.441 41.8285 117.527 41.742 117.527H38.5413C38.5413 117.527 38.4548 117.527 38.4548 117.441L38.5413 117.268C38.5413 117.268 38.4548 117.354 38.5413 117.268Z" fill="#A7BCC9"/>
<path d="M38.5413 117.873H41.742C41.742 117.873 41.8285 117.873 41.8285 117.96V118.046C41.8285 118.046 41.8285 118.133 41.742 118.133H38.5413C38.5413 118.133 38.4548 118.133 38.4548 118.046L38.5413 117.873C38.5413 117.873 38.4548 117.96 38.5413 117.873Z" fill="#A7BCC9"/>
<path d="M55.7557 91.1438H35.2544V91.4033H55.7557V91.1438Z" fill="#B3C6D4"/>
<path d="M55.7557 91.0571H35.2544V91.2301H55.7557V91.0571Z" fill="#9DB5C4"/>
<path d="M37.244 91.8357C37.3305 91.9222 37.3305 92.0952 37.417 92.2682C37.763 93.3063 38.801 93.8253 39.2335 93.9118C39.493 93.9983 40.0121 94.0848 41.0501 94.0848C41.3096 94.0848 41.5691 94.0848 41.9151 94.0848V94.3443H36.6384V92.4412C36.6384 92.0952 36.8979 91.8357 37.244 91.8357V91.8357Z" fill="#144566"/>
<path d="M45.8975 93.0275C45.7896 92.8698 45.6062 92.8076 45.4879 92.8885C45.3697 92.9695 45.3612 93.1629 45.4692 93.3206C45.5771 93.4783 45.7604 93.5406 45.8787 93.4597C45.997 93.3787 46.0054 93.1853 45.8975 93.0275Z" fill="#29748E"/>
<path d="M54.3715 94.5174C54.6104 94.5174 54.804 94.3237 54.804 94.0849C54.804 93.846 54.6104 93.6523 54.3715 93.6523C54.1326 93.6523 53.939 93.846 53.939 94.0849C53.939 94.3237 54.1326 94.5174 54.3715 94.5174Z" fill="#3D576B"/>
<path d="M54.285 93.5657C54.1985 93.6522 54.1985 93.7387 54.1985 93.9117C54.1985 94.1712 54.3715 94.3442 54.631 94.3442H54.7175C54.631 94.4307 54.5445 94.5172 54.3715 94.5172C54.112 94.5172 53.939 94.3442 53.939 94.0847C53.939 93.8252 54.0255 93.6522 54.285 93.5657V93.5657Z" fill="#2D4351"/>
<path d="M52.9011 94.3442C53.0444 94.3442 53.1606 94.228 53.1606 94.0847C53.1606 93.9414 53.0444 93.8252 52.9011 93.8252C52.7578 93.8252 52.6416 93.9414 52.6416 94.0847C52.6416 94.228 52.7578 94.3442 52.9011 94.3442Z" fill="#B3C6D4"/>
<path d="M52.9011 93.7388C52.8146 93.8253 52.8146 93.8253 52.8146 93.9118C52.8146 94.0848 52.9876 94.1713 53.0741 94.1713H53.1606C53.0741 94.2578 52.9876 94.2578 52.9011 94.2578C52.7281 94.2578 52.6416 94.0848 52.6416 93.9983C52.6416 93.9118 52.7281 93.8253 52.9011 93.7388Z" fill="#A6BCC9"/>
<path d="M53.1307 93.8992C53.0776 93.8198 53.0023 93.7769 52.9626 93.8034C52.9229 93.83 52.9337 93.9159 52.9869 93.9953C53.04 94.0748 53.1152 94.1176 53.1549 94.0911C53.1946 94.0645 53.1838 93.9786 53.1307 93.8992Z" fill="#CCD9E2"/>
<path d="M51.7764 94.3442C51.9197 94.3442 52.0359 94.228 52.0359 94.0847C52.0359 93.9414 51.9197 93.8252 51.7764 93.8252C51.633 93.8252 51.5168 93.9414 51.5168 94.0847C51.5168 94.228 51.633 94.3442 51.7764 94.3442Z" fill="#B3C6D4"/>
<path d="M51.6899 93.7388C51.6034 93.8253 51.6034 93.8253 51.6034 93.9118C51.6034 94.0848 51.7764 94.1713 51.8629 94.1713H51.9494C51.8629 94.2578 51.7764 94.2578 51.6899 94.2578C51.5169 94.2578 51.4304 94.0848 51.4304 93.9983C51.5169 93.9118 51.6034 93.8253 51.6899 93.7388Z" fill="#A6BCC9"/>
<path d="M51.9849 93.8877C51.9318 93.8083 51.8566 93.7654 51.8168 93.792C51.7771 93.8185 51.788 93.9044 51.8411 93.9839C51.8942 94.0633 51.9695 94.1062 52.0092 94.0796C52.0489 94.0531 52.038 93.9671 51.9849 93.8877Z" fill="#CCD9E2"/>
<path d="M50.6518 94.3442C50.7952 94.3442 50.9114 94.228 50.9114 94.0847C50.9114 93.9414 50.7952 93.8252 50.6518 93.8252C50.5085 93.8252 50.3923 93.9414 50.3923 94.0847C50.3923 94.228 50.5085 94.3442 50.6518 94.3442Z" fill="#B3C6D4"/>
<path d="M50.5654 93.7388C50.4789 93.8253 50.4789 93.8253 50.4789 93.9118C50.4789 94.0848 50.6519 94.1713 50.7384 94.1713H50.8249C50.7384 94.2578 50.6519 94.2578 50.5654 94.2578C50.3924 94.2578 50.3059 94.0848 50.3059 93.9983C50.3924 93.9118 50.4789 93.8253 50.5654 93.7388Z" fill="#A6BCC9"/>
<path d="M50.8882 93.949C50.8351 93.8696 50.7599 93.8267 50.7202 93.8532C50.6805 93.8798 50.6913 93.9657 50.7444 94.0451C50.7975 94.1246 50.8728 94.1674 50.9125 94.1409C50.9522 94.1143 50.9413 94.0284 50.8882 93.949Z" fill="#CCD9E2"/>
<path d="M53.8525 91.9221H54.7175C54.7175 91.9221 54.804 91.9221 54.804 92.0086C54.804 92.0086 54.804 92.0951 54.7175 92.0951H53.8525C53.766 92.0951 53.766 92.0951 53.8525 91.9221C53.766 92.0086 53.766 91.9221 53.8525 91.9221V91.9221Z" fill="#CCD9E2"/>
<path d="M55.7557 118.565H35.2544V118.738H55.7557V118.565Z" fill="#8BA6B6"/>
<path opacity="0.07" d="M37.6765 110.78C37.6765 113.462 39.8391 115.711 42.6072 115.711H55.7558V118.825H35.2544V90.1921H37.763L37.6765 110.78Z" fill="#082B72"/>
<path d="M45.4617 111.991C49.8092 111.991 53.3335 108.467 53.3335 104.119C53.3335 99.7717 49.8092 96.2473 45.4617 96.2473C41.1142 96.2473 37.5898 99.7717 37.5898 104.119C37.5898 108.467 41.1142 111.991 45.4617 111.991Z" fill="#B3C6D4"/>
<path d="M45.4617 111.991C49.8092 111.991 53.3335 108.467 53.3335 104.119C53.3335 99.7717 49.8092 96.2473 45.4617 96.2473C41.1142 96.2473 37.5898 99.7717 37.5898 104.119C37.5898 108.467 41.1142 111.991 45.4617 111.991Z" fill="#6CC8C1"/>
<path opacity="0.3" d="M43.9047 96.4204C40.6175 97.3719 38.2819 100.4 38.2819 103.946C38.2819 108.271 41.8286 111.818 46.1538 111.818C46.6728 111.818 47.1918 111.732 47.6243 111.645C46.9323 111.818 46.1538 111.991 45.3752 111.991C41.0501 111.991 37.5034 108.444 37.5034 104.119C37.5899 100.313 40.2715 97.1124 43.9047 96.4204V96.4204Z" fill="white"/>
<path d="M45.4617 110.347C48.9014 110.347 51.6899 107.559 51.6899 104.119C51.6899 100.679 48.9014 97.8909 45.4617 97.8909C42.0219 97.8909 39.2334 100.679 39.2334 104.119C39.2334 107.559 42.0219 110.347 45.4617 110.347Z" fill="#3D576B"/>
<path d="M45.4617 109.136C48.4715 109.136 50.9114 106.735 50.9114 103.773C50.9114 100.811 48.4715 98.4099 45.4617 98.4099C42.4519 98.4099 40.012 100.811 40.012 103.773C40.012 106.735 42.4519 109.136 45.4617 109.136Z" fill="#144B63"/>
<path d="M45.4617 108.271C47.5638 108.271 49.2678 106.257 49.2678 103.773C49.2678 101.289 47.5638 99.2749 45.4617 99.2749C43.3596 99.2749 41.6555 101.289 41.6555 103.773C41.6555 106.257 43.3596 108.271 45.4617 108.271Z" fill="#3D576B"/>
<path d="M43.9046 106.109C44.6832 105.936 45.8077 105.503 47.4513 105.59C48.6623 105.59 49.6139 105.849 50.3059 106.109C49.4409 107.925 47.5378 109.223 45.3752 109.223C43.0396 109.223 41.05 107.752 40.2715 105.676C41.8285 106.282 43.0396 106.282 43.9046 106.109Z" fill="#61AFBC"/>
<path opacity="0.18" d="M43.6451 98.6694C43.2126 99.448 42.9531 100.4 42.9531 101.351C42.9531 104.465 45.4617 106.974 48.5758 106.974C49.0948 106.974 49.5274 106.887 49.9599 106.801C49.0083 108.271 47.2783 109.223 45.4617 109.223C42.4341 109.223 40.012 106.801 40.012 103.86C40.012 101.438 41.4825 99.448 43.6451 98.6694V98.6694Z" fill="#0C123A"/>
<path opacity="0.27" d="M48.9891 101.18C48.316 100.08 47.2748 99.4909 46.6634 99.8648C46.0521 100.239 46.1021 101.434 46.7752 102.534C47.4483 103.635 48.4895 104.224 49.1008 103.85C49.7122 103.476 49.6621 102.281 48.9891 101.18Z" fill="white"/>
<path d="M50.133 98.6694C50.2195 98.4964 50.3925 98.4964 50.5655 98.5829C50.825 98.8425 51.0845 99.102 51.344 99.3615C51.6036 99.7075 51.8631 100.054 51.9496 100.486C52.0361 100.659 51.9496 100.832 51.7766 100.832C51.6036 100.919 51.5171 100.832 51.4305 100.659C51.2575 100.313 51.0845 99.967 50.825 99.621C50.652 99.3615 50.3925 99.102 50.133 98.929C50.0465 98.929 50.0465 98.7559 50.133 98.6694V98.6694Z" fill="#CCD9E2"/>
<path d="M49.8733 109.396C50.4788 108.877 50.9114 108.358 51.3439 107.666C51.6034 107.233 52.2954 106.022 52.3819 104.292C52.3819 103.687 52.3819 103.081 52.2954 102.476C52.2954 102.303 52.3819 102.216 52.4684 102.13C52.6414 102.13 52.8144 102.216 52.8144 102.389C52.901 103.081 52.9875 103.687 52.9875 104.379C52.9009 106.195 52.2089 107.493 51.8629 108.012C51.4304 108.704 50.9114 109.309 50.3058 109.828C50.2193 109.915 49.9598 109.915 49.8733 109.828C49.7003 109.655 49.7868 109.482 49.8733 109.396V109.396Z" fill="#CCD9E2"/>
<path d="M76.1703 90.1921H55.6689V118.825H76.1703V90.1921Z" fill="#9DB5C4"/>
<path d="M78.7655 90.1921H58.2642V118.825H78.7655V90.1921Z" fill="white"/>
<path d="M78.7655 90.1921H58.2642V118.825H78.7655V90.1921Z" fill="#E8F4FC"/>
<path d="M78.7655 114.154H58.2642V114.586H78.7655V114.154Z" fill="#B3C6D4"/>
<path d="M78.7655 114.154H58.2642V114.327H78.7655V114.154Z" fill="#9BB5C4"/>
<path d="M78.7655 90.1921H58.2642V95.8149H78.7655V90.1921Z" fill="#F5FBFF"/>
<path d="M78.7655 95.2959H58.2642V95.6419H78.7655V95.2959Z" fill="#B3C6D4"/>
<path d="M78.7655 95.2959H58.2642V95.4689H78.7655V95.2959Z" fill="#9DB5C4"/>
<path d="M78.7655 90.1921H58.2642V91.4897H78.7655V90.1921Z" fill="#F5FBFF"/>
<path d="M60.2536 91.8357H64.3192C64.6652 91.8357 64.9248 92.0952 64.9248 92.4412V94.6038C64.9248 94.7768 64.7517 94.9498 64.5787 94.9498H59.9075C59.7345 94.9498 59.5615 94.7768 59.5615 94.6038V92.4412C59.648 92.0952 59.9075 91.8357 60.2536 91.8357V91.8357Z" fill="#359591"/>
<path d="M60.2537 91.8357H64.4059C64.7519 91.8357 64.9249 92.0952 64.9249 92.3547V94.0848C64.9249 94.2578 64.8384 94.3443 64.6654 94.3443H59.9077C59.7347 94.3443 59.6482 94.2578 59.6482 94.0848V92.3547C59.6482 92.0952 59.9077 91.8357 60.2537 91.8357Z" fill="#3D576B"/>
<path d="M68.4716 94.4308C69.0449 94.4308 69.5097 93.9661 69.5097 93.3928C69.5097 92.8195 69.0449 92.3547 68.4716 92.3547C67.8983 92.3547 67.4336 92.8195 67.4336 93.3928C67.4336 93.9661 67.8983 94.4308 68.4716 94.4308Z" fill="#B9CFD6"/>
<path d="M68.1256 92.3547C67.7796 92.5277 67.6066 92.8738 67.6066 93.3063C67.6066 93.9118 68.0391 94.3443 68.6446 94.3443C68.7311 94.3443 68.8176 94.3443 68.9042 94.3443C68.7311 94.4308 68.6446 94.4308 68.4716 94.4308C67.8661 94.4308 67.4336 93.9983 67.4336 93.3928C67.4336 92.8738 67.6931 92.5277 68.1256 92.3547V92.3547Z" fill="#ABC1C6"/>
<path d="M68.4714 94.1713C68.9014 94.1713 69.2499 93.8228 69.2499 93.3928C69.2499 92.9628 68.9014 92.6143 68.4714 92.6143C68.0414 92.6143 67.6929 92.9628 67.6929 93.3928C67.6929 93.8228 68.0414 94.1713 68.4714 94.1713Z" fill="#3D576B"/>
<path d="M68.4714 94.1713C68.9014 94.1713 69.2499 93.8228 69.2499 93.3928C69.2499 92.9628 68.9014 92.6143 68.4714 92.6143C68.0414 92.6143 67.6929 92.9628 67.6929 93.3928C67.6929 93.8228 68.0414 94.1713 68.4714 94.1713Z" fill="#3D576B"/>
<path d="M68.2984 92.6143C68.2119 92.7008 68.1254 92.8738 68.1254 93.0468C68.1254 93.4793 68.4714 93.8253 68.9039 93.8253C68.9904 93.8253 68.9904 93.8253 69.0769 93.8253C68.9039 93.9983 68.7309 94.0848 68.4714 94.0848C68.0389 94.0848 67.6929 93.7388 67.6929 93.3063C67.6929 93.0468 67.9524 92.7008 68.2984 92.6143Z" fill="#184670"/>
<path d="M62.8487 92.0952H64.4923C64.4923 92.0952 64.5788 92.0952 64.5788 92.1817V92.7007C64.5788 92.7007 64.5788 92.7872 64.4923 92.7872H62.8487C62.8487 92.7872 62.7622 92.7872 62.7622 92.7007L62.8487 92.0952C62.7622 92.1817 62.7622 92.0952 62.8487 92.0952V92.0952Z" fill="#CCD9E2"/>
<path d="M76.4298 91.8357H77.7274C77.8139 91.8357 77.9004 91.9222 77.9004 92.0087V92.3547C77.9004 92.4412 77.8139 92.5277 77.7274 92.5277H76.4298C76.3433 92.5277 76.2568 92.4412 76.2568 92.3547V92.0087C76.3433 91.9222 76.3433 91.8357 76.4298 91.8357Z" fill="#D82156"/>
<path d="M76.4298 91.8357H77.6409C77.7274 91.8357 77.8139 91.9222 77.8139 92.0087V92.2682C77.8139 92.3547 77.7274 92.4412 77.6409 92.4412H76.4298C76.3433 92.4412 76.2568 92.3547 76.2568 92.2682V92.0087C76.3433 91.9222 76.3433 91.8357 76.4298 91.8357Z" fill="#6CC8C1"/>
<path d="M76.4299 91.8357H76.5164V92.1817C76.5164 92.2682 76.6029 92.3547 76.6894 92.3547H77.814C77.814 92.4412 77.7275 92.4412 77.641 92.4412H76.3434C76.2569 92.4412 76.1704 92.3547 76.1704 92.2682V91.9222C76.3434 91.9222 76.3434 91.8357 76.4299 91.8357V91.8357Z" fill="#359591"/>
<path d="M70.2015 92.0952H70.807C70.8935 92.0952 70.8935 92.0952 70.8935 92.1817V92.3547C70.8935 92.4412 70.8935 92.4412 70.807 92.4412H70.2015C70.115 92.4412 70.115 92.4412 70.115 92.3547L70.2015 92.0952C70.115 92.0952 70.115 92.1817 70.2015 92.0952Z" fill="#6CC8C1"/>
<path d="M70.2015 92.7007H70.807C70.8935 92.7007 70.8935 92.7007 70.8935 92.7872V92.9602C70.8935 93.0467 70.8935 93.0467 70.807 93.0467H70.2015C70.115 93.0467 70.115 93.0467 70.115 92.9602L70.2015 92.7007C70.115 92.7007 70.115 92.7007 70.2015 92.7007Z" fill="#6CC8C1"/>
<path d="M70.2015 93.3062H70.807C70.8935 93.3062 70.8935 93.3062 70.8935 93.3927V93.5657C70.8935 93.6522 70.8935 93.6522 70.807 93.6522H70.2015C70.115 93.6522 70.115 93.6522 70.115 93.5657L70.2015 93.3062C70.115 93.3062 70.115 93.3062 70.2015 93.3062Z" fill="#6CC8C1"/>
<path d="M70.2015 93.9119H70.807C70.8935 93.9119 70.8935 93.9119 70.8935 93.9984V94.1714C70.8935 94.2579 70.8935 94.2579 70.807 94.2579H70.2015C70.115 94.2579 70.115 94.2579 70.115 94.1714L70.2015 93.9119C70.115 93.9119 70.115 93.9119 70.2015 93.9119Z" fill="#6CC8C1"/>
<path d="M70.2015 94.5173H70.807C70.8935 94.5173 70.8935 94.5173 70.8935 94.6038V94.7768C70.8935 94.8634 70.8935 94.8633 70.807 94.8633H70.2015C70.115 94.8633 70.115 94.8634 70.115 94.7768L70.2015 94.5173C70.115 94.5173 70.115 94.5173 70.2015 94.5173Z" fill="#6CC8C1"/>
<path d="M66.0494 92.0952H66.7415C66.828 92.0952 66.828 92.0952 66.828 92.1817V92.3547C66.828 92.4412 66.828 92.4412 66.7415 92.4412H66.1359C66.0494 92.4412 66.0494 92.4412 66.0494 92.3547V92.0952C66.0494 92.0952 65.9629 92.1817 66.0494 92.0952Z" fill="#6CC8C1"/>
<path d="M66.0494 92.7007H66.7415C66.828 92.7007 66.828 92.7007 66.828 92.7872V92.9602C66.828 93.0467 66.828 93.0467 66.7415 93.0467H66.1359C66.0494 93.0467 66.0494 93.0467 66.0494 92.9602V92.7007C66.0494 92.7007 65.9629 92.7007 66.0494 92.7007Z" fill="#6CC8C1"/>
<path d="M66.0494 93.3062H66.7415C66.828 93.3062 66.828 93.3062 66.828 93.3927V93.5657C66.828 93.6522 66.828 93.6522 66.7415 93.6522H66.1359C66.0494 93.6522 66.0494 93.6522 66.0494 93.5657V93.3062C66.0494 93.3062 65.9629 93.3062 66.0494 93.3062Z" fill="#6CC8C1"/>
<path d="M66.0494 93.9119H66.7415C66.828 93.9119 66.828 93.9119 66.828 93.9984V94.1714C66.828 94.2579 66.828 94.2579 66.7415 94.2579H66.1359C66.0494 94.2579 66.0494 94.2579 66.0494 94.1714V93.9119C66.0494 93.9119 65.9629 93.9119 66.0494 93.9119Z" fill="#6CC8C1"/>
<path d="M66.0494 94.5173H66.7415C66.828 94.5173 66.828 94.5173 66.828 94.6038V94.7768C66.828 94.8634 66.828 94.8633 66.7415 94.8633H66.1359C66.0494 94.8633 66.0494 94.8634 66.0494 94.7768V94.5173C66.0494 94.5173 65.9629 94.5173 66.0494 94.5173Z" fill="#6CC8C1"/>
<path d="M77.3815 94.5174C77.6204 94.5174 77.814 94.3237 77.814 94.0849C77.814 93.846 77.6204 93.6523 77.3815 93.6523C77.1426 93.6523 76.949 93.846 76.949 94.0849C76.949 94.3237 77.1426 94.5174 77.3815 94.5174Z" fill="#3D576B"/>
<path d="M78.7655 118.392H58.2642V118.825H78.7655V118.392Z" fill="#B3C6D4"/>
<path d="M60.8591 115.624H65.3573C65.5303 115.624 65.6168 115.711 65.6168 115.884V118.825H60.5996V115.884C60.5996 115.797 60.6861 115.624 60.8591 115.624Z" fill="#B3C6D4"/>
<path d="M61.2918 116.143H64.925C65.0115 116.143 65.1845 116.23 65.1845 116.403V118.825H61.1188V116.403C61.0323 116.23 61.2053 116.143 61.2918 116.143Z" fill="#8BA6B6"/>
<path d="M61.5513 116.662H64.752C64.752 116.662 64.8385 116.662 64.8385 116.749V116.835C64.8385 116.835 64.8385 116.922 64.752 116.922H61.5513C61.5513 116.922 61.4648 116.922 61.4648 116.835L61.5513 116.662C61.5513 116.662 61.4648 116.662 61.5513 116.662Z" fill="#A7BCC9"/>
<path d="M61.5513 117.268H64.752C64.752 117.268 64.8385 117.268 64.8385 117.354V117.441C64.8385 117.441 64.8385 117.527 64.752 117.527H61.5513C61.5513 117.527 61.4648 117.527 61.4648 117.441L61.5513 117.268C61.5513 117.268 61.4648 117.354 61.5513 117.268Z" fill="#A7BCC9"/>
<path d="M61.5513 117.873H64.752C64.752 117.873 64.8385 117.873 64.8385 117.96V118.046C64.8385 118.046 64.8385 118.133 64.752 118.133H61.5513C61.5513 118.133 61.4648 118.133 61.4648 118.046L61.5513 117.873C61.5513 117.873 61.4648 117.96 61.5513 117.873Z" fill="#A7BCC9"/>
<path d="M78.7655 91.1436H58.2642V91.4031H78.7655V91.1436Z" fill="#B3C6D4"/>
<path d="M78.7655 91.0571H58.2642V91.2301H78.7655V91.0571Z" fill="#9DB5C4"/>
<path d="M60.2537 91.8357C60.3402 91.9222 60.3402 92.0952 60.4267 92.2682C60.7727 93.3063 61.8108 93.8253 62.2433 93.9118C62.5028 93.9983 63.0218 94.0848 64.0599 94.0848C64.3194 94.0848 64.5789 94.0848 64.9249 94.0848V94.3443H59.6482V92.4412C59.6482 92.0952 59.9077 91.8357 60.2537 91.8357Z" fill="#144566"/>
<path d="M68.9278 93.038C68.8199 92.8803 68.6365 92.8181 68.5182 92.899C68.3999 92.98 68.3915 93.1734 68.4994 93.3311C68.6073 93.4888 68.7907 93.5511 68.909 93.4702C69.0273 93.3892 69.0357 93.1958 68.9278 93.038Z" fill="#29748E"/>
<path d="M77.3815 94.5171C77.6204 94.5171 77.814 94.3235 77.814 94.0846C77.814 93.8457 77.6204 93.6521 77.3815 93.6521C77.1426 93.6521 76.949 93.8457 76.949 94.0846C76.949 94.3235 77.1426 94.5171 77.3815 94.5171Z" fill="#3D576B"/>
<path d="M77.295 93.5657C77.2085 93.6522 77.2085 93.7387 77.2085 93.9117C77.2085 94.1712 77.3815 94.3442 77.641 94.3442H77.7275C77.641 94.4307 77.5545 94.5172 77.3815 94.5172C77.122 94.5172 76.949 94.3442 76.949 94.0847C76.949 93.8252 77.122 93.6522 77.295 93.5657V93.5657Z" fill="#2D4351"/>
<path d="M75.9109 94.3442C76.0542 94.3442 76.1704 94.228 76.1704 94.0847C76.1704 93.9414 76.0542 93.8252 75.9109 93.8252C75.7676 93.8252 75.6514 93.9414 75.6514 94.0847C75.6514 94.228 75.7676 94.3442 75.9109 94.3442Z" fill="#B3C6D4"/>
<path d="M75.9109 93.7388C75.8244 93.8253 75.8244 93.8253 75.8244 93.9118C75.8244 94.0848 75.9974 94.1713 76.0839 94.1713H76.1704C76.0839 94.2578 75.9974 94.2578 75.9109 94.2578C75.7379 94.2578 75.6514 94.0848 75.6514 93.9983C75.6514 93.9118 75.7379 93.8253 75.9109 93.7388Z" fill="#A6BCC9"/>
<path d="M76.1609 93.9102C76.1078 93.8307 76.0326 93.7879 75.9929 93.8144C75.9532 93.841 75.964 93.9269 76.0171 94.0063C76.0702 94.0858 76.1455 94.1286 76.1852 94.1021C76.2249 94.0755 76.2141 93.9896 76.1609 93.9102Z" fill="#CCD9E2"/>
<path d="M74.7864 94.3442C74.9297 94.3442 75.0459 94.228 75.0459 94.0847C75.0459 93.9414 74.9297 93.8252 74.7864 93.8252C74.643 93.8252 74.5269 93.9414 74.5269 94.0847C74.5269 94.228 74.643 94.3442 74.7864 94.3442Z" fill="#B3C6D4"/>
<path d="M74.7864 93.7388C74.6999 93.8253 74.6999 93.8253 74.6999 93.9118C74.6999 94.0848 74.8729 94.1713 74.9594 94.1713H75.0459C74.9594 94.2578 74.8729 94.2578 74.7864 94.2578C74.6134 94.2578 74.5269 94.0848 74.5269 93.9983C74.5269 93.9118 74.6134 93.8253 74.7864 93.7388Z" fill="#A6BCC9"/>
<path d="M75.0152 93.8989C74.9621 93.8195 74.8868 93.7766 74.8471 93.8032C74.8074 93.8298 74.8183 93.9157 74.8714 93.9951C74.9245 94.0745 74.9997 94.1174 75.0394 94.0908C75.0792 94.0643 75.0683 93.9784 75.0152 93.8989Z" fill="#CCD9E2"/>
<path d="M73.6616 94.3442C73.8049 94.3442 73.9211 94.228 73.9211 94.0847C73.9211 93.9414 73.8049 93.8252 73.6616 93.8252C73.5183 93.8252 73.4021 93.9414 73.4021 94.0847C73.4021 94.228 73.5183 94.3442 73.6616 94.3442Z" fill="#B3C6D4"/>
<path d="M73.5752 93.7388C73.4887 93.8253 73.4887 93.8253 73.4887 93.9118C73.4887 94.0848 73.6617 94.1713 73.7482 94.1713H73.8347C73.7482 94.2578 73.6617 94.2578 73.5752 94.2578C73.4022 94.2578 73.3157 94.0848 73.3157 93.9983C73.4022 93.9118 73.4887 93.8253 73.5752 93.7388Z" fill="#A6BCC9"/>
<path d="M73.8702 93.8882C73.8171 93.8088 73.7418 93.7659 73.7021 93.7925C73.6624 93.819 73.6732 93.9049 73.7264 93.9844C73.7795 94.0638 73.8547 94.1066 73.8944 94.0801C73.9341 94.0535 73.9233 93.9676 73.8702 93.8882Z" fill="#CCD9E2"/>
<path d="M76.8625 91.9221H77.7275C77.7275 91.9221 77.814 91.9221 77.814 92.0086C77.814 92.0086 77.814 92.0951 77.7275 92.0951H76.8625C76.776 92.0951 76.776 92.0951 76.8625 91.9221C76.776 92.0086 76.776 91.9221 76.8625 91.9221V91.9221Z" fill="#CCD9E2"/>
<path d="M78.7655 118.565H58.2642V118.738H78.7655V118.565Z" fill="#8BA6B6"/>
<path opacity="0.07" d="M60.6863 110.78C60.6863 113.462 62.8489 115.711 65.617 115.711H78.7655V118.825H58.2642V90.1921H60.7728L60.6863 110.78Z" fill="#082B72"/>
<path d="M68.4714 111.991C72.8189 111.991 76.3433 108.467 76.3433 104.119C76.3433 99.7717 72.8189 96.2473 68.4714 96.2473C64.1239 96.2473 60.5996 99.7717 60.5996 104.119C60.5996 108.467 64.1239 111.991 68.4714 111.991Z" fill="#B3C6D4"/>
<path d="M68.4714 111.991C72.8189 111.991 76.3433 108.467 76.3433 104.119C76.3433 99.7717 72.8189 96.2473 68.4714 96.2473C64.1239 96.2473 60.5996 99.7717 60.5996 104.119C60.5996 108.467 64.1239 111.991 68.4714 111.991Z" fill="#6CC8C1"/>
<path opacity="0.3" d="M66.9144 96.4204C63.6273 97.3719 61.2917 100.4 61.2917 103.946C61.2917 108.271 64.8384 111.818 69.1635 111.818C69.6826 111.818 70.2016 111.732 70.6341 111.645C69.9421 111.818 69.1635 111.991 68.385 111.991C64.0598 111.991 60.5132 108.444 60.5132 104.119C60.5997 100.313 63.2813 97.1124 66.9144 96.4204V96.4204Z" fill="white"/>
<path d="M68.4714 110.347C71.9112 110.347 74.6997 107.559 74.6997 104.119C74.6997 100.679 71.9112 97.8909 68.4714 97.8909C65.0316 97.8909 62.2432 100.679 62.2432 104.119C62.2432 107.559 65.0316 110.347 68.4714 110.347Z" fill="#3D576B"/>
<path d="M68.4715 109.136C71.4813 109.136 73.9212 106.735 73.9212 103.773C73.9212 100.811 71.4813 98.4099 68.4715 98.4099C65.4617 98.4099 63.0217 100.811 63.0217 103.773C63.0217 106.735 65.4617 109.136 68.4715 109.136Z" fill="#144B63"/>
<path d="M68.4714 108.271C70.5735 108.271 72.2776 106.257 72.2776 103.773C72.2776 101.289 70.5735 99.2749 68.4714 99.2749C66.3694 99.2749 64.6653 101.289 64.6653 103.773C64.6653 106.257 66.3694 108.271 68.4714 108.271Z" fill="#3D576B"/>
<path d="M66.9144 106.109C67.6929 105.936 68.8175 105.503 70.4611 105.59C71.6721 105.59 72.6236 105.849 73.3157 106.109C72.4506 107.925 70.5476 109.223 68.385 109.223C66.0494 109.223 64.0598 107.752 63.2812 105.676C64.8383 106.282 66.0494 106.282 66.9144 106.109V106.109Z" fill="#61AFBC"/>
<path opacity="0.18" d="M66.6549 98.6694C66.2224 99.448 65.9629 100.4 65.9629 101.351C65.9629 104.465 68.4715 106.974 71.5856 106.974C72.1046 106.974 72.5371 106.887 72.9696 106.801C72.0181 108.271 70.288 109.223 68.4715 109.223C65.4438 109.223 63.0217 106.801 63.0217 103.86C63.0217 101.438 64.4923 99.448 66.6549 98.6694V98.6694Z" fill="#0C123A"/>
<path opacity="0.27" d="M72.0184 101.191C71.3453 100.09 70.3041 99.5014 69.6927 99.8753C69.0814 100.249 69.1314 101.444 69.8045 102.545C70.4776 103.645 71.5188 104.234 72.1301 103.86C72.7415 103.486 72.6914 102.291 72.0184 101.191Z" fill="white"/>
<path d="M73.1428 98.6694C73.2293 98.4964 73.4023 98.4964 73.5753 98.5829C73.8348 98.8425 74.0943 99.102 74.3538 99.3615C74.6133 99.7075 74.8728 100.054 74.9593 100.486C75.0458 100.659 74.9593 100.832 74.7863 100.832C74.6133 100.919 74.5268 100.832 74.4403 100.659C74.2673 100.313 74.0943 99.967 73.8348 99.621C73.6618 99.3615 73.4023 99.102 73.1428 98.929C73.0563 98.929 73.0563 98.7559 73.1428 98.6694V98.6694Z" fill="#CCD9E2"/>
<path d="M72.8832 109.396C73.4888 108.877 73.9213 108.358 74.3538 107.666C74.6133 107.233 75.3053 106.022 75.3918 104.292C75.3918 103.687 75.3918 103.081 75.3053 102.476C75.3053 102.303 75.3918 102.216 75.4783 102.13C75.6514 102.13 75.8244 102.216 75.8244 102.389C75.9109 103.081 75.9974 103.687 75.9974 104.379C75.9109 106.195 75.2188 107.493 74.8728 108.012C74.4403 108.704 73.9213 109.309 73.3158 109.828C73.2293 109.915 72.9697 109.915 72.8832 109.828C72.7967 109.655 72.7967 109.482 72.8832 109.396V109.396Z" fill="#CCD9E2"/>
<path d="M52.2087 86.1264C52.2087 86.1264 55.9284 81.9742 54.3713 81.6282C52.8142 81.2822 51.8627 82.2338 51.8627 82.2338C51.8627 82.2338 50.7382 79.6387 49.4406 80.5037C48.2295 81.3687 46.3265 85.5209 46.6725 86.2129C46.8455 86.9915 52.2087 86.1264 52.2087 86.1264Z" fill="#3D576B"/>
<path d="M45.2885 85.7803L51.2572 84.6558C51.2572 84.6558 51.2572 82.5797 50.6517 82.4067C50.0462 82.1472 45.548 80.8496 44.8559 81.8011C44.1639 82.7527 45.2885 85.7803 45.2885 85.7803V85.7803Z" fill="#FFDD00"/>
<path d="M49.1811 84.3098C49.1811 84.3098 53.4197 84.5693 53.5062 85.7804C53.6792 86.9914 53.2467 88.3755 53.2467 88.3755L48.7485 87.5969L49.1811 84.3098Z" fill="#3D576B"/>
<path d="M53.5928 86.3858C53.5928 86.3858 51.6032 85.0883 49.6137 87.1644C47.6241 89.2405 47.0186 89.5 47.0186 89.5H52.9008L53.5928 86.3858Z" fill="#FFEC00"/>
<path d="M47.1916 82.6663C47.1916 82.6663 43.818 87.1644 45.029 89.154C45.029 89.154 47.7106 90.4516 49.3542 89.4135C50.9978 88.3755 49.7867 83.0988 49.7867 83.0988L47.1916 82.6663Z" fill="white"/>
<path d="M47.6242 85.0884H47.1917V85.6939H47.6242V85.0884Z" fill="#6CC8C1"/>
<path d="M47.6242 86.2993H47.1917V86.9048H47.6242V86.2993Z" fill="#6CC8C1"/>
<path d="M47.6242 88.635H47.1917V89.2405H47.6242V88.635Z" fill="#6CC8C1"/>
<path d="M47.6242 87.4238H47.1917V88.0294H47.6242V87.4238Z" fill="#6CC8C1"/>
<path d="M47.6242 83.9639H47.1917V84.5694H47.6242V83.9639Z" fill="#6CC8C1"/>
<path d="M48.5756 86.2993H48.1431V86.9048H48.5756V86.2993Z" fill="#6CC8C1"/>
<path d="M48.5756 87.4238H48.1431V88.0294H48.5756V87.4238Z" fill="#6CC8C1"/>
<path d="M48.5756 88.635H48.1431V89.2405H48.5756V88.635Z" fill="#6CC8C1"/>
<path d="M48.5756 83.9639H48.1431V84.5694H48.5756V83.9639Z" fill="#6CC8C1"/>
<path d="M48.5756 85.0884H48.1431V85.6939H48.5756V85.0884Z" fill="#6CC8C1"/>
<path d="M49.4406 88.635H49.0081V89.2405H49.4406V88.635Z" fill="#6CC8C1"/>
<path d="M49.4406 85.0884H49.0081V85.6939H49.4406V85.0884Z" fill="#6CC8C1"/>
<path d="M49.4406 86.2993H49.0081V86.9048H49.4406V86.2993Z" fill="#6CC8C1"/>
<path d="M49.4406 87.4238H49.0081V88.0294H49.4406V87.4238Z" fill="#6CC8C1"/>
<path d="M49.4406 83.9639H49.0081V84.5694H49.4406V83.9639Z" fill="#6CC8C1"/>
<path d="M50.3056 83.9639H49.873V84.5694H50.3056V83.9639Z" fill="#6CC8C1"/>
<path d="M50.3056 88.635H49.873V89.2405H50.3056V88.635Z" fill="#6CC8C1"/>
<path d="M50.3056 85.0884H49.873V85.6939H50.3056V85.0884Z" fill="#6CC8C1"/>
<path d="M50.3056 87.4238H49.873V88.0294H50.3056V87.4238Z" fill="#6CC8C1"/>
<path d="M50.3056 86.2993H49.873V86.9048H50.3056V86.2993Z" fill="#6CC8C1"/>
<path d="M51.1708 83.9639H50.7383V84.5694H51.1708V83.9639Z" fill="#6CC8C1"/>
<path d="M51.1708 86.2993H50.7383V86.9048H51.1708V86.2993Z" fill="#6CC8C1"/>
<path d="M51.1708 88.635H50.7383V89.2405H51.1708V88.635Z" fill="#6CC8C1"/>
<path d="M51.1708 85.0884H50.7383V85.6939H51.1708V85.0884Z" fill="#6CC8C1"/>
<path d="M51.1708 87.4238H50.7383V88.0294H51.1708V87.4238Z" fill="#6CC8C1"/>
<path d="M52.0358 88.635H51.6033V89.2405H52.0358V88.635Z" fill="#6CC8C1"/>
<path d="M52.0358 83.9639H51.6033V84.5694H52.0358V83.9639Z" fill="#6CC8C1"/>
<path d="M52.0358 85.0884H51.6033V85.6939H52.0358V85.0884Z" fill="#6CC8C1"/>
<path d="M52.0358 87.4238H51.6033V88.0294H52.0358V87.4238Z" fill="#6CC8C1"/>
<path d="M52.0358 86.2993H51.6033V86.9048H52.0358V86.2993Z" fill="#6CC8C1"/>
<path d="M52.9008 88.635H52.4683V89.2405H52.9008V88.635Z" fill="#6CC8C1"/>
<path d="M52.9008 85.0884H52.4683V85.6939H52.9008V85.0884Z" fill="#6CC8C1"/>
<path d="M52.9008 87.4238H52.4683V88.0294H52.9008V87.4238Z" fill="#6CC8C1"/>
<path d="M52.9008 86.2993H52.4683V86.9048H52.9008V86.2993Z" fill="#6CC8C1"/>
<path d="M52.9008 83.9639H52.4683V84.5694H52.9008V83.9639Z" fill="#6CC8C1"/>
<path d="M53.5928 86.9048L53.6793 86.2993H53.3333V86.9048H53.5928Z" fill="#6CC8C1"/>
<path d="M53.7658 85.0884H53.3333V85.7804H53.6793L53.7658 85.5209V85.0884Z" fill="#6CC8C1"/>
<path d="M53.4198 88.0294L53.5063 87.4238H53.3333V88.0294H53.4198Z" fill="#6CC8C1"/>
<path d="M53.7658 83.9639H53.3333V84.5694H53.7658V83.9639Z" fill="#6CC8C1"/>
<path d="M46.7589 85.0884H46.3264V85.6939H46.7589V85.0884Z" fill="#6CC8C1"/>
<path d="M46.7589 86.2993H46.3264V86.9048H46.7589V86.2993Z" fill="#6CC8C1"/>
<path d="M46.7589 83.9639H46.3264V84.5694H46.7589V83.9639Z" fill="#6CC8C1"/>
<path d="M46.7589 88.635H46.3264V89.2405H46.7589V88.635Z" fill="#6CC8C1"/>
<path d="M46.7589 87.4238H46.3264V88.0294H46.7589V87.4238Z" fill="#6CC8C1"/>
<path d="M45.8939 86.2993H45.4614V86.9048H45.8939V86.2993Z" fill="#6CC8C1"/>
<path d="M45.8939 87.4238H45.4614V88.0294H45.8939V87.4238Z" fill="#6CC8C1"/>
<path d="M45.8939 85.0884H45.4614V85.6939H45.8939V85.0884Z" fill="#6CC8C1"/>
<path d="M45.8939 88.635H45.4614V89.2405H45.8939V88.635Z" fill="#6CC8C1"/>
<path d="M45.8939 83.9639H45.4614V84.5694H45.8939V83.9639Z" fill="#6CC8C1"/>
<path d="M44.856 87.4238L44.9425 88.0294H45.029V87.4238H44.856Z" fill="#6CC8C1"/>
<path d="M45.029 85.7804V85.0884H44.5964V85.5209V85.7804H45.029Z" fill="#6CC8C1"/>
<path d="M45.029 83.9639H44.5964V84.5694H45.029V83.9639Z" fill="#6CC8C1"/>
<path d="M44.6829 86.2993L44.7694 86.9048H45.0289V86.2993H44.6829Z" fill="#6CC8C1"/>
<path d="M52.4683 89.2405H52.0358H51.6032H51.1707H50.7382H50.3057H49.8732H49.4407H49.0081H48.5756H48.1431H47.7106H47.2781H46.8456H46.413H45.9805H45.548H45.1155C45.202 89.4135 45.2885 89.5865 45.4615 89.5865H52.9008C53.0738 89.5865 53.2468 89.4135 53.2468 89.2405H52.9008H52.4683Z" fill="#6CC8C1"/>
<path d="M49.0081 88.0295H48.489H48.143H47.624H47.1915H46.759H46.3264H45.8939H45.4614H45.0289H44.9424L45.0289 88.6351H45.4614H45.8939H46.3264H46.759H47.1915H47.624H48.143H48.489H49.0081H49.3541H49.8731H50.2191H50.7381H51.0841H51.6032H52.0357H52.4682H52.9007H53.3332L53.4197 88.0295H53.3332H52.9007H52.4682H52.0357H51.6032H51.0841H50.7381H50.2191H49.8731H49.3541H49.0081Z" fill="#6CC8C1"/>
<path d="M49.0082 86.9048H48.4892H48.1432H47.6242H47.1916H46.7591H46.3266H45.8941H45.4616H45.029H44.7695L44.856 87.4238H45.029H45.4616H45.8941H46.3266H46.7591H47.1916H47.6242H48.1432H48.4892H49.0082H49.3542H49.8732H50.2193H50.7383H51.0843H51.6033H52.0358H52.4684H52.9009H53.3334H53.5064L53.5929 86.9048H53.3334H52.9009H52.4684H52.0358H51.6033H51.0843H50.7383H50.2193H49.8732H49.3542H49.0082Z" fill="#6CC8C1"/>
<path d="M49.0081 85.7803H48.4891H48.1431H47.6241H47.1915H46.759H46.3265H45.894H45.4615H45.029H44.5964L44.6829 86.2993H45.029H45.4615H45.894H46.3265H46.759H47.1915H47.6241H48.1431H48.4891H49.0081H49.3541H49.8732H50.2192H50.7382H51.0842H51.6032H52.0357H52.4683H52.9008H53.3333H53.6793V85.7803H53.3333H52.9008H52.4683H52.0357H51.6032H51.0842H50.7382H50.2192H49.8732H49.3541H49.0081Z" fill="#6CC8C1"/>
<path d="M49.3542 84.5693H49.0082H48.4892H48.1432H47.6241H47.1916H46.7591H46.3266H45.8941H45.4616H45.029H44.5965H44.51L44.5965 85.0884H45.029H45.4616H45.8941H46.3266H46.7591H47.1916H47.6241H48.1432H48.4892H49.0082H49.3542H49.8732H50.2193H50.7383H51.0843H51.6033H52.0358H52.4683H52.9009H53.3334H53.7659L53.8524 84.5693H53.7659H53.3334H52.9009H52.4683H52.0358H51.6033H51.0843H50.7383H50.2193H49.8732H49.3542Z" fill="#6CC8C1"/>
<path d="M47.6241 83.9638H48.1431H48.4891H49.0081H49.3541H49.8731H50.2192H50.7382H51.0842H51.6032H52.0357H52.4683H52.9008H53.3333H53.7658H53.9388V83.5312H44.3369L44.4234 83.9638H44.5964H45.0289H45.4615H45.894H46.3265H46.759H47.1915H47.6241Z" fill="#6CC8C1"/>
<path d="M54.1984 83.2719C54.1119 83.1854 54.0254 83.0989 53.9389 83.0989H44.337C44.2505 83.0989 44.164 83.1854 44.0775 83.2719C43.991 83.3584 43.991 83.4449 43.991 83.5314V83.6179L44.0775 83.9639L44.683 89.1541C44.683 89.2406 44.683 89.3271 44.683 89.3271C44.7695 89.6731 45.029 89.9327 45.375 89.9327H52.9008C53.2469 89.9327 53.5064 89.6731 53.5929 89.3271C53.5929 89.2406 53.5929 89.1541 53.6794 89.0676L54.2849 83.8774L54.3714 83.5314V83.4449C54.2849 83.4449 54.2849 83.3584 54.1984 83.2719V83.2719ZM53.5929 83.9639L52.9873 88.9811C52.9873 89.0676 52.9873 89.0676 52.9008 89.0676H45.4615C45.4615 89.0676 45.375 89.0676 45.375 88.9811L44.7695 83.9639H53.5929Z" fill="#6CC8C1"/>
<path d="M54.8904 83.0988C54.8904 83.4448 54.7174 83.6178 54.4579 83.6178H43.9044C43.6449 83.6178 43.4719 83.4448 43.4719 83.1853V83.0988V83.0123C43.5584 82.8393 43.6449 82.6663 43.9044 82.6663H54.4579C54.6309 82.6663 54.8039 82.7528 54.8904 83.0123C54.8904 83.0123 54.8904 83.0123 54.8904 83.0988Z" fill="#6CC8C1"/>
<path opacity="0.2" d="M54.2849 83.5312C54.2849 83.6178 54.2849 83.6178 54.2849 83.5312L54.1984 83.9638H44.0775L43.991 83.6178V83.5312H54.2849Z" fill="#29235C"/>
<path opacity="0.2" d="M53.5929 89.4136C53.5064 89.7596 53.2469 90.0191 52.9009 90.0191H45.4616C45.1155 90.0191 44.856 89.7596 44.7695 89.4136H53.5929Z" fill="#29235C"/>
<path d="M46.759 82.6663C46.759 82.6663 50.0462 81.1957 50.6517 82.6663C50.8247 83.1853 50.9977 83.5313 50.9977 83.7908C51.0842 85.6939 46.8455 82.7528 46.759 82.6663Z" fill="white"/>
<path opacity="0.2" d="M46.759 82.6663C46.759 82.6663 50.3057 84.9153 50.9977 83.7908C51.0842 85.6939 46.8455 82.7528 46.759 82.6663Z" fill="#29235C"/>
<path d="M76.0837 86.04C76.0837 86.04 79.8034 81.8878 78.2463 81.5418C76.6892 81.1958 75.7377 82.1473 75.7377 82.1473C75.7377 82.1473 74.6131 79.5522 73.3156 80.4173C72.1045 81.2823 70.2015 85.4345 70.5475 86.1265C70.7205 86.905 76.0837 86.04 76.0837 86.04Z" fill="#3D576B"/>
<path d="M69.1635 85.6939L75.1322 84.5693C75.1322 84.5693 75.1322 82.4932 74.5267 82.3202C73.9212 82.0607 69.423 80.7632 68.7309 81.7147C68.0389 82.6663 69.1635 85.6939 69.1635 85.6939Z" fill="#FFDD00"/>
<path d="M73.0561 84.2234C73.0561 84.2234 77.2947 84.4829 77.3812 85.694C77.5542 86.905 77.1217 88.2891 77.1217 88.2891L72.6235 87.5105L73.0561 84.2234Z" fill="#3D576B"/>
<path d="M77.4678 86.3861C77.4678 86.3861 75.4782 85.0885 73.4887 87.1646C71.4991 89.2407 70.8936 89.5002 70.8936 89.5002H76.7758L77.4678 86.3861Z" fill="#FFEC00"/>
<path d="M71.153 82.5798C71.153 82.5798 67.7794 87.078 68.9904 89.0676C68.9904 89.0676 71.6721 90.3652 73.3156 89.3271C74.9592 88.2891 73.7481 83.0124 73.7481 83.0124L71.153 82.5798Z" fill="white"/>
<path d="M71.5858 85.0884H71.1533V85.6939H71.5858V85.0884Z" fill="#6CC8C1"/>
<path d="M71.5858 86.2129H71.1533V86.8184H71.5858V86.2129Z" fill="#6CC8C1"/>
<path d="M71.5858 88.5486H71.1533V89.1541H71.5858V88.5486Z" fill="#6CC8C1"/>
<path d="M71.5858 87.3374H71.1533V87.9429H71.5858V87.3374Z" fill="#6CC8C1"/>
<path d="M71.5858 83.8774H71.1533V84.483H71.5858V83.8774Z" fill="#6CC8C1"/>
<path d="M72.4508 86.2129H72.0183V86.8184H72.4508V86.2129Z" fill="#6CC8C1"/>
<path d="M72.4508 87.3374H72.0183V87.9429H72.4508V87.3374Z" fill="#6CC8C1"/>
<path d="M72.4508 88.5486H72.0183V89.1541H72.4508V88.5486Z" fill="#6CC8C1"/>
<path d="M72.4508 83.8774H72.0183V84.483H72.4508V83.8774Z" fill="#6CC8C1"/>
<path d="M72.4508 85.0884H72.0183V85.6939H72.4508V85.0884Z" fill="#6CC8C1"/>
<path d="M73.3158 88.5486H72.8833V89.1541H73.3158V88.5486Z" fill="#6CC8C1"/>
<path d="M73.3158 85.0884H72.8833V85.6939H73.3158V85.0884Z" fill="#6CC8C1"/>
<path d="M73.3158 86.2129H72.8833V86.8184H73.3158V86.2129Z" fill="#6CC8C1"/>
<path d="M73.3158 87.3374H72.8833V87.9429H73.3158V87.3374Z" fill="#6CC8C1"/>
<path d="M73.3158 83.8774H72.8833V84.483H73.3158V83.8774Z" fill="#6CC8C1"/>
<path d="M74.1808 83.8774H73.7483V84.483H74.1808V83.8774Z" fill="#6CC8C1"/>
<path d="M74.1808 88.5486H73.7483V89.1541H74.1808V88.5486Z" fill="#6CC8C1"/>
<path d="M74.1808 85.0884H73.7483V85.6939H74.1808V85.0884Z" fill="#6CC8C1"/>
<path d="M74.1808 87.3374H73.7483V87.9429H74.1808V87.3374Z" fill="#6CC8C1"/>
<path d="M74.1808 86.2129H73.7483V86.8184H74.1808V86.2129Z" fill="#6CC8C1"/>
<path d="M75.0458 83.8774H74.6133V84.483H75.0458V83.8774Z" fill="#6CC8C1"/>
<path d="M75.0458 86.2129H74.6133V86.8184H75.0458V86.2129Z" fill="#6CC8C1"/>
<path d="M75.0458 88.5486H74.6133V89.1541H75.0458V88.5486Z" fill="#6CC8C1"/>
<path d="M75.0458 85.0884H74.6133V85.6939H75.0458V85.0884Z" fill="#6CC8C1"/>
<path d="M75.0458 87.3374H74.6133V87.9429H75.0458V87.3374Z" fill="#6CC8C1"/>
<path d="M75.9108 88.5486H75.4783V89.1541H75.9108V88.5486Z" fill="#6CC8C1"/>
<path d="M75.9108 83.8774H75.4783V84.483H75.9108V83.8774Z" fill="#6CC8C1"/>
<path d="M75.9108 85.0884H75.4783V85.6939H75.9108V85.0884Z" fill="#6CC8C1"/>
<path d="M75.9108 87.3374H75.4783V87.9429H75.9108V87.3374Z" fill="#6CC8C1"/>
<path d="M75.9108 86.2129H75.4783V86.8184H75.9108V86.2129Z" fill="#6CC8C1"/>
<path d="M76.776 88.5486H76.3435V89.1541H76.776V88.5486Z" fill="#6CC8C1"/>
<path d="M76.776 85.0884H76.3435V85.6939H76.776V85.0884Z" fill="#6CC8C1"/>
<path d="M76.776 87.3374H76.3435V87.9429H76.776V87.3374Z" fill="#6CC8C1"/>
<path d="M76.776 86.2129H76.3435V86.8184H76.776V86.2129Z" fill="#6CC8C1"/>
<path d="M76.776 83.8774H76.3435V84.483H76.776V83.8774Z" fill="#6CC8C1"/>
<path d="M77.468 86.8184L77.5545 86.2129H77.2085V86.8184H77.468Z" fill="#6CC8C1"/>
<path d="M77.641 85.0884H77.2085V85.6939H77.641V85.4344V85.0884Z" fill="#6CC8C1"/>
<path d="M77.295 87.9429L77.3815 87.3374H77.2085V87.9429H77.295Z" fill="#6CC8C1"/>
<path d="M77.2085 88.7216L77.295 88.5486H77.2085V88.7216Z" fill="#6CC8C1"/>
<path d="M77.641 83.8774H77.2085V84.483H77.641V83.8774Z" fill="#6CC8C1"/>
<path d="M70.7206 85.0884H70.2881V85.6939H70.7206V85.0884Z" fill="#6CC8C1"/>
<path d="M70.7206 86.2129H70.2881V86.8184H70.7206V86.2129Z" fill="#6CC8C1"/>
<path d="M70.7206 83.8774H70.2881V84.483H70.7206V83.8774Z" fill="#6CC8C1"/>
<path d="M70.7206 88.5486H70.2881V89.1541H70.7206V88.5486Z" fill="#6CC8C1"/>
<path d="M70.7206 87.3374H70.2881V87.9429H70.7206V87.3374Z" fill="#6CC8C1"/>
<path d="M69.8556 86.2129H69.4231V86.8184H69.8556V86.2129Z" fill="#6CC8C1"/>
<path d="M69.8556 87.3374H69.4231V87.9429H69.8556V87.3374Z" fill="#6CC8C1"/>
<path d="M69.8556 85.0884H69.4231V85.6939H69.8556V85.0884Z" fill="#6CC8C1"/>
<path d="M69.8556 88.5486H69.4231V89.1541H69.8556V88.5486Z" fill="#6CC8C1"/>
<path d="M69.8556 83.8774H69.4231V84.483H69.8556V83.8774Z" fill="#6CC8C1"/>
<path d="M68.7312 87.3374L68.8177 87.9429H68.9042V87.3374H68.7312Z" fill="#6CC8C1"/>
<path d="M68.9042 85.6939V85.0884H68.4717V85.4344L68.5582 85.6939H68.9042Z" fill="#6CC8C1"/>
<path d="M68.9042 83.8774H68.4717V84.483H68.9042V83.8774Z" fill="#6CC8C1"/>
<path d="M68.6445 86.2129V86.8184H68.904V86.2129H68.6445Z" fill="#6CC8C1"/>
<path d="M76.3435 89.1541H75.911H75.4785H75.046H74.6135H74.1809H73.7484H73.3159H72.8834H72.4509H72.0183H71.5858H71.1533H70.7208H70.2883H69.8558H69.4232H68.9907C69.0772 89.3271 69.1637 89.5001 69.3367 89.5001H76.776C76.9491 89.5001 77.1221 89.3271 77.1221 89.1541H76.6895H76.3435Z" fill="#6CC8C1"/>
<path d="M72.8833 87.9431H72.4508H72.0183H71.4992H71.1532H70.6342H70.2882H69.7692H69.4231H68.9041H68.8176L68.9041 88.5486H69.4231H69.7692H70.2882H70.6342H71.1532H71.4992H72.0183H72.4508H72.8833H73.3158H73.7483H74.1808H74.6134H75.0459H75.4784H75.9109H76.3434H76.776H77.2085H77.295V87.9431H77.2085H76.776H76.3434H75.9109H75.4784H75.0459H74.6134H74.1808H73.7483H73.3158H72.8833Z" fill="#6CC8C1"/>
<path d="M72.8832 86.8184H72.4507H72.0182H71.4992H71.1531H70.6341H70.2881H69.7691H69.4231H68.904H68.6445L68.731 87.3374H68.904H69.4231H69.7691H70.2881H70.6341H71.1531H71.4992H72.0182H72.4507H72.8832H73.3157H73.7482H74.1808H74.6133H75.0458H75.4783H75.9108H76.3434H76.7759H77.2084H77.3814L77.4679 86.8184H77.2084H76.7759H76.3434H75.9108H75.4783H75.0458H74.6133H74.1808H73.7482H73.3157H72.8832Z" fill="#6CC8C1"/>
<path d="M72.8833 85.6938H72.4508H72.0183H71.4992H71.1532H70.6342H70.2882H69.7692H69.4231H68.9041H68.5581L68.6446 86.2129H68.9041H69.4231H69.7692H70.2882H70.6342H71.1532H71.4992H72.0183H72.4508H72.8833H73.3158H73.7483H74.1808H74.6134H75.0459H75.4784H75.9109H76.3434H76.7759H77.2085H77.5545L77.641 85.6938H77.2085H76.7759H76.3434H75.9109H75.4784H75.0459H74.6134H74.1808H73.7483H73.3158H72.8833Z" fill="#6CC8C1"/>
<path d="M73.3157 84.4829H72.8832H72.4507H72.0182H71.4991H71.1531H70.6341H70.2881H69.7691H69.4231H68.904H68.4715H68.385L68.4715 85.0884H68.904H69.4231H69.7691H70.2881H70.6341H71.1531H71.4991H72.0182H72.4507H72.8832H73.3157H73.7482H74.1807H74.6133H75.0458H75.4783H75.9108H76.3433H76.7759H77.2084H77.6409H77.7274V84.4829H77.6409H77.2084H76.7759H76.3433H75.9108H75.4783H75.0458H74.6133H74.1807H73.7482H73.3157Z" fill="#6CC8C1"/>
<path d="M71.4992 83.8773H72.0182H72.4508H72.8833H73.3158H73.7483H74.1808H74.6133H75.0459H75.4784H75.9109H76.3434H76.7759H77.2085H77.641H77.814L77.9005 83.4448H68.2986V83.8773H68.4716H68.9041H69.4231H69.7691H70.2882H70.6342H71.1532H71.4992Z" fill="#6CC8C1"/>
<path d="M78.1598 83.1855C78.0733 83.099 77.9868 83.0125 77.9003 83.0125H68.2984C68.2119 83.0125 68.1254 83.099 68.0389 83.1855C67.9524 83.272 67.9524 83.3585 67.9524 83.445V83.5315L68.0389 83.8775L68.6444 89.0677C68.6444 89.1542 68.6444 89.2407 68.6444 89.2407C68.7309 89.5867 68.9904 89.8462 69.3364 89.8462H76.7758C77.1218 89.8462 77.3813 89.5867 77.4678 89.2407C77.4678 89.1542 77.4678 89.0677 77.5543 88.9812L78.1598 83.791L78.2463 83.445V83.3585C78.2463 83.3585 78.1598 83.272 78.1598 83.1855V83.1855ZM77.4678 83.964L76.8623 88.9812C76.8623 89.0677 76.8623 89.0677 76.7758 89.0677H69.3364C69.3364 89.0677 69.2499 89.0677 69.2499 88.9812L68.6444 83.964H77.4678Z" fill="#6CC8C1"/>
<path d="M78.7654 83.0124C78.7654 83.3584 78.5924 83.5314 78.3329 83.5314H67.7794C67.5199 83.5314 67.3469 83.3584 67.3469 83.0989V83.0124V82.9258C67.4334 82.7528 67.5199 82.5798 67.7794 82.5798H78.3329C78.5059 82.5798 78.6789 82.6663 78.7654 82.9258C78.7654 82.9258 78.7654 82.9258 78.7654 83.0124Z" fill="#6CC8C1"/>
<path opacity="0.2" d="M78.2464 83.4448C78.2464 83.5313 78.2464 83.5313 78.2464 83.4448L78.1599 83.8773H67.9525L67.866 83.5313V83.4448H78.2464Z" fill="#29235C"/>
<path opacity="0.2" d="M77.4679 89.3271C77.3814 89.6732 77.1219 89.9327 76.7759 89.9327H69.3366C68.9905 89.9327 68.731 89.6732 68.6445 89.3271H77.4679Z" fill="#29235C"/>
<path d="M70.634 82.5799C70.634 82.5799 73.9212 81.1093 74.5267 82.5799C74.6997 83.0989 74.8727 83.4449 74.8727 83.7044C74.9592 85.6075 70.807 82.6664 70.634 82.5799Z" fill="white"/>
<path opacity="0.2" d="M70.634 82.5798C70.634 82.5798 74.1807 84.8289 74.8727 83.7044C74.9592 85.6075 70.807 82.6663 70.634 82.5798Z" fill="#29235C"/>
<path d="M118.125 55.6771C118.985 55.6771 119.682 54.98 119.682 54.1201C119.682 53.2601 118.985 52.563 118.125 52.563C117.265 52.563 116.568 53.2601 116.568 54.1201C116.568 54.98 117.265 55.6771 118.125 55.6771Z" fill="#FFF200"/>
<path d="M119.336 48.4973H116.827V50.0544H119.336V48.4973Z" fill="white"/>
<path d="M119.076 49.8813H117.173C114.924 49.8813 113.107 51.6979 113.107 53.947H123.055C123.142 51.6979 121.325 49.8813 119.076 49.8813V49.8813Z" fill="white"/>
<path d="M120.633 50.2273C119.855 51.6114 117.865 53.2549 113.194 53.4279C113.194 53.6009 113.107 53.7739 113.107 53.9469H123.055C123.142 52.2169 122.104 50.8328 120.633 50.2273Z" fill="#E6E7E8"/>
<path d="M118.211 8.1001H117.952V49.2758H118.211V8.1001Z" fill="white"/>
<path d="M53.1603 56.8883C54.0203 56.8883 54.7174 56.1912 54.7174 55.3312C54.7174 54.4713 54.0203 53.7742 53.1603 53.7742C52.3004 53.7742 51.6033 54.4713 51.6033 55.3312C51.6033 56.1912 52.3004 56.8883 53.1603 56.8883Z" fill="#FFF200"/>
<path d="M54.4578 49.7085H51.9492V51.2656H54.4578V49.7085Z" fill="white"/>
<path d="M54.1982 51.179H52.2952C50.0461 51.179 48.2295 52.9955 48.2295 55.2446H58.1774C58.1774 52.9955 56.3608 51.179 54.1982 51.179Z" fill="white"/>
<path d="M55.6689 51.4385C54.8903 52.8225 52.9008 54.4661 48.2296 54.6391C48.2296 54.8121 48.1431 54.9851 48.1431 55.1581H58.091C58.1775 53.5146 57.1394 52.044 55.6689 51.4385Z" fill="#E6E7E8"/>
<path d="M53.3332 9.39771H53.0737V50.5734H53.3332V9.39771Z" fill="white"/>
<path d="M118.73 82.8392C118.73 82.8392 120.028 82.8392 119.509 80.3306C119.509 80.3306 118.211 80.5036 118.73 82.8392Z" fill="#75271A"/>
<path d="M116.222 80.1577C116.222 80.1577 114.924 79.2061 116.308 78.2546C117.26 77.5626 118.903 78.7736 118.903 78.7736C118.903 78.7736 119.768 78.0816 120.46 78.7736C121.152 79.4657 119.595 80.3307 119.595 80.3307C119.595 80.3307 119.595 81.0227 119.163 81.3687C119.163 81.3687 118.73 81.5417 118.73 81.8013C118.73 81.8013 118.211 81.1957 118.211 80.7632C118.211 80.6767 117.346 80.7632 116.222 80.1577H116.222Z" fill="#75271A"/>
<path d="M118.557 82.0608C118.557 82.0608 118.817 81.2823 119.163 81.3688C119.509 81.4553 119.422 82.4933 119.163 82.6663C118.817 82.9258 118.644 82.6663 118.644 82.6663L118.557 82.0608Z" fill="#F8A492"/>
<path d="M119.163 81.6282C118.99 81.8012 118.903 82.0607 118.903 82.3202C118.99 82.2337 119.076 82.1472 119.163 82.1472C119.076 82.1472 118.99 82.2337 118.903 82.3202C118.903 82.4067 118.903 82.4932 118.817 82.5797H118.73C118.73 82.3202 118.817 81.8012 119.163 81.6282Z" fill="#75271A"/>
</g>
<defs>
<linearGradient id="paint0_linear" x1="118.449" y1="85.1329" x2="118.449" y2="65.2648" gradientUnits="userSpaceOnUse">
<stop stop-color="white"/>
<stop offset="1" stop-color="#BCDFF5"/>
</linearGradient>
<linearGradient id="paint1_linear" x1="118.449" y1="87.6344" x2="118.449" y2="74.6557" gradientUnits="userSpaceOnUse">
<stop stop-color="white"/>
<stop offset="1" stop-color="#BCDFF5"/>
</linearGradient>
<linearGradient id="paint2_linear" x1="114.272" y1="94.2472" x2="114.272" y2="84.4463" gradientUnits="userSpaceOnUse">
<stop stop-color="white"/>
<stop offset="1" stop-color="#BCDFF5"/>
</linearGradient>
<linearGradient id="paint3_linear" x1="124.617" y1="94.5016" x2="124.617" y2="83.6888" gradientUnits="userSpaceOnUse">
<stop stop-color="white"/>
<stop offset="1" stop-color="#BCDFF5"/>
</linearGradient>
<linearGradient id="paint4_linear" x1="107.613" y1="95.1376" x2="107.613" y2="89.2855" gradientUnits="userSpaceOnUse">
<stop stop-color="white"/>
<stop offset="1" stop-color="#BCDFF5"/>
</linearGradient>
<clipPath id="clip0">
<rect width="180.093" height="130.166" fill="white"/>
</clipPath>
</defs>
</svg>
