<svg width="157" height="99" viewBox="0 0 157 99" fill="none" xmlns="http://www.w3.org/2000/svg">
<g clip-path="url(#clip0)">
<path d="M12.7492 97.9492H154.096C155.913 97.9492 156.518 57.8985 156.518 55.1303C156.259 38.4351 155.307 10.062 139.823 1.84414C132.47 -2.04846 124.252 1.75764 117.505 5.56384C103.145 13.6951 87.0558 26.1516 70.2741 22.605C62.5752 20.9614 56.001 15.5982 48.9077 12.0515C41.9009 8.50494 34.2886 5.99634 26.6762 5.90984C5.91537 5.73684 -0.0534343 34.7155 0.811666 54.0058C1.15767 61.4451 2.54167 68.8844 4.53127 75.9777C5.30977 78.4002 10.6731 97.9492 12.7492 97.9492Z" fill="#FAFFFF"/>
<path d="M121.225 41.8086H92.8521V73.2959H121.225V41.8086Z" fill="#3D576B"/>
<path d="M121.225 42.5874H93.6299V72.5176H121.225V42.5874Z" fill="url(#paint0_linear)"/>
<path d="M95.2739 54.0919L97.9549 53.1404L98.9069 52.7944V55.9085H101.329L102.107 56.86L102.626 57.3791L102.713 57.4656L103.319 58.2441V68.7975H104.876V61.9638H106.087V57.4656L106.173 57.3791L106.346 57.2926L106.779 56.86L106.952 56.687L107.557 56.2545L107.73 55.995V68.884H108.422V58.3306H109.287V51.2373H111.969V53.3999L112.401 53.5729L114.737 54.6974V57.033L115.429 57.2926L116.208 57.6386V70.1816H117.332V67.4135H118.284V61.3582L118.37 61.1852L119.149 60.4932V55.3895L120.533 52.9674L120.619 52.7079L121.052 52.0158H121.225V72.5172H93.6299V67.846H94.0629V71.3061H94.6679V66.635H95.2739V54.0919Z" fill="url(#paint1_linear)"/>
<path d="M105.654 72.5173V60.4933L103.838 57.1196H102.713L100.81 60.9258V72.5173H105.654Z" fill="url(#paint2_linear)"/>
<path d="M120.187 72.5178V70.8742H119.322V64.819L118.37 63.8674V58.8502L116.467 55.4766H113.007V70.1822H112.402V66.549H111.883V55.9956L109.547 58.3312V62.7429V63.2619L108.422 64.3864V66.03H107.99V71.9123H107.644L107.038 72.5178H120.187Z" fill="url(#paint3_linear)"/>
<path d="M96.3979 60.5801H94.4089V72.5176H98.8199V65.8569L96.3979 63.9538V60.5801Z" fill="url(#paint4_linear)"/>
<path d="M108.422 58.3312V59.1963L108.855 58.3312H108.422ZM116.208 42.8471L111.623 51.2378L109.374 55.3901V57.5527L112.055 52.6219L117.419 42.7606H116.208V42.8471ZM119.062 64.5594L118.284 65.9435L117.505 67.414L117.419 67.5005H119.322V67.6736H120.533V61.8779L119.062 64.5594ZM121.138 46.8261L120.619 47.6913L120.446 47.9508L116.381 55.4765L115.429 57.2932L113.007 61.7048L111.882 63.6944L109.806 67.5005L109.374 68.2791H110.585L111.017 67.5005L111.882 65.9435L113.007 63.9539L116.208 58.0716L117.073 56.428L120.533 50.1999L120.706 49.9404L121.225 49.0752L121.398 48.8158V46.6532L121.138 46.8261ZM121.138 56.8606L120.619 57.7256L120.446 57.9852L118.37 61.7914L118.197 62.0508L116.121 65.8569L115.17 67.5005L115.083 67.6736H116.035V68.106L116.294 67.6736L116.381 67.5005L118.197 64.2134L118.37 63.8674L120.446 60.1478L120.619 59.8883L121.138 59.0232L121.311 58.7636V56.6011L121.138 56.8606ZM118.37 42.5875L118.284 42.8471L112.401 53.5734L110.066 57.8987L109.633 58.7636L108.509 60.8398L107.817 62.0508L107.557 62.4834L107.038 63.5213L106.865 63.781L106.346 64.646L106.26 64.9054L105.741 65.8569L104.876 67.3276L104.789 67.5005L104.703 67.6736L104.443 68.1926L104.357 68.3655L104.184 68.5387L104.011 68.7981L101.934 72.5178H106.087L106.173 72.4313L106.26 72.1718L106.779 71.3067L106.952 71.0472L107.471 70.0091L107.903 69.2307L108.076 68.8847L108.249 68.5387L108.336 68.3655V68.2791L108.768 67.5005L111.709 62.0508L112.834 60.0612L114.564 56.8606L115.343 55.4765L120.36 46.3072L120.533 46.0477L121.052 45.1826L121.225 44.9231V42.5875H118.37ZM117.419 42.8471H116.208L111.623 51.2378L109.374 55.3901V57.5527L112.055 52.6219L117.419 42.8471ZM115.429 57.2932L113.007 61.7048L111.882 63.6944L109.806 67.5005L109.374 68.2791H110.585L111.017 67.5005L111.882 65.9435L113.007 63.9539L116.208 58.0716L117.073 56.428L120.533 50.1999V48.0372L116.467 55.563L115.429 57.2932ZM108.422 58.3312V59.1963L108.855 58.3312H108.422ZM106.173 63.2618V61.0993L106.087 61.2722V62.0508H105.654L104.789 63.5213V65.684L105.654 64.2134L106.173 63.2618ZM116.294 42.5875L116.208 42.8471L111.623 51.2378L109.374 55.3901L107.817 58.1581L107.557 58.5907L107.038 59.6288L106.779 59.8883L106.26 60.7533L106.173 61.0127L106.087 61.1858L105.654 61.9643L104.789 63.4349L103.232 66.2896L102.626 67.5005L102.54 67.6736L102.28 68.1926L102.194 68.3655L102.107 68.6252L100.896 70.8742L99.9449 72.6042H101.156L103.319 68.6252L103.405 68.3655L103.492 68.1926L103.751 67.6736L103.838 67.5005L104.876 65.684L105.741 64.2134L106.26 63.2618L106.346 63.0023L106.865 62.1374L107.038 61.8779L107.557 60.8398L107.817 60.4072L108.509 59.1963L108.941 58.3312L109.374 57.5527L112.055 52.6219L117.419 42.7606L117.505 42.5011H116.294V42.5875ZM106.173 61.0127L106.087 61.1858L105.654 61.9643L104.789 63.4349L103.232 66.2896L102.626 67.5005H103.232V67.6736H103.751L103.838 67.5005L104.876 65.684L105.741 64.2134L106.26 63.2618L106.346 63.0023V60.8398L106.173 61.0127ZM106.779 49.9404L106.26 50.8054L106.173 51.0648L102.8 57.1201L102.626 57.4661L101.156 60.1478L98.3009 65.4245L97.1769 67.5005L96.7439 68.2791H97.9549L98.0419 68.106L98.3009 67.5871L98.3879 67.414L98.8199 66.6356L100.896 62.9158L103.319 58.4176L104.011 57.2066L106.26 53.141L106.346 52.8814L106.865 52.0164L107.038 51.7569V49.5944L106.779 49.9404ZM105.827 42.5875L105.741 42.8471L98.9929 55.1305L95.9659 60.5803L95.2739 61.7914L94.4089 63.3484L94.1489 63.781L93.6299 64.8189V72.3447L94.1489 71.3067V71.2203L94.3219 70.8742L94.5819 70.4417L95.6199 68.5387L95.7059 68.2791L96.1389 67.5005L97.5229 64.9054L101.934 56.7741L106 49.3348L106.087 49.0752L106.606 48.2103L106.779 47.9508L107.298 46.9127L109.547 42.7606L109.633 42.5011H105.827V42.5875ZM106.346 50.8054L106.26 51.0648L102.886 57.1201L102.713 57.4661L101.242 60.1478L98.3879 65.4245L97.2629 67.5005L96.8309 68.2791H98.0419L98.1279 68.106L98.3879 67.5871L98.4739 67.414L98.9069 66.6356L100.983 62.9158L103.405 58.4176L104.097 57.2066L106.346 53.141L106.433 52.8814L106.952 52.0164L107.125 51.7569V49.5944L106.952 49.8539L106.346 50.8054ZM98.2149 42.5875L98.1279 42.8471L94.2359 49.9404L93.7169 50.9783V53.141L94.2359 52.103L99.3389 42.7606L99.4259 42.5011H98.2149V42.5875ZM93.6299 42.5875V49.2483L94.1489 48.2103L97.1769 42.7606L97.2629 42.5011H93.6299V42.5875ZM103.665 42.5875L103.578 42.8471L97.9549 53.141L95.2739 57.9852L94.2359 59.8883L93.7169 60.9262V63.0889L94.2359 62.0508L94.4949 61.6183L95.1009 60.4938L95.3599 60.0612L99.0799 53.3139L104.876 42.674L104.962 42.4146H103.665V42.5875ZM106.173 61.0127L106.087 61.1858L105.654 61.9643L104.789 63.4349L103.232 66.2896L102.626 67.5005H103.232V67.6736H103.751L103.838 67.5005L104.876 65.684L105.741 64.2134L106.26 63.2618L106.346 63.0023V60.8398L106.173 61.0127ZM110.844 42.5875L110.758 42.8471L107.557 48.6428L107.038 49.6808L106.865 49.9404L106.346 50.8054L106.26 51.0648L102.886 57.1201L102.713 57.4661L101.242 60.1478L98.3879 65.4245L97.2629 67.5005L96.8309 68.2791L96.7439 68.5387L94.5819 72.5178H95.7929L97.9549 68.5387L98.0419 68.2791L98.1279 68.106L98.3879 67.5871L98.4739 67.414L98.9069 66.6356L100.983 62.9158L103.405 58.4176L104.097 57.2066L106.346 53.141L106.433 52.8814L106.952 52.0164L107.125 51.7569L107.644 50.7188L112.055 42.674L112.142 42.4146H110.844V42.5875ZM119.062 64.5594L118.284 65.9435L117.505 67.414L117.419 67.5005H119.322V67.6736H120.533V61.8779L119.062 64.5594ZM121.138 56.8606L120.619 57.7256L120.446 57.9852L118.37 61.7914L118.197 62.0508L116.121 65.8569L115.17 67.5005L115.083 67.6736L114.824 68.1926L114.737 68.3655L114.651 68.6252L112.488 72.6042H113.699L115.862 68.6252L115.948 68.3655L116.035 68.1926L116.121 68.106L116.381 67.6736L116.467 67.5005L118.284 64.2134L118.457 63.8674L120.533 60.1478L120.706 59.8883L121.225 59.0232L121.398 58.7636V56.6011L121.138 56.8606ZM121.138 67.5005V68.1926L121.311 67.9331V67.5005H121.138ZM121.225 69.6631L121.052 69.9227L120.533 70.7877L120.36 71.0472L120.1 71.5663L119.581 72.5178H120.792L121.052 72.0853L121.225 71.8258V69.6631ZM119.062 64.5594L118.284 65.9435L117.505 67.414L117.419 67.5005H119.322V67.6736H120.533V61.8779L119.062 64.5594ZM121.138 46.8261L120.619 47.6913L120.446 47.9508L116.381 55.4765L115.429 57.2932L113.007 61.7048L111.882 63.6944L109.806 67.5005L109.374 68.2791L109.287 68.5387L107.99 70.8742L107.557 71.6527L107.125 72.5178H108.336L110.498 68.5387L110.585 68.2791L111.017 67.5005L111.882 65.9435L113.007 63.9539L116.208 58.0716L117.073 56.428L120.533 50.1999L120.706 49.9404L121.225 49.0752L121.398 48.8158V46.6532L121.138 46.8261ZM121.138 56.8606L120.619 57.7256L120.446 57.9852L118.37 61.7914L118.197 62.0508L116.121 65.8569L115.17 67.5005L115.083 67.6736H116.035V68.106L116.294 67.6736L116.381 67.5005L118.197 64.2134L118.37 63.8674L120.446 60.1478L120.619 59.8883L121.138 59.0232L121.311 58.7636V56.6011L121.138 56.8606ZM121.138 60.6667L120.619 61.5319L120.446 61.7914L118.976 64.473L118.197 65.8569L117.419 67.3276L117.332 67.414V67.5005V67.5871L117.073 68.106L116.986 68.2791L116.9 68.5387L116.208 69.7496L114.651 72.6042H118.803L119.754 70.9607L120.533 69.4902L120.706 69.2307L121.138 68.3655V68.2791L121.311 68.0195V60.4938L121.138 60.6667Z" fill="#58595B"/>
<path d="M121.225 67.5005H92.8521V68.2791H121.225V67.5005Z" fill="#3D576B"/>
<path d="M121.311 42.1548H120.533V73.0366H121.311V42.1548Z" fill="#3D576B"/>
<path d="M106.952 42.1548H106.173V73.0366H106.952V42.1548Z" fill="#3D576B"/>
<path d="M94.2359 42.5874H93.6299V42.8469V67.5004H94.2359V42.8469H106.173V42.5874H94.2359Z" fill="#E8F4FC"/>
<path d="M94.2359 68.2788H93.6299V68.5383V72.5175H94.2359V68.5383H106.173V68.2788H94.2359Z" fill="#E8F4FC"/>
<path d="M107.557 68.2788H106.952V68.5383V72.5175H107.557V68.5383H120.533V68.2788H107.557Z" fill="#E8F4FC"/>
<path d="M107.557 42.5874H106.952V42.8469V67.5004H107.557V42.8469H120.446V42.5874H107.557Z" fill="#E8F4FC"/>
<path d="M106.346 41.8086V72.3444C106.346 72.5174 106.433 72.6039 106.606 72.6039C106.779 72.6039 106.865 72.5174 106.865 72.3444V41.8086H106.346Z" fill="#67B5A3"/>
<path d="M93.0249 41.8086V72.3444C93.0249 72.5174 93.1109 72.6039 93.2839 72.6039C93.4569 72.6039 93.5439 72.5174 93.5439 72.3444V41.8086H93.0249Z" fill="#67B5A3"/>
<path d="M106.519 67.6733H97.8689C97.6959 67.6733 97.6089 67.7598 97.6089 67.9328C97.6089 68.1058 97.6959 68.1923 97.8689 68.1923H106.519V67.6733Z" fill="#67B5A3"/>
<path d="M120.792 67.6733H112.142C111.969 67.6733 111.882 67.7598 111.882 67.9328C111.882 68.1058 111.969 68.1923 112.142 68.1923H120.792V67.6733Z" fill="#67B5A3"/>
<path d="M120.619 41.8086V72.3444C120.619 72.5174 120.706 72.6039 120.879 72.6039C121.052 72.6039 121.138 72.5174 121.138 72.3444V41.8086H120.619Z" fill="#67B5A3"/>
<path d="M105.827 93.1051C105.395 93.3651 105.308 94.0571 105.308 94.9221C105.308 95.2681 105.308 95.0951 105.308 95.6141C105.308 96.6521 105.221 96.8251 105.308 97.3441C105.395 97.6901 105.481 97.9491 105.654 98.2091C105.914 98.4681 106.26 98.4681 106.433 98.5551C106.692 98.6421 107.125 98.6421 107.298 98.4681C107.384 98.2951 107.298 97.3441 107.211 96.6521C106.951 94.8351 106.778 93.1921 106.173 93.1051C106 93.0191 105.913 93.1051 105.827 93.1051Z" fill="#4C423F"/>
<path d="M109.114 93.1051C109.547 93.3651 109.633 94.0571 109.633 94.9221C109.633 95.2681 109.633 95.0951 109.633 95.6141C109.633 96.6521 109.72 96.8251 109.633 97.3441C109.547 97.6901 109.46 97.9491 109.287 98.2091C109.028 98.4681 108.682 98.4681 108.509 98.5551C108.249 98.6421 107.817 98.6421 107.644 98.4681C107.557 98.2951 107.644 97.3441 107.73 96.6521C107.99 94.8351 108.163 93.1921 108.768 93.1051C108.941 93.0191 109.114 93.1051 109.114 93.1051Z" fill="#4C423F"/>
<path d="M106.346 93.1055C106.606 94.6625 106.952 97.2575 106.952 97.7765C106.952 97.9495 106.865 98.1225 106.865 98.1225C106.778 98.2095 106.692 98.2955 106.173 98.1225C106 98.0365 105.741 97.9495 105.395 97.7765C105.481 97.9495 105.568 98.0365 105.654 98.1225C105.914 98.3825 106.26 98.3825 106.433 98.4685C106.692 98.5555 107.125 98.5555 107.298 98.3825C107.384 98.2095 107.298 97.2575 107.211 96.5655C107.038 94.9225 106.865 93.4515 106.346 93.1055Z" fill="#353131"/>
<path d="M108.682 98.2093C108.163 98.3823 108.076 98.2093 107.99 98.2093C107.903 98.1223 107.903 98.0363 107.903 97.8633C107.903 97.3443 108.336 94.8353 108.509 93.2783C108.076 93.7113 107.903 95.0953 107.644 96.7383C107.557 97.4303 107.471 98.4683 107.557 98.5553C107.73 98.7283 108.076 98.7283 108.422 98.6413C108.682 98.6413 108.941 98.5553 109.201 98.2953C109.374 98.1223 109.46 98.0363 109.46 97.8633C109.201 98.0363 108.941 98.1223 108.682 98.2093Z" fill="#353131"/>
<path d="M107.038 79.697C107.644 80.562 107.125 81.514 106.779 83.59C106.519 85.579 106.952 85.147 106.779 88.607C106.779 89.212 106.606 92.586 106.692 94.057C106.692 94.489 106.779 94.662 106.779 94.922C106.865 95.614 107.038 95.787 107.038 96.306C107.038 96.565 107.038 97.084 106.692 97.171C106.433 97.257 106 96.911 105.741 96.565C105.654 96.392 105.568 96.219 105.568 95.268C105.568 94.576 105.568 94.489 105.568 94.143C105.568 93.538 105.481 93.192 105.308 92.5C105.308 92.5 105.049 91.375 104.789 90.337C104.703 89.731 104.357 88.088 104.616 86.185C104.703 85.493 104.876 85.06 104.876 84.109C104.876 83.503 104.876 83.157 104.789 82.379C104.529 80.216 104.443 79.092 104.789 78.832C105.308 78.573 106.433 78.919 107.038 79.697Z" fill="#F9B087"/>
<path d="M106.692 93.9703C106.606 92.5863 106.779 89.1263 106.779 88.5203C106.952 85.0603 106.433 85.5793 106.779 83.5033C107.038 81.5143 107.644 80.5623 107.038 79.6113C106.519 78.8323 105.308 78.4003 104.789 78.8323C104.53 79.0053 104.53 79.7843 104.703 81.1683C104.876 81.0813 105.135 80.9953 105.395 80.9083C105.568 80.9083 106.346 80.7353 106.692 81.2543C106.779 81.4273 106.779 81.6003 106.779 81.9463C106.692 82.7253 106.606 83.1573 106.519 83.5903C106.433 83.9363 106.346 84.5413 106.433 85.3203C106.433 85.6663 106.519 85.7523 106.519 86.2713C106.519 86.5313 106.519 86.8773 106.606 87.5693C106.606 88.2613 106.606 88.8663 106.606 89.0393C106.606 90.6833 106.606 90.9433 106.519 91.6353C106.519 93.8843 106.606 92.9323 106.606 94.0573C106.606 94.2303 106.865 95.6143 106.952 95.7873C107.038 96.0463 107.038 96.3923 106.865 96.9113C107.125 96.7383 107.125 96.2193 107.125 96.0463C107.125 95.5273 107.038 95.3543 106.865 94.6623C106.779 94.5763 106.692 94.4033 106.692 93.9703Z" fill="#F39474"/>
<path d="M108.163 95.9602C108.249 95.7872 108.509 94.4032 108.509 94.2302C108.509 93.1052 108.595 94.0572 108.595 91.8082C108.595 91.1152 108.595 90.7692 108.509 89.2122C108.509 88.9532 108.509 88.4342 108.509 87.7422C108.509 86.9632 108.509 86.6172 108.595 86.4442C108.682 85.8392 108.682 85.8392 108.682 85.4932C108.769 84.7142 108.682 84.1092 108.595 83.7632C108.509 83.3302 108.422 82.9842 108.336 82.1192C108.249 81.6872 108.249 81.5142 108.422 81.4272C108.682 80.9952 109.547 81.0812 109.72 81.0812C109.98 81.0812 110.239 81.2542 110.412 81.3412C110.585 79.9572 110.585 79.1782 110.325 79.0052C109.806 78.6592 108.682 79.0052 108.076 79.7842C107.471 80.6492 107.99 81.6002 108.336 83.6762C108.595 85.6662 108.163 85.2332 108.336 88.6932C108.336 89.2992 108.509 92.6732 108.422 94.1432C108.422 94.5762 108.336 94.7492 108.336 95.0082C108.249 95.7002 108.076 95.8732 108.076 96.3922C108.076 96.6522 108.076 97.1712 108.336 97.2572C108.076 96.6522 108.076 96.2192 108.163 95.9602Z" fill="#F39474"/>
<path d="M110.066 84.1091C110.066 83.5031 110.066 83.1571 110.152 82.3791C110.239 81.9461 110.239 81.5141 110.239 81.1681C110.066 81.0811 109.806 80.9951 109.547 80.9081C109.374 80.9081 108.595 80.7351 108.249 81.2541C108.163 81.4271 108.163 81.6001 108.163 81.9461C108.249 82.7251 108.336 83.157 108.422 83.59C108.509 83.936 108.595 84.5411 108.509 85.3201C108.509 85.6661 108.422 85.7521 108.422 86.2711C108.422 86.5311 108.422 86.8771 108.336 87.5691C108.336 88.2611 108.336 88.8661 108.336 89.0391C108.336 90.6831 108.336 90.9421 108.422 91.6341C108.422 93.8841 108.336 92.9321 108.336 94.0571C108.336 94.2301 108.076 95.6141 107.99 95.7871C107.903 96.0461 107.903 96.3921 108.076 96.9111C108.336 96.9981 108.768 96.6521 109.028 96.3061C109.114 96.1331 109.201 95.9601 109.201 95.0081C109.201 94.3161 109.201 94.2301 109.201 93.8841C109.201 93.2781 109.287 92.9321 109.46 92.2401C109.46 92.2401 109.72 91.1151 109.979 90.0771C110.066 89.4721 110.412 87.8281 110.152 85.9251C110.239 85.4061 110.066 85.0601 110.066 84.1091Z" fill="#F9B087"/>
<path d="M106.779 62.1372H108.163L111.017 62.9157L110.066 71.047H105.135L104.01 62.9157L106.779 62.1372Z" fill="white"/>
<path d="M104.616 63.0022C104.876 62.9157 105.395 62.7427 106.346 62.5697C107.125 62.3967 107.298 62.3967 107.471 62.3967C107.73 62.3967 107.99 62.3967 108.422 62.4832C109.547 62.6562 110.239 62.9157 110.671 63.0022C110.844 63.0887 110.931 63.0887 111.104 63.1752C111.19 63.2617 111.363 63.2617 111.45 63.3482C111.277 63.0022 111.104 62.8292 111.017 62.8292L108.249 62.1372H106.779L103.924 62.9157C103.837 62.9157 103.665 63.1752 103.405 63.5212C103.492 63.4347 103.665 63.3482 103.838 63.2617C104.011 63.1752 104.27 63.0887 104.616 63.0022Z" fill="#EDECEB"/>
<path d="M111.969 79.8705C111.796 77.5349 110.498 72.4312 110.152 71.2201C110.066 70.8741 109.979 70.5281 109.893 70.3551C109.547 69.3171 106.26 69.0576 105.395 70.3551C105.222 70.6146 105.222 70.7876 105.135 71.2201C104.962 72.3447 103.145 79.6975 103.318 79.8705C104.097 80.6495 109.374 81.1685 111.969 79.8705Z" fill="#211E27"/>
<path d="M104.443 64.9053C104.356 64.9053 103.837 65.8569 103.578 66.4624C103.664 66.4624 103.751 66.5489 103.837 66.5489C104.097 66.0299 104.356 65.5974 104.443 65.3379L105.221 70.9606H105.654C105.221 68.5385 104.962 66.5489 104.789 65.8569C104.616 65.2514 104.529 64.9919 104.443 64.9054V64.9053Z" fill="#EDECEB"/>
<path d="M110.671 65.3374C110.585 65.3374 110.498 65.5969 110.325 66.3755C110.239 66.981 110.066 68.7975 109.72 71.0466H110.066L110.671 65.8564C110.671 66.1159 110.844 66.462 111.104 66.8945C111.19 66.8079 111.277 66.8079 111.363 66.7215C111.104 66.1159 110.758 65.3374 110.671 65.3374Z" fill="#EDECEB"/>
<path d="M104.011 66.1162C104.184 65.8567 104.27 65.5972 104.357 65.4242L105.135 71.0469H105.568C105.135 68.6248 104.876 66.6352 104.703 65.9432C104.616 65.3377 104.53 64.9917 104.443 64.9917C104.443 65.0782 104.356 65.2512 104.356 65.3377C104.356 65.4242 104.183 65.7702 104.01 66.1162H104.011Z" fill="#EDECEB"/>
<path d="M110.671 65.7705C110.671 65.5975 110.671 65.511 110.585 65.2515C110.498 65.338 110.412 65.5975 110.325 66.203C110.239 66.8085 110.066 68.6251 109.72 70.8742H110.066L110.671 65.7705C110.671 66.03 110.844 66.376 111.104 66.8085C111.19 66.722 111.277 66.722 111.363 66.6355C111.277 66.7221 111.19 66.7221 111.104 66.8085C110.844 66.376 110.671 66.03 110.671 65.7705Z" fill="#EDECEB"/>
<path d="M110.066 71.047C110.066 71.047 109.806 67.7598 109.806 66.7218C109.806 65.3377 109.979 64.1267 110.066 63.3481C110.066 63.0886 110.152 62.8291 110.152 62.5696L109.547 62.3966C109.46 62.6561 109.46 63.0021 109.46 63.3481C109.374 63.8672 109.287 64.4727 109.287 65.2512C108.768 65.1647 108.163 65.0782 107.471 65.0782C106.865 65.0782 106.346 65.1647 105.827 65.1647C105.74 64.3862 105.74 63.7807 105.654 63.2617C105.654 62.9156 105.567 62.6561 105.567 62.3101L104.962 62.4831C104.962 62.7426 105.049 63.0021 105.049 63.2617C105.135 64.0402 105.308 65.1647 105.308 66.6353C105.308 67.4138 105.308 70.9605 105.308 70.9605C105.308 70.9605 104.27 78.1403 104.616 78.6593C105.395 80.0433 110.325 79.8703 110.844 78.6593C111.017 78.1403 110.066 71.047 110.066 71.047Z" fill="#359591"/>
<path d="M105.654 65.5107C105.654 65.5107 106.26 65.3377 107.211 65.3377C108.422 65.3377 109.287 65.5972 109.287 65.5972C109.287 65.5972 109.46 63.6941 109.72 62.5696L109.547 62.483C109.46 62.7426 109.46 63.0886 109.46 63.4346C109.373 63.9536 109.287 64.5591 109.287 65.3377C108.768 65.2511 108.162 65.1647 107.47 65.1647C106.865 65.1647 106.346 65.2512 105.827 65.2512C105.74 64.4726 105.74 63.8671 105.654 63.3481C105.654 63.0021 105.567 62.7426 105.567 62.3965L105.394 62.483C105.481 62.7426 105.481 63.0886 105.567 63.3481C105.654 65.0782 105.654 65.5107 105.654 65.5107Z" fill="#9EE5DB"/>
<path d="M107.73 79.6105C107.384 79.6105 106.779 79.5245 106.692 79.5245C106.346 79.4375 105.827 79.3515 105.308 79.0915C105.135 79.0055 105.049 78.9185 104.962 78.8325C104.789 78.5725 104.789 78.3135 104.875 78.1405C104.875 77.7078 104.875 77.1888 104.962 76.7563C105.049 76.1507 105.049 75.5452 105.135 75.0262C105.395 72.8636 105.481 70.528 105.481 70.0955C105.481 69.0574 105.481 68.3654 105.481 67.2409C105.394 65.3378 105.394 64.4728 105.222 63.7807C105.135 63.3482 105.135 63.0022 105.049 62.7427H104.962C104.962 63.0022 105.049 63.2617 105.049 63.5212C105.135 64.2998 105.308 65.4243 105.308 66.8949C105.308 67.6734 105.308 71.22 105.308 71.22C105.308 71.22 104.27 78.3995 104.616 78.9185C105.395 80.2165 109.806 80.1295 110.758 79.0915C109.374 79.4375 108.336 79.6105 107.73 79.6105Z" fill="#9EE5DB"/>
<path d="M110.152 71.2202V71.0473C109.374 71.1338 108.509 70.7877 107.557 70.7877C106.606 70.7877 105.654 70.8743 105.135 70.7012V71.1337C105.135 71.1337 105.135 71.1337 105.135 71.2203C105.741 71.3068 106.606 71.4798 107.298 71.4798C108.422 71.5663 109.287 71.3932 110.152 71.2202Z" fill="#9EE5DB"/>
<path d="M110.066 71.0467L110.152 70.3546C109.374 70.4412 108.422 70.6142 107.557 70.5276C106.606 70.5276 105.568 70.3546 105.135 70.1816L105.222 70.8737C105.222 70.8737 105.222 70.8737 105.222 70.9602C105.827 71.0468 106.692 71.2197 107.384 71.2197C108.422 71.3927 109.288 71.3063 110.066 71.0467Z" fill="#7FD6CB"/>
<path d="M111.882 65.1647V64.9917V65.1647C111.796 65.1647 111.709 65.2512 111.623 65.1647H111.45L111.623 65.2512C111.709 65.2512 111.709 65.3377 111.709 65.4242V65.5972L111.796 65.4242C111.796 65.3377 111.883 65.3377 111.969 65.3377H112.142L111.969 65.2512C111.882 65.2512 111.882 65.1647 111.882 65.1647Z" fill="white"/>
<path d="M104.01 62.9155C103.664 62.9155 100.81 67.6732 100.377 70.0088C100.291 70.3548 100.204 70.5278 100.377 70.7008C100.464 70.8738 100.896 70.8738 101.069 70.7874C101.242 70.7874 104.183 66.1162 104.27 65.2511C104.443 64.3861 104.443 62.9155 104.01 62.9155Z" fill="#F9B087"/>
<path d="M100.377 70.7008C100.55 71.0468 105.914 72.1713 106.433 72.0848C106.606 72.0848 106.692 71.4793 106.606 71.2198C106.519 71.0468 101.761 69.4032 101.156 69.5762C100.55 69.9222 100.204 70.3547 100.377 70.7008Z" fill="#F9B087"/>
<path d="M101.502 69.9222C101.502 69.9222 102.886 70.0952 106.605 71.4793C106.605 71.3927 106.605 71.3063 106.519 71.3063C106.432 71.1333 103.318 70.0952 101.848 69.7492C102.799 68.2787 104.183 65.8566 104.27 65.251C104.27 65.078 104.356 64.8185 104.356 64.6455C104.097 64.9915 103.924 65.3375 103.837 65.597C103.405 66.8946 101.415 69.8357 101.502 69.9222Z" fill="#F39474"/>
<path d="M104.011 62.9155C103.838 62.9155 103.059 64.04 102.281 65.5106C102.454 65.6836 102.627 65.7701 102.8 65.9431C103.146 66.2026 103.492 66.4621 103.838 66.6351C104.184 66.0296 104.357 65.5971 104.443 65.3376C104.703 64.1265 104.443 62.9155 104.011 62.9155Z" fill="white"/>
<path d="M103.491 66.4623C103.578 66.4623 103.664 66.5489 103.751 66.5489C103.838 66.3759 103.924 66.2894 104.01 66.1163C104.183 65.7703 104.356 65.4243 104.356 65.3378C104.356 65.2513 104.443 65.0783 104.443 64.9918C104.27 64.9053 103.838 65.8568 103.492 66.4624L103.491 66.4623Z" fill="#EDECEB"/>
<path d="M104.011 62.9155C103.924 62.9155 103.751 63.175 103.405 63.521C103.492 63.4345 103.665 63.348 103.838 63.2615C103.924 63.175 104.097 63.175 104.27 63.0885C104.183 63.002 104.097 62.9155 104.011 62.9155Z" fill="#EDECEB"/>
<path d="M105.827 71.3065C106 71.1335 106.26 71.2199 106.519 71.3065C106.779 71.393 106.952 71.6525 106.952 71.912C107.038 72.1715 106.952 72.7771 106.779 72.9501C106.519 73.2096 105.827 73.0367 105.481 72.7771C105.048 72.431 105.394 71.6525 105.827 71.3065Z" fill="#F9B087"/>
<path d="M111.017 62.9155C111.277 62.9155 113.785 67.6732 114.218 70.0953C114.304 70.4413 114.391 70.6143 114.218 70.8738C114.131 71.0468 112.834 69.4898 112.661 69.4033C112.488 69.4033 110.844 66.6351 110.671 65.8566C110.498 64.9051 110.844 62.9155 111.017 62.9155Z" fill="#F9B087"/>
<path d="M112.574 69.1437C112.488 69.5762 115.862 73.0364 116.381 72.7769C116.381 72.7769 116.9 72.8634 116.986 72.6039C117.159 72.0848 114.045 68.3652 113.526 68.3652C112.92 68.3652 112.574 68.7112 112.574 69.1437Z" fill="#F9B087"/>
<path d="M113.093 69.5767C112.747 69.1441 111.882 67.8466 111.45 66.9815C111.19 66.4625 110.931 65.857 110.585 65.2515C110.585 65.511 110.585 65.684 110.585 65.857C110.671 66.6355 112.401 69.4037 112.574 69.4037C113.18 70.3552 115.775 73.0368 116.294 72.7773C116.294 72.7773 115.429 72.4313 115.861 72.3448C114.996 71.5662 113.439 70.0092 113.093 69.5767Z" fill="#F39474"/>
<path d="M112.574 65.6836C111.882 64.1265 111.104 62.9155 111.017 62.9155C110.585 62.9155 110.585 64.9051 110.671 65.8566C110.671 66.1161 110.844 66.4621 111.104 66.8946C111.363 66.7216 111.709 66.4621 112.055 66.2026C112.228 65.9431 112.401 65.7701 112.574 65.6836Z" fill="white"/>
<path d="M111.45 63.4349C111.363 63.3484 111.363 63.2619 111.277 63.1754C111.277 63.1754 111.277 63.0889 111.19 63.0889C111.103 63.0889 111.017 63.1754 111.017 63.3484C111.104 63.3484 111.19 63.4349 111.277 63.4349C111.19 63.2619 111.277 63.3484 111.45 63.4349Z" fill="#EDECEB"/>
<path d="M110.671 65.3374C110.671 65.3374 110.585 65.3374 110.671 65.3374C110.671 65.5104 110.671 65.6834 110.671 65.8564C110.671 66.1159 110.844 66.462 111.104 66.8945C111.19 66.8079 111.277 66.8079 111.363 66.7215C111.104 66.1159 110.758 65.3374 110.671 65.3374Z" fill="#EDECEB"/>
<path d="M119.841 72.6037C119.841 72.8633 117.851 72.8633 117.159 72.8633C116.38 72.8633 115.775 72.6902 115.775 72.3442C115.775 71.9982 116.38 71.8252 117.159 71.8252C117.937 71.9982 119.841 72.3442 119.841 72.6037Z" fill="#F9B087"/>
<path d="M119.841 72.6037C119.668 72.7767 117.851 72.6903 117.159 72.6903C116.554 72.6903 116.121 72.5172 115.862 72.3442C115.775 72.4308 115.775 72.4308 115.775 72.5172C115.775 72.7768 116.38 73.0363 117.159 73.0363C117.937 72.9497 119.841 72.9497 119.841 72.6037Z" fill="#F39474"/>
<path d="M107.903 63.5212L107.816 58.2445C107.816 58.2445 105.394 56.7739 105.221 58.158C105.221 58.158 104.356 61.9641 106.346 61.7911V62.9157C106.346 62.9157 106.778 63.6942 107.297 63.7807C107.816 63.8672 107.903 63.5212 107.903 63.5212Z" fill="#F8A492"/>
<path d="M106.346 59.6284C106.346 59.6284 106.346 59.7149 106.346 59.6284C106.346 59.8014 106.346 59.9744 106.432 59.9744C106.346 59.9744 106.346 59.8014 106.346 59.6284Z" fill="#75271A"/>
<path d="M106.519 59.542C106.779 59.542 106.692 59.9746 106.519 59.9746C106.259 59.9746 106.346 59.542 106.519 59.542Z" fill="#75271A"/>
<path d="M105.568 59.6288C105.568 59.5423 105.568 59.6288 105.568 59.6288C105.568 59.8018 105.481 59.9748 105.395 59.9748C105.568 59.9748 105.568 59.7153 105.568 59.6288Z" fill="#75271A"/>
<path d="M105.481 59.4555C105.221 59.369 105.135 59.888 105.394 59.888C105.567 59.888 105.654 59.4555 105.481 59.4555Z" fill="#75271A"/>
<path d="M106.779 59.3688C106.692 59.3688 106.692 59.2823 106.606 59.2823C106.519 59.2823 106.519 59.1957 106.433 59.1957V59.1092C106.519 59.0227 106.606 59.1092 106.692 59.1092C106.779 59.1092 106.865 59.1958 106.865 59.2823C106.952 59.2823 106.779 59.3688 106.779 59.3688Z" fill="#75271A"/>
<path d="M105.308 59.196C105.395 59.196 105.395 59.196 105.481 59.196C105.568 59.196 105.654 59.196 105.654 59.1095V59.023C105.568 58.9365 105.481 58.9365 105.395 58.9365C105.308 58.9365 105.222 58.9365 105.135 59.023C105.135 59.1095 105.222 59.196 105.308 59.196Z" fill="#75271A"/>
<path d="M106.519 60.5804C106.433 60.6669 106.26 60.7534 106.173 60.7534C106.087 60.7534 106.087 60.7534 106 60.7534C106 60.6669 106.087 60.4939 106.087 60.4939C106 60.4939 105.827 60.5804 105.827 60.4939C105.914 60.0614 106 59.5424 106.173 59.1099C106.087 59.5424 105.914 59.9749 105.914 60.4074C106 60.4074 106.087 60.3209 106.173 60.4074L106.087 60.7534C106.087 60.6669 106.26 60.6669 106.519 60.5804Z" fill="#75271A"/>
<path d="M106.26 61.272C106.173 61.272 106.173 61.272 106.087 61.272C106 61.272 106 61.1855 106 61.1855C106 61.272 106.087 61.272 106.173 61.3585C106.173 61.3585 106.26 61.3585 106.26 61.272Z" fill="#75271A"/>
<path d="M105.827 60.8398C105.827 60.8398 105.827 61.0128 106 61.0993C106 61.0993 106.087 61.1858 106.173 61.1858C106.26 61.1858 106.346 61.0993 106.346 61.0128C106.346 60.9263 106.346 60.8398 106.346 60.8398C106.346 60.8398 106.087 60.9263 105.827 60.8398Z" fill="#75271A"/>
<path d="M105.914 61.0994C105.914 61.0994 106 61.1859 106.087 61.1859C106.173 61.1859 106.26 61.0994 106.26 61.0129C106.173 60.9264 106 60.9264 105.914 61.0994Z" fill="#FF98B9"/>
<path d="M97.004 77.1022L108.163 82.9842L111.796 77.2752C111.882 77.1022 111.796 76.9292 111.623 76.9292H97.004C97.004 76.9292 96.917 77.1022 97.004 77.1022Z" fill="#FCBB03"/>
<path d="M115.948 82.8984H114.131V84.7144H115.948V82.8984Z" fill="#5E7E8E"/>
<path d="M114.131 87.3095C114.391 87.3095 114.65 87.1365 114.91 86.7905C115.169 86.4445 115.256 85.9255 115.256 85.2335C115.256 84.5415 115.083 83.9365 114.91 83.6765L114.737 83.7635C115.169 84.2825 115.169 86.0125 114.737 86.6175C114.477 86.9635 114.218 87.1365 113.958 87.0505C113.093 86.7905 112.488 83.8495 112.401 82.8115C112.401 82.4655 112.315 82.2065 112.228 81.8605C112.142 81.5145 112.055 81.0815 112.055 80.6485C112.055 80.4755 112.055 80.3025 112.055 80.2165C111.969 79.3515 111.969 78.4865 111.709 77.7079C111.45 76.7563 110.931 76.1508 110.239 75.7183L110.152 75.8913C111.623 76.7563 111.796 78.6595 111.882 80.2165C111.882 80.3895 111.882 80.5625 111.882 80.6485C111.882 81.0815 111.969 81.4275 112.055 81.8605C112.142 82.2065 112.142 82.4655 112.228 82.8115C112.228 83.0715 112.401 84.1095 112.661 85.1475C113.007 86.3585 113.439 87.0505 113.872 87.2235C114.045 87.3095 114.131 87.3095 114.131 87.3095Z" fill="#3D576B"/>
<path d="M105.048 73.2961L104.529 73.6421L104.356 73.3826C104.356 73.2961 104.356 73.2096 104.443 73.2096L104.702 73.0366C104.789 73.0366 104.875 73.0366 104.875 73.1231L105.048 73.2961Z" fill="#6CC8C1"/>
<path d="M109.201 76.9292H100.55C100.55 76.6696 100.723 76.4966 100.896 76.4966H108.855C109.028 76.5831 109.201 76.7561 109.201 76.9292Z" fill="#4A6372"/>
<path d="M100.896 76.5829H108.855L109.028 76.4099L109.633 75.9773C109.72 75.8908 109.72 75.8043 109.806 75.7178C109.806 75.5448 109.893 75.3718 109.893 75.2853L109.806 74.7663L109.72 74.4203L109.633 73.7282C109.46 73.2957 109.114 72.9497 108.768 72.9497H105.913C105.654 72.9497 105.308 73.0362 105.048 73.2092L103.491 74.0743C103.318 74.1608 103.145 74.2473 102.972 74.4203C102.799 74.5068 102.626 74.6798 102.54 74.7663C102.367 74.9393 102.107 75.1123 101.934 75.3718C101.848 75.4583 101.848 75.4583 101.761 75.5448L100.896 76.5829ZM105.567 74.8528C105.394 74.8528 105.308 74.5068 105.394 74.3338L105.74 73.8147L105.827 73.7282H105.913H108.509C108.595 73.7282 108.682 73.8147 108.682 73.9878L108.768 74.5068C108.768 74.6798 108.768 74.7663 108.682 74.8528H108.595H105.567Z" fill="#E8F4FC"/>
<path d="M107.73 74.8532H106.26C106.26 74.7667 106.346 74.5938 106.433 74.5938H107.471C107.644 74.5938 107.73 74.6802 107.73 74.8532Z" fill="#6CC8C1"/>
<path d="M100.896 76.5831H108.855L109.633 76.064C109.72 75.9775 109.72 75.891 109.806 75.8045C109.806 75.6315 109.893 75.4585 109.893 75.372L109.806 74.853L108.768 75.718C108.682 75.8045 108.509 75.891 108.422 75.891H102.453C102.28 75.891 102.194 75.718 102.194 75.545L102.367 74.9395C102.107 75.199 101.848 75.4585 101.588 75.718L100.896 76.5831Z" fill="#6CC8C1"/>
<path opacity="0.2" d="M100.896 76.5832H108.855L109.028 76.4102C101.848 76.5832 101.848 75.3721 101.848 75.3721C101.761 75.4586 101.761 75.4586 101.675 75.5451L100.896 76.5832Z" fill="#29235C"/>
<path opacity="0.5" d="M105.827 76.8427H107.557H105.827C105.827 76.7562 105.827 76.7562 105.827 76.8427Z" fill="white"/>
<path d="M104.875 74.8532C105.308 75.1992 107.644 74.8532 108.422 74.7667H105.567C105.394 74.7667 105.308 74.4207 105.394 74.2477L105.74 73.7286L105.827 73.6421C105.74 73.7286 104.356 74.5072 104.875 74.8532Z" fill="#6CC8C1"/>
<path opacity="0.5" d="M103.059 74.5068C103.059 74.5068 102.107 75.5449 103.059 75.5449C103.059 75.5449 102.713 75.3719 103.059 74.5068Z" fill="white"/>
<path d="M109.806 75.3721L110.325 75.6316L110.412 75.7181V75.8911C110.412 75.9777 110.325 75.9776 110.325 75.9776L109.806 75.8046V75.3721Z" fill="#6CC8C1"/>
<path d="M114.996 84.3681C115.283 84.3681 115.515 84.1361 115.515 83.8491C115.515 83.5631 115.283 83.3301 114.996 83.3301C114.71 83.3301 114.477 83.5631 114.477 83.8491C114.477 84.1361 114.71 84.3681 114.996 84.3681Z" fill="#4A6372"/>
<path d="M96.6799 97.2283L96.9859 97.5343L116.682 77.8386L116.376 77.5327L96.6799 97.2283Z" fill="#3D576B"/>
<path d="M97.034 77.5405L96.728 77.8463L116.423 97.5421L116.729 97.2361L97.034 77.5405Z" fill="#3D576B"/>
<path d="M92.419 77.189H88.2666V77.535H92.419V77.189Z" fill="#3D576B"/>
<path d="M88.2667 76.2368H87.9207V77.5344H88.2667V76.2368Z" fill="#3D576B"/>
<path d="M92.6779 78.2262H123.214C123.474 78.2262 123.647 78.0533 123.647 77.7941V77.5346C123.647 77.2751 123.474 77.1021 123.214 77.1021H92.6779C92.4189 77.1021 92.2459 77.2751 92.2459 77.5346V77.7941C92.1589 78.0533 92.4189 78.2262 92.6779 78.2262Z" fill="#6CC8C1"/>
<path d="M116.467 97.7761C116.706 97.7761 116.899 97.5831 116.899 97.3441C116.899 97.1051 116.706 96.9111 116.467 96.9111C116.228 96.9111 116.034 97.1051 116.034 97.3441C116.034 97.5831 116.228 97.7761 116.467 97.7761Z" fill="#6CC8C1"/>
<path d="M96.9169 97.7761C97.1559 97.7761 97.3499 97.5831 97.3499 97.3441C97.3499 97.1051 97.1559 96.9111 96.9169 96.9111C96.6779 96.9111 96.4849 97.1051 96.4849 97.3441C96.4849 97.5831 96.6779 97.7761 96.9169 97.7761Z" fill="#6CC8C1"/>
<path d="M115.775 77.1023H121.484C121.744 77.1023 122.003 76.8428 122.003 76.5833V76.3238C122.003 76.0643 121.744 75.8047 121.484 75.8047H115.775C115.515 75.8047 115.256 76.0643 115.256 76.3238V76.5833C115.256 76.8428 115.515 77.1023 115.775 77.1023Z" fill="white"/>
<path d="M115.775 73.469H121.484C121.744 73.469 122.003 73.2095 122.003 72.95V72.6905C122.003 72.431 121.744 72.1714 121.484 72.1714H115.775C115.515 72.1714 115.256 72.431 115.256 72.6905V72.95C115.256 73.2095 115.515 73.469 115.775 73.469Z" fill="white"/>
<path d="M115.256 75.718H121.225C121.484 75.718 121.744 75.4584 121.744 75.1989V74.9394C121.744 74.6799 121.484 74.4204 121.225 74.4204H115.256C114.996 74.4204 114.737 74.6799 114.737 74.9394V75.1989C114.737 75.4584 114.996 75.718 115.256 75.718Z" fill="#FFDD00"/>
<path d="M115.688 74.3341H121.744C122.003 74.3341 122.263 74.1611 122.263 73.8151V73.5556C122.263 73.2961 122.09 73.0366 121.744 73.0366H115.688C115.429 73.0366 115.169 73.2096 115.169 73.5556V73.8151C115.169 74.1611 115.342 74.3341 115.688 74.3341Z" fill="#5E7E8E"/>
<path d="M113.093 77.1023L100.55 85.4933L95.966 77.1023C95.879 77.0158 95.966 76.8428 96.139 76.8428H113.093C113.093 76.9293 113.18 77.0158 113.093 77.1023Z" fill="#FFDD00"/>
<path d="M155.638 99H9.4589C8.6808 99 8 98.5 8 98C8 97.5 8.6808 97 9.4589 97H155.541C156.319 97 157 97.5 157 98C157 98.5 156.416 99 155.638 99Z" fill="#5C8097"/>
<path d="M42.1605 68.1924H21.6592V96.8253H42.1605V68.1924Z" fill="#9DB5C4"/>
<path d="M44.7557 68.1924H24.2544V96.8253H44.7557V68.1924Z" fill="white"/>
<path d="M44.7557 68.1924H24.2544V96.8253H44.7557V68.1924Z" fill="#E8F4FC"/>
<path d="M44.7557 92.1543H24.2544V92.5863H44.7557V92.1543Z" fill="#B3C6D4"/>
<path d="M44.7557 92.1543H24.2544V92.3273H44.7557V92.1543Z" fill="#9BB5C4"/>
<path d="M44.7557 68.1924H24.2544V73.8152H44.7557V68.1924Z" fill="#F5FBFF"/>
<path d="M44.7557 73.2959H24.2544V73.6419H44.7557V73.2959Z" fill="#B3C6D4"/>
<path d="M44.7557 73.2959H24.2544V73.4689H44.7557V73.2959Z" fill="#9DB5C4"/>
<path d="M44.7557 68.1924H24.2544V69.49H44.7557V68.1924Z" fill="#F5FBFF"/>
<path d="M26.2438 69.8359H30.3095C30.6555 69.8359 30.915 70.0954 30.915 70.4414V72.604C30.915 72.777 30.742 72.95 30.569 72.95H25.8978C25.7248 72.95 25.5518 72.777 25.5518 72.604V70.4414C25.6383 70.0954 25.8978 69.8359 26.2438 69.8359Z" fill="#359591"/>
<path d="M26.244 69.8359H30.3961C30.7421 69.8359 30.9151 70.0954 30.9151 70.3549V72.085C30.9151 72.258 30.8286 72.3445 30.6556 72.3445H25.8979C25.7249 72.3445 25.6384 72.258 25.6384 72.085V70.3549C25.6384 70.0954 25.8979 69.8359 26.244 69.8359Z" fill="#3D576B"/>
<path d="M34.4616 72.4311C35.0349 72.4311 35.4997 71.9664 35.4997 71.3931C35.4997 70.8198 35.0349 70.355 34.4616 70.355C33.8883 70.355 33.4236 70.8198 33.4236 71.3931C33.4236 71.9664 33.8883 72.4311 34.4616 72.4311Z" fill="#B9CFD6"/>
<path d="M34.1156 70.355C33.7696 70.528 33.5966 70.8741 33.5966 71.3066C33.5966 71.9121 34.0291 72.3446 34.6346 72.3446C34.7211 72.3446 34.8076 72.3446 34.8941 72.3446C34.7211 72.4311 34.6346 72.4311 34.4616 72.4311C33.8561 72.4311 33.4236 71.9986 33.4236 71.3931C33.4236 70.8741 33.6831 70.528 34.1156 70.355Z" fill="#ABC1C6"/>
<path d="M34.4616 72.1717C34.8916 72.1717 35.2402 71.8232 35.2402 71.3932C35.2402 70.9632 34.8916 70.6147 34.4616 70.6147C34.0317 70.6147 33.6831 70.9632 33.6831 71.3932C33.6831 71.8232 34.0317 72.1717 34.4616 72.1717Z" fill="#3D576B"/>
<path d="M34.4616 72.1717C34.8916 72.1717 35.2402 71.8232 35.2402 71.3932C35.2402 70.9632 34.8916 70.6147 34.4616 70.6147C34.0317 70.6147 33.6831 70.9632 33.6831 71.3932C33.6831 71.8232 34.0317 72.1717 34.4616 72.1717Z" fill="#3D576B"/>
<path d="M34.2022 70.6147C34.1157 70.7012 34.0292 70.8742 34.0292 71.0472C34.0292 71.4797 34.3752 71.8257 34.8077 71.8257C34.8942 71.8257 34.8942 71.8257 34.9807 71.8257C34.8077 71.9987 34.6347 72.0852 34.3752 72.0852C33.9427 72.0852 33.5967 71.7392 33.5967 71.3067C33.6832 71.0472 33.9427 70.7012 34.2022 70.6147Z" fill="#184670"/>
<path d="M28.8389 70.0952H30.4825C30.4825 70.0952 30.569 70.0952 30.569 70.1817V70.7007C30.569 70.7007 30.569 70.7872 30.4825 70.7872H28.8389C28.8389 70.7872 28.7524 70.7872 28.7524 70.7007L28.8389 70.0952C28.7524 70.0952 28.7524 70.1817 28.8389 70.0952Z" fill="#CCD9E2"/>
<path d="M42.4201 69.8359H43.7176C43.8041 69.8359 43.8906 69.9224 43.8906 70.0089V70.3549C43.8906 70.4414 43.8041 70.5279 43.7176 70.5279H42.4201C42.3336 70.5279 42.2471 70.4414 42.2471 70.3549V70.0089C42.2471 69.9224 42.3336 69.8359 42.4201 69.8359Z" fill="#D82156"/>
<path d="M42.4201 69.8359H43.6311C43.7176 69.8359 43.8041 69.9224 43.8041 70.0089V70.2684C43.8041 70.3549 43.7176 70.4414 43.6311 70.4414H42.4201C42.3336 70.4414 42.2471 70.3549 42.2471 70.2684V70.0089C42.2471 69.9224 42.3336 69.8359 42.4201 69.8359Z" fill="#6CC8C1"/>
<path d="M42.4202 69.8359H42.5067V70.1819C42.5067 70.2684 42.5932 70.3549 42.6797 70.3549H43.8042C43.8042 70.4414 43.7177 70.4414 43.6312 70.4414H42.3337C42.2471 70.4414 42.1606 70.3549 42.1606 70.2684V69.9224C42.2471 69.9224 42.3337 69.8359 42.4202 69.8359Z" fill="#359591"/>
<path d="M36.1917 70.0952H36.7973C36.8838 70.0952 36.8838 70.0952 36.8838 70.1817V70.3547C36.8838 70.4412 36.8838 70.4412 36.7973 70.4412H36.1917C36.1052 70.4412 36.1052 70.4412 36.1052 70.3547L36.1917 70.0952C36.1052 70.1817 36.1052 70.0952 36.1917 70.0952Z" fill="#6CC8C1"/>
<path d="M36.1917 70.7012H36.7973C36.8838 70.7012 36.8838 70.7012 36.8838 70.7877V70.9607C36.8838 71.0472 36.8838 71.0472 36.7973 71.0472H36.1917C36.1052 71.0472 36.1052 71.0472 36.1052 70.9607L36.1917 70.7012C36.1052 70.7012 36.1052 70.7012 36.1917 70.7012Z" fill="#6CC8C1"/>
<path d="M36.1917 71.3066H36.7973C36.8838 71.3066 36.8838 71.3066 36.8838 71.3931V71.5661C36.8838 71.6526 36.8838 71.6526 36.7973 71.6526H36.1917C36.1052 71.6526 36.1052 71.6526 36.1052 71.5661L36.1917 71.3066C36.1052 71.3066 36.1052 71.3066 36.1917 71.3066Z" fill="#6CC8C1"/>
<path d="M36.1917 71.9121H36.7973C36.8838 71.9121 36.8838 71.9121 36.8838 71.9986V72.1716C36.8838 72.2581 36.8838 72.2581 36.7973 72.2581H36.1917C36.1052 72.2581 36.1052 72.2581 36.1052 72.1716L36.1917 71.9121C36.1052 71.9121 36.1052 71.9121 36.1917 71.9121Z" fill="#6CC8C1"/>
<path d="M36.1917 72.5176H36.7973C36.8838 72.5176 36.8838 72.5176 36.8838 72.6041V72.7771C36.8838 72.8637 36.8838 72.8636 36.7973 72.8636H36.1917C36.1052 72.8636 36.1052 72.8637 36.1052 72.7771L36.1917 72.5176C36.1052 72.5176 36.1052 72.5176 36.1917 72.5176Z" fill="#6CC8C1"/>
<path d="M32.0396 70.0952H32.6452C32.7317 70.0952 32.7317 70.0952 32.7317 70.1817V70.3547C32.7317 70.4412 32.7317 70.4412 32.6452 70.4412H32.0396C31.9531 70.4412 31.9531 70.4412 31.9531 70.3547L32.0396 70.0952C31.9531 70.1817 32.0396 70.0952 32.0396 70.0952Z" fill="#6CC8C1"/>
<path d="M32.0396 70.7012H32.6452C32.7317 70.7012 32.7317 70.7012 32.7317 70.7877V70.9607C32.7317 71.0472 32.7317 71.0472 32.6452 71.0472H32.0396C31.9531 71.0472 31.9531 71.0472 31.9531 70.9607L32.0396 70.7012C31.9531 70.7012 32.0396 70.7012 32.0396 70.7012Z" fill="#6CC8C1"/>
<path d="M32.0396 71.3066H32.6452C32.7317 71.3066 32.7317 71.3066 32.7317 71.3931V71.5661C32.7317 71.6526 32.7317 71.6526 32.6452 71.6526H32.0396C31.9531 71.6526 31.9531 71.6526 31.9531 71.5661L32.0396 71.3066C31.9531 71.3066 32.0396 71.3066 32.0396 71.3066Z" fill="#6CC8C1"/>
<path d="M32.0396 71.9121H32.6452C32.7317 71.9121 32.7317 71.9121 32.7317 71.9986V72.1716C32.7317 72.2581 32.7317 72.2581 32.6452 72.2581H32.0396C31.9531 72.2581 31.9531 72.2581 31.9531 72.1716L32.0396 71.9121C31.9531 71.9121 32.0396 71.9121 32.0396 71.9121Z" fill="#6CC8C1"/>
<path d="M32.0396 72.5176H32.6452C32.7317 72.5176 32.7317 72.5176 32.7317 72.6041V72.7771C32.7317 72.8637 32.7317 72.8636 32.6452 72.8636H32.0396C31.9531 72.8636 31.9531 72.8637 31.9531 72.7771L32.0396 72.5176C31.9531 72.5176 32.0396 72.5176 32.0396 72.5176Z" fill="#6CC8C1"/>
<path d="M43.3715 72.5174C43.6104 72.5174 43.804 72.3237 43.804 72.0849C43.804 71.846 43.6104 71.6523 43.3715 71.6523C43.1326 71.6523 42.939 71.846 42.939 72.0849C42.939 72.3237 43.1326 72.5174 43.3715 72.5174Z" fill="#3D576B"/>
<path d="M44.7557 96.3921H24.2544V96.8251H44.7557V96.3921Z" fill="#B3C6D4"/>
<path d="M26.8494 93.624H31.3475C31.5205 93.624 31.6071 93.711 31.6071 93.884V96.825H26.5898V93.884C26.5898 93.797 26.6763 93.624 26.8494 93.624Z" fill="#B3C6D4"/>
<path d="M27.2819 94.1431H30.915C31.0015 94.1431 31.1746 94.2301 31.1746 94.4031V96.8251H27.1089V94.4031C27.0224 94.2301 27.1089 94.1431 27.2819 94.1431Z" fill="#8BA6B6"/>
<path d="M27.5413 94.6621H30.742C30.742 94.6621 30.8285 94.6621 30.8285 94.7491V94.8351C30.8285 94.8351 30.8285 94.9221 30.742 94.9221H27.5413C27.5413 94.9221 27.4548 94.9221 27.4548 94.8351L27.5413 94.6621C27.4548 94.6621 27.5413 94.6621 27.5413 94.6621Z" fill="#A7BCC9"/>
<path d="M27.5413 95.2681H30.742C30.742 95.2681 30.8285 95.2681 30.8285 95.3541V95.4411C30.8285 95.4411 30.8285 95.5271 30.742 95.5271H27.5413C27.5413 95.5271 27.4548 95.5271 27.4548 95.4411L27.5413 95.2681C27.4548 95.3541 27.5413 95.2681 27.5413 95.2681Z" fill="#A7BCC9"/>
<path d="M27.5413 95.873H30.742C30.742 95.873 30.8285 95.873 30.8285 95.96V96.046C30.8285 96.046 30.8285 96.133 30.742 96.133H27.5413C27.5413 96.133 27.4548 96.133 27.4548 96.046L27.5413 95.873C27.4548 95.96 27.5413 95.873 27.5413 95.873Z" fill="#A7BCC9"/>
<path d="M44.7557 69.144H24.2544V69.4035H44.7557V69.144Z" fill="#B3C6D4"/>
<path d="M44.7557 69.0571H24.2544V69.2301H44.7557V69.0571Z" fill="#9DB5C4"/>
<path d="M26.244 69.8359C26.3305 69.9224 26.3305 70.0954 26.417 70.2684C26.763 71.3065 27.801 71.8255 28.2335 71.912C28.493 71.9985 29.0121 72.085 30.0501 72.085C30.3096 72.085 30.5691 72.085 30.9151 72.085V72.3445H25.6384V70.4414C25.6384 70.0954 25.8979 69.8359 26.244 69.8359Z" fill="#144566"/>
<path d="M34.8974 71.028C34.7895 70.8703 34.6061 70.8081 34.4878 70.889C34.3696 70.97 34.3611 71.1634 34.4691 71.3211C34.577 71.4788 34.7603 71.5411 34.8786 71.4602C34.9969 71.3792 35.0053 71.1858 34.8974 71.028Z" fill="#29748E"/>
<path d="M43.3715 72.5174C43.6104 72.5174 43.804 72.3237 43.804 72.0849C43.804 71.846 43.6104 71.6523 43.3715 71.6523C43.1326 71.6523 42.939 71.846 42.939 72.0849C42.939 72.3237 43.1326 72.5174 43.3715 72.5174Z" fill="#3D576B"/>
<path d="M43.285 71.5659C43.1985 71.6524 43.1985 71.7389 43.1985 71.9119C43.1985 72.1714 43.3715 72.3444 43.631 72.3444H43.7175C43.631 72.4309 43.5445 72.5174 43.3715 72.5174C43.112 72.5174 42.939 72.3444 42.939 72.0849C42.939 71.8254 43.0255 71.6524 43.285 71.5659Z" fill="#2D4351"/>
<path d="M41.9011 72.3442C42.0444 72.3442 42.1606 72.228 42.1606 72.0847C42.1606 71.9414 42.0444 71.8252 41.9011 71.8252C41.7578 71.8252 41.6416 71.9414 41.6416 72.0847C41.6416 72.228 41.7578 72.3442 41.9011 72.3442Z" fill="#B3C6D4"/>
<path d="M41.9011 71.7393C41.8146 71.8258 41.8146 71.8258 41.8146 71.9123C41.8146 72.0853 41.9876 72.1718 42.0741 72.1718H42.1606C42.0741 72.2583 41.9876 72.2583 41.9011 72.2583C41.7281 72.2583 41.6416 72.0853 41.6416 71.9988C41.6416 71.9123 41.7281 71.8258 41.9011 71.7393Z" fill="#A6BCC9"/>
<path d="M42.1307 71.8995C42.0776 71.8201 42.0023 71.7772 41.9626 71.8037C41.9229 71.8303 41.9337 71.9162 41.9869 71.9956C42.04 72.0751 42.1152 72.1179 42.1549 72.0914C42.1946 72.0648 42.1838 71.9789 42.1307 71.8995Z" fill="#CCD9E2"/>
<path d="M40.7764 72.3442C40.9197 72.3442 41.0359 72.228 41.0359 72.0847C41.0359 71.9414 40.9197 71.8252 40.7764 71.8252C40.633 71.8252 40.5168 71.9414 40.5168 72.0847C40.5168 72.228 40.633 72.3442 40.7764 72.3442Z" fill="#B3C6D4"/>
<path d="M40.6899 71.7393C40.6034 71.8258 40.6034 71.8258 40.6034 71.9123C40.6034 72.0853 40.7764 72.1718 40.8629 72.1718H40.9494C40.8629 72.2583 40.7764 72.2583 40.6899 72.2583C40.5169 72.2583 40.4304 72.0853 40.4304 71.9988C40.5169 71.9123 40.6034 71.8258 40.6899 71.7393Z" fill="#A6BCC9"/>
<path d="M40.985 71.8878C40.9319 71.8084 40.8567 71.7655 40.8169 71.7921C40.7772 71.8186 40.7881 71.9045 40.8412 71.984C40.8943 72.0634 40.9696 72.1063 41.0093 72.0797C41.049 72.0532 41.0381 71.9672 40.985 71.8878Z" fill="#CCD9E2"/>
<path d="M39.6518 72.3442C39.7952 72.3442 39.9114 72.228 39.9114 72.0847C39.9114 71.9414 39.7952 71.8252 39.6518 71.8252C39.5085 71.8252 39.3923 71.9414 39.3923 72.0847C39.3923 72.228 39.5085 72.3442 39.6518 72.3442Z" fill="#B3C6D4"/>
<path d="M39.5654 71.7393C39.4789 71.8258 39.4789 71.8258 39.4789 71.9123C39.4789 72.0853 39.6519 72.1718 39.7384 72.1718H39.8249C39.7384 72.2583 39.6519 72.2583 39.5654 72.2583C39.3924 72.2583 39.3059 72.0853 39.3059 71.9988C39.3924 71.9123 39.4789 71.8258 39.5654 71.7393Z" fill="#A6BCC9"/>
<path d="M39.8882 71.9493C39.8351 71.8699 39.7599 71.827 39.7202 71.8535C39.6805 71.8801 39.6913 71.966 39.7444 72.0454C39.7975 72.1249 39.8728 72.1677 39.9125 72.1412C39.9522 72.1146 39.9413 72.0287 39.8882 71.9493Z" fill="#CCD9E2"/>
<path d="M42.8525 69.9224H43.7175C43.7175 69.9224 43.804 69.9224 43.804 70.0089C43.804 70.0089 43.804 70.0954 43.7175 70.0954H42.8525C42.766 70.0954 42.766 70.0954 42.8525 69.9224C42.766 69.9224 42.766 70.0089 42.8525 69.9224Z" fill="#CCD9E2"/>
<path d="M44.7557 96.5654H24.2544V96.7384H44.7557V96.5654Z" fill="#8BA6B6"/>
<path opacity="0.07" d="M26.6765 88.7803C26.6765 91.4623 28.8391 93.7113 31.6072 93.7113H44.7558V96.8253H24.2544V68.1924H26.763L26.6765 88.7803Z" fill="#082B72"/>
<path d="M34.4617 89.9913C38.8092 89.9913 42.3335 86.4673 42.3335 82.1193C42.3335 77.772 38.8092 74.2476 34.4617 74.2476C30.1142 74.2476 26.5898 77.772 26.5898 82.1193C26.5898 86.4673 30.1142 89.9913 34.4617 89.9913Z" fill="#B3C6D4"/>
<path d="M34.4617 89.9913C38.8092 89.9913 42.3335 86.4673 42.3335 82.1193C42.3335 77.772 38.8092 74.2476 34.4617 74.2476C30.1142 74.2476 26.5898 77.772 26.5898 82.1193C26.5898 86.4673 30.1142 89.9913 34.4617 89.9913Z" fill="#6CC8C1"/>
<path opacity="0.3" d="M32.9047 74.4204C29.6175 75.3719 27.2819 78.4 27.2819 81.946C27.2819 86.271 30.8286 89.818 35.1538 89.818C35.6728 89.818 36.1918 89.732 36.6243 89.645C35.9323 89.818 35.1538 89.991 34.3752 89.991C30.0501 89.991 26.5034 86.444 26.5034 82.119C26.5899 78.313 29.2715 75.1124 32.9047 74.4204Z" fill="white"/>
<path d="M34.4617 88.3472C37.9014 88.3472 40.6899 85.5592 40.6899 82.1192C40.6899 78.6792 37.9014 75.8911 34.4617 75.8911C31.0219 75.8911 28.2334 78.6792 28.2334 82.1192C28.2334 85.5592 31.0219 88.3472 34.4617 88.3472Z" fill="#3D576B"/>
<path d="M34.4617 87.1363C37.4715 87.1363 39.9114 84.7353 39.9114 81.7733C39.9114 78.8113 37.4715 76.4102 34.4617 76.4102C31.4519 76.4102 29.012 78.8113 29.012 81.7733C29.012 84.7353 31.4519 87.1363 34.4617 87.1363Z" fill="#144B63"/>
<path d="M34.4617 86.271C36.5638 86.271 38.2678 84.257 38.2678 81.773C38.2678 79.289 36.5638 77.2749 34.4617 77.2749C32.3596 77.2749 30.6555 79.289 30.6555 81.773C30.6555 84.257 32.3596 86.271 34.4617 86.271Z" fill="#3D576B"/>
<path d="M32.9046 84.109C33.6832 83.936 34.8077 83.503 36.4513 83.59C37.6623 83.59 38.6139 83.849 39.3059 84.109C38.4409 85.925 36.5378 87.223 34.3752 87.223C32.0396 87.223 30.05 85.752 29.2715 83.676C30.8285 84.282 32.0396 84.282 32.9046 84.109Z" fill="#61AFBC"/>
<path opacity="0.18" d="M32.6451 76.6694C32.2126 77.448 31.9531 78.4 31.9531 79.351C31.9531 82.465 34.4617 84.974 37.5758 84.974C38.0948 84.974 38.5274 84.887 38.9599 84.801C38.0083 86.271 36.2783 87.223 34.4617 87.223C31.4341 87.223 29.012 84.801 29.012 81.86C29.012 79.438 30.4825 77.448 32.6451 76.6694Z" fill="#0C123A"/>
<path opacity="0.27" d="M37.989 79.1801C37.3159 78.0801 36.2747 77.491 35.6633 77.8649C35.052 78.2391 35.102 79.4341 35.7751 80.5341C36.4482 81.6351 37.4894 82.2241 38.1007 81.8501C38.7121 81.4761 38.662 80.2811 37.989 79.1801Z" fill="white"/>
<path d="M39.133 76.6697C39.2195 76.4967 39.3925 76.4967 39.5655 76.5832C39.825 76.8428 40.0845 77.1023 40.344 77.3618C40.6036 77.7078 40.8631 78.0543 40.9496 78.4863C41.0361 78.6593 40.9496 78.8323 40.7766 78.8323C40.6036 78.9193 40.5171 78.8323 40.4305 78.6593C40.2575 78.3133 40.0845 77.9673 39.825 77.6213C39.652 77.3618 39.3925 77.1023 39.133 76.9293C39.0465 76.9293 39.0465 76.7562 39.133 76.6697Z" fill="#CCD9E2"/>
<path d="M38.8733 87.3964C39.4788 86.8774 39.9114 86.3584 40.3439 85.6664C40.6034 85.2334 41.2954 84.0224 41.3819 82.2924C41.3819 81.6874 41.3819 81.0814 41.2954 80.4764C41.2954 80.3034 41.3819 80.2164 41.4684 80.1304C41.6414 80.1304 41.8144 80.2164 41.8144 80.3894C41.901 81.0814 41.9875 81.6874 41.9875 82.3794C41.9009 84.1954 41.2089 85.4934 40.8629 86.0124C40.4304 86.7044 39.9114 87.3094 39.3058 87.8284C39.2193 87.9154 38.9598 87.9154 38.8733 87.8284C38.7003 87.6554 38.7868 87.4824 38.8733 87.3964Z" fill="#CCD9E2"/>
<path d="M65.1703 68.1924H44.6689V96.8253H65.1703V68.1924Z" fill="#9DB5C4"/>
<path d="M67.7655 68.1924H47.2642V96.8253H67.7655V68.1924Z" fill="white"/>
<path d="M67.7655 68.1924H47.2642V96.8253H67.7655V68.1924Z" fill="#E8F4FC"/>
<path d="M67.7655 92.1543H47.2642V92.5863H67.7655V92.1543Z" fill="#B3C6D4"/>
<path d="M67.7655 92.1543H47.2642V92.3273H67.7655V92.1543Z" fill="#9BB5C4"/>
<path d="M67.7655 68.1924H47.2642V73.8152H67.7655V68.1924Z" fill="#F5FBFF"/>
<path d="M67.7655 73.2959H47.2642V73.6419H67.7655V73.2959Z" fill="#B3C6D4"/>
<path d="M67.7655 73.2959H47.2642V73.4689H67.7655V73.2959Z" fill="#9DB5C4"/>
<path d="M67.7655 68.1924H47.2642V69.49H67.7655V68.1924Z" fill="#F5FBFF"/>
<path d="M49.2536 69.8359H53.3192C53.6652 69.8359 53.9248 70.0954 53.9248 70.4414V72.604C53.9248 72.777 53.7517 72.95 53.5787 72.95H48.9075C48.7345 72.95 48.5615 72.777 48.5615 72.604V70.4414C48.648 70.0954 48.9075 69.8359 49.2536 69.8359Z" fill="#359591"/>
<path d="M49.2537 69.8359H53.4059C53.7519 69.8359 53.9249 70.0954 53.9249 70.3549V72.085C53.9249 72.258 53.8384 72.3445 53.6654 72.3445H48.9077C48.7347 72.3445 48.6482 72.258 48.6482 72.085V70.3549C48.6482 70.0954 48.9077 69.8359 49.2537 69.8359Z" fill="#3D576B"/>
<path d="M57.4716 72.4311C58.0449 72.4311 58.5097 71.9664 58.5097 71.3931C58.5097 70.8198 58.0449 70.355 57.4716 70.355C56.8983 70.355 56.4336 70.8198 56.4336 71.3931C56.4336 71.9664 56.8983 72.4311 57.4716 72.4311Z" fill="#B9CFD6"/>
<path d="M57.1256 70.355C56.7796 70.528 56.6066 70.8741 56.6066 71.3066C56.6066 71.9121 57.0391 72.3446 57.6446 72.3446C57.7311 72.3446 57.8176 72.3446 57.9042 72.3446C57.7311 72.4311 57.6446 72.4311 57.4716 72.4311C56.8661 72.4311 56.4336 71.9986 56.4336 71.3931C56.4336 70.8741 56.6931 70.528 57.1256 70.355Z" fill="#ABC1C6"/>
<path d="M57.4714 72.1717C57.9014 72.1717 58.2499 71.8232 58.2499 71.3932C58.2499 70.9632 57.9014 70.6147 57.4714 70.6147C57.0414 70.6147 56.6929 70.9632 56.6929 71.3932C56.6929 71.8232 57.0414 72.1717 57.4714 72.1717Z" fill="#3D576B"/>
<path d="M57.4714 72.1717C57.9014 72.1717 58.2499 71.8232 58.2499 71.3932C58.2499 70.9632 57.9014 70.6147 57.4714 70.6147C57.0414 70.6147 56.6929 70.9632 56.6929 71.3932C56.6929 71.8232 57.0414 72.1717 57.4714 72.1717Z" fill="#3D576B"/>
<path d="M57.2984 70.6147C57.2119 70.7012 57.1254 70.8742 57.1254 71.0472C57.1254 71.4797 57.4714 71.8257 57.9039 71.8257C57.9904 71.8257 57.9904 71.8257 58.0769 71.8257C57.9039 71.9987 57.7309 72.0852 57.4714 72.0852C57.0389 72.0852 56.6929 71.7392 56.6929 71.3067C56.6929 71.0472 56.9524 70.7012 57.2984 70.6147Z" fill="#184670"/>
<path d="M51.8487 70.0952H53.4923C53.4923 70.0952 53.5788 70.0952 53.5788 70.1817V70.7007C53.5788 70.7007 53.5788 70.7872 53.4923 70.7872H51.8487C51.8487 70.7872 51.7622 70.7872 51.7622 70.7007L51.8487 70.0952C51.7622 70.0952 51.7622 70.1817 51.8487 70.0952Z" fill="#CCD9E2"/>
<path d="M65.4298 69.8359H66.7274C66.8139 69.8359 66.9004 69.9224 66.9004 70.0089V70.3549C66.9004 70.4414 66.8139 70.5279 66.7274 70.5279H65.4298C65.3433 70.5279 65.2568 70.4414 65.2568 70.3549V70.0089C65.3433 69.9224 65.3433 69.8359 65.4298 69.8359Z" fill="#D82156"/>
<path d="M65.4298 69.8359H66.6409C66.7274 69.8359 66.8139 69.9224 66.8139 70.0089V70.2684C66.8139 70.3549 66.7274 70.4414 66.6409 70.4414H65.4298C65.3433 70.4414 65.2568 70.3549 65.2568 70.2684V70.0089C65.3433 69.9224 65.3433 69.8359 65.4298 69.8359Z" fill="#6CC8C1"/>
<path d="M65.4299 69.8359H65.5164V70.1819C65.5164 70.2684 65.6029 70.3549 65.6894 70.3549H66.814C66.814 70.4414 66.7275 70.4414 66.641 70.4414H65.3434C65.2569 70.4414 65.1704 70.3549 65.1704 70.2684V69.9224C65.3434 69.9224 65.3434 69.8359 65.4299 69.8359Z" fill="#359591"/>
<path d="M59.2015 70.0952H59.807C59.8935 70.0952 59.8935 70.0952 59.8935 70.1817V70.3547C59.8935 70.4412 59.8935 70.4412 59.807 70.4412H59.2015C59.115 70.4412 59.115 70.4412 59.115 70.3547L59.2015 70.0952C59.115 70.1817 59.115 70.0952 59.2015 70.0952Z" fill="#6CC8C1"/>
<path d="M59.2015 70.7012H59.807C59.8935 70.7012 59.8935 70.7012 59.8935 70.7877V70.9607C59.8935 71.0472 59.8935 71.0472 59.807 71.0472H59.2015C59.115 71.0472 59.115 71.0472 59.115 70.9607L59.2015 70.7012C59.115 70.7012 59.115 70.7012 59.2015 70.7012Z" fill="#6CC8C1"/>
<path d="M59.2015 71.3066H59.807C59.8935 71.3066 59.8935 71.3066 59.8935 71.3931V71.5661C59.8935 71.6526 59.8935 71.6526 59.807 71.6526H59.2015C59.115 71.6526 59.115 71.6526 59.115 71.5661L59.2015 71.3066C59.115 71.3066 59.115 71.3066 59.2015 71.3066Z" fill="#6CC8C1"/>
<path d="M59.2015 71.9121H59.807C59.8935 71.9121 59.8935 71.9121 59.8935 71.9986V72.1716C59.8935 72.2581 59.8935 72.2581 59.807 72.2581H59.2015C59.115 72.2581 59.115 72.2581 59.115 72.1716L59.2015 71.9121C59.115 71.9121 59.115 71.9121 59.2015 71.9121Z" fill="#6CC8C1"/>
<path d="M59.2015 72.5176H59.807C59.8935 72.5176 59.8935 72.5176 59.8935 72.6041V72.7771C59.8935 72.8637 59.8935 72.8636 59.807 72.8636H59.2015C59.115 72.8636 59.115 72.8637 59.115 72.7771L59.2015 72.5176C59.115 72.5176 59.115 72.5176 59.2015 72.5176Z" fill="#6CC8C1"/>
<path d="M55.0494 70.0952H55.7415C55.828 70.0952 55.828 70.0952 55.828 70.1817V70.3547C55.828 70.4412 55.828 70.4412 55.7415 70.4412H55.1359C55.0494 70.4412 55.0494 70.4412 55.0494 70.3547V70.0952C54.9629 70.1817 55.0494 70.0952 55.0494 70.0952Z" fill="#6CC8C1"/>
<path d="M55.0494 70.7012H55.7415C55.828 70.7012 55.828 70.7012 55.828 70.7877V70.9607C55.828 71.0472 55.828 71.0472 55.7415 71.0472H55.1359C55.0494 71.0472 55.0494 71.0472 55.0494 70.9607V70.7012C54.9629 70.7012 55.0494 70.7012 55.0494 70.7012Z" fill="#6CC8C1"/>
<path d="M55.0494 71.3066H55.7415C55.828 71.3066 55.828 71.3066 55.828 71.3931V71.5661C55.828 71.6526 55.828 71.6526 55.7415 71.6526H55.1359C55.0494 71.6526 55.0494 71.6526 55.0494 71.5661V71.3066C54.9629 71.3066 55.0494 71.3066 55.0494 71.3066Z" fill="#6CC8C1"/>
<path d="M55.0494 71.9121H55.7415C55.828 71.9121 55.828 71.9121 55.828 71.9986V72.1716C55.828 72.2581 55.828 72.2581 55.7415 72.2581H55.1359C55.0494 72.2581 55.0494 72.2581 55.0494 72.1716V71.9121C54.9629 71.9121 55.0494 71.9121 55.0494 71.9121Z" fill="#6CC8C1"/>
<path d="M55.0494 72.5176H55.7415C55.828 72.5176 55.828 72.5176 55.828 72.6041V72.7771C55.828 72.8637 55.828 72.8636 55.7415 72.8636H55.1359C55.0494 72.8636 55.0494 72.8637 55.0494 72.7771V72.5176C54.9629 72.5176 55.0494 72.5176 55.0494 72.5176Z" fill="#6CC8C1"/>
<path d="M66.3815 72.5174C66.6204 72.5174 66.814 72.3237 66.814 72.0849C66.814 71.846 66.6204 71.6523 66.3815 71.6523C66.1426 71.6523 65.949 71.846 65.949 72.0849C65.949 72.3237 66.1426 72.5174 66.3815 72.5174Z" fill="#3D576B"/>
<path d="M67.7655 96.3921H47.2642V96.8251H67.7655V96.3921Z" fill="#B3C6D4"/>
<path d="M49.8591 93.624H54.3573C54.5303 93.624 54.6168 93.711 54.6168 93.884V96.825H49.5996V93.884C49.5996 93.797 49.6861 93.624 49.8591 93.624Z" fill="#B3C6D4"/>
<path d="M50.2918 94.1431H53.925C54.0115 94.1431 54.1845 94.2301 54.1845 94.4031V96.8251H50.1188V94.4031C50.0323 94.2301 50.2053 94.1431 50.2918 94.1431Z" fill="#8BA6B6"/>
<path d="M50.5513 94.6621H53.752C53.752 94.6621 53.8385 94.6621 53.8385 94.7491V94.8351C53.8385 94.8351 53.8385 94.9221 53.752 94.9221H50.5513C50.5513 94.9221 50.4648 94.9221 50.4648 94.8351L50.5513 94.6621C50.4648 94.6621 50.5513 94.6621 50.5513 94.6621Z" fill="#A7BCC9"/>
<path d="M50.5513 95.2681H53.752C53.752 95.2681 53.8385 95.2681 53.8385 95.3541V95.4411C53.8385 95.4411 53.8385 95.5271 53.752 95.5271H50.5513C50.5513 95.5271 50.4648 95.5271 50.4648 95.4411L50.5513 95.2681C50.4648 95.3541 50.5513 95.2681 50.5513 95.2681Z" fill="#A7BCC9"/>
<path d="M50.5513 95.873H53.752C53.752 95.873 53.8385 95.873 53.8385 95.96V96.046C53.8385 96.046 53.8385 96.133 53.752 96.133H50.5513C50.5513 96.133 50.4648 96.133 50.4648 96.046L50.5513 95.873C50.4648 95.96 50.5513 95.873 50.5513 95.873Z" fill="#A7BCC9"/>
<path d="M67.7655 69.144H47.2642V69.4035H67.7655V69.144Z" fill="#B3C6D4"/>
<path d="M67.7655 69.0571H47.2642V69.2301H67.7655V69.0571Z" fill="#9DB5C4"/>
<path d="M49.2537 69.8359C49.3402 69.9224 49.3402 70.0954 49.4267 70.2684C49.7727 71.3065 50.8108 71.8255 51.2433 71.912C51.5028 71.9985 52.0218 72.085 53.0599 72.085C53.3194 72.085 53.5789 72.085 53.9249 72.085V72.3445H48.6482V70.4414C48.6482 70.0954 48.9077 69.8359 49.2537 69.8359Z" fill="#144566"/>
<path d="M57.9277 71.0382C57.8198 70.8805 57.6364 70.8183 57.5181 70.8992C57.3998 70.9802 57.3914 71.1736 57.4993 71.3313C57.6072 71.489 57.7906 71.5513 57.9089 71.4704C58.0272 71.3894 58.0356 71.196 57.9277 71.0382Z" fill="#29748E"/>
<path d="M66.3815 72.5173C66.6204 72.5173 66.814 72.3237 66.814 72.0848C66.814 71.8459 66.6204 71.6523 66.3815 71.6523C66.1426 71.6523 65.949 71.8459 65.949 72.0848C65.949 72.3237 66.1426 72.5173 66.3815 72.5173Z" fill="#3D576B"/>
<path d="M66.295 71.5659C66.2085 71.6524 66.2085 71.7389 66.2085 71.9119C66.2085 72.1714 66.3815 72.3444 66.641 72.3444H66.7275C66.641 72.4309 66.5545 72.5174 66.3815 72.5174C66.122 72.5174 65.949 72.3444 65.949 72.0849C65.949 71.8254 66.122 71.6524 66.295 71.5659Z" fill="#2D4351"/>
<path d="M64.9109 72.3442C65.0542 72.3442 65.1704 72.228 65.1704 72.0847C65.1704 71.9414 65.0542 71.8252 64.9109 71.8252C64.7676 71.8252 64.6514 71.9414 64.6514 72.0847C64.6514 72.228 64.7676 72.3442 64.9109 72.3442Z" fill="#B3C6D4"/>
<path d="M64.9109 71.7393C64.8244 71.8258 64.8244 71.8258 64.8244 71.9123C64.8244 72.0853 64.9974 72.1718 65.0839 72.1718H65.1704C65.0839 72.2583 64.9974 72.2583 64.9109 72.2583C64.7379 72.2583 64.6514 72.0853 64.6514 71.9988C64.6514 71.9123 64.7379 71.8258 64.9109 71.7393Z" fill="#A6BCC9"/>
<path d="M65.1609 71.9103C65.1078 71.8308 65.0326 71.788 64.9929 71.8145C64.9532 71.8411 64.964 71.927 65.0171 72.0064C65.0702 72.0859 65.1455 72.1287 65.1852 72.1022C65.2249 72.0756 65.2141 71.9897 65.1609 71.9103Z" fill="#CCD9E2"/>
<path d="M63.7864 72.3442C63.9297 72.3442 64.0459 72.228 64.0459 72.0847C64.0459 71.9414 63.9297 71.8252 63.7864 71.8252C63.643 71.8252 63.5269 71.9414 63.5269 72.0847C63.5269 72.228 63.643 72.3442 63.7864 72.3442Z" fill="#B3C6D4"/>
<path d="M63.7864 71.7393C63.6999 71.8258 63.6999 71.8258 63.6999 71.9123C63.6999 72.0853 63.8729 72.1718 63.9594 72.1718H64.0459C63.9594 72.2583 63.8729 72.2583 63.7864 72.2583C63.6134 72.2583 63.5269 72.0853 63.5269 71.9988C63.5269 71.9123 63.6134 71.8258 63.7864 71.7393Z" fill="#A6BCC9"/>
<path d="M64.0152 71.899C63.9621 71.8196 63.8868 71.7767 63.8471 71.8033C63.8074 71.8299 63.8183 71.9158 63.8714 71.9952C63.9245 72.0746 63.9997 72.1175 64.0394 72.0909C64.0792 72.0644 64.0683 71.9785 64.0152 71.899Z" fill="#CCD9E2"/>
<path d="M62.6616 72.3442C62.8049 72.3442 62.9211 72.228 62.9211 72.0847C62.9211 71.9414 62.8049 71.8252 62.6616 71.8252C62.5183 71.8252 62.4021 71.9414 62.4021 72.0847C62.4021 72.228 62.5183 72.3442 62.6616 72.3442Z" fill="#B3C6D4"/>
<path d="M62.5752 71.7393C62.4887 71.8258 62.4887 71.8258 62.4887 71.9123C62.4887 72.0853 62.6617 72.1718 62.7482 72.1718H62.8347C62.7482 72.2583 62.6617 72.2583 62.5752 72.2583C62.4022 72.2583 62.3157 72.0853 62.3157 71.9988C62.4022 71.9123 62.4887 71.8258 62.5752 71.7393Z" fill="#A6BCC9"/>
<path d="M62.8702 71.8882C62.8171 71.8088 62.7418 71.766 62.7021 71.7926C62.6624 71.8191 62.6732 71.9049 62.7264 71.9844C62.7795 72.0638 62.8547 72.1067 62.8944 72.0802C62.9341 72.0536 62.9233 71.9676 62.8702 71.8882Z" fill="#CCD9E2"/>
<path d="M65.8625 69.9224H66.7275C66.7275 69.9224 66.814 69.9224 66.814 70.0089C66.814 70.0089 66.814 70.0954 66.7275 70.0954H65.8625C65.776 70.0954 65.776 70.0954 65.8625 69.9224C65.776 69.9224 65.776 70.0089 65.8625 69.9224Z" fill="#CCD9E2"/>
<path d="M67.7655 96.5654H47.2642V96.7384H67.7655V96.5654Z" fill="#8BA6B6"/>
<path opacity="0.07" d="M49.6863 88.7803C49.6863 91.4623 51.8489 93.7113 54.617 93.7113H67.7655V96.8253H47.2642V68.1924H49.7728L49.6863 88.7803Z" fill="#082B72"/>
<path d="M57.4714 89.9913C61.8189 89.9913 65.3433 86.4673 65.3433 82.1193C65.3433 77.772 61.8189 74.2476 57.4714 74.2476C53.1239 74.2476 49.5996 77.772 49.5996 82.1193C49.5996 86.4673 53.1239 89.9913 57.4714 89.9913Z" fill="#B3C6D4"/>
<path d="M57.4714 89.9913C61.8189 89.9913 65.3433 86.4673 65.3433 82.1193C65.3433 77.772 61.8189 74.2476 57.4714 74.2476C53.1239 74.2476 49.5996 77.772 49.5996 82.1193C49.5996 86.4673 53.1239 89.9913 57.4714 89.9913Z" fill="#6CC8C1"/>
<path opacity="0.3" d="M55.9144 74.4204C52.6273 75.3719 50.2917 78.4 50.2917 81.946C50.2917 86.271 53.8384 89.818 58.1635 89.818C58.6826 89.818 59.2016 89.732 59.6341 89.645C58.9421 89.818 58.1635 89.991 57.385 89.991C53.0598 89.991 49.5132 86.444 49.5132 82.119C49.5997 78.313 52.2813 75.1124 55.9144 74.4204Z" fill="white"/>
<path d="M57.4714 88.3472C60.9112 88.3472 63.6997 85.5592 63.6997 82.1192C63.6997 78.6792 60.9112 75.8911 57.4714 75.8911C54.0316 75.8911 51.2432 78.6792 51.2432 82.1192C51.2432 85.5592 54.0316 88.3472 57.4714 88.3472Z" fill="#3D576B"/>
<path d="M57.4715 87.1363C60.4813 87.1363 62.9212 84.7353 62.9212 81.7733C62.9212 78.8113 60.4813 76.4102 57.4715 76.4102C54.4617 76.4102 52.0217 78.8113 52.0217 81.7733C52.0217 84.7353 54.4617 87.1363 57.4715 87.1363Z" fill="#144B63"/>
<path d="M57.4714 86.271C59.5735 86.271 61.2776 84.257 61.2776 81.773C61.2776 79.289 59.5735 77.2749 57.4714 77.2749C55.3694 77.2749 53.6653 79.289 53.6653 81.773C53.6653 84.257 55.3694 86.271 57.4714 86.271Z" fill="#3D576B"/>
<path d="M55.9144 84.109C56.6929 83.936 57.8175 83.503 59.4611 83.59C60.6721 83.59 61.6236 83.849 62.3157 84.109C61.4506 85.925 59.5477 87.223 57.3851 87.223C55.0495 87.223 53.0598 85.752 52.2812 83.676C53.8384 84.282 55.0494 84.282 55.9144 84.109Z" fill="#61AFBC"/>
<path opacity="0.18" d="M55.6549 76.6694C55.2224 77.448 54.9629 78.4 54.9629 79.351C54.9629 82.465 57.4715 84.974 60.5856 84.974C61.1046 84.974 61.5371 84.887 61.9696 84.801C61.0181 86.271 59.288 87.223 57.4715 87.223C54.4438 87.223 52.0217 84.801 52.0217 81.86C52.0217 79.438 53.4923 77.448 55.6549 76.6694Z" fill="#0C123A"/>
<path opacity="0.27" d="M61.0183 79.1914C60.3452 78.0904 59.304 77.5018 58.6926 77.8757C58.0813 78.2494 58.1312 79.4444 58.8043 80.5454C59.4774 81.6454 60.5186 82.2344 61.1299 81.8604C61.7413 81.4864 61.6913 80.2914 61.0183 79.1914Z" fill="white"/>
<path d="M62.1428 76.6697C62.2293 76.4967 62.4023 76.4967 62.5753 76.5832C62.8348 76.8428 63.0943 77.1023 63.3538 77.3618C63.6133 77.7078 63.8728 78.0543 63.9593 78.4863C64.0458 78.6593 63.9593 78.8323 63.7863 78.8323C63.6133 78.9193 63.5268 78.8323 63.4403 78.6593C63.2673 78.3133 63.0943 77.9673 62.8348 77.6213C62.6618 77.3618 62.4023 77.1023 62.1428 76.9293C62.0563 76.9293 62.0563 76.7562 62.1428 76.6697Z" fill="#CCD9E2"/>
<path d="M61.8832 87.3964C62.4888 86.8774 62.9213 86.3584 63.3538 85.6664C63.6133 85.2334 64.3053 84.0224 64.3918 82.2924C64.3918 81.6874 64.3918 81.0814 64.3053 80.4764C64.3053 80.3034 64.3918 80.2164 64.4783 80.1304C64.6514 80.1304 64.8244 80.2164 64.8244 80.3894C64.9109 81.0814 64.9974 81.6874 64.9974 82.3794C64.9109 84.1954 64.2188 85.4934 63.8728 86.0124C63.4403 86.7044 62.9213 87.3094 62.3158 87.8284C62.2293 87.9154 61.9697 87.9154 61.8832 87.8284C61.7967 87.6554 61.7967 87.4824 61.8832 87.3964Z" fill="#CCD9E2"/>
<path d="M41.2087 64.1269C41.2087 64.1269 44.9284 59.9747 43.3713 59.6287C41.8142 59.2827 40.8627 60.2343 40.8627 60.2343C40.8627 60.2343 39.7382 57.6392 38.4406 58.5042C37.2295 59.3692 35.3265 63.5214 35.6725 64.2134C35.8455 64.992 41.2087 64.1269 41.2087 64.1269Z" fill="#3D576B"/>
<path d="M34.2885 63.7806L40.2572 62.6561C40.2572 62.6561 40.2572 60.58 39.6517 60.407C39.0462 60.1475 34.548 58.8499 33.8559 59.8014C33.1639 60.753 34.2885 63.7806 34.2885 63.7806Z" fill="#FFDD00"/>
<path d="M38.1811 62.3101C38.1811 62.3101 42.4197 62.5696 42.5062 63.7807C42.6792 64.9917 42.2467 66.3758 42.2467 66.3758L37.7485 65.5972L38.1811 62.3101Z" fill="#3D576B"/>
<path d="M42.5928 64.3858C42.5928 64.3858 40.6032 63.0883 38.6137 65.1644C36.6241 67.2405 36.0186 67.5 36.0186 67.5H41.9008L42.5928 64.3858Z" fill="#FFEC00"/>
<path d="M36.1916 60.6665C36.1916 60.6665 32.818 65.1646 34.029 67.1542C34.029 67.1542 36.7106 68.4518 38.3542 67.4137C39.9978 66.3757 38.7867 61.099 38.7867 61.099L36.1916 60.6665Z" fill="white"/>
<path d="M36.6241 63.0889H36.1917V63.6944H36.6241V63.0889Z" fill="#6CC8C1"/>
<path d="M36.6241 64.2993H36.1917V64.9048H36.6241V64.2993Z" fill="#6CC8C1"/>
<path d="M36.6241 66.6353H36.1917V67.2408H36.6241V66.6353Z" fill="#6CC8C1"/>
<path d="M36.6241 65.4238H36.1917V66.0294H36.6241V65.4238Z" fill="#6CC8C1"/>
<path d="M36.6241 61.9644H36.1917V62.5699H36.6241V61.9644Z" fill="#6CC8C1"/>
<path d="M37.5756 64.2993H37.1431V64.9048H37.5756V64.2993Z" fill="#6CC8C1"/>
<path d="M37.5756 65.4238H37.1431V66.0294H37.5756V65.4238Z" fill="#6CC8C1"/>
<path d="M37.5756 66.6353H37.1431V67.2408H37.5756V66.6353Z" fill="#6CC8C1"/>
<path d="M37.5756 61.9644H37.1431V62.5699H37.5756V61.9644Z" fill="#6CC8C1"/>
<path d="M37.5756 63.0889H37.1431V63.6944H37.5756V63.0889Z" fill="#6CC8C1"/>
<path d="M38.4406 66.6353H38.0081V67.2408H38.4406V66.6353Z" fill="#6CC8C1"/>
<path d="M38.4406 63.0889H38.0081V63.6944H38.4406V63.0889Z" fill="#6CC8C1"/>
<path d="M38.4406 64.2993H38.0081V64.9048H38.4406V64.2993Z" fill="#6CC8C1"/>
<path d="M38.4406 65.4238H38.0081V66.0294H38.4406V65.4238Z" fill="#6CC8C1"/>
<path d="M38.4406 61.9644H38.0081V62.5699H38.4406V61.9644Z" fill="#6CC8C1"/>
<path d="M39.3056 61.9644H38.873V62.5699H39.3056V61.9644Z" fill="#6CC8C1"/>
<path d="M39.3056 66.6353H38.873V67.2408H39.3056V66.6353Z" fill="#6CC8C1"/>
<path d="M39.3056 63.0889H38.873V63.6944H39.3056V63.0889Z" fill="#6CC8C1"/>
<path d="M39.3056 65.4238H38.873V66.0294H39.3056V65.4238Z" fill="#6CC8C1"/>
<path d="M39.3056 64.2993H38.873V64.9048H39.3056V64.2993Z" fill="#6CC8C1"/>
<path d="M40.1708 61.9644H39.7383V62.5699H40.1708V61.9644Z" fill="#6CC8C1"/>
<path d="M40.1708 64.2993H39.7383V64.9048H40.1708V64.2993Z" fill="#6CC8C1"/>
<path d="M40.1708 66.6353H39.7383V67.2408H40.1708V66.6353Z" fill="#6CC8C1"/>
<path d="M40.1708 63.0889H39.7383V63.6944H40.1708V63.0889Z" fill="#6CC8C1"/>
<path d="M40.1708 65.4238H39.7383V66.0294H40.1708V65.4238Z" fill="#6CC8C1"/>
<path d="M41.0358 66.6353H40.6033V67.2408H41.0358V66.6353Z" fill="#6CC8C1"/>
<path d="M41.0358 61.9644H40.6033V62.5699H41.0358V61.9644Z" fill="#6CC8C1"/>
<path d="M41.0358 63.0889H40.6033V63.6944H41.0358V63.0889Z" fill="#6CC8C1"/>
<path d="M41.0358 65.4238H40.6033V66.0294H41.0358V65.4238Z" fill="#6CC8C1"/>
<path d="M41.0358 64.2993H40.6033V64.9048H41.0358V64.2993Z" fill="#6CC8C1"/>
<path d="M41.9008 66.6353H41.4683V67.2408H41.9008V66.6353Z" fill="#6CC8C1"/>
<path d="M41.9008 63.0889H41.4683V63.6944H41.9008V63.0889Z" fill="#6CC8C1"/>
<path d="M41.9008 65.4238H41.4683V66.0294H41.9008V65.4238Z" fill="#6CC8C1"/>
<path d="M41.9008 64.2993H41.4683V64.9048H41.9008V64.2993Z" fill="#6CC8C1"/>
<path d="M41.9008 61.9644H41.4683V62.5699H41.9008V61.9644Z" fill="#6CC8C1"/>
<path d="M42.5928 64.9048L42.6792 64.2993H42.3333V64.9048H42.5928Z" fill="#6CC8C1"/>
<path d="M42.7658 63.0889H42.3333V63.7809H42.6792L42.7658 63.5214V63.0889Z" fill="#6CC8C1"/>
<path d="M42.4198 66.0294L42.5063 65.4238H42.3333V66.0294H42.4198Z" fill="#6CC8C1"/>
<path d="M42.7658 61.9644H42.3333V62.5699H42.7658V61.9644Z" fill="#6CC8C1"/>
<path d="M35.7589 63.0889H35.3264V63.6944H35.7589V63.0889Z" fill="#6CC8C1"/>
<path d="M35.7589 64.2993H35.3264V64.9048H35.7589V64.2993Z" fill="#6CC8C1"/>
<path d="M35.7589 61.9644H35.3264V62.5699H35.7589V61.9644Z" fill="#6CC8C1"/>
<path d="M35.7589 66.6353H35.3264V67.2408H35.7589V66.6353Z" fill="#6CC8C1"/>
<path d="M35.7589 65.4238H35.3264V66.0294H35.7589V65.4238Z" fill="#6CC8C1"/>
<path d="M34.8939 64.2993H34.4614V64.9048H34.8939V64.2993Z" fill="#6CC8C1"/>
<path d="M34.8939 65.4238H34.4614V66.0294H34.8939V65.4238Z" fill="#6CC8C1"/>
<path d="M34.8939 63.0889H34.4614V63.6944H34.8939V63.0889Z" fill="#6CC8C1"/>
<path d="M34.8939 66.6353H34.4614V67.2408H34.8939V66.6353Z" fill="#6CC8C1"/>
<path d="M34.8939 61.9644H34.4614V62.5699H34.8939V61.9644Z" fill="#6CC8C1"/>
<path d="M33.856 65.4238L33.9425 66.0294H34.029V65.4238H33.856Z" fill="#6CC8C1"/>
<path d="M34.029 63.7809V63.0889H33.5964V63.5214V63.7809H34.029Z" fill="#6CC8C1"/>
<path d="M34.029 61.9644H33.5964V62.5699H34.029V61.9644Z" fill="#6CC8C1"/>
<path d="M33.6829 64.2993L33.7694 64.9048H34.0289V64.2993H33.6829Z" fill="#6CC8C1"/>
<path d="M41.4683 67.2407H41.0358H40.6032H40.1707H39.7382H39.3057H38.8732H38.4407H38.0081H37.5756H37.1431H36.7106H36.2781H35.8456H35.413H34.9805H34.548H34.1155C34.202 67.4137 34.2885 67.5867 34.4615 67.5867H41.9008C42.0738 67.5867 42.2468 67.4137 42.2468 67.2407H41.9008H41.4683Z" fill="#6CC8C1"/>
<path d="M38.0081 66.0298H37.489H37.143H36.624H36.1915H35.759H35.3264H34.8939H34.4614H34.0289H33.9424L34.0289 66.6354H34.4614H34.8939H35.3264H35.759H36.1915H36.624H37.143H37.489H38.0081H38.3541H38.8731H39.2191H39.7381H40.0841H40.6032H41.0357H41.4682H41.9007H42.3332L42.4197 66.0298H42.3332H41.9007H41.4682H41.0357H40.6032H40.0841H39.7381H39.2191H38.8731H38.3541H38.0081Z" fill="#6CC8C1"/>
<path d="M38.0082 64.9053H37.4892H37.1432H36.6242H36.1916H35.7591H35.3266H34.8941H34.4616H34.029H33.7695L33.856 65.4243H34.029H34.4616H34.8941H35.3266H35.7591H36.1916H36.6242H37.1432H37.4892H38.0082H38.3542H38.8732H39.2193H39.7383H40.0843H40.6033H41.0358H41.4684H41.9009H42.3334H42.5064L42.5929 64.9053H42.3334H41.9009H41.4684H41.0358H40.6033H40.0843H39.7383H39.2193H38.8732H38.3542H38.0082Z" fill="#6CC8C1"/>
<path d="M38.0081 63.7808H37.4891H37.1431H36.6241H36.1915H35.759H35.3265H34.894H34.4615H34.029H33.5964L33.6829 64.2998H34.029H34.4615H34.894H35.3265H35.759H36.1915H36.6241H37.1431H37.4891H38.0081H38.3541H38.8732H39.2192H39.7382H40.0842H40.6032H41.0357H41.4683H41.9008H42.3333H42.6793V63.7808H42.3333H41.9008H41.4683H41.0357H40.6032H40.0842H39.7382H39.2192H38.8732H38.3541H38.0081Z" fill="#6CC8C1"/>
<path d="M38.3542 62.5693H38.0082H37.4892H37.1432H36.6241H36.1916H35.7591H35.3266H34.8941H34.4616H34.029H33.5965H33.51L33.5965 63.0884H34.029H34.4616H34.8941H35.3266H35.7591H36.1916H36.6241H37.1432H37.4892H38.0082H38.3542H38.8732H39.2193H39.7383H40.0843H40.6033H41.0358H41.4683H41.9009H42.3334H42.7659L42.8524 62.5693H42.7659H42.3334H41.9009H41.4683H41.0358H40.6033H40.0843H39.7383H39.2193H38.8732H38.3542Z" fill="#6CC8C1"/>
<path d="M36.6241 61.9639H37.1431H37.4891H38.0081H38.3541H38.8731H39.2192H39.7382H40.0842H40.6032H41.0357H41.4683H41.9008H42.3333H42.7658H42.9388V61.5312H33.3369L33.4234 61.9639H33.5964H34.0289H34.4615H34.894H35.3265H35.759H36.1915H36.6241Z" fill="#6CC8C1"/>
<path d="M43.1984 61.2721C43.1119 61.1856 43.0254 61.0991 42.9389 61.0991H33.337C33.2505 61.0991 33.164 61.1856 33.0775 61.2721C32.991 61.3586 32.991 61.4451 32.991 61.5316V61.6181L33.0775 61.9641L33.683 67.1543C33.683 67.2408 33.683 67.3273 33.683 67.3273C33.7695 67.6733 34.029 67.9329 34.375 67.9329H41.9008C42.2469 67.9329 42.5064 67.6733 42.5929 67.3273C42.5929 67.2408 42.5929 67.1543 42.6794 67.0678L43.2849 61.8776L43.3714 61.5316V61.4451C43.2849 61.4451 43.2849 61.3586 43.1984 61.2721ZM42.5929 61.9641L41.9873 66.9813C41.9873 67.0678 41.9873 67.0678 41.9008 67.0678H34.4615C34.4615 67.0678 34.375 67.0678 34.375 66.9813L33.7695 61.9641H42.5929Z" fill="#6CC8C1"/>
<path d="M43.8904 61.099C43.8904 61.445 43.7174 61.618 43.4579 61.618H32.9044C32.6449 61.618 32.4719 61.445 32.4719 61.1855V61.099V61.0125C32.5584 60.8395 32.6449 60.6665 32.9044 60.6665H43.4579C43.6309 60.6665 43.8039 60.753 43.8904 61.0125C43.8904 61.0125 43.8904 61.0125 43.8904 61.099Z" fill="#6CC8C1"/>
<path opacity="0.2" d="M43.2849 61.5312C43.2849 61.6178 43.2849 61.6178 43.2849 61.5312L43.1984 61.9639H33.0775L32.991 61.6179V61.5312H43.2849Z" fill="#29235C"/>
<path opacity="0.2" d="M42.5929 67.4141C42.5064 67.7601 42.2469 68.0196 41.9009 68.0196H34.4616C34.1155 68.0196 33.856 67.7601 33.7695 67.4141H42.5929Z" fill="#29235C"/>
<path d="M35.759 60.6663C35.759 60.6663 39.0462 59.1957 39.6517 60.6663C39.8247 61.1853 39.9977 61.5313 39.9977 61.7908C40.0842 63.6939 35.8455 60.7528 35.759 60.6663Z" fill="white"/>
<path opacity="0.2" d="M35.759 60.6665C35.759 60.6665 39.3057 62.9155 39.9977 61.791C40.0842 63.6941 35.8455 60.753 35.759 60.6665Z" fill="#29235C"/>
<path d="M65.0837 64.0405C65.0837 64.0405 68.8034 59.8883 67.2463 59.5423C65.6892 59.1963 64.7377 60.1478 64.7377 60.1478C64.7377 60.1478 63.6131 57.5527 62.3156 58.4178C61.1045 59.2828 59.2015 63.435 59.5475 64.127C59.7205 64.9055 65.0837 64.0405 65.0837 64.0405Z" fill="#3D576B"/>
<path d="M58.1635 63.6942L64.1322 62.5695C64.1322 62.5695 64.1322 60.4934 63.5267 60.3204C62.9212 60.0609 58.423 58.7634 57.7309 59.7149C57.0389 60.6665 58.1635 63.6942 58.1635 63.6942Z" fill="#FFDD00"/>
<path d="M62.0561 62.2236C62.0561 62.2236 66.2947 62.4831 66.3812 63.6942C66.5542 64.9052 66.1217 66.2893 66.1217 66.2893L61.6235 65.5107L62.0561 62.2236Z" fill="#3D576B"/>
<path d="M66.4678 64.3863C66.4678 64.3863 64.4782 63.0887 62.4887 65.1648C60.4991 67.2409 59.8936 67.5004 59.8936 67.5004H65.7758L66.4678 64.3863Z" fill="#FFEC00"/>
<path d="M60.153 60.5801C60.153 60.5801 56.7794 65.0783 57.9904 67.0679C57.9904 67.0679 60.6721 68.3655 62.3156 67.3274C63.9592 66.2894 62.7481 61.0127 62.7481 61.0127L60.153 60.5801Z" fill="white"/>
<path d="M60.5858 63.0889H60.1533V63.6944H60.5858V63.0889Z" fill="#6CC8C1"/>
<path d="M60.5858 64.2129H60.1533V64.8184H60.5858V64.2129Z" fill="#6CC8C1"/>
<path d="M60.5858 66.5488H60.1533V67.1543H60.5858V66.5488Z" fill="#6CC8C1"/>
<path d="M60.5858 65.3374H60.1533V65.9429H60.5858V65.3374Z" fill="#6CC8C1"/>
<path d="M60.5858 61.8774H60.1533V62.483H60.5858V61.8774Z" fill="#6CC8C1"/>
<path d="M61.4508 64.2129H61.0183V64.8184H61.4508V64.2129Z" fill="#6CC8C1"/>
<path d="M61.4508 65.3374H61.0183V65.9429H61.4508V65.3374Z" fill="#6CC8C1"/>
<path d="M61.4508 66.5488H61.0183V67.1543H61.4508V66.5488Z" fill="#6CC8C1"/>
<path d="M61.4508 61.8774H61.0183V62.483H61.4508V61.8774Z" fill="#6CC8C1"/>
<path d="M61.4508 63.0889H61.0183V63.6944H61.4508V63.0889Z" fill="#6CC8C1"/>
<path d="M62.3158 66.5488H61.8833V67.1543H62.3158V66.5488Z" fill="#6CC8C1"/>
<path d="M62.3158 63.0889H61.8833V63.6944H62.3158V63.0889Z" fill="#6CC8C1"/>
<path d="M62.3158 64.2129H61.8833V64.8184H62.3158V64.2129Z" fill="#6CC8C1"/>
<path d="M62.3158 65.3374H61.8833V65.9429H62.3158V65.3374Z" fill="#6CC8C1"/>
<path d="M62.3158 61.8774H61.8833V62.483H62.3158V61.8774Z" fill="#6CC8C1"/>
<path d="M63.1808 61.8774H62.7483V62.483H63.1808V61.8774Z" fill="#6CC8C1"/>
<path d="M63.1808 66.5488H62.7483V67.1543H63.1808V66.5488Z" fill="#6CC8C1"/>
<path d="M63.1808 63.0889H62.7483V63.6944H63.1808V63.0889Z" fill="#6CC8C1"/>
<path d="M63.1808 65.3374H62.7483V65.9429H63.1808V65.3374Z" fill="#6CC8C1"/>
<path d="M63.1808 64.2129H62.7483V64.8184H63.1808V64.2129Z" fill="#6CC8C1"/>
<path d="M64.0458 61.8774H63.6133V62.483H64.0458V61.8774Z" fill="#6CC8C1"/>
<path d="M64.0458 64.2129H63.6133V64.8184H64.0458V64.2129Z" fill="#6CC8C1"/>
<path d="M64.0458 66.5488H63.6133V67.1543H64.0458V66.5488Z" fill="#6CC8C1"/>
<path d="M64.0458 63.0889H63.6133V63.6944H64.0458V63.0889Z" fill="#6CC8C1"/>
<path d="M64.0458 65.3374H63.6133V65.9429H64.0458V65.3374Z" fill="#6CC8C1"/>
<path d="M64.9108 66.5488H64.4783V67.1543H64.9108V66.5488Z" fill="#6CC8C1"/>
<path d="M64.9108 61.8774H64.4783V62.483H64.9108V61.8774Z" fill="#6CC8C1"/>
<path d="M64.9108 63.0889H64.4783V63.6944H64.9108V63.0889Z" fill="#6CC8C1"/>
<path d="M64.9108 65.3374H64.4783V65.9429H64.9108V65.3374Z" fill="#6CC8C1"/>
<path d="M64.9108 64.2129H64.4783V64.8184H64.9108V64.2129Z" fill="#6CC8C1"/>
<path d="M65.776 66.5488H65.3435V67.1543H65.776V66.5488Z" fill="#6CC8C1"/>
<path d="M65.776 63.0889H65.3435V63.6944H65.776V63.0889Z" fill="#6CC8C1"/>
<path d="M65.776 65.3374H65.3435V65.9429H65.776V65.3374Z" fill="#6CC8C1"/>
<path d="M65.776 64.2129H65.3435V64.8184H65.776V64.2129Z" fill="#6CC8C1"/>
<path d="M65.776 61.8774H65.3435V62.483H65.776V61.8774Z" fill="#6CC8C1"/>
<path d="M66.468 64.8184L66.5545 64.2129H66.2085V64.8184H66.468Z" fill="#6CC8C1"/>
<path d="M66.641 63.0889H66.2085V63.6944H66.641V63.4349V63.0889Z" fill="#6CC8C1"/>
<path d="M66.295 65.9429L66.3815 65.3374H66.2085V65.9429H66.295Z" fill="#6CC8C1"/>
<path d="M66.2085 66.7218L66.295 66.5488H66.2085V66.7218Z" fill="#6CC8C1"/>
<path d="M66.641 61.8774H66.2085V62.483H66.641V61.8774Z" fill="#6CC8C1"/>
<path d="M59.7206 63.0889H59.2881V63.6944H59.7206V63.0889Z" fill="#6CC8C1"/>
<path d="M59.7206 64.2129H59.2881V64.8184H59.7206V64.2129Z" fill="#6CC8C1"/>
<path d="M59.7206 61.8774H59.2881V62.483H59.7206V61.8774Z" fill="#6CC8C1"/>
<path d="M59.7206 66.5488H59.2881V67.1543H59.7206V66.5488Z" fill="#6CC8C1"/>
<path d="M59.7206 65.3374H59.2881V65.9429H59.7206V65.3374Z" fill="#6CC8C1"/>
<path d="M58.8556 64.2129H58.4231V64.8184H58.8556V64.2129Z" fill="#6CC8C1"/>
<path d="M58.8556 65.3374H58.4231V65.9429H58.8556V65.3374Z" fill="#6CC8C1"/>
<path d="M58.8556 63.0889H58.4231V63.6944H58.8556V63.0889Z" fill="#6CC8C1"/>
<path d="M58.8556 66.5488H58.4231V67.1543H58.8556V66.5488Z" fill="#6CC8C1"/>
<path d="M58.8556 61.8774H58.4231V62.483H58.8556V61.8774Z" fill="#6CC8C1"/>
<path d="M57.7312 65.3374L57.8177 65.9429H57.9042V65.3374H57.7312Z" fill="#6CC8C1"/>
<path d="M57.9042 63.6944V63.0889H57.4717V63.4349L57.5582 63.6944H57.9042Z" fill="#6CC8C1"/>
<path d="M57.9042 61.8774H57.4717V62.483H57.9042V61.8774Z" fill="#6CC8C1"/>
<path d="M57.6445 64.2129V64.8184H57.904V64.2129H57.6445Z" fill="#6CC8C1"/>
<path d="M65.3435 67.1543H64.911H64.4785H64.046H63.6135H63.1809H62.7484H62.3159H61.8834H61.4509H61.0183H60.5858H60.1533H59.7208H59.2883H58.8558H58.4232H57.9907C58.0772 67.3273 58.1637 67.5003 58.3367 67.5003H65.776C65.9491 67.5003 66.1221 67.3273 66.1221 67.1543H65.6895H65.3435Z" fill="#6CC8C1"/>
<path d="M61.8833 65.9434H61.4508H61.0183H60.4992H60.1532H59.6342H59.2882H58.7692H58.4231H57.9041H57.8176L57.9041 66.5489H58.4231H58.7692H59.2882H59.6342H60.1532H60.4992H61.0183H61.4508H61.8833H62.3158H62.7483H63.1808H63.6134H64.0459H64.4784H64.9109H65.3434H65.776H66.2085H66.295V65.9434H66.2085H65.776H65.3434H64.9109H64.4784H64.0459H63.6134H63.1808H62.7483H62.3158H61.8833Z" fill="#6CC8C1"/>
<path d="M61.8832 64.8188H61.4507H61.0182H60.4992H60.1531H59.6341H59.2881H58.7691H58.4231H57.904H57.6445L57.731 65.3379H57.904H58.4231H58.7691H59.2881H59.6341H60.1531H60.4992H61.0182H61.4507H61.8832H62.3157H62.7482H63.1808H63.6133H64.0458H64.4783H64.9108H65.3434H65.7759H66.2084H66.3814L66.4679 64.8188H66.2084H65.7759H65.3434H64.9108H64.4783H64.0458H63.6133H63.1808H62.7482H62.3157H61.8832Z" fill="#6CC8C1"/>
<path d="M61.8833 63.6938H61.4508H61.0183H60.4992H60.1532H59.6342H59.2882H58.7692H58.4231H57.9041H57.5581L57.6446 64.2129H57.9041H58.4231H58.7692H59.2882H59.6342H60.1532H60.4992H61.0183H61.4508H61.8833H62.3158H62.7483H63.1808H63.6134H64.0459H64.4784H64.9109H65.3434H65.7759H66.2085H66.5545L66.641 63.6938H66.2085H65.7759H65.3434H64.9109H64.4784H64.0459H63.6134H63.1808H62.7483H62.3158H61.8833Z" fill="#6CC8C1"/>
<path d="M62.3157 62.4829H61.8832H61.4507H61.0182H60.4991H60.1531H59.6341H59.2881H58.7691H58.4231H57.904H57.4715H57.385L57.4715 63.0884H57.904H58.4231H58.7691H59.2881H59.6341H60.1531H60.4991H61.0182H61.4507H61.8832H62.3157H62.7482H63.1807H63.6133H64.0458H64.4783H64.9108H65.3433H65.7759H66.2084H66.6409H66.7274V62.4829H66.6409H66.2084H65.7759H65.3433H64.9108H64.4783H64.0458H63.6133H63.1807H62.7482H62.3157Z" fill="#6CC8C1"/>
<path d="M60.4992 61.8773H61.0182H61.4508H61.8833H62.3158H62.7483H63.1808H63.6133H64.0459H64.4784H64.9109H65.3434H65.7759H66.2085H66.641H66.814L66.9005 61.4448H57.2986V61.8773H57.4716H57.9041H58.4231H58.7691H59.2882H59.6342H60.1532H60.4992Z" fill="#6CC8C1"/>
<path d="M67.1598 61.1857C67.0733 61.0992 66.9868 61.0127 66.9003 61.0127H57.2984C57.2119 61.0127 57.1254 61.0992 57.0389 61.1857C56.9524 61.2722 56.9524 61.3587 56.9524 61.4452V61.5317L57.0389 61.8777L57.6444 67.0679C57.6444 67.1544 57.6444 67.2409 57.6444 67.2409C57.7309 67.5869 57.9904 67.8464 58.3364 67.8464H65.7758C66.1218 67.8464 66.3813 67.5869 66.4678 67.2409C66.4678 67.1544 66.4678 67.0679 66.5543 66.9814L67.1598 61.7912L67.2463 61.4452V61.3587C67.2463 61.3587 67.1598 61.2722 67.1598 61.1857ZM66.4678 61.9642L65.8623 66.9814C65.8623 67.0679 65.8623 67.0679 65.7758 67.0679H58.3364C58.3364 67.0679 58.2499 67.0679 58.2499 66.9814L57.6444 61.9642H66.4678Z" fill="#6CC8C1"/>
<path d="M67.7654 61.0127C67.7654 61.3587 67.5924 61.5317 67.3329 61.5317H56.7794C56.5199 61.5317 56.3469 61.3587 56.3469 61.0992V61.0127V60.9261C56.4334 60.7531 56.5199 60.5801 56.7794 60.5801H67.3329C67.5059 60.5801 67.6789 60.6666 67.7654 60.9261C67.7654 60.9261 67.7654 60.9261 67.7654 61.0127Z" fill="#6CC8C1"/>
<path opacity="0.2" d="M67.2464 61.4448C67.2464 61.5313 67.2464 61.5313 67.2464 61.4448L67.1599 61.8773H56.9525L56.866 61.5313V61.4448H67.2464Z" fill="#29235C"/>
<path opacity="0.2" d="M66.4679 67.3271C66.3814 67.6732 66.1219 67.9327 65.7759 67.9327H58.3366C57.9905 67.9327 57.731 67.6732 57.6445 67.3271H66.4679Z" fill="#29235C"/>
<path d="M59.634 60.5804C59.634 60.5804 62.9212 59.1098 63.5267 60.5804C63.6997 61.0994 63.8727 61.4454 63.8727 61.7049C63.9592 63.608 59.807 60.6669 59.634 60.5804Z" fill="white"/>
<path opacity="0.2" d="M59.634 60.5801C59.634 60.5801 63.1807 62.8292 63.8727 61.7047C63.9592 63.6078 59.807 60.6666 59.634 60.5801Z" fill="#29235C"/>
<path d="M107.125 33.6776C107.985 33.6776 108.682 32.9805 108.682 32.1206C108.682 31.2606 107.985 30.5635 107.125 30.5635C106.265 30.5635 105.568 31.2606 105.568 32.1206C105.568 32.9805 106.265 33.6776 107.125 33.6776Z" fill="#FFF200"/>
<path d="M108.336 26.4976H105.827V28.0547H108.336V26.4976Z" fill="white"/>
<path d="M108.076 27.8813H106.173C103.924 27.8813 102.107 29.6979 102.107 31.947H112.055C112.142 29.6979 110.325 27.8813 108.076 27.8813Z" fill="white"/>
<path d="M109.633 28.2275C108.855 29.6116 106.865 31.2551 102.194 31.4281C102.194 31.6011 102.107 31.7741 102.107 31.9471H112.055C112.142 30.2171 111.104 28.833 109.633 28.2275Z" fill="#E6E7E8"/>
<path d="M42.1603 34.8885C43.0203 34.8885 43.7174 34.1914 43.7174 33.3314C43.7174 32.4715 43.0203 31.7744 42.1603 31.7744C41.3004 31.7744 40.6033 32.4715 40.6033 33.3314C40.6033 34.1914 41.3004 34.8885 42.1603 34.8885Z" fill="#FFF200"/>
<path d="M43.4578 27.7085H40.9492V29.2656H43.4578V27.7085Z" fill="white"/>
<path d="M43.1982 29.1792H41.2952C39.0461 29.1792 37.2295 30.9957 37.2295 33.2448H47.1774C47.1774 30.9957 45.3608 29.1792 43.1982 29.1792Z" fill="white"/>
<path d="M44.6689 29.439C43.8903 30.823 41.9008 32.4666 37.2296 32.6396C37.2296 32.8126 37.1431 32.9856 37.1431 33.1586H47.091C47.1775 31.5151 46.1394 30.0445 44.6689 29.439Z" fill="#E6E7E8"/>
<path d="M107.73 60.8397C107.73 60.8397 109.028 60.8397 108.509 58.3311C108.509 58.3311 107.211 58.5041 107.73 60.8397Z" fill="#75271A"/>
<path d="M105.222 58.1577C105.222 58.1577 103.924 57.2061 105.308 56.2546C106.26 55.5626 107.903 56.7736 107.903 56.7736C107.903 56.7736 108.768 56.0816 109.46 56.7736C110.152 57.4657 108.595 58.3307 108.595 58.3307C108.595 58.3307 108.595 59.0227 108.163 59.3687C108.163 59.3687 107.73 59.5417 107.73 59.8013C107.73 59.8013 107.211 59.1957 107.211 58.7632C107.211 58.6767 106.346 58.7632 105.222 58.1577Z" fill="#75271A"/>
<path d="M107.557 60.061C107.557 60.061 107.817 59.2825 108.163 59.369C108.509 59.4555 108.422 60.4935 108.163 60.6665C107.817 60.926 107.644 60.6665 107.644 60.6665L107.557 60.061Z" fill="#F8A492"/>
<path d="M108.163 59.6284C107.99 59.8014 107.903 60.0609 107.903 60.3204C107.99 60.2339 108.076 60.1474 108.163 60.1474C108.076 60.1474 107.99 60.2339 107.903 60.3204C107.903 60.4069 107.903 60.4934 107.817 60.5799H107.73C107.73 60.3204 107.817 59.8014 108.163 59.6284Z" fill="#75271A"/>
</g>
<defs>
<linearGradient id="paint0_linear" x1="107.449" y1="63.1331" x2="107.449" y2="43.265" gradientUnits="userSpaceOnUse">
<stop stop-color="white"/>
<stop offset="1" stop-color="#BCDFF5"/>
</linearGradient>
<linearGradient id="paint1_linear" x1="107.449" y1="65.6344" x2="107.449" y2="52.6557" gradientUnits="userSpaceOnUse">
<stop stop-color="white"/>
<stop offset="1" stop-color="#BCDFF5"/>
</linearGradient>
<linearGradient id="paint2_linear" x1="103.272" y1="72.2472" x2="103.272" y2="62.4463" gradientUnits="userSpaceOnUse">
<stop stop-color="white"/>
<stop offset="1" stop-color="#BCDFF5"/>
</linearGradient>
<linearGradient id="paint3_linear" x1="113.617" y1="72.5021" x2="113.617" y2="61.6893" gradientUnits="userSpaceOnUse">
<stop stop-color="white"/>
<stop offset="1" stop-color="#BCDFF5"/>
</linearGradient>
<linearGradient id="paint4_linear" x1="96.6129" y1="73.1379" x2="96.6129" y2="67.2858" gradientUnits="userSpaceOnUse">
<stop stop-color="white"/>
<stop offset="1" stop-color="#BCDFF5"/>
</linearGradient>
<clipPath id="clip0">
<rect width="157" height="99" fill="white"/>
</clipPath>
</defs>
</svg>
