<svg width="141" height="88" viewBox="0 0 141 88" fill="none" xmlns="http://www.w3.org/2000/svg">
<path d="M10.9002 85.9001C10.9002 85.9001 -7.69983 56.9001 4.50017 31.8001C16.7002 6.70009 23.9002 42.4001 51.9002 25.9001C79.9002 9.40009 115.4 -20.3999 133.4 22.5001C151.4 65.4001 127.9 86.0001 127.9 86.0001L10.9002 85.9001Z" fill="#FAFFFF"/>
<path d="M56.6003 37.3999C56.5003 37.3999 54.2003 37.4999 53.9003 41.5999C53.6003 45.7999 49.7003 45.7999 50.6003 50.0999C51.5003 54.3999 56.9003 52.0999 56.9003 52.0999C56.9003 52.0999 65.3003 48.6999 61.6003 43.6999C58.1003 38.7999 56.6003 37.3999 56.6003 37.3999Z" fill="#75271A"/>
<path d="M58.8003 79C59.3003 79.3 59.4003 80.1 59.4003 81.1C59.4003 81.5 59.4003 81.3 59.4003 81.9C59.4003 83.1 59.5003 83.3 59.4003 83.9C59.3003 84.3 59.2003 84.6 59.0003 84.9C58.7003 85.2 58.3003 85.2 58.1003 85.3C57.8003 85.4 57.3003 85.4 57.1003 85.2C57.0003 85 57.1003 83.9 57.2003 83.1C57.5003 81 57.7003 79.1 58.4003 79C58.6003 78.9 58.7003 79 58.8003 79Z" fill="#4C423F"/>
<path d="M55.0004 79C54.5004 79.3 54.4004 80.1 54.4004 81.1C54.4004 81.5 54.4004 81.3 54.4004 81.9C54.4004 83.1 54.3004 83.3 54.4004 83.9C54.5004 84.3 54.6004 84.6 54.8004 84.9C55.1004 85.2 55.5004 85.2 55.7004 85.3C56.0004 85.4 56.5004 85.4 56.7004 85.2C56.8004 85 56.7004 83.9 56.6004 83.1C56.3004 81 56.1004 79.1 55.4004 79C55.2004 78.9 55.0004 79 55.0004 79Z" fill="#4C423F"/>
<path d="M58.2003 79C57.9003 80.8 57.5003 83.8 57.5003 84.4C57.5003 84.6 57.6003 84.8 57.6003 84.8C57.7003 84.9 57.8003 85 58.4003 84.8C58.6003 84.7 58.9003 84.6 59.3003 84.4C59.2003 84.6 59.1003 84.7 59.0003 84.8C58.7003 85.1 58.3003 85.1 58.1003 85.2C57.8003 85.3 57.3003 85.3 57.1003 85.1C57.0003 84.9 57.1003 83.8 57.2003 83C57.4003 81.1 57.6003 79.4 58.2003 79Z" fill="#353131"/>
<path d="M55.4005 84.8001C56.0005 85.0001 56.1005 84.8001 56.2005 84.8001C56.3005 84.7001 56.3005 84.6001 56.3005 84.4001C56.3005 83.8001 55.8005 80.9001 55.6005 79.1001C56.1005 79.6001 56.3005 81.2001 56.6005 83.1001C56.7005 83.9001 56.8005 85.1001 56.7005 85.2001C56.5005 85.4001 56.1005 85.4001 55.7005 85.3001C55.4005 85.3001 55.1005 85.2001 54.8005 84.9001C54.6005 84.7001 54.5005 84.6001 54.5005 84.4001C54.9005 84.6001 55.2005 84.8001 55.4005 84.8001Z" fill="#353131"/>
<path d="M57.4003 63.5002C56.7003 64.5002 57.3003 65.6002 57.7003 68.0002C58.0003 70.3002 57.5003 69.8002 57.7003 73.8002C57.7003 74.5002 57.9003 78.4002 57.8003 80.1002C57.8003 80.6002 57.7003 80.8002 57.7003 81.1002C57.6003 81.9002 57.4003 82.1002 57.4003 82.7002C57.4003 83.0002 57.4003 83.6002 57.8003 83.7002C58.1003 83.8002 58.6003 83.4002 58.9003 83.0002C59.0003 82.8002 59.1003 82.6002 59.1003 81.5002C59.1003 80.7002 59.1003 80.6002 59.1003 80.2002C59.1003 79.5002 59.2003 79.1002 59.4003 78.3002C59.4003 78.3002 59.7003 77.0002 60.0003 75.8002C60.1003 75.1002 60.5003 73.2002 60.2003 71.0002C60.1003 70.2002 59.9003 69.7002 59.9003 68.6002C59.9003 67.9002 59.9003 67.5002 60.0003 66.6002C60.3003 64.1002 60.4003 62.8002 60.0003 62.5002C59.4003 62.1002 58.1003 62.6002 57.4003 63.5002Z" fill="#F9B087"/>
<path d="M57.8004 79.9999C57.9004 78.3999 57.7004 74.3999 57.7004 73.6999C57.5004 69.6999 58.1004 70.2999 57.7004 67.8999C57.4004 65.5999 56.7004 64.4999 57.4004 63.3999C58.0004 62.4999 59.4004 61.9999 60.0004 62.4999C60.3004 62.6999 60.3004 63.5999 60.1004 65.1999C59.9004 65.0999 59.6004 64.9999 59.3004 64.8999C59.1004 64.8999 58.2004 64.6999 57.8004 65.2999C57.7004 65.4999 57.7004 65.6999 57.7004 66.0999C57.8004 66.9999 57.9004 67.4999 58.0004 67.9999C58.1004 68.3999 58.2004 69.0999 58.1004 69.9999C58.1004 70.3999 58.0004 70.4999 58.0004 71.0999C58.0004 71.3999 58.0004 71.7999 57.9004 72.5999C57.9004 73.3999 57.9004 74.0999 57.9004 74.2999C57.9004 76.1999 57.9004 76.4999 58.0004 77.2999C58.0004 79.8999 57.9004 78.7999 57.9004 80.0999C57.9004 80.2999 57.6004 81.8999 57.5004 82.0999C57.4004 82.3999 57.4004 82.7999 57.6004 83.3999C57.3004 83.1999 57.3004 82.5999 57.3004 82.3999C57.3004 81.7999 57.4004 81.5999 57.6004 80.7999C57.7004 80.6999 57.8004 80.4999 57.8004 79.9999Z" fill="#F39474"/>
<path d="M56.1005 82.3C56.0005 82.1 55.7005 80.5 55.7005 80.3C55.7005 79 55.6005 80.1 55.6005 77.5C55.6005 76.7 55.6005 76.3 55.7005 74.5C55.7005 74.2 55.7005 73.6 55.7005 72.8C55.7005 71.9 55.7005 71.5 55.6005 71.3C55.5005 70.6 55.5005 70.6 55.5005 70.2C55.4005 69.3 55.5005 68.6 55.6005 68.2C55.7005 67.7 55.8005 67.3 55.9005 66.3C56.0005 65.8 56.0005 65.6 55.8005 65.5C55.5005 65 54.5005 65.1 54.3005 65.1C54.0005 65.1 53.7005 65.3 53.5005 65.4C53.3005 63.8 53.3005 62.9 53.6005 62.7C54.2005 62.3 55.5005 62.7 56.2005 63.6C56.9005 64.6 56.3005 65.7 55.9005 68.1C55.6005 70.4 56.1005 69.9 55.9005 73.9C55.9005 74.6 55.7005 78.5 55.8005 80.2C55.8005 80.7 55.9005 80.9 55.9005 81.2C56.0005 82 56.2005 82.2 56.2005 82.8C56.2005 83.1 56.2005 83.7 55.9005 83.8C56.2005 83 56.2005 82.6 56.1005 82.3Z" fill="#F39474"/>
<path d="M53.9003 68.6002C53.9003 67.9002 53.9003 67.5002 53.8003 66.6002C53.7003 66.1002 53.7003 65.6002 53.7003 65.2002C53.9003 65.1002 54.2003 65.0002 54.5003 64.9002C54.7003 64.9002 55.6003 64.7002 56.0003 65.3002C56.1003 65.5002 56.1003 65.7002 56.1003 66.1002C56.0003 67.0002 55.9003 67.5002 55.8003 68.0002C55.7003 68.4002 55.6003 69.1002 55.7003 70.0002C55.7003 70.4002 55.8003 70.5002 55.8003 71.1002C55.8003 71.4002 55.8003 71.8002 55.9003 72.6002C55.9003 73.4002 55.9003 74.1002 55.9003 74.3002C55.9003 76.2002 55.9003 76.5002 55.8003 77.3002C55.8003 79.9002 55.9003 78.8002 55.9003 80.1002C55.9003 80.3002 56.2003 81.9002 56.3003 82.1002C56.4003 82.4002 56.4003 82.8002 56.2003 83.4002C55.9003 83.5002 55.4003 83.1002 55.1003 82.7002C55.0003 82.5002 54.9003 82.3002 54.9003 81.2002C54.9003 80.4002 54.9003 80.3002 54.9003 79.9002C54.9003 79.2002 54.8003 78.8002 54.6003 78.0002C54.6003 78.0002 54.3003 76.7002 54.0003 75.5002C53.9003 74.8002 53.5003 72.9002 53.8003 70.7002C53.7003 70.1002 53.9003 69.6002 53.9003 68.6002Z" fill="#F9B087"/>
<path d="M53.9005 53.5002H59.6005L60.9005 44.0002L57.7005 43.2002H56.1005L52.8005 44.0002L53.9005 53.5002Z" fill="white"/>
<path d="M60.2003 44.2002C59.9003 44.1002 59.3003 43.9002 58.2003 43.7002C57.3003 43.5002 57.1003 43.5002 56.9003 43.5002C56.6003 43.5002 56.3003 43.5002 55.8003 43.6002C54.5003 43.8002 53.7003 44.1002 53.2003 44.2002C53.0003 44.3002 52.9003 44.3002 52.7003 44.4002C52.6003 44.5002 52.4003 44.5002 52.3003 44.6002C52.5003 44.2002 52.7003 44.0002 52.8003 44.0002L56.0003 43.2002H57.6003L60.9003 44.1002C61.0003 44.1002 61.2003 44.4002 61.5003 44.8002C61.4003 44.7002 61.2003 44.6002 61.0003 44.5002C60.9003 44.4002 60.6003 44.3002 60.2003 44.2002Z" fill="#EDECEB"/>
<path d="M51.7004 63.7002C51.9004 61.0002 53.4004 55.1002 53.8004 53.7002C53.9004 53.3002 54.0004 52.9002 54.1004 52.7002C54.5004 51.5002 58.3004 51.2002 59.3004 52.7002C59.5004 53.0002 59.5004 53.2002 59.6004 53.7002C59.8004 55.0002 61.9004 63.5002 61.7004 63.7002C60.8004 64.5002 54.7004 65.2002 51.7004 63.7002Z" fill="#211E27"/>
<path d="M60.4005 46.3999C60.5005 46.3999 61.1005 47.4999 61.4005 48.1999C61.3005 48.1999 61.2005 48.2999 61.1005 48.2999C60.8005 47.6999 60.5005 47.1999 60.4005 46.8999L59.5005 53.3999H59.0005C59.5005 50.5999 59.8005 48.2999 60.0005 47.4999C60.2005 46.6999 60.3005 46.3999 60.4005 46.3999Z" fill="#EDECEB"/>
<path d="M53.2004 46.8003C53.3004 46.8003 53.4004 47.1003 53.6004 48.0003C53.7004 48.7003 53.9004 50.8003 54.3004 53.4003H53.9004L53.2004 47.4003C53.2004 47.7003 53.0004 48.1003 52.7004 48.6003C52.6004 48.5003 52.5004 48.5003 52.4004 48.4003C52.7004 47.8003 53.1004 46.8003 53.2004 46.8003Z" fill="#EDECEB"/>
<path d="M60.9003 47.8C60.7003 47.5 60.6003 47.2 60.5003 47L59.6003 53.5H59.1003C59.6003 50.7 59.9003 48.4 60.1003 47.6C60.2003 46.9 60.3003 46.5 60.4003 46.5C60.4003 46.6 60.5003 46.8 60.5003 46.9C60.5003 47 60.7003 47.3 60.9003 47.8Z" fill="#EDECEB"/>
<path d="M53.2004 47.4003C53.2004 47.2003 53.2004 47.1003 53.3004 46.8003C53.4004 46.9003 53.5004 47.2003 53.6004 47.9003C53.7004 48.6003 53.9004 50.7003 54.3004 53.3003H53.9004L53.2004 47.4003C53.2004 47.7003 53.0004 48.1003 52.7004 48.6003C52.6004 48.5003 52.5004 48.5003 52.4004 48.4003C52.5004 48.5003 52.6004 48.5003 52.7004 48.6003C53.0004 48.1003 53.2004 47.7003 53.2004 47.4003Z" fill="#EDECEB"/>
<path d="M53.9004 53.4999C53.9004 53.4999 54.2004 49.6999 54.2004 48.4999C54.2004 46.8999 54.0004 45.4999 53.9004 44.5999C53.9004 44.2999 53.8004 43.9999 53.8004 43.6999L54.5004 43.4999C54.6004 43.7999 54.6004 44.1999 54.6004 44.5999C54.7004 45.1999 54.8004 45.8999 54.8004 46.7999C55.4004 46.6999 56.1004 46.5999 56.9004 46.5999C57.6004 46.5999 58.2004 46.6999 58.8004 46.6999C58.9004 45.7999 58.9004 45.0999 59.0004 44.4999C59.0004 44.0999 59.1004 43.7999 59.1004 43.3999L59.8004 43.5999C59.8004 43.8999 59.7004 44.1999 59.7004 44.4999C59.6004 45.3999 59.4004 46.6999 59.4004 48.3999C59.4004 49.2999 59.4004 53.3999 59.4004 53.3999C59.4004 53.3999 60.6004 61.6999 60.2004 62.2999C59.3004 63.8999 53.6004 63.6999 53.0004 62.2999C52.8004 61.6999 53.9004 53.4999 53.9004 53.4999Z" fill="#359591"/>
<path d="M59.0003 47.1C59.0003 47.1 58.3003 46.9 57.2003 46.9C55.8003 46.9 54.8003 47.2 54.8003 47.2C54.8003 47.2 54.6003 45 54.3003 43.7L54.5003 43.6C54.6003 43.9 54.6003 44.3 54.6003 44.7C54.7003 45.3 54.8003 46 54.8003 46.9C55.4003 46.8 56.1003 46.7 56.9003 46.7C57.6003 46.7 58.2003 46.8 58.8003 46.8C58.9003 45.9 58.9003 45.2 59.0003 44.6C59.0003 44.2 59.1003 43.9 59.1003 43.5L59.3003 43.6C59.2003 43.9 59.2003 44.3 59.1003 44.6C59.0003 46.5 59.0003 47.1 59.0003 47.1Z" fill="#9EE5DB"/>
<path d="M56.6003 63.3999C57.0003 63.3999 57.7003 63.2999 57.8003 63.2999C58.2003 63.1999 58.8003 63.0999 59.4003 62.7999C59.6003 62.6999 59.7003 62.5999 59.8003 62.4999C60.0003 62.1999 60.0003 61.8999 59.9003 61.6999C59.9003 61.1999 59.9003 60.5999 59.8003 60.0999C59.7003 59.3999 59.7003 58.6999 59.6003 58.0999C59.3003 55.5999 59.2003 52.8999 59.2003 52.3999C59.2003 51.1999 59.2003 50.3999 59.2003 49.0999C59.3003 46.8999 59.3003 45.8999 59.5003 45.0999C59.6003 44.5999 59.6003 44.1999 59.7003 43.8999H59.8003C59.8003 44.1999 59.7003 44.4999 59.7003 44.7999C59.6003 45.6999 59.4003 46.9999 59.4003 48.6999C59.4003 49.5999 59.4003 53.6999 59.4003 53.6999C59.4003 53.6999 60.6003 61.9999 60.2003 62.5999C59.3003 64.0999 54.2003 63.9999 53.1003 62.7999C54.7003 63.1999 55.9003 63.3999 56.6003 63.3999Z" fill="#9EE5DB"/>
<path d="M53.8003 53.7001V53.5001C54.7003 53.6001 55.7003 53.2001 56.8003 53.2001C57.9003 53.2001 59.0003 53.3001 59.6003 53.1001V53.6001C59.6003 53.6001 59.6003 53.6001 59.6003 53.7001C58.9003 53.8001 57.9003 54.0001 57.1003 54.0001C55.8003 54.1001 54.7003 53.9001 53.8003 53.7001Z" fill="#9EE5DB"/>
<path d="M53.9003 53.5L53.8003 52.7C54.7003 52.8 55.8003 53 56.8003 52.9C57.9003 52.9 59.1003 52.7 59.6003 52.5L59.5003 53.3C59.5003 53.3 59.5003 53.3 59.5003 53.4C58.8003 53.5 57.8003 53.7 57.0003 53.7C55.8003 53.9 54.8003 53.7 53.9003 53.5Z" fill="#7FD6CB"/>
<path d="M51.8003 46.5999V46.3999V46.5999C51.9003 46.5999 52.0003 46.6999 52.1003 46.5999H52.3003L52.1003 46.6999C52.0003 46.6999 52.0003 46.7999 52.0003 46.8999V47.0999V46.9999C52.0003 46.8999 51.9003 46.8999 51.8003 46.8999H51.6003L51.8003 46.7999C51.8003 46.7999 51.8003 46.6999 51.8003 46.5999Z" fill="white"/>
<path d="M60.9005 44C61.3005 44 64.6005 49.5 65.1005 52.2C65.2005 52.6 65.3005 52.8 65.1005 53C65.0005 53.2 64.5005 53.2 64.3005 53.1C64.1005 53.1 60.7005 47.7 60.6005 46.7C60.4005 45.8 60.4005 44.1 60.9005 44Z" fill="#F9B087"/>
<path d="M65.1003 53.0999C64.9003 53.4999 58.7003 54.7999 58.1003 54.6999C57.9003 54.6999 57.8003 53.9999 57.9003 53.6999C58.0003 53.4999 63.5003 51.5999 64.2003 51.7999C64.9003 52.1999 65.3003 52.6999 65.1003 53.0999Z" fill="#F9B087"/>
<path d="M63.8004 52.2001C63.8004 52.2001 62.2004 52.4001 57.9004 54.0001C57.9004 53.9001 57.9004 53.8001 58.0004 53.8001C58.1004 53.6001 61.7004 52.4001 63.4004 52.0001C62.3004 50.3001 60.7004 47.5001 60.6004 46.8001C60.6004 46.6001 60.5004 46.3001 60.5004 46.1001C60.8004 46.5001 61.0004 46.9001 61.1004 47.2001C61.6004 48.7001 63.9004 52.1001 63.8004 52.2001Z" fill="#F39474"/>
<path d="M60.9002 44C61.1002 44 62.0002 45.3 62.9002 47C62.7002 47.2 62.5002 47.3 62.3002 47.5C61.9002 47.8 61.5002 48.1 61.1002 48.3C60.7002 47.6 60.5002 47.1 60.4002 46.8C60.1002 45.5 60.4002 44.1 60.9002 44Z" fill="white"/>
<path d="M61.4003 48.2C61.3003 48.2 61.2003 48.3 61.1003 48.3C61.0003 48.1 60.9003 48 60.8003 47.8C60.6003 47.4 60.4003 47 60.4003 46.9C60.4003 46.8 60.3003 46.6 60.3003 46.5C60.5003 46.4 61.1003 47.5 61.4003 48.2Z" fill="#EDECEB"/>
<path d="M60.9003 44C61.0003 44 61.2003 44.3 61.6003 44.7C61.5003 44.6 61.3003 44.5 61.1003 44.4C61.0003 44.3 60.8003 44.3 60.6003 44.2C60.7003 44.1 60.8003 44.1 60.9003 44Z" fill="#EDECEB"/>
<path d="M58.8002 53.6999C58.6002 53.4999 58.3002 53.5999 58.0002 53.6999C57.7002 53.7999 57.5002 54.0999 57.5002 54.3999C57.4002 54.6999 57.5002 55.3999 57.7002 55.5999C58.0002 55.8999 58.8002 55.6999 59.2002 55.3999C59.7002 55.0999 59.3002 54.0999 58.8002 53.6999Z" fill="#F9B087"/>
<path d="M52.8003 44C52.5003 44 49.6003 49.5 49.1003 52.3C49.0003 52.7 48.9003 52.9 49.1003 53.2C49.2003 53.4 50.7003 51.6 50.9003 51.5C51.1003 51.5 53.0003 48.3 53.2003 47.4C53.4003 46.4 53.0003 44 52.8003 44Z" fill="#F9B087"/>
<path d="M51.0004 51.2999C51.1004 51.7999 47.2004 55.7999 46.6004 55.4999C46.6004 55.4999 46.0004 55.5999 45.9004 55.2999C45.7004 54.6999 49.3004 50.3999 49.9004 50.3999C50.6004 50.3999 51.0004 50.6999 51.0004 51.2999Z" fill="#F9B087"/>
<path d="M50.4002 51.7002C50.8002 51.2002 51.8002 49.7002 52.3002 48.7002C52.6002 48.1002 52.9002 47.4002 53.3002 46.7002C53.3002 47.0002 53.3002 47.2002 53.3002 47.4002C53.2002 48.3002 51.2002 51.5002 51.0002 51.5002C50.3002 52.6002 47.3002 55.7002 46.7002 55.4002C46.7002 55.4002 47.7002 55.0002 47.2002 54.9002C48.2002 54.0002 50.0002 52.2002 50.4002 51.7002Z" fill="#F39474"/>
<path d="M51.0005 47.2C51.8005 45.4 52.7005 44 52.8005 44C53.3005 44 53.3005 46.3 53.2005 47.4C53.2005 47.7 53.0005 48.1 52.7005 48.6C52.4005 48.4 52.0005 48.1 51.6005 47.8C51.4005 47.6 51.2005 47.4 51.0005 47.2Z" fill="white"/>
<path d="M52.3003 44.6002C52.4003 44.5002 52.4003 44.4002 52.5003 44.3002C52.5003 44.3002 52.5003 44.2002 52.6003 44.2002C52.7003 44.2002 52.8003 44.3002 52.8003 44.5002C52.7003 44.5002 52.6003 44.6002 52.5003 44.6002C52.6003 44.5002 52.5003 44.6002 52.3003 44.6002Z" fill="#EDECEB"/>
<path d="M53.2004 46.8003C53.2004 46.8003 53.2004 46.9003 53.2004 46.8003C53.2004 47.0003 53.2004 47.2003 53.2004 47.4003C53.2004 47.7003 53.0004 48.1003 52.7004 48.6003C52.6004 48.5003 52.5004 48.5003 52.4004 48.4003C52.7004 47.8003 53.1004 46.8003 53.2004 46.8003Z" fill="#EDECEB"/>
<path d="M42.6003 55.2999C42.6003 55.5999 44.9003 55.5999 45.7003 55.5999C46.6003 55.5999 47.3003 55.3999 47.3003 54.9999C47.3003 54.5999 46.6003 54.3999 45.7003 54.3999C44.8003 54.4999 42.6003 54.9999 42.6003 55.2999Z" fill="#F9B087"/>
<path d="M42.6003 55.1999C42.8003 55.3999 44.9003 55.2999 45.7003 55.2999C46.4003 55.2999 46.9003 55.0999 47.2003 54.8999C47.3003 54.9999 47.3003 54.9999 47.3003 55.0999C47.3003 55.3999 46.6003 55.6999 45.7003 55.6999C44.8003 55.6999 42.6003 55.5999 42.6003 55.1999C42.6003 55.2999 42.6003 55.2999 42.6003 55.1999Z" fill="#F39474"/>
<path d="M56.4004 44.7001L56.5004 38.6C56.5004 38.6 59.3004 36.9 59.5004 38.5C59.5004 38.5 60.5004 42.9001 58.2004 42.7001V44.0001C58.2004 44.0001 57.7004 44.9001 57.1004 45.0001C56.5004 45.2001 56.4004 44.7001 56.4004 44.7001Z" fill="#F8A492"/>
<path d="M56.6005 40.3001C56.6005 40.3001 57.3005 39.6001 57.5005 38.4001C57.5005 38.4001 58.5005 39.2001 59.9005 39.1001C61.3005 39.0001 61.1005 36.6001 60.2005 36.6001C59.3005 36.6001 57.5005 37.6001 57.5005 37.6001C57.5005 37.6001 56.4005 36.8001 55.9005 38.0001C55.4005 39.3001 56.2005 40.4001 56.2005 40.4001L56.6005 40.3001Z" fill="#75271A"/>
<path d="M58.2006 40.3003C58.2006 40.5003 58.2006 40.7003 58.1006 40.7003C58.2006 40.7003 58.2006 40.5003 58.2006 40.3003Z" fill="#75271A"/>
<path d="M58.0006 40.2002C57.7006 40.2002 57.8006 40.7002 58.0006 40.7002C58.3006 40.7002 58.2006 40.2002 58.0006 40.2002Z" fill="#75271A"/>
<path d="M59.1003 40.2002C59.1003 40.4002 59.2003 40.6002 59.3003 40.6002C59.1003 40.6002 59.1003 40.4002 59.1003 40.2002Z" fill="#75271A"/>
<path d="M59.2003 40C59.5003 39.9 59.6003 40.5 59.3003 40.5C59.1003 40.6 59.0003 40.1 59.2003 40Z" fill="#75271A"/>
<path d="M57.7005 40.0002C57.8005 40.0002 57.8005 39.9002 57.9005 39.9002C58.0005 39.9002 58.0005 39.8002 58.1005 39.8002V39.7002C58.0005 39.6002 57.9005 39.7002 57.8005 39.7002C57.7005 39.7002 57.6005 39.8002 57.6005 39.9002C57.5005 39.9002 57.6005 40.0002 57.7005 40.0002Z" fill="#75271A"/>
<path d="M59.4005 39.8C59.3005 39.8 59.3005 39.8 59.2005 39.8C59.1005 39.8 59.0005 39.8 59.0005 39.7V39.6C59.1005 39.5 59.2005 39.5 59.3005 39.5C59.4005 39.5 59.5005 39.5 59.6005 39.6C59.6005 39.6 59.5005 39.8 59.4005 39.8Z" fill="#75271A"/>
<path d="M58.0005 41.4002C58.1005 41.5002 58.3005 41.6002 58.4005 41.6002C58.5005 41.6002 58.5005 41.6002 58.6005 41.6002C58.6005 41.5002 58.5005 41.3002 58.5005 41.3002C58.6005 41.3002 58.8005 41.4002 58.8005 41.3002C58.7005 40.8002 58.6005 40.2002 58.4005 39.7002C58.5005 40.2002 58.7005 40.7002 58.7005 41.2002C58.6005 41.2002 58.5005 41.1002 58.4005 41.2002L58.5005 41.6002C58.5005 41.5002 58.3005 41.5002 58.0005 41.4002C58.0005 41.4002 58.0005 41.3002 58.0005 41.4002Z" fill="#75271A"/>
<path d="M58.3003 42.2001C58.4003 42.2001 58.4003 42.2001 58.5003 42.2001C58.6003 42.2001 58.6003 42.1001 58.6003 42.1001C58.6003 42.2001 58.5003 42.2001 58.4003 42.3001C58.4003 42.3001 58.3003 42.3001 58.3003 42.2001Z" fill="#75271A"/>
<path d="M58.8004 41.6001C58.8004 41.6001 58.8004 41.8001 58.6004 41.9001C58.6004 41.9001 58.5004 42.0001 58.4004 42.0001C58.3004 42.0001 58.2004 41.9001 58.2004 41.8001C58.2004 41.7001 58.2004 41.6001 58.2004 41.6001C58.2004 41.6001 58.5004 41.7001 58.8004 41.6001Z" fill="#75271A"/>
<path d="M58.6004 41.9003C58.6004 41.9003 58.5004 42.0003 58.4004 42.0003C58.3004 42.0003 58.2004 41.9003 58.2004 41.8003C58.4004 41.8003 58.6004 41.8003 58.6004 41.9003Z" fill="#FF98B9"/>
<path d="M56.8005 40.7999C56.8005 40.7999 56.5005 39.8999 56.1005 39.9999C55.7005 40.0999 55.8005 41.3 56.1005 41.5C56.5005 41.8 56.7005 41.5 56.7005 41.5L56.8005 40.7999Z" fill="#F8A492"/>
<path d="M56.1006 40.2998C56.3006 40.4998 56.4006 40.7998 56.4006 41.0998C56.3006 40.9998 56.2006 40.8998 56.1006 40.8998C56.2006 40.8998 56.3006 40.9998 56.4006 41.0998C56.4006 41.1998 56.4006 41.2998 56.5006 41.3998H56.6006C56.6006 40.9998 56.5006 40.3998 56.1006 40.2998Z" fill="#75271A"/>
<path d="M58.9 40.4C59 40.8 59.4 41 59.8 40.9C60.2 40.8 60.4 40.3 60.2 39.9C60.1 39.5 59.7 39.3 59.3 39.4C59 39.6 58.8 40 58.9 40.4Z" stroke="#EF848E" stroke-width="0.1" stroke-miterlimit="10"/>
<path d="M57.1002 40.6002C57.2002 41.0002 57.6002 41.2002 58.0002 41.1002C58.4002 41.0002 58.6002 40.5002 58.4002 40.1002C58.3002 39.7002 57.9002 39.5002 57.5002 39.6002C57.1002 39.7002 56.9002 40.1002 57.1002 40.6002Z" stroke="#EF848E" stroke-width="0.1" stroke-miterlimit="10"/>
<path d="M58.9003 40.2998H58.5002" stroke="#EF848E" stroke-width="0.1" stroke-miterlimit="10"/>
<path d="M69.0005 60.5003L56.0005 67.3003L51.8005 60.7003C51.7005 60.5003 51.8005 60.3003 52.0005 60.3003H68.9005C69.0005 60.3003 69.1005 60.4003 69.0005 60.5003Z" fill="#FCBB03"/>
<path d="M49.2001 67.2002H47.1001V69.3002H49.2001V67.2002Z" fill="#5E7E8E"/>
<path d="M49.1003 72.3004C48.8003 72.3004 48.5003 72.1004 48.2003 71.7004C47.9003 71.3004 47.8003 70.7004 47.8003 69.9004C47.8003 69.1004 48.0003 68.4004 48.2003 68.1004L48.4003 68.2004C47.9003 68.8004 47.9003 70.8004 48.4003 71.5004C48.7003 71.9004 49.0003 72.1004 49.3003 72.0004C50.3003 71.7004 51.0003 68.3004 51.1003 67.1004C51.1003 66.7004 51.2003 66.4004 51.3003 66.0004C51.4003 65.6004 51.5003 65.1004 51.5003 64.6004C51.5003 64.4004 51.5003 64.2004 51.5003 64.1004C51.6003 63.1004 51.6003 62.1004 51.9003 61.2004C52.2003 60.1004 52.8003 59.4004 53.6003 58.9004L53.7003 59.1004C52.0003 60.1004 51.8003 62.3004 51.7003 64.1004C51.7003 64.3004 51.7003 64.5004 51.7003 64.6004C51.7003 65.1004 51.6003 65.5004 51.5003 66.0004C51.4003 66.4004 51.4003 66.7004 51.3003 67.1004C51.3003 67.4004 51.1003 68.6004 50.8003 69.8004C50.4003 71.2004 49.9003 72.0004 49.4003 72.2004C49.3003 72.2004 49.2003 72.3004 49.1003 72.3004Z" fill="#3D576B"/>
<path d="M59.7002 56.0002L60.3002 56.4002L60.5002 56.1002C60.5002 56.0002 60.5002 55.9002 60.4002 55.9002L60.1002 55.7002C60.0002 55.7002 59.9002 55.7002 59.9002 55.8002L59.7002 56.0002Z" fill="#6CC8C1"/>
<path d="M54.9004 60.3003H64.9004C64.9004 60.0003 64.7004 59.8003 64.5004 59.8003H55.3004C55.1004 59.8003 54.9004 60.1003 54.9004 60.3003Z" fill="#4A6372"/>
<path d="M63.6002 58.7002C63.5002 58.6002 63.5002 58.6002 63.4002 58.5002C63.2002 58.3002 63.0002 58.0002 62.7002 57.8002C62.5002 57.6002 62.3002 57.5002 62.2002 57.4002C62.0002 57.3002 61.8002 57.1002 61.6002 57.0002L59.8002 56.0002C59.5002 55.8002 59.2002 55.7002 58.8002 55.7002H55.5002C55.0002 55.7002 54.6002 56.1002 54.5002 56.6002L54.4002 57.4002L54.3002 57.8002L54.2002 58.4002C54.2002 58.4002 54.2002 58.7002 54.3002 58.9002C54.3002 59.0002 54.4002 59.1002 54.5002 59.2002L55.2002 59.7002L55.4002 59.9002H64.6002L63.6002 58.7002ZM55.6002 57.8002H55.5002C55.4002 57.7002 55.4002 57.6002 55.4002 57.4002L55.5002 56.8002C55.5002 56.6002 55.6002 56.5002 55.7002 56.5002H58.7002H58.8002C58.8002 56.5002 58.9002 56.5002 58.9002 56.6002L59.3002 57.2002C59.5002 57.4002 59.3002 57.8002 59.1002 57.8002H55.6002V57.8002Z" fill="#E8F4FC"/>
<path d="M56.6001 57.8H58.3001C58.3001 57.7 58.2001 57.5 58.1001 57.5H56.9001C56.7001 57.6 56.6001 57.7 56.6001 57.8Z" fill="#6CC8C1"/>
<path d="M64.5001 59.8003H55.3001L54.4001 59.2003C54.3001 59.1003 54.3001 59.0003 54.2001 58.9003C54.2001 58.7003 54.1001 58.5003 54.1001 58.4003L54.2001 57.8003L55.4001 58.8003C55.5001 58.9003 55.7001 59.0003 55.8001 59.0003H62.6001C62.8001 59.0003 62.9001 58.8003 62.9001 58.6003L62.7001 57.9003C63.0001 58.2003 63.3001 58.5003 63.6001 58.8003L64.5001 59.8003Z" fill="#6CC8C1"/>
<path d="M55.1004 59.2003C55.2108 59.2003 55.3004 59.1108 55.3004 59.0003C55.3004 58.8898 55.2108 58.8003 55.1004 58.8003C54.9899 58.8003 54.9004 58.8898 54.9004 59.0003C54.9004 59.1108 54.9899 59.2003 55.1004 59.2003Z" fill="#FFDD00"/>
<path opacity="0.2" d="M64.5003 59.8004H55.3003L55.1003 59.6004C63.4003 59.8004 63.4003 58.4004 63.4003 58.4004C63.5003 58.5004 63.5003 58.5004 63.6003 58.6004L64.5003 59.8004Z" fill="#29235C"/>
<path opacity="0.5" d="M58.8003 60.2H56.8003H58.8003C58.8003 60.1 58.8003 60.1 58.8003 60.2Z" fill="white"/>
<path d="M59.9003 57.9C59.4003 58.3 56.7003 57.9 55.8003 57.8H59.1003C59.3003 57.8 59.4003 57.4 59.3003 57.2L58.9003 56.6L58.8003 56.5C58.9003 56.6 60.5003 57.5 59.9003 57.9Z" fill="#6CC8C1"/>
<path opacity="0.5" d="M62.0002 57.5C62.0002 57.5 63.1003 58.7 62.0002 58.7C62.0002 58.7 62.4003 58.5 62.0002 57.5Z" fill="white"/>
<path d="M54.2002 58.5L53.6002 58.8L53.5002 58.9V59.1C53.5002 59.2 53.6002 59.2 53.6002 59.2L54.2002 59V58.5Z" fill="#6CC8C1"/>
<path d="M48.2001 68.9002C48.5315 68.9002 48.8001 68.6316 48.8001 68.3002C48.8001 67.9688 48.5315 67.7002 48.2001 67.7002C47.8687 67.7002 47.6001 67.9688 47.6001 68.3002C47.6001 68.6316 47.8687 68.9002 48.2001 68.9002Z" fill="#4A6372"/>
<path d="M46.5762 61.0547L46.2227 61.4082L68.9913 84.1768L69.3448 83.8233L46.5762 61.0547Z" fill="#3D576B"/>
<path d="M46.2749 83.7763L46.6284 84.1299L69.397 61.3613L69.0435 61.0077L46.2749 83.7763Z" fill="#3D576B"/>
<path d="M79.1003 60.6001H74.3003V61.0001H79.1003V60.6001Z" fill="#3D576B"/>
<path d="M79.5003 59.5H79.1003V61H79.5003V59.5Z" fill="#3D576B"/>
<path d="M74.0003 61.8H38.8003C38.5003 61.8 38.3003 61.6 38.3003 61.3V61C38.3003 60.7 38.5003 60.5 38.8003 60.5H74.0003C74.3003 60.5 74.5003 60.7 74.5003 61V61.3C74.5003 61.5 74.3003 61.8 74.0003 61.8Z" fill="#6CC8C1"/>
<path d="M46.5002 84.3999C46.7764 84.3999 47.0002 84.176 47.0002 83.8999C47.0002 83.6238 46.7764 83.3999 46.5002 83.3999C46.2241 83.3999 46.0002 83.6238 46.0002 83.8999C46.0002 84.176 46.2241 84.3999 46.5002 84.3999Z" fill="#6CC8C1"/>
<path d="M69.1003 84.3999C69.3765 84.3999 69.6003 84.176 69.6003 83.8999C69.6003 83.6238 69.3765 83.3999 69.1003 83.3999C68.8242 83.3999 68.6003 83.6238 68.6003 83.8999C68.6003 84.176 68.8242 84.3999 69.1003 84.3999Z" fill="#6CC8C1"/>
<path d="M50.4003 60.5002L64.9003 70.2002L70.2003 60.5002C70.3003 60.4002 70.2003 60.2002 70.0003 60.2002H50.5003C50.4003 60.2002 50.3003 60.4002 50.4003 60.5002Z" fill="#FFDD00"/>
<path d="M36.2003 80.3003C36.2003 80.3003 40.5003 75.5003 38.7003 75.1003C36.9003 74.7003 35.8003 75.8003 35.8003 75.8003C35.8003 75.8003 34.5003 72.8003 33.0003 73.8003C31.6003 74.8003 29.4003 79.6003 29.8003 80.4003C30.1003 81.4003 36.2003 80.3003 36.2003 80.3003Z" fill="#3D576B"/>
<path d="M28.2002 79.9003L35.1002 78.6003C35.1002 78.6003 35.1002 76.2003 34.4002 76.0003C33.7002 75.8003 28.5002 74.2003 27.7002 75.3003C27.0002 76.5003 28.2002 79.9003 28.2002 79.9003Z" fill="#FFDD00"/>
<path d="M32.8 78.2002C32.8 78.2002 37.7 78.5002 37.8 79.9002C38 81.3002 37.5 82.9002 37.5 82.9002L32.3 82.0002L32.8 78.2002Z" fill="#3D576B"/>
<path d="M37.9001 80.7003C37.9001 80.7003 35.6 79.2003 33.3 81.6003C31 84.0003 30.3 84.3003 30.3 84.3003H37.1L37.9001 80.7003Z" fill="#FFEC00"/>
<path d="M30.5001 76.3999C30.5001 76.3999 26.6001 81.5999 28.0001 83.8999C28.0001 83.8999 31.1001 85.3999 33.0001 84.1999C34.9001 82.9999 33.5001 76.8999 33.5001 76.8999L30.5001 76.3999Z" fill="white"/>
<path d="M31.0003 79.2002H30.5002V79.9002H31.0003V79.2002Z" fill="#6CC8C1"/>
<path d="M31.0003 80.6006H30.5002V81.3006H31.0003V80.6006Z" fill="#6CC8C1"/>
<path d="M31.0003 83.2002H30.5002V83.9002H31.0003V83.2002Z" fill="#6CC8C1"/>
<path d="M31.0003 81.9004H30.5002V82.6004H31.0003V81.9004Z" fill="#6CC8C1"/>
<path d="M31.0003 77.9004H30.5002V78.6004H31.0003V77.9004Z" fill="#6CC8C1"/>
<path d="M32.0002 80.6006H31.5002V81.3006H32.0002V80.6006Z" fill="#6CC8C1"/>
<path d="M32.0002 81.9004H31.5002V82.6004H32.0002V81.9004Z" fill="#6CC8C1"/>
<path d="M32.0002 83.2002H31.5002V83.9002H32.0002V83.2002Z" fill="#6CC8C1"/>
<path d="M32.0002 77.9004H31.5002V78.6004H32.0002V77.9004Z" fill="#6CC8C1"/>
<path d="M32.0002 79.2002H31.5002V79.9002H32.0002V79.2002Z" fill="#6CC8C1"/>
<path d="M33 83.2002H32.5V83.9002H33V83.2002Z" fill="#6CC8C1"/>
<path d="M33 79.2002H32.5V79.9002H33V79.2002Z" fill="#6CC8C1"/>
<path d="M33 80.6006H32.5V81.3006H33V80.6006Z" fill="#6CC8C1"/>
<path d="M33 81.9004H32.5V82.6004H33V81.9004Z" fill="#6CC8C1"/>
<path d="M33 77.9004H32.5V78.6004H33V77.9004Z" fill="#6CC8C1"/>
<path d="M34.0002 77.9004H33.5002V78.6004H34.0002V77.9004Z" fill="#6CC8C1"/>
<path d="M34.0002 83.2002H33.5002V83.9002H34.0002V83.2002Z" fill="#6CC8C1"/>
<path d="M34.0002 79.2002H33.5002V79.9002H34.0002V79.2002Z" fill="#6CC8C1"/>
<path d="M34.0002 81.9004H33.5002V82.6004H34.0002V81.9004Z" fill="#6CC8C1"/>
<path d="M34.0002 80.6006H33.5002V81.3006H34.0002V80.6006Z" fill="#6CC8C1"/>
<path d="M35.1003 77.9004H34.6003V78.6004H35.1003V77.9004Z" fill="#6CC8C1"/>
<path d="M35.1003 80.6006H34.6003V81.3006H35.1003V80.6006Z" fill="#6CC8C1"/>
<path d="M35.1003 83.2002H34.6003V83.9002H35.1003V83.2002Z" fill="#6CC8C1"/>
<path d="M35.1003 79.2002H34.6003V79.9002H35.1003V79.2002Z" fill="#6CC8C1"/>
<path d="M35.1003 81.9004H34.6003V82.6004H35.1003V81.9004Z" fill="#6CC8C1"/>
<path d="M36.1003 83.2002H35.6003V83.9002H36.1003V83.2002Z" fill="#6CC8C1"/>
<path d="M36.1003 77.9004H35.6003V78.6004H36.1003V77.9004Z" fill="#6CC8C1"/>
<path d="M36.1003 79.2002H35.6003V79.9002H36.1003V79.2002Z" fill="#6CC8C1"/>
<path d="M36.1003 81.9004H35.6003V82.6004H36.1003V81.9004Z" fill="#6CC8C1"/>
<path d="M36.1003 80.6006H35.6003V81.3006H36.1003V80.6006Z" fill="#6CC8C1"/>
<path d="M37.1003 83.2002H36.6003V83.9002H37.1003V83.2002Z" fill="#6CC8C1"/>
<path d="M37.1003 79.2002H36.6003V79.9002H37.1003V79.2002Z" fill="#6CC8C1"/>
<path d="M37.1003 81.9004H36.6003V82.6004H37.1003V81.9004Z" fill="#6CC8C1"/>
<path d="M37.1003 80.6006H36.6003V81.3006H37.1003V80.6006Z" fill="#6CC8C1"/>
<path d="M37.1003 77.9004H36.6003V78.6004H37.1003V77.9004Z" fill="#6CC8C1"/>
<path d="M37.6001 81.3006H37.9001V80.6006H37.6001V81.3006Z" fill="#6CC8C1"/>
<path d="M37.6001 79.2002V79.9002H38.0001V79.7002V79.2002H37.6001Z" fill="#6CC8C1"/>
<path d="M37.6001 82.6004H37.7001L37.8001 81.9004H37.6001V82.6004Z" fill="#6CC8C1"/>
<path d="M38.1001 77.9004H37.6001V78.6004H38.1001V77.9004Z" fill="#6CC8C1"/>
<path d="M30.0002 79.2002H29.5002V79.9002H30.0002V79.2002Z" fill="#6CC8C1"/>
<path d="M30.0002 80.6006H29.5002V81.3006H30.0002V80.6006Z" fill="#6CC8C1"/>
<path d="M30.0002 77.9004H29.5002V78.6004H30.0002V77.9004Z" fill="#6CC8C1"/>
<path d="M30.0002 83.2002H29.5002V83.9002H30.0002V83.2002Z" fill="#6CC8C1"/>
<path d="M30.0002 81.9004H29.5002V82.6004H30.0002V81.9004Z" fill="#6CC8C1"/>
<path d="M29 80.6006H28.5V81.3006H29V80.6006Z" fill="#6CC8C1"/>
<path d="M29 81.9004H28.5V82.6004H29V81.9004Z" fill="#6CC8C1"/>
<path d="M29 79.2002H28.5V79.9002H29V79.2002Z" fill="#6CC8C1"/>
<path d="M29 83.2002H28.5V83.9002H29V83.2002Z" fill="#6CC8C1"/>
<path d="M29 77.9004H28.5V78.6004H29V77.9004Z" fill="#6CC8C1"/>
<path d="M28.0001 81.9004H27.8V82.6004H28.0001V81.9004Z" fill="#6CC8C1"/>
<path d="M27.9001 83.2002L28.0001 83.5002V83.2002H27.9001Z" fill="#6CC8C1"/>
<path d="M28.0002 79.2002H27.5002V79.7002V79.9002H28.0002V79.2002Z" fill="#6CC8C1"/>
<path d="M28.0002 77.9004H27.5002V78.6004H28.0002V77.9004Z" fill="#6CC8C1"/>
<path d="M28.0003 80.6006H27.6003L27.7003 81.3006H28.0003V80.6006Z" fill="#6CC8C1"/>
<path d="M36.6 84.0005H36H35.5H35H34.5H34H33.5H33H32.5H32H31.5H31H30.5H30H29.5H29H28.5H28C28.1 84.2005 28.2 84.4005 28.4 84.4005H37C37.2 84.4005 37.4 84.2005 37.4 84.0005H37H36.6Z" fill="#6CC8C1"/>
<path d="M37.0001 82.6006H36.6001H36.0001H35.6001H35.0001H34.6001H34.0001H33.5001H33.0001H32.5001H32.0001H31.5001H31.0001H30.5001H30.0001H29.5001H29.0001H28.5H28H27.8L27.9001 83.2006H28H28.5H29.0001H29.5001H30.0001H30.5001H31.0001H31.5001H32.0001H32.5001H33.0001H33.5001H34.0001H34.6001H35.0001H35.6001H36.0001H36.6001H37.0001H37.6001L37.7001 82.6006H37.6001H37.0001Z" fill="#6CC8C1"/>
<path d="M37.0002 81.3003H36.6002H36.0002H35.6002H35.0002H34.6002H34.0002H33.5002H33.0002H32.5002H32.0002H31.5002H31.0002H30.5002H30.0002H29.5002H29.0002H28.5002H28.0002H27.7002L27.8002 81.9003H28.0002H28.5002H29.0002H29.5002H30.0002H30.5002H31.0002H31.5002H32.0002H32.5002H33.0002H33.5002H34.0002H34.6002H35.0002H35.6002H36.0002H36.6002H37.0002H37.6002H37.8002L37.9002 81.3003H37.6002H37.0002Z" fill="#6CC8C1"/>
<path d="M37.0002 79.9004H36.6002H36.0002H35.6002H35.0002H34.6002H34.0002H33.5002H33.0002H32.5002H32.0002H31.5002H31.0002H30.5002H30.0002H29.5002H29.0002H28.5002H28.0002H27.5002L27.6002 80.6004H28.0002H28.5002H29.0002H29.5002H30.0002H30.5002H31.0002H31.5002H32.0002H32.5002H33.0002H33.5002H34.0002H34.6002H35.0002H35.6002H36.0002H36.6002H37.0002H37.6002H37.9002L38.0002 79.9004H37.6002H37.0002Z" fill="#6CC8C1"/>
<path d="M37.6001 78.6006H37.0001H36.6001H36.0001H35.6001H35.0001H34.6001H34.0001H33.5001H33.0001H32.5001H32.0001H31.5001H31.0001H30.5001H30.0001H29.5001H29.0001H28.5001H28.0001H27.5001H27.4001V79.2006H27.5001H28.0001H28.5001H29.0001H29.5001H30.0001H30.5001H31.0001H31.5001H32.0001H32.5001H33.0001H33.5001H34.0001H34.6001H35.0001H35.6001H36.0001H36.6001H37.0001H37.6001H38.0001H38.1001L38.2001 78.6006H38.0001H37.6001Z" fill="#6CC8C1"/>
<path d="M27.2002 77.4004L27.3002 77.9004H27.5002H28.0002H28.5002H29.0002H29.5002H30.0002H30.5002H31.0002H31.5002H32.0002H32.5002H33.0002H33.5002H34.0002H34.6002H35.0002H35.6002H36.0002H36.6002H37.0002H37.6002H38.0002H38.3002V77.4004H27.2002Z" fill="#6CC8C1"/>
<path d="M38.6001 77.1004C38.5001 77.0004 38.4001 76.9004 38.3001 76.9004H27.2001C27.1001 76.9004 27.0001 77.0004 26.9001 77.1004C26.8001 77.2004 26.8 77.3004 26.8 77.4004V77.5004L26.9001 77.9004L27.6 83.9004C27.6 84.0004 27.6 84.1004 27.6 84.1004C27.7 84.5004 28.0001 84.8004 28.4001 84.8004H37.0001C37.4001 84.8004 37.7001 84.5004 37.8001 84.1004C37.8001 84.0004 37.8001 83.9004 37.9001 83.8004L38.6001 77.8004L38.7001 77.4004V77.3004C38.7001 77.3004 38.7001 77.2004 38.6001 77.1004ZM37.9001 77.9004L37.2001 83.7004C37.2001 83.8004 37.2001 83.8004 37.1001 83.8004H28.5001C28.5001 83.8004 28.4001 83.8004 28.4001 83.7004L27.7001 77.9004H37.9001Z" fill="#6CC8C1"/>
<path d="M39.3002 76.8003C39.3002 77.2003 39.1002 77.4003 38.8002 77.4003H26.7002C26.4002 77.4003 26.2002 77.2003 26.2002 76.9003V76.8003V76.7003C26.3002 76.5003 26.4002 76.3003 26.7002 76.3003H38.9002C39.1002 76.3003 39.3002 76.4003 39.4002 76.7003C39.3002 76.8003 39.3002 76.8003 39.3002 76.8003Z" fill="#6CC8C1"/>
<path opacity="0.2" d="M38.7001 77.4004C38.7001 77.4004 38.7001 77.5004 38.7001 77.4004L38.6001 77.9004H26.9001L26.8 77.5004V77.4004H38.7001Z" fill="#29235C"/>
<path opacity="0.2" d="M37.9002 84.1001C37.8002 84.5001 37.5002 84.8001 37.1002 84.8001H28.5002C28.1002 84.8001 27.8002 84.5001 27.7002 84.1001H37.9002Z" fill="#29235C"/>
<path d="M30.0002 76.4001C30.0002 76.4001 33.8002 74.7001 34.5002 76.4001C34.7002 77.0001 34.9002 77.4001 34.9002 77.7001C35.0002 79.8001 30.1002 76.4001 30.0002 76.4001Z" fill="white"/>
<path opacity="0.2" d="M30.0002 76.3999C30.0002 76.3999 34.1002 78.9999 34.9002 77.6999C35.0002 79.7999 30.1002 76.3999 30.0002 76.3999Z" fill="#29235C"/>
<path d="M103 61.1001V84.2001V85.4001H83.6003V61.1001H103Z" fill="#F3FBFF"/>
<path d="M103.1 61.7002H85.0005V84.1002H103.1V61.7002Z" fill="#359591"/>
<path d="M103.1 73.2002H84.3003V74.5002H103.1V73.2002Z" fill="#F3FBFF"/>
<path d="M103.101 61.1001H101.801V84.3001H103.101V61.1001Z" fill="#F3FBFF"/>
<path d="M98.9004 72.2998H93.8004H93.5003H88.0003L85.1003 73.1998H93.5003H93.8004H101.8L98.9004 72.2998Z" fill="#D1D3D4"/>
<path d="M98.9005 62.3999H88.0005V72.2999H98.9005V62.3999Z" fill="#69CCC5"/>
<path d="M101.7 74.3999H84.9001V84.0999H101.7V74.3999Z" fill="#359591"/>
<path d="M100.5 75.6997H86.3003V82.7997H100.5V75.6997Z" fill="#69CCC5"/>
<path d="M100.5 75.6997H98.9003C98.9003 77.3997 98.0003 81.9997 86.3003 82.4997V82.7997H100.5V75.6997V75.6997Z" fill="#F1F2F2"/>
<path d="M94.4003 76.1997H92.2003C92.0003 76.1997 91.8003 76.3997 91.8003 76.5997C91.8003 76.7997 92.0003 76.9997 92.2003 76.9997H94.4003C94.6003 76.9997 94.8003 76.7997 94.8003 76.5997C94.8003 76.3997 94.7003 76.1997 94.4003 76.1997Z" fill="white"/>
<path d="M97.7003 71.2002H89.2003C88.7003 71.2002 88.3003 71.6002 88.3003 72.1002C88.3003 72.6002 88.7003 73.0002 89.2003 73.0002H97.7003C98.2003 73.0002 98.6003 72.6002 98.6003 72.1002C98.5003 71.6002 98.1003 71.2002 97.7003 71.2002Z" fill="#FFF200"/>
<path d="M98.2001 71.4004C98.3001 71.5004 98.3002 71.7004 98.3002 71.8004C98.3002 72.3004 97.9002 72.7004 97.4002 72.7004H88.9001C88.7001 72.7004 88.5001 72.6004 88.4001 72.5004C88.5001 72.8004 88.8001 73.0004 89.1001 73.0004H97.6002C98.1002 73.0004 98.5002 72.6004 98.5002 72.1004C98.5002 71.8004 98.4001 71.6004 98.2001 71.4004Z" fill="#D1D3D4"/>
<path d="M97.7003 69.5005H89.2003C88.7003 69.5005 88.3003 69.9005 88.3003 70.4005C88.3003 70.9005 88.7003 71.3005 89.2003 71.3005H97.7003C98.2003 71.3005 98.6003 70.9005 98.6003 70.4005C98.6003 69.9005 98.1003 69.5005 97.7003 69.5005Z" fill="#F26899"/>
<path d="M98.2001 69.7007C98.3001 69.8007 98.3002 70.0007 98.3002 70.1007C98.3002 70.6007 97.9002 71.0007 97.4002 71.0007H88.9001C88.7001 71.0007 88.5001 70.9007 88.4001 70.8007C88.5001 71.1007 88.8001 71.3007 89.1001 71.3007H97.6002C98.1002 71.3007 98.5002 70.9007 98.5002 70.4007C98.5002 70.1007 98.4001 69.9007 98.2001 69.7007Z" fill="#D1D3D4"/>
<path d="M97.7003 67.8003H89.2003C88.7003 67.8003 88.3003 68.2003 88.3003 68.7003C88.3003 69.2003 88.7003 69.6003 89.2003 69.6003H97.7003C98.2003 69.6003 98.6003 69.2003 98.6003 68.7003C98.6003 68.2003 98.1003 67.8003 97.7003 67.8003Z" fill="#0FD6F5"/>
<path d="M98.2001 68.0005C98.3001 68.1005 98.3002 68.3005 98.3002 68.4005C98.3002 68.9005 97.9002 69.3005 97.4002 69.3005H88.9001C88.7001 69.3005 88.5001 69.2005 88.4001 69.1005C88.5001 69.4005 88.8001 69.6005 89.1001 69.6005H97.6002C98.1002 69.6005 98.5002 69.2005 98.5002 68.7005C98.5002 68.4005 98.4001 68.1005 98.2001 68.0005Z" fill="#D1D3D4"/>
<path d="M97.7003 66.1006H89.2003C88.7003 66.1006 88.3003 66.5006 88.3003 67.0006C88.3003 67.5006 88.7003 67.9006 89.2003 67.9006H97.7003C98.2003 67.9006 98.6003 67.5006 98.6003 67.0006C98.6003 66.5006 98.1003 66.1006 97.7003 66.1006Z" fill="#F26899"/>
<path d="M98.2001 66.3008C98.3001 66.4008 98.3002 66.6008 98.3002 66.7008C98.3002 67.2008 97.9002 67.6008 97.4002 67.6008H88.9001C88.7001 67.6008 88.5001 67.5008 88.4001 67.4008C88.5001 67.7008 88.8001 67.9008 89.1001 67.9008H97.6002C98.1002 67.9008 98.5002 67.5008 98.5002 67.0008C98.5002 66.7008 98.4001 66.4008 98.2001 66.3008Z" fill="#D1D3D4"/>
<path d="M97.7003 64.4004H89.2003C88.7003 64.4004 88.3003 64.8004 88.3003 65.3004C88.3003 65.8004 88.7003 66.2004 89.2003 66.2004H97.7003C98.2003 66.2004 98.6003 65.8004 98.6003 65.3004C98.5003 64.8004 98.1003 64.4004 97.7003 64.4004Z" fill="#0FD6F5"/>
<path d="M98.2001 64.6006C98.3001 64.7006 98.3002 64.9006 98.3002 65.0006C98.3002 65.5006 97.9002 65.9006 97.4002 65.9006H88.9001C88.7001 65.9006 88.5001 65.8006 88.4001 65.7006C88.5001 66.0006 88.8001 66.2006 89.1001 66.2006H97.6002C98.1002 66.2006 98.5002 65.8006 98.5002 65.3006C98.5002 65.0006 98.4001 64.7006 98.2001 64.6006Z" fill="#D1D3D4"/>
<path d="M97.5001 60H89.0001C88.5001 60 88.1001 60.4 88.1001 60.9C88.1001 61.4 88.5001 61.8 89.0001 61.8H97.5001C98.0001 61.8 98.4001 61.4 98.4001 60.9C98.3001 60.4 98.0001 60 97.5001 60Z" fill="#FFF200"/>
<path d="M98 60.2002C98.1 60.3002 98.1 60.5002 98.1 60.6002C98.1 61.1002 97.7 61.5002 97.2 61.5002H88.7C88.5 61.5002 88.3 61.4002 88.2 61.3002C88.3 61.6002 88.6 61.8002 88.9 61.8002H97.4C97.9 61.8002 98.3 61.4002 98.3 60.9002C98.3 60.6002 98.2 60.4002 98 60.2002Z" fill="#D1D3D4"/>
<path d="M97.5001 58.3003H89.0001C88.5001 58.3003 88.1001 58.7003 88.1001 59.2003C88.1001 59.7003 88.5001 60.1003 89.0001 60.1003H97.5001C98.0001 60.1003 98.4001 59.7003 98.4001 59.2003C98.3001 58.7003 98.0001 58.3003 97.5001 58.3003Z" fill="#F26899"/>
<path d="M98 58.5005C98.1 58.6005 98.1 58.8005 98.1 58.9005C98.1 59.4005 97.7 59.8005 97.2 59.8005H88.7C88.5 59.8005 88.3 59.7005 88.2 59.6005C88.3 59.9005 88.6 60.1005 88.9 60.1005H97.4C97.9 60.1005 98.3 59.7005 98.3 59.2005C98.3 58.9005 98.2 58.7005 98 58.5005Z" fill="#D1D3D4"/>
<path d="M97.5001 56.6001H89.0001C88.5001 56.6001 88.1001 57.0001 88.1001 57.5001C88.1001 58.0001 88.5001 58.4001 89.0001 58.4001H97.5001C98.0001 58.4001 98.4001 58.0001 98.4001 57.5001C98.4001 57.0001 98.0001 56.6001 97.5001 56.6001Z" fill="#0FD6F5"/>
<path d="M98 56.8003C98.1 56.9003 98.1 57.1003 98.1 57.2003C98.1 57.7003 97.7 58.1003 97.2 58.1003H88.7C88.5 58.1003 88.3 58.0003 88.2 57.9003C88.3 58.2003 88.6 58.4003 88.9 58.4003H97.4C97.9 58.4003 98.3 58.0003 98.3 57.5003C98.3 57.2003 98.2 57.0003 98 56.8003Z" fill="#D1D3D4"/>
<path d="M97.5001 54.9004H89.0001C88.5001 54.9004 88.1001 55.3004 88.1001 55.8004C88.1001 56.3004 88.5001 56.7004 89.0001 56.7004H97.5001C98.0001 56.7004 98.4001 56.3004 98.4001 55.8004C98.4001 55.3004 98.0001 54.9004 97.5001 54.9004Z" fill="#F26899"/>
<path d="M98 55.1006C98.1 55.2006 98.1 55.4006 98.1 55.5006C98.1 56.0006 97.7 56.4006 97.2 56.4006H88.7C88.5 56.4006 88.3 56.3006 88.2 56.2006C88.3 56.5006 88.6 56.7006 88.9 56.7006H97.4C97.9 56.7006 98.3 56.3006 98.3 55.8006C98.3 55.5006 98.2 55.3006 98 55.1006Z" fill="#D1D3D4"/>
<path d="M97.5001 53.2002H89.0001C88.5001 53.2002 88.1001 53.6002 88.1001 54.1002C88.1001 54.6002 88.5001 55.0002 89.0001 55.0002H97.5001C98.0001 55.0002 98.4001 54.6002 98.4001 54.1002C98.3001 53.6002 98.0001 53.2002 97.5001 53.2002Z" fill="#0FD6F5"/>
<path d="M98 53.4004C98.1 53.5004 98.1 53.7004 98.1 53.8004C98.1 54.3004 97.7 54.7004 97.2 54.7004H88.7C88.5 54.7004 88.3 54.6004 88.2 54.5004C88.3 54.8004 88.6 55.0004 88.9 55.0004H97.4C97.9 55.0004 98.3 54.6004 98.3 54.1004C98.3 53.8004 98.2 53.5004 98 53.4004Z" fill="#D1D3D4"/>
<path d="M50.2003 58.8999H41.7003C41.2003 58.8999 40.8003 59.2999 40.8003 59.7999C40.8003 60.2999 41.2003 60.6999 41.7003 60.6999H50.2003C50.7003 60.6999 51.1003 60.2999 51.1003 59.7999C51.0003 59.2999 50.6003 58.8999 50.2003 58.8999Z" fill="#FFF200"/>
<path d="M50.7001 59.1001C50.8001 59.2001 50.8001 59.4001 50.8001 59.5001C50.8001 60.0001 50.4001 60.4001 49.9001 60.4001H41.4001C41.2001 60.4001 41.0001 60.3001 40.9001 60.2001C41.0001 60.5001 41.3001 60.7001 41.6001 60.7001H50.1001C50.6001 60.7001 51.0001 60.3001 51.0001 59.8001C51.0001 59.5001 50.9001 59.3001 50.7001 59.1001Z" fill="#D1D3D4"/>
<path d="M50.2003 57.2002H41.7003C41.2003 57.2002 40.8003 57.6002 40.8003 58.1002C40.8003 58.6002 41.2003 59.0002 41.7003 59.0002H50.2003C50.7003 59.0002 51.1003 58.6002 51.1003 58.1002C51.0003 57.6002 50.6003 57.2002 50.2003 57.2002Z" fill="#F26899"/>
<path d="M50.7001 57.4004C50.8001 57.5004 50.8001 57.7004 50.8001 57.8004C50.8001 58.3004 50.4001 58.7004 49.9001 58.7004H41.4001C41.2001 58.7004 41.0001 58.6004 40.9001 58.5004C41.0001 58.8004 41.3001 59.0004 41.6001 59.0004H50.1001C50.6001 59.0004 51.0001 58.6004 51.0001 58.1004C51.0001 57.8004 50.9001 57.5004 50.7001 57.4004Z" fill="#D1D3D4"/>
<path d="M50.2003 55.5H41.7003C41.2003 55.5 40.8003 55.9 40.8003 56.4C40.8003 56.9 41.2003 57.3 41.7003 57.3H50.2003C50.7003 57.3 51.1003 56.9 51.1003 56.4C51.0003 55.9 50.6003 55.5 50.2003 55.5Z" fill="#0FD6F5"/>
<path d="M50.7001 55.7002C50.8001 55.8002 50.8001 56.0002 50.8001 56.1002C50.8001 56.6002 50.4001 57.0002 49.9001 57.0002H41.4001C41.2001 57.0002 41.0001 56.9002 40.9001 56.8002C41.0001 57.1002 41.3001 57.3002 41.6001 57.3002H50.1001C50.6001 57.3002 51.0001 56.9002 51.0001 56.4002C51.0001 56.1002 50.9001 55.8002 50.7001 55.7002Z" fill="#D1D3D4"/>
<path d="M8.90019 87.2001H136.2C136.9 87.2001 137.4 86.8001 137.4 86.4001C137.4 86.0001 136.8 85.6001 136.2 85.6001H8.90019C8.20019 85.6001 7.7002 86.0001 7.7002 86.4001C7.7002 86.9001 8.20019 87.2001 8.90019 87.2001Z" fill="#5C8097"/>
<path d="M117.6 31.9001C118.097 31.9001 118.5 31.4972 118.5 31.0001C118.5 30.503 118.097 30.1001 117.6 30.1001C117.103 30.1001 116.7 30.503 116.7 31.0001C116.7 31.4972 117.103 31.9001 117.6 31.9001Z" fill="#59ADA5"/>
<path d="M117.3 31.4001H69.5V30.6001H117.3C117.8 30.6001 117.8 31.4001 117.3 31.4001Z" fill="#6CC8C1"/>
<path d="M117.6 31.0002C117.6 30.8002 117.5 30.7002 117.4 30.7002H69.5V31.0002H117.6Z" fill="url(#paint0_linear)"/>
<path d="M81.3001 34.0005C81.3001 34.0005 82.6001 36.1005 83.0001 40.8005C83.1001 42.2005 82.8001 45.2005 82.8001 45.5005L81.4001 45.8005C81.4001 45.8005 81.4001 41.7005 80.7001 40.0005C80.2001 38.2005 80.3001 33.2005 81.3001 34.0005Z" fill="#F5FCFB"/>
<path d="M81.3001 34.0005C81.3001 34.0005 82.6001 36.1005 83.0001 40.8005C83.1001 42.2005 82.8001 45.2005 82.8001 45.5005L81.4001 45.8005C81.4001 45.8005 81.4001 41.7005 80.7001 40.0005C80.2001 38.2005 80.3001 33.2005 81.3001 34.0005Z" fill="#F5FCFB"/>
<path opacity="0.32" d="M82.3001 39.5003C82.3001 38.4003 82.0001 37.4003 81.6001 36.3003C81.6001 36.7003 81.9001 39.9003 81.8001 40.9003C81.6001 42.5003 82.0001 44.0003 81.9001 45.6003H82.1001C82.1001 44.8003 82.2001 44.0003 82.3001 43.1003C82.5001 42.0003 82.4001 40.7003 82.3001 39.5003Z" fill="#F5FCFB"/>
<g opacity="0.32">
<path opacity="0.32" d="M82.5 45.1001C82.5 45.0001 82.6 44.9001 82.6 44.8001C82.6 44.8001 82.6 44.7001 82.7 44.7001C82.9 44.5001 82.8 44.8001 82.8 44.9001C82.8 45.1001 82.7 45.4001 82.7 45.6001H82.5C82.5 45.5001 82.5 45.4001 82.5 45.3001C82.5 45.3001 82.5 45.2001 82.5 45.1001Z" fill="#CFD5DB"/>
<path opacity="0.32" d="M82.1001 44.8001V44.6001H82.2001C82.2001 44.6001 82.3001 45.3001 82.3001 45.5001C82.3001 45.6001 82.3001 45.6001 82.2001 45.7001H82.1001C82.1001 45.5001 82.1001 45.4001 82.1001 45.2001C82.1001 45.1001 82.1001 44.9001 82.1001 44.8001Z" fill="#CFD5DB"/>
<path opacity="0.32" d="M81.9001 44.8999C82.0001 45.1999 81.9001 45.4999 81.9001 45.7999C81.8 45.5999 81.8 45.2999 81.8 45.0999C81.8 44.9999 81.8 44.8999 81.9001 44.8999Z" fill="#CFD5DB"/>
</g>
<path d="M82.9001 46.0005V45.5005L81.6001 45.7005L81.7001 46.2005L82.9001 46.0005Z" fill="#F5FCFB"/>
<path d="M79 46.1001C79.3 46.1001 80.1 46.1001 80.5 46.0001C80.7 43.4001 80.3 38.1001 80.6 33.7001L79.8 33.3001C79.1 33.1001 77.9 33.1001 76.8 33.1001C76.8 33.1001 76.1 33.5001 75.5 33.7001C75.5 33.7001 75.9 42.9001 76.9 46.2001C77.7 46.2001 78.3 46.2001 79 46.1001Z" fill="#F0F2F2"/>
<path d="M78.1997 31.5003C78.1997 31.5003 78.1997 31.6003 78.1997 31.5003C78.2997 31.9003 78.1997 32.2003 78.1997 32.5003H78.5997V32.3003C78.5997 32.2003 78.5997 31.7003 78.4997 31.5003C78.3997 31.3003 78.2997 31.2003 78.1997 31.0003C78.0997 30.9003 77.9997 30.7003 78.0997 30.6003C78.1997 30.3003 78.7997 30.2003 78.8997 30.4003H79.3997C79.3997 30.2003 78.8997 29.9003 78.2997 30.0003C77.9997 30.1003 77.7997 30.2003 77.6997 30.5003C77.5997 30.7003 77.6997 30.8003 77.6997 31.0003C77.8997 31.1003 78.1997 31.4003 78.1997 31.5003Z" fill="#363347"/>
<path d="M81.2999 34.8005C80.8999 34.3005 80.1999 33.7005 79.8999 33.4005C79.5999 33.1005 79.2999 32.5005 79.0999 32.2005C79.0999 32.1005 78.8999 32.0005 78.7999 32.0005H78.1998C78.0998 32.0005 77.9999 32.1005 77.8999 32.1005C77.7999 32.3005 77.4998 32.8005 77.1998 33.1005C76.8998 33.4005 75.6998 34.3005 75.0998 34.7005C74.8998 34.8005 74.9998 35.0005 75.0998 35.1005H75.1998C75.2998 35.2005 75.4998 35.2005 75.5998 35.1005C76.1998 34.7005 77.9999 33.3005 78.4999 33.3005C78.8999 33.3005 80.1999 34.4005 80.8999 35.1005C80.9999 35.0005 81.1999 34.9005 81.2999 34.8005Z" fill="#4A485B"/>
<path opacity="0.55" d="M81.2998 34.8005C80.8998 34.3005 80.1998 33.7005 79.8998 33.4005C79.5998 33.1005 79.2998 32.5005 79.0998 32.2005C79.0998 32.1005 78.8998 32.0005 78.7998 32.0005H78.1998C78.0998 32.0005 77.9998 32.1005 77.8998 32.1005C77.7998 32.3005 77.4998 32.8005 77.1998 33.1005C76.8998 33.4005 75.6998 34.3005 75.0998 34.7005C74.9998 34.8005 76.9998 33.5005 77.1998 33.2005C77.3998 32.9005 77.6998 32.5005 77.8998 32.2005C77.9998 32.1005 78.0998 32.1005 78.1998 32.1005H78.7998C78.8998 32.1005 78.9998 32.2005 79.0998 32.3005C79.2998 32.6005 79.5998 33.2005 79.8998 33.5005C80.0998 33.8005 80.7998 34.4005 81.2998 34.8005Z" fill="url(#paint1_linear)"/>
<path d="M78.8998 32.0005H78.7998H78.1998C78.0998 32.0005 77.9998 32.0005 77.9998 32.1005L78.0998 32.2005H78.1998H78.7998C78.8998 32.2005 78.8998 32.2005 78.8998 32.2005C78.8998 32.1005 78.8998 32.1005 78.8998 32.0005Z" fill="#5B5A6B"/>
<path d="M80.8999 35.1004C80.4999 34.6004 79.4999 33.5004 79.0999 33.1004C78.9999 33.0004 78.6999 32.9004 78.4999 32.9004C78.1999 32.9004 77.8999 33.0004 77.7999 33.1004C77.0999 33.6004 75.4999 35.2004 75.5999 35.1004C76.1999 34.7004 77.9999 33.3004 78.4999 33.3004C78.9999 33.3004 80.1999 34.5004 80.8999 35.1004Z" fill="#5B5A6B"/>
<path d="M81.2998 34.8005C80.8998 34.3005 80.1998 33.7005 79.8998 33.4005C79.5998 33.1005 79.2998 32.5005 79.0998 32.2005C79.0998 32.1005 78.8998 32.0005 78.7998 32.0005H78.4998C78.6998 32.2005 78.6998 32.5005 78.6998 32.8005C78.6998 33.0005 78.6998 33.3005 78.6998 33.5005C79.2998 33.8005 80.1998 34.7005 80.7998 35.2005C80.9998 35.0005 81.1998 34.9005 81.2998 34.8005Z" fill="#545366"/>
<path d="M78.8999 30.3001C78.8999 30.3001 78.8999 30.4001 78.8999 30.5001H79.3999V30.3001L79.1999 30.1001L78.8999 30.3001Z" fill="#363347"/>
<path d="M75.4 40.9005C75.4 41.9005 74.9 44.5005 74.6 46.4005C75 46.5005 75.5 46.5005 75.9 46.5005C76.8 46.6005 77.7 46.6005 78.6 46.6005C78.8 46.1005 78.9 45.6005 79 45.1005C79 41.4005 78.9 36.2005 78.8 35.8005C78.8 35.2005 77.3 34.1005 76.7 33.0005C76.7 33.0005 75.3 33.3005 74.5 33.7005C74.7 33.8005 75.4 39.2005 75.4 40.9005Z" fill="#F5FCFB"/>
<path d="M76.5 35.1001C77.2 35.0001 78.2 34.8001 78.2 34.8001C77.7 34.3001 77.2 33.7001 76.8 33.1001C76.8 33.1001 76.6 33.1001 76 33.3001C76.1 33.8001 76.4 34.9001 76.5 35.1001Z" fill="#F5FCFB"/>
<path d="M78.9001 45.9004C79.0001 45.7004 79.0001 45.4004 79.1001 45.2004C79.1001 41.5004 79.0001 36.3004 78.9001 35.9004C78.9001 35.8004 78.5 35.2004 78.7 35.4004C78.7 35.5004 78.9001 45.4004 78.9001 45.9004Z" fill="#EEF0F2"/>
<path d="M75.3999 40.9001C75.3999 41.9001 74.8999 44.5001 74.5999 46.4001C74.9999 46.5001 75.4999 46.5001 75.8999 46.5001C75.9999 46.5001 76.1999 46.5001 76.2999 46.5001C76.3999 46.5001 76.3999 46.4001 76.4999 46.4001C76.8999 46.1001 76.8999 40.6001 76.6999 38.8001C76.3999 38.3001 76.1999 37.8001 76.0999 37.5001C75.6999 36.2001 75.2999 34.9001 74.6999 33.6001C74.6999 33.6001 74.5999 33.6001 74.5999 33.7001C74.6999 33.8001 75.3999 39.2001 75.3999 40.9001Z" fill="#F5FCFB"/>
<path d="M79.5001 46.7004C79.6001 46.7004 79.8001 46.7004 79.9001 46.7004C80.5001 46.7004 81.1001 46.7004 81.7001 46.6004C81.5001 44.3004 81.2001 41.1004 81.2001 40.9004C81.1001 40.6004 81.4001 35.6004 81.4001 34.4004C81.4001 34.2004 81.3001 34.1004 81.2001 34.0004C80.9001 33.8004 80.5001 33.6004 80.0001 33.4004L78.9001 35.8004L79.1001 44.9004C79.1001 44.8004 79.2001 45.6004 79.5001 46.7004Z" fill="#F5FCFB"/>
<path d="M79.3 36.8002C79.3 36.8002 79.3 38.1002 79.6 38.1002C79.9 38.1002 80.9 38.2002 81 38.0002C81.1 37.8002 81.1 36.7002 81.1 36.7002L79.3 36.8002Z" fill="#F5FCFB"/>
<path d="M79.3 36.8002C79.3 36.8002 79.3 36.8002 79.3 36.9002C79.3 37.0002 79.3 37.1002 79.3 37.2002C80.2001 37.3002 81.0001 37.2002 81.0001 37.2002C81.0001 37.0002 81.0001 36.7002 81.0001 36.7002L79.3 36.8002Z" fill="#F5FCFB"/>
<path d="M81.0001 37.1002C81.0001 36.9002 81.0001 36.7002 81.0001 36.7002H79.3C79.3 36.7002 79.3 36.9002 79.3 37.1002C79.9001 37.1002 80.5001 37.2002 81.0001 37.1002Z" fill="#F4F7F9"/>
<path d="M78.1 36.8002C78.1 36.8002 78.1 38.1002 77.8 38.1002C77.5 38.1002 76.5 38.2002 76.4 38.0002C76.3 37.8002 76.3 36.7002 76.3 36.7002L78.1 36.8002Z" fill="#F5FCFB"/>
<path d="M78.1001 36.8002C78.1001 36.8002 78.1001 36.8002 78.1001 36.9002C78.1001 37.0002 78.1001 37.1002 78.1001 37.2002C77.2001 37.3002 76.4001 37.2002 76.4001 37.2002C76.4001 37.0002 76.4001 36.7002 76.4001 36.7002L78.1001 36.8002Z" fill="#F5FCFB"/>
<path d="M76.3 37.1002C76.3 36.9002 76.3 36.7002 76.3 36.7002H78C78 36.7002 78 36.9002 78 37.1002C77.5 37.1002 76.9 37.2002 76.3 37.1002Z" fill="#F4F7F9"/>
<path d="M76.8999 33.1001C76.8999 33.1001 76.1999 33.2001 76.0999 33.3001C76.0999 33.4001 76.4999 34.9001 76.4999 35.1001C76.4999 35.1001 77.9999 34.8001 78.0999 34.8001C78.1999 34.8001 77.3999 33.7001 76.8999 33.1001Z" fill="#F5FCFB"/>
<path d="M79.3 34.9003C79.3 34.9003 80.1 33.5003 80 33.3003C80 33.3003 80.5 33.4003 80.6 33.8003C80.8 34.3003 80.7 35.1003 80.7 35.1003C80.7 35.1003 79.7 35.0003 79.3 34.9003Z" fill="#F5FCFB"/>
<path d="M79.3 34.8002C79.3 34.8002 79.9001 33.5002 79.8001 33.2002C79.8001 33.2002 80.2001 33.4002 80.4001 33.7002C80.6001 34.0002 80.6001 35.0002 80.6001 35.0002C80.6001 35.0002 79.7001 34.9002 79.3 34.8002Z" fill="#F5FCFB"/>
<path d="M74.9 33.7002C74.9 33.7002 74.2 33.8002 74 34.9002C73.8 36.1002 72.1 42.2002 72.3 43.1002C72.5 44.0002 73.9 45.0002 74.1 46.0002L75.6 45.8002C75.6 45.8002 75.1 41.5002 75.7 38.5002C75.8 37.9002 75 34.7002 74.9 33.7002Z" fill="#F5FCFB"/>
<path opacity="0.32" d="M75.1999 41.8003C75.1999 41.0003 75.2999 40.3003 75.3999 39.5003C75.3999 39.4003 75.2999 39.2003 75.2999 39.1003C75.2999 38.5003 75.3999 37.9003 75.2999 37.3003C75.0999 37.7003 74.8999 38.1003 74.7999 38.6003C74.5999 39.1003 74.6999 39.7003 74.6999 40.2003C74.5999 41.1003 74.7999 42.0003 74.7999 42.9003C74.8999 43.5003 74.9999 44.2003 75.0999 44.8003C75.0999 45.1003 75.2999 45.5003 75.3999 45.9003H75.4999C75.5999 45.3003 75.3999 44.5003 75.2999 43.9003C75.1999 43.2003 75.0999 42.5003 75.1999 41.8003Z" fill="#F5FCFB"/>
<path opacity="0.32" d="M74.9002 34.9004C74.6002 35.3004 73.9002 37.0004 73.9002 37.5004C73.9002 39.0004 73.5001 40.4004 73.4001 41.9004C73.4001 42.6004 73.4001 43.4004 73.7001 44.1004C74.0001 44.8004 74.7002 45.2004 75.0002 45.9004C75.0002 45.9004 75.0002 45.9004 75.0002 46.0004C74.1002 43.9004 74.2002 43.3004 74.0002 41.6004C73.7001 39.5004 74.7002 36.9004 74.9002 34.9004Z" fill="#F5FCFB"/>
<g opacity="0.32">
<path opacity="0.32" d="M74.5002 45.4004C74.5002 45.3004 74.4002 45.2004 74.3002 45.1004C74.3002 45.1004 74.2002 45.1004 74.2002 45.0004C74.0002 44.8004 74.1002 45.1004 74.2002 45.2004C74.3002 45.4004 74.4002 45.6004 74.5002 45.8004H74.7002C74.7002 45.7004 74.6002 45.6004 74.6002 45.5004C74.6002 45.6004 74.5002 45.5004 74.5002 45.4004Z" fill="#CFD5DB"/>
<path opacity="0.32" d="M74.9002 45.0003L74.8002 44.8003H74.7002C74.7002 44.8003 74.7002 45.5003 74.8002 45.7003C74.8002 45.8003 74.9002 45.8003 74.9002 45.9003H75.0002C75.0002 45.7003 75.0002 45.6003 74.9002 45.4003C74.9002 45.3003 74.9002 45.2003 74.9002 45.0003Z" fill="#CFD5DB"/>
<path opacity="0.32" d="M75.1003 45.0005C75.0003 45.3005 75.2003 45.6005 75.3002 45.9005C75.3002 45.7005 75.3002 45.4005 75.2002 45.2005C75.2002 45.1005 75.2002 45.0005 75.1003 45.0005Z" fill="#CFD5DB"/>
</g>
<path d="M75.7001 46.3003L75.6001 45.8003L74.1001 45.9003L74.2001 46.5003L75.7001 46.3003Z" fill="#F5FCFB"/>
<path d="M93.8001 34.1998C93.8001 34.1998 95.1001 36.2998 95.5001 40.9998C95.6001 42.3998 95.3001 45.3998 95.3001 45.6998L93.9001 45.9998C93.9001 45.9998 93.9001 41.8998 93.2001 40.1998C92.6001 38.3998 92.7001 33.2998 93.8001 34.1998Z" fill="#F5FCFB"/>
<path d="M93.8001 34.1998C93.8001 34.1998 95.1001 36.2998 95.5001 40.9998C95.6001 42.3998 95.3001 45.3998 95.3001 45.6998L93.9001 45.9998C93.9001 45.9998 93.9001 41.8998 93.2001 40.1998C92.6001 38.3998 92.7001 33.2998 93.8001 34.1998Z" fill="#F5FCFB"/>
<path opacity="0.32" d="M94.8001 39.7C94.8001 38.6 94.5001 37.6 94.1001 36.5C94.1001 36.9 94.4001 40.1 94.3001 41.1C94.1001 42.7 94.5001 44.2 94.4001 45.8H94.6001C94.6001 45 94.7001 44.2 94.8001 43.3C95.0001 42.1 94.8001 40.9 94.8001 39.7Z" fill="#F5FCFB"/>
<g opacity="0.32">
<path opacity="0.32" d="M94.8999 45.2998C94.8999 45.1998 94.9999 45.0998 94.9999 44.9998C94.9999 44.9998 94.9999 44.8998 95.0999 44.8998C95.2999 44.6998 95.1999 44.9998 95.1999 45.0998C95.1999 45.2998 95.0999 45.5998 95.0999 45.7998H94.8999C94.8999 45.6998 94.8999 45.5998 94.8999 45.4998C94.8999 45.4998 94.8999 45.3998 94.8999 45.2998Z" fill="#CFD5DB"/>
<path opacity="0.32" d="M94.5 44.9998V44.7998H94.6C94.6 44.7998 94.7 45.4998 94.7 45.6998C94.7 45.7998 94.7 45.7998 94.6 45.8998H94.5C94.5 45.6998 94.5 45.5998 94.5 45.3998C94.5 45.1998 94.5 45.0998 94.5 44.9998Z" fill="#CFD5DB"/>
<path opacity="0.32" d="M94.3 45.0996C94.4 45.3996 94.3 45.6996 94.3 45.9996C94.2 45.7996 94.2 45.4996 94.2 45.2996C94.2 45.0996 94.2 45.0996 94.3 45.0996Z" fill="#CFD5DB"/>
</g>
<path d="M95.4 46.2002L95.3 45.7002L94 45.9002L94.1 46.4002L95.4 46.2002Z" fill="#F5FCFB"/>
<path d="M91.4001 46.2998C91.7001 46.2998 92.5001 46.2998 92.9001 46.1998C93.1001 43.5998 92.7001 38.2998 93.0001 33.8998L92.2001 33.4998C91.5001 33.2998 90.3001 33.2998 89.2001 33.2998C89.2001 33.2998 88.5001 33.6998 87.9001 33.8998C87.9001 33.8998 88.3001 43.0998 89.3001 46.3998C90.1001 46.3998 90.8001 46.3998 91.4001 46.2998Z" fill="#F0F2F2"/>
<path d="M90.5999 31.7C90.6999 32.1 90.5999 32.4 90.5999 32.7H90.9999V32.5C90.9999 32.4 90.9999 31.9 90.8999 31.7C90.7999 31.5 90.6999 31.4 90.5999 31.2C90.4999 31.1 90.3999 30.9 90.4999 30.8C90.5999 30.5 91.1999 30.4 91.2999 30.6H91.7999C91.7999 30.4 91.2999 30.1 90.6999 30.2C90.3999 30.3 90.1999 30.4 90.0999 30.7C89.9999 30.9 90.0999 31 90.0999 31.2C90.2999 31.3 90.5999 31.6 90.5999 31.7Z" fill="#363347"/>
<path d="M93.7 34.9001C93.3 34.4001 92.6 33.8001 92.3 33.5001C92 33.2001 91.7 32.6001 91.5 32.3001C91.5 32.2001 91.3 32.1001 91.2 32.1001H90.6C90.5 32.1001 90.4 32.2001 90.3 32.2001C90.2 32.4001 89.9 32.9001 89.6 33.2001C89.3 33.5001 88.1 34.4001 87.5 34.8001C87.3 34.9001 87.4 35.1001 87.5 35.2001H87.6C87.7 35.3001 87.9 35.3001 88 35.2001C88.6 34.8001 90.4 33.4001 90.9 33.4001C91.3 33.4001 92.6 34.5001 93.3 35.2001C93.4 35.2001 93.6 35.1001 93.7 34.9001Z" fill="#4A485B"/>
<path opacity="0.55" d="M93.7 34.9001C93.3 34.4001 92.6 33.8001 92.3 33.5001C92 33.2001 91.7 32.6001 91.5 32.3001C91.5 32.2001 91.3 32.1001 91.2 32.1001H90.6C90.5 32.1001 90.4 32.2001 90.3 32.2001C90.2 32.4001 89.9 32.9001 89.6 33.2001C89.3 33.5001 88.1 34.4001 87.5 34.8001C87.4 34.9001 89.4 33.6001 89.6 33.3001C89.8 33.0001 90.1 32.6001 90.3 32.3001C90.4 32.2001 90.5 32.2001 90.6 32.2001H91.2C91.3 32.2001 91.4 32.3001 91.5 32.4001C91.7 32.7001 92 33.3001 92.3 33.6001C92.5 34.0001 93.2 34.6001 93.7 34.9001C93.7 35.0001 93.7 35.0001 93.7 34.9001Z" fill="url(#paint2_linear)"/>
<path d="M91.4 32.2002H91.3H90.7C90.6 32.2002 90.5 32.2002 90.5 32.3002L90.6 32.4002H90.7H91.3C91.4 32.4002 91.4 32.4002 91.4 32.4002C91.4 32.3002 91.4 32.3002 91.4 32.2002Z" fill="#5B5A6B"/>
<path d="M93.3001 35.3001C92.9001 34.8001 91.9001 33.7001 91.5001 33.3001C91.4001 33.2001 91.1001 33.1001 90.9001 33.1001C90.6001 33.1001 90.3001 33.2001 90.2001 33.3001C89.5001 33.8001 87.9001 35.4001 88.0001 35.3001C88.6001 34.9001 90.4001 33.5001 90.9001 33.5001C91.4001 33.5001 92.6001 34.7001 93.3001 35.3001Z" fill="#5B5A6B"/>
<path d="M93.6999 34.9001C93.2999 34.4001 92.5999 33.8001 92.2999 33.5001C91.9999 33.2001 91.6999 32.6001 91.4999 32.3001C91.4999 32.2001 91.2999 32.1001 91.1999 32.1001H90.8999C91.0999 32.3001 91.0999 32.6001 91.0999 32.9001C91.0999 33.1001 91.0999 33.4001 91.0999 33.6001C91.6999 33.9001 92.5999 34.8001 93.1999 35.3001C93.3999 35.2001 93.5999 35.1001 93.6999 34.9001Z" fill="#545366"/>
<path d="M91.3999 30.4998C91.3999 30.4998 91.3999 30.5998 91.3999 30.6998H91.8999V30.4998L91.6999 30.2998L91.3999 30.4998Z" fill="#363347"/>
<path d="M87.8001 41.1002C87.8001 42.1002 87.3001 44.7002 87.0001 46.6002C87.4001 46.7002 87.9001 46.7002 88.3001 46.7002C89.2001 46.8002 90.1001 46.8002 91.0001 46.8002C91.2001 46.3002 91.3001 45.8002 91.4001 45.3002C91.4001 41.6002 91.3001 36.4002 91.2001 36.0002C91.2001 35.4002 89.7001 34.3002 89.1001 33.2002C89.1001 33.2002 87.7001 33.5002 86.9001 33.9002C87.1001 34.0002 87.8001 39.4002 87.8001 41.1002Z" fill="#F5FCFB"/>
<path d="M88.9001 35.2998C89.6002 35.1998 90.6002 34.9998 90.6002 34.9998C90.1001 34.4998 89.6001 33.8998 89.2001 33.2998C89.2001 33.2998 89.0001 33.2998 88.4001 33.4998C88.5001 33.9998 88.8001 35.0998 88.9001 35.2998Z" fill="#F5FCFB"/>
<path d="M91.3002 46.1001C91.4002 45.9001 91.4002 45.6001 91.5002 45.4001C91.5002 41.7001 91.4002 36.5001 91.3002 36.1001C91.3002 36.0001 90.9002 35.4001 91.1002 35.6001C91.2002 35.6001 91.3002 45.6001 91.3002 46.1001Z" fill="#EEF0F2"/>
<path d="M87.8 41.0998C87.8 42.0998 87.3 44.6998 87 46.5998C87.4 46.6998 87.9 46.6998 88.3 46.6998C88.4 46.6998 88.6 46.6998 88.7 46.6998C88.8 46.6998 88.8 46.5998 88.9 46.5998C89.3 46.2998 89.3 40.7998 89.1 38.9998C88.8 38.4998 88.6 37.9998 88.5 37.6998C88.1 36.3998 87.7 35.0998 87.1 33.7998C87.1 33.7998 87 33.7998 87 33.8998C87.1 33.9998 87.8 39.3998 87.8 41.0998Z" fill="#F5FCFB"/>
<path d="M92.0001 46.9001C92.1001 46.9001 92.3001 46.9001 92.4001 46.9001C93.0002 46.9001 93.6001 46.9001 94.2001 46.8001C94.0001 44.5001 93.7001 41.3001 93.7001 41.1001C93.6001 40.8001 93.9002 35.8001 93.9002 34.6001C93.9002 34.4001 93.8001 34.3001 93.7001 34.2001C93.4001 34.0001 93.0001 33.8001 92.5001 33.6001L91.4001 36.0001L91.6001 45.1001C91.5001 45.0001 91.6001 45.8001 92.0001 46.9001Z" fill="#F5FCFB"/>
<path d="M91.7002 36.8998C91.7002 36.8998 91.7002 38.1998 92.0002 38.1998C92.3002 38.1998 93.3002 38.2998 93.4002 38.0998C93.5002 37.8998 93.5002 36.7998 93.5002 36.7998L91.7002 36.8998Z" fill="#F5FCFB"/>
<path d="M91.7002 36.8998C91.7002 36.8998 91.7002 36.8998 91.7002 36.9998C91.7002 37.0998 91.7002 37.1998 91.7002 37.2998C92.6002 37.3998 93.4002 37.2998 93.4002 37.2998C93.4002 37.0998 93.4002 36.7998 93.4002 36.7998L91.7002 36.8998Z" fill="#F5FCFB"/>
<path d="M93.4002 37.2999C93.4002 37.0999 93.4002 36.8999 93.4002 36.8999H91.7002C91.7002 36.8999 91.7002 37.0999 91.7002 37.2999C92.3002 37.2999 92.9002 37.2999 93.4002 37.2999Z" fill="#F4F7F9"/>
<path d="M90.4999 36.8998C90.4999 36.8998 90.4999 38.1998 90.1999 38.1998C89.8999 38.1998 88.9 38.2998 88.8 38.0998C88.7 37.8998 88.7 36.7998 88.7 36.7998L90.4999 36.8998Z" fill="#F5FCFB"/>
<path d="M90.5 36.8998C90.5 36.8998 90.5 36.8998 90.5 36.9998C90.5 37.0998 90.5 37.1998 90.5 37.2998C89.6 37.3998 88.8 37.2998 88.8 37.2998C88.8 37.0998 88.8 36.7998 88.8 36.7998L90.5 36.8998Z" fill="#F5FCFB"/>
<path d="M88.8 37.2999C88.8 37.0999 88.8 36.8999 88.8 36.8999H90.5C90.5 36.8999 90.5 37.0999 90.5 37.2999C89.9 37.2999 89.3 37.2999 88.8 37.2999Z" fill="#F4F7F9"/>
<path d="M89.3 33.2998C89.3 33.2998 88.6 33.3998 88.5 33.4998C88.5 33.5998 88.9 35.0998 88.9 35.2998C88.9 35.2998 90.4 34.9998 90.5 34.9998C90.6 34.9998 89.8 33.8998 89.3 33.2998Z" fill="#F5FCFB"/>
<path d="M91.7002 35.1C91.7002 35.1 92.5002 33.7 92.4002 33.5C92.4002 33.5 92.9002 33.6 93.0002 34C93.2002 34.5 93.1002 35.3 93.1002 35.3C93.1002 35.3 92.1002 35.2 91.7002 35.1Z" fill="#F5FCFB"/>
<path d="M91.8 34.9999C91.8 34.9999 92.4001 33.6999 92.3001 33.3999C92.3001 33.3999 92.7001 33.5999 92.9001 33.8999C93.1001 34.1999 93.1001 35.1999 93.1001 35.1999C93.1001 35.1999 92.1001 35.0999 91.8 34.9999Z" fill="#F5FCFB"/>
<path d="M87.4 33.8999C87.4 33.8999 86.7 33.9999 86.5 35.0999C86.3 36.2999 84.6 42.3999 84.8 43.2999C85 44.1999 86.4 45.1999 86.6 46.1999L88 45.9999C88 45.9999 87.5 41.6999 88.1 38.6999C88.3 38.0999 87.4 34.8999 87.4 33.8999Z" fill="#F5FCFB"/>
<path opacity="0.32" d="M87.6 42C87.6 41.2 87.7 40.5 87.8 39.7C87.8 39.6 87.7 39.4 87.7 39.3C87.7 38.7 87.8 38.1 87.7 37.5C87.5 37.9 87.3 38.3 87.2 38.8C87 39.3 87.1 39.9 87.1 40.4C87 41.3 87.2 42.2 87.2 43.1C87.3 43.7 87.4 44.4 87.5 45C87.5 45.3 87.7 45.7 87.8 46.1H87.9C88 45.5 87.8 44.7 87.7 44.1C87.6 43.4 87.6 42.7 87.6 42Z" fill="#F5FCFB"/>
<path opacity="0.32" d="M87.3001 35.1001C87.0001 35.5001 86.3001 37.2001 86.3001 37.7001C86.3001 39.2001 85.9 40.6001 85.8 42.1001C85.8 42.8001 85.8 43.6001 86.1 44.3001C86.4 45.0001 87.1001 45.4001 87.4001 46.1001C87.4001 46.1001 87.4001 46.1001 87.4001 46.2001C86.5001 44.1001 86.6001 43.5001 86.4001 41.8001C86.1 39.7001 87.2001 37.1001 87.3001 35.1001Z" fill="#F5FCFB"/>
<g opacity="0.32">
<path opacity="0.32" d="M86.8998 45.6001C86.8998 45.5001 86.7998 45.4001 86.6998 45.3001C86.6998 45.3001 86.5998 45.3001 86.5998 45.2001C86.3998 45.0001 86.4998 45.3001 86.5998 45.4001C86.6998 45.6001 86.7998 45.8001 86.8998 46.0001H87.0998C87.0998 45.9001 86.9998 45.8001 86.9998 45.7001C86.9998 45.8001 86.9998 45.7001 86.8998 45.6001Z" fill="#CFD5DB"/>
<path opacity="0.32" d="M87.2999 45.2L87.1999 45H87.0999C87.0999 45 87.0999 45.7 87.1999 45.9C87.1999 46 87.2999 46 87.2999 46.1H87.3999C87.3999 45.9 87.3999 45.8 87.2999 45.6C87.2999 45.5 87.2999 45.3 87.2999 45.2Z" fill="#CFD5DB"/>
<path opacity="0.32" d="M87.4999 45.2002C87.3999 45.5002 87.5999 45.8002 87.6999 46.1002C87.6999 45.9002 87.6999 45.6002 87.5999 45.4002C87.5999 45.3002 87.5999 45.2002 87.4999 45.2002Z" fill="#CFD5DB"/>
</g>
<path d="M88.1 46.4999L88 45.8999L86.5 46.0999L86.7 46.5999L88.1 46.4999Z" fill="#F5FCFB"/>
<path d="M106.2 34.4C106.2 34.4 107.5 36.5 107.9 41.2C108 42.6 107.7 45.6 107.7 45.9L106.3 46.2C106.3 46.2 106.3 42.1 105.6 40.4C105 38.6 105.2 33.5 106.2 34.4Z" fill="#F5FCFB"/>
<path d="M106.2 34.4C106.2 34.4 107.5 36.5 107.9 41.2C108 42.6 107.7 45.6 107.7 45.9L106.3 46.2C106.3 46.2 106.3 42.1 105.6 40.4C105 38.6 105.2 33.5 106.2 34.4Z" fill="#F5FCFB"/>
<path opacity="0.32" d="M107.2 39.9002C107.2 38.8002 106.9 37.8002 106.5 36.7002C106.5 37.1002 106.8 40.3002 106.7 41.3002C106.5 42.9002 106.9 44.4002 106.8 46.0002H107C107 45.2002 107.1 44.4002 107.2 43.5002C107.4 42.3002 107.2 41.1002 107.2 39.9002Z" fill="#F5FCFB"/>
<g opacity="0.32">
<path opacity="0.32" d="M107.3 45.5C107.3 45.4 107.4 45.3 107.4 45.2C107.4 45.2 107.4 45.1 107.5 45.1C107.7 44.9 107.6 45.2 107.6 45.3C107.6 45.5 107.5 45.8 107.5 46H107.3C107.3 45.9 107.3 45.8 107.3 45.7C107.3 45.7 107.3 45.6 107.3 45.5Z" fill="#CFD5DB"/>
<path opacity="0.32" d="M106.9 45.2V45H107C107 45 107.1 45.7 107.1 45.9C107.1 46 107.1 46 107 46.1H106.9C106.9 45.9 106.9 45.8 106.9 45.6C106.9 45.4 106.9 45.3 106.9 45.2Z" fill="#CFD5DB"/>
<path opacity="0.32" d="M106.7 45.2002C106.8 45.5002 106.7 45.8002 106.7 46.1002C106.6 45.9002 106.6 45.6002 106.6 45.4002C106.6 45.3002 106.6 45.2002 106.7 45.2002Z" fill="#CFD5DB"/>
</g>
<path d="M107.8 46.4003V45.8003L106.4 46.1003L106.5 46.6003L107.8 46.4003Z" fill="#F5FCFB"/>
<path d="M103.8 46.5C104.1 46.5 104.9 46.5 105.3 46.4C105.5 43.8 105.1 38.5 105.4 34.1L104.6 33.7C103.9 33.5 102.7 33.5 101.6 33.5C101.6 33.5 100.9 33.9 100.3 34.1C100.3 34.1 100.7 43.3 101.7 46.6C102.5 46.6 103.2 46.6 103.8 46.5Z" fill="#F0F2F2"/>
<path d="M103 31.9002C103.1 32.3002 103 32.6002 103 32.9002H103.4V32.7002C103.4 32.6002 103.4 32.1002 103.3 31.9002C103.2 31.7002 103.1 31.6002 103 31.4002C102.9 31.3002 102.8 31.1002 102.9 31.0002C103 30.7002 103.6 30.6002 103.7 30.8002H104.2C104.2 30.6002 103.7 30.3002 103.1 30.4002C102.8 30.5002 102.6 30.6002 102.5 30.9002C102.4 31.1002 102.5 31.2002 102.5 31.4002C102.7 31.4002 103 31.8002 103 31.9002Z" fill="#363347"/>
<path d="M106.1 35.1003C105.7 34.6003 105 34.0003 104.7 33.7003C104.4 33.4003 104.1 32.8003 103.9 32.5003C103.9 32.4003 103.7 32.3003 103.6 32.3003H103C102.9 32.3003 102.8 32.4003 102.7 32.4003C102.6 32.6003 102.3 33.1003 102 33.4003C101.7 33.7003 100.5 34.6003 99.9001 35.0003C99.7001 35.1003 99.8001 35.3003 99.9001 35.4003H100C100.1 35.5003 100.3 35.5003 100.4 35.4003C101 35.0003 102.8 33.6003 103.3 33.6003C103.7 33.6003 105 34.7003 105.7 35.4003C105.9 35.4003 106 35.2003 106.1 35.1003Z" fill="#4A485B"/>
<path opacity="0.55" d="M106.1 35.1003C105.7 34.6003 105 34.0003 104.7 33.7003C104.4 33.4003 104.1 32.8003 103.9 32.5003C103.9 32.4003 103.7 32.3003 103.6 32.3003H103C102.9 32.3003 102.8 32.4003 102.7 32.4003C102.6 32.6003 102.3 33.1003 102 33.4003C101.7 33.7003 100.5 34.6003 99.9001 35.0003C99.8001 35.1003 101.8 33.8003 102 33.5003C102.2 33.2003 102.5 32.8003 102.7 32.5003C102.8 32.4003 102.9 32.4003 103 32.4003H103.6C103.7 32.4003 103.8 32.5003 103.9 32.6003C104.1 32.9003 104.4 33.5003 104.7 33.8003C105 34.1003 105.7 34.8003 106.1 35.1003Z" fill="url(#paint3_linear)"/>
<path d="M103.8 32.4004H103.7H103C102.9 32.4004 102.8 32.4004 102.8 32.5004L102.9 32.6004H103H103.6C103.7 32.6004 103.7 32.6004 103.7 32.6004C103.8 32.5004 103.8 32.4004 103.8 32.4004Z" fill="#5B5A6B"/>
<path d="M105.8 35.5003C105.4 35.0003 104.4 33.9003 104 33.5003C103.9 33.4003 103.6 33.3003 103.4 33.3003C103.1 33.3003 102.8 33.4003 102.7 33.5003C102 34.0003 100.4 35.6003 100.5 35.5003C101.1 35.1003 102.9 33.7003 103.4 33.7003C103.8 33.7003 105 34.8003 105.8 35.5003C105.7 35.5003 105.7 35.5003 105.8 35.5003Z" fill="#5B5A6B"/>
<path d="M106.1 35.1003C105.7 34.6003 105 34.0003 104.7 33.7003C104.4 33.4003 104.1 32.8003 103.9 32.5003C103.9 32.4003 103.7 32.3003 103.6 32.3003H103.3C103.5 32.5003 103.5 32.8003 103.5 33.1003C103.5 33.3003 103.5 33.6003 103.5 33.8003C104.1 34.1003 105 35.0003 105.6 35.5003C105.9 35.4003 106 35.2003 106.1 35.1003Z" fill="#545366"/>
<path d="M103.8 30.7C103.8 30.7 103.8 30.8 103.8 30.9H104.3V30.7L104.1 30.5L103.8 30.7Z" fill="#363347"/>
<path d="M100.2 41.3004C100.2 42.3004 99.7003 44.9004 99.4003 46.8004C99.8003 46.9004 100.3 46.9004 100.7 46.9004C101.6 47.0004 102.5 47.0004 103.4 47.0004C103.6 46.5004 103.7 46.0004 103.8 45.5004C103.8 41.8004 103.7 36.6004 103.6 36.2004C103.6 35.6004 102.1 34.5004 101.5 33.4004C101.5 33.4004 100.1 33.7004 99.3003 34.1004C99.5003 34.2004 100.3 39.6004 100.2 41.3004Z" fill="#F5FCFB"/>
<path d="M101.4 35.5C102.1 35.4 103.1 35.2 103.1 35.2C102.6 34.7 102.1 34.1 101.7 33.5C101.7 33.5 101.5 33.5 100.9 33.7C100.9 34.2 101.2 35.3 101.4 35.5Z" fill="#F5FCFB"/>
<path d="M103.8 46.3003C103.9 46.1003 103.9 45.8003 104 45.6003C104 41.9003 103.9 36.7003 103.8 36.3003C103.8 36.2003 103.4 35.6003 103.6 35.8003C103.6 35.8003 103.7 45.8003 103.8 46.3003Z" fill="#EEF0F2"/>
<path d="M100.2 41.3C100.2 42.3 99.7001 44.9 99.4001 46.8C99.8001 46.9 100.3 46.9 100.7 46.9C100.8 46.9 101 46.9 101.1 46.9C101.2 46.9 101.2 46.8 101.3 46.8C101.7 46.5 101.7 41 101.5 39.2C101.2 38.7 101 38.2 100.9 37.9C100.5 36.6 100.1 35.3 99.5001 34C99.5001 34 99.4001 34 99.4001 34.1C99.5001 34.2 100.3 39.6 100.2 41.3Z" fill="#F5FCFB"/>
<path d="M104.4 47.0002C104.5 47.0002 104.7 47.0002 104.8 47.0002C105.4 47.0002 106 47.0002 106.6 46.9002C106.4 44.6002 106.1 41.4002 106.1 41.2002C106 40.9002 106.3 35.9002 106.3 34.7002C106.3 34.5002 106.2 34.4002 106.1 34.3002C105.8 34.1002 105.4 33.9002 104.9 33.7002L103.8 36.1002L104 45.2002C103.9 45.2002 104 45.9002 104.4 47.0002Z" fill="#F5FCFB"/>
<path d="M104.1 37.1C104.1 37.1 104.1 38.4 104.4 38.4C104.7 38.4 105.7 38.5 105.8 38.3C105.9 38.1 105.9 37 105.9 37L104.1 37.1Z" fill="#F5FCFB"/>
<path d="M104.1 37.1C104.1 37.1 104.1 37.1 104.1 37.2C104.1 37.3 104.1 37.4 104.1 37.5C105 37.6 105.8 37.5 105.8 37.5C105.8 37.3 105.8 37 105.8 37L104.1 37.1Z" fill="#F5FCFB"/>
<path d="M105.9 37.4C105.9 37.2 105.9 37 105.9 37H104.2C104.2 37 104.2 37.2 104.2 37.4C104.7 37.5 105.3 37.5 105.9 37.4Z" fill="#F4F7F9"/>
<path d="M102.9 37.1C102.9 37.1 102.9 38.4 102.6 38.4C102.3 38.4 101.3 38.5 101.2 38.3C101.1 38.1 101.1 37 101.1 37L102.9 37.1Z" fill="#F5FCFB"/>
<path d="M102.9 37.1C102.9 37.1 102.9 37.1 102.9 37.2C102.9 37.3 102.9 37.4 102.9 37.5C102 37.6 101.2 37.5 101.2 37.5C101.2 37.3 101.2 37 101.2 37L102.9 37.1Z" fill="#F5FCFB"/>
<path d="M101.2 37.4C101.2 37.2 101.2 37 101.2 37H102.9C102.9 37 102.9 37.2 102.9 37.4C102.3 37.5 101.7 37.5 101.2 37.4Z" fill="#F4F7F9"/>
<path d="M101.8 33.5C101.8 33.5 101.1 33.6 101 33.7C101 33.8 101.4 35.3 101.4 35.5C101.4 35.5 102.9 35.2 103 35.2C103 35.1 102.2 34.1 101.8 33.5Z" fill="#F5FCFB"/>
<path d="M104.1 35.3002C104.1 35.3002 104.9 33.9002 104.8 33.7002C104.8 33.7002 105.3 33.8002 105.4 34.2002C105.6 34.7002 105.5 35.5002 105.5 35.5002C105.5 35.5002 104.5 35.3002 104.1 35.3002Z" fill="#F5FCFB"/>
<path d="M104.2 35.2001C104.2 35.2001 104.8 33.9001 104.7 33.6001C104.7 33.6001 105.1 33.8001 105.3 34.1001C105.5 34.4001 105.5 35.4001 105.5 35.4001C105.5 35.4001 104.6 35.2001 104.2 35.2001Z" fill="#F5FCFB"/>
<path d="M99.8002 34.1001C99.8002 34.1001 99.1002 34.2001 98.9002 35.3001C98.7002 36.5001 97.0002 42.6001 97.2002 43.5001C97.4002 44.4001 98.8002 45.4001 99.0002 46.4001L100.5 46.2001C100.5 46.2001 100 41.9001 100.6 38.9001C100.7 38.2001 99.8002 35.0001 99.8002 34.1001Z" fill="#F5FCFB"/>
<path opacity="0.32" d="M100 42.2002C100 41.4002 100.1 40.7002 100.2 39.9002C100.2 39.8002 100.1 39.6002 100.1 39.5002C100.1 38.9002 100.2 38.3002 100.1 37.7002C99.9002 38.1002 99.7002 38.5002 99.6002 39.0002C99.4002 39.5002 99.5002 40.1002 99.5002 40.6002C99.4002 41.5002 99.6002 42.4002 99.6002 43.3002C99.7002 43.9002 99.8002 44.6002 99.9002 45.2002C99.9002 45.5002 100.1 45.9002 100.2 46.3002H100.3C100.4 45.7002 100.2 44.9002 100.1 44.3002C100 43.5002 100 42.9002 100 42.2002Z" fill="#F5FCFB"/>
<path opacity="0.32" d="M99.7002 35.3003C99.4002 35.7003 98.7002 37.4003 98.7002 37.9003C98.7002 39.4003 98.3002 40.8003 98.2002 42.3003C98.2002 43.0003 98.2002 43.8003 98.5002 44.5003C98.8002 45.2003 99.5002 45.6003 99.8002 46.3003C99.8002 46.3003 99.8002 46.3003 99.8002 46.4003C98.9002 44.3003 99.0002 43.7003 98.8002 42.0003C98.6002 39.9003 99.6002 37.3003 99.7002 35.3003Z" fill="#F5FCFB"/>
<g opacity="0.32">
<path opacity="0.32" d="M99.3 45.8003C99.3 45.7003 99.2 45.6003 99.1 45.5003C99.1 45.5003 99 45.5003 99 45.4003C98.8 45.2003 98.9 45.5003 99 45.6003C99.1 45.8003 99.2 46.0003 99.3 46.2003H99.5C99.5 46.1003 99.4 46.0003 99.4 45.9003C99.4 46.0003 99.4 45.9003 99.3 45.8003Z" fill="#CFD5DB"/>
<path opacity="0.32" d="M99.7 45.4002L99.6 45.2002H99.5C99.5 45.2002 99.5 45.9002 99.6 46.1002C99.6 46.2002 99.7 46.2002 99.7 46.3002H99.8C99.8 46.1002 99.8 46.0002 99.7 45.8002C99.8 45.6002 99.7 45.5002 99.7 45.4002Z" fill="#CFD5DB"/>
<path opacity="0.32" d="M100 45.4004C99.9002 45.7004 100.1 46.0004 100.2 46.3004C100.2 46.1004 100.2 45.8004 100.1 45.6004C100.1 45.5004 100 45.4004 100 45.4004Z" fill="#CFD5DB"/>
</g>
<path d="M100.5 46.7001L100.4 46.1001L99.0002 46.3001L99.1002 46.8001L100.5 46.7001Z" fill="#F5FCFB"/>
<defs>
<linearGradient id="paint0_linear" x1="119.377" y1="27.5122" x2="72.51" y2="33.5091" gradientUnits="userSpaceOnUse">
<stop stop-color="#87A37F"/>
<stop offset="0.2214" stop-color="#85A07D"/>
<stop offset="0.3789" stop-color="#7D9776"/>
<stop offset="0.5165" stop-color="#708769"/>
<stop offset="0.6427" stop-color="#5E7158"/>
<stop offset="0.7611" stop-color="#465542"/>
<stop offset="0.8738" stop-color="#293127"/>
<stop offset="0.9799" stop-color="#070907"/>
<stop offset="1"/>
</linearGradient>
<linearGradient id="paint1_linear" x1="78.1811" y1="31.118" x2="78.1811" y2="34.6788" gradientUnits="userSpaceOnUse">
<stop offset="0.0427807" stop-color="#C1B0A0"/>
<stop offset="1" stop-color="#B09E90"/>
</linearGradient>
<linearGradient id="paint2_linear" x1="90.598" y1="31.3013" x2="90.598" y2="34.8621" gradientUnits="userSpaceOnUse">
<stop offset="0.0427807" stop-color="#C1B0A0"/>
<stop offset="1" stop-color="#B09E90"/>
</linearGradient>
<linearGradient id="paint3_linear" x1="103.015" y1="31.4851" x2="103.015" y2="35.0459" gradientUnits="userSpaceOnUse">
<stop offset="0.0427807" stop-color="#C1B0A0"/>
<stop offset="1" stop-color="#B09E90"/>
</linearGradient>
</defs>
</svg>
