<svg width="141" height="88" viewBox="0 0 141 88" fill="none" xmlns="http://www.w3.org/2000/svg">
<path d="M10.9002 85.9001C10.9002 85.9001 -7.69983 56.9001 4.50017 31.8001C16.7002 6.70009 23.9002 42.4001 51.9002 25.9001C79.9002 9.40009 115.4 -20.3999 133.4 22.5001C151.4 65.4001 127.9 86.0001 127.9 86.0001L10.9002 85.9001Z" fill="#FAFFFF"/>
<path d="M50.829 20.209C50.6914 20.209 47.5267 20.3466 47.1139 25.988C46.7011 31.767 41.3349 31.767 42.5733 37.6835C43.8116 43.6001 51.2417 40.4354 51.2417 40.4354C51.2417 40.4354 62.7997 35.7572 57.7087 28.8775C52.8929 22.1353 50.829 20.209 50.829 20.209Z" fill="#75271A"/>
<path d="M53.8561 77.4486C54.544 77.8614 54.6816 78.9621 54.6816 80.3381C54.6816 80.8885 54.6816 80.6133 54.6816 81.4389C54.6816 83.09 54.8192 83.3652 54.6816 84.1907C54.544 84.7411 54.4064 85.1539 54.1313 85.5667C53.7185 85.9795 53.1681 85.9795 52.8929 86.1171C52.4801 86.2547 51.7921 86.2547 51.517 85.9795C51.3794 85.7043 51.517 84.1907 51.6545 83.09C52.0673 80.2005 52.3425 77.5862 53.3057 77.4486C53.5809 77.311 53.7185 77.4486 53.8561 77.4486Z" fill="#4C423F"/>
<path d="M48.6274 77.4486C47.9395 77.8614 47.8019 78.9621 47.8019 80.3381C47.8019 80.8885 47.8019 80.6133 47.8019 81.4389C47.8019 83.09 47.6643 83.3652 47.8019 84.1907C47.9395 84.7411 48.0771 85.1539 48.3523 85.5667C48.765 85.9795 49.3154 85.9795 49.5906 86.1171C50.0034 86.2547 50.6914 86.2547 50.9665 85.9795C51.1041 85.7043 50.9665 84.1907 50.829 83.09C50.4162 80.2005 50.141 77.5862 49.1778 77.4486C48.9026 77.311 48.6274 77.4486 48.6274 77.4486Z" fill="#4C423F"/>
<path d="M53.0305 77.4485C52.6177 79.9252 52.0673 84.0531 52.0673 84.8786C52.0673 85.1538 52.2049 85.429 52.2049 85.429C52.3425 85.5666 52.4801 85.7042 53.3057 85.429C53.5809 85.2914 53.9937 85.1538 54.544 84.8786C54.4065 85.1538 54.2689 85.2914 54.1313 85.429C53.7185 85.8418 53.1681 85.8418 52.8929 85.9794C52.4801 86.117 51.7921 86.117 51.517 85.8418C51.3794 85.5666 51.517 84.0531 51.6545 82.9523C51.9297 80.338 52.2049 77.9989 53.0305 77.4485Z" fill="#353131"/>
<path d="M49.1778 85.4293C50.0034 85.7045 50.141 85.4293 50.2786 85.4293C50.4162 85.2917 50.4162 85.1541 50.4162 84.879C50.4162 84.0534 49.7282 80.0631 49.453 77.5864C50.141 78.2744 50.4162 80.4759 50.829 83.0902C50.9665 84.191 51.1041 85.8421 50.9665 85.9797C50.6914 86.2549 50.141 86.2549 49.5906 86.1173C49.1778 86.1173 48.765 85.9797 48.3522 85.5669C48.0771 85.2917 47.9395 85.1541 47.9395 84.879C48.4898 85.1541 48.9026 85.4293 49.1778 85.4293Z" fill="#353131"/>
<path d="M51.9297 56.1212C50.9665 57.4972 51.7921 59.0107 52.3425 62.313C52.7553 65.4777 52.0673 64.7897 52.3425 70.2935C52.3425 71.2567 52.6177 76.6229 52.4801 78.962C52.4801 79.65 52.3425 79.9251 52.3425 80.3379C52.2049 81.4387 51.9297 81.7139 51.9297 82.5394C51.9297 82.9522 51.9297 83.7778 52.4801 83.9154C52.8929 84.053 53.5808 83.5026 53.9936 82.9522C54.1312 82.677 54.2688 82.4019 54.2688 80.8883C54.2688 79.7876 54.2688 79.65 54.2688 79.0996C54.2688 78.1364 54.4064 77.586 54.6816 76.4853C54.6816 76.4853 55.0944 74.6965 55.5072 73.0454C55.6448 72.0822 56.1951 69.4679 55.7823 66.4408C55.6447 65.3401 55.3696 64.6521 55.3696 63.1386C55.3696 62.1754 55.3696 61.625 55.5072 60.3867C55.9199 56.9468 56.0575 55.1581 55.5072 54.7453C54.6816 54.1949 52.8929 54.8829 51.9297 56.1212Z" fill="#F9B087"/>
<path d="M52.48 78.8246C52.6176 76.6231 52.3424 71.1193 52.3424 70.1561C52.0672 64.6523 52.8927 65.4779 52.3424 62.1756C51.9296 59.011 50.9664 57.4974 51.9296 55.9839C52.7551 54.7455 54.6815 54.0575 55.507 54.7455C55.9198 55.0207 55.9198 56.259 55.6446 58.4606C55.3694 58.323 54.9567 58.1854 54.5439 58.0478C54.2687 58.0478 53.0303 57.7726 52.48 58.5982C52.3424 58.8734 52.3424 59.1485 52.3424 59.6989C52.48 60.9373 52.6176 61.6253 52.7551 62.3132C52.8927 62.8636 53.0303 63.8268 52.8927 65.0651C52.8927 65.6155 52.7551 65.7531 52.7551 66.5787C52.7551 66.9915 52.7551 67.5418 52.6176 68.6426C52.6176 69.7434 52.6176 70.7065 52.6176 70.9817C52.6176 73.596 52.6176 74.0088 52.7551 75.1096C52.7551 78.687 52.6176 77.1735 52.6176 78.9622C52.6176 79.2374 52.2048 81.4389 52.0672 81.7141C51.9296 82.1269 51.9296 82.6773 52.2048 83.5028C51.792 83.2277 51.792 82.4021 51.792 82.1269C51.792 81.3013 51.9296 81.0261 52.2048 79.9254C52.3424 79.7878 52.48 79.5126 52.48 78.8246Z" fill="#F39474"/>
<path d="M50.1411 81.9893C50.0035 81.7142 49.5907 79.5126 49.5907 79.2374C49.5907 77.4487 49.4531 78.9622 49.4531 75.3848C49.4531 74.284 49.4531 73.7336 49.5907 71.2569C49.5907 70.8441 49.5907 70.0186 49.5907 68.9178C49.5907 67.6795 49.5907 67.1291 49.4531 66.8539C49.3155 65.8907 49.3155 65.8907 49.3155 65.3403C49.1779 64.102 49.3155 63.1388 49.4531 62.5884C49.5907 61.9005 49.7283 61.3501 49.8659 59.9741C50.0035 59.2862 50.0035 59.011 49.7283 58.8734C49.3155 58.1854 47.9396 58.323 47.6644 58.323C47.2516 58.323 46.8388 58.5982 46.5636 58.7358C46.2884 56.5343 46.2884 55.2959 46.7012 55.0207C47.5268 54.4703 49.3155 55.0207 50.2787 56.2591C51.2419 57.635 50.4163 59.1486 49.8659 62.4508C49.4531 65.6155 50.1411 64.9276 49.8659 70.4314C49.8659 71.3945 49.5907 76.7607 49.7283 79.0998C49.7283 79.7878 49.8659 80.063 49.8659 80.4758C50.0035 81.5766 50.2787 81.8517 50.2787 82.6773C50.2787 83.0901 50.2787 83.9157 49.8659 84.0533C50.2787 82.9525 50.2787 82.4021 50.1411 81.9893Z" fill="#F39474"/>
<path d="M47.1139 63.1389C47.1139 62.1758 47.1139 61.6254 46.9763 60.387C46.8387 59.6991 46.8387 59.0111 46.8387 58.4607C47.1139 58.3231 47.5267 58.1855 47.9395 58.0479C48.2146 58.0479 49.453 57.7727 50.0034 58.5983C50.141 58.8735 50.141 59.1487 50.141 59.6991C50.0034 60.9374 49.8658 61.6254 49.7282 62.3134C49.5906 62.8638 49.453 63.8269 49.5906 65.0653C49.5906 65.6157 49.7282 65.7532 49.7282 66.5788C49.7282 66.9916 49.7282 67.542 49.8658 68.6427C49.8658 69.7435 49.8658 70.7067 49.8658 70.9819C49.8658 73.5962 49.8658 74.0089 49.7282 75.1097C49.7282 78.6872 49.8658 77.1736 49.8658 78.9624C49.8658 79.2376 50.2786 81.4391 50.4162 81.7143C50.5538 82.127 50.5538 82.6774 50.2786 83.503C49.8658 83.6406 49.1778 83.0902 48.765 82.5398C48.6274 82.2646 48.4898 81.9894 48.4898 80.4759C48.4898 79.3751 48.4898 79.2376 48.4898 78.6872C48.4898 77.724 48.3522 77.1736 48.0771 76.0729C48.0771 76.0729 47.6643 74.2841 47.2515 72.633C47.1139 71.6698 46.5635 69.0555 46.9763 66.0284C46.8387 65.2029 47.1139 64.5149 47.1139 63.1389Z" fill="#F9B087"/>
<path d="M47.1144 42.3622H54.9573L56.746 29.2907L52.343 28.1899H50.1415L45.6008 29.2907L47.1144 42.3622Z" fill="white"/>
<path d="M55.7823 29.5659C55.3696 29.4283 54.544 29.1531 53.0304 28.8779C51.7921 28.6027 51.5169 28.6027 51.2417 28.6027C50.8289 28.6027 50.4162 28.6027 49.7282 28.7403C47.9394 29.0155 46.8387 29.4283 46.1507 29.5659C45.8755 29.7035 45.7379 29.7035 45.4627 29.8411C45.3251 29.9787 45.0499 29.9787 44.9124 30.1163C45.1875 29.5659 45.4627 29.2907 45.6003 29.2907L50.0034 28.1899H52.2049L56.7455 29.4283C56.8831 29.4283 57.1583 29.8411 57.5711 30.3915C57.4335 30.2539 57.1583 30.1163 56.8831 29.9787C56.7455 29.8411 56.3327 29.7035 55.7823 29.5659Z" fill="#EDECEB"/>
<path d="M44.0872 56.3964C44.3623 52.6813 46.4263 44.5632 46.9767 42.6369C47.1142 42.0865 47.2518 41.5361 47.3894 41.2609C47.9398 39.6098 53.1684 39.197 54.5444 41.2609C54.8196 41.6737 54.8196 41.9489 54.9572 42.6369C55.2323 44.4256 58.1218 56.1212 57.8466 56.3964C56.6083 57.4972 48.215 58.4603 44.0872 56.3964Z" fill="#211E27"/>
<path d="M56.0579 32.5928C56.1955 32.5928 57.0211 34.1063 57.4339 35.0695C57.2963 35.0695 57.1587 35.2071 57.0211 35.2071C56.6083 34.3815 56.1955 33.6935 56.0579 33.2807L54.8196 42.2244H54.1316C54.8196 38.3718 55.2324 35.2071 55.5075 34.1063C55.7827 33.0056 55.9203 32.5928 56.0579 32.5928Z" fill="#EDECEB"/>
<path d="M46.1508 33.1428C46.2884 33.1428 46.426 33.5556 46.7012 34.794C46.8388 35.7571 47.114 38.6466 47.6644 42.2241H47.114L46.1508 33.9684C46.1508 34.3812 45.8756 34.9316 45.4628 35.6195C45.3252 35.4819 45.1876 35.4819 45.05 35.3443C45.4628 34.5188 46.0132 33.1428 46.1508 33.1428Z" fill="#EDECEB"/>
<path d="M56.7455 34.5192C56.4703 34.1064 56.3327 33.6936 56.1951 33.4184L54.9568 42.3621H54.2688C54.9568 38.5095 55.3696 35.3448 55.6447 34.244C55.7823 33.2808 55.9199 32.7305 56.0575 32.7305C56.0575 32.8681 56.1951 33.1433 56.1951 33.2809C56.1951 33.4184 56.4703 33.8312 56.7455 34.5192Z" fill="#EDECEB"/>
<path d="M46.1508 33.9684C46.1508 33.6932 46.1508 33.5556 46.2884 33.1428C46.426 33.2804 46.5636 33.6932 46.7012 34.6564C46.8388 35.6195 47.114 38.509 47.6644 42.0865H47.114L46.1508 33.9684C46.1508 34.3812 45.8756 34.9316 45.4628 35.6195C45.3252 35.4819 45.1876 35.4819 45.05 35.3443C45.1876 35.4819 45.3252 35.4819 45.4628 35.6195C45.8756 34.9316 46.1508 34.3812 46.1508 33.9684Z" fill="#EDECEB"/>
<path d="M47.1141 42.3619C47.1141 42.3619 47.5269 37.1333 47.5269 35.4822C47.5269 33.2807 47.2517 31.3543 47.1141 30.116C47.1141 29.7032 46.9765 29.2904 46.9765 28.8776L47.9397 28.6024C48.0772 29.0152 48.0772 29.5656 48.0772 30.116C48.2148 30.9415 48.3524 31.9047 48.3524 33.1431C49.178 33.0055 50.1412 32.8679 51.2419 32.8679C52.2051 32.8679 53.0307 33.0055 53.8562 33.0055C53.9938 31.7671 53.9938 30.804 54.1314 29.9784C54.1314 29.428 54.269 29.0152 54.269 28.4648L55.2322 28.74C55.2322 29.1528 55.0946 29.5656 55.0946 29.9784C54.957 31.2167 54.6818 33.0055 54.6818 35.3446C54.6818 36.5829 54.6818 42.2243 54.6818 42.2243C54.6818 42.2243 56.3329 53.6447 55.7826 54.4703C54.5442 56.6718 46.7013 56.3966 45.8757 54.4703C45.6005 53.6447 47.1141 42.3619 47.1141 42.3619Z" fill="#359591"/>
<path d="M54.131 33.5557C54.131 33.5557 53.1679 33.2805 51.6543 33.2805C49.728 33.2805 48.352 33.6933 48.352 33.6933C48.352 33.6933 48.0768 30.6662 47.6641 28.8775L47.9392 28.7399C48.0768 29.1527 48.0768 29.7031 48.0768 30.2534C48.2144 31.079 48.352 32.0422 48.352 33.2805C49.1776 33.1429 50.1408 33.0053 51.2415 33.0053C52.2047 33.0053 53.0303 33.1429 53.8558 33.1429C53.9934 31.9046 53.9934 30.9414 54.131 30.1158C54.131 29.5655 54.2686 29.1527 54.2686 28.6023L54.5438 28.7399C54.4062 29.1527 54.4062 29.7031 54.2686 30.1158C54.131 32.7301 54.131 33.5557 54.131 33.5557Z" fill="#9EE5DB"/>
<path d="M50.829 55.9838C51.3794 55.9838 52.3426 55.8462 52.4802 55.8462C53.0305 55.7086 53.8561 55.571 54.6817 55.1583C54.9569 55.0207 55.0945 54.8831 55.2321 54.7455C55.5072 54.3327 55.5072 53.9199 55.3696 53.6447C55.3696 52.9567 55.3696 52.1312 55.2321 51.4432C55.0945 50.48 55.0945 49.5169 54.9569 48.6913C54.5441 45.2514 54.4065 41.5364 54.4065 40.8484C54.4065 39.1973 54.4065 38.0965 54.4065 36.3078C54.5441 33.2807 54.5441 31.9047 54.8193 30.804C54.9569 30.116 54.9569 29.5656 55.0945 29.1528H55.2321C55.2321 29.5656 55.0945 29.9784 55.0945 30.3912C54.9569 31.6295 54.6817 33.4183 54.6817 35.7574C54.6817 36.9957 54.6817 42.6371 54.6817 42.6371C54.6817 42.6371 56.3328 54.0575 55.7824 54.8831C54.5441 56.947 47.5267 56.8094 46.0132 55.1583C48.2147 55.7086 49.8658 55.9838 50.829 55.9838Z" fill="#9EE5DB"/>
<path d="M46.9763 42.6371V42.3619C48.2147 42.4995 49.5906 41.9491 51.1042 41.9491C52.6177 41.9491 54.1312 42.0867 54.9568 41.8115V42.4995C54.9568 42.4995 54.9568 42.4995 54.9568 42.6371C53.9937 42.7747 52.6177 43.0499 51.5169 43.0499C49.7282 43.1875 48.2147 42.9123 46.9763 42.6371Z" fill="#9EE5DB"/>
<path d="M47.1139 42.362L46.9763 41.2613C48.2147 41.3989 49.7282 41.6741 51.1042 41.5365C52.6177 41.5365 54.2688 41.2613 54.9568 40.9861L54.8192 42.0868C54.8192 42.0868 54.8192 42.0868 54.8192 42.2244C53.8561 42.362 52.4801 42.6372 51.3794 42.6372C49.7282 42.9124 48.3523 42.6372 47.1139 42.362Z" fill="#7FD6CB"/>
<path d="M44.2244 32.868V32.5928V32.868C44.362 32.868 44.4996 33.0056 44.6372 32.868H44.9124L44.6372 33.0056C44.4996 33.0056 44.4996 33.1432 44.4996 33.2808V33.5559V33.4184C44.4996 33.2808 44.362 33.2808 44.2244 33.2808H43.9492L44.2244 33.1432C44.2244 33.1432 44.2244 33.0056 44.2244 32.868Z" fill="white"/>
<path d="M56.7456 29.2908C57.296 29.2908 61.8366 36.8585 62.5246 40.5736C62.6622 41.1239 62.7998 41.3991 62.5246 41.6743C62.387 41.9495 61.699 41.9495 61.4238 41.8119C61.1486 41.8119 56.4704 34.3818 56.3328 33.0058C56.0576 31.7675 56.0576 29.4284 56.7456 29.2908Z" fill="#F9B087"/>
<path d="M62.5245 41.8117C62.2493 42.3621 53.7185 44.1508 52.8929 44.0132C52.6177 44.0132 52.4801 43.05 52.6177 42.6372C52.7553 42.3621 60.323 39.7478 61.2862 40.0229C62.2493 40.5733 62.7997 41.2613 62.5245 41.8117Z" fill="#F9B087"/>
<path d="M60.736 40.573C60.736 40.573 58.5345 40.8482 52.6179 43.0497C52.6179 42.9121 52.6179 42.7745 52.7555 42.7745C52.8931 42.4993 57.8465 40.8482 60.1856 40.2978C58.6721 37.9587 56.4706 34.106 56.333 33.1429C56.333 32.8677 56.1954 32.4549 56.1954 32.1797C56.6082 32.7301 56.8834 33.2805 57.021 33.6932C57.7089 35.7572 60.8736 40.4354 60.736 40.573Z" fill="#F39474"/>
<path d="M56.7455 29.2908C57.0207 29.2908 58.259 31.0795 59.4974 33.4186C59.2222 33.6938 58.947 33.8314 58.6718 34.1066C58.1214 34.5194 57.5711 34.9322 57.0207 35.2074C56.4703 34.2442 56.1951 33.5562 56.0575 33.1434C55.6447 31.3547 56.0575 29.4284 56.7455 29.2908Z" fill="white"/>
<path d="M57.4332 35.0696C57.2956 35.0696 57.158 35.2072 57.0204 35.2072C56.8828 34.932 56.7453 34.7944 56.6077 34.5192C56.3325 33.9688 56.0573 33.4184 56.0573 33.2808C56.0573 33.1432 55.9197 32.868 55.9197 32.7304C56.1949 32.5929 57.0204 34.1064 57.4332 35.0696Z" fill="#EDECEB"/>
<path d="M56.7456 29.2908C56.8832 29.2908 57.1583 29.7036 57.7087 30.2539C57.5711 30.1164 57.2959 29.9788 57.0207 29.8412C56.8831 29.7036 56.608 29.7036 56.3328 29.566C56.4704 29.4284 56.608 29.4284 56.7456 29.2908Z" fill="#EDECEB"/>
<path d="M53.8557 42.6374C53.5805 42.3622 53.1677 42.4998 52.7549 42.6374C52.3421 42.775 52.0669 43.1878 52.0669 43.6006C51.9293 44.0133 52.0669 44.9765 52.3421 45.2517C52.7549 45.6645 53.8557 45.3893 54.406 44.9765C55.094 44.5637 54.5436 43.1878 53.8557 42.6374Z" fill="#F9B087"/>
<path d="M45.6002 29.2908C45.1874 29.2908 41.1972 36.8585 40.5092 40.7112C40.3716 41.2615 40.234 41.5367 40.5092 41.9495C40.6468 42.2247 42.7107 39.748 42.9859 39.6104C43.2611 39.6104 45.8754 35.2074 46.1506 33.969C46.4258 32.5931 45.8754 29.2908 45.6002 29.2908Z" fill="#F9B087"/>
<path d="M43.1238 39.3343C43.2614 40.0223 37.8952 45.5261 37.0697 45.1133C37.0697 45.1133 36.2441 45.2509 36.1065 44.8381C35.8313 44.0125 40.7847 38.0959 41.6103 38.0959C42.5735 38.0959 43.1238 38.5087 43.1238 39.3343Z" fill="#F9B087"/>
<path d="M42.298 39.8856C42.8484 39.1976 44.2244 37.1337 44.9124 35.7578C45.3251 34.9322 45.7379 33.969 46.2883 33.0059C46.2883 33.4186 46.2883 33.6938 46.2883 33.969C46.1507 35.2074 43.3988 39.6104 43.1236 39.6104C42.1605 41.124 38.0326 45.3894 37.207 44.9766C37.207 44.9766 38.583 44.4262 37.895 44.2886C39.271 43.0503 41.7477 40.5736 42.298 39.8856Z" fill="#F39474"/>
<path d="M43.1238 33.6938C44.2245 31.2171 45.4629 29.2908 45.6005 29.2908C46.2885 29.2908 46.2885 32.4555 46.1509 33.969C46.1509 34.3818 45.8757 34.9322 45.4629 35.6201C45.0501 35.345 44.4997 34.9322 43.9493 34.5194C43.6742 34.2442 43.399 33.969 43.1238 33.6938Z" fill="white"/>
<path d="M44.9124 30.1161C45.0499 29.9785 45.0499 29.8409 45.1875 29.7033C45.1875 29.7033 45.1875 29.5657 45.3251 29.5657C45.4627 29.5657 45.6003 29.7033 45.6003 29.9785C45.4627 29.9785 45.3251 30.1161 45.1875 30.1161C45.3251 29.9785 45.1875 30.1161 44.9124 30.1161Z" fill="#EDECEB"/>
<path d="M46.1508 33.1428C46.1508 33.1428 46.1508 33.2804 46.1508 33.1428C46.1508 33.418 46.1508 33.6932 46.1508 33.9684C46.1508 34.3812 45.8756 34.9316 45.4628 35.6195C45.3252 35.4819 45.1876 35.4819 45.05 35.3443C45.4628 34.5188 46.0132 33.1428 46.1508 33.1428Z" fill="#EDECEB"/>
<path d="M31.5657 44.8385C31.5657 45.2512 34.7304 45.2512 35.8311 45.2512C37.0695 45.2512 38.0326 44.9761 38.0326 44.4257C38.0326 43.8753 37.0695 43.6001 35.8311 43.6001C34.5928 43.7377 31.5657 44.4257 31.5657 44.8385Z" fill="#F9B087"/>
<path d="M31.5657 44.7011C31.8409 44.9763 34.7304 44.8387 35.8311 44.8387C36.7943 44.8387 37.4823 44.5635 37.895 44.2883C38.0326 44.4259 38.0326 44.4259 38.0326 44.5635C38.0326 44.9763 37.0695 45.3891 35.8311 45.3891C34.5928 45.3891 31.5657 45.2515 31.5657 44.7011C31.5657 44.8387 31.5657 44.8387 31.5657 44.7011Z" fill="#F39474"/>
<path d="M50.554 30.2535L50.6915 21.8602C50.6915 21.8602 54.5442 19.5211 54.8194 21.7226C54.8194 21.7226 56.1953 27.7768 53.0307 27.5016V29.2903C53.0307 29.2903 52.3427 30.5287 51.5171 30.6663C50.6915 30.9414 50.554 30.2535 50.554 30.2535Z" fill="#F8A492"/>
<path d="M50.8293 24.1994C50.8293 24.1994 51.7924 23.2363 52.0676 21.5851C52.0676 21.5851 53.4436 22.6859 55.3699 22.5483C57.2962 22.4107 57.021 19.1084 55.7827 19.1084C54.5443 19.1084 52.0676 20.4843 52.0676 20.4843C52.0676 20.4843 50.5541 19.3836 49.8661 21.0347C49.1781 22.8235 50.2789 24.337 50.2789 24.337L50.8293 24.1994Z" fill="#75271A"/>
<path d="M53.0311 24.1997C53.0311 24.4749 53.0311 24.7501 52.8936 24.7501C53.0311 24.7501 53.0311 24.4749 53.0311 24.1997Z" fill="#75271A"/>
<path d="M52.7559 24.0618C52.3431 24.0618 52.4807 24.7497 52.7559 24.7497C53.1687 24.7497 53.0311 24.0618 52.7559 24.0618Z" fill="#75271A"/>
<path d="M54.2693 24.0618C54.2693 24.337 54.4069 24.6121 54.5445 24.6121C54.2693 24.6121 54.2693 24.337 54.2693 24.0618Z" fill="#75271A"/>
<path d="M54.4068 23.7867C54.8196 23.6491 54.9572 24.4747 54.5444 24.4747C54.2692 24.6123 54.1316 23.9243 54.4068 23.7867Z" fill="#75271A"/>
<path d="M52.343 23.7867C52.4806 23.7867 52.4806 23.6491 52.6182 23.6491C52.7558 23.6491 52.7558 23.5115 52.8934 23.5115V23.3739C52.7558 23.2363 52.6182 23.3739 52.4806 23.3739C52.343 23.3739 52.2054 23.5115 52.2054 23.6491C52.0678 23.6491 52.2054 23.7867 52.343 23.7867Z" fill="#75271A"/>
<path d="M54.682 23.5114C54.5444 23.5114 54.5444 23.5114 54.4068 23.5114C54.2692 23.5114 54.1316 23.5114 54.1316 23.3738V23.2362C54.2692 23.0986 54.4068 23.0986 54.5444 23.0986C54.682 23.0986 54.8196 23.0986 54.9572 23.2362C54.9572 23.2362 54.8196 23.5114 54.682 23.5114Z" fill="#75271A"/>
<path d="M52.7556 25.7134C52.8932 25.851 53.1684 25.9886 53.306 25.9886C53.4436 25.9886 53.4436 25.9886 53.5812 25.9886C53.5812 25.851 53.4436 25.5758 53.4436 25.5758C53.5812 25.5758 53.8564 25.7134 53.8564 25.5758C53.7188 24.8878 53.5812 24.0622 53.306 23.3743C53.4436 24.0622 53.7188 24.7502 53.7188 25.4382C53.5812 25.4382 53.4436 25.3006 53.306 25.4382L53.4436 25.9886C53.4436 25.851 53.1684 25.851 52.7556 25.7134C52.7556 25.5758 52.7556 25.7134 52.7556 25.7134Z" fill="#75271A"/>
<path d="M53.1682 26.8134C53.3058 26.8134 53.3058 26.8134 53.4434 26.8134C53.581 26.8134 53.581 26.6758 53.581 26.6758C53.581 26.8134 53.4434 26.8134 53.3058 26.951C53.3058 26.951 53.1682 26.951 53.1682 26.8134Z" fill="#75271A"/>
<path d="M53.8563 25.9883C53.8563 25.9883 53.8563 26.2635 53.5811 26.4011C53.5811 26.4011 53.4435 26.5387 53.306 26.5387C53.1684 26.5387 53.0308 26.4011 53.0308 26.2635C53.0308 26.1259 53.0308 25.9883 53.0308 25.9883C53.0308 25.9883 53.4435 26.1259 53.8563 25.9883Z" fill="#75271A"/>
<path d="M53.5812 26.401C53.5812 26.401 53.4436 26.5386 53.306 26.5386C53.1684 26.5386 53.0308 26.401 53.0308 26.2634C53.306 26.2634 53.5812 26.2634 53.5812 26.401Z" fill="#FF98B9"/>
<path d="M51.1045 24.8871C51.1045 24.8871 50.6917 23.6487 50.1413 23.7863C49.591 23.9239 49.7285 25.5751 50.1413 25.8502C50.6917 26.263 50.9669 25.8502 50.9669 25.8502L51.1045 24.8871Z" fill="#F8A492"/>
<path d="M50.1414 24.1995C50.4165 24.4747 50.5541 24.8874 50.5541 25.3002C50.4166 25.1626 50.279 25.025 50.1414 25.025C50.279 25.025 50.4166 25.1626 50.5541 25.3002C50.5541 25.4378 50.5541 25.5754 50.6917 25.713H50.8293C50.8293 25.1626 50.6917 24.3371 50.1414 24.1995Z" fill="#75271A"/>
<path d="M53.9933 24.337C54.1309 24.8874 54.6813 25.1626 55.2317 25.025C55.782 24.8874 56.0572 24.1994 55.782 23.6491C55.6444 23.0987 55.0941 22.8235 54.5437 22.9611C54.1309 23.2363 53.8557 23.7867 53.9933 24.337Z" stroke="#EF848E" stroke-width="0.1" stroke-miterlimit="10"/>
<path d="M51.5169 24.6124C51.6545 25.1628 52.2049 25.438 52.7553 25.3004C53.3056 25.1628 53.5808 24.4748 53.3056 23.9245C53.168 23.3741 52.6177 23.0989 52.0673 23.2365C51.5169 23.3741 51.2417 23.9245 51.5169 24.6124Z" stroke="#EF848E" stroke-width="0.1" stroke-miterlimit="10"/>
<path d="M53.9935 24.1995H53.4431" stroke="#EF848E" stroke-width="0.1" stroke-miterlimit="10"/>
<path d="M67.8907 51.9939L50.0034 61.3504L44.2244 52.2691C44.0868 51.9939 44.2244 51.7188 44.4996 51.7188H67.7531C67.8907 51.7188 68.0283 51.8563 67.8907 51.9939Z" fill="#FCBB03"/>
<path d="M40.6463 61.2126H37.7568V64.1022H40.6463V61.2126Z" fill="#5E7E8E"/>
<path d="M40.5092 68.2302C40.0964 68.2302 39.6836 67.955 39.2708 67.4046C38.8581 66.8543 38.7205 66.0287 38.7205 64.9279C38.7205 63.8272 38.9957 62.864 39.2708 62.4512L39.546 62.5888C38.8581 63.4144 38.8581 66.1663 39.546 67.1295C39.9588 67.6798 40.3716 67.955 40.7844 67.8174C42.1603 67.4046 43.1235 62.7264 43.2611 61.0753C43.2611 60.5249 43.3987 60.1121 43.5363 59.5617C43.6739 59.0113 43.8115 58.3234 43.8115 57.6354C43.8115 57.3602 43.8115 57.085 43.8115 56.9474C43.9491 55.5715 43.9491 54.1955 44.3618 52.9572C44.7746 51.4436 45.6002 50.4805 46.701 49.7925L46.8385 50.0677C44.4994 51.4436 44.2243 54.4707 44.0867 56.9474C44.0867 57.2226 44.0867 57.4978 44.0867 57.6354C44.0867 58.3234 43.9491 58.8737 43.8115 59.5617C43.6739 60.1121 43.6739 60.5249 43.5363 61.0753C43.5363 61.4881 43.2611 63.1392 42.8483 64.7903C42.2979 66.7167 41.61 67.8174 40.922 68.0926C40.7844 68.0926 40.6468 68.2302 40.5092 68.2302Z" fill="#3D576B"/>
<path d="M55.0942 45.8019L55.9198 46.3523L56.195 45.9395C56.195 45.8019 56.195 45.6644 56.0574 45.6644L55.6446 45.3892C55.507 45.3892 55.3694 45.3892 55.3694 45.5268L55.0942 45.8019Z" fill="#6CC8C1"/>
<path d="M48.4897 51.7185H62.2492C62.2492 51.3057 61.974 51.0305 61.6989 51.0305H49.0401C48.7649 51.0305 48.4897 51.4433 48.4897 51.7185Z" fill="#4A6372"/>
<path d="M60.4603 49.517C60.3227 49.3794 60.3227 49.3794 60.1851 49.2418C59.9099 48.9666 59.6347 48.5539 59.2219 48.2787C58.9468 48.0035 58.6716 47.8659 58.534 47.7283C58.2588 47.5907 57.9836 47.3155 57.7084 47.1779L55.2317 45.8019C54.8189 45.5268 54.4061 45.3892 53.8557 45.3892H49.3151C48.6271 45.3892 48.0768 45.9395 47.9392 46.6275L47.8016 47.7283L47.664 48.2787L47.5264 49.1042C47.5264 49.1042 47.5264 49.517 47.664 49.7922C47.664 49.9298 47.8016 50.0674 47.9392 50.205L48.9023 50.893L49.1775 51.1682H61.8363L60.4603 49.517ZM49.4527 48.2787H49.3151C49.1775 48.1411 49.1775 48.0035 49.1775 47.7283L49.3151 46.9027C49.3151 46.6275 49.4527 46.4899 49.5903 46.4899H53.7181H53.8557C53.8557 46.4899 53.9933 46.4899 53.9933 46.6275L54.5437 47.4531C54.8189 47.7283 54.5437 48.2787 54.2685 48.2787H49.4527Z" fill="#E8F4FC"/>
<path d="M50.8286 48.2788H53.1677C53.1677 48.1412 53.0301 47.866 52.8925 47.866H51.2414C50.9662 48.0036 50.8286 48.1412 50.8286 48.2788Z" fill="#6CC8C1"/>
<path d="M61.6983 51.031H49.0396L47.8012 50.2054C47.6636 50.0678 47.6636 49.9302 47.526 49.7926C47.526 49.5174 47.3884 49.2422 47.3884 49.1046L47.526 48.2791L49.1772 49.655C49.3148 49.7926 49.59 49.9302 49.7275 49.9302H59.084C59.3592 49.9302 59.4968 49.655 59.4968 49.3798L59.2216 48.4166C59.6344 48.8294 60.0472 49.2422 60.4599 49.655L61.6983 51.031Z" fill="#6CC8C1"/>
<path d="M48.7649 50.2052C48.9169 50.2052 49.0401 50.082 49.0401 49.93C49.0401 49.778 48.9169 49.6548 48.7649 49.6548C48.6129 49.6548 48.4897 49.778 48.4897 49.93C48.4897 50.082 48.6129 50.2052 48.7649 50.2052Z" fill="#FFDD00"/>
<path opacity="0.2" d="M61.6991 51.0308H49.0403L48.7651 50.7556C60.1855 51.0308 60.1855 49.1045 60.1855 49.1045C60.3231 49.2421 60.3231 49.2421 60.4607 49.3797L61.6991 51.0308Z" fill="#29235C"/>
<path opacity="0.5" d="M53.8559 51.581H51.104H53.8559C53.8559 51.4434 53.8559 51.4434 53.8559 51.581Z" fill="white"/>
<path d="M55.3697 48.4163C54.6817 48.9667 50.9666 48.4163 49.7283 48.2787H54.2689C54.5441 48.2787 54.6817 47.7283 54.5441 47.4531L53.9937 46.6276L53.8561 46.49C53.9937 46.6276 56.1952 47.8659 55.3697 48.4163Z" fill="#6CC8C1"/>
<path opacity="0.5" d="M58.259 47.866C58.259 47.866 59.7726 49.5171 58.259 49.5171C58.259 49.5171 58.8094 49.2419 58.259 47.866Z" fill="white"/>
<path d="M47.5264 49.2415L46.7008 49.6542L46.5632 49.7918V50.067C46.5632 50.2046 46.7008 50.2046 46.7008 50.2046L47.5264 49.9294V49.2415Z" fill="#6CC8C1"/>
<path d="M39.2706 63.5515C39.7266 63.5515 40.0962 63.1819 40.0962 62.726C40.0962 62.27 39.7266 61.9004 39.2706 61.9004C38.8147 61.9004 38.4451 62.27 38.4451 62.726C38.4451 63.1819 38.8147 63.5515 39.2706 63.5515Z" fill="#4A6372"/>
<path d="M37.0365 52.7572L36.55 53.2437L67.8785 84.5721L68.365 84.0856L37.0365 52.7572Z" fill="#3D576B"/>
<path d="M36.6217 84.0209L37.1082 84.5073L68.4366 53.1789L67.9502 52.6924L36.6217 84.0209Z" fill="#3D576B"/>
<path d="M81.7877 52.1316H75.1831V52.682H81.7877V52.1316Z" fill="#3D576B"/>
<path d="M82.3382 50.6179H81.7878V52.6818H82.3382V50.6179Z" fill="#3D576B"/>
<path d="M74.7706 53.7826H26.3371C25.9244 53.7826 25.6492 53.5075 25.6492 53.0947V52.6819C25.6492 52.2691 25.9244 51.9939 26.3371 51.9939H74.7706C75.1834 51.9939 75.4585 52.2691 75.4585 52.6819V53.0947C75.4585 53.3699 75.1834 53.7826 74.7706 53.7826Z" fill="#6CC8C1"/>
<path d="M36.9316 84.8794C37.3116 84.8794 37.6196 84.5714 37.6196 84.1914C37.6196 83.8114 37.3116 83.5034 36.9316 83.5034C36.5517 83.5034 36.2437 83.8114 36.2437 84.1914C36.2437 84.5714 36.5517 84.8794 36.9316 84.8794Z" fill="#6CC8C1"/>
<path d="M68.0283 84.8794C68.4083 84.8794 68.7163 84.5714 68.7163 84.1914C68.7163 83.8114 68.4083 83.5034 68.0283 83.5034C67.6483 83.5034 67.3403 83.8114 67.3403 84.1914C67.3403 84.5714 67.6483 84.8794 68.0283 84.8794Z" fill="#6CC8C1"/>
<path d="M42.298 51.9936L62.2492 65.3403L69.5418 51.9936C69.6794 51.856 69.5418 51.5808 69.2666 51.5808H42.4356C42.298 51.5808 42.1604 51.856 42.298 51.9936Z" fill="#FFDD00"/>
<path d="M22.7596 79.2372C22.7596 79.2372 28.6762 72.6326 26.1995 72.0822C23.7228 71.5318 22.2092 73.0454 22.2092 73.0454C22.2092 73.0454 20.4205 68.9176 18.3565 70.2935C16.4302 71.6694 13.4031 78.274 13.9535 79.3748C14.3663 80.7507 22.7596 79.2372 22.7596 79.2372Z" fill="#3D576B"/>
<path d="M11.7519 78.6869L21.2459 76.8982C21.2459 76.8982 21.2459 73.5959 20.2827 73.3207C19.3196 73.0455 12.1646 70.844 11.0639 72.3576C10.1007 74.0087 11.7519 78.6869 11.7519 78.6869Z" fill="#FFDD00"/>
<path d="M18.081 76.3472C18.081 76.3472 24.8232 76.76 24.9608 78.6863C25.236 80.6126 24.548 82.8141 24.548 82.8141L17.3931 81.5758L18.081 76.3472Z" fill="#3D576B"/>
<path d="M25.0983 79.7872C25.0983 79.7872 21.9336 77.7232 18.769 81.0255C15.6043 84.3278 14.6411 84.7406 14.6411 84.7406H23.9976L25.0983 79.7872Z" fill="#FFEC00"/>
<path d="M14.9164 73.8708C14.9164 73.8708 9.55015 81.0258 11.4765 84.1905C11.4765 84.1905 15.7419 86.2544 18.3562 84.6033C20.9705 82.9521 19.0442 74.5588 19.0442 74.5588L14.9164 73.8708Z" fill="white"/>
<path d="M15.6045 77.7229H14.9165V78.6861H15.6045V77.7229Z" fill="#6CC8C1"/>
<path d="M15.6045 79.6494H14.9165V80.6126H15.6045V79.6494Z" fill="#6CC8C1"/>
<path d="M15.6045 83.2266H14.9165V84.1897H15.6045V83.2266Z" fill="#6CC8C1"/>
<path d="M15.6045 81.438H14.9165V82.4011H15.6045V81.438Z" fill="#6CC8C1"/>
<path d="M15.6045 75.9341H14.9165V76.8972H15.6045V75.9341Z" fill="#6CC8C1"/>
<path d="M16.9804 79.6494H16.2925V80.6126H16.9804V79.6494Z" fill="#6CC8C1"/>
<path d="M16.9804 81.438H16.2925V82.4011H16.9804V81.438Z" fill="#6CC8C1"/>
<path d="M16.9804 83.2266H16.2925V84.1897H16.9804V83.2266Z" fill="#6CC8C1"/>
<path d="M16.9804 75.9341H16.2925V76.8972H16.9804V75.9341Z" fill="#6CC8C1"/>
<path d="M16.9804 77.7229H16.2925V78.6861H16.9804V77.7229Z" fill="#6CC8C1"/>
<path d="M18.3559 83.2266H17.668V84.1897H18.3559V83.2266Z" fill="#6CC8C1"/>
<path d="M18.3559 77.7229H17.668V78.6861H18.3559V77.7229Z" fill="#6CC8C1"/>
<path d="M18.3559 79.6494H17.668V80.6126H18.3559V79.6494Z" fill="#6CC8C1"/>
<path d="M18.3559 81.438H17.668V82.4011H18.3559V81.438Z" fill="#6CC8C1"/>
<path d="M18.3559 75.9341H17.668V76.8972H18.3559V75.9341Z" fill="#6CC8C1"/>
<path d="M19.7324 75.9341H19.0444V76.8972H19.7324V75.9341Z" fill="#6CC8C1"/>
<path d="M19.7324 83.2266H19.0444V84.1897H19.7324V83.2266Z" fill="#6CC8C1"/>
<path d="M19.7324 77.7229H19.0444V78.6861H19.7324V77.7229Z" fill="#6CC8C1"/>
<path d="M19.7324 81.438H19.0444V82.4011H19.7324V81.438Z" fill="#6CC8C1"/>
<path d="M19.7324 79.6494H19.0444V80.6126H19.7324V79.6494Z" fill="#6CC8C1"/>
<path d="M21.2461 75.9341H20.5581V76.8972H21.2461V75.9341Z" fill="#6CC8C1"/>
<path d="M21.2461 79.6494H20.5581V80.6126H21.2461V79.6494Z" fill="#6CC8C1"/>
<path d="M21.2461 83.2266H20.5581V84.1897H21.2461V83.2266Z" fill="#6CC8C1"/>
<path d="M21.2461 77.7229H20.5581V78.6861H21.2461V77.7229Z" fill="#6CC8C1"/>
<path d="M21.2461 81.438H20.5581V82.4011H21.2461V81.438Z" fill="#6CC8C1"/>
<path d="M22.6221 83.2266H21.9341V84.1897H22.6221V83.2266Z" fill="#6CC8C1"/>
<path d="M22.6221 75.9341H21.9341V76.8972H22.6221V75.9341Z" fill="#6CC8C1"/>
<path d="M22.6221 77.7229H21.9341V78.6861H22.6221V77.7229Z" fill="#6CC8C1"/>
<path d="M22.6221 81.438H21.9341V82.4011H22.6221V81.438Z" fill="#6CC8C1"/>
<path d="M22.6221 79.6494H21.9341V80.6126H22.6221V79.6494Z" fill="#6CC8C1"/>
<path d="M23.998 83.2266H23.3101V84.1897H23.998V83.2266Z" fill="#6CC8C1"/>
<path d="M23.998 77.7229H23.3101V78.6861H23.998V77.7229Z" fill="#6CC8C1"/>
<path d="M23.998 81.438H23.3101V82.4011H23.998V81.438Z" fill="#6CC8C1"/>
<path d="M23.998 79.6494H23.3101V80.6126H23.998V79.6494Z" fill="#6CC8C1"/>
<path d="M23.998 75.9341H23.3101V76.8972H23.998V75.9341Z" fill="#6CC8C1"/>
<path d="M24.6855 80.6126H25.0983V79.6494H24.6855V80.6126Z" fill="#6CC8C1"/>
<path d="M24.6855 77.7229V78.6861H25.2359V78.4109V77.7229H24.6855Z" fill="#6CC8C1"/>
<path d="M24.6855 82.4011H24.8231L24.9607 81.438H24.6855V82.4011Z" fill="#6CC8C1"/>
<path d="M25.3735 75.9341H24.6855V76.8972H25.3735V75.9341Z" fill="#6CC8C1"/>
<path d="M14.2285 77.7229H13.5405V78.6861H14.2285V77.7229Z" fill="#6CC8C1"/>
<path d="M14.2285 79.6494H13.5405V80.6126H14.2285V79.6494Z" fill="#6CC8C1"/>
<path d="M14.2285 75.9341H13.5405V76.8972H14.2285V75.9341Z" fill="#6CC8C1"/>
<path d="M14.2285 83.2266H13.5405V84.1897H14.2285V83.2266Z" fill="#6CC8C1"/>
<path d="M14.2285 81.438H13.5405V82.4011H14.2285V81.438Z" fill="#6CC8C1"/>
<path d="M12.8523 79.6494H12.1643V80.6126H12.8523V79.6494Z" fill="#6CC8C1"/>
<path d="M12.8523 81.438H12.1643V82.4011H12.8523V81.438Z" fill="#6CC8C1"/>
<path d="M12.8523 77.7229H12.1643V78.6861H12.8523V77.7229Z" fill="#6CC8C1"/>
<path d="M12.8523 83.2266H12.1643V84.1897H12.8523V83.2266Z" fill="#6CC8C1"/>
<path d="M12.8523 75.9341H12.1643V76.8972H12.8523V75.9341Z" fill="#6CC8C1"/>
<path d="M11.4764 81.438H11.2012V82.4011H11.4764V81.438Z" fill="#6CC8C1"/>
<path d="M11.3389 83.2266L11.4765 83.6394V83.2266H11.3389Z" fill="#6CC8C1"/>
<path d="M11.4768 77.7229H10.7888V78.4109V78.6861H11.4768V77.7229Z" fill="#6CC8C1"/>
<path d="M11.4768 75.9341H10.7888V76.8972H11.4768V75.9341Z" fill="#6CC8C1"/>
<path d="M11.4769 79.6494H10.9265L11.0641 80.6126H11.4769V79.6494Z" fill="#6CC8C1"/>
<path d="M23.3097 84.3276H22.4842H21.7962H21.1082H20.4202H19.7323H19.0443H18.3563H17.6683H16.9804H16.2924H15.6044H14.9164H14.2285H13.5405H12.8525H12.1645H11.4766C11.6142 84.6028 11.7518 84.878 12.0269 84.878H23.8601C24.1353 84.878 24.4105 84.6028 24.4105 84.3276H23.8601H23.3097Z" fill="#6CC8C1"/>
<path d="M23.8599 82.4016H23.3095H22.484H21.9336H21.108H20.5576H19.7321H19.0441H18.3561H17.6681H16.9802H16.2922H15.6042H14.9162H14.2283H13.5403H12.8523H12.1643H11.4764H11.2012L11.3388 83.2272H11.4764H12.1643H12.8523H13.5403H14.2283H14.9162H15.6042H16.2922H16.9802H17.6681H18.3561H19.0441H19.7321H20.5576H21.108H21.9336H22.484H23.3095H23.8599H24.6855L24.8231 82.4016H24.6855H23.8599Z" fill="#6CC8C1"/>
<path d="M23.8601 80.6123H23.3097H22.4841H21.9337H21.1082H20.5578H19.7322H19.0442H18.3563H17.6683H16.9803H16.2923H15.6044H14.9164H14.2284H13.5404H12.8525H12.1645H11.4765H11.0637L11.2013 81.4379H11.4765H12.1645H12.8525H13.5404H14.2284H14.9164H15.6044H16.2923H16.9803H17.6683H18.3563H19.0442H19.7322H20.5578H21.1082H21.9337H22.4841H23.3097H23.8601H24.6856H24.9608L25.0984 80.6123H24.6856H23.8601Z" fill="#6CC8C1"/>
<path d="M23.8603 78.6863H23.3099H22.4844H21.934H21.1084H20.5581H19.7325H19.0445H18.3565H17.6686H16.9806H16.2926H15.6046H14.9167H14.2287H13.5407H12.8527H12.1648H11.4768H10.7888L10.9264 79.6494H11.4768H12.1648H12.8527H13.5407H14.2287H14.9167H15.6046H16.2926H16.9806H17.6686H18.3565H19.0445H19.7325H20.5581H21.1084H21.934H22.4844H23.3099H23.8603H24.6859H25.0987L25.2363 78.6863H24.6859H23.8603Z" fill="#6CC8C1"/>
<path d="M24.6856 76.8975H23.86H23.3096H22.484H21.9337H21.1081H20.5577H19.7321H19.0442H18.3562H17.6682H16.9802H16.2923H15.6043H14.9163H14.2283H13.5404H12.8524H12.1644H11.4764H10.7885H10.6509V77.723H10.7885H11.4764H12.1644H12.8524H13.5404H14.2283H14.9163H15.6043H16.2923H16.9802H17.6682H18.3562H19.0442H19.7321H20.5577H21.1081H21.9337H22.484H23.3096H23.86H24.6856H25.2359H25.3735L25.5111 76.8975H25.2359H24.6856Z" fill="#6CC8C1"/>
<path d="M10.376 75.2463L10.5136 75.9343H10.7888H11.4767H12.1647H12.8527H13.5407H14.2286H14.9166H15.6046H16.2926H16.9805H17.6685H18.3565H19.0445H19.7324H20.558H21.1084H21.9339H22.4843H23.3099H23.8603H24.6858H25.2362H25.649V75.2463H10.376Z" fill="#6CC8C1"/>
<path d="M26.0614 74.8335C25.9238 74.6959 25.7862 74.5583 25.6486 74.5583H10.3756C10.238 74.5583 10.1004 74.6959 9.96279 74.8335C9.8252 74.9711 9.8252 75.1087 9.8252 75.2463V75.3839L9.96279 75.9343L10.926 84.19C10.926 84.3276 10.926 84.4652 10.926 84.4652C11.0635 85.0156 11.4763 85.4284 12.0267 85.4284H23.8599C24.4103 85.4284 24.8231 85.0156 24.9606 84.4652C24.9606 84.3276 24.9607 84.19 25.0982 84.0524L26.0614 75.7967L26.199 75.2463V75.1087C26.199 75.1087 26.199 74.9711 26.0614 74.8335ZM25.0982 75.9343L24.1351 83.9148C24.1351 84.0524 24.1351 84.0524 23.9975 84.0524H12.1643C12.1643 84.0524 12.0267 84.0524 12.0267 83.9148L11.0636 75.9343H25.0982Z" fill="#6CC8C1"/>
<path d="M27.0249 74.4209C27.0249 74.9713 26.7498 75.2465 26.337 75.2465H9.68797C9.27519 75.2465 9 74.9713 9 74.5585V74.4209V74.2833C9.13759 74.0081 9.27519 73.7329 9.68797 73.7329H26.4746C26.7498 73.7329 27.0249 73.8705 27.1625 74.2833C27.0249 74.4209 27.0249 74.4209 27.0249 74.4209Z" fill="#6CC8C1"/>
<path opacity="0.2" d="M26.199 75.2463C26.199 75.2463 26.199 75.3839 26.199 75.2463L26.0614 75.9343H9.96279L9.8252 75.3839V75.2463H26.199Z" fill="#29235C"/>
<path opacity="0.2" d="M25.0984 84.4653C24.9608 85.0157 24.548 85.4285 23.9976 85.4285H12.1645C11.6141 85.4285 11.2013 85.0157 11.0637 84.4653H25.0984Z" fill="#29235C"/>
<path d="M14.2288 73.8707C14.2288 73.8707 19.4574 71.5316 20.4205 73.8707C20.6957 74.6962 20.9709 75.2466 20.9709 75.6594C21.1085 78.5489 14.3664 73.8707 14.2288 73.8707Z" fill="white"/>
<path opacity="0.2" d="M14.2288 73.8708C14.2288 73.8708 19.8702 77.4483 20.9709 75.6596C21.1085 78.5491 14.3664 73.8708 14.2288 73.8708Z" fill="#29235C"/>
<path d="M114.673 52.8188V84.6033V86.2544H87.9797V52.8188H114.673Z" fill="#F3FBFF"/>
<path d="M114.811 53.6443H89.906V84.4655H114.811V53.6443Z" fill="#359591"/>
<path d="M114.81 69.468H88.9426V71.2568H114.81V69.468Z" fill="#F3FBFF"/>
<path d="M114.811 52.8188H113.022V84.7409H114.811V52.8188Z" fill="#F3FBFF"/>
<path d="M109.032 68.2295H102.014H101.602H94.034L90.0437 69.4678H101.602H102.014H113.022L109.032 68.2295Z" fill="#D1D3D4"/>
<path d="M109.032 54.6074H94.0342V68.2293H109.032V54.6074Z" fill="#69CCC5"/>
<path d="M112.884 71.1189H89.7683V84.4656H112.884V71.1189Z" fill="#359591"/>
<path d="M111.233 72.9077H91.6946V82.677H111.233V72.9077Z" fill="#69CCC5"/>
<path d="M111.233 72.9077H109.032C109.032 75.2468 107.793 81.5762 91.6946 82.2642V82.677H111.233V72.9077Z" fill="#F1F2F2"/>
<path d="M102.84 73.5955H99.8126C99.5374 73.5955 99.2622 73.8707 99.2622 74.1458C99.2622 74.421 99.5374 74.6962 99.8126 74.6962H102.84C103.115 74.6962 103.39 74.421 103.39 74.1458C103.39 73.8707 103.252 73.5955 102.84 73.5955Z" fill="white"/>
<path d="M107.38 66.717H95.6849C94.9969 66.717 94.4465 67.2674 94.4465 67.9554C94.4465 68.6434 94.9969 69.1937 95.6849 69.1937H107.38C108.068 69.1937 108.619 68.6434 108.619 67.9554C108.481 67.2674 107.931 66.717 107.38 66.717Z" fill="#FFF200"/>
<path d="M108.069 66.9924C108.206 67.13 108.206 67.4052 108.206 67.5428C108.206 68.2308 107.656 68.7812 106.968 68.7812H95.2722C94.997 68.7812 94.7218 68.6436 94.5842 68.506C94.7218 68.9187 95.1346 69.1939 95.5474 69.1939H107.243C107.931 69.1939 108.481 68.6436 108.481 67.9556C108.481 67.5428 108.344 67.2676 108.069 66.9924Z" fill="#D1D3D4"/>
<path d="M107.38 64.3779H95.6849C94.9969 64.3779 94.4465 64.9283 94.4465 65.6163C94.4465 66.3043 94.9969 66.8546 95.6849 66.8546H107.38C108.068 66.8546 108.619 66.3043 108.619 65.6163C108.619 64.9283 107.931 64.3779 107.38 64.3779Z" fill="#F26899"/>
<path d="M108.069 64.6533C108.206 64.7909 108.206 65.0661 108.206 65.2037C108.206 65.8917 107.656 66.4421 106.968 66.4421H95.2722C94.997 66.4421 94.7218 66.3045 94.5842 66.1669C94.7218 66.5797 95.1346 66.8549 95.5474 66.8549H107.243C107.931 66.8549 108.481 66.3045 108.481 65.6165C108.481 65.2037 108.344 64.9285 108.069 64.6533Z" fill="#D1D3D4"/>
<path d="M107.38 62.0386H95.6849C94.9969 62.0386 94.4465 62.5889 94.4465 63.2769C94.4465 63.9649 94.9969 64.5153 95.6849 64.5153H107.38C108.068 64.5153 108.619 63.9649 108.619 63.2769C108.619 62.5889 107.931 62.0386 107.38 62.0386Z" fill="#0FD6F5"/>
<path d="M108.069 62.314C108.206 62.4516 108.206 62.7267 108.206 62.8643C108.206 63.5523 107.656 64.1027 106.968 64.1027H95.2722C94.997 64.1027 94.7218 63.9651 94.5842 63.8275C94.7218 64.2403 95.1346 64.5155 95.5474 64.5155H107.243C107.931 64.5155 108.481 63.9651 108.481 63.2771C108.481 62.8643 108.344 62.4516 108.069 62.314Z" fill="#D1D3D4"/>
<path d="M107.38 59.6997H95.6849C94.9969 59.6997 94.4465 60.2501 94.4465 60.9381C94.4465 61.626 94.9969 62.1764 95.6849 62.1764H107.38C108.068 62.1764 108.619 61.626 108.619 60.9381C108.619 60.2501 107.931 59.6997 107.38 59.6997Z" fill="#F26899"/>
<path d="M108.069 59.9749C108.206 60.1124 108.206 60.3876 108.206 60.5252C108.206 61.2132 107.656 61.7636 106.968 61.7636H95.2722C94.997 61.7636 94.7218 61.626 94.5842 61.4884C94.7218 61.9012 95.1346 62.1764 95.5474 62.1764H107.243C107.931 62.1764 108.481 61.626 108.481 60.938C108.481 60.5252 108.344 60.1124 108.069 59.9749Z" fill="#D1D3D4"/>
<path d="M107.38 57.3604H95.6849C94.9969 57.3604 94.4465 57.9107 94.4465 58.5987C94.4465 59.2867 94.9969 59.8371 95.6849 59.8371H107.38C108.068 59.8371 108.619 59.2867 108.619 58.5987C108.481 57.9107 107.931 57.3604 107.38 57.3604Z" fill="#0FD6F5"/>
<path d="M108.069 57.6357C108.206 57.7733 108.206 58.0485 108.206 58.1861C108.206 58.8741 107.656 59.4245 106.968 59.4245H95.2722C94.997 59.4245 94.7218 59.2869 94.5842 59.1493C94.7218 59.5621 95.1346 59.8373 95.5474 59.8373H107.243C107.931 59.8373 108.481 59.2869 108.481 58.5989C108.481 58.1861 108.344 57.7733 108.069 57.6357Z" fill="#D1D3D4"/>
<path d="M107.105 51.3059H95.4095C94.7215 51.3059 94.1711 51.8563 94.1711 52.5443C94.1711 53.2322 94.7215 53.7826 95.4095 53.7826H107.105C107.793 53.7826 108.343 53.2322 108.343 52.5443C108.206 51.8563 107.793 51.3059 107.105 51.3059Z" fill="#FFF200"/>
<path d="M107.793 51.5813C107.931 51.7189 107.931 51.9941 107.931 52.1317C107.931 52.8196 107.38 53.37 106.692 53.37H94.9966C94.7214 53.37 94.4462 53.2324 94.3086 53.0948C94.4462 53.5076 94.859 53.7828 95.2718 53.7828H106.967C107.655 53.7828 108.206 53.2324 108.206 52.5445C108.206 52.1317 108.068 51.8565 107.793 51.5813Z" fill="#D1D3D4"/>
<path d="M107.105 48.9668H95.4095C94.7215 48.9668 94.1711 49.5172 94.1711 50.2051C94.1711 50.8931 94.7215 51.4435 95.4095 51.4435H107.105C107.793 51.4435 108.343 50.8931 108.343 50.2051C108.206 49.5172 107.793 48.9668 107.105 48.9668Z" fill="#F26899"/>
<path d="M107.793 49.2422C107.931 49.3798 107.931 49.655 107.931 49.7926C107.931 50.4805 107.38 51.0309 106.692 51.0309H94.9966C94.7214 51.0309 94.4462 50.8933 94.3086 50.7557C94.4462 51.1685 94.859 51.4437 95.2718 51.4437H106.967C107.655 51.4437 108.206 50.8933 108.206 50.2053C108.206 49.7926 108.068 49.5174 107.793 49.2422Z" fill="#D1D3D4"/>
<path d="M107.105 46.6272H95.4095C94.7215 46.6272 94.1711 47.1776 94.1711 47.8656C94.1711 48.5535 94.7215 49.1039 95.4095 49.1039H107.105C107.793 49.1039 108.343 48.5535 108.343 47.8656C108.343 47.1776 107.793 46.6272 107.105 46.6272Z" fill="#0FD6F5"/>
<path d="M107.793 46.9028C107.931 47.0404 107.931 47.3156 107.931 47.4532C107.931 48.1412 107.38 48.6916 106.692 48.6916H94.9966C94.7214 48.6916 94.4462 48.554 94.3086 48.4164C94.4462 48.8292 94.859 49.1044 95.2718 49.1044H106.967C107.655 49.1044 108.206 48.554 108.206 47.866C108.206 47.4532 108.068 47.178 107.793 46.9028Z" fill="#D1D3D4"/>
<path d="M107.105 44.2883H95.4095C94.7215 44.2883 94.1711 44.8387 94.1711 45.5267C94.1711 46.2147 94.7215 46.765 95.4095 46.765H107.105C107.793 46.765 108.343 46.2147 108.343 45.5267C108.343 44.8387 107.793 44.2883 107.105 44.2883Z" fill="#F26899"/>
<path d="M107.793 44.564C107.931 44.7016 107.931 44.9767 107.931 45.1143C107.931 45.8023 107.38 46.3527 106.692 46.3527H94.9966C94.7214 46.3527 94.4462 46.2151 94.3086 46.0775C94.4462 46.4903 94.859 46.7655 95.2718 46.7655H106.967C107.655 46.7655 108.206 46.2151 108.206 45.5271C108.206 45.1143 108.068 44.8392 107.793 44.564Z" fill="#D1D3D4"/>
<path d="M107.105 41.9492H95.4097C94.7218 41.9492 94.1714 42.4996 94.1714 43.1876C94.1714 43.8755 94.7218 44.4259 95.4097 44.4259H107.105C107.793 44.4259 108.344 43.8755 108.344 43.1876C108.206 42.4996 107.793 41.9492 107.105 41.9492Z" fill="#0FD6F5"/>
<path d="M107.793 42.2246C107.931 42.3622 107.931 42.6374 107.931 42.775C107.931 43.463 107.38 44.0133 106.692 44.0133H94.9966C94.7214 44.0133 94.4462 43.8757 94.3086 43.7382C94.4462 44.1509 94.859 44.4261 95.2718 44.4261H106.967C107.655 44.4261 108.206 43.8757 108.206 43.1878C108.206 42.775 108.068 42.3622 107.793 42.2246Z" fill="#D1D3D4"/>
<path d="M42.0228 49.7917H30.3272C29.6392 49.7917 29.0889 50.3421 29.0889 51.0301C29.0889 51.7181 29.6392 52.2685 30.3272 52.2685H42.0228C42.7108 52.2685 43.2611 51.7181 43.2611 51.0301C43.1235 50.3421 42.5732 49.7917 42.0228 49.7917Z" fill="#FFF200"/>
<path d="M42.7104 50.0674C42.848 50.205 42.848 50.4802 42.848 50.6178C42.848 51.3057 42.2976 51.8561 41.6096 51.8561H29.914C29.6389 51.8561 29.3637 51.7185 29.2261 51.5809C29.3637 51.9937 29.7764 52.2689 30.1892 52.2689H41.8848C42.5728 52.2689 43.1232 51.7185 43.1232 51.0305C43.1232 50.6178 42.9856 50.3426 42.7104 50.0674Z" fill="#D1D3D4"/>
<path d="M42.0228 47.4526H30.3272C29.6392 47.4526 29.0889 48.003 29.0889 48.691C29.0889 49.379 29.6392 49.9294 30.3272 49.9294H42.0228C42.7108 49.9294 43.2611 49.379 43.2611 48.691C43.1235 48.003 42.5732 47.4526 42.0228 47.4526Z" fill="#F26899"/>
<path d="M42.7104 47.7283C42.848 47.8659 42.848 48.1411 42.848 48.2787C42.848 48.9666 42.2976 49.517 41.6096 49.517H29.914C29.6389 49.517 29.3637 49.3794 29.2261 49.2418C29.3637 49.6546 29.7764 49.9298 30.1892 49.9298H41.8848C42.5728 49.9298 43.1232 49.3794 43.1232 48.6914C43.1232 48.2786 42.9856 47.8659 42.7104 47.7283Z" fill="#D1D3D4"/>
<path d="M42.0228 45.1135H30.3272C29.6392 45.1135 29.0889 45.6639 29.0889 46.3519C29.0889 47.0398 29.6392 47.5902 30.3272 47.5902H42.0228C42.7108 47.5902 43.2611 47.0398 43.2611 46.3519C43.1235 45.6639 42.5732 45.1135 42.0228 45.1135Z" fill="#0FD6F5"/>
<path d="M42.7104 45.3892C42.848 45.5268 42.848 45.8019 42.848 45.9395C42.848 46.6275 42.2976 47.1779 41.6096 47.1779H29.914C29.6389 47.1779 29.3637 47.0403 29.2261 46.9027C29.3637 47.3155 29.7764 47.5907 30.1892 47.5907H41.8848C42.5728 47.5907 43.1232 47.0403 43.1232 46.3523C43.1232 45.9395 42.9856 45.5268 42.7104 45.3892Z" fill="#D1D3D4"/>
<path d="M3.25829 88H136.742C137.476 88 138 87.5 138 87C138 86.5 137.371 86 136.742 86H3.25829C2.52429 86 2 86.5 2 87C2 87.625 2.52429 88 3.25829 88Z" fill="#5C8097"/>
<path d="M134.762 12.6413C135.446 12.6413 136 12.0868 136 11.4029C136 10.719 135.446 10.1646 134.762 10.1646C134.078 10.1646 133.523 10.719 133.523 11.4029C133.523 12.0868 134.078 12.6413 134.762 12.6413Z" fill="#59ADA5"/>
<path d="M134.349 11.9535H68.5786V10.8528H134.349C135.037 10.8528 135.037 11.9535 134.349 11.9535Z" fill="#6CC8C1"/>
<path d="M134.762 11.403C134.762 11.1278 134.624 10.9902 134.487 10.9902H68.5786V11.403H134.762Z" fill="url(#paint0_linear)"/>
<path d="M84.8143 15.5309C84.8143 15.5309 86.603 18.4204 87.1534 24.8874C87.291 26.8137 86.8782 30.9415 86.8782 31.3543L84.9519 31.7671C84.9519 31.7671 84.9519 26.1257 83.9887 23.7866C83.3007 21.3099 83.4383 14.4301 84.8143 15.5309Z" fill="#F5FCFB"/>
<path d="M84.8143 15.5309C84.8143 15.5309 86.603 18.4204 87.1534 24.8874C87.291 26.8137 86.8782 30.9415 86.8782 31.3543L84.9519 31.7671C84.9519 31.7671 84.9519 26.1257 83.9887 23.7866C83.3007 21.3099 83.4383 14.4301 84.8143 15.5309Z" fill="#F5FCFB"/>
<path opacity="0.32" d="M86.1907 23.0986C86.1907 21.5851 85.7779 20.2091 85.2275 18.6956C85.2275 19.2459 85.6403 23.649 85.5027 25.0249C85.2275 27.2264 85.7779 29.2904 85.6403 31.4919H85.9155C85.9155 30.3911 86.0531 29.2904 86.1907 28.052C86.4659 26.5385 86.3283 24.7497 86.1907 23.0986Z" fill="#F5FCFB"/>
<g opacity="0.32">
<path opacity="0.32" d="M86.4656 30.8041C86.4656 30.6665 86.6032 30.5289 86.6032 30.3913C86.6032 30.3913 86.6032 30.2537 86.7408 30.2537C87.016 29.9785 86.8784 30.3913 86.8784 30.5289C86.8784 30.8041 86.7408 31.2169 86.7408 31.492H86.4656C86.4656 31.3545 86.4656 31.2169 86.4656 31.0793C86.4656 31.0793 86.4656 30.9417 86.4656 30.8041Z" fill="#CFD5DB"/>
<path opacity="0.32" d="M85.915 30.3912V30.116H86.0526C86.0526 30.116 86.1902 31.0791 86.1902 31.3543C86.1902 31.4919 86.1902 31.4919 86.0526 31.6295H85.915C85.915 31.3543 85.915 31.2167 85.915 30.9415C85.915 30.8039 85.915 30.5288 85.915 30.3912Z" fill="#CFD5DB"/>
<path opacity="0.32" d="M85.6398 30.5286C85.7774 30.9413 85.6398 31.3541 85.6398 31.7669C85.5022 31.4917 85.5022 31.0789 85.5022 30.8037C85.5022 30.6662 85.5022 30.5286 85.6398 30.5286Z" fill="#CFD5DB"/>
</g>
<path d="M87.0163 32.0427V31.3547L85.2275 31.6299L85.3651 32.3179L87.0163 32.0427Z" fill="#F5FCFB"/>
<path d="M81.6496 32.1801C82.0623 32.1801 83.1631 32.1801 83.7135 32.0425C83.9887 28.465 83.4383 21.1725 83.8511 15.1183L82.7503 14.5679C81.7872 14.2927 80.136 14.2927 78.6225 14.2927C78.6225 14.2927 77.6593 14.8431 76.8337 15.1183C76.8337 15.1183 77.3841 27.777 78.7601 32.3177C79.8608 32.3177 80.6864 32.3177 81.6496 32.1801Z" fill="#F0F2F2"/>
<path d="M80.5487 12.0913C80.5487 12.0913 80.5487 12.2288 80.5487 12.0913C80.6863 12.6416 80.5487 13.0544 80.5487 13.4672H81.0991V13.192C81.0991 13.0544 81.0991 12.3664 80.9615 12.0913C80.8239 11.8161 80.6863 11.6785 80.5487 11.4033C80.4111 11.2657 80.2735 10.9905 80.4111 10.8529C80.5487 10.4401 81.3743 10.3025 81.5119 10.5777H82.1998C82.1998 10.3025 81.5119 9.88974 80.6863 10.0273C80.2735 10.1649 79.9983 10.3025 79.8607 10.7153C79.7231 10.9905 79.8607 11.1281 79.8607 11.4033C80.1359 11.5409 80.5487 11.9537 80.5487 12.0913Z" fill="#363347"/>
<path d="M84.8143 16.632C84.2639 15.944 83.3007 15.1184 82.888 14.7056C82.4752 14.2928 82.0624 13.4673 81.7872 13.0545C81.7872 12.9169 81.512 12.7793 81.3744 12.7793H80.5488C80.4112 12.7793 80.2737 12.9169 80.1361 12.9169C79.9985 13.1921 79.5857 13.8801 79.1729 14.2928C78.7601 14.7056 77.109 15.944 76.2834 16.4944C76.0082 16.632 76.1458 16.9071 76.2834 17.0447H76.421C76.5586 17.1823 76.8338 17.1823 76.9714 17.0447C77.7969 16.4944 80.2737 14.568 80.9616 14.568C81.512 14.568 83.3007 16.0816 84.2639 17.0447C84.4015 16.9071 84.6767 16.7695 84.8143 16.632Z" fill="#4A485B"/>
<path opacity="0.55" d="M84.8144 16.6319C84.2641 15.944 83.3009 15.1184 82.8881 14.7056C82.4753 14.2928 82.0625 13.4673 81.7873 13.0545C81.7873 12.9169 81.5122 12.7793 81.3746 12.7793H80.549C80.4114 12.7793 80.2738 12.9169 80.1362 12.9169C79.9986 13.1921 79.5858 13.8801 79.173 14.2928C78.7603 14.7056 77.1091 15.944 76.2836 16.4944C76.146 16.632 78.8979 14.8432 79.173 14.4304C79.4482 14.0177 79.861 13.4673 80.1362 13.0545C80.2738 12.9169 80.4114 12.9169 80.549 12.9169H81.3746C81.5122 12.9169 81.6498 13.0545 81.7873 13.1921C82.0625 13.6049 82.4753 14.4304 82.8881 14.8432C83.1633 15.256 84.1265 16.0816 84.8144 16.6319Z" fill="url(#paint1_linear)"/>
<path d="M81.5118 12.7793H81.3742H80.5486C80.411 12.7793 80.2734 12.7793 80.2734 12.9169L80.411 13.0545H80.5486H81.3742C81.5118 13.0545 81.5118 13.0545 81.5118 13.0545C81.5118 12.9169 81.5118 12.9169 81.5118 12.7793Z" fill="#5B5A6B"/>
<path d="M84.264 17.0447C83.7137 16.3567 82.3377 14.8431 81.7873 14.2928C81.6497 14.1552 81.2369 14.0176 80.9618 14.0176C80.549 14.0176 80.1362 14.1552 79.9986 14.2928C79.0354 14.9807 76.8339 17.1823 76.9715 17.0447C77.7971 16.4943 80.2738 14.568 80.9618 14.568C81.6497 14.568 83.3009 16.2191 84.264 17.0447Z" fill="#5B5A6B"/>
<path d="M84.8141 16.6319C84.2637 15.944 83.3005 15.1184 82.8878 14.7056C82.475 14.2928 82.0622 13.4673 81.787 13.0545C81.787 12.9169 81.5118 12.7793 81.3742 12.7793H80.9614C81.2366 13.0545 81.2366 13.4673 81.2366 13.8801C81.2366 14.1552 81.2366 14.568 81.2366 14.8432C82.0622 15.256 83.3006 16.4944 84.1261 17.1823C84.4013 16.9071 84.6765 16.7695 84.8141 16.6319Z" fill="#545366"/>
<path d="M81.512 10.44C81.512 10.44 81.512 10.5776 81.512 10.7152H82.1999V10.44L81.9247 10.1648L81.512 10.44Z" fill="#363347"/>
<path d="M76.6961 25.025C76.6961 26.401 76.0081 29.9785 75.5954 32.5928C76.1457 32.7304 76.8337 32.7304 77.3841 32.7304C78.6225 32.8679 79.8608 32.8679 81.0992 32.8679C81.3744 32.18 81.512 31.492 81.6495 30.804C81.6495 25.713 81.512 18.5581 81.3744 18.0077C81.3744 17.1821 79.3104 15.6686 78.4849 14.155C78.4849 14.155 76.5585 14.5678 75.4578 15.1182C75.733 15.2558 76.6961 22.6859 76.6961 25.025Z" fill="#F5FCFB"/>
<path d="M78.2099 17.0446C79.1731 16.907 80.5491 16.6318 80.5491 16.6318C79.8611 15.9439 79.1731 15.1183 78.6227 14.2927C78.6227 14.2927 78.3475 14.2927 77.522 14.5679C77.6596 15.2559 78.0724 16.7694 78.2099 17.0446Z" fill="#F5FCFB"/>
<path d="M81.5122 31.9048C81.6498 31.6296 81.6498 31.2169 81.7874 30.9417C81.7874 25.8507 81.6498 18.6957 81.5122 18.1454C81.5122 18.0078 80.9618 17.1822 81.237 17.4574C81.237 17.595 81.5122 31.2169 81.5122 31.9048Z" fill="#EEF0F2"/>
<path d="M76.6962 25.0249C76.6962 26.4009 76.0082 29.9783 75.5955 32.5926C76.1458 32.7302 76.8338 32.7302 77.3842 32.7302C77.5218 32.7302 77.797 32.7302 77.9346 32.7302C78.0722 32.7302 78.0722 32.5926 78.2098 32.5926C78.7601 32.1798 78.7601 24.6121 78.4849 22.1354C78.0722 21.4474 77.797 20.7595 77.6594 20.3467C77.109 18.5579 76.5586 16.7692 75.7331 14.9805C75.7331 14.9805 75.5955 14.9805 75.5955 15.1181C75.7331 15.2557 76.6962 22.6858 76.6962 25.0249Z" fill="#F5FCFB"/>
<path d="M82.338 33.0057C82.4756 33.0057 82.7508 33.0057 82.8884 33.0057C83.714 33.0057 84.5395 33.0057 85.3651 32.8681C85.0899 29.7034 84.6771 25.3004 84.6771 25.0252C84.5395 24.6124 84.9523 17.7327 84.9523 16.0815C84.9523 15.8063 84.8147 15.6687 84.6771 15.5311C84.2643 15.2559 83.714 14.9808 83.026 14.7056L81.5125 18.0078L81.7876 30.529C81.7876 30.3914 81.9252 31.4921 82.338 33.0057Z" fill="#F5FCFB"/>
<path d="M82.0625 19.3837C82.0625 19.3837 82.0625 21.1724 82.4753 21.1724C82.8881 21.1724 84.264 21.31 84.4016 21.0348C84.5392 20.7596 84.5392 19.2461 84.5392 19.2461L82.0625 19.3837Z" fill="#F5FCFB"/>
<path d="M82.0625 19.3837C82.0625 19.3837 82.0625 19.3837 82.0625 19.5213C82.0625 19.6589 82.0625 19.7965 82.0625 19.9341C83.3009 20.0717 84.4016 19.9341 84.4016 19.9341C84.4016 19.6589 84.4016 19.2461 84.4016 19.2461L82.0625 19.3837Z" fill="#F5FCFB"/>
<path d="M84.4016 19.7965C84.4016 19.5213 84.4016 19.2461 84.4016 19.2461H82.0625C82.0625 19.2461 82.0625 19.5213 82.0625 19.7965C82.8881 19.7965 83.7136 19.9341 84.4016 19.7965Z" fill="#F4F7F9"/>
<path d="M80.4115 19.3837C80.4115 19.3837 80.4115 21.1724 79.9987 21.1724C79.5859 21.1724 78.21 21.31 78.0724 21.0348C77.9348 20.7596 77.9348 19.2461 77.9348 19.2461L80.4115 19.3837Z" fill="#F5FCFB"/>
<path d="M80.4116 19.3837C80.4116 19.3837 80.4116 19.3837 80.4116 19.5213C80.4116 19.6589 80.4116 19.7965 80.4116 19.9341C79.1733 20.0717 78.0725 19.9341 78.0725 19.9341C78.0725 19.6589 78.0725 19.2461 78.0725 19.2461L80.4116 19.3837Z" fill="#F5FCFB"/>
<path d="M77.9348 19.7965C77.9348 19.5213 77.9348 19.2461 77.9348 19.2461H80.2739C80.2739 19.2461 80.2739 19.5213 80.2739 19.7965C79.5859 19.7965 78.7604 19.9341 77.9348 19.7965Z" fill="#F4F7F9"/>
<path d="M78.7599 14.2927C78.7599 14.2927 77.7968 14.4303 77.6592 14.5679C77.6592 14.7055 78.2096 16.7694 78.2096 17.0446C78.2096 17.0446 80.2735 16.6318 80.4111 16.6318C80.5487 16.6318 79.4479 15.1183 78.7599 14.2927Z" fill="#F5FCFB"/>
<path d="M82.0625 16.7694C82.0625 16.7694 83.1633 14.8431 83.0257 14.5679C83.0257 14.5679 83.7136 14.7055 83.8512 15.2558C84.1264 15.9438 83.9888 17.0446 83.9888 17.0446C83.9888 17.0446 82.6129 16.907 82.0625 16.7694Z" fill="#F5FCFB"/>
<path d="M82.0625 16.6319C82.0625 16.6319 82.8881 14.8432 82.7505 14.4304C82.7505 14.4304 83.3009 14.7056 83.5761 15.1184C83.8513 15.5312 83.8512 16.9071 83.8512 16.9071C83.8512 16.9071 82.6129 16.7695 82.0625 16.6319Z" fill="#F5FCFB"/>
<path d="M76.0084 15.1184C76.0084 15.1184 75.0452 15.256 74.77 16.7695C74.4948 18.4207 72.1557 26.814 72.4309 28.0523C72.7061 29.2907 74.6324 30.6666 74.9076 32.0426L76.9715 31.7674C76.9715 31.7674 76.2836 25.8508 77.1091 21.723C77.2467 20.8974 76.146 16.4944 76.0084 15.1184Z" fill="#F5FCFB"/>
<path opacity="0.32" d="M76.4211 26.2633C76.4211 25.1625 76.5587 24.1994 76.6963 23.0986C76.6963 22.961 76.5587 22.6858 76.5587 22.5482C76.5587 21.7227 76.6963 20.8971 76.5587 20.0715C76.2835 20.6219 76.0083 21.1723 75.8707 21.8603C75.5955 22.5482 75.7331 23.3738 75.7331 24.0618C75.5955 25.3001 75.8707 26.5385 75.8707 27.7769C76.0083 28.6024 76.1459 29.5656 76.2835 30.3911C76.2835 30.8039 76.5587 31.3543 76.6963 31.9047H76.8339C76.9715 31.0791 76.6963 29.9784 76.5587 29.1528C76.4211 28.1896 76.2835 27.2265 76.4211 26.2633Z" fill="#F5FCFB"/>
<path opacity="0.32" d="M76.0085 16.7693C75.5957 17.3197 74.6326 19.6588 74.6326 20.3468C74.6326 22.4107 74.0822 24.337 73.9446 26.4009C73.9446 27.3641 73.9446 28.4649 74.3574 29.428C74.7702 30.3912 75.7333 30.9416 76.1461 31.9047C76.1461 31.9047 76.1461 31.9047 76.1461 32.0423C74.9078 29.1528 75.0453 28.3273 74.7702 25.9881C74.3574 23.0987 75.7333 19.5212 76.0085 16.7693Z" fill="#F5FCFB"/>
<g opacity="0.32">
<path opacity="0.32" d="M75.4579 31.2169C75.4579 31.0793 75.3203 30.9417 75.1827 30.8041C75.1827 30.8041 75.0451 30.8041 75.0451 30.6665C74.7699 30.3914 74.9075 30.8041 75.0451 30.9417C75.1827 31.2169 75.3203 31.4921 75.4579 31.7673H75.7331C75.7331 31.6297 75.5955 31.4921 75.5955 31.3545C75.5955 31.4921 75.4579 31.3545 75.4579 31.2169Z" fill="#CFD5DB"/>
<path opacity="0.32" d="M76.0084 30.6663L75.8708 30.3911H75.7332C75.7332 30.3911 75.7332 31.3543 75.8708 31.6295C75.8708 31.7671 76.0084 31.7671 76.0084 31.9047H76.1459C76.1459 31.6295 76.1459 31.4919 76.0084 31.2167C76.0084 31.0791 76.0084 30.9415 76.0084 30.6663Z" fill="#CFD5DB"/>
<path opacity="0.32" d="M76.2833 30.6667C76.1458 31.0795 76.4209 31.4923 76.5585 31.9051C76.5585 31.6299 76.5585 31.2171 76.4209 30.9419C76.4209 30.8043 76.4209 30.6667 76.2833 30.6667Z" fill="#CFD5DB"/>
</g>
<path d="M77.1092 32.4551L76.9716 31.7671L74.9077 31.9047L75.0453 32.7303L77.1092 32.4551Z" fill="#F5FCFB"/>
<path d="M102.014 15.8059C102.014 15.8059 103.803 18.6954 104.353 25.1623C104.491 27.0887 104.078 31.2165 104.078 31.6293L102.152 32.0421C102.152 32.0421 102.152 26.4007 101.189 24.0616C100.363 21.5849 100.501 14.5675 102.014 15.8059Z" fill="#F5FCFB"/>
<path d="M102.014 15.8059C102.014 15.8059 103.803 18.6954 104.353 25.1623C104.491 27.0887 104.078 31.2165 104.078 31.6293L102.152 32.0421C102.152 32.0421 102.152 26.4007 101.189 24.0616C100.363 21.5849 100.501 14.5675 102.014 15.8059Z" fill="#F5FCFB"/>
<path opacity="0.32" d="M103.39 23.3737C103.39 21.8602 102.977 20.4842 102.427 18.9707C102.427 19.5211 102.84 23.9241 102.702 25.3001C102.427 27.5016 102.977 29.5655 102.84 31.767H103.115C103.115 30.6663 103.253 29.5655 103.39 28.3272C103.665 26.676 103.39 25.0249 103.39 23.3737Z" fill="#F5FCFB"/>
<g opacity="0.32">
<path opacity="0.32" d="M103.527 31.0792C103.527 30.9416 103.665 30.804 103.665 30.6664C103.665 30.6664 103.665 30.5288 103.802 30.5288C104.077 30.2537 103.94 30.6664 103.94 30.804C103.94 31.0792 103.802 31.492 103.802 31.7672H103.527C103.527 31.6296 103.527 31.492 103.527 31.3544C103.527 31.3544 103.527 31.2168 103.527 31.0792Z" fill="#CFD5DB"/>
<path opacity="0.32" d="M102.977 30.6663V30.3911H103.115C103.115 30.3911 103.252 31.3543 103.252 31.6295C103.252 31.7671 103.252 31.7671 103.115 31.9047H102.977C102.977 31.6295 102.977 31.4919 102.977 31.2167C102.977 30.9415 102.977 30.8039 102.977 30.6663Z" fill="#CFD5DB"/>
<path opacity="0.32" d="M102.702 30.8037C102.839 31.2165 102.702 31.6293 102.702 32.0421C102.564 31.7669 102.564 31.3541 102.564 31.0789C102.564 30.8037 102.564 30.8037 102.702 30.8037Z" fill="#CFD5DB"/>
</g>
<path d="M104.215 32.3176L104.078 31.6296L102.289 31.9048L102.427 32.5928L104.215 32.3176Z" fill="#F5FCFB"/>
<path d="M98.7121 32.455C99.1248 32.455 100.226 32.455 100.776 32.3174C101.051 28.7399 100.501 21.4474 100.914 15.3932L99.8128 14.8428C98.8496 14.5676 97.1985 14.5676 95.685 14.5676C95.685 14.5676 94.7218 15.118 93.8962 15.3932C93.8962 15.3932 94.4466 28.0519 95.8226 32.5926C96.9233 32.5926 97.8865 32.5926 98.7121 32.455Z" fill="#F0F2F2"/>
<path d="M97.6107 12.3662C97.7483 12.9165 97.6107 13.3293 97.6107 13.7421H98.1611V13.4669C98.1611 13.3293 98.1611 12.6413 98.0235 12.3662C97.8859 12.091 97.7483 11.9534 97.6107 11.6782C97.4731 11.5406 97.3355 11.2654 97.4731 11.1278C97.6107 10.715 98.4363 10.5774 98.5739 10.8526H99.2619C99.2619 10.5774 98.5739 10.1646 97.7483 10.3022C97.3355 10.4398 97.0603 10.5774 96.9227 10.9902C96.7851 11.2654 96.9227 11.403 96.9227 11.6782C97.1979 11.8158 97.6107 12.2286 97.6107 12.3662Z" fill="#363347"/>
<path d="M101.876 16.7694C101.326 16.0814 100.363 15.2559 99.95 14.8431C99.5372 14.4303 99.1244 13.6047 98.8492 13.1919C98.8492 13.0543 98.574 12.9167 98.4364 12.9167H97.6108C97.4733 12.9167 97.3357 13.0543 97.1981 13.0543C97.0605 13.3295 96.6477 14.0175 96.2349 14.4303C95.8221 14.8431 94.171 16.0814 93.3454 16.6318C93.0702 16.7694 93.2078 17.0446 93.3454 17.1822H93.483C93.6206 17.3198 93.8958 17.3198 94.0334 17.1822C94.8589 16.6318 97.3357 14.7055 98.0236 14.7055C98.574 14.7055 100.363 16.219 101.326 17.1822C101.464 17.1822 101.739 17.0446 101.876 16.7694Z" fill="#4A485B"/>
<path opacity="0.55" d="M101.876 16.7694C101.326 16.0814 100.363 15.2559 99.9501 14.8431C99.5373 14.4303 99.1246 13.6047 98.8494 13.1919C98.8494 13.0543 98.5742 12.9167 98.4366 12.9167H97.611C97.4734 12.9167 97.3358 13.0543 97.1982 13.0543C97.0606 13.3295 96.6478 14.0175 96.2351 14.4303C95.8223 14.8431 94.1711 16.0814 93.3456 16.6318C93.208 16.7694 95.9599 14.9807 96.2351 14.5679C96.5102 14.1551 96.923 13.6047 97.1982 13.1919C97.3358 13.0543 97.4734 13.0543 97.611 13.0543H98.4366C98.5742 13.0543 98.7118 13.1919 98.8494 13.3295C99.1246 13.7423 99.5373 14.5679 99.9501 14.9807C100.225 15.531 101.188 16.3566 101.876 16.7694C101.876 16.907 101.876 16.907 101.876 16.7694Z" fill="url(#paint2_linear)"/>
<path d="M98.7115 13.0542H98.5739H97.7483C97.6107 13.0542 97.4731 13.0542 97.4731 13.1918L97.6107 13.3294H97.7483H98.5739C98.7115 13.3294 98.7115 13.3294 98.7115 13.3294C98.7115 13.1918 98.7115 13.1918 98.7115 13.0542Z" fill="#5B5A6B"/>
<path d="M101.326 17.3198C100.776 16.6318 99.3997 15.1183 98.8493 14.5679C98.7117 14.4303 98.299 14.2927 98.0238 14.2927C97.611 14.2927 97.1982 14.4303 97.0606 14.5679C96.0974 15.2559 93.8959 17.4574 94.0335 17.3198C94.8591 16.7694 97.3358 14.8431 98.0238 14.8431C98.7117 14.8431 100.363 16.4942 101.326 17.3198Z" fill="#5B5A6B"/>
<path d="M101.876 16.7694C101.326 16.0814 100.363 15.2559 99.95 14.8431C99.5372 14.4303 99.1244 13.6047 98.8492 13.1919C98.8492 13.0543 98.5741 12.9167 98.4365 12.9167H98.0237C98.2989 13.1919 98.2989 13.6047 98.2989 14.0175C98.2989 14.2927 98.2989 14.7055 98.2989 14.9807C99.1244 15.3935 100.363 16.6318 101.188 17.3198C101.464 17.1822 101.739 17.0446 101.876 16.7694Z" fill="#545366"/>
<path d="M98.7114 10.7149C98.7114 10.7149 98.7114 10.8525 98.7114 10.9901H99.3994V10.7149L99.1242 10.4397L98.7114 10.7149Z" fill="#363347"/>
<path d="M93.7586 25.3002C93.7586 26.6761 93.0706 30.2536 92.6579 32.8679C93.2082 33.0055 93.8962 33.0055 94.4466 33.0055C95.6849 33.1431 96.9233 33.1431 98.1617 33.1431C98.4368 32.4551 98.5744 31.7671 98.712 31.0792C98.712 25.9881 98.5744 18.8332 98.4368 18.2828C98.4368 17.4573 96.3729 15.9437 95.5473 14.4302C95.5473 14.4302 93.621 14.843 92.5203 15.3933C92.7955 15.5309 93.7586 22.9611 93.7586 25.3002Z" fill="#F5FCFB"/>
<path d="M95.272 17.3195C96.2351 17.1819 97.6111 16.9067 97.6111 16.9067C96.9231 16.2188 96.2351 15.3932 95.6847 14.5676C95.6847 14.5676 95.4096 14.5676 94.584 14.8428C94.7216 15.5308 95.1344 17.0443 95.272 17.3195Z" fill="#F5FCFB"/>
<path d="M98.5744 32.18C98.712 31.9048 98.712 31.492 98.8496 31.2168C98.8496 26.1258 98.712 18.9709 98.5744 18.4205C98.5744 18.2829 98.024 17.4573 98.2992 17.7325C98.4368 17.7325 98.5744 31.492 98.5744 32.18Z" fill="#EEF0F2"/>
<path d="M93.758 25.3C93.758 26.676 93.07 30.2535 92.6572 32.8678C93.2076 33.0054 93.8956 33.0054 94.446 33.0054C94.5836 33.0054 94.8587 33.0054 94.9963 33.0054C95.1339 33.0054 95.1339 32.8678 95.2715 32.8678C95.8219 32.455 95.8219 24.8873 95.5467 22.4106C95.1339 21.7226 94.8587 21.0346 94.7211 20.6218C94.1708 18.8331 93.6204 17.0443 92.7948 15.2556C92.7948 15.2556 92.6572 15.2556 92.6572 15.3932C92.7948 15.5308 93.758 22.9609 93.758 25.3Z" fill="#F5FCFB"/>
<path d="M99.5375 33.2806C99.6751 33.2806 99.9503 33.2806 100.088 33.2806C100.913 33.2806 101.739 33.2806 102.565 33.143C102.289 29.9783 101.877 25.5753 101.877 25.3001C101.739 24.8873 102.152 18.0076 102.152 16.3564C102.152 16.0812 102.014 15.9436 101.877 15.806C101.464 15.5309 100.913 15.2557 100.225 14.9805L98.7119 18.2827L98.9871 30.8039C98.8495 30.6663 98.9871 31.767 99.5375 33.2806Z" fill="#F5FCFB"/>
<path d="M99.1248 19.5211C99.1248 19.5211 99.1248 21.3099 99.5375 21.3099C99.9503 21.3099 101.326 21.4475 101.464 21.1723C101.601 20.8971 101.601 19.3835 101.601 19.3835L99.1248 19.5211Z" fill="#F5FCFB"/>
<path d="M99.1248 19.5211C99.1248 19.5211 99.1248 19.5211 99.1248 19.6587C99.1248 19.7963 99.1248 19.9339 99.1248 20.0715C100.363 20.2091 101.464 20.0715 101.464 20.0715C101.464 19.7963 101.464 19.3835 101.464 19.3835L99.1248 19.5211Z" fill="#F5FCFB"/>
<path d="M101.464 20.0714C101.464 19.7962 101.464 19.521 101.464 19.521H99.1248C99.1248 19.521 99.1248 19.7962 99.1248 20.0714C99.9503 20.0714 100.776 20.0714 101.464 20.0714Z" fill="#F4F7F9"/>
<path d="M97.4733 19.5211C97.4733 19.5211 97.4733 21.3099 97.0605 21.3099C96.6477 21.3099 95.2718 21.4475 95.1342 21.1723C94.9966 20.8971 94.9966 19.3835 94.9966 19.3835L97.4733 19.5211Z" fill="#F5FCFB"/>
<path d="M97.4734 19.5211C97.4734 19.5211 97.4734 19.5211 97.4734 19.6587C97.4734 19.7963 97.4734 19.9339 97.4734 20.0715C96.235 20.2091 95.1343 20.0715 95.1343 20.0715C95.1343 19.7963 95.1343 19.3835 95.1343 19.3835L97.4734 19.5211Z" fill="#F5FCFB"/>
<path d="M95.1343 20.0714C95.1343 19.7962 95.1343 19.521 95.1343 19.521H97.4734C97.4734 19.521 97.4734 19.7962 97.4734 20.0714C96.6478 20.0714 95.8222 20.0714 95.1343 20.0714Z" fill="#F4F7F9"/>
<path d="M95.8222 14.5676C95.8222 14.5676 94.859 14.7052 94.7214 14.8428C94.7214 14.9804 95.2718 17.0443 95.2718 17.3195C95.2718 17.3195 97.3358 16.9067 97.4733 16.9067C97.6109 16.9067 96.5102 15.3932 95.8222 14.5676Z" fill="#F5FCFB"/>
<path d="M99.1248 17.0445C99.1248 17.0445 100.226 15.1182 100.088 14.843C100.088 14.843 100.776 14.9806 100.914 15.531C101.189 16.219 101.051 17.3197 101.051 17.3197C101.051 17.3197 99.6751 17.1821 99.1248 17.0445Z" fill="#F5FCFB"/>
<path d="M99.262 16.9068C99.262 16.9068 100.088 15.1181 99.9499 14.7053C99.9499 14.7053 100.5 14.9805 100.776 15.3933C101.051 15.8061 101.051 17.182 101.051 17.182C101.051 17.182 99.6748 17.0444 99.262 16.9068Z" fill="#F5FCFB"/>
<path d="M93.2078 15.3933C93.2078 15.3933 92.2447 15.5309 91.9695 17.0444C91.6943 18.6956 89.3552 27.0889 89.6304 28.3272C89.9056 29.5656 91.8319 30.9415 92.1071 32.3175L94.0334 32.0423C94.0334 32.0423 93.3454 26.1257 94.171 21.9979C94.4462 21.1723 93.2078 16.7693 93.2078 15.3933Z" fill="#F5FCFB"/>
<path opacity="0.32" d="M93.4828 26.5382C93.4828 25.4374 93.6204 24.4743 93.758 23.3735C93.758 23.2359 93.6204 22.9607 93.6204 22.8231C93.6204 21.9976 93.758 21.172 93.6204 20.3464C93.3453 20.8968 93.0701 21.4472 92.9325 22.1352C92.6573 22.8231 92.7949 23.6487 92.7949 24.3367C92.6573 25.575 92.9325 26.8134 92.9325 28.0517C93.0701 28.8773 93.2077 29.8405 93.3453 30.6661C93.3453 31.0788 93.6204 31.6292 93.758 32.1796H93.8956C94.0332 31.354 93.758 30.2533 93.6204 29.4277C93.4828 28.4645 93.4828 27.5014 93.4828 26.5382Z" fill="#F5FCFB"/>
<path opacity="0.32" d="M93.0703 17.0444C92.6575 17.5948 91.6943 19.9339 91.6943 20.6219C91.6943 22.6858 91.1439 24.6122 91.0063 26.6761C91.0063 27.6393 91.0063 28.74 91.4191 29.7032C91.8319 30.6663 92.7951 31.2167 93.2079 32.1799C93.2079 32.1799 93.2079 32.1799 93.2079 32.3175C91.9695 29.428 92.1071 28.6024 91.8319 26.2633C91.4191 23.3738 92.9327 19.7963 93.0703 17.0444Z" fill="#F5FCFB"/>
<g opacity="0.32">
<path opacity="0.32" d="M92.5194 31.4916C92.5194 31.354 92.3818 31.2164 92.2442 31.0788C92.2442 31.0788 92.1066 31.0788 92.1066 30.9412C91.8314 30.666 91.969 31.0788 92.1066 31.2164C92.2442 31.4916 92.3818 31.7668 92.5194 32.042H92.7946C92.7946 31.9044 92.657 31.7668 92.657 31.6292C92.657 31.7668 92.657 31.6292 92.5194 31.4916Z" fill="#CFD5DB"/>
<path opacity="0.32" d="M93.0699 30.9412L92.9323 30.666H92.7947C92.7947 30.666 92.7947 31.6292 92.9323 31.9044C92.9323 32.042 93.0699 32.042 93.0699 32.1795H93.2075C93.2075 31.9044 93.2075 31.7668 93.0699 31.4916C93.0699 31.354 93.0699 31.0788 93.0699 30.9412Z" fill="#CFD5DB"/>
<path opacity="0.32" d="M93.3449 30.9414C93.2073 31.3542 93.4825 31.767 93.6201 32.1798C93.6201 31.9046 93.6201 31.4918 93.4825 31.2166C93.4825 31.079 93.4825 30.9414 93.3449 30.9414Z" fill="#CFD5DB"/>
</g>
<path d="M94.171 32.7301L94.0334 31.9045L91.9695 32.1797L92.2447 32.8677L94.171 32.7301Z" fill="#F5FCFB"/>
<path d="M119.076 16.081C119.076 16.081 120.865 18.9705 121.415 25.4375C121.553 27.3638 121.14 31.4917 121.14 31.9045L119.214 32.3172C119.214 32.3172 119.214 26.6758 118.251 24.3367C117.425 21.86 117.7 14.8427 119.076 16.081Z" fill="#F5FCFB"/>
<path d="M119.076 16.081C119.076 16.081 120.865 18.9705 121.415 25.4375C121.553 27.3638 121.14 31.4917 121.14 31.9045L119.214 32.3172C119.214 32.3172 119.214 26.6758 118.251 24.3367C117.425 21.86 117.7 14.8427 119.076 16.081Z" fill="#F5FCFB"/>
<path opacity="0.32" d="M120.452 23.6489C120.452 22.1353 120.039 20.7594 119.489 19.2458C119.489 19.7962 119.902 24.1993 119.764 25.5752C119.489 27.7767 120.039 29.8407 119.902 32.0422H120.177C120.177 30.9414 120.315 29.8407 120.452 28.6023C120.727 26.9512 120.452 25.3 120.452 23.6489Z" fill="#F5FCFB"/>
<g opacity="0.32">
<path opacity="0.32" d="M120.59 31.3544C120.59 31.2168 120.727 31.0792 120.727 30.9416C120.727 30.9416 120.727 30.804 120.865 30.804C121.14 30.5288 121.003 30.9416 121.003 31.0792C121.003 31.3544 120.865 31.7672 120.865 32.0424H120.59C120.59 31.9048 120.59 31.7672 120.59 31.6296C120.59 31.6296 120.59 31.492 120.59 31.3544Z" fill="#CFD5DB"/>
<path opacity="0.32" d="M120.04 30.9414V30.6663H120.177C120.177 30.6663 120.315 31.6294 120.315 31.9046C120.315 32.0422 120.315 32.0422 120.177 32.1798H120.04C120.04 31.9046 120.04 31.767 120.04 31.4918C120.04 31.2166 120.04 31.079 120.04 30.9414Z" fill="#CFD5DB"/>
<path opacity="0.32" d="M119.764 30.9417C119.902 31.3544 119.764 31.7672 119.764 32.18C119.627 31.9048 119.627 31.492 119.627 31.2168C119.627 31.0792 119.627 30.9417 119.764 30.9417Z" fill="#CFD5DB"/>
</g>
<path d="M121.277 32.5929V31.7673L119.351 32.1801L119.489 32.8681L121.277 32.5929Z" fill="#F5FCFB"/>
<path d="M115.774 32.7304C116.187 32.7304 117.288 32.7304 117.838 32.5928C118.113 29.0153 117.563 21.7228 117.976 15.6686L116.875 15.1182C115.912 14.843 114.261 14.843 112.747 14.843C112.747 14.843 111.784 15.3934 110.958 15.6686C110.958 15.6686 111.509 28.3273 112.885 32.8679C113.985 32.8679 114.949 32.8679 115.774 32.7304Z" fill="#F0F2F2"/>
<path d="M114.673 12.6415C114.81 13.1919 114.673 13.6047 114.673 14.0175H115.223V13.7423C115.223 13.6047 115.223 12.9167 115.086 12.6415C114.948 12.3664 114.81 12.2288 114.673 11.9536C114.535 11.816 114.398 11.5408 114.535 11.4032C114.673 10.9904 115.498 10.8528 115.636 11.128H116.324C116.324 10.8528 115.636 10.44 114.81 10.5776C114.398 10.7152 114.122 10.8528 113.985 11.2656C113.847 11.5408 113.985 11.6784 113.985 11.9536C114.26 11.9536 114.673 12.504 114.673 12.6415Z" fill="#363347"/>
<path d="M118.938 17.0448C118.388 16.3568 117.425 15.5313 117.012 15.1185C116.599 14.7057 116.186 13.8801 115.911 13.4673C115.911 13.3297 115.636 13.1921 115.498 13.1921H114.673C114.535 13.1921 114.398 13.3297 114.26 13.3297C114.122 13.6049 113.71 14.2929 113.297 14.7057C112.884 15.1185 111.233 16.3568 110.407 16.9072C110.132 17.0448 110.27 17.32 110.407 17.4576H110.545C110.683 17.5952 110.958 17.5952 111.095 17.4576C111.921 16.9072 114.398 14.9809 115.086 14.9809C115.636 14.9809 117.425 16.4944 118.388 17.4576C118.663 17.4576 118.801 17.1824 118.938 17.0448Z" fill="#4A485B"/>
<path opacity="0.55" d="M118.938 17.0448C118.388 16.3568 117.425 15.5313 117.012 15.1185C116.599 14.7057 116.187 13.8801 115.911 13.4673C115.911 13.3297 115.636 13.1921 115.499 13.1921H114.673C114.535 13.1921 114.398 13.3297 114.26 13.3297C114.123 13.6049 113.71 14.2929 113.297 14.7057C112.884 15.1185 111.233 16.3568 110.408 16.9072C110.27 17.0448 113.022 15.2561 113.297 14.8433C113.572 14.4305 113.985 13.8801 114.26 13.4673C114.398 13.3297 114.535 13.3297 114.673 13.3297H115.499C115.636 13.3297 115.774 13.4673 115.911 13.6049C116.187 14.0177 116.599 14.8433 117.012 15.2561C117.425 15.6688 118.388 16.632 118.938 17.0448Z" fill="url(#paint3_linear)"/>
<path d="M115.774 13.3298H115.636H114.673C114.536 13.3298 114.398 13.3298 114.398 13.4674L114.536 13.605H114.673H115.499C115.636 13.605 115.636 13.605 115.636 13.605C115.774 13.4674 115.774 13.3298 115.774 13.3298Z" fill="#5B5A6B"/>
<path d="M118.526 17.5952C117.975 16.9072 116.599 15.3937 116.049 14.8433C115.911 14.7057 115.499 14.5681 115.223 14.5681C114.811 14.5681 114.398 14.7057 114.26 14.8433C113.297 15.5313 111.096 17.7328 111.233 17.5952C112.059 17.0448 114.536 15.1185 115.223 15.1185C115.774 15.1185 117.425 16.632 118.526 17.5952C118.388 17.5952 118.388 17.5952 118.526 17.5952Z" fill="#5B5A6B"/>
<path d="M118.938 17.0448C118.388 16.3568 117.425 15.5313 117.012 15.1185C116.599 14.7057 116.186 13.8801 115.911 13.4673C115.911 13.3297 115.636 13.1921 115.498 13.1921H115.086C115.361 13.4673 115.361 13.8801 115.361 14.2929C115.361 14.5681 115.361 14.9809 115.361 15.2561C116.186 15.6688 117.425 16.9072 118.25 17.5952C118.663 17.4576 118.801 17.1824 118.938 17.0448Z" fill="#545366"/>
<path d="M115.774 10.9903C115.774 10.9903 115.774 11.1279 115.774 11.2655H116.462V10.9903L116.187 10.7151L115.774 10.9903Z" fill="#363347"/>
<path d="M110.821 25.5753C110.821 26.9513 110.133 30.5287 109.72 33.143C110.27 33.2806 110.958 33.2806 111.509 33.2806C112.747 33.4182 113.985 33.4182 115.224 33.4182C115.499 32.7303 115.636 32.0423 115.774 31.3543C115.774 26.2633 115.636 19.1084 115.499 18.558C115.499 17.7324 113.435 16.2189 112.609 14.7053C112.609 14.7053 110.683 15.1181 109.582 15.6685C109.857 15.8061 110.958 23.2362 110.821 25.5753Z" fill="#F5FCFB"/>
<path d="M112.471 17.5949C113.435 17.4573 114.811 17.1821 114.811 17.1821C114.123 16.4942 113.435 15.6686 112.884 14.843C112.884 14.843 112.609 14.843 111.783 15.1182C111.783 15.8062 112.196 17.3197 112.471 17.5949Z" fill="#F5FCFB"/>
<path d="M115.774 32.4551C115.911 32.18 115.911 31.7672 116.049 31.492C116.049 26.401 115.911 19.246 115.774 18.6956C115.774 18.5581 115.223 17.7325 115.498 18.0077C115.498 18.0077 115.636 31.7672 115.774 32.4551Z" fill="#EEF0F2"/>
<path d="M110.82 25.5752C110.82 26.9511 110.132 30.5286 109.719 33.1429C110.27 33.2805 110.958 33.2805 111.508 33.2805C111.646 33.2805 111.921 33.2805 112.058 33.2805C112.196 33.2805 112.196 33.1429 112.334 33.1429C112.884 32.7301 112.884 25.1624 112.609 22.6857C112.196 21.9977 111.921 21.3098 111.783 20.897C111.233 19.1082 110.682 17.3195 109.857 15.5308C109.857 15.5308 109.719 15.5308 109.719 15.6684C109.857 15.8059 110.958 23.2361 110.82 25.5752Z" fill="#F5FCFB"/>
<path d="M116.599 33.4183C116.737 33.4183 117.012 33.4183 117.15 33.4183C117.975 33.4183 118.801 33.4183 119.627 33.2807C119.351 30.116 118.939 25.713 118.939 25.4378C118.801 25.025 119.214 18.1453 119.214 16.4941C119.214 16.2189 119.076 16.0813 118.939 15.9437C118.526 15.6685 117.975 15.3934 117.287 15.1182L115.774 18.4204L116.049 30.9416C115.912 30.9416 116.049 31.9047 116.599 33.4183Z" fill="#F5FCFB"/>
<path d="M116.187 19.7963C116.187 19.7963 116.187 21.585 116.6 21.585C117.012 21.585 118.388 21.7226 118.526 21.4474C118.663 21.1722 118.663 19.6587 118.663 19.6587L116.187 19.7963Z" fill="#F5FCFB"/>
<path d="M116.187 19.7963C116.187 19.7963 116.187 19.7963 116.187 19.9339C116.187 20.0715 116.187 20.2091 116.187 20.3467C117.425 20.4843 118.526 20.3467 118.526 20.3467C118.526 20.0715 118.526 19.6587 118.526 19.6587L116.187 19.7963Z" fill="#F5FCFB"/>
<path d="M118.663 20.2091C118.663 19.9339 118.663 19.6587 118.663 19.6587H116.324C116.324 19.6587 116.324 19.9339 116.324 20.2091C117.012 20.3467 117.838 20.3467 118.663 20.2091Z" fill="#F4F7F9"/>
<path d="M114.535 19.7963C114.535 19.7963 114.535 21.585 114.123 21.585C113.71 21.585 112.334 21.7226 112.196 21.4474C112.059 21.1722 112.059 19.6587 112.059 19.6587L114.535 19.7963Z" fill="#F5FCFB"/>
<path d="M114.535 19.7963C114.535 19.7963 114.535 19.7963 114.535 19.9339C114.535 20.0715 114.535 20.2091 114.535 20.3467C113.297 20.4843 112.196 20.3467 112.196 20.3467C112.196 20.0715 112.196 19.6587 112.196 19.6587L114.535 19.7963Z" fill="#F5FCFB"/>
<path d="M112.196 20.2091C112.196 19.9339 112.196 19.6587 112.196 19.6587H114.535C114.535 19.6587 114.535 19.9339 114.535 20.2091C113.71 20.3467 112.884 20.3467 112.196 20.2091Z" fill="#F4F7F9"/>
<path d="M113.022 14.843C113.022 14.843 112.058 14.9806 111.921 15.1182C111.921 15.2558 112.471 17.3197 112.471 17.5949C112.471 17.5949 114.535 17.1821 114.673 17.1821C114.673 17.0445 113.572 15.6686 113.022 14.843Z" fill="#F5FCFB"/>
<path d="M116.187 17.3197C116.187 17.3197 117.288 15.3934 117.15 15.1182C117.15 15.1182 117.838 15.2558 117.975 15.8061C118.251 16.4941 118.113 17.5949 118.113 17.5949C118.113 17.5949 116.737 17.3197 116.187 17.3197Z" fill="#F5FCFB"/>
<path d="M116.324 17.1825C116.324 17.1825 117.15 15.3937 117.012 14.981C117.012 14.981 117.562 15.2561 117.838 15.6689C118.113 16.0817 118.113 17.4577 118.113 17.4577C118.113 17.4577 116.874 17.1825 116.324 17.1825Z" fill="#F5FCFB"/>
<path d="M110.27 15.6687C110.27 15.6687 109.307 15.8063 109.032 17.3198C108.756 18.971 106.417 27.3643 106.692 28.6026C106.968 29.841 108.894 31.2169 109.169 32.5929L111.233 32.3177C111.233 32.3177 110.545 26.4011 111.371 22.2733C111.508 21.3101 110.27 16.9071 110.27 15.6687Z" fill="#F5FCFB"/>
<path opacity="0.32" d="M110.545 26.8136C110.545 25.7128 110.682 24.7497 110.82 23.6489C110.82 23.5113 110.682 23.2361 110.682 23.0985C110.682 22.273 110.82 21.4474 110.682 20.6218C110.407 21.1722 110.132 21.7226 109.994 22.4106C109.719 23.0985 109.857 23.9241 109.857 24.6121C109.719 25.8504 109.994 27.0888 109.994 28.3271C110.132 29.1527 110.27 30.1159 110.407 30.9415C110.407 31.3542 110.682 31.9046 110.82 32.455H110.958C111.095 31.6294 110.82 30.5287 110.682 29.7031C110.545 28.6023 110.545 27.7768 110.545 26.8136Z" fill="#F5FCFB"/>
<path opacity="0.32" d="M110.132 17.3196C109.719 17.87 108.756 20.2091 108.756 20.8971C108.756 22.961 108.206 24.8873 108.068 26.9512C108.068 27.9144 108.068 29.0152 108.481 29.9783C108.894 30.9415 109.857 31.4919 110.27 32.455C110.27 32.455 110.27 32.455 110.27 32.5926C109.032 29.7031 109.169 28.8776 108.894 26.5384C108.619 23.649 109.995 20.0715 110.132 17.3196Z" fill="#F5FCFB"/>
<g opacity="0.32">
<path opacity="0.32" d="M109.581 31.7675C109.581 31.6299 109.444 31.4923 109.306 31.3547C109.306 31.3547 109.169 31.3547 109.169 31.2171C108.893 30.9419 109.031 31.3547 109.169 31.4923C109.306 31.7675 109.444 32.0427 109.581 32.3178H109.857C109.857 32.1803 109.719 32.0427 109.719 31.9051C109.719 32.0427 109.719 31.9051 109.581 31.7675Z" fill="#CFD5DB"/>
<path opacity="0.32" d="M110.132 31.2168L109.994 30.9417H109.857C109.857 30.9417 109.857 31.9048 109.994 32.18C109.994 32.3176 110.132 32.3176 110.132 32.4552H110.269C110.269 32.18 110.269 32.0424 110.132 31.7672C110.269 31.492 110.132 31.3544 110.132 31.2168Z" fill="#CFD5DB"/>
<path opacity="0.32" d="M110.545 31.2173C110.407 31.6301 110.682 32.0429 110.82 32.4556C110.82 32.1804 110.82 31.7677 110.682 31.4925C110.682 31.3549 110.545 31.2173 110.545 31.2173Z" fill="#CFD5DB"/>
</g>
<path d="M111.233 33.0053L111.096 32.1797L109.169 32.4549L109.307 33.1429L111.233 33.0053Z" fill="#F5FCFB"/>
<defs>
<linearGradient id="paint0_linear" x1="137.206" y1="6.60372" x2="72.7202" y2="14.8552" gradientUnits="userSpaceOnUse">
<stop stop-color="#87A37F"/>
<stop offset="0.2214" stop-color="#85A07D"/>
<stop offset="0.3789" stop-color="#7D9776"/>
<stop offset="0.5165" stop-color="#708769"/>
<stop offset="0.6427" stop-color="#5E7158"/>
<stop offset="0.7611" stop-color="#465542"/>
<stop offset="0.8738" stop-color="#293127"/>
<stop offset="0.9799" stop-color="#070907"/>
<stop offset="1"/>
</linearGradient>
<linearGradient id="paint1_linear" x1="80.5233" y1="11.565" x2="80.5233" y2="16.4645" gradientUnits="userSpaceOnUse">
<stop offset="0.0427807" stop-color="#C1B0A0"/>
<stop offset="1" stop-color="#B09E90"/>
</linearGradient>
<linearGradient id="paint2_linear" x1="97.6083" y1="11.8176" x2="97.6083" y2="16.7171" gradientUnits="userSpaceOnUse">
<stop offset="0.0427807" stop-color="#C1B0A0"/>
<stop offset="1" stop-color="#B09E90"/>
</linearGradient>
<linearGradient id="paint3_linear" x1="114.693" y1="12.0705" x2="114.693" y2="16.9699" gradientUnits="userSpaceOnUse">
<stop offset="0.0427807" stop-color="#C1B0A0"/>
<stop offset="1" stop-color="#B09E90"/>
</linearGradient>
</defs>
</svg>
