<?xml version="1.0" encoding="utf-8"?>
<!-- Generator: Adobe Illustrator 19.0.0, SVG Export Plug-In . SVG Version: 6.00 Build 0)  -->
<svg version="1.1" id="Layer_1" xmlns="http://www.w3.org/2000/svg" xmlns:xlink="http://www.w3.org/1999/xlink" x="0px" y="0px"
	 viewBox="0 0 228.6 144" style="enable-background:new 0 0 228.6 144;" xml:space="preserve">
<style type="text/css">
	.st0{fill:#FAFFFF;}
	.st1{fill:#75271A;}
	.st2{fill:#4C423F;}
	.st3{fill:#353131;}
	.st4{fill:#F9B087;}
	.st5{fill:#F39474;}
	.st6{fill:#FFFFFF;}
	.st7{fill:#EDECEB;}
	.st8{fill:#211E27;}
	.st9{fill:#359591;}
	.st10{fill:#9EE5DB;}
	.st11{fill:#7FD6CB;}
	.st12{fill:#F8A492;}
	.st13{fill:#FF98B9;}
	.st14{fill:none;stroke:#EF848E;stroke-width:0.1;stroke-miterlimit:10;}
	.st15{fill:#6CC8C1;}
	.st16{fill:#CCD9E2;}
	.st17{fill:#F5FBFF;}
	.st18{opacity:0.18;fill:#0C123A;}
	.st19{fill:url(#SVGID_1_);}
	.st20{fill:#FFDD00;}
	.st21{opacity:0.57;fill:#E8F4FC;}
	.st22{fill:#9DB5C4;}
	.st23{fill:#E8F4FC;}
	.st24{fill:#B3C6D4;}
	.st25{fill:#9BB5C4;}
	.st26{fill:#3D576B;}
	.st27{fill:#B9CFD6;}
	.st28{fill:#ABC1C6;}
	.st29{fill:#184670;}
	.st30{fill:#D82156;}
	.st31{fill:#8BA6B6;}
	.st32{fill:#A7BCC9;}
	.st33{fill:#144566;}
	.st34{fill:#29748E;}
	.st35{fill:#2D4351;}
	.st36{fill:#678699;}
	.st37{fill:#A6BCC9;}
	.st38{opacity:7.000000e-002;fill:#082B72;}
	.st39{opacity:0.3;fill:#FFFFFF;}
	.st40{fill:#144B63;}
	.st41{fill:#61AFBC;}
	.st42{opacity:0.27;fill:#FFFFFF;}
	.st43{fill:#FFEC00;}
	.st44{fill:none;}
	.st45{opacity:0.2;fill:#29235C;}
	.st46{fill:#5C8097;}
	.st47{fill:url(#SVGID_2_);}
	.st48{opacity:0.19;fill:#6CC8C1;}
	.st49{fill:#F19679;}
	.st50{fill:#363347;}
	.st51{fill:url(#SVGID_3_);}
	.st52{fill:#FCA746;}
	.st53{fill:#CDBFA1;}
	.st54{fill:url(#SVGID_4_);}
	.st55{fill:#C1A435;}
	.st56{fill:#E8CF4F;}
	.st57{fill:url(#SVGID_5_);}
	.st58{fill:#DC514A;}
	.st59{fill:#FF7857;}
	.st60{opacity:0.12;fill:url(#SVGID_6_);}
	.st61{fill:url(#SVGID_7_);}
	.st62{fill:#1E5BC6;}
	.st63{fill:#252C3F;}
	.st64{opacity:0.32;fill:#878883;}
	.st65{opacity:0.55;fill:#6D6E68;}
	.st66{fill:#292C3B;}
	.st67{fill:url(#SVGID_8_);}
	.st68{fill:url(#SVGID_9_);}
	.st69{fill:url(#SVGID_10_);}
	.st70{fill:url(#SVGID_11_);}
	.st71{fill:url(#SVGID_12_);}
	.st72{fill:url(#SVGID_13_);}
	.st73{fill:url(#SVGID_14_);}
	.st74{fill:url(#SVGID_15_);}
	.st75{fill:url(#SVGID_16_);}
	.st76{fill:url(#SVGID_17_);}
	.st77{fill:url(#SVGID_18_);}
	.st78{fill:url(#SVGID_19_);}
	.st79{fill:url(#SVGID_20_);}
	.st80{fill:url(#SVGID_21_);}
	.st81{fill:url(#SVGID_22_);}
	.st82{fill:url(#SVGID_23_);}
	.st83{fill:url(#SVGID_24_);}
	.st84{fill:url(#SVGID_25_);}
</style>
<g>
	<path class="st0" d="M41.5,105.9c0,0-21.7-29-7.5-54.1s22.7,10.6,55.5-5.9s74.3-46.3,95.3-3.4s-6.4,63.4-6.4,63.4L41.5,105.9z"/>
	<g>
		<path class="st1" d="M154.7,59.5c0.1,0,2.4,0.1,2.7,4.2c0.3,4.2,4.2,4.2,3.3,8.5c-0.9,4.3-6.3,2-6.3,2s-8.4-3.4-4.7-8.4
			C153.2,60.9,154.7,59.5,154.7,59.5z"/>
		<path class="st2" d="M153.6,101.1c0.5,0.3,0.6,1.1,0.6,2.1c0,0.4,0,0.2,0,0.8c0,1.2,0.1,1.4,0,2c-0.1,0.4-0.2,0.7-0.4,1
			c-0.3,0.3-0.7,0.3-0.9,0.4c-0.3,0.1-0.8,0.1-1-0.1c-0.1-0.2,0-1.3,0.1-2.1c0.3-2.1,0.5-4,1.2-4.1
			C153.4,100.9,153.5,101,153.6,101.1z"/>
		<path class="st2" d="M156.3,101.1c0.5,0.3,0.6,1.1,0.6,2.1c0,0.4,0,0.2,0,0.8c0,1.2,0.1,1.4,0,2c-0.1,0.4-0.2,0.7-0.4,1
			c-0.3,0.3-0.7,0.3-0.9,0.4c-0.3,0.1-0.8,0.1-1-0.1c-0.1-0.2,0-1.3,0.1-2.1c0.3-2.1,0.5-4,1.2-4.1
			C156.1,100.9,156.2,101,156.3,101.1z"/>
		<path class="st3" d="M153,101c-0.3,1.8-0.7,4.8-0.7,5.4c0,0.2,0.1,0.4,0.1,0.4c0.1,0.1,0.2,0.2,0.8,0c0.2-0.1,0.5-0.2,0.9-0.4
			c-0.1,0.2-0.2,0.3-0.3,0.4c-0.3,0.3-0.7,0.3-0.9,0.4c-0.3,0.1-0.8,0.1-1-0.1c-0.1-0.2,0-1.3,0.1-2.1
			C152.2,103.1,152.4,101.4,153,101z"/>
		<path class="st3" d="M155.8,106.9c-0.6,0.2-0.7,0-0.8,0c-0.1-0.1-0.1-0.2-0.1-0.4c0-0.6,0.5-3.5,0.7-5.3c-0.5,0.5-0.7,2.1-1,4
			c-0.1,0.8-0.2,2-0.1,2.1c0.2,0.2,0.6,0.2,1,0.1c0.3,0,0.6-0.1,0.9-0.4c0.2-0.2,0.3-0.3,0.3-0.5C156.4,106.7,156,106.8,155.8,106.9
			z"/>
		<path class="st4" d="M151.9,85.6c-0.7,1,0,2.1,0.4,4.5c0.4,2.3-0.2,1.8,0.1,5.8c0,0.7,0.3,4.6,0.2,6.3c0,0.5,0,0.7-0.1,1
			c-0.1,0.8-0.3,1-0.2,1.6c0,0.3,0.1,0.9,0.4,1c0.3,0.1,0.8-0.3,1.1-0.7c0.1-0.2,0.2-0.4,0.2-1.5c0-0.8-0.1-0.9-0.1-1.3
			c0-0.7,0.1-1.1,0.3-1.9c0,0,0.3-1.3,0.5-2.5c0.1-0.7,0.4-2.6,0.1-4.8c-0.1-0.8-0.3-1.3-0.3-2.3c0-0.7,0-1.1,0.1-2
			c0.2-2.5,0.3-3.8-0.1-4.1C153.9,84.2,152.5,84.7,151.9,85.6z"/>
		<path class="st5" d="M152.6,102.1c0.1-1.7-0.2-5.6-0.2-6.3c-0.3-4,0.3-3.4-0.1-5.8c-0.4-2.3-1-3.4-0.4-4.5c0.6-0.9,2-1.4,2.5-1
			c0.3,0.2,0.3,1.1,0.2,2.7c-0.2-0.1-0.5-0.2-0.8-0.3c-0.2,0-1.1-0.1-1.5,0.4c-0.1,0.2-0.1,0.4,0,0.8c0.1,0.9,0.2,1.4,0.3,1.9
			c0.1,0.4,0.2,1.1,0.2,2c0,0.4-0.1,0.5-0.1,1.1c0,0.3,0,0.7,0,1.5c0,0.8,0,1.5,0,1.7c0.1,1.9,0.1,2.2,0.1,3c0.1,2.6,0,1.5,0,2.8
			c0,0.2-0.3,1.8-0.3,2c-0.1,0.3-0.1,0.7,0.2,1.3c-0.3-0.2-0.4-0.8-0.4-1c0-0.6,0.1-0.8,0.2-1.6
			C152.6,102.8,152.6,102.6,152.6,102.1z"/>
		<path class="st5" d="M155.1,104.4c0.1-0.2,0.4-1.8,0.4-2c0-1.3,0.1-0.2,0.1-2.8c0-0.8,0-1.2-0.1-3c0-0.3,0-0.9,0-1.7
			c0-0.9,0-1.3,0.1-1.5c0.1-0.7,0.1-0.7,0.1-1.1c0.1-0.9,0-1.6-0.1-2c-0.1-0.5-0.2-0.9-0.3-1.9c-0.1-0.5-0.1-0.7,0.1-0.8
			c0.3-0.5,1.3-0.4,1.5-0.4c0.3,0,0.6,0.2,0.8,0.3c0.2-1.6,0.2-2.5-0.1-2.7c-0.6-0.4-1.9,0-2.6,0.9c-0.7,1-0.1,2.1,0.3,4.5
			c0.3,2.3-0.2,1.8,0,5.8c0,0.7,0.2,4.6,0.1,6.3c0,0.5-0.1,0.7-0.1,1c-0.1,0.8-0.3,1-0.3,1.6c0,0.3,0,0.9,0.3,1
			C155,105.1,155,104.7,155.1,104.4z"/>
		<path class="st4" d="M157.4,90.6c0-0.7,0-1.1,0.1-2c0.1-0.5,0.1-1,0.1-1.4c-0.2-0.1-0.5-0.2-0.8-0.3c-0.2,0-1.1-0.2-1.5,0.4
			c-0.1,0.2-0.1,0.4-0.1,0.8c0.1,0.9,0.2,1.4,0.3,1.9c0.1,0.4,0.2,1.1,0.1,2c0,0.4-0.1,0.5-0.1,1.1c0,0.3,0,0.7-0.1,1.5
			c0,0.8,0,1.5,0,1.7c0,1.9,0,2.2,0.1,3c0,2.6-0.1,1.5-0.1,2.8c0,0.2-0.3,1.8-0.4,2c-0.1,0.3-0.1,0.7,0.1,1.3c0,0,0,0,0,0
			c0.3,0.1,0.8-0.3,1.1-0.7c0.1-0.2,0.2-0.4,0.2-1.5c0-0.8,0-0.9,0-1.3c0-0.7,0.1-1.1,0.3-1.9c0,0,0.3-1.3,0.6-2.5
			c0.1-0.7,0.5-2.6,0.2-4.8C157.5,92.2,157.4,91.7,157.4,90.6z"/>
		<polygon class="st6" points="157.3,75.5 151.7,75.5 150.3,66.1 153.6,65.2 155.2,65.2 158.4,66.1 		"/>
		<path class="st7" d="M151.1,66.2c0.3-0.1,0.9-0.3,2-0.5c0.9-0.2,1.1-0.2,1.3-0.2c0.3,0,0.6,0,1.1,0.1c1.3,0.2,2.1,0.5,2.6,0.6
			c0.2,0.1,0.3,0.1,0.5,0.2c0.1,0.1,0.3,0.1,0.4,0.2c-0.2-0.4-0.4-0.6-0.5-0.6c0,0,0,0,0,0l-3.2-0.8h-1.6l-3.3,0.9l0,0
			c-0.1,0-0.3,0.3-0.6,0.7c0.1-0.1,0.3-0.2,0.5-0.3C150.4,66.4,150.6,66.3,151.1,66.2z"/>
		<path class="st8" d="M159.5,85.7c-0.2-2.7-1.7-8.6-2.1-10c-0.1-0.4-0.2-0.8-0.3-1c-0.4-1.2-4.2-1.5-5.2,0c-0.2,0.3-0.2,0.5-0.3,1
			c-0.2,1.3-2.3,9.8-2.1,10C150.5,86.6,156.5,87.2,159.5,85.7z"/>
		<path class="st7" d="M150.8,68.5c-0.1,0-0.7,1.1-1,1.8c0.1,0,0.2,0.1,0.3,0.1c0.3-0.6,0.6-1.1,0.7-1.4l0.9,6.5h0.5
			c-0.5-2.8-0.8-5.1-1-5.9C151,68.8,150.9,68.5,150.8,68.5z"/>
		<path class="st7" d="M158,68.9c-0.1,0-0.2,0.3-0.4,1.2c-0.1,0.7-0.3,2.8-0.7,5.4h0.4l0.7-6c0,0,0,0,0,0c0,0.3,0.2,0.7,0.5,1.2
			c0.1-0.1,0.2-0.1,0.3-0.2C158.5,69.8,158.1,68.9,158,68.9z"/>
		<path class="st7" d="M150.3,69.8C150.3,69.8,150.3,69.8,150.3,69.8C150.3,69.8,150.3,69.8,150.3,69.8z"/>
		<path class="st7" d="M150.3,69.8c0.2-0.3,0.3-0.6,0.4-0.8l0.9,6.5h0.5c-0.5-2.8-0.8-5.1-1-5.9c-0.1-0.7-0.2-1.1-0.3-1.1
			c0,0.1-0.1,0.3-0.1,0.4C150.7,69.1,150.6,69.4,150.3,69.8z"/>
		<path class="st7" d="M158.6,66.2C158.6,66.2,158.6,66.2,158.6,66.2C158.6,66.2,158.6,66.2,158.6,66.2z"/>
		<path class="st7" d="M158.5,66.1C158.5,66.1,158.5,66.1,158.5,66.1C158.5,66.1,158.5,66.1,158.5,66.1z"/>
		<path class="st7" d="M158.5,66.2C158.5,66.2,158.5,66.2,158.5,66.2C158.5,66.2,158.5,66.2,158.5,66.2z"/>
		<path class="st7" d="M158.7,66.4L158.7,66.4L158.7,66.4z"/>
		<path class="st7" d="M158.5,66.1C158.5,66.1,158.5,66.1,158.5,66.1C158.5,66.1,158.5,66.1,158.5,66.1z"/>
		<path class="st7" d="M158.6,66.3C158.6,66.3,158.6,66.3,158.6,66.3C158.6,66.3,158.6,66.3,158.6,66.3z"/>
		<path class="st7" d="M158.6,66.2C158.6,66.2,158.6,66.2,158.6,66.2C158.6,66.2,158.6,66.2,158.6,66.2z"/>
		<path class="st7" d="M158.4,66.1C158.4,66.1,158.4,66.1,158.4,66.1C158.4,66.1,158.4,66.1,158.4,66.1z"/>
		<path class="st7" d="M158.5,66.1C158.5,66.1,158.5,66.1,158.5,66.1C158.5,66.1,158.5,66.1,158.5,66.1z"/>
		<path class="st7" d="M158,69.5c0-0.2,0-0.3-0.1-0.6c-0.1,0.1-0.2,0.4-0.3,1.1c-0.1,0.7-0.3,2.8-0.7,5.4h0.4L158,69.5
			C158,69.4,158,69.5,158,69.5c0,0.3,0.2,0.7,0.5,1.2c0.1-0.1,0.2-0.1,0.3-0.2l0,0c-0.1,0.1-0.2,0.1-0.3,0.2
			C158.3,70.2,158.1,69.7,158,69.5z"/>
		<path class="st6" d="M158.5,66.2C158.6,66.2,158.6,66.2,158.5,66.2C158.6,66.2,158.6,66.2,158.5,66.2z"/>
		<path class="st6" d="M158.4,66.1C158.4,66.1,158.4,66.1,158.4,66.1C158.4,66.1,158.4,66.1,158.4,66.1z"/>
		<path class="st6" d="M158.5,66.1C158.5,66.1,158.5,66.1,158.5,66.1C158.5,66.1,158.5,66.1,158.5,66.1z"/>
		<path class="st6" d="M158.4,66.1C158.5,66.1,158.5,66.1,158.4,66.1C158.5,66.1,158.5,66.1,158.4,66.1z"/>
		<path class="st6" d="M158.5,66.1C158.5,66.1,158.5,66.1,158.5,66.1C158.5,66.1,158.5,66.1,158.5,66.1z"/>
		<path class="st6" d="M158.5,66.2C158.5,66.2,158.5,66.1,158.5,66.2C158.5,66.1,158.5,66.2,158.5,66.2z"/>
		<path class="st6" d="M158.6,66.2C158.6,66.2,158.6,66.2,158.6,66.2C158.6,66.2,158.6,66.2,158.6,66.2z"/>
		<path class="st6" d="M158.6,66.2C158.6,66.3,158.6,66.3,158.6,66.2C158.6,66.3,158.6,66.3,158.6,66.2z"/>
		<path class="st6" d="M158.6,66.3C158.7,66.3,158.7,66.3,158.6,66.3C158.7,66.3,158.7,66.3,158.6,66.3z"/>
		<path class="st6" d="M150.3,69.8C150.3,69.8,150.3,69.8,150.3,69.8C150.3,69.8,150.3,69.8,150.3,69.8z"/>
		<path class="st9" d="M157.3,75.5c0,0-0.3-3.8-0.3-5c0-1.6,0.2-3,0.3-3.9c0-0.3,0.1-0.6,0.1-0.9l-0.7-0.2c-0.1,0.3-0.1,0.7-0.1,1.1
			c-0.1,0.6-0.2,1.3-0.2,2.2c-0.6-0.1-1.3-0.2-2.1-0.2c-0.7,0-1.3,0.1-1.9,0.1c-0.1-0.9-0.1-1.6-0.2-2.2c0-0.4-0.1-0.7-0.1-1.1
			l-0.7,0.2c0,0.3,0.1,0.6,0.1,0.9c0.1,0.9,0.3,2.2,0.3,3.9c0,0.9,0,5,0,5s-1.2,8.3-0.8,8.9c0.9,1.6,6.6,1.4,7.2,0
			C158.4,83.7,157.3,75.5,157.3,75.5z"/>
		<path class="st10" d="M152.2,69.1c0,0,0.7-0.2,1.8-0.2c1.4,0,2.4,0.3,2.4,0.3s0.2-2.2,0.5-3.5l-0.2-0.1c-0.1,0.3-0.1,0.7-0.1,1.1
			c-0.1,0.6-0.2,1.3-0.2,2.2c-0.6-0.1-1.3-0.2-2.1-0.2c-0.7,0-1.3,0.1-1.9,0.1c-0.1-0.9-0.1-1.6-0.2-2.2c0-0.4-0.1-0.7-0.1-1.1
			l-0.2,0.1c0.1,0.3,0.1,0.7,0.2,1C152.2,68.6,152.2,69.1,152.2,69.1z"/>
		<path class="st10" d="M154.6,85.4c-0.4,0-1.1-0.1-1.2-0.1c-0.4-0.1-1-0.2-1.6-0.5c-0.2-0.1-0.3-0.2-0.4-0.3
			c-0.2-0.3-0.2-0.6-0.1-0.8c0-0.5,0-1.1,0.1-1.6c0.1-0.7,0.1-1.4,0.2-2c0.3-2.5,0.4-5.2,0.4-5.7c0-1.2,0-2,0-3.3
			c-0.1-2.2-0.1-3.2-0.3-4c-0.1-0.5-0.1-0.9-0.2-1.2l-0.1,0c0,0.3,0.1,0.6,0.1,0.9c0.1,0.9,0.3,2.2,0.3,3.9c0,0.9,0,5,0,5
			s-1.2,8.3-0.8,8.9c0.9,1.5,6,1.4,7.1,0.2C156.6,85.2,155.4,85.4,154.6,85.4z"/>
		<path class="st10" d="M157.4,75.7c0,0,0-0.2,0-0.2c-0.9,0.1-1.9-0.3-3-0.3c-1.1,0-2.2,0.1-2.8-0.1l0,0.5c0,0,0,0,0,0.1
			c0.7,0.1,1.7,0.3,2.5,0.3C155.5,76.1,156.5,76,157.4,75.7z"/>
		<path class="st11" d="M157.4,75.6C157.4,75.5,157.3,75.5,157.4,75.6l0.1-0.8c-0.9,0.1-2,0.3-3,0.2c-1.1,0-2.3-0.2-2.8-0.4l0.1,0.8
			c0,0,0,0,0,0.1c0.7,0.1,1.7,0.3,2.5,0.3C155.5,75.9,156.4,75.8,157.4,75.6z"/>
		<path class="st6" d="M159.4,68.7l0-0.2L159.4,68.7c-0.1,0-0.2,0.1-0.3,0l-0.2,0l0.2,0.1c0.1,0,0.1,0.1,0.1,0.2l0,0.2l0.1-0.2
			c0-0.1,0.1-0.1,0.2-0.1l0.2,0l-0.2-0.1C159.5,68.8,159.4,68.8,159.4,68.7z"/>
		<path class="st4" d="M150.3,66.1c-0.4,0-3.7,5.5-4.2,8.2c-0.1,0.4-0.2,0.6,0,0.8c0.1,0.2,0.6,0.2,0.8,0.1c0.2,0,3.6-5.4,3.7-6.4
			C150.9,67.9,150.8,66.1,150.3,66.1z"/>
		<path class="st4" d="M146.9,75.3c-0.4,0.2-6.1-2.7-6.5-3.1c-0.2-0.2,0.2-0.8,0.5-0.9c0.2-0.1,5.7,1.9,6.1,2.5
			C147.4,74.5,147.3,75.1,146.9,75.3z"/>
		<path class="st6" d="M150.3,66.1c-0.2,0-1.1,1.3-2,3c0.2,0.2,0.4,0.3,0.6,0.5c0.4,0.3,0.8,0.6,1.2,0.8c0.4-0.7,0.6-1.2,0.7-1.5
			C151.2,67.5,150.8,66.1,150.3,66.1z"/>
		<path class="st7" d="M149.8,70.2c0.1,0,0.2,0.1,0.3,0.1c0.1-0.2,0.2-0.3,0.3-0.5c0,0,0,0,0,0c0,0,0,0,0,0c0.2-0.4,0.4-0.8,0.4-0.9
			c0-0.1,0.1-0.3,0.1-0.4c0,0,0,0,0,0C150.7,68.5,150.2,69.5,149.8,70.2z"/>
		<path class="st7" d="M150.3,66.1c-0.1,0-0.3,0.3-0.7,0.7c0.1-0.1,0.3-0.2,0.5-0.3c0.1-0.1,0.3-0.1,0.5-0.2
			C150.6,66.2,150.5,66.1,150.3,66.1z"/>
		<path class="st4" d="M141.7,71.9c0-0.2-0.3-0.4-0.6-0.5c-0.4-0.1-0.6,0-0.8,0.2c-0.2,0.2-0.6,0.7-0.6,1.1c0,0.4,0.8,0.8,1.3,0.8
			C141.5,73.5,141.8,72.5,141.7,71.9z"/>
		<path class="st4" d="M158.6,67.2c-0.3,0.1-0.9,6.3-0.4,9.1c0.1,0.4,0.1,0.6,0.2,0.8c0.1,0.1,0.8-2.1,1-2.2
			c0.2-0.1,0.8-3.8,0.6-4.7C159.8,69.1,158.7,67.1,158.6,67.2z"/>
		<path class="st4" d="M159.5,74.5c0.2,0.5-1.7,5.6-2.4,5.6c0,0-0.5,0.3-0.6,0.1c-0.4-0.4,1.3-5.8,1.8-6.1
			C158.8,73.8,159.2,74,159.5,74.5z"/>
		<path class="st5" d="M159,75.2c0.2-0.6,0.5-2.4,0.6-3.5c0.1-0.7,0.1-1.5,0.2-2.3c0.1,0.3,0.2,0.5,0.2,0.7c0.2,0.9-0.4,4.6-0.6,4.7
			c-0.2,1.2-1.8,5.3-2.4,5.3c0,0,0.7-0.8,0.3-0.7C157.9,78.1,158.9,75.8,159,75.2z"/>
		<path class="st6" d="M159.9,69.9c-0.5-1.9-1.1-3.4-1.2-3.5c-0.5-0.1-0.9,2.2-1,3.3c0,0.3,0.1,0.7,0.3,1.3c0.4-0.1,0.8-0.3,1.2-0.6
			C159.5,70.2,159.7,70,159.9,69.9z"/>
		<path class="st7" d="M158.9,66.7c-0.1-0.1-0.1-0.2-0.2-0.3l0,0c0,0,0-0.1-0.1-0.1c0,0,0,0,0,0c0,0,0,0,0,0c0,0,0,0,0,0
			c0,0,0,0,0,0c0,0,0,0,0,0c0,0,0,0,0,0c0,0,0,0,0,0c0,0,0,0,0,0c0,0,0,0,0,0c0,0,0,0,0,0c0,0,0,0,0,0c0,0,0,0,0,0c0,0,0,0,0,0
			c0,0,0,0,0,0c0,0,0,0,0,0c0,0,0,0,0,0c-0.1,0-0.2,0.1-0.2,0.3c0.1,0,0.2,0.1,0.3,0.1C158.7,66.5,158.8,66.6,158.9,66.7z"/>
		<path class="st7" d="M157.8,69.1C157.8,69.1,157.8,69.1,157.8,69.1c-0.1,0.2-0.1,0.4-0.1,0.6c0,0.3,0.1,0.7,0.3,1.3
			c0.1,0,0.2-0.1,0.3-0.1C158.1,70.1,157.9,69.1,157.8,69.1z"/>
		<path class="st12" d="M154.8,66.8l-0.1-6.1c0,0-2.8-1.7-3-0.1c0,0-1,4.4,1.3,4.2l0,1.3c0,0,0.5,0.9,1.1,1
			C154.8,67.2,154.8,66.8,154.8,66.8z"/>
		<path class="st1" d="M154.6,62.4c0,0-0.7-0.7-0.9-1.9c0,0-1,0.8-2.4,0.7c-1.4-0.1-1.2-2.5-0.3-2.5c0.9,0,2.7,1,2.7,1
			s1.1-0.8,1.6,0.4c0.5,1.3-0.3,2.4-0.3,2.4L154.6,62.4z"/>
		<g>
			<g>
				<path class="st1" d="M153.1,62.4C153.1,62.4,153.1,62.4,153.1,62.4c0,0.2,0,0.4,0.1,0.4c0,0,0,0,0,0
					C153,62.8,153,62.5,153.1,62.4z"/>
				<path class="st1" d="M153.3,62.2c0.3,0,0.2,0.5,0,0.5C153,62.7,153,62.2,153.3,62.2z"/>
			</g>
			<g>
				<path class="st1" d="M152.2,62.3C152.2,62.3,152.1,62.3,152.2,62.3c0,0.2-0.1,0.4-0.2,0.4c0,0,0,0,0,0
					C152.1,62.7,152.2,62.4,152.2,62.3z"/>
				<path class="st1" d="M152,62.1c-0.3-0.1-0.4,0.5-0.1,0.5C152.2,62.7,152.3,62.1,152,62.1z"/>
			</g>
			<path class="st1" d="M153.5,62c-0.1,0-0.1-0.1-0.2-0.1c-0.1,0-0.1-0.1-0.2-0.1c0,0,0-0.1,0-0.1c0.1-0.1,0.2,0,0.3,0
				c0.1,0,0.2,0.1,0.2,0.2C153.7,61.9,153.6,62,153.5,62z"/>
			<path class="st1" d="M151.9,61.8c0.1,0,0.1,0,0.2,0c0.1,0,0.2,0,0.2-0.1c0,0,0-0.1,0-0.1c-0.1-0.1-0.2-0.1-0.3-0.1
				c-0.1,0-0.2,0-0.3,0.1C151.7,61.7,151.8,61.8,151.9,61.8z"/>
			<g>
				<g>
					<path class="st1" d="M153.2,63.4c-0.1,0.1-0.3,0.2-0.4,0.2c-0.1,0-0.1,0-0.2,0c0,0,0,0,0,0c0,0,0,0,0,0c0,0,0,0,0,0l0,0
						c0,0,0,0,0,0c0,0,0,0,0,0l0,0c0-0.1,0.1-0.3,0.1-0.3c-0.1,0-0.3,0.1-0.3,0c0.1-0.5,0.2-1.1,0.4-1.6c0,0,0,0,0,0
						c-0.1,0.5-0.3,1-0.3,1.5c0.1,0,0.2-0.1,0.3,0c0,0-0.1,0.4-0.1,0.4c0,0,0,0,0,0C152.8,63.6,153,63.5,153.2,63.4
						C153.2,63.4,153.2,63.4,153.2,63.4z"/>
				</g>
			</g>
			<g>
				<path class="st1" d="M152.9,64.2c-0.1,0-0.1,0-0.2,0c-0.1,0-0.1-0.1-0.1-0.1c0,0,0,0,0,0c0,0.1,0.1,0.1,0.2,0.2
					C152.8,64.4,152.9,64.3,152.9,64.2C153,64.3,153,64.2,152.9,64.2z"/>
				<g>
					<path class="st1" d="M152.4,63.7c0,0,0,0.2,0.2,0.3c0,0,0.1,0.1,0.2,0.1c0.1,0,0.2-0.1,0.2-0.2c0-0.1,0-0.2,0-0.2
						S152.7,63.8,152.4,63.7z"/>
					<path class="st13" d="M152.6,64c0,0,0.1,0.1,0.2,0.1c0.1,0,0.2-0.1,0.2-0.2C152.8,63.8,152.7,63.9,152.6,64z"/>
				</g>
			</g>
		</g>
		<g>
			<path class="st12" d="M154.4,62.8c0,0,0.3-0.9,0.7-0.8c0.4,0.1,0.3,1.3,0,1.5c-0.4,0.3-0.6,0-0.6,0L154.4,62.8z"/>
			<path class="st1" d="M155.1,62.3C155.1,62.3,155.1,62.3,155.1,62.3c-0.2,0.2-0.3,0.5-0.3,0.8c0.1-0.1,0.2-0.2,0.3-0.2
				c0,0,0,0,0,0c-0.1,0-0.2,0.1-0.3,0.2c0,0.1,0,0.2-0.1,0.3c0,0-0.1,0-0.1,0c0,0,0,0,0,0C154.6,63.1,154.7,62.5,155.1,62.3z"/>
		</g>
		<g>
			<path class="st14" d="M152.3,62.5c-0.1,0.4-0.5,0.6-0.9,0.5c-0.4-0.1-0.6-0.6-0.4-1c0.1-0.4,0.5-0.6,0.9-0.5
				C152.3,61.6,152.5,62.1,152.3,62.5z"/>
			<path class="st14" d="M154.2,62.6c-0.1,0.4-0.5,0.6-0.9,0.5c-0.4-0.1-0.6-0.6-0.4-1c0.1-0.4,0.5-0.6,0.9-0.5
				C154.1,61.7,154.3,62.2,154.2,62.6z"/>
			<line class="st14" x1="152.4" y1="62.3" x2="152.8" y2="62.3"/>
		</g>
		<path class="st4" d="M156.8,79c-0.1-0.1-0.9-0.1-1.2,0s-0.5,2-0.3,1.9c0.1,0,0.1,0,0.3-0.6c0,0-0.2,1.1,0.1,1.1
			c0.2,0,0.5-1.4,0.5-1.4s-0.1,0.5,0.2,0.6c0.4,0.1,1.1-0.9,1.1-0.9L156.8,79z"/>
		<g>
			<polygon class="st15" points="163.2,106.7 90.5,106.7 89.6,85.3 100.2,85.3 101.9,99 114.9,99 117.2,85.3 164,85.3 			"/>
			<g>
				<rect x="116.1" y="93.5" class="st16" width="47.7" height="0.2"/>
			</g>
			<g>
				
					<rect x="143" y="95.9" transform="matrix(3.575317e-002 0.9994 -0.9994 3.575317e-002 244.1152 -60.9795)" class="st17" width="21.4" height="0.2"/>
			</g>
			<g>
				
					<rect x="137.2" y="85.3" transform="matrix(0.9993 3.855480e-002 -3.855480e-002 0.9993 3.8038 -5.2208)" class="st17" width="0.2" height="21.4"/>
			</g>
			<g>
				
					<rect x="120.4" y="85.3" transform="matrix(0.9993 3.855480e-002 -3.855480e-002 0.9993 3.7914 -4.5755)" class="st17" width="0.2" height="21.4"/>
			</g>
			<g>
				
					<rect x="83.9" y="95.9" transform="matrix(3.575317e-002 0.9994 -0.9994 3.575317e-002 187.158 -1.9481)" class="st17" width="21.4" height="0.2"/>
			</g>
			<g>
				
					<rect x="142.8" y="95.9" transform="matrix(3.575237e-002 0.9994 -0.9994 3.575237e-002 243.9614 -60.8198)" class="st16" width="21.4" height="0.2"/>
			</g>
			<g>
				
					<rect x="137" y="85.3" transform="matrix(0.9993 3.855480e-002 -3.855480e-002 0.9993 3.8037 -5.2146)" class="st16" width="0.2" height="21.4"/>
			</g>
			<g>
				
					<rect x="120.3" y="85.3" transform="matrix(0.9993 3.855480e-002 -3.855480e-002 0.9993 3.7912 -4.5694)" class="st16" width="0.2" height="21.4"/>
			</g>
			<g>
				
					<rect x="83.7" y="95.9" transform="matrix(3.575237e-002 0.9994 -0.9994 3.575237e-002 187.004 -1.7883)" class="st16" width="21.4" height="0.2"/>
			</g>
			<g>
				<g id="XMLID_17_">
					<rect id="XMLID_18_" x="89.9" y="93.7" class="st17" width="11.5" height="0.2"/>
				</g>
			</g>
			<g>
				<rect x="116" y="93.3" class="st17" width="47.7" height="0.2"/>
			</g>
			<polygon class="st16" points="89.6,85.3 99.6,85.3 101.7,99.5 115.2,99.5 117.4,85.3 164.5,85.3 164.7,83.7 116.5,83.7 
				114.7,98.7 102.3,98.7 100.6,83.7 89.4,83.7 			"/>
			<polygon class="st18" points="164,85.3 164,87.2 117,87.7 117.4,85.3 			"/>
			<path class="st16" d="M163.2,106.7l0.2-5.3l0.1-2.7c0-0.9,0.1-1.8,0.1-2.7l0.4-10.7l0-0.1h0.1h0.4l-0.1,0.1l0.2-1.7l0.1,0.1
				h-24.1h-12l-3,0l-3,0l-6-0.1l6-0.1l3,0l3,0h12h24.1h0.1l0,0.1l-0.2,1.7l0,0.1h-0.1H164l0.1-0.1L163.7,96c0,0.9-0.1,1.8-0.1,2.7
				l-0.1,2.7L163.2,106.7z"/>
			<polygon class="st18" points="115.2,99.5 114.5,100.9 99.9,101.2 97.5,87.7 89.7,88 89.6,85.3 99.6,85.3 101.7,99.5 			"/>
			<linearGradient id="SVGID_1_" gradientUnits="userSpaceOnUse" x1="142.9365" y1="79.0881" x2="139.0509" y2="110.4504">
				<stop  offset="0" style="stop-color:#FDD8A4"/>
				<stop  offset="0.4741" style="stop-color:#77654D"/>
				<stop  offset="0.8827" style="stop-color:#000000"/>
			</linearGradient>
			<path class="st19" d="M151,87.3l-7.1,19.1h-5.9l2.5-19L151,87.3z M132.8,87.6l1.1,18.9h3.9l1.8-19L132.8,87.6z"/>
		</g>
	</g>
	<g>
		<path class="st20" d="M75.4,73.4h-9.9c-0.3,0-0.5-0.2-0.5-0.5v-0.3c0-0.3,0.2-0.5,0.5-0.5h9.9c0.3,0,0.5,0.2,0.5,0.5v0.3
			C76,73.1,75.7,73.4,75.4,73.4z"/>
		<path class="st21" d="M75.4,72h-9.9c-0.3,0-0.5-0.2-0.5-0.5v-0.3c0-0.3,0.2-0.5,0.5-0.5h9.9c0.3,0,0.5,0.2,0.5,0.5v0.3
			C76,71.8,75.7,72,75.4,72z"/>
		<path class="st15" d="M75.8,70.6H65.7c-0.4,0-0.7-0.3-0.7-0.7v-0.4c0-0.4,0.3-0.7,0.7-0.7h10.1c0.4,0,0.7,0.3,0.7,0.7v0.4
			C76.5,70.3,76.2,70.6,75.8,70.6z"/>
	</g>
	<g>
		<rect x="50.3" y="73.5" class="st22" width="23.7" height="33.1"/>
		<rect x="53.3" y="73.5" class="st6" width="23.7" height="33.1"/>
		<rect x="53.3" y="73.5" class="st23" width="23.7" height="33.1"/>
		<rect x="53.3" y="101.2" class="st24" width="23.7" height="0.5"/>
		<rect x="53.3" y="101.2" class="st25" width="23.7" height="0.2"/>
		<rect x="53.3" y="73.5" class="st17" width="23.7" height="6.5"/>
		<rect x="53.3" y="79.4" class="st24" width="23.7" height="0.4"/>
		<rect x="53.3" y="79.4" class="st22" width="23.7" height="0.2"/>
		<rect x="53.3" y="73.5" class="st17" width="23.7" height="1.5"/>
		<path class="st9" d="M55.6,75.4h4.7c0.4,0,0.7,0.3,0.7,0.7v2.5c0,0.2-0.2,0.4-0.4,0.4h-5.4c-0.2,0-0.4-0.2-0.4-0.4v-2.5
			C54.9,75.7,55.2,75.4,55.6,75.4z"/>
		<path class="st26" d="M55.6,75.4h4.8c0.4,0,0.6,0.3,0.6,0.6v2c0,0.2-0.1,0.3-0.3,0.3h-5.5c-0.2,0-0.3-0.1-0.3-0.3v-2
			C54.9,75.7,55.2,75.4,55.6,75.4z"/>
		<circle class="st27" cx="65" cy="77.2" r="1.2"/>
		<path class="st28" d="M64.7,76c-0.4,0.2-0.6,0.6-0.6,1.1c0,0.7,0.5,1.2,1.2,1.2c0.1,0,0.2,0,0.3,0c-0.2,0.1-0.3,0.1-0.5,0.1
			c-0.7,0-1.2-0.5-1.2-1.2C63.9,76.6,64.2,76.2,64.7,76z"/>
		<circle class="st26" cx="65" cy="77.2" r="0.9"/>
		<circle class="st26" cx="65" cy="77.2" r="0.9"/>
		<path class="st29" d="M64.8,76.3c-0.1,0.1-0.2,0.3-0.2,0.5c0,0.5,0.4,0.9,0.9,0.9c0.1,0,0.1,0,0.2,0C65.5,77.9,65.3,78,65,78
			c-0.5,0-0.9-0.4-0.9-0.9C64.2,76.8,64.5,76.4,64.8,76.3z"/>
		<path class="st16" d="M58.6,75.7h1.9c0,0,0.1,0,0.1,0.1v0.6c0,0,0,0.1-0.1,0.1h-1.9c0,0-0.1,0-0.1-0.1L58.6,75.7
			C58.5,75.8,58.5,75.7,58.6,75.7z"/>
		<path class="st30" d="M74.3,75.4h1.5c0.1,0,0.2,0.1,0.2,0.2v0.4c0,0.1-0.1,0.2-0.2,0.2h-1.5c-0.1,0-0.2-0.1-0.2-0.2v-0.4
			C74.1,75.5,74.2,75.4,74.3,75.4z"/>
		<path class="st15" d="M74.3,75.4h1.4c0.1,0,0.2,0.1,0.2,0.2v0.3c0,0.1-0.1,0.2-0.2,0.2h-1.4c-0.1,0-0.2-0.1-0.2-0.2v-0.3
			C74.1,75.5,74.2,75.4,74.3,75.4z"/>
		<path class="st9" d="M74.3,75.4h0.1c0,0,0,0,0,0v0.4c0,0.1,0.1,0.2,0.2,0.2h1.3c0,0.1-0.1,0.1-0.2,0.1h-1.5
			c-0.1,0-0.2-0.1-0.2-0.2v-0.4C74.1,75.5,74.2,75.4,74.3,75.4z"/>
		<g>
			<path class="st15" d="M67.1,75.7h0.7c0.1,0,0.1,0,0.1,0.1V76c0,0.1,0,0.1-0.1,0.1h-0.7C67,76.1,67,76,67,76L67.1,75.7
				C67,75.7,67,75.7,67.1,75.7z"/>
			<path class="st15" d="M67.1,76.4h0.7c0.1,0,0.1,0,0.1,0.1v0.2c0,0.1,0,0.1-0.1,0.1h-0.7c-0.1,0-0.1,0-0.1-0.1L67.1,76.4
				C67,76.4,67,76.4,67.1,76.4z"/>
			<path class="st15" d="M67.1,77.1h0.7c0.1,0,0.1,0,0.1,0.1v0.2c0,0.1,0,0.1-0.1,0.1h-0.7c-0.1,0-0.1,0-0.1-0.1L67.1,77.1
				C67,77.1,67,77.1,67.1,77.1z"/>
			<path class="st15" d="M67.1,77.8h0.7c0.1,0,0.1,0,0.1,0.1V78c0,0.1,0,0.1-0.1,0.1h-0.7c-0.1,0-0.1,0-0.1-0.1L67.1,77.8
				C67,77.8,67,77.8,67.1,77.8z"/>
			<path class="st15" d="M67.1,78.5h0.7c0.1,0,0.1,0,0.1,0.1v0.2c0,0.1,0,0.1-0.1,0.1h-0.7c-0.1,0-0.1,0-0.1-0.1L67.1,78.5
				C67,78.5,67,78.5,67.1,78.5z"/>
		</g>
		<g>
			<path class="st15" d="M62.3,75.7H63c0.1,0,0.1,0,0.1,0.1V76c0,0.1,0,0.1-0.1,0.1h-0.7c-0.1,0-0.1,0-0.1-0.1L62.3,75.7
				C62.2,75.7,62.2,75.7,62.3,75.7z"/>
			<path class="st15" d="M62.3,76.4H63c0.1,0,0.1,0,0.1,0.1v0.2c0,0.1,0,0.1-0.1,0.1h-0.7c-0.1,0-0.1,0-0.1-0.1L62.3,76.4
				C62.2,76.4,62.2,76.4,62.3,76.4z"/>
			<path class="st15" d="M62.3,77.1H63c0.1,0,0.1,0,0.1,0.1v0.2c0,0.1,0,0.1-0.1,0.1h-0.7c-0.1,0-0.1,0-0.1-0.1L62.3,77.1
				C62.2,77.1,62.2,77.1,62.3,77.1z"/>
			<path class="st15" d="M62.3,77.8H63c0.1,0,0.1,0,0.1,0.1V78c0,0.1,0,0.1-0.1,0.1h-0.7c-0.1,0-0.1,0-0.1-0.1L62.3,77.8
				C62.2,77.8,62.2,77.8,62.3,77.8z"/>
			<path class="st15" d="M62.3,78.5H63c0.1,0,0.1,0,0.1,0.1v0.2c0,0.1,0,0.1-0.1,0.1h-0.7c-0.1,0-0.1,0-0.1-0.1L62.3,78.5
				C62.2,78.5,62.2,78.5,62.3,78.5z"/>
		</g>
		<circle class="st26" cx="75.4" cy="78" r="0.5"/>
		<rect x="53.3" y="106.1" class="st24" width="23.7" height="0.5"/>
		<path class="st24" d="M56.3,102.9h5.2c0.2,0,0.3,0.1,0.3,0.3v3.4H56v-3.4C56,103.1,56.1,102.9,56.3,102.9z"/>
		<path class="st31" d="M56.8,103.5H61c0.1,0,0.3,0.1,0.3,0.3v2.8h-4.7v-2.8C56.5,103.6,56.6,103.5,56.8,103.5z"/>
		<path class="st32" d="M57.1,104.1h3.7c0,0,0.1,0,0.1,0.1v0.1c0,0,0,0.1-0.1,0.1h-3.7c0,0-0.1,0-0.1-0.1L57.1,104.1
			C57,104.1,57,104.1,57.1,104.1z"/>
		<path class="st32" d="M57.1,104.8h3.7c0,0,0.1,0,0.1,0.1v0.1c0,0,0,0.1-0.1,0.1h-3.7c0,0-0.1,0-0.1-0.1L57.1,104.8
			C57,104.8,57,104.8,57.1,104.8z"/>
		<path class="st32" d="M57.1,105.5h3.7c0,0,0.1,0,0.1,0.1v0.1c0,0,0,0.1-0.1,0.1h-3.7c0,0-0.1,0-0.1-0.1L57.1,105.5
			C57,105.6,57,105.5,57.1,105.5z"/>
		<rect x="53.3" y="74.6" class="st24" width="23.7" height="0.3"/>
		<rect x="53.3" y="74.5" class="st22" width="23.7" height="0.2"/>
		<path class="st33" d="M55.6,75.4L55.6,75.4c0.1,0.1,0.1,0.3,0.2,0.5c0.4,1.2,1.6,1.8,2.1,1.9c0.3,0.1,0.9,0.2,2.1,0.2
			c0.3,0,0.6,0,1,0v0.3h-6.1v-2.2C54.9,75.7,55.2,75.4,55.6,75.4z"/>
		
			<ellipse transform="matrix(-0.5647 -0.8253 0.8253 -0.5647 38.8169 174.3273)" class="st34" cx="65.4" cy="76.9" rx="0.4" ry="0.3"/>
		<g>
			<circle class="st26" cx="75.4" cy="78" r="0.5"/>
			<path class="st35" d="M75.3,77.4c-0.1,0.1-0.1,0.2-0.1,0.4c0,0.3,0.2,0.5,0.5,0.5c0,0,0.1,0,0.1,0c-0.1,0.1-0.2,0.2-0.4,0.2
				c-0.3,0-0.5-0.2-0.5-0.5C74.9,77.7,75,77.5,75.3,77.4z"/>
			
				<ellipse transform="matrix(-0.5558 -0.8313 0.8313 -0.5558 52.9602 183.9482)" class="st36" cx="75.6" cy="77.8" rx="0.2" ry="0.2"/>
		</g>
		<g>
			<circle class="st24" cx="73.7" cy="78" r="0.3"/>
			<path class="st37" d="M73.6,77.6c-0.1,0.1-0.1,0.1-0.1,0.2c0,0.2,0.2,0.3,0.3,0.3c0,0,0.1,0,0.1,0c-0.1,0.1-0.2,0.1-0.3,0.1
				c-0.2,0-0.3-0.2-0.3-0.3C73.4,77.8,73.5,77.6,73.6,77.6z"/>
			
				<ellipse transform="matrix(-0.5558 -0.8313 0.8313 -0.5558 50.1937 182.5511)" class="st16" cx="73.9" cy="77.9" rx="0.2" ry="0.1"/>
		</g>
		<g>
			<circle class="st24" cx="72.4" cy="78" r="0.3"/>
			<path class="st37" d="M72.3,77.6c-0.1,0.1-0.1,0.1-0.1,0.2c0,0.2,0.2,0.3,0.3,0.3c0,0,0.1,0,0.1,0c-0.1,0.1-0.2,0.1-0.3,0.1
				c-0.2,0-0.3-0.2-0.3-0.3C72.1,77.8,72.2,77.6,72.3,77.6z"/>
			
				<ellipse transform="matrix(-0.5558 -0.8313 0.8313 -0.5558 48.1469 181.4577)" class="st16" cx="72.6" cy="77.9" rx="0.2" ry="0.1"/>
		</g>
		<g>
			<circle class="st24" cx="71.1" cy="78" r="0.3"/>
			<path class="st37" d="M71,77.6c-0.1,0.1-0.1,0.1-0.1,0.2c0,0.2,0.2,0.3,0.3,0.3c0,0,0.1,0,0.1,0c-0.1,0.1-0.2,0.1-0.3,0.1
				c-0.2,0-0.3-0.2-0.3-0.3C70.7,77.8,70.9,77.6,71,77.6z"/>
			
				<ellipse transform="matrix(-0.5558 -0.8313 0.8313 -0.5558 46.1009 180.3644)" class="st16" cx="71.2" cy="77.9" rx="0.2" ry="0.1"/>
		</g>
		<path class="st16" d="M74.7,75.5h1c0,0,0.1,0,0.1,0.1c0,0,0,0.1-0.1,0.1h-1C74.7,75.7,74.7,75.7,74.7,75.5
			C74.7,75.6,74.7,75.5,74.7,75.5z"/>
		<rect x="53.3" y="106.3" class="st31" width="23.7" height="0.2"/>
		<path class="st38" d="M56.1,97.3c0,3.1,2.5,5.7,5.7,5.7H77l0,3.6H53.3V73.5h2.9L56.1,97.3z"/>
		<circle class="st24" cx="65" cy="89.6" r="9.1"/>
		<circle class="st15" cx="65" cy="89.6" r="9.1"/>
		<path class="st39" d="M63.3,80.7c-3.8,1.1-6.5,4.6-6.5,8.7c0,5,4.1,9.1,9.1,9.1c0.6,0,1.2-0.1,1.7-0.2c-0.8,0.2-1.7,0.4-2.6,0.4
			c-5,0-9.1-4.1-9.1-9.1C56,85.2,59.1,81.5,63.3,80.7z"/>
		<circle class="st26" cx="65" cy="89.6" r="7.2"/>
		<ellipse class="st40" cx="65" cy="89.2" rx="6.3" ry="6.2"/>
		<ellipse class="st26" cx="65" cy="89.2" rx="4.4" ry="5.2"/>
		<path class="st41" d="M63.3,91.8c0.9-0.2,2.2-0.7,4.1-0.6c1.4,0,2.5,0.3,3.3,0.6c-1,2.1-3.2,3.6-5.7,3.6c-2.7,0-5-1.7-5.9-4.1
			C60.9,92.1,62.3,92.1,63.3,91.8z"/>
		<path class="st18" d="M63,83.3c-0.5,0.9-0.8,2-0.8,3.1c0,3.6,2.9,6.5,6.5,6.5c0.6,0,1.1-0.1,1.6-0.2c-1.1,1.7-3.1,2.8-5.2,2.8
			c-3.5,0-6.3-2.8-6.3-6.2C58.8,86.5,60.5,84.2,63,83.3z"/>
		
			<ellipse transform="matrix(-0.5218 -0.8531 0.8531 -0.5218 29.1034 190.2883)" class="st42" cx="67.9" cy="87" rx="2.7" ry="1.5"/>
		<g>
			<path class="st16" d="M70.5,83.2c0.1-0.2,0.3-0.2,0.5-0.1c0.3,0.3,0.6,0.6,0.9,0.9c0.3,0.4,0.6,0.8,0.7,1.3
				c0.1,0.2,0,0.4-0.2,0.4l0,0c-0.2,0.1-0.3,0-0.4-0.2c-0.2-0.4-0.4-0.8-0.7-1.2c-0.2-0.3-0.5-0.6-0.8-0.8
				C70.4,83.6,70.4,83.4,70.5,83.2L70.5,83.2z"/>
		</g>
		<g>
			<path class="st16" d="M70.2,95.7c0.7-0.6,1.2-1.2,1.7-2c0.3-0.5,1.1-1.9,1.2-3.9c0-0.7,0-1.4-0.1-2.1c0-0.2,0.1-0.3,0.2-0.4l0,0
				c0.2,0,0.4,0.1,0.4,0.3c0.1,0.8,0.2,1.5,0.2,2.3c-0.1,2.1-0.9,3.6-1.3,4.2c-0.5,0.8-1.1,1.5-1.8,2.1c-0.1,0.1-0.4,0.1-0.5,0l0,0
				C70,96,70.1,95.8,70.2,95.7z"/>
		</g>
	</g>
	<g>
		<path class="st26" d="M112,93.9c0,0,4.3-4.8,2.5-5.2c-1.8-0.4-2.9,0.7-2.9,0.7s-1.3-3-2.8-2c-1.4,1-3.6,5.8-3.2,6.6
			C105.9,94.9,112,93.9,112,93.9z"/>
		<path class="st20" d="M104,93.5l6.9-1.3c0,0,0-2.4-0.7-2.6s-5.9-1.8-6.7-0.7C102.8,90,104,93.5,104,93.5z"/>
		<g>
			<path class="st26" d="M108.6,91.8c0,0,4.9,0.3,5,1.7c0.2,1.4-0.3,3-0.3,3l-5.2-0.9L108.6,91.8z"/>
			<path class="st43" d="M113.7,94.3c0,0-2.3-1.5-4.6,0.9c-2.3,2.4-3,2.7-3,2.7h6.8L113.7,94.3z"/>
			<path class="st6" d="M106.3,89.9c0,0-3.9,5.2-2.5,7.5c0,0,3.1,1.5,5,0.3c1.9-1.2,0.5-7.3,0.5-7.3L106.3,89.9z"/>
			<g>
				<g>
					<rect x="106.8" y="92.8" class="st44" width="0.5" height="0.7"/>
					<rect x="109.8" y="92.8" class="st44" width="0.5" height="0.7"/>
					<rect x="110.8" y="92.8" class="st44" width="0.5" height="0.7"/>
					<rect x="107.8" y="92.8" class="st44" width="0.5" height="0.7"/>
					<rect x="108.8" y="92.8" class="st44" width="0.5" height="0.7"/>
					<rect x="111.8" y="92.8" class="st44" width="0.5" height="0.7"/>
					<polygon class="st44" points="103.2,92.8 103.3,93.2 103.3,92.8 					"/>
					<rect x="107.8" y="96.8" class="st44" width="0.5" height="0.7"/>
					<rect x="112.8" y="92.8" class="st44" width="0.5" height="0.7"/>
					<rect x="108.8" y="94.1" class="st44" width="0.5" height="0.7"/>
					<rect x="111.8" y="94.1" class="st44" width="0.5" height="0.7"/>
					<rect x="107.8" y="94.1" class="st44" width="0.5" height="0.7"/>
					<rect x="109.8" y="94.1" class="st44" width="0.5" height="0.7"/>
					<rect x="110.8" y="94.1" class="st44" width="0.5" height="0.7"/>
					<rect x="112.8" y="94.1" class="st44" width="0.5" height="0.7"/>
					<rect x="104.8" y="92.8" class="st44" width="0.5" height="0.7"/>
					<rect x="103.8" y="92.8" class="st44" width="0.5" height="0.7"/>
					<rect x="105.8" y="92.8" class="st44" width="0.5" height="0.7"/>
					<path class="st44" d="M104.3,96.8h-0.5v0.3l0,0.3c0,0,0,0.1,0,0.1h0.5V96.8z"/>
					<rect x="105.8" y="96.8" class="st44" width="0.5" height="0.7"/>
					<rect x="104.8" y="96.8" class="st44" width="0.5" height="0.7"/>
					<rect x="111.8" y="91.4" class="st44" width="0.5" height="0.7"/>
					<rect x="112.8" y="91.4" class="st44" width="0.5" height="0.7"/>
					<path class="st44" d="M112.8,96.8v0.7h0.5c0,0,0-0.1,0-0.1l0-0.3v-0.3H112.8z"/>
					<polygon class="st44" points="113.8,92.2 114,92.2 114.1,91.4 113.8,91.4 					"/>
					<polygon class="st44" points="113.8,93.2 113.9,92.8 113.8,92.8 					"/>
					<rect x="110.8" y="91.4" class="st44" width="0.5" height="0.7"/>
					<rect x="105.8" y="91.4" class="st44" width="0.5" height="0.7"/>
					<rect x="104.8" y="91.4" class="st44" width="0.5" height="0.7"/>
					<rect x="106.8" y="91.4" class="st44" width="0.5" height="0.7"/>
					<rect x="103.8" y="91.4" class="st44" width="0.5" height="0.7"/>
					<rect x="106.8" y="96.8" class="st44" width="0.5" height="0.7"/>
					<rect x="107.8" y="91.4" class="st44" width="0.5" height="0.7"/>
					<rect x="109.8" y="91.4" class="st44" width="0.5" height="0.7"/>
					<rect x="108.8" y="91.4" class="st44" width="0.5" height="0.7"/>
					<polygon class="st44" points="103.3,91.4 103.1,91.4 103.2,92.2 103.3,92.2 					"/>
					<rect x="111.8" y="95.5" class="st44" width="0.5" height="0.7"/>
					<rect x="110.8" y="96.8" class="st44" width="0.5" height="0.7"/>
					<rect x="110.8" y="95.5" class="st44" width="0.5" height="0.7"/>
					<rect x="109.8" y="95.5" class="st44" width="0.5" height="0.7"/>
					<rect x="112.8" y="95.5" class="st44" width="0.5" height="0.7"/>
					<rect x="109.8" y="96.8" class="st44" width="0.5" height="0.7"/>
					<rect x="105.8" y="95.5" class="st44" width="0.5" height="0.7"/>
					<rect x="103.8" y="94.1" class="st44" width="0.5" height="0.7"/>
					<rect x="104.8" y="95.5" class="st44" width="0.5" height="0.7"/>
					<rect x="103.8" y="95.5" class="st44" width="0.5" height="0.7"/>
					<rect x="108.8" y="95.5" class="st44" width="0.5" height="0.7"/>
					<rect x="111.8" y="96.8" class="st44" width="0.5" height="0.7"/>
					<rect x="106.8" y="95.5" class="st44" width="0.5" height="0.7"/>
					<rect x="107.8" y="95.5" class="st44" width="0.5" height="0.7"/>
					<rect x="105.8" y="94.1" class="st44" width="0.5" height="0.7"/>
					<rect x="106.8" y="94.1" class="st44" width="0.5" height="0.7"/>
					<rect x="108.8" y="96.8" class="st44" width="0.5" height="0.7"/>
					<rect x="104.8" y="94.1" class="st44" width="0.5" height="0.7"/>
					<rect x="106.3" y="92.8" class="st15" width="0.5" height="0.7"/>
					<rect x="106.3" y="94.1" class="st15" width="0.5" height="0.7"/>
					<rect x="106.3" y="96.8" class="st15" width="0.5" height="0.7"/>
					<rect x="106.3" y="95.5" class="st15" width="0.5" height="0.7"/>
					<rect x="106.3" y="91.4" class="st15" width="0.5" height="0.7"/>
					<rect x="107.3" y="94.1" class="st15" width="0.5" height="0.7"/>
					<rect x="107.3" y="95.5" class="st15" width="0.5" height="0.7"/>
					<rect x="107.3" y="96.8" class="st15" width="0.5" height="0.7"/>
					<rect x="107.3" y="91.4" class="st15" width="0.5" height="0.7"/>
					<rect x="107.3" y="92.8" class="st15" width="0.5" height="0.7"/>
					<rect x="108.3" y="96.8" class="st15" width="0.5" height="0.7"/>
					<rect x="108.3" y="92.8" class="st15" width="0.5" height="0.7"/>
					<rect x="108.3" y="94.1" class="st15" width="0.5" height="0.7"/>
					<rect x="108.3" y="95.5" class="st15" width="0.5" height="0.7"/>
					<rect x="108.3" y="91.4" class="st15" width="0.5" height="0.7"/>
					<rect x="109.3" y="91.4" class="st15" width="0.5" height="0.7"/>
					<rect x="109.3" y="96.8" class="st15" width="0.5" height="0.7"/>
					<rect x="109.3" y="92.8" class="st15" width="0.5" height="0.7"/>
					<rect x="109.3" y="95.5" class="st15" width="0.5" height="0.7"/>
					<rect x="109.3" y="94.1" class="st15" width="0.5" height="0.7"/>
					<rect x="110.4" y="91.4" class="st15" width="0.5" height="0.7"/>
					<rect x="110.4" y="94.1" class="st15" width="0.5" height="0.7"/>
					<rect x="110.4" y="96.8" class="st15" width="0.5" height="0.7"/>
					<rect x="110.4" y="92.8" class="st15" width="0.5" height="0.7"/>
					<rect x="110.4" y="95.5" class="st15" width="0.5" height="0.7"/>
					<rect x="111.4" y="96.8" class="st15" width="0.5" height="0.7"/>
					<rect x="111.4" y="91.4" class="st15" width="0.5" height="0.7"/>
					<rect x="111.4" y="92.8" class="st15" width="0.5" height="0.7"/>
					<rect x="111.4" y="95.5" class="st15" width="0.5" height="0.7"/>
					<rect x="111.4" y="94.1" class="st15" width="0.5" height="0.7"/>
					<rect x="112.4" y="96.8" class="st15" width="0.5" height="0.7"/>
					<rect x="112.4" y="92.8" class="st15" width="0.5" height="0.7"/>
					<rect x="112.4" y="95.5" class="st15" width="0.5" height="0.7"/>
					<rect x="112.4" y="94.1" class="st15" width="0.5" height="0.7"/>
					<rect x="112.4" y="91.4" class="st15" width="0.5" height="0.7"/>
					<polygon class="st15" points="113.4,94.8 113.7,94.8 113.7,94.1 113.4,94.1 					"/>
					<polygon class="st15" points="113.4,92.8 113.4,93.5 113.8,93.5 113.8,93.2 113.8,92.8 					"/>
					<polygon class="st15" points="113.4,96.2 113.5,96.2 113.6,95.5 113.4,95.5 					"/>
					<polygon class="st15" points="113.4,97.1 113.4,96.8 113.4,96.8 					"/>
					<rect x="113.4" y="91.4" class="st15" width="0.5" height="0.7"/>
					<rect x="105.3" y="92.8" class="st15" width="0.5" height="0.7"/>
					<rect x="105.3" y="94.1" class="st15" width="0.5" height="0.7"/>
					<rect x="105.3" y="91.4" class="st15" width="0.5" height="0.7"/>
					<rect x="105.3" y="96.8" class="st15" width="0.5" height="0.7"/>
					<rect x="105.3" y="95.5" class="st15" width="0.5" height="0.7"/>
					<rect x="104.3" y="94.1" class="st15" width="0.5" height="0.7"/>
					<rect x="104.3" y="95.5" class="st15" width="0.5" height="0.7"/>
					<rect x="104.3" y="92.8" class="st15" width="0.5" height="0.7"/>
					<rect x="104.3" y="96.8" class="st15" width="0.5" height="0.7"/>
					<rect x="104.3" y="91.4" class="st15" width="0.5" height="0.7"/>
					<polygon class="st15" points="103.8,95.5 103.6,95.5 103.6,96.2 103.8,96.2 					"/>
					<polygon class="st15" points="103.7,96.8 103.8,97.1 103.8,96.8 					"/>
					<polygon class="st15" points="103.8,92.8 103.3,92.8 103.3,93.2 103.3,93.5 103.8,93.5 					"/>
					<rect x="103.3" y="91.4" class="st15" width="0.5" height="0.7"/>
					<polygon class="st15" points="103.8,94.1 103.4,94.1 103.5,94.8 103.8,94.8 					"/>
					<path class="st15" d="M112.4,97.5h-0.5h-0.5h-0.5h-0.5h-0.5h-0.5h-0.5h-0.5h-0.5h-0.5h-0.5h-0.5h-0.5h-0.5h-0.5h-0.5h-0.5
						c0.1,0.2,0.2,0.4,0.4,0.4h8.6c0.2,0,0.4-0.2,0.4-0.4h-0.5H112.4z"/>
					<polygon class="st15" points="112.8,96.2 112.4,96.2 111.8,96.2 111.4,96.2 110.8,96.2 110.4,96.2 109.8,96.2 109.3,96.2 
						108.8,96.2 108.3,96.2 107.8,96.2 107.3,96.2 106.8,96.2 106.3,96.2 105.8,96.2 105.3,96.2 104.8,96.2 104.3,96.2 103.8,96.2 
						103.6,96.2 103.7,96.8 103.8,96.8 104.3,96.8 104.8,96.8 105.3,96.8 105.8,96.8 106.3,96.8 106.8,96.8 107.3,96.8 107.8,96.8 
						108.3,96.8 108.8,96.8 109.3,96.8 109.8,96.8 110.4,96.8 110.8,96.8 111.4,96.8 111.8,96.8 112.4,96.8 112.8,96.8 113.4,96.8 
						113.4,96.8 113.5,96.2 113.4,96.2 					"/>
					<polygon class="st15" points="112.8,94.8 112.4,94.8 111.8,94.8 111.4,94.8 110.8,94.8 110.4,94.8 109.8,94.8 109.3,94.8 
						108.8,94.8 108.3,94.8 107.8,94.8 107.3,94.8 106.8,94.8 106.3,94.8 105.8,94.8 105.3,94.8 104.8,94.8 104.3,94.8 103.8,94.8 
						103.5,94.8 103.6,95.5 103.8,95.5 104.3,95.5 104.8,95.5 105.3,95.5 105.8,95.5 106.3,95.5 106.8,95.5 107.3,95.5 107.8,95.5 
						108.3,95.5 108.8,95.5 109.3,95.5 109.8,95.5 110.4,95.5 110.8,95.5 111.4,95.5 111.8,95.5 112.4,95.5 112.8,95.5 113.4,95.5 
						113.6,95.5 113.7,94.8 113.4,94.8 					"/>
					<polygon class="st15" points="112.8,93.5 112.4,93.5 111.8,93.5 111.4,93.5 110.8,93.5 110.4,93.5 109.8,93.5 109.3,93.5 
						108.8,93.5 108.3,93.5 107.8,93.5 107.3,93.5 106.8,93.5 106.3,93.5 105.8,93.5 105.3,93.5 104.8,93.5 104.3,93.5 103.8,93.5 
						103.3,93.5 103.4,94.1 103.8,94.1 104.3,94.1 104.8,94.1 105.3,94.1 105.8,94.1 106.3,94.1 106.8,94.1 107.3,94.1 107.8,94.1 
						108.3,94.1 108.8,94.1 109.3,94.1 109.8,94.1 110.4,94.1 110.8,94.1 111.4,94.1 111.8,94.1 112.4,94.1 112.8,94.1 113.4,94.1 
						113.7,94.1 113.8,93.5 113.4,93.5 					"/>
					<polygon class="st15" points="113.4,92.2 112.8,92.2 112.4,92.2 111.8,92.2 111.4,92.2 110.8,92.2 110.4,92.2 109.8,92.2 
						109.3,92.2 108.8,92.2 108.3,92.2 107.8,92.2 107.3,92.2 106.8,92.2 106.3,92.2 105.8,92.2 105.3,92.2 104.8,92.2 104.3,92.2 
						103.8,92.2 103.3,92.2 103.2,92.2 103.2,92.8 103.3,92.8 103.8,92.8 104.3,92.8 104.8,92.8 105.3,92.8 105.8,92.8 106.3,92.8 
						106.8,92.8 107.3,92.8 107.8,92.8 108.3,92.8 108.8,92.8 109.3,92.8 109.8,92.8 110.4,92.8 110.8,92.8 111.4,92.8 111.8,92.8 
						112.4,92.8 112.8,92.8 113.4,92.8 113.8,92.8 113.9,92.8 114,92.2 113.8,92.2 					"/>
					<polygon class="st15" points="103,91 103.1,91.4 103.3,91.4 103.8,91.4 104.3,91.4 104.8,91.4 105.3,91.4 105.8,91.4 
						106.3,91.4 106.8,91.4 107.3,91.4 107.8,91.4 108.3,91.4 108.8,91.4 109.3,91.4 109.8,91.4 110.4,91.4 110.8,91.4 111.4,91.4 
						111.8,91.4 112.4,91.4 112.8,91.4 113.4,91.4 113.8,91.4 114.1,91.4 114.1,91 					"/>
				</g>
				<path class="st15" d="M114.4,90.6c-0.1-0.1-0.2-0.2-0.3-0.2H103c-0.1,0-0.2,0.1-0.3,0.2c-0.1,0.1-0.1,0.2-0.1,0.3
					c0,0,0,0.1,0,0.1l0.1,0.4l0.7,6c0,0.1,0,0.2,0,0.2c0.1,0.4,0.4,0.7,0.8,0.7h8.6c0.4,0,0.7-0.3,0.8-0.7c0-0.1,0-0.2,0.1-0.3
					l0.7-6l0.1-0.4c0,0,0-0.1,0-0.1C114.5,90.8,114.5,90.7,114.4,90.6z M113.7,91.5l-0.7,5.8c0,0.1,0,0.1-0.1,0.1h-8.6
					c0,0-0.1,0-0.1-0.1l-0.7-5.8H113.7z"/>
				<path class="st15" d="M115.1,90.4L115.1,90.4c0,0.4-0.2,0.6-0.5,0.6h-12.2c-0.3,0-0.5-0.2-0.5-0.5v-0.1c0,0,0-0.1,0-0.1
					c0.1-0.2,0.2-0.4,0.5-0.4h12.2c0.2,0,0.4,0.1,0.5,0.4C115.1,90.3,115.1,90.3,115.1,90.4z"/>
				<path class="st45" d="M114.5,91C114.5,91,114.5,91,114.5,91l-0.1,0.5h-11.8l-0.1-0.4c0,0,0-0.1,0-0.1H114.5z"/>
				<path class="st45" d="M113.7,97.7c-0.1,0.4-0.4,0.7-0.8,0.7h-8.6c-0.4,0-0.7-0.3-0.8-0.7H113.7z"/>
			</g>
			<path class="st6" d="M105.8,89.9L105.8,89.9L105.8,89.9L105.8,89.9L105.8,89.9c0,0,3.8-1.7,4.5,0c0.2,0.6,0.4,1,0.4,1.3v0
				C110.8,93.4,105.9,90,105.8,89.9z"/>
			<path class="st45" d="M105.8,89.9L105.8,89.9c0,0,4.1,2.6,4.9,1.3C110.8,93.4,105.9,90,105.8,89.9z"/>
		</g>
	</g>
	<path class="st46" d="M176.3,107.9H39.4c-0.7,0-1.3-0.4-1.3-0.8l0,0c0-0.4,0.6-0.8,1.3-0.8h136.8c0.7,0,1.3,0.4,1.3,0.8l0,0
		C177.6,107.5,177,107.9,176.3,107.9z"/>
	<g>
		<linearGradient id="SVGID_2_" gradientUnits="userSpaceOnUse" x1="143.8589" y1="46.0087" x2="146.5771" y2="44.6094">
			<stop  offset="0" style="stop-color:#C8E8BF"/>
			<stop  offset="0.1958" style="stop-color:#A2D1B2"/>
			<stop  offset="0.4013" style="stop-color:#81BDA7"/>
			<stop  offset="0.5134" style="stop-color:#74B5A3"/>
			<stop  offset="0.606" style="stop-color:#7DBAA6"/>
			<stop  offset="0.754" style="stop-color:#94C8AE"/>
			<stop  offset="0.938" style="stop-color:#BADFBA"/>
			<stop  offset="1" style="stop-color:#C8E8BF"/>
		</linearGradient>
		<circle class="st47" cx="145.3" cy="45.2" r="0.9"/>
		<path class="st48" d="M114.3,63c-3.5,0.3-6.6,0-10.1-0.3c-0.5-4.2-0.6-8.2-0.3-12.5c1.4-1.2,3-2.3,4.7-2.9c0.4,0,0.6,0.1,1,0
			c1.7,0.8,3.3,1.6,4.7,2.8C114.7,54.2,114.9,58.9,114.3,63z"/>
		<path class="st49" d="M109.3,50.1c0.7-0.3,1.3-0.9,1.8-1.6c-0.6,0-1.2,0-1.7,0c-0.7,0-1.5,0-2.1-0.3
			C107.6,49.2,108.4,49.9,109.3,50.1z"/>
		<g>
			<path class="st50" d="M109.3,47.5c0-0.3,0.2-0.7,0.5-0.9c0.3-0.2,0.6-0.4,0.8-0.7c0.2-0.4,0.2-0.8,0-1.1c-0.2-0.3-0.6-0.6-1-0.6
				c-0.3-0.1-0.7,0-1,0.1c-0.3,0.2-0.5,0.5-0.6,0.8c0,0.3,0.1,0.8,0.5,0.9c0.1,0,0.1,0,0.1,0c0.1-0.1-0.1-0.3-0.1-0.5
				c0-0.2,0-0.4,0.1-0.5c0.2-0.3,0.6-0.3,0.9-0.1c0.3,0.2,0.4,0.6,0.3,0.9c-0.1,0.3-0.4,0.6-0.6,0.9c-0.2,0.3-0.4,0.6-0.4,0.9
				C109,47.6,109.1,47.5,109.3,47.5z"/>
			<polygon class="st50" points="106.9,48.6 109.1,47.3 111.3,48.5 111.1,48.7 109.1,47.8 107.1,48.8 			"/>
		</g>
		
			<linearGradient id="SVGID_3_" gradientUnits="userSpaceOnUse" x1="110.0584" y1="66.4134" x2="111.1047" y2="49.8542" gradientTransform="matrix(1 0 -1.910000e-002 1 -0.4934 0)">
			<stop  offset="0" style="stop-color:#F5BA85"/>
			<stop  offset="0.6233" style="stop-color:#FCDDB1"/>
			<stop  offset="1" style="stop-color:#FFEFC7"/>
		</linearGradient>
		<path class="st51" d="M114.2,59.2c-0.5,0.1-1,0-1.5,0c-0.1,0-0.1,0-0.2,0c0,0,0,0,0,0c0,0.7,0,1.5,0,2.2c-2,0.3-4.2,0.3-6.2,0
			c0-0.6,0-1.4-0.1-1.9h0c-0.1,0-0.1,0-0.2,0c-0.6,0-1.3-0.1-1.9-0.2c-0.2-2.9-0.2-5.9,0-8.9c0.9-0.9,1.9-1.6,3-2.1
			c0.5,0.6,1.1,1.1,1.7,1.6c0.8-0.3,1.6-0.8,2.1-1.5c1.1,0.4,2,1,2.8,1.8C114.2,53.1,114.3,56.2,114.2,59.2z"/>
		<path class="st49" d="M106.9,48.8c0.1,0.9,0.5,1.8,1,2.5c0.3-0.4,0.7-0.8,1.1-1.2c0.5,0.3,0.8,0.7,1.2,1.1
			c0.4-0.8,0.8-1.5,1.1-2.4c-0.2,0.9-0.5,1.8-1,2.6c-0.3-0.4-0.8-0.8-1.2-1.2c-0.4,0.5-0.8,0.9-1.2,1.4
			C107.2,50.9,106.9,49.8,106.9,48.8z M106.2,52.4c-0.1,2.3-0.1,4.6-0.1,6.9c0,0,0,0.1,0,0.2c0.1,0,0.1,0,0.2,0h0
			C106.5,57,106.4,54.9,106.2,52.4z M112.7,59.2c-0.1-2.3-0.1-4.6-0.1-6.9c-0.1,2.3-0.1,4.6-0.1,6.9l0,0c0,0,0,0,0,0
			C112.6,59.2,112.7,59.2,112.7,59.2z M109.2,52c-0.1,3.1-0.1,6.3,0.1,9.4C109.4,58.3,109.4,55.1,109.2,52z"/>
		<path class="st52" d="M109.1,51c0.1,0,0.2,0.1,0.2,0.2c0,0.1-0.1,0.2-0.2,0.3c-0.1,0-0.3-0.1-0.3-0.2C108.8,51.2,109,51,109.1,51z
			"/>
		<path class="st53" d="M114,60.6c0-3.3,0-6.7-0.1-10c-0.2,0.3-0.5,0.6-0.8,0.9c0.1-0.4,0.2-0.7,0.3-1c-0.4,0.2-0.7,0.2-1,0.3
			c0.4-0.2,0.7-0.5,1.1-0.7c-1.2-0.9-2.6-1.6-4.1-2.1c0,0.3,0,0.5-0.1,0.7c-0.1-0.3-0.3-0.5-0.4-0.8c-0.2,0.2-0.4,0.5-0.7,0.7
			c0.1-0.2,0.1-0.4,0.1-0.7c-1.3,0.7-2.5,1.6-3.6,2.6c0.2,0.1,0.4,0.2,0.6,0.3c-0.3,0-0.5,0-0.8,0c0.1,0.2,0.3,0.5,0.5,0.7
			c-0.3-0.1-0.5-0.3-0.8-0.6c-0.2,1.5-0.3,2.9-0.4,4.5c-0.1-1.7-0.1-3.3,0-5c1.4-1.1,2.8-2.3,4.5-2.8c0.4-0.1,0.7,0,1.1-0.1
			c1.6,0.7,3.1,1.6,4.5,2.6C114.5,53.6,114.4,57.1,114,60.6z"/>
		<path class="st53" d="M113.3,55.3c-2.9,0.5-6-0.6-7.8-2.8c0.8,1.4,1.9,2.5,3.3,3C110.3,56,111.8,55.9,113.3,55.3z"/>
		<path class="st53" d="M112.8,57c-2,0.7-4.3,0.6-6.2-0.1c0.9,0.8,1.8,1.3,3,1.3C110.7,58.1,111.9,57.8,112.8,57z"/>
		
			<linearGradient id="SVGID_4_" gradientUnits="userSpaceOnUse" x1="113.9928" y1="48.723" x2="107.7514" y2="64.1541" gradientTransform="matrix(1 0 -1.910000e-002 1 -0.4934 0)">
			<stop  offset="0" style="stop-color:#9BA87E"/>
			<stop  offset="0.7104" style="stop-color:#1F2119"/>
			<stop  offset="0.8827" style="stop-color:#000000"/>
		</linearGradient>
		<path class="st54" d="M106.4,61.4c1.7-4.4,2.4-8.2,3.8-12.7c1.2,0.3,2.3,1.1,3.4,1.8c-1.2,4.2-2.2,7.2-4.2,11.1"/>
		<g>
			<path class="st48" d="M125.4,70.1c-2.8,0.3-5.7,0.3-8.5,0c-1.3-6.7-1.7-13.4-1.3-20.2c1.4-1.1,3.1-2,4.8-2.5
				c0.3-0.1,0.4-0.1,0.7-0.1c1.6,0.4,3.5,1.8,5.1,3C126.7,56.8,126.4,63.7,125.4,70.1z"/>
			<path class="st55" d="M120.9,52.5c0.9-1.3,1.5-2.7,2-4.2c-1.3,0.1-2.6,0-3.9,0c0.3,0.8,0.5,1.8,0.9,2.6
				C120.1,51.4,120.4,52,120.9,52.5z"/>
			<g>
				<path class="st50" d="M121,47.5c0-0.3,0.2-0.7,0.5-0.9c0.3-0.2,0.6-0.4,0.8-0.7c0.2-0.4,0.2-0.8,0-1.1c-0.2-0.3-0.6-0.6-1-0.6
					c-0.3-0.1-0.7,0-1,0.1c-0.3,0.2-0.5,0.5-0.6,0.8c0,0.3,0.1,0.8,0.5,0.9c0.1,0,0.1,0,0.1,0c0.1-0.1-0.1-0.3-0.1-0.5
					c0-0.2,0-0.4,0.1-0.5c0.2-0.3,0.6-0.3,0.9-0.1c0.3,0.2,0.4,0.6,0.3,0.9c-0.1,0.3-0.4,0.6-0.6,0.9c-0.2,0.3-0.4,0.6-0.4,0.9
					C120.7,47.6,120.8,47.5,121,47.5z"/>
				<polygon class="st50" points="118.7,48.6 120.8,47.3 123,48.5 122.8,48.7 120.8,47.8 118.8,48.8 				"/>
			</g>
			<path class="st56" d="M126.3,57.5c-0.2,0-0.3,0-0.5,0c0.2-2.4,0.2-4.9,0-7.2c-1-0.8-1.9-1.4-3-2c-0.6,1.5-1.3,2.7-2,3.9
				c-0.7-1.1-1.4-2.4-1.9-3.9c-1,0.5-2,1.1-2.9,1.9c-0.1,2.5-0.2,5.1,0,7.6c-0.1,0-0.2,0-0.4,0.1c0.1,0.4,0.1,0.7,0.2,1.1
				c0.1,0,0.2,0,0.2,0c0,0.2,0,0.5,0.1,0.7c0.4,0.1,0.8,0.2,1.2,0.2c0.1,0,0.1,0,0.2,0l0,0c0.2,2.8,0.4,5.6,0.6,8.4
				c2,0.3,3.8,0.5,5.8,0.2c0.3-2.9,0.6-5.8,0.8-8.8c0,0,0,0,0,0c0,0,0.1,0,0.1,0c0.3-0.1,0.6-0.1,0.9-0.2c0-0.3,0.1-0.6,0.1-0.9
				c0.1,0,0.2,0.1,0.4,0.1C126.2,58.3,126.3,57.9,126.3,57.5z"/>
			<path class="st55" d="M118.6,52.1c0.4-0.1,0.8-0.2,1.2-0.3c-0.3,0.3-0.5,0.5-0.8,0.8c0.5,1.5,1,2.9,1.5,4.4
				c-0.4-1.5-0.9-3-1.4-4.4c0.3-0.3,0.6-0.6,0.8-0.9c-0.5,0-1,0.1-1.4,0.2c-0.4-0.8-0.8-1.7-1.2-2.5
				C117.8,50.4,118.1,51.2,118.6,52.1z"/>
			<path class="st55" d="M123.3,52.1c-0.4-0.1-0.8-0.2-1.2-0.3c0.2,0.3,0.5,0.5,0.8,0.8c-0.6,1.5-1.1,2.9-1.7,4.4
				c0.4-1.5,1-3,1.6-4.4c-0.3-0.3-0.5-0.6-0.8-0.9c0.5,0,1,0.1,1.4,0.2c0.4-0.8,0.9-1.7,1.3-2.5C124.2,50.4,123.8,51.2,123.3,52.1z"
				/>
			<path class="st55" d="M121.2,68.2c-0.3-5.2-0.4-10.3-0.4-15.5C121,57.9,121.1,63.1,121.2,68.2z"/>
			<path class="st55" d="M117.5,59.9c-0.1,0-0.1,0-0.2,0c-0.1-2.8-0.1-5.7,0-8.6C117.4,54.2,117.4,57,117.5,59.9z"/>
			<path class="st55" d="M124.8,59.7c0,0-0.1,0-0.1,0c0,0,0,0,0,0c0.1-2.4,0.1-4.8-0.1-7.2C124.8,54.9,124.9,57.3,124.8,59.7z"/>
			<path class="st55" d="M117.7,59.8c0.5-0.5,0.9-1,1.2-1.6c0.3,0.2,0.5,0.4,0.6,0.7c-0.2-0.2-0.3-0.3-0.5-0.5
				c-0.4,0.5-0.9,1.1-1.3,1.6C117.8,60,117.7,59.9,117.7,59.8z"/>
			<path class="st55" d="M124.4,59.8c-0.4-0.5-0.8-1-1.2-1.6c-0.3,0.2-0.5,0.4-0.6,0.7c0.2-0.2,0.3-0.3,0.5-0.5
				c0.3,0.5,0.8,1.1,1.2,1.6C124.3,60,124.4,59.9,124.4,59.8z"/>
			<path class="st55" d="M116.9,59c-0.2,0-0.5-0.1-0.7-0.1c0.2,0,0.4,0,0.6,0c0-0.4,0-0.8-0.1-1.2c-0.2,0-0.4,0.1-0.6,0.1
				c0.2-0.1,0.5-0.2,0.7-0.2C117,58,117,58.5,116.9,59z"/>
			<path class="st55" d="M125.8,57.5c-0.2,0-0.5,0-0.5,0c0,0.3,0,0.5,0,0.8c0.1,0.1,0.2,0.1,0.4,0.2c-0.2,0-0.3-0.1-0.5-0.1
				c0-0.3,0-0.7,0.1-1C125.4,57.4,125.6,57.4,125.8,57.5z"/>
			<path class="st53" d="M125.7,63.8c0.4-4.5,0.5-9.1,0.3-13.5c-1.4-1.2-3-2.2-4.7-2.7c-0.3,0-0.5,0-0.8,0.1
				c-1.7,0.5-3.3,1.3-4.7,2.5c-0.3,3.4-0.3,6.9,0,10.3c-0.1-3.2,0-6.5,0.3-9.8c0.4,0.3,0.7,0.6,1.1,1c-0.2-0.5-0.5-0.8-0.8-1.2
				c0.3,0.1,0.6,0.2,0.9,0.2c-0.2-0.2-0.5-0.4-0.8-0.6c1.1-0.8,2.2-1.5,3.5-2c-0.1,0.7-0.1,1.3-0.1,2c0.3-0.6,0.4-1.3,0.6-2
				c0.1,0.3,0.3,0.5,0.5,0.7c0-0.3,0.1-0.6,0.1-0.9c0.7,0.3,1.3,0.8,1.8,1.4c-0.2-0.5-0.5-0.9-0.9-1.3c1.2,0.6,2.3,1.3,3.4,2.1
				c-0.5,0.2-1,0.5-1.4,0.8c0.5-0.1,0.9-0.1,1.4-0.2c-0.2,0.3-0.4,0.6-0.5,0.9c0.3-0.3,0.5-0.5,0.8-0.8
				C126,55,126.1,59.5,125.7,63.8z"/>
			<path class="st53" d="M124.5,54.7c-0.5,0.4-0.9,1-1.4,1.4c-0.5,0.4-1.1,0.8-1.8,1.1c-1.2,0.6-2.6,1-4,0.9
				c1.2-0.3,2.4-0.6,3.5-1.2C122.2,56.4,123.4,55.6,124.5,54.7z"/>
			<path class="st53" d="M123.9,59.1c-1.7,1.8-4.1,2.8-6.6,2.9c0.5,0,1.1-0.3,1.6-0.5c0.6-0.2,1.2-0.4,1.8-0.7
				C121.8,60.4,122.9,59.8,123.9,59.1z"/>
			<path class="st53" d="M123.4,66.1c-1.8-0.4-3.5-1.2-5-2.2c0.6,0.8,1.3,1.4,2.2,1.7C121.6,66,122.4,65.9,123.4,66.1z"/>
			
				<linearGradient id="SVGID_5_" gradientUnits="userSpaceOnUse" x1="126.3666" y1="47.9701" x2="120.0091" y2="68.4245" gradientTransform="matrix(1 0 -1.910000e-002 1 -0.4934 0)">
				<stop  offset="0" style="stop-color:#9BA87E"/>
				<stop  offset="0.7104" style="stop-color:#1F2119"/>
				<stop  offset="0.8827" style="stop-color:#000000"/>
			</linearGradient>
			<path class="st57" d="M119,68.2c3.1-6.4,4.6-11.2,6.5-18.1c-0.7-0.6-1.5-1-2.3-1.4c-1.7,6.9-2.9,12.5-5.2,19.3
				C118.4,68,118.7,68.2,119,68.2z"/>
		</g>
		<g>
			<path class="st48" d="M142,70.1c-2.8,0.3-5.7,0.3-8.5,0c-1.4-6.7-1.9-13.4-1.7-20.2c1.4-1.1,3.1-2,4.8-2.5
				c0.3-0.1,0.4-0.1,0.7-0.1c1.7,0.4,3.6,1.8,5.1,3C143,56.8,142.9,63.7,142,70.1z"/>
			<path class="st58" d="M134.6,48.6c0.6,0.8,1.5,1.2,2.5,1.2c0.9,0,1.9-0.4,2.6-1l0.4,0.3l-0.9,2.4l-4.3-0.3l-0.5-2.4L134.6,48.6z"
				/>
			<g>
				<path class="st50" d="M137.1,47.5c0-0.3,0.2-0.7,0.5-0.9c0.3-0.2,0.6-0.4,0.8-0.7c0.2-0.4,0.1-0.8-0.1-1.1
					c-0.2-0.3-0.6-0.6-1-0.6c-0.3-0.1-0.7,0-1,0.1c-0.3,0.2-0.5,0.5-0.6,0.8c0,0.3,0.2,0.8,0.5,0.9c0.1,0,0.1,0,0.1,0
					c0.1-0.1-0.1-0.3-0.1-0.5c0-0.2,0-0.4,0.1-0.5c0.2-0.3,0.6-0.3,0.9-0.1c0.3,0.2,0.4,0.6,0.3,0.9c-0.1,0.3-0.3,0.6-0.6,0.9
					c-0.2,0.3-0.4,0.6-0.4,0.9C136.9,47.6,137,47.5,137.1,47.5z"/>
				<polygon class="st50" points="132.2,50 136.9,47.3 142.2,50.3 142,50.5 137,47.8 132.3,50.2 				"/>
			</g>
			<rect x="132.6" y="49.9" class="st50" width="8.7" height="0.1"/>
			<path class="st59" d="M141.6,68.2c-2.6,1-5.9,0.4-8.3-0.8c0-4.3,0.7-7.3,2.1-12.9c-0.8-0.8-0.9-1.7-0.9-2.8c0-0.6,0-1.1-0.1-1.7
				c-0.1-0.5-0.2-1-0.2-1.4c0.2-0.1,0.3-0.1,0.5-0.2c0,0.7,0.1,1.4,0.3,2.1c1.3,0.5,2.7,0.5,4,0.3c0.3-0.7,0.6-1.5,0.8-2.2
				c0.1,0.1,0.2,0.1,0.4,0.2c0,0-0.4,1.3-0.4,1.4c-0.1,0.5-0.1,1,0,1.6c0.2,1,0,1.8-0.6,2.9C140.8,60.4,141.8,63.7,141.6,68.2z"/>
			<path class="st58" d="M141.3,68.2c-2.5,0.7-5.4,0.3-7.7-1c0-1.5,0.2-2.9,0.6-4.4c-0.1,1.4-0.2,2.8-0.3,4.2c0.4,0.4,1,0.6,1.6,0.5
				c0.1-1.1,0.2-2.1,0.5-3.2c-0.1,1.1-0.1,2.2,0,3.3c1,0.7,2.4,1,3.6,0.7c0.2-1.8,0.2-3.7-0.2-5.5c0.3,1.8,0.5,3.6,0.5,5.4
				c0.2,0,0.8-0.1,1-0.2c0-1.6,0-3.3-0.2-4.9C141.2,64.8,141.4,66.5,141.3,68.2z"/>
			<path class="st58" d="M135.7,54.7c-0.4,1.2-0.6,2.4-0.6,3.7c0.1-1.2,0.5-2.3,0.9-3.4c-0.1,0.7-0.1,1.5-0.1,2.2
				c0.1-0.8,0.4-1.5,0.6-2.2c0.7,0,1.5,0,2.2,0.1c0.7,1.2,1.3,2.5,1.6,3.8c-0.3-1.5-0.7-2.9-1.4-4.3c0.2-0.3,0.5-0.6,0.6-0.9
				c-1.5,0.4-3.1,0.2-4.4-0.5C135.1,53.7,135.3,54.3,135.7,54.7z"/>
			<path class="st53" d="M142.2,63.8c0.3-4.5,0.4-9.1,0.1-13.5c-1.5-1.2-3.1-2.2-4.8-2.7c-0.3,0-0.5,0-0.8,0.1
				c-1.7,0.5-3.3,1.3-4.7,2.5c-0.2,3.4-0.2,6.9,0.2,10.3c-0.1-3.2-0.1-6.5,0.1-9.8c0.4,0.3,0.7,0.6,1.1,1c-0.2-0.5-0.5-0.8-0.8-1.2
				c0.3,0.1,0.6,0.2,0.9,0.2c-0.2-0.2-0.5-0.4-0.8-0.6c1.1-0.8,2.2-1.5,3.4-2c-0.1,0.7-0.1,1.3-0.1,2c0.3-0.6,0.4-1.3,0.5-2
				c0.1,0.3,0.3,0.5,0.5,0.7c0-0.3,0.1-0.6,0.1-0.9c0.7,0.3,1.3,0.8,1.8,1.4c-0.2-0.5-0.5-0.9-0.9-1.3c1.2,0.6,2.3,1.3,3.4,2.1
				c-0.5,0.2-1,0.5-1.4,0.8c0.5-0.1,0.9-0.1,1.4-0.2c-0.2,0.3-0.4,0.6-0.5,0.9c0.3-0.3,0.5-0.5,0.8-0.8
				C142.3,55,142.5,59.5,142.2,63.8z"/>
			<path class="st53" d="M140.8,54.7c-0.5,0.4-0.9,1-1.4,1.4c-0.5,0.4-1.1,0.8-1.8,1.1c-1.2,0.6-2.6,1-4,0.9
				c1.2-0.3,2.4-0.6,3.5-1.2C138.5,56.4,139.7,55.6,140.8,54.7z"/>
			<path class="st53" d="M140.3,59.1c-1.7,1.8-4.1,2.8-6.5,2.9c0.5,0,1.1-0.3,1.6-0.5c0.6-0.2,1.2-0.4,1.8-0.7
				C138.2,60.4,139.3,59.8,140.3,59.1z"/>
			<path class="st53" d="M139.9,66.1c-1.8-0.4-3.5-1.2-5-2.2c0.6,0.8,1.3,1.4,2.3,1.7C138.1,66,138.9,65.9,139.9,66.1z"/>
			<linearGradient id="SVGID_6_" gradientUnits="userSpaceOnUse" x1="141.129" y1="47.9693" x2="134.7707" y2="68.4264">
				<stop  offset="0" style="stop-color:#9BA87E"/>
				<stop  offset="0.7104" style="stop-color:#1F2119"/>
				<stop  offset="0.8827" style="stop-color:#000000"/>
			</linearGradient>
			<path class="st60" d="M135.5,68.2c3-6.4,4.4-11.3,6.2-18.2c-0.7-0.6-1.5-1-2.4-1.4c-1.6,6.9-2.8,12.5-4.9,19.3
				C134.8,67.9,135.2,68.3,135.5,68.2z"/>
		</g>
		<path class="st15" d="M145.2,45.6H80.6v-0.8h64.6C145.8,44.8,145.8,45.6,145.2,45.6z"/>
		<linearGradient id="SVGID_7_" gradientUnits="userSpaceOnUse" x1="147.9751" y1="40.6087" x2="84.6316" y2="48.7139">
			<stop  offset="0" style="stop-color:#87A37F"/>
			<stop  offset="0.2214" style="stop-color:#85A07D"/>
			<stop  offset="0.3789" style="stop-color:#7D9776"/>
			<stop  offset="0.5165" style="stop-color:#708769"/>
			<stop  offset="0.6427" style="stop-color:#5E7158"/>
			<stop  offset="0.7611" style="stop-color:#465542"/>
			<stop  offset="0.8738" style="stop-color:#293127"/>
			<stop  offset="0.9799" style="stop-color:#070907"/>
			<stop  offset="1" style="stop-color:#000000"/>
		</linearGradient>
		<path class="st61" d="M145.5,45.2c0-0.2-0.1-0.3-0.2-0.3H80.6v0.3H145.5z"/>
		<path class="st50" d="M109.5,44.8c0.3,0.2,0.4,0.5,0.3,0.8h0.8c0-0.3,0-0.6-0.1-0.8H109.5z"/>
		<path class="st50" d="M121.3,44.8c0.3,0.2,0.4,0.5,0.3,0.8h0.8c0-0.3,0-0.6-0.1-0.8H121.3z"/>
		<path class="st50" d="M137.4,44.8c0.3,0.2,0.4,0.5,0.3,0.8h0.8c0-0.3,0-0.6-0.1-0.8H137.4z"/>
		<g>
			<g>
				<path class="st50" d="M84.8,46.9c0-0.3,0.2-0.7,0.5-0.9c0.3-0.2,0.6-0.4,0.8-0.7c0.2-0.4,0.2-0.8,0-1.1c-0.2-0.3-0.6-0.6-1-0.6
					c-0.3-0.1-0.7,0-1,0.1c-0.3,0.2-0.5,0.5-0.6,0.8c0,0.3,0.1,0.8,0.5,0.9c0.1,0,0.1,0,0.1,0c0.1-0.1-0.1-0.3-0.1-0.5
					c0-0.2,0-0.4,0.1-0.5c0.2-0.3,0.6-0.3,0.9-0.1c0.3,0.2,0.4,0.6,0.3,0.9c-0.1,0.3-0.4,0.6-0.6,0.9c-0.2,0.3-0.4,0.6-0.4,0.9
					C84.5,46.9,84.6,46.9,84.8,46.9z"/>
				<polygon class="st50" points="82.5,48 84.6,46.7 86.8,47.9 86.6,48.1 84.7,47.2 82.6,48.1 				"/>
			</g>
			<g>
				<path class="st62" d="M82.1,47.9l0.5-0.3c0.7-0.2,2.1-0.3,3.2-0.3c0,0,0.7,0.3,1.2,0.6c0,0-1.5,7.6-3,7.6
					C83.3,55.4,82.6,53.5,82.1,47.9z"/>
				<path class="st63" d="M86.9,48.3c-0.4,1.6-1.6,7.1-2.9,7.1c-0.7,0-1.4-1.8-1.9-7C82.9,47.9,86.3,48,86.9,48.3z"/>
				<g>
					<g>
						<path class="st62" d="M80.4,54.7c0.1-0.6,0.2-3,0.4-4.7c0.1-1.1,0.4-1.8,0.4-1.8c0,0,0,0,0,0c0,0,0.1,0,0.1,0
							c0.3,0,0.6-0.1,0.8-0.1c0.1,0,0.2-0.1,0.3-0.1c0,1.6,0,7-0.1,7.6c-0.1,0.7-1.4,6.9-1.4,6.9l-2-0.2
							C79.1,62.2,80.2,55.7,80.4,54.7z"/>
						<path class="st64" d="M81.6,50.5c0.1-0.8,0.3-1.6,0-2.3c0.2,0,0.4-0.1,0.5-0.1c0.1,0,0.2-0.1,0.3-0.1c0,1.6,0,7-0.1,7.6
							c-0.1,0.7-1.4,6.9-1.4,6.9L80,62.3C80.2,61.9,81.3,52,81.6,50.5z"/>
					</g>
					<path class="st62" d="M85.8,47.3c0,0,1.4,0.3,2.2,0.7c0,0-0.7,5-0.7,6.7c0,1.6,1.2,7.3,1.2,7.3s-0.1,0.4-2,0.5
						c-1.5,0.1-2.8-0.8-2.8-2c0-3.2,0-8.1,0-8.5C83.6,51.5,85.7,49.3,85.8,47.3z"/>
					<path class="st64" d="M85.8,47.3c0,0,1.4,0.3,2.2,0.7c0,0-0.7,5-0.7,6.7c0,1.6,1.2,7.3,1.2,7.3s-0.1,0.4-2,0.5
						c-1.5,0.1-2.8-0.8-2.8-2c0-3.2,0-8.1,0-8.5C83.6,51.5,85.7,49.3,85.8,47.3z"/>
					<path class="st65" d="M83.6,61c0-0.1,0-0.2-0.1-0.2c0-2.5,0-7,0-8.8l0.2-0.1l0,9.4C83.7,61.1,83.7,61,83.6,61z"/>
					<path class="st62" d="M81.5,54.5c0.1-0.3-0.2-6.3-0.2-6.3c0,0,0.5-0.4,1.3-0.6c0,0,0,0.1,0,0.4l1,2.9l0,9.9
						c0,1.1-1.4,1.9-2.7,1.4c0,0-0.1,0-0.1,0C80.8,62.1,81.5,54.8,81.5,54.5z"/>
					<path class="st64" d="M81.5,54.5c0.1-0.3-0.2-6.3-0.2-6.3c0,0,0.5-0.4,1.3-0.6c0,0,0,0.1,0,0.4l1,2.9l0,9.9
						c0,1.1-1.4,1.9-2.7,1.4c0,0-0.1,0-0.1,0C80.8,62.1,81.5,54.8,81.5,54.5z"/>
					<path class="st62" d="M86.8,57.7c0,0,0.2,0.5-0.4,0.5c-0.6,0-1.5,0.1-1.7,0c-0.2-0.1-0.2-0.5-0.1-0.5L86.8,57.7z"/>
					<path class="st62" d="M81.2,57.7l1.3,0.1c0.1,0,0,0.3-0.2,0.4c-0.1,0.1-0.7,0.1-1.2,0C81.1,58.1,81.2,57.9,81.2,57.7z"/>
					<path class="st64" d="M86.4,55.9c-0.3-1.5-0.6-3.1-0.2-4.6c0.3-1.1,1-1.9,1.7-2.7c-0.2,1.4-0.7,4.8-0.6,6.1
						c0,1.6,1.2,7.3,1.2,7.3s-0.1,0.4-2.1,0.5c-0.1,0-0.5,0-0.4,0C87,60.5,86.7,58,86.4,55.9z"/>
					<path class="st64" d="M81.5,54.5C81.5,54.5,81.5,54.5,81.5,54.5C81.5,54.5,81.5,54.5,81.5,54.5c0-0.1,0-0.1,0-0.1c0,0,0,0,0,0
						c0,0,0,0,0-0.1c0,0,0,0,0,0c0,0,0,0,0-0.1c0,0,0,0,0-0.1c0,0,0-0.1,0-0.1c0,0,0,0,0-0.1c0,0,0-0.1,0-0.1c0,0,0-0.1,0-0.1
						c0,0,0,0,0-0.1c0-0.1,0-0.3,0-0.5c0,0,0,0,0,0c0-0.1,0-0.1,0-0.2c0,0,0,0,0,0c0-0.1,0-0.1,0-0.2c0,0,0,0,0,0c0-0.3,0-0.6,0-1
						c0.2,1.1,0.7,2.2,0.6,3.4C82,56.8,82,58.3,82,59.8c0,0.8,0,1.6,0.2,2.3c-0.4,0.1-0.9,0.1-1.3,0c0,0-0.1,0-0.1,0
						C80.8,62.1,81.5,54.8,81.5,54.5z"/>
					<path class="st62" d="M82.6,47.6c0.2,0.8,0.9,3.2,1.3,4.1c-0.1,0.1-0.2,0.3-0.2,0.4c-0.6-1-1.3-2.4-1.8-3.4l0.3-0.3l-0.4-0.1
						C81.7,48.1,82.6,47.6,82.6,47.6z"/>
					<path class="st62" d="M83.6,51.7c0,0,1.8-3.3,2.2-4.4h0c0.2,0,1,0.8,0.9,1L86,48.5l0.5,0.2c-0.8,1.2-2.1,2.6-2.9,3.5
						C83.6,52.2,83.5,51.9,83.6,51.7z"/>
					<ellipse class="st66" cx="83.2" cy="55.7" rx="0.2" ry="0.2"/>
					<ellipse class="st66" cx="83.2" cy="57" rx="0.2" ry="0.2"/>
					<ellipse class="st66" cx="83.2" cy="54.3" rx="0.2" ry="0.2"/>
					<ellipse class="st66" cx="83.2" cy="53.1" rx="0.2" ry="0.2"/>
					<ellipse class="st66" cx="83.2" cy="58.3" rx="0.2" ry="0.2"/>
					<ellipse class="st66" cx="83.2" cy="59.6" rx="0.2" ry="0.2"/>
					<path class="st62" d="M87,54c0,0-0.5-3.6-0.4-4.6c0.1-1,0.9-1.5,1.3-1.5c0.4,0.1,1.7,3.3,2.1,7.5s0.5,7.4,0.5,7.4
						S89.4,63,88.2,63c0,0-0.6-5.7-0.7-6.3C87.4,56.2,87,54,87,54z"/>
					<path class="st64" d="M87.2,54.4c0.1,1.4,0.2,2.5,0.2,2.4C87.4,56.2,87,54,87,54s-0.3-2.7-0.4-4.1
						C86.7,50.3,87.1,53.4,87.2,54.4z"/>
				</g>
			</g>
			<path class="st48" d="M90.6,63.6c-3.5,0.3-8.6-0.5-12.1-0.8c-0.5-4.2,1.4-9.7,1.6-13.9c1.4-1.2,2.2-1.5,3.9-2.2
				c0.4,0,0.6,0.1,1,0c1.7,0.8,3.3,1,4.7,2.3C90.2,53,91.2,59.5,90.6,63.6z"/>
			<path class="st53" d="M89.5,59.9c0-3.3,0-6.7-0.1-10c-0.2,0.3-0.5,0.6-0.8,0.9c0.1-0.4,0.2-0.7,0.3-1c-0.4,0.2-0.7,0.2-1,0.3
				c0.4-0.2,0.7-0.5,1.1-0.7c-1.2-0.9-2.6-1.6-4.1-2.1c0,0.3,0,0.5-0.1,0.7c-0.1-0.3-0.3-0.5-0.4-0.8c-0.2,0.2-0.4,0.5-0.7,0.7
				c0.1-0.2,0.1-0.4,0.1-0.7c-1.3,0.7-2.5,1.6-3.6,2.6c0.2,0.1,0.4,0.2,0.6,0.3c-0.3,0-0.5,0-0.8,0c0.1,0.2,0.3,0.5,0.5,0.7
				c-0.3-0.1,0,1-0.2,0.8c-0.2,1.5-0.4,2-0.4,3.5c-0.1-1.7,0.2-4.5,0.3-6.2c1.4-1.1,2-1.5,3.7-2.1c0.4-0.1,0.7,0,1.1-0.1
				c1.6,0.7,3.1,1.1,4.5,2.2C90,52.5,89.9,56.5,89.5,59.9z"/>
		</g>
		<g>
			
				<linearGradient id="SVGID_8_" gradientUnits="userSpaceOnUse" x1="487.4782" y1="51.6265" x2="492.7272" y2="51.6265" gradientTransform="matrix(-1 0 0 1 586.8467 0)">
				<stop  offset="0" style="stop-color:#2C2825"/>
				<stop  offset="1" style="stop-color:#3D3A37"/>
			</linearGradient>
			<path class="st67" d="M94.1,48.2c0,0,0-0.2,0.7-0.3c0.8-0.2,2.2-0.2,3.4-0.2c0.5,0,0.5,0.3,1.1,0.5c0,0-1.6,7.4-3.2,7.4
				C95.4,55.6,94.7,53.7,94.1,48.2z"/>
			
				<linearGradient id="SVGID_9_" gradientUnits="userSpaceOnUse" x1="489.8804" y1="52.7371" x2="490.4224" y2="43.7617" gradientTransform="matrix(-1 0 0 1 586.8467 0)">
				<stop  offset="0" style="stop-color:#2C2825"/>
				<stop  offset="1" style="stop-color:#3D3A37"/>
			</linearGradient>
			<path class="st68" d="M99.3,48.6c-0.4,1.6-1.7,7-3.1,6.9c-0.8,0-1.5-1.7-2-6.8C95.1,48.2,98.6,48.4,99.3,48.6z"/>
			<g>
				<g>
					
						<linearGradient id="SVGID_10_" gradientUnits="userSpaceOnUse" x1="494.0948" y1="48.4355" x2="494.0948" y2="62.7545" gradientTransform="matrix(-1 0 0 1 586.8467 0)">
						<stop  offset="0" style="stop-color:#2C2825"/>
						<stop  offset="1" style="stop-color:#3D3A37"/>
					</linearGradient>
					<path class="st69" d="M92.4,54.8c0.1-0.6,0.1-2.8,0.3-4.4c0.2-1.3,0.6-1.9,0.6-1.9c0,0,0,0,0,0c0,0,0.1,0,0.1,0
						c0.3,0,0.6-0.1,0.9-0.1c0.1,0,0.2-0.1,0.3-0.1c0,1.5,0,6.8-0.1,7.4c-0.1,0.6-1.4,6.7-1.4,6.7l-2.2-0.2
						C90.9,62.2,92.2,55.8,92.4,54.8z"/>
					<path class="st64" d="M93.7,50.7c0.2-0.8,0.3-1.5,0-2.3c0.2,0,0.4-0.1,0.6-0.1c0.1,0,0.2-0.1,0.3-0.1c0,1.5,0,6.8-0.1,7.4
						c-0.1,0.6-1.4,6.7-1.4,6.7l-1.2-0.2C92.1,61.9,93.3,52.3,93.7,50.7z"/>
				</g>
				
					<linearGradient id="SVGID_11_" gradientUnits="userSpaceOnUse" x1="488.5393" y1="48.4355" x2="488.5393" y2="62.7545" gradientTransform="matrix(-1 0 0 1 586.8467 0)">
					<stop  offset="0" style="stop-color:#2C2825"/>
					<stop  offset="1" style="stop-color:#3D3A37"/>
				</linearGradient>
				<path class="st70" d="M98.2,47.7c0,0,1.4,0.3,2.2,0.7c0,0-0.8,4.9-0.8,6.5c0,1.6,1.3,7.1,1.3,7.1s-0.2,0.6-5.2,0.5
					c0,0,0-10.8,0-11.4C95.8,50.6,98.1,49.6,98.2,47.7z"/>
				<path class="st65" d="M95.9,52l0,10.5c0,0-0.1,0-0.1,0c0,0,0-7.8,0-10.3L95.9,52z"/>
				
					<linearGradient id="SVGID_12_" gradientUnits="userSpaceOnUse" x1="492.5823" y1="48.4355" x2="492.5823" y2="62.7545" gradientTransform="matrix(-1 0 0 1 586.8467 0)">
					<stop  offset="0" style="stop-color:#2C2825"/>
					<stop  offset="1" style="stop-color:#3D3A37"/>
				</linearGradient>
				<path class="st71" d="M93.5,54.7c0.1-0.3-0.2-6.2-0.2-6.2s0.3-0.3,0.9-0.4c0,0,0,0,0,0c0.1,0.1,0.3,0.1,0.5,0.1l1.1,2.8l0,11.5
					c0,0-2.4-0.2-3-0.5C92.8,62,93.5,54.9,93.5,54.7z"/>
				
					<linearGradient id="SVGID_13_" gradientUnits="userSpaceOnUse" x1="488.838" y1="57.9234" x2="488.838" y2="59.5748" gradientTransform="matrix(-1 0 0 1 586.8467 0)">
					<stop  offset="0" style="stop-color:#2C2825"/>
					<stop  offset="0.2251" style="stop-color:#2F2B28"/>
					<stop  offset="0.412" style="stop-color:#393633"/>
					<stop  offset="0.4652" style="stop-color:#3D3A37"/>
				</linearGradient>
				<path class="st72" d="M99.2,57.8c0,0,0.2,1.5-0.4,1.5c-0.6,0-1.6,0.1-1.8,0c-0.2-0.1-0.2-1.5-0.1-1.5L99.2,57.8z"/>
				
					<linearGradient id="SVGID_14_" gradientUnits="userSpaceOnUse" x1="493.0096" y1="57.9424" x2="493.0096" y2="59.5722" gradientTransform="matrix(-1 0 0 1 586.8467 0)">
					<stop  offset="0" style="stop-color:#2C2825"/>
					<stop  offset="0.2251" style="stop-color:#2F2B28"/>
					<stop  offset="0.412" style="stop-color:#393633"/>
					<stop  offset="0.4652" style="stop-color:#3D3A37"/>
				</linearGradient>
				<path class="st73" d="M93.2,57.8l1.4,0c0.1,0,0.1,1.3-0.1,1.5c-0.1,0.1-0.8,0.1-1.4,0C93.1,58.9,93.1,58.3,93.2,57.8z"/>
				
					<linearGradient id="SVGID_15_" gradientUnits="userSpaceOnUse" x1="488.838" y1="56.7536" x2="488.838" y2="58.781" gradientTransform="matrix(-1 0 0 1 586.8467 0)">
					<stop  offset="0" style="stop-color:#44413E"/>
					<stop  offset="1" style="stop-color:#3D3A37"/>
				</linearGradient>
				<path class="st74" d="M99.2,57.8c0,0,0.2,0.5-0.4,0.5c-0.6,0-1.6,0.1-1.8,0c-0.2-0.1-0.2-0.5-0.1-0.4L99.2,57.8z"/>
				
					<linearGradient id="SVGID_16_" gradientUnits="userSpaceOnUse" x1="492.9711" y1="56.7537" x2="492.9711" y2="58.781" gradientTransform="matrix(-1 0 0 1 586.8467 0)">
					<stop  offset="0" style="stop-color:#44413E"/>
					<stop  offset="1" style="stop-color:#3D3A37"/>
				</linearGradient>
				<path class="st75" d="M93.2,57.8l1.4,0.1c0.1,0,0,0.3-0.2,0.4c-0.1,0.1-0.8,0.1-1.3,0C93.1,58.1,93.2,58,93.2,57.8z"/>
				<path class="st64" d="M98.7,56c-0.3-1.4-0.6-3-0.2-4.5c0.3-1,1-1.8,1.8-2.7c-0.2,1.3-0.7,4.7-0.7,6c0,1.6,1.3,7.1,1.3,7.1
					s-0.1,0.4-2.8,0.5C99.3,60.5,99.1,58,98.7,56z"/>
				<path class="st64" d="M94.3,62.3c-0.6-0.1-1.3-0.2-1.6-0.3c0,0,0.7-7.1,0.8-7.4c0-0.1,0-1.3-0.1-2.6c0.2,1.1,0.7,2.2,0.7,3.3
					c-0.1,1.5-0.1,3-0.1,4.5C94.1,60.7,94,61.5,94.3,62.3z"/>
				
					<linearGradient id="SVGID_17_" gradientUnits="userSpaceOnUse" x1="489.2154" y1="48.2333" x2="489.2154" y2="53.0039" gradientTransform="matrix(-1 0 0 1 586.8467 0)">
					<stop  offset="0" style="stop-color:#44413E"/>
					<stop  offset="1" style="stop-color:#3D3A37"/>
				</linearGradient>
				<path class="st76" d="M95.7,50.9c0,0,2.1-2.3,2.3-3.3c0,0,1.4,0.2,1.5,0.3c0,0.1-0.2,0.5-0.5,1.1c-0.2,0.4-0.5,0.6-1,0.8l0,0
					l0,0c0.3,0.1,0.3,0.4,0.1,0.6c-0.6,0.6-1.3,1.3-2.4,2.6C95.8,53,95.7,51.1,95.7,50.9z"/>
				<path class="st65" d="M95.9,52.9c0,0.1-0.1,0.1-0.1,0.2c0,0,0-1.3,0-1.9c0-0.1,0-0.1,0-0.2c0,0,0-0.1,0.1-0.2
					c0,0,0.1-0.1,0.1-0.1L95.9,52.9z"/>
				
					<linearGradient id="SVGID_18_" gradientUnits="userSpaceOnUse" x1="491.9016" y1="48.2333" x2="491.9016" y2="53.0038" gradientTransform="matrix(-1 0 0 1 586.8467 0)">
					<stop  offset="0" style="stop-color:#44413E"/>
					<stop  offset="1" style="stop-color:#3D3A37"/>
				</linearGradient>
				<path class="st77" d="M94.7,49.9l-0.3-0.1c-0.3-0.1-0.4-1.6-0.4-1.6c0-0.1,0.9-0.3,0.9-0.3c0.1,0.9,0.8,3,0.8,3
					c0,0.5,0,2.2,0,2.2c-0.3-0.4-0.7-1-1.3-2.6C94.3,49.9,94.7,49.9,94.7,49.9z"/>
				
					<linearGradient id="SVGID_19_" gradientUnits="userSpaceOnUse" x1="491.4874" y1="55.5596" x2="491.4874" y2="55.9955" gradientTransform="matrix(-1 0 0 1 586.8467 0)">
					<stop  offset="0" style="stop-color:#44413E"/>
					<stop  offset="1" style="stop-color:#3D3A37"/>
				</linearGradient>
				<ellipse class="st78" cx="95.4" cy="55.8" rx="0.2" ry="0.2"/>
				
					<linearGradient id="SVGID_20_" gradientUnits="userSpaceOnUse" x1="491.4874" y1="56.8325" x2="491.4874" y2="57.2685" gradientTransform="matrix(-1 0 0 1 586.8467 0)">
					<stop  offset="0" style="stop-color:#44413E"/>
					<stop  offset="1" style="stop-color:#3D3A37"/>
				</linearGradient>
				<ellipse class="st79" cx="95.4" cy="57.1" rx="0.2" ry="0.2"/>
				
					<linearGradient id="SVGID_21_" gradientUnits="userSpaceOnUse" x1="491.4874" y1="54.2852" x2="491.4874" y2="54.7211" gradientTransform="matrix(-1 0 0 1 586.8467 0)">
					<stop  offset="0" style="stop-color:#44413E"/>
					<stop  offset="1" style="stop-color:#3D3A37"/>
				</linearGradient>
				<ellipse class="st80" cx="95.4" cy="54.5" rx="0.2" ry="0.2"/>
				
					<linearGradient id="SVGID_22_" gradientUnits="userSpaceOnUse" x1="491.4874" y1="53.0108" x2="491.4874" y2="53.4467" gradientTransform="matrix(-1 0 0 1 586.8467 0)">
					<stop  offset="0" style="stop-color:#44413E"/>
					<stop  offset="1" style="stop-color:#3D3A37"/>
				</linearGradient>
				<ellipse class="st81" cx="95.4" cy="53.2" rx="0.2" ry="0.2"/>
				
					<linearGradient id="SVGID_23_" gradientUnits="userSpaceOnUse" x1="491.4874" y1="58.1055" x2="491.4874" y2="58.5415" gradientTransform="matrix(-1 0 0 1 586.8467 0)">
					<stop  offset="0" style="stop-color:#44413E"/>
					<stop  offset="1" style="stop-color:#3D3A37"/>
				</linearGradient>
				<ellipse class="st82" cx="95.4" cy="58.3" rx="0.2" ry="0.2"/>
				
					<linearGradient id="SVGID_24_" gradientUnits="userSpaceOnUse" x1="491.4874" y1="59.3785" x2="491.4874" y2="59.8144" gradientTransform="matrix(-1 0 0 1 586.8467 0)">
					<stop  offset="0" style="stop-color:#44413E"/>
					<stop  offset="1" style="stop-color:#3D3A37"/>
				</linearGradient>
				<ellipse class="st83" cx="95.4" cy="59.6" rx="0.2" ry="0.2"/>
				
					<linearGradient id="SVGID_25_" gradientUnits="userSpaceOnUse" x1="485.7531" y1="48.4355" x2="485.7531" y2="62.7545" gradientTransform="matrix(-1 0 0 1 586.8467 0)">
					<stop  offset="0" style="stop-color:#2C2825"/>
					<stop  offset="1" style="stop-color:#3D3A37"/>
				</linearGradient>
				<path class="st84" d="M99.4,54.2c0,0-0.5-3.5-0.4-4.5c0.1-1,1-1.5,1.4-1.4c0.4,0.1,1.8,3.2,2.3,7.3c0.5,4.1,0.5,7.2,0.5,7.2
					s-1.3,0.1-2.6,0.1c0,0-0.7-5.6-0.8-6.1C99.8,56.3,99.4,54.2,99.4,54.2z"/>
				<path class="st64" d="M99.6,54.5c0.2,1.3,0.2,2.4,0.2,2.3c-0.1-0.5-0.5-2.6-0.5-2.6S99,51.6,99,50.3
					C99,50.6,99.5,53.6,99.6,54.5z"/>
			</g>
		</g>
		<g>
			<g>
				<g>
					<path class="st50" d="M97.2,46.9c0-0.3,0.2-0.7,0.5-0.9s0.6-0.4,0.8-0.7c0.2-0.4,0.2-0.8,0-1.1c-0.2-0.3-0.6-0.6-1-0.6
						c-0.3-0.1-0.7,0-1,0.1c-0.3,0.2-0.5,0.5-0.6,0.8c0,0.3,0.1,0.8,0.5,0.9c0.1,0,0.1,0,0.1,0c0.1-0.1-0.1-0.3-0.1-0.5
						c0-0.2,0-0.4,0.1-0.5c0.2-0.3,0.6-0.3,0.9-0.1c0.3,0.2,0.4,0.6,0.3,0.9c-0.1,0.3-0.4,0.6-0.6,0.9c-0.2,0.3-0.4,0.6-0.4,0.9
						C96.9,47,97,46.9,97.2,46.9z"/>
					<polygon class="st50" points="94.8,48 97,46.7 99.2,47.9 99,48.1 97,47.2 95,48.2 					"/>
				</g>
				<path class="st48" d="M103.4,63.1c-3.5,0.3-9.1,0-12.5-0.3c-0.5-4.2,1.4-9.7,1.6-13.9c1.4-1.2,2.2-1.5,3.9-2.2
					c0.4,0,0.6,0.1,1,0c1.7,0.8,3.3,1,4.7,2.3C102.5,53.1,104.1,59,103.4,63.1z"/>
				<path class="st53" d="M101.9,60c0-3.3,0-6.7-0.1-10c-0.2,0.3-0.5,0.6-0.8,0.9c0.1-0.4,0.2-0.7,0.3-1c-0.4,0.2-0.7,0.2-1,0.3
					c0.4-0.2,0.7-0.5,1.1-0.7c-1.2-0.9-2.6-1.6-4.1-2.1c0,0.3,0,0.5-0.1,0.7c-0.1-0.3-0.3-0.5-0.4-0.8c-0.2,0.2-0.4,0.5-0.7,0.7
					c0.1-0.2,0.1-0.4,0.1-0.7c-1.3,0.7-2.5,1.6-3.6,2.6c0.2,0.1,0.4,0.2,0.6,0.3c-0.3,0-0.5,0-0.8,0c0.1,0.2,0.3,0.5,0.5,0.7
					c-0.3-0.1,0,1-0.2,0.8c-0.2,1.5-0.4,2-0.4,3.5c-0.1-1.7,0.2-4.5,0.3-6.2c1.4-1.1,2-1.5,3.7-2.1c0.4-0.1,0.7,0,1.1-0.1
					c1.6,0.7,3.1,1.1,4.5,2.2C102.4,52.5,102.3,56.5,101.9,60z"/>
			</g>
		</g>
	</g>
</g>
</svg>
