<svg width="164" height="88" viewBox="0 0 164 88" fill="none" xmlns="http://www.w3.org/2000/svg">
<path d="M12.5 85.9001C12.5 85.9001 -9.20005 56.9001 4.99995 31.8001C19.2 6.70009 27.7 42.4001 60.5 25.9001C93.2999 9.40009 134.8 -20.3999 155.8 22.5001C176.8 65.4001 149.4 85.9001 149.4 85.9001H12.5Z" fill="#FAFFFF"/>
<path d="M125.7 39.5C125.8 39.5 128.1 39.6 128.4 43.7C128.7 47.9 132.6 47.9 131.7 52.2C130.8 56.5 125.4 54.2 125.4 54.2C125.4 54.2 117 50.8 120.7 45.8C124.2 40.9 125.7 39.5 125.7 39.5Z" fill="#75271A"/>
<path d="M124.6 81.1003C125.1 81.4003 125.2 82.2003 125.2 83.2003C125.2 83.6003 125.2 83.4003 125.2 84.0003C125.2 85.2003 125.3 85.4003 125.2 86.0003C125.1 86.4003 125 86.7003 124.8 87.0003C124.5 87.3003 124.1 87.3003 123.9 87.4003C123.6 87.5003 123.1 87.5003 122.9 87.3003C122.8 87.1003 122.9 86.0003 123 85.2003C123.3 83.1003 123.5 81.2003 124.2 81.1003C124.4 80.9003 124.5 81.0003 124.6 81.1003Z" fill="#4C423F"/>
<path d="M127.3 81.1003C127.8 81.4003 127.9 82.2003 127.9 83.2003C127.9 83.6003 127.9 83.4003 127.9 84.0003C127.9 85.2003 128 85.4003 127.9 86.0003C127.8 86.4003 127.7 86.7003 127.5 87.0003C127.2 87.3003 126.8 87.3003 126.6 87.4003C126.3 87.5003 125.8 87.5003 125.6 87.3003C125.5 87.1003 125.6 86.0003 125.7 85.2003C126 83.1003 126.2 81.2003 126.9 81.1003C127.1 80.9003 127.2 81.0003 127.3 81.1003Z" fill="#4C423F"/>
<path d="M124 81C123.7 82.8 123.3 85.8 123.3 86.4C123.3 86.6 123.4 86.8 123.4 86.8C123.5 86.9 123.6 87 124.2 86.8C124.4 86.7 124.7 86.6 125.1 86.4C125 86.6 124.9 86.7 124.8 86.8C124.5 87.1 124.1 87.1 123.9 87.2C123.6 87.3 123.1 87.3 122.9 87.1C122.8 86.9 122.9 85.8 123 85C123.2 83.1 123.4 81.4 124 81Z" fill="#353131"/>
<path d="M126.8 86.9002C126.2 87.1002 126.1 86.9002 126 86.9002C125.9 86.8002 125.9 86.7002 125.9 86.5002C125.9 85.9002 126.4 83.0002 126.6 81.2002C126.1 81.7002 125.9 83.3002 125.6 85.2002C125.5 86.0002 125.4 87.2002 125.5 87.3002C125.7 87.5002 126.1 87.5002 126.5 87.4002C126.8 87.4002 127.1 87.3002 127.4 87.0002C127.6 86.8002 127.7 86.7002 127.7 86.5002C127.4 86.7002 127 86.8002 126.8 86.9002Z" fill="#353131"/>
<path d="M122.9 65.6001C122.2 66.6001 122.9 67.7001 123.3 70.1001C123.7 72.4001 123.1 71.9001 123.4 75.9001C123.4 76.6001 123.7 80.5001 123.6 82.2001C123.6 82.7001 123.6 82.9001 123.5 83.2001C123.4 84.0001 123.2 84.2001 123.3 84.8001C123.3 85.1001 123.4 85.7001 123.7 85.8001C124 85.9001 124.5 85.5001 124.8 85.1001C124.9 84.9001 125 84.7001 125 83.6001C125 82.8001 124.9 82.7001 124.9 82.3001C124.9 81.6001 125 81.2001 125.2 80.4001C125.2 80.4001 125.5 79.1001 125.7 77.9001C125.8 77.2001 126.1 75.3001 125.8 73.1001C125.7 72.3001 125.5 71.8001 125.5 70.8001C125.5 70.1001 125.5 69.7001 125.6 68.8001C125.8 66.3001 125.9 65.0001 125.5 64.7001C124.9 64.2001 123.5 64.7001 122.9 65.6001Z" fill="#F9B087"/>
<path d="M123.6 82.1002C123.7 80.4002 123.4 76.5002 123.4 75.8002C123.1 71.8002 123.7 72.4002 123.3 70.0002C122.9 67.7002 122.3 66.6002 122.9 65.5002C123.5 64.6002 124.9 64.1002 125.4 64.5002C125.7 64.7002 125.7 65.6002 125.6 67.2002C125.4 67.1002 125.1 67.0002 124.8 66.9002C124.6 66.9002 123.7 66.8002 123.3 67.3002C123.2 67.5002 123.2 67.7002 123.3 68.1002C123.4 69.0002 123.5 69.5002 123.6 70.0002C123.7 70.4002 123.8 71.1002 123.8 72.0002C123.8 72.4002 123.7 72.5002 123.7 73.1002C123.7 73.4002 123.7 73.8002 123.7 74.6002C123.7 75.4002 123.7 76.1002 123.7 76.3002C123.8 78.2002 123.8 78.5002 123.8 79.3002C123.9 81.9002 123.8 80.8002 123.8 82.1002C123.8 82.3002 123.5 83.9002 123.5 84.1002C123.4 84.4002 123.4 84.8002 123.7 85.4002C123.4 85.2002 123.3 84.6002 123.3 84.4002C123.3 83.8002 123.4 83.6002 123.5 82.8002C123.6 82.8002 123.6 82.6002 123.6 82.1002Z" fill="#F39474"/>
<path d="M126.1 84.4001C126.2 84.2001 126.5 82.6001 126.5 82.4001C126.5 81.1001 126.6 82.2001 126.6 79.6001C126.6 78.8001 126.6 78.4001 126.5 76.6001C126.5 76.3001 126.5 75.7001 126.5 74.9001C126.5 74.0001 126.5 73.6001 126.6 73.4001C126.7 72.7001 126.7 72.7001 126.7 72.3001C126.8 71.4001 126.7 70.7001 126.6 70.3001C126.5 69.8001 126.4 69.4001 126.3 68.4001C126.2 67.9001 126.2 67.7001 126.4 67.6001C126.7 67.1001 127.7 67.2001 127.9 67.2001C128.2 67.2001 128.5 67.4001 128.7 67.5001C128.9 65.9001 128.9 65.0001 128.6 64.8001C128 64.4001 126.7 64.8001 126 65.7001C125.3 66.7001 125.9 67.8001 126.3 70.2001C126.6 72.5001 126.1 72.0001 126.3 76.0001C126.3 76.7001 126.5 80.6001 126.4 82.3001C126.4 82.8001 126.3 83.0001 126.3 83.3001C126.2 84.1001 126 84.3001 126 84.9001C126 85.2001 126 85.8001 126.3 85.9001C126 85.1001 126 84.7001 126.1 84.4001Z" fill="#F39474"/>
<path d="M128.4 70.6002C128.4 69.9002 128.4 69.5002 128.5 68.6002C128.6 68.1002 128.6 67.6002 128.6 67.2002C128.4 67.1002 128.1 67.0002 127.8 66.9002C127.6 66.9002 126.7 66.7002 126.3 67.3002C126.2 67.5002 126.2 67.7002 126.2 68.1002C126.3 69.0002 126.4 69.5002 126.5 70.0002C126.6 70.4002 126.7 71.1002 126.6 72.0002C126.6 72.4002 126.5 72.5002 126.5 73.1002C126.5 73.4002 126.5 73.8002 126.4 74.6002C126.4 75.4002 126.4 76.1002 126.4 76.3002C126.4 78.2002 126.4 78.5002 126.5 79.3002C126.5 81.9002 126.4 80.8002 126.4 82.1002C126.4 82.3002 126.1 83.9002 126 84.1002C125.9 84.4002 125.9 84.8002 126.1 85.4002C126.4 85.5002 126.9 85.1002 127.2 84.7002C127.3 84.5002 127.4 84.3002 127.4 83.2002C127.4 82.4002 127.4 82.3002 127.4 81.9002C127.4 81.2002 127.5 80.8002 127.7 80.0002C127.7 80.0002 128 78.7002 128.3 77.5002C128.4 76.8002 128.8 74.9002 128.5 72.7002C128.5 72.2002 128.4 71.7002 128.4 70.6002Z" fill="#F9B087"/>
<path d="M128.3 55.5002H122.7L121.3 46.1002L124.6 45.2002H126.2L129.4 46.1002L128.3 55.5002Z" fill="white"/>
<path d="M122.1 46.2002C122.4 46.1002 123 45.9002 124.1 45.7002C125 45.5002 125.2 45.5002 125.4 45.5002C125.7 45.5002 126 45.5002 126.5 45.6002C127.8 45.8002 128.6 46.1002 129.1 46.2002C129.3 46.3002 129.4 46.3002 129.6 46.4002C129.7 46.5002 129.9 46.5002 130 46.6002C129.8 46.2002 129.6 46.0002 129.5 46.0002L126.3 45.2002H124.7L121.4 46.1002C121.3 46.1002 121.1 46.4002 120.8 46.8002C120.9 46.7002 121.1 46.6002 121.3 46.5002C121.4 46.4002 121.6 46.3002 122.1 46.2002Z" fill="#EDECEB"/>
<path d="M130.5 65.7002C130.3 63.0002 128.8 57.1002 128.4 55.7002C128.3 55.3002 128.2 54.9002 128.1 54.7002C127.7 53.5002 123.9 53.2002 122.9 54.7002C122.7 55.0002 122.7 55.2002 122.6 55.7002C122.4 57.0002 120.3 65.5002 120.5 65.7002C121.5 66.6002 127.5 67.2002 130.5 65.7002Z" fill="#211E27"/>
<path d="M121.8 48.5C121.7 48.5 121.1 49.6 120.8 50.3C120.9 50.3 121 50.4 121.1 50.4C121.4 49.8 121.7 49.3 121.8 49L122.7 55.5H123.2C122.7 52.7 122.4 50.4 122.2 49.6C122 48.8 121.9 48.5 121.8 48.5Z" fill="#EDECEB"/>
<path d="M129 48.9004C128.9 48.9004 128.8 49.2004 128.6 50.1004C128.5 50.8004 128.3 52.9004 127.9 55.5004H128.3L129 49.5004C129 49.8004 129.2 50.2004 129.5 50.7004C129.6 50.6004 129.7 50.6004 129.8 50.5004C129.5 49.8004 129.1 48.9004 129 48.9004Z" fill="#EDECEB"/>
<path d="M121.3 49.8C121.5 49.5 121.6 49.2 121.7 49L122.6 55.5H123.1C122.6 52.7 122.3 50.4 122.1 49.6C122 48.9 121.9 48.5 121.8 48.5C121.8 48.6 121.7 48.8 121.7 48.9C121.7 49.1 121.6 49.4 121.3 49.8Z" fill="#EDECEB"/>
<path d="M129 49.5004C129 49.3004 129 49.2004 128.9 48.9004C128.8 49.0004 128.7 49.3004 128.6 50.0004C128.5 50.7004 128.3 52.8004 127.9 55.4004H128.3L129 49.5004C129 49.5004 129 49.4004 129 49.5004C129 49.8004 129.2 50.2004 129.5 50.7004C129.6 50.6004 129.7 50.6004 129.8 50.5004C129.7 50.6004 129.6 50.6004 129.5 50.7004C129.3 50.2004 129.1 49.7004 129 49.5004Z" fill="#EDECEB"/>
<path d="M128.3 55.5004C128.3 55.5004 128 51.7004 128 50.5004C128 48.9004 128.2 47.5004 128.3 46.6004C128.3 46.3004 128.4 46.0004 128.4 45.7004L127.7 45.5004C127.6 45.8004 127.6 46.2004 127.6 46.6004C127.5 47.2004 127.4 47.9004 127.4 48.8004C126.8 48.7004 126.1 48.6004 125.3 48.6004C124.6 48.6004 124 48.7004 123.4 48.7004C123.3 47.8004 123.3 47.1004 123.2 46.5004C123.2 46.1004 123.1 45.8004 123.1 45.4004L122.4 45.6004C122.4 45.9004 122.5 46.2004 122.5 46.5004C122.6 47.4004 122.8 48.7004 122.8 50.4004C122.8 51.3004 122.8 55.4004 122.8 55.4004C122.8 55.4004 121.6 63.7004 122 64.3004C122.9 65.9004 128.6 65.7004 129.2 64.3004C129.4 63.7004 128.3 55.5004 128.3 55.5004Z" fill="#359591"/>
<path d="M123.2 49.1C123.2 49.1 123.9 48.9 125 48.9C126.4 48.9 127.4 49.2 127.4 49.2C127.4 49.2 127.6 47 127.9 45.7L127.7 45.6C127.6 45.9 127.6 46.3 127.6 46.7C127.5 47.3 127.4 48 127.4 48.9C126.8 48.8 126.1 48.7 125.3 48.7C124.6 48.7 124 48.8 123.4 48.8C123.3 47.9 123.3 47.2 123.2 46.6C123.2 46.2 123.1 45.9 123.1 45.5L122.9 45.6C123 45.9 123 46.3 123.1 46.6C123.2 48.6 123.2 49.1 123.2 49.1Z" fill="#9EE5DB"/>
<path d="M125.6 65.4004C125.2 65.4004 124.5 65.3004 124.4 65.3004C124 65.2004 123.4 65.1004 122.8 64.8004C122.6 64.7004 122.5 64.6004 122.4 64.5004C122.2 64.2004 122.2 63.9004 122.3 63.7004C122.3 63.2004 122.3 62.6004 122.4 62.1004C122.5 61.4004 122.5 60.7004 122.6 60.1004C122.9 57.6004 123 54.9004 123 54.4004C123 53.2004 123 52.4004 123 51.1004C122.9 48.9004 122.9 47.9004 122.7 47.1004C122.6 46.6004 122.6 46.2004 122.5 45.9004H122.4C122.4 46.2004 122.5 46.5004 122.5 46.8004C122.6 47.7004 122.8 49.0004 122.8 50.7004C122.8 51.6004 122.8 55.7004 122.8 55.7004C122.8 55.7004 121.6 64.0004 122 64.6004C122.9 66.1004 128 66.0004 129.1 64.8004C127.6 65.2004 126.4 65.4004 125.6 65.4004Z" fill="#9EE5DB"/>
<path d="M128.4 55.7001V55.5001C127.5 55.6001 126.5 55.2001 125.4 55.2001C124.3 55.2001 123.2 55.3001 122.6 55.1001V55.6001C122.6 55.6001 122.6 55.6001 122.6 55.7001C123.3 55.8001 124.3 56.0001 125.1 56.0001C126.5 56.1001 127.5 56.0001 128.4 55.7001Z" fill="#9EE5DB"/>
<path d="M128.4 55.6001C128.4 55.5001 128.3 55.5001 128.4 55.6001L128.5 54.8001C127.6 54.9001 126.5 55.1001 125.5 55.0001C124.4 55.0001 123.2 54.8001 122.7 54.6001L122.8 55.4001C122.8 55.4001 122.8 55.4001 122.8 55.5001C123.5 55.6001 124.5 55.8001 125.3 55.8001C126.5 55.9001 127.4 55.8001 128.4 55.6001Z" fill="#7FD6CB"/>
<path d="M130.4 48.7V48.5V48.7C130.3 48.7 130.2 48.8 130.1 48.7H129.9L130.1 48.8C130.2 48.8 130.2 48.9 130.2 49V49.2L130.3 49C130.3 48.9 130.4 48.9 130.5 48.9H130.7L130.5 48.8C130.5 48.8 130.4 48.8 130.4 48.7Z" fill="white"/>
<path d="M121.3 46.1001C120.9 46.1001 117.6 51.6001 117.1 54.3001C117 54.7001 116.9 54.9001 117.1 55.1001C117.2 55.3001 117.7 55.3001 117.9 55.2001C118.1 55.2001 121.5 49.8001 121.6 48.8001C121.9 47.9001 121.8 46.1001 121.3 46.1001Z" fill="#F9B087"/>
<path d="M117.9 55.3C117.5 55.5 111.8 52.6 111.4 52.2C111.2 52 111.6 51.4 111.9 51.3C112.1 51.2 117.6 53.2 118 53.8C118.4 54.5 118.3 55.1 117.9 55.3Z" fill="#F9B087"/>
<path d="M121.3 46.1001C121.1 46.1001 120.2 47.4001 119.3 49.1001C119.5 49.3001 119.7 49.4001 119.9 49.6001C120.3 49.9001 120.7 50.2001 121.1 50.4001C121.5 49.7001 121.7 49.2001 121.8 48.9001C122.2 47.5001 121.8 46.1001 121.3 46.1001Z" fill="white"/>
<path d="M120.8 50.2C120.9 50.2 121 50.3 121.1 50.3C121.2 50.1 121.3 50 121.4 49.8C121.6 49.4 121.8 49 121.8 48.9C121.8 48.8 121.9 48.6 121.9 48.5C121.7 48.5 121.2 49.5 120.8 50.2Z" fill="#EDECEB"/>
<path d="M121.3 46.1001C121.2 46.1001 121 46.4001 120.6 46.8001C120.7 46.7001 120.9 46.6001 121.1 46.5001C121.2 46.4001 121.4 46.4001 121.6 46.3001C121.6 46.2001 121.5 46.1001 121.3 46.1001Z" fill="#EDECEB"/>
<path d="M112.7 51.9001C112.7 51.7001 112.4 51.5001 112.1 51.4001C111.7 51.3001 111.5 51.4001 111.3 51.6001C111.1 51.8001 110.7 52.3001 110.7 52.7001C110.7 53.1001 111.5 53.5001 112 53.5001C112.5 53.5001 112.8 52.5001 112.7 51.9001Z" fill="#F9B087"/>
<path d="M129.6 47.2004C129.3 47.3004 128.7 53.5004 129.2 56.3004C129.3 56.7004 129.3 56.9004 129.4 57.1004C129.5 57.2004 130.2 55.0004 130.4 54.9004C130.6 54.8004 131.2 51.1004 131 50.2004C130.8 49.1004 129.7 47.1004 129.6 47.2004Z" fill="#F9B087"/>
<path d="M130.5 54.5004C130.7 55.0004 128.8 60.1004 128.1 60.1004C128.1 60.1004 127.6 60.4004 127.5 60.2004C127.1 59.8004 128.8 54.4004 129.3 54.1004C129.8 53.8004 130.2 54.0004 130.5 54.5004Z" fill="#F9B087"/>
<path d="M130 55.2004C130.2 54.6004 130.5 52.8004 130.6 51.7004C130.7 51.0004 130.7 50.2004 130.8 49.4004C130.9 49.7004 131 49.9004 131 50.1004C131.2 51.0004 130.6 54.7004 130.4 54.8004C130.2 56.0004 128.6 60.1004 128 60.1004C128 60.1004 128.7 59.3004 128.3 59.4004C128.9 58.1004 129.9 55.8004 130 55.2004Z" fill="#F39474"/>
<path d="M130.9 49.9001C130.4 48.0001 129.8 46.5001 129.7 46.4001C129.2 46.3001 128.8 48.6001 128.7 49.7001C128.7 50.0001 128.8 50.4001 129 51.0001C129.4 50.9001 129.8 50.7001 130.2 50.4001C130.5 50.2001 130.7 50.0001 130.9 49.9001Z" fill="white"/>
<path d="M129.9 46.7003C129.8 46.6003 129.8 46.5003 129.7 46.4003C129.7 46.4003 129.7 46.3003 129.6 46.3003C129.5 46.3003 129.4 46.4003 129.4 46.6003C129.5 46.6003 129.6 46.7003 129.7 46.7003C129.7 46.5003 129.8 46.6003 129.9 46.7003Z" fill="#EDECEB"/>
<path d="M128.8 49.1001C128.7 49.3001 128.7 49.5001 128.7 49.7001C128.7 50.0001 128.8 50.4001 129 51.0001C129.1 51.0001 129.2 50.9001 129.3 50.9001C129.1 50.1001 128.9 49.1001 128.8 49.1001Z" fill="#EDECEB"/>
<path d="M125.8 46.8001L125.7 40.7001C125.7 40.7001 122.9 39.0001 122.7 40.6001C122.7 40.6001 121.7 45.0001 124 44.8001V46.1001C124 46.1001 124.5 47.0001 125.1 47.1001C125.8 47.2001 125.8 46.8001 125.8 46.8001Z" fill="#F8A492"/>
<path d="M125.6 42.4002C125.6 42.4002 124.9 41.7002 124.7 40.5002C124.7 40.5002 123.7 41.3002 122.3 41.2002C120.9 41.1002 121.1 38.7002 122 38.7002C122.9 38.7002 124.7 39.7002 124.7 39.7002C124.7 39.7002 125.8 38.9002 126.3 40.1002C126.8 41.4002 126 42.5002 126 42.5002L125.6 42.4002Z" fill="#75271A"/>
<path d="M124.1 42.4004C124.1 42.6004 124.1 42.8004 124.2 42.8004C124 42.8004 124 42.5004 124.1 42.4004Z" fill="#75271A"/>
<path d="M124.3 42.2002C124.6 42.2002 124.5 42.7002 124.3 42.7002C124 42.7002 124 42.2002 124.3 42.2002Z" fill="#75271A"/>
<path d="M123.2 42.3003C123.2 42.3003 123.1 42.3003 123.2 42.3003C123.2 42.5003 123.1 42.7003 123 42.7003C123.1 42.7003 123.2 42.4003 123.2 42.3003Z" fill="#75271A"/>
<path d="M123 42.1001C122.7 42.0001 122.6 42.6001 122.9 42.6001C123.2 42.7001 123.3 42.1001 123 42.1001Z" fill="#75271A"/>
<path d="M124.5 42.0002C124.4 42.0002 124.4 41.9002 124.3 41.9002C124.2 41.9002 124.2 41.8002 124.1 41.8002V41.7002C124.2 41.6002 124.3 41.7002 124.4 41.7002C124.5 41.7002 124.6 41.8002 124.6 41.9002C124.7 41.9002 124.6 42.0002 124.5 42.0002Z" fill="#75271A"/>
<path d="M122.9 41.8C123 41.8 123 41.8 123.1 41.8C123.2 41.8 123.3 41.8 123.3 41.7V41.6C123.2 41.5 123.1 41.5 123 41.5C122.9 41.5 122.8 41.5 122.7 41.6C122.7 41.7 122.8 41.8 122.9 41.8Z" fill="#75271A"/>
<path d="M124.2 43.4002C124.1 43.5002 123.9 43.6002 123.8 43.6002C123.7 43.6002 123.7 43.6002 123.6 43.6002C123.6 43.5002 123.7 43.3002 123.7 43.3002C123.6 43.3002 123.4 43.4002 123.4 43.3002C123.5 42.8002 123.6 42.2002 123.8 41.7002C123.7 42.2002 123.5 42.7002 123.5 43.2002C123.6 43.2002 123.7 43.1002 123.8 43.2002L123.7 43.6002C123.8 43.6002 124 43.5002 124.2 43.4002Z" fill="#75271A"/>
<path d="M123.9 44.2001C123.8 44.2001 123.8 44.2001 123.7 44.2001C123.6 44.2001 123.6 44.1001 123.6 44.1001C123.6 44.2001 123.7 44.2001 123.8 44.3001C123.8 44.4001 123.9 44.3001 123.9 44.2001C124 44.2001 124 44.3001 123.9 44.2001Z" fill="#75271A"/>
<path d="M123.4 43.7002C123.4 43.7002 123.4 43.9002 123.6 44.0002C123.6 44.0002 123.7 44.1002 123.8 44.1002C123.9 44.1002 124 44.0002 124 43.9002C124 43.8002 124 43.7002 124 43.7002C124 43.7002 123.7 43.8002 123.4 43.7002Z" fill="#75271A"/>
<path d="M123.6 44.0003C123.6 44.0003 123.7 44.1003 123.8 44.1003C123.9 44.1003 124 44.0003 124 43.9003C123.8 43.8003 123.7 43.9003 123.6 44.0003Z" fill="#FF98B9"/>
<path d="M125.4 42.8004C125.4 42.8004 125.7 41.9004 126.1 42.0004C126.5 42.1004 126.4 43.3004 126.1 43.5004C125.7 43.8004 125.5 43.5004 125.5 43.5004L125.4 42.8004Z" fill="#F8A492"/>
<path d="M126.1 42.3003C125.9 42.5003 125.8 42.8003 125.8 43.1003C125.9 43.0003 126 42.9003 126.1 42.9003C126 42.9003 125.9 43.0003 125.8 43.1003C125.8 43.2003 125.8 43.3003 125.7 43.4003H125.6C125.6 43.1003 125.7 42.5003 126.1 42.3003Z" fill="#75271A"/>
<path d="M123.3 42.5001C123.2 42.9001 122.8 43.1001 122.4 43.0001C122 42.9001 121.8 42.4001 122 42.0001C122.1 41.6001 122.5 41.4001 122.9 41.5001C123.3 41.6001 123.5 42.1001 123.3 42.5001Z" stroke="#EF848E" stroke-width="0.1" stroke-miterlimit="10"/>
<path d="M125.2 42.6002C125.1 43.0002 124.7 43.2002 124.3 43.1002C123.9 43.0002 123.7 42.5002 123.9 42.1002C124 41.7002 124.4 41.5002 124.8 41.6002C125.1 41.7002 125.3 42.2002 125.2 42.6002Z" stroke="#EF848E" stroke-width="0.1" stroke-miterlimit="10"/>
<path d="M123.4 42.3003H123.8" stroke="#EF848E" stroke-width="0.1" stroke-miterlimit="10"/>
<path d="M127.8 59.0003C127.7 58.9003 126.9 58.9003 126.6 59.0003C126.3 59.1003 126.1 61.0003 126.3 60.9003C126.4 60.9003 126.4 60.9003 126.6 60.3003C126.6 60.3003 126.4 61.4003 126.7 61.4003C126.9 61.4003 127.2 60.0003 127.2 60.0003C127.2 60.0003 127.1 60.5003 127.4 60.6003C127.8 60.7003 128.5 59.7003 128.5 59.7003L127.8 59.0003Z" fill="#F9B087"/>
<path d="M134.2 86.6998H61.4999L60.5999 65.2998H71.1999L72.8999 78.9998H85.8999L88.1999 65.2998H135L134.2 86.6998Z" fill="#6CC8C1"/>
<path d="M134.8 73.5H87.0999V73.7H134.8V73.5Z" fill="#CCD9E2"/>
<path d="M125.151 86.7504L124.385 65.3633L124.186 65.3704L124.951 86.7576L125.151 86.7504Z" fill="#F5FBFF"/>
<path d="M108.819 65.3168L108.619 65.3091L107.794 86.6941L107.994 86.7018L108.819 65.3168Z" fill="#F5FBFF"/>
<path d="M92.018 65.3144L91.8181 65.3066L90.993 86.6917L91.1929 86.6994L92.018 65.3144Z" fill="#F5FBFF"/>
<path d="M66.0803 86.7172L65.3152 65.3301L65.1153 65.3372L65.8804 86.7244L66.0803 86.7172Z" fill="#F5FBFF"/>
<path d="M124.989 86.7104L124.224 65.3232L124.024 65.3304L124.79 86.7175L124.989 86.7104Z" fill="#CCD9E2"/>
<path d="M108.619 65.3153L108.419 65.3076L107.594 86.6926L107.794 86.7003L108.619 65.3153Z" fill="#CCD9E2"/>
<path d="M91.9179 65.3168L91.718 65.3091L90.8929 86.6941L91.0928 86.7018L91.9179 65.3168Z" fill="#CCD9E2"/>
<path d="M65.9192 86.6772L65.1541 65.29L64.9542 65.2972L65.7193 86.6844L65.9192 86.6772Z" fill="#CCD9E2"/>
<path d="M72.3999 73.7002H60.8999V73.9002H72.3999V73.7002Z" fill="#F5FBFF"/>
<path d="M134.7 73.2998H87V73.4998H134.7V73.2998Z" fill="#F5FBFF"/>
<path d="M60.5999 65.3002H70.5999L72.6999 79.5002H86.1999L88.3999 65.3002H135.5L135.7 63.7002H87.4999L85.6999 78.7002H73.2999L71.5999 63.7002H60.3999L60.5999 65.3002Z" fill="#CCD9E2"/>
<path opacity="0.18" d="M135 65.2998V67.1998L88 67.6998L88.4 65.2998H135Z" fill="#0C123A"/>
<path d="M134.2 86.7L134.4 81.4L134.5 78.7C134.5 77.8 134.6 76.9 134.6 76L135 65.3V65.2H135.1H135.5L135.4 65.3L135.6 63.6L135.7 63.7H111.6H99.5999H96.5999H93.5999L87.5999 63.6L93.5999 63.5H96.5999H99.5999H111.6H135.7H135.8V63.6L135.6 65.3V65.4H135.5H135L135.1 65.3L134.7 76C134.7 76.9 134.6 77.8 134.6 78.7L134.5 81.4L134.2 86.7Z" fill="#CCD9E2"/>
<path opacity="0.18" d="M86.1999 79.4998L85.4999 80.8998L70.8999 81.1998L68.4999 67.6998L60.6999 67.9998L60.5999 65.2998H70.5999L72.6999 79.4998H86.1999Z" fill="#0C123A"/>
<path d="M122 67.2998L114.9 86.3998H109L111.5 67.3998L122 67.2998ZM103.8 67.5998L104.9 86.4998H108.8L110.6 67.4998L103.8 67.5998Z" fill="url(#paint0_linear)"/>
<path d="M46.4 53.4001H36.5C36.2 53.4001 36 53.2001 36 52.9001V52.6001C36 52.3001 36.2 52.1001 36.5 52.1001H46.4C46.7 52.1001 46.9 52.3001 46.9 52.6001V52.9001C47 53.1001 46.7 53.4001 46.4 53.4001Z" fill="#FFDD00"/>
<path opacity="0.57" d="M46.4 52.0002H36.5C36.2 52.0002 36 51.8002 36 51.5002V51.2002C36 50.9002 36.2 50.7002 36.5 50.7002H46.4C46.7 50.7002 46.9 50.9002 46.9 51.2002V51.5002C47 51.8002 46.7 52.0002 46.4 52.0002Z" fill="#E8F4FC"/>
<path d="M46.8 50.6003H36.7C36.3 50.6003 36 50.3003 36 49.9003V49.5003C36 49.1003 36.3 48.8003 36.7 48.8003H46.8C47.2 48.8003 47.5 49.1003 47.5 49.5003V49.9003C47.5 50.3003 47.2 50.6003 46.8 50.6003Z" fill="#6CC8C1"/>
<path d="M45 53.5H21.3V86.6H45V53.5Z" fill="#9DB5C4"/>
<path d="M48 53.5H24.3V86.6H48V53.5Z" fill="white"/>
<path d="M48 53.5H24.3V86.6H48V53.5Z" fill="#E8F4FC"/>
<path d="M48 81.2002H24.3V81.7002H48V81.2002Z" fill="#B3C6D4"/>
<path d="M48 81.2002H24.3V81.4002H48V81.2002Z" fill="#9BB5C4"/>
<path d="M48 53.5H24.3V60H48V53.5Z" fill="#F5FBFF"/>
<path d="M48 59.3999H24.3V59.7999H48V59.3999Z" fill="#B3C6D4"/>
<path d="M48 59.3999H24.3V59.5999H48V59.3999Z" fill="#9DB5C4"/>
<path d="M48 53.5H24.3V55H48V53.5Z" fill="#F5FBFF"/>
<path d="M26.6 55.3999H31.3C31.7 55.3999 32 55.6999 32 56.0999V58.5999C32 58.7999 31.8 58.9999 31.6 58.9999H26.2001C26.0001 58.9999 25.8 58.7999 25.8 58.5999V56.0999C25.9 55.6999 26.2 55.3999 26.6 55.3999Z" fill="#359591"/>
<path d="M26.6001 55.3999H31.4001C31.8001 55.3999 32.0001 55.6999 32.0001 55.9999V57.9999C32.0001 58.1999 31.9001 58.2999 31.7001 58.2999H26.2001C26.0001 58.2999 25.9001 58.1999 25.9001 57.9999V55.9999C25.9001 55.6999 26.2001 55.3999 26.6001 55.3999Z" fill="#3D576B"/>
<path d="M36 58.4C36.6628 58.4 37.2 57.8627 37.2 57.2C37.2 56.5373 36.6628 56 36 56C35.3373 56 34.8 56.5373 34.8 57.2C34.8 57.8627 35.3373 58.4 36 58.4Z" fill="#B9CFD6"/>
<path d="M35.7001 56C35.3001 56.2 35.1001 56.6 35.1001 57.1C35.1001 57.8 35.6001 58.3 36.3001 58.3C36.4001 58.3 36.5001 58.3 36.6001 58.3C36.4001 58.4 36.3001 58.4 36.1001 58.4C35.4001 58.4 34.9001 57.9 34.9001 57.2C34.9001 56.6 35.2001 56.2 35.7001 56Z" fill="#ABC1C6"/>
<path d="M36.0001 58.0998C36.4972 58.0998 36.9001 57.6969 36.9001 57.1998C36.9001 56.7027 36.4972 56.2998 36.0001 56.2998C35.503 56.2998 35.1001 56.7027 35.1001 57.1998C35.1001 57.6969 35.503 58.0998 36.0001 58.0998Z" fill="#3D576B"/>
<path d="M36.0001 58.0998C36.4972 58.0998 36.9001 57.6969 36.9001 57.1998C36.9001 56.7027 36.4972 56.2998 36.0001 56.2998C35.503 56.2998 35.1001 56.7027 35.1001 57.1998C35.1001 57.6969 35.503 58.0998 36.0001 58.0998Z" fill="#3D576B"/>
<path d="M35.8001 56.2998C35.7001 56.3998 35.6001 56.5998 35.6001 56.7998C35.6001 57.2998 36.0001 57.6998 36.5001 57.6998C36.6001 57.6998 36.6001 57.6998 36.7001 57.6998C36.5001 57.8998 36.3001 57.9998 36.0001 57.9998C35.5001 57.9998 35.1001 57.5998 35.1001 57.0998C35.2001 56.7998 35.5001 56.3998 35.8001 56.2998Z" fill="#184670"/>
<path d="M29.6 55.7002H31.5C31.5 55.7002 31.6 55.7002 31.6 55.8002V56.4002C31.6 56.4002 31.6 56.5002 31.5 56.5002H29.6C29.6 56.5002 29.5 56.5002 29.5 56.4002L29.6 55.7002C29.5 55.7002 29.5 55.8002 29.6 55.7002Z" fill="#CCD9E2"/>
<path d="M45.3001 55.3999H46.8001C46.9001 55.3999 47.0001 55.4999 47.0001 55.5999V55.9999C47.0001 56.0999 46.9001 56.1999 46.8001 56.1999H45.3001C45.2001 56.1999 45.1001 56.0999 45.1001 55.9999V55.5999C45.1001 55.4999 45.2001 55.3999 45.3001 55.3999Z" fill="#D82156"/>
<path d="M45.3001 55.3999H46.7001C46.8001 55.3999 46.9001 55.4999 46.9001 55.5999V55.8999C46.9001 55.9999 46.8001 56.0999 46.7001 56.0999H45.3001C45.2001 56.0999 45.1001 55.9999 45.1001 55.8999V55.5999C45.1001 55.4999 45.2001 55.3999 45.3001 55.3999Z" fill="#6CC8C1"/>
<path d="M45.3 55.3999H45.4V55.7999C45.4 55.8999 45.5 55.9999 45.6 55.9999H46.9C46.9 56.0999 46.8 56.0999 46.7 56.0999H45.2C45.1 56.0999 45 55.9999 45 55.8999V55.4999C45.1 55.4999 45.2 55.3999 45.3 55.3999Z" fill="#359591"/>
<path d="M38.1 55.7002H38.8C38.9 55.7002 38.9 55.7002 38.9 55.8002V56.0002C38.9 56.1002 38.9 56.1002 38.8 56.1002H38.1C38 56.1002 38 56.0002 38 56.0002L38.1 55.7002C38 55.7002 38 55.7002 38.1 55.7002Z" fill="#6CC8C1"/>
<path d="M38.1 56.4004H38.8C38.9 56.4004 38.9 56.4004 38.9 56.5004V56.7004C38.9 56.8004 38.9 56.8004 38.8 56.8004H38.1C38 56.8004 38 56.8004 38 56.7004L38.1 56.4004C38 56.4004 38 56.4004 38.1 56.4004Z" fill="#6CC8C1"/>
<path d="M38.1 57.1001H38.8C38.9 57.1001 38.9 57.1001 38.9 57.2001V57.4001C38.9 57.5001 38.9 57.5001 38.8 57.5001H38.1C38 57.5001 38 57.5001 38 57.4001L38.1 57.1001C38 57.1001 38 57.1001 38.1 57.1001Z" fill="#6CC8C1"/>
<path d="M38.1 57.8003H38.8C38.9 57.8003 38.9 57.8003 38.9 57.9003V58.0003C38.9 58.1003 38.9 58.1003 38.8 58.1003H38.1C38 58.1003 38 58.1003 38 58.0003L38.1 57.8003C38 57.8003 38 57.8003 38.1 57.8003Z" fill="#6CC8C1"/>
<path d="M38.1 58.5H38.8C38.9 58.5 38.9 58.5 38.9 58.6V58.8C38.9 58.9 38.9 58.9 38.8 58.9H38.1C38 58.9 38 58.9 38 58.8L38.1 58.5C38 58.5 38 58.5 38.1 58.5Z" fill="#6CC8C1"/>
<path d="M33.2999 55.7002H34C34.1 55.7002 34.0999 55.7002 34.0999 55.8002V56.0002C34.0999 56.1002 34.1 56.1002 34 56.1002H33.2999C33.1999 56.1002 33.2 56.1002 33.2 56.0002L33.2999 55.7002C33.1999 55.7002 33.1999 55.7002 33.2999 55.7002Z" fill="#6CC8C1"/>
<path d="M33.2999 56.4004H34C34.1 56.4004 34.0999 56.4004 34.0999 56.5004V56.7004C34.0999 56.8004 34.1 56.8004 34 56.8004H33.2999C33.1999 56.8004 33.2 56.8004 33.2 56.7004L33.2999 56.4004C33.1999 56.4004 33.1999 56.4004 33.2999 56.4004Z" fill="#6CC8C1"/>
<path d="M33.2999 57.1001H34C34.1 57.1001 34.0999 57.1001 34.0999 57.2001V57.4001C34.0999 57.5001 34.1 57.5001 34 57.5001H33.2999C33.1999 57.5001 33.2 57.5001 33.2 57.4001L33.2999 57.1001C33.1999 57.1001 33.1999 57.1001 33.2999 57.1001Z" fill="#6CC8C1"/>
<path d="M33.2999 57.8003H34C34.1 57.8003 34.0999 57.8003 34.0999 57.9003V58.0003C34.0999 58.1003 34.1 58.1003 34 58.1003H33.2999C33.1999 58.1003 33.2 58.1003 33.2 58.0003L33.2999 57.8003C33.1999 57.8003 33.1999 57.8003 33.2999 57.8003Z" fill="#6CC8C1"/>
<path d="M33.2999 58.5H34C34.1 58.5 34.0999 58.5 34.0999 58.6V58.8C34.0999 58.9 34.1 58.9 34 58.9H33.2999C33.1999 58.9 33.2 58.9 33.2 58.8L33.2999 58.5C33.1999 58.5 33.1999 58.5 33.2999 58.5Z" fill="#6CC8C1"/>
<path d="M46.4001 58.5C46.6763 58.5 46.9001 58.2761 46.9001 58C46.9001 57.7239 46.6763 57.5 46.4001 57.5C46.124 57.5 45.9001 57.7239 45.9001 58C45.9001 58.2761 46.124 58.5 46.4001 58.5Z" fill="#3D576B"/>
<path d="M48 86.1001H24.3V86.6001H48V86.1001Z" fill="#B3C6D4"/>
<path d="M27.3 82.8999H32.5C32.7 82.8999 32.8 82.9999 32.8 83.1999V86.5999H27V83.1999C27 83.0999 27.1 82.8999 27.3 82.8999Z" fill="#B3C6D4"/>
<path d="M27.8 83.5H32C32.1 83.5 32.3 83.6 32.3 83.8V86.6H27.6V83.8C27.5 83.6 27.6 83.5 27.8 83.5Z" fill="#8BA6B6"/>
<path d="M28.1 84.1001H31.8C31.8 84.1001 31.9 84.1001 31.9 84.2001V84.3001C31.9 84.3001 31.9 84.4001 31.8 84.4001H28.1C28.1 84.4001 28 84.4001 28 84.3001L28.1 84.1001C28 84.1001 28 84.1001 28.1 84.1001Z" fill="#A7BCC9"/>
<path d="M28.1 84.7998H31.8C31.8 84.7998 31.9 84.7998 31.9 84.8998V84.9998C31.9 84.9998 31.9 85.0998 31.8 85.0998H28.1C28.1 85.0998 28 85.0998 28 84.9998L28.1 84.7998C28 84.7998 28 84.7998 28.1 84.7998Z" fill="#A7BCC9"/>
<path d="M28.1 85.5H31.8C31.8 85.5 31.9 85.5 31.9 85.6V85.7C31.9 85.7 31.9 85.8 31.8 85.8H28.1C28.1 85.8 28 85.8 28 85.7L28.1 85.5C28 85.5 28 85.6 28.1 85.5Z" fill="#A7BCC9"/>
<path d="M48 54.6001H24.3V54.9001H48V54.6001Z" fill="#B3C6D4"/>
<path d="M48 54.5H24.3V54.7H48V54.5Z" fill="#9DB5C4"/>
<path d="M26.6001 55.3999C26.7001 55.4999 26.7001 55.6999 26.8001 55.8999C27.2001 57.0999 28.4001 57.6999 28.9001 57.7999C29.2001 57.8999 29.8001 57.9999 31.0001 57.9999C31.3001 57.9999 31.6001 57.9999 32.0001 57.9999V58.2999H25.9001V56.0999C25.9001 55.6999 26.2001 55.3999 26.6001 55.3999Z" fill="#144566"/>
<path d="M36.5986 56.7578C36.4739 56.5755 36.2619 56.5035 36.1252 56.5971C35.9884 56.6907 35.9787 56.9143 36.1035 57.0966C36.2282 57.279 36.4402 57.3509 36.5769 57.2573C36.7137 57.1638 36.7234 56.9401 36.5986 56.7578Z" fill="#29748E"/>
<path d="M46.4001 58.5C46.6763 58.5 46.9001 58.2761 46.9001 58C46.9001 57.7239 46.6763 57.5 46.4001 57.5C46.124 57.5 45.9001 57.7239 45.9001 58C45.9001 58.2761 46.124 58.5 46.4001 58.5Z" fill="#3D576B"/>
<path d="M46.3001 57.3999C46.2001 57.4999 46.2001 57.5999 46.2001 57.7999C46.2001 58.0999 46.4001 58.2999 46.7001 58.2999H46.8001C46.7001 58.3999 46.6001 58.4999 46.4001 58.4999C46.1001 58.4999 45.9001 58.2999 45.9001 57.9999C45.9001 57.6999 46.0001 57.4999 46.3001 57.3999Z" fill="#2D4351"/>
<path d="M46.7834 57.7496C46.722 57.6578 46.5978 57.6331 46.506 57.6945C46.4141 57.7559 46.3895 57.8801 46.4509 57.9719C46.5122 58.0637 46.6365 58.0884 46.7283 58.027C46.8201 57.9656 46.8448 57.8414 46.7834 57.7496Z" fill="#678699"/>
<path d="M44.7001 58.3002C44.8658 58.3002 45.0001 58.1659 45.0001 58.0002C45.0001 57.8345 44.8658 57.7002 44.7001 57.7002C44.5345 57.7002 44.4001 57.8345 44.4001 58.0002C44.4001 58.1659 44.5345 58.3002 44.7001 58.3002Z" fill="#B3C6D4"/>
<path d="M44.6 57.6001C44.5 57.7001 44.5 57.7001 44.5 57.8001C44.5 58.0001 44.7 58.1001 44.8 58.1001H44.9C44.8 58.2001 44.7 58.2001 44.6 58.2001C44.4 58.2001 44.3 58.0001 44.3 57.9001C44.4 57.8001 44.5 57.6001 44.6 57.6001Z" fill="#A6BCC9"/>
<path d="M44.9616 57.766C44.9002 57.6742 44.8132 57.6247 44.7673 57.6554C44.7214 57.6861 44.7339 57.7854 44.7953 57.8772C44.8567 57.969 44.9437 58.0186 44.9896 57.9879C45.0355 57.9572 45.023 57.8579 44.9616 57.766Z" fill="#CCD9E2"/>
<path d="M43.4001 58.2997C43.5658 58.2997 43.7001 58.1654 43.7001 57.9997C43.7001 57.834 43.5658 57.6997 43.4001 57.6997C43.2344 57.6997 43.1001 57.834 43.1001 57.9997C43.1001 58.1654 43.2344 58.2997 43.4001 58.2997Z" fill="#B3C6D4"/>
<path d="M43.3 57.5996C43.2 57.6996 43.2 57.6996 43.2 57.7996C43.2 57.9996 43.4 58.0996 43.5 58.0996H43.6C43.5 58.1996 43.4 58.1996 43.3 58.1996C43.1 58.1996 43 57.9996 43 57.8996C43.1 57.7996 43.2 57.5996 43.3 57.5996Z" fill="#A6BCC9"/>
<path d="M43.6371 57.7529C43.5757 57.661 43.4888 57.6115 43.4428 57.6422C43.3969 57.6729 43.4095 57.7722 43.4709 57.864C43.5323 57.9558 43.6192 58.0054 43.6652 57.9747C43.7111 57.944 43.6985 57.8447 43.6371 57.7529Z" fill="#CCD9E2"/>
<path d="M42.1 58.3002C42.2657 58.3002 42.4 58.1659 42.4 58.0002C42.4 57.8345 42.2657 57.7002 42.1 57.7002C41.9344 57.7002 41.8 57.8345 41.8 58.0002C41.8 58.1659 41.9344 58.3002 42.1 58.3002Z" fill="#B3C6D4"/>
<path d="M42 57.6001C41.9 57.7001 41.9 57.7001 41.9 57.8001C41.9 58.0001 42.1 58.1001 42.2 58.1001H42.3C42.2 58.2001 42.1 58.2001 42 58.2001C41.8 58.2001 41.7 58.0001 41.7 57.9001C41.7 57.8001 41.9 57.6001 42 57.6001Z" fill="#A6BCC9"/>
<path d="M42.3693 57.8237C42.3079 57.7318 42.2209 57.6823 42.175 57.713C42.1291 57.7437 42.1417 57.843 42.2031 57.9348C42.2644 58.0266 42.3514 58.0762 42.3973 58.0455C42.4432 58.0148 42.4307 57.9155 42.3693 57.8237Z" fill="#CCD9E2"/>
<path d="M45.7 55.5H46.7C46.7 55.5 46.8 55.5 46.8 55.6C46.8 55.6 46.8 55.7 46.7 55.7H45.7C45.7 55.7 45.7 55.7 45.7 55.5C45.7 55.5 45.7 55.6 45.7 55.5Z" fill="#CCD9E2"/>
<path d="M48 86.2998H24.3V86.4998H48V86.2998Z" fill="#8BA6B6"/>
<path opacity="0.07" d="M27.1 77.3C27.1 80.4 29.6 83 32.8 83H48V86.6H24.3V53.5H27.2001L27.1 77.3Z" fill="#082B72"/>
<path d="M36.0001 78.7C41.0259 78.7 45.1001 74.6258 45.1001 69.6C45.1001 64.5742 41.0259 60.5 36.0001 60.5C30.9744 60.5 26.9001 64.5742 26.9001 69.6C26.9001 74.6258 30.9744 78.7 36.0001 78.7Z" fill="#B3C6D4"/>
<path d="M36.0001 78.7C41.0259 78.7 45.1001 74.6258 45.1001 69.6C45.1001 64.5742 41.0259 60.5 36.0001 60.5C30.9744 60.5 26.9001 64.5742 26.9001 69.6C26.9001 74.6258 30.9744 78.7 36.0001 78.7Z" fill="#6CC8C1"/>
<path opacity="0.3" d="M34.3001 60.7002C30.5001 61.8002 27.8001 65.3002 27.8001 69.4002C27.8001 74.4002 31.9001 78.5002 36.9001 78.5002C37.5001 78.5002 38.1001 78.4002 38.6001 78.3002C37.8001 78.5002 36.9001 78.7002 36.0001 78.7002C31.0001 78.7002 26.9001 74.6002 26.9001 69.6002C27.0001 65.2002 30.1001 61.5002 34.3001 60.7002Z" fill="white"/>
<path d="M36 76.7999C39.9765 76.7999 43.2 73.5763 43.2 69.5999C43.2 65.6234 39.9765 62.3999 36 62.3999C32.0236 62.3999 28.8 65.6234 28.8 69.5999C28.8 73.5763 32.0236 76.7999 36 76.7999Z" fill="#3D576B"/>
<path d="M36 75.4C39.4793 75.4 42.3 72.6242 42.3 69.2C42.3 65.7758 39.4793 63 36 63C32.5206 63 29.7 65.7758 29.7 69.2C29.7 72.6242 32.5206 75.4 36 75.4Z" fill="#144B63"/>
<path d="M36.0001 74.4C38.4302 74.4 40.4001 72.0719 40.4001 69.2C40.4001 66.3281 38.4302 64 36.0001 64C33.57 64 31.6001 66.3281 31.6001 69.2C31.6001 72.0719 33.57 74.4 36.0001 74.4Z" fill="#3D576B"/>
<path d="M34.3001 71.8001C35.2001 71.6001 36.5001 71.1001 38.4001 71.2001C39.8001 71.2001 40.9001 71.5001 41.7001 71.8001C40.7001 73.9001 38.5001 75.4001 36.0001 75.4001C33.3001 75.4001 31.0001 73.7001 30.1001 71.3001C31.9001 72.1001 33.3001 72.1001 34.3001 71.8001Z" fill="#61AFBC"/>
<path opacity="0.18" d="M34 63.2998C33.5 64.1998 33.2001 65.2998 33.2001 66.3998C33.2001 69.9998 36.1 72.8998 39.7 72.8998C40.3 72.8998 40.8001 72.7998 41.3001 72.6998C40.2001 74.3998 38.2 75.4998 36.1 75.4998C32.6 75.4998 29.8 72.6998 29.8 69.2998C29.8 66.4998 31.5 64.1998 34 63.2998Z" fill="#0C123A"/>
<path opacity="0.27" d="M40.1727 66.1835C39.3946 64.9114 38.1909 64.2305 37.4841 64.6628C36.7774 65.0951 36.8353 66.4768 37.6134 67.7489C38.3914 69.021 39.5951 69.7018 40.3019 69.2695C41.0086 68.8373 40.9507 67.4556 40.1727 66.1835Z" fill="white"/>
<path d="M41.5 63.1999C41.6 62.9999 41.8 62.9999 42 63.0999C42.3 63.3999 42.6001 63.6999 42.9001 63.9999C43.2001 64.3999 43.5 64.7999 43.6 65.2999C43.7 65.4999 43.6001 65.6999 43.4001 65.6999C43.2001 65.7999 43.1 65.6999 43 65.4999C42.8 65.0999 42.6001 64.6999 42.3001 64.2999C42.1001 63.9999 41.8 63.6999 41.5 63.4999C41.4 63.5999 41.4 63.3999 41.5 63.1999Z" fill="#CCD9E2"/>
<path d="M41.1999 75.6998C41.8999 75.0998 42.3999 74.4998 42.8999 73.6998C43.1999 73.1998 43.9999 71.7998 44.0999 69.7998C44.0999 69.0998 44.0999 68.3998 43.9999 67.6998C43.9999 67.4998 44.0999 67.3998 44.1999 67.2998C44.3999 67.2998 44.5999 67.3998 44.5999 67.5998C44.6999 68.3998 44.7999 69.0998 44.7999 69.8998C44.6999 71.9998 43.8999 73.4998 43.4999 74.0998C42.9999 74.8998 42.3999 75.5998 41.6999 76.1998C41.5999 76.2998 41.2999 76.2998 41.1999 76.1998C40.9999 75.9998 41.0999 75.7998 41.1999 75.6998Z" fill="#CCD9E2"/>
<path d="M82.9998 73.8999C82.9998 73.8999 87.2998 69.0999 85.4998 68.6999C83.6998 68.2999 82.5998 69.3999 82.5998 69.3999C82.5998 69.3999 81.2998 66.3999 79.7998 67.3999C78.3998 68.3999 76.1998 73.1999 76.5998 73.9999C76.8998 74.8999 82.9998 73.8999 82.9998 73.8999Z" fill="#3D576B"/>
<path d="M75 73.4999L81.9 72.1999C81.9 72.1999 81.9 69.7999 81.2 69.5999C80.5 69.3999 75.3 67.7999 74.5 68.8999C73.8 69.9999 75 73.4999 75 73.4999Z" fill="#FFDD00"/>
<path d="M79.5999 71.8003C79.5999 71.8003 84.4999 72.1003 84.5999 73.5003C84.7999 74.9003 84.2999 76.5003 84.2999 76.5003L79.0999 75.6003L79.5999 71.8003Z" fill="#3D576B"/>
<path d="M84.6999 74.2999C84.6999 74.2999 82.3999 72.7999 80.0999 75.1999C77.7999 77.5999 77.0999 77.8999 77.0999 77.8999H83.8999L84.6999 74.2999Z" fill="#FFEC00"/>
<path d="M77.2999 69.8999C77.2999 69.8999 73.3999 75.0999 74.7999 77.3999C74.7999 77.3999 77.8999 78.8999 79.7999 77.6999C81.6999 76.4999 80.2999 70.3999 80.2999 70.3999L77.2999 69.8999Z" fill="white"/>
<path d="M77.8 72.7998H77.3V73.4998H77.8V72.7998Z" fill="#6CC8C1"/>
<path d="M77.8 74.1001H77.3V74.8001H77.8V74.1001Z" fill="#6CC8C1"/>
<path d="M77.8 76.7998H77.3V77.4998H77.8V76.7998Z" fill="#6CC8C1"/>
<path d="M77.8 75.5H77.3V76.2H77.8V75.5Z" fill="#6CC8C1"/>
<path d="M77.8 71.3999H77.3V72.0999H77.8V71.3999Z" fill="#6CC8C1"/>
<path d="M78.8 74.1001H78.3V74.8001H78.8V74.1001Z" fill="#6CC8C1"/>
<path d="M78.8 75.5H78.3V76.2H78.8V75.5Z" fill="#6CC8C1"/>
<path d="M78.8 76.7998H78.3V77.4998H78.8V76.7998Z" fill="#6CC8C1"/>
<path d="M78.8 71.3999H78.3V72.0999H78.8V71.3999Z" fill="#6CC8C1"/>
<path d="M78.8 72.7998H78.3V73.4998H78.8V72.7998Z" fill="#6CC8C1"/>
<path d="M79.8 76.7998H79.3V77.4998H79.8V76.7998Z" fill="#6CC8C1"/>
<path d="M79.8 72.7998H79.3V73.4998H79.8V72.7998Z" fill="#6CC8C1"/>
<path d="M79.8 74.1001H79.3V74.8001H79.8V74.1001Z" fill="#6CC8C1"/>
<path d="M79.8 75.5H79.3V76.2H79.8V75.5Z" fill="#6CC8C1"/>
<path d="M79.8 71.3999H79.3V72.0999H79.8V71.3999Z" fill="#6CC8C1"/>
<path d="M80.8 71.3999H80.3V72.0999H80.8V71.3999Z" fill="#6CC8C1"/>
<path d="M80.8 76.7998H80.3V77.4998H80.8V76.7998Z" fill="#6CC8C1"/>
<path d="M80.8 72.7998H80.3V73.4998H80.8V72.7998Z" fill="#6CC8C1"/>
<path d="M80.8 75.5H80.3V76.2H80.8V75.5Z" fill="#6CC8C1"/>
<path d="M80.8 74.1001H80.3V74.8001H80.8V74.1001Z" fill="#6CC8C1"/>
<path d="M81.8999 71.3999H81.3999V72.0999H81.8999V71.3999Z" fill="#6CC8C1"/>
<path d="M81.8999 74.1001H81.3999V74.8001H81.8999V74.1001Z" fill="#6CC8C1"/>
<path d="M81.8999 76.7998H81.3999V77.4998H81.8999V76.7998Z" fill="#6CC8C1"/>
<path d="M81.8999 72.7998H81.3999V73.4998H81.8999V72.7998Z" fill="#6CC8C1"/>
<path d="M81.8999 75.5H81.3999V76.2H81.8999V75.5Z" fill="#6CC8C1"/>
<path d="M82.8999 76.7998H82.3999V77.4998H82.8999V76.7998Z" fill="#6CC8C1"/>
<path d="M82.8999 71.3999H82.3999V72.0999H82.8999V71.3999Z" fill="#6CC8C1"/>
<path d="M82.8999 72.7998H82.3999V73.4998H82.8999V72.7998Z" fill="#6CC8C1"/>
<path d="M82.8999 75.5H82.3999V76.2H82.8999V75.5Z" fill="#6CC8C1"/>
<path d="M82.8999 74.1001H82.3999V74.8001H82.8999V74.1001Z" fill="#6CC8C1"/>
<path d="M83.8999 76.7998H83.3999V77.4998H83.8999V76.7998Z" fill="#6CC8C1"/>
<path d="M83.8999 72.7998H83.3999V73.4998H83.8999V72.7998Z" fill="#6CC8C1"/>
<path d="M83.8999 75.5H83.3999V76.2H83.8999V75.5Z" fill="#6CC8C1"/>
<path d="M83.8999 74.1001H83.3999V74.8001H83.8999V74.1001Z" fill="#6CC8C1"/>
<path d="M83.8999 71.3999H83.3999V72.0999H83.8999V71.3999Z" fill="#6CC8C1"/>
<path d="M84.3999 74.8001H84.6999V74.1001H84.3999V74.8001Z" fill="#6CC8C1"/>
<path d="M84.3999 72.7998V73.4998H84.7999V73.1998V72.7998H84.3999Z" fill="#6CC8C1"/>
<path d="M84.3999 76.2H84.4999L84.5999 75.5H84.3999V76.2Z" fill="#6CC8C1"/>
<path d="M84.8999 71.3999H84.3999V72.0999H84.8999V71.3999Z" fill="#6CC8C1"/>
<path d="M76.8 72.7998H76.3V73.4998H76.8V72.7998Z" fill="#6CC8C1"/>
<path d="M76.8 74.1001H76.3V74.8001H76.8V74.1001Z" fill="#6CC8C1"/>
<path d="M76.8 71.3999H76.3V72.0999H76.8V71.3999Z" fill="#6CC8C1"/>
<path d="M76.8 76.7998H76.3V77.4998H76.8V76.7998Z" fill="#6CC8C1"/>
<path d="M76.8 75.5H76.3V76.2H76.8V75.5Z" fill="#6CC8C1"/>
<path d="M75.8 74.1001H75.3V74.8001H75.8V74.1001Z" fill="#6CC8C1"/>
<path d="M75.8 75.5H75.3V76.2H75.8V75.5Z" fill="#6CC8C1"/>
<path d="M75.8 72.7998H75.3V73.4998H75.8V72.7998Z" fill="#6CC8C1"/>
<path d="M75.8 76.7998H75.3V77.4998H75.8V76.7998Z" fill="#6CC8C1"/>
<path d="M75.8 71.3999H75.3V72.0999H75.8V71.3999Z" fill="#6CC8C1"/>
<path d="M74.8001 75.5H74.6001V76.2H74.8001V75.5Z" fill="#6CC8C1"/>
<path d="M74.7 76.7998L74.8 77.0998V76.7998H74.7Z" fill="#6CC8C1"/>
<path d="M74.8 72.7998H74.3V73.1998V73.4998H74.8V72.7998Z" fill="#6CC8C1"/>
<path d="M74.8 71.3999H74.3V72.0999H74.8V71.3999Z" fill="#6CC8C1"/>
<path d="M74.7999 74.1001H74.3999L74.4999 74.8001H74.7999V74.1001Z" fill="#6CC8C1"/>
<path d="M83.3999 77.5H82.8999H82.3999H81.8999H81.3999H80.8999H80.3999H79.8999H79.3999H78.8999H78.3999H77.8999H77.3999H76.8999H76.3999H75.8999H75.3999H74.8999C74.9999 77.7 75.0999 77.9 75.2999 77.9H83.8999C84.0999 77.9 84.2999 77.7 84.2999 77.5H83.7999H83.3999Z" fill="#6CC8C1"/>
<path d="M83.8001 76.2002H83.4001H82.8001H82.4001H81.8001H81.4001H80.8001H80.3001H79.8001H79.3001H78.8001H78.3001H77.8001H77.3001H76.8001H76.3001H75.8001H75.3001H74.8001H74.6001L74.7001 76.8002H74.8001H75.3001H75.8001H76.3001H76.8001H77.3001H77.8001H78.3001H78.8001H79.3001H79.8001H80.3001H80.8001H81.4001H81.8001H82.4001H82.8001H83.4001H83.8001H84.4001L84.5001 76.2002H84.4001H83.8001Z" fill="#6CC8C1"/>
<path d="M83.8 74.7998H83.4H82.8H82.4H81.8H81.4H80.8H80.3H79.8H79.3H78.8H78.3H77.8H77.3H76.8H76.3H75.8H75.3H74.8H74.5L74.6 75.4998H74.8H75.3H75.8H76.3H76.8H77.3H77.8H78.3H78.8H79.3H79.8H80.3H80.8H81.4H81.8H82.4H82.8H83.4H83.8H84.4H84.6L84.7 74.7998H84.4H83.8Z" fill="#6CC8C1"/>
<path d="M83.8 73.5H83.4H82.8H82.4H81.8H81.4H80.8H80.3H79.8H79.3H78.8H78.3H77.8H77.3H76.8H76.3H75.8H75.3H74.8H74.3L74.4 74.1H74.8H75.3H75.8H76.3H76.8H77.3H77.8H78.3H78.8H79.3H79.8H80.3H80.8H81.4H81.8H82.4H82.8H83.4H83.8H84.4H84.7L84.8 73.5H84.4H83.8Z" fill="#6CC8C1"/>
<path d="M84.4 72.2002H83.8H83.4H82.8H82.4H81.8H81.4H80.8H80.3H79.8H79.3H78.8H78.3H77.8H77.3H76.8H76.3H75.8H75.3H74.8H74.3H74.2V72.8002H74.3H74.8H75.3H75.8H76.3H76.8H77.3H77.8H78.3H78.8H79.3H79.8H80.3H80.8H81.4H81.8H82.4H82.8H83.4H83.8H84.4H84.8H84.9L85 72.2002H84.8H84.4Z" fill="#6CC8C1"/>
<path d="M74 71L74.1 71.4H74.3H74.8H75.3H75.8H76.3H76.8H77.3H77.8H78.3H78.8H79.3H79.8H80.3H80.8H81.4H81.8H82.4H82.8H83.4H83.8H84.4H84.8H85.1V71H74Z" fill="#6CC8C1"/>
<path d="M85.3999 70.5999C85.2999 70.4999 85.1999 70.3999 85.0999 70.3999H73.9999C73.8999 70.3999 73.7999 70.4999 73.6999 70.5999C73.5999 70.6999 73.5999 70.7999 73.5999 70.8999V70.9999L73.6999 71.3999L74.3999 77.3999C74.3999 77.4999 74.3999 77.5999 74.3999 77.5999C74.4999 77.9999 74.7999 78.2999 75.1999 78.2999H83.7999C84.1999 78.2999 84.4999 77.9999 84.5999 77.5999C84.5999 77.4999 84.5999 77.3999 84.6999 77.2999L85.3999 71.2999L85.4999 70.8999V70.7999C85.4999 70.7999 85.4999 70.6999 85.3999 70.5999ZM84.6999 71.4999L83.9999 77.2999C83.9999 77.3999 83.9999 77.3999 83.8999 77.3999H75.2999C75.2999 77.3999 75.1999 77.3999 75.1999 77.2999L74.4999 71.4999H84.6999Z" fill="#6CC8C1"/>
<path d="M86.0999 70.3999C86.0999 70.7999 85.8999 70.9999 85.5999 70.9999H73.3999C73.0999 70.9999 72.8999 70.7999 72.8999 70.4999V70.3999V70.2999C72.9999 70.0999 73.0999 69.8999 73.3999 69.8999H85.5999C85.7999 69.8999 85.9999 69.9999 86.0999 70.2999C86.0999 70.2999 86.0999 70.2999 86.0999 70.3999Z" fill="#6CC8C1"/>
<path opacity="0.2" d="M85.5 71L85.4 71.5H73.6L73.5 71.1V71H85.5Z" fill="#29235C"/>
<path opacity="0.2" d="M84.7 77.6997C84.6 78.0997 84.3 78.3997 83.9 78.3997H75.3C74.9 78.3997 74.6 78.0997 74.5 77.6997H84.7Z" fill="#29235C"/>
<path d="M76.7998 69.9001C76.7998 69.9001 80.5998 68.2001 81.2998 69.9001C81.4998 70.5001 81.6998 70.9001 81.6998 71.2001C81.7998 73.4001 76.8998 70.0001 76.7998 69.9001Z" fill="white"/>
<path opacity="0.2" d="M76.7998 69.8999C76.7998 69.8999 80.8998 72.4999 81.6998 71.1999C81.7998 73.3999 76.8998 69.9999 76.7998 69.8999Z" fill="#29235C"/>
<path d="M147.3 87.9003H10.3999C9.69986 87.9003 9.09985 87.5003 9.09985 87.1003C9.09985 86.7003 9.69986 86.3003 10.3999 86.3003H147.2C147.9 86.3003 148.5 86.7003 148.5 87.1003C148.6 87.5003 148 87.9003 147.3 87.9003Z" fill="#5C8097"/>
<path d="M116.3 26.0998C116.797 26.0998 117.2 25.6969 117.2 25.1998C117.2 24.7027 116.797 24.2998 116.3 24.2998C115.803 24.2998 115.4 24.7027 115.4 25.1998C115.4 25.6969 115.803 26.0998 116.3 26.0998Z" fill="url(#paint1_linear)"/>
<path opacity="0.19" d="M85.3 42.9998C81.8 43.2998 78.6999 42.9998 75.1999 42.6998C74.6999 38.4998 74.6 34.4998 74.9 30.1998C76.3 28.9998 77.8999 27.8998 79.5999 27.2998C79.9999 27.2998 80.1999 27.3998 80.5999 27.2998C82.2999 28.0998 83.9 28.8998 85.3 30.0998C85.7 34.1998 85.9 38.8998 85.3 42.9998Z" fill="#6CC8C1"/>
<path d="M80.3 30.1002C81 29.8002 81.6 29.2002 82.1 28.5002C81.5 28.5002 80.9 28.5002 80.4 28.5002C79.7 28.5002 78.9 28.5002 78.3 28.2002C78.6 29.2002 79.4 29.9002 80.3 30.1002Z" fill="#F19679"/>
<path d="M80.3 27.5001C80.3 27.2001 80.5 26.8001 80.8 26.6001C81.1 26.4001 81.4 26.2001 81.6 25.9001C81.8 25.5001 81.8 25.1001 81.6 24.8001C81.4 24.5001 81 24.2001 80.6 24.2001C80.3 24.1001 79.9 24.2001 79.6 24.3001C79.3 24.5001 79.1 24.8001 79 25.1001C79 25.4001 79.1 25.9001 79.5 26.0001C79.6 26.0001 79.6 26.0001 79.6 26.0001C79.7 25.9001 79.5 25.7001 79.5 25.5001C79.5 25.3001 79.5 25.1001 79.6 25.0001C79.8 24.7001 80.2 24.7001 80.5 24.9001C80.8 25.1001 80.9 25.5001 80.8 25.8001C80.7 26.1001 80.4 26.4001 80.2 26.7001C80 27.0001 79.8 27.3001 79.8 27.6001C80 27.6001 80.1 27.5001 80.3 27.5001Z" fill="#363347"/>
<path d="M77.8999 28.6003L80.0999 27.3003L82.2999 28.5003L82.0999 28.7003L80.0999 27.8003L78.0999 28.8003L77.8999 28.6003Z" fill="#363347"/>
<path d="M85.1999 39.1998C84.6999 39.2998 84.1999 39.1998 83.6999 39.1998C83.5999 39.1998 83.6 39.1998 83.5 39.1998C83.5 39.8998 83.5 40.6998 83.5 41.3998C81.5 41.6998 79.3 41.6998 77.3 41.3998C77.3 40.7998 77.2999 39.9998 77.1999 39.4998C77.0999 39.4998 77.1 39.4998 77 39.4998C76.4 39.4998 75.7 39.3998 75.1 39.2998C74.9 36.3998 74.9 33.3998 75.1 30.3998C76 29.4998 77 28.7998 78.1 28.2998C78.6 28.8998 79.2 29.3998 79.8 29.8998C80.6 29.5998 81.4 29.0998 81.9 28.3998C83 28.7998 83.8999 29.3998 84.6999 30.1998C85.1999 33.0998 85.2999 36.1998 85.1999 39.1998Z" fill="url(#paint2_linear)"/>
<path d="M77.9001 28.7998C78.0001 29.6998 78.4001 30.5998 78.9001 31.2998C79.2001 30.8998 79.6001 30.4998 80.0001 30.0998C80.5001 30.3998 80.8001 30.7998 81.2001 31.1998C81.6001 30.3998 82.0001 29.6998 82.3001 28.7998C82.1001 29.6998 81.8001 30.5998 81.3001 31.3998C81.0001 30.9998 80.5001 30.5998 80.1001 30.1998C79.7001 30.6998 79.3001 31.0998 78.9001 31.5998C78.2001 30.8998 77.9001 29.7998 77.9001 28.7998ZM77.2001 32.3998C77.1001 34.6998 77.1001 36.9998 77.1001 39.2998C77.1001 39.2998 77.1001 39.3998 77.1001 39.4998C77.2001 39.4998 77.2001 39.4998 77.3001 39.4998C77.5001 36.9998 77.4001 34.8998 77.2001 32.3998ZM83.7001 39.1998C83.6001 36.8998 83.6001 34.5998 83.6001 32.2998C83.5001 34.5998 83.5001 36.8998 83.5001 39.1998C83.6001 39.1998 83.7001 39.1998 83.7001 39.1998ZM80.2001 31.9998C80.1001 35.0998 80.1001 38.2998 80.3001 41.3998C80.4001 38.2998 80.4001 35.0998 80.2001 31.9998Z" fill="#F19679"/>
<path d="M80.1 31C80.2 31 80.3 31.1 80.3 31.2C80.3 31.3 80.2 31.4 80.1 31.5C80 31.5 79.8 31.4 79.8 31.3C79.8 31.2 80 31 80.1 31Z" fill="#FCA746"/>
<path d="M85.0001 40.6C85.0001 37.3 85.0001 33.9 84.9001 30.6C84.7001 30.9 84.4001 31.2 84.1001 31.5C84.2001 31.1 84.3001 30.8 84.4001 30.5C84.0001 30.7 83.7001 30.7 83.4001 30.8C83.8001 30.6 84.1001 30.3 84.5001 30.1C83.3001 29.2 81.9001 28.5 80.4001 28C80.4001 28.3 80.4001 28.5 80.3001 28.7C80.2001 28.4 80.0001 28.2 79.9001 27.9C79.7001 28.1 79.5001 28.4 79.2001 28.6C79.3001 28.4 79.3001 28.2 79.3001 27.9C78.0001 28.6 76.8001 29.5 75.7001 30.5C75.9001 30.6 76.1001 30.7 76.3001 30.8C76.0001 30.8 75.8001 30.8 75.5001 30.8C75.6001 31 75.8001 31.3 76.0001 31.5C75.7001 31.4 75.5001 31.2 75.2001 30.9C75.0001 32.4 74.9001 33.8 74.8001 35.4C74.7001 33.7 74.7001 32.1 74.8001 30.4C76.2001 29.3 77.6001 28.1 79.3001 27.6C79.7001 27.5 80.0001 27.6 80.4001 27.5C82.0001 28.2 83.5001 29.1 84.9001 30.1C85.5001 33.6 85.4001 37.1 85.0001 40.6Z" fill="#CDBFA1"/>
<path d="M84.3 35.3C81.4 35.8 78.3 34.7 76.5 32.5C77.3 33.9 78.4 35 79.8 35.5C81.3 36 82.8 35.9 84.3 35.3Z" fill="#CDBFA1"/>
<path d="M83.8001 36.9999C81.8001 37.6999 79.5001 37.5999 77.6001 36.8999C78.5001 37.6999 79.4001 38.1999 80.6001 38.1999C81.7001 38.0999 82.9001 37.7999 83.8001 36.9999Z" fill="#CDBFA1"/>
<path d="M77.3999 41.4002C79.0999 37.0002 79.7999 33.2002 81.1999 28.7002C82.3999 29.0002 83.4999 29.8002 84.5999 30.5002C83.3999 34.7002 82.3999 37.7002 80.3999 41.6002" fill="url(#paint3_linear)"/>
<path opacity="0.19" d="M96.4001 50.1003C93.6001 50.4003 90.7001 50.4003 87.9001 50.1003C86.6001 43.4003 86.2001 36.7003 86.6001 29.9003C88.0001 28.8003 89.7001 27.9003 91.4001 27.4003C91.7001 27.3003 91.8001 27.3003 92.1001 27.3003C93.7001 27.7003 95.6001 29.1003 97.2001 30.3003C97.7001 36.8003 97.4001 43.7003 96.4001 50.1003Z" fill="#6CC8C1"/>
<path d="M91.9002 32.5003C92.8002 31.2003 93.4002 29.8003 93.9002 28.3003C92.6002 28.4003 91.3002 28.3003 90.0002 28.3003C90.3002 29.1003 90.5002 30.1003 90.9002 30.9003C91.1002 31.4003 91.4002 32.0003 91.9002 32.5003Z" fill="#C1A435"/>
<path d="M92.0002 27.5001C92.0002 27.2001 92.2002 26.8001 92.5002 26.6001C92.8002 26.4001 93.1002 26.2001 93.3002 25.9001C93.5002 25.5001 93.5002 25.1001 93.3002 24.8001C93.1002 24.5001 92.7002 24.2001 92.3002 24.2001C92.0002 24.1001 91.6002 24.2001 91.3002 24.3001C91.0002 24.5001 90.8002 24.8001 90.7002 25.1001C90.7002 25.4001 90.8002 25.9001 91.2002 26.0001C91.3002 26.0001 91.3002 26.0001 91.3002 26.0001C91.4002 25.9001 91.2002 25.7001 91.2002 25.5001C91.2002 25.3001 91.2002 25.1001 91.3002 25.0001C91.5002 24.7001 91.9002 24.7001 92.2002 24.9001C92.5002 25.1001 92.6002 25.5001 92.5002 25.8001C92.4002 26.1001 92.1002 26.4001 91.9002 26.7001C91.7002 27.0001 91.5002 27.3001 91.5002 27.6001C91.7002 27.6001 91.8002 27.5001 92.0002 27.5001Z" fill="#363347"/>
<path d="M89.7002 28.6003L91.8002 27.3003L94.0002 28.5003L93.8002 28.7003L91.8002 27.8003L89.8002 28.8003L89.7002 28.6003Z" fill="#363347"/>
<path d="M97.3001 37.5003C97.1001 37.5003 97.0001 37.5003 96.8001 37.5003C97.0001 35.1003 97.0001 32.6003 96.8001 30.3003C95.8001 29.5003 94.9001 28.9003 93.8001 28.3003C93.2001 29.8003 92.5001 31.0003 91.8001 32.2003C91.1001 31.1003 90.4001 29.8003 89.9001 28.3003C88.9001 28.8003 87.9001 29.4003 87.0001 30.2003C86.9001 32.7003 86.8001 35.3003 87.0001 37.8003C86.9001 37.8003 86.8001 37.8003 86.6001 37.9003C86.7001 38.3003 86.7001 38.6003 86.8001 39.0003C86.9001 39.0003 87.0001 39.0003 87.0001 39.0003C87.0001 39.2003 87.0001 39.5003 87.1001 39.7003C87.5001 39.8003 87.9001 39.9003 88.3001 39.9003C88.4001 39.9003 88.4001 39.9003 88.5001 39.9003C88.7001 42.7003 88.9001 45.5003 89.1001 48.3003C91.1001 48.6003 92.9001 48.8003 94.9001 48.5003C95.2001 45.6003 95.5001 42.7003 95.7001 39.7003H95.8001C96.1001 39.6003 96.4001 39.6003 96.7001 39.5003C96.7001 39.2003 96.8001 38.9003 96.8001 38.6003C96.9001 38.6003 97.0001 38.7003 97.2001 38.7003C97.2001 38.3003 97.3001 37.9003 97.3001 37.5003Z" fill="#E8CF4F"/>
<path d="M89.6 32.0999C90 31.9999 90.4 31.8999 90.8 31.7999C90.5 32.0999 90.3 32.2999 90 32.5999C90.5 34.0999 91 35.4999 91.5 36.9999C91.1 35.4999 90.6 33.9999 90.1 32.5999C90.4 32.2999 90.7 31.9999 90.9 31.6999C90.4 31.6999 89.9 31.7999 89.5 31.8999C89.1 31.0999 88.7 30.1999 88.3 29.3999C88.8 30.3999 89.1 31.1999 89.6 32.0999Z" fill="#C1A435"/>
<path d="M94.3002 32.0999C93.9002 31.9999 93.5002 31.8999 93.1002 31.7999C93.3002 32.0999 93.6002 32.2999 93.9002 32.5999C93.3002 34.0999 92.8002 35.4999 92.2002 36.9999C92.6002 35.4999 93.2002 33.9999 93.8002 32.5999C93.5002 32.2999 93.3002 31.9999 93.0002 31.6999C93.5002 31.6999 94.0002 31.7999 94.4002 31.8999C94.8002 31.0999 95.3002 30.1999 95.7002 29.3999C95.2002 30.3999 94.8002 31.1999 94.3002 32.0999Z" fill="#C1A435"/>
<path d="M92.2 48.2002C91.9 43.0002 91.8 37.9002 91.8 32.7002C92 37.9002 92.1 43.1002 92.2 48.2002Z" fill="#C1A435"/>
<path d="M88.5001 39.9003C88.4001 39.9003 88.4001 39.9003 88.3001 39.9003C88.2001 37.1003 88.2001 34.2003 88.3001 31.3003C88.4001 34.2003 88.4001 37.0003 88.5001 39.9003Z" fill="#C1A435"/>
<path d="M95.8001 39.7H95.7001C95.8001 37.3 95.8001 34.9 95.6001 32.5C95.8001 34.9 95.9001 37.3 95.8001 39.7Z" fill="#C1A435"/>
<path d="M88.7002 39.8002C89.2002 39.3002 89.6002 38.8002 89.9002 38.2002C90.2002 38.4002 90.4002 38.6002 90.5002 38.9002C90.3002 38.7002 90.2002 38.6002 90.0002 38.4002C89.6002 38.9002 89.1002 39.5002 88.7002 40.0002C88.8002 40.0002 88.7002 39.9002 88.7002 39.8002Z" fill="#C1A435"/>
<path d="M95.4001 39.8002C95.0001 39.3002 94.6001 38.8002 94.2001 38.2002C93.9001 38.4002 93.7001 38.6002 93.6001 38.9002C93.8001 38.7002 93.9001 38.6002 94.1001 38.4002C94.4001 38.9002 94.9001 39.5002 95.3001 40.0002C95.3001 40.0002 95.4001 39.9002 95.4001 39.8002Z" fill="#C1A435"/>
<path d="M87.9001 39.0001C87.7001 39.0001 87.4001 38.9001 87.2001 38.9001C87.4001 38.9001 87.6001 38.9001 87.8001 38.9001C87.8001 38.5001 87.8001 38.1001 87.7001 37.7001C87.5001 37.7001 87.3001 37.8001 87.1001 37.8001C87.3001 37.7001 87.6001 37.6001 87.8001 37.6001C88.0001 38.0001 88.0001 38.5001 87.9001 39.0001Z" fill="#C1A435"/>
<path d="M96.8002 37.4999C96.6002 37.4999 96.3002 37.4999 96.3002 37.4999C96.3002 37.7999 96.3002 37.9999 96.3002 38.2999C96.4002 38.3999 96.5002 38.3999 96.7002 38.4999C96.5002 38.4999 96.4002 38.3999 96.2002 38.3999C96.2002 38.0999 96.2002 37.6999 96.3002 37.3999C96.4002 37.3999 96.6002 37.3999 96.8002 37.4999Z" fill="#C1A435"/>
<path d="M96.7002 43.8001C97.1002 39.3001 97.2002 34.7001 97.0002 30.3001C95.6002 29.1001 94.0002 28.1001 92.3002 27.6001C92.0002 27.6001 91.8002 27.6001 91.5002 27.7001C89.8002 28.2001 88.2002 29.0001 86.8002 30.2001C86.5002 33.6001 86.5002 37.1001 86.8002 40.5001C86.7002 37.3001 86.8002 34.0001 87.1002 30.7001C87.5002 31.0001 87.8002 31.3001 88.2002 31.7001C88.0002 31.2001 87.7002 30.9001 87.4002 30.5001C87.7002 30.6001 88.0002 30.7001 88.3002 30.7001C88.1002 30.5001 87.8002 30.3001 87.5002 30.1001C88.6002 29.3001 89.7002 28.6001 91.0002 28.1001C90.9002 28.8001 90.9002 29.4001 90.9002 30.1001C91.2002 29.5001 91.3002 28.8001 91.5002 28.1001C91.6002 28.4001 91.8002 28.6001 92.0002 28.8001C92.0002 28.5001 92.1002 28.2001 92.1002 27.9001C92.8002 28.2001 93.4002 28.7001 93.9002 29.3001C93.7002 28.8001 93.4002 28.4001 93.0002 28.0001C94.2002 28.6001 95.3002 29.3001 96.4002 30.1001C95.9002 30.3001 95.4002 30.6001 95.0002 30.9001C95.5002 30.8001 95.9002 30.8001 96.4002 30.7001C96.2002 31.0001 96.0002 31.3001 95.9002 31.6001C96.2002 31.3001 96.4002 31.1001 96.7002 30.8001C97.0002 35.0001 97.1002 39.5001 96.7002 43.8001Z" fill="#CDBFA1"/>
<path d="M95.5 34.7002C95 35.1002 94.6 35.7002 94.1 36.1002C93.6 36.5002 93 36.9002 92.3 37.2002C91.1 37.8002 89.7 38.2002 88.3 38.1002C89.5 37.8002 90.7 37.5002 91.8 36.9002C93.2 36.4002 94.4 35.6002 95.5 34.7002Z" fill="#CDBFA1"/>
<path d="M94.9 39.1001C93.2 40.9001 90.8 41.9001 88.3 42.0001C88.8 42.0001 89.4 41.7001 89.9 41.5001C90.5 41.3001 91.1 41.1001 91.7 40.8001C92.8 40.4001 93.9 39.8001 94.9 39.1001Z" fill="#CDBFA1"/>
<path d="M94.4001 46.0999C92.6001 45.6999 90.9001 44.8999 89.4001 43.8999C90.0001 44.6999 90.7001 45.2999 91.6001 45.5999C92.6001 45.9999 93.4001 45.8999 94.4001 46.0999Z" fill="#CDBFA1"/>
<path d="M90.0002 48.2002C93.1002 41.8002 94.6002 37.0002 96.5002 30.1002C95.8002 29.5002 95.0002 29.1002 94.2002 28.7002C92.5002 35.6002 91.3002 41.2002 89.0002 48.0002C89.4002 48.0002 89.7002 48.2002 90.0002 48.2002Z" fill="url(#paint4_linear)"/>
<path opacity="0.19" d="M113 50.1003C110.2 50.4003 107.3 50.4003 104.5 50.1003C103.1 43.4003 102.6 36.7003 102.8 29.9003C104.2 28.8003 105.9 27.9003 107.6 27.4003C107.9 27.3003 108 27.3003 108.3 27.3003C110 27.7003 111.9 29.1003 113.4 30.3003C114 36.8003 113.9 43.7003 113 50.1003Z" fill="#6CC8C1"/>
<path d="M105.6 28.6001C106.2 29.4001 107.1 29.8001 108.1 29.8001C109 29.8001 110 29.4001 110.7 28.8001L111.1 29.1001L110.2 31.5001L105.9 31.2001L105.4 28.8001L105.6 28.6001Z" fill="#DC514A"/>
<path d="M108.1 27.5001C108.1 27.2001 108.3 26.8001 108.6 26.6001C108.9 26.4001 109.2 26.2001 109.4 25.9001C109.6 25.5001 109.5 25.1001 109.3 24.8001C109.1 24.5001 108.7 24.2001 108.3 24.2001C108 24.1001 107.6 24.2001 107.3 24.3001C107 24.5001 106.8 24.8001 106.7 25.1001C106.7 25.4001 106.9 25.9001 107.2 26.0001C107.3 26.0001 107.3 26.0001 107.3 26.0001C107.4 25.9001 107.2 25.7001 107.2 25.5001C107.2 25.3001 107.2 25.1001 107.3 25.0001C107.5 24.7001 107.9 24.7001 108.2 24.9001C108.5 25.1001 108.6 25.5001 108.5 25.8001C108.4 26.1001 108.2 26.4001 107.9 26.7001C107.7 27.0001 107.5 27.3001 107.5 27.6001C107.9 27.6001 108 27.5001 108.1 27.5001Z" fill="#363347"/>
<path d="M103.2 30.0003L107.9 27.3003L113.2 30.3003L113 30.5003L108 27.8003L103.3 30.2003L103.2 30.0003Z" fill="#363347"/>
<path d="M112.3 29.8999H103.6V29.9999H112.3V29.8999Z" fill="#363347"/>
<path d="M112.6 48.1999C110 49.1999 106.7 48.5999 104.3 47.3999C104.3 43.0999 105 40.0999 106.4 34.4999C105.6 33.6999 105.5 32.7999 105.5 31.6999C105.5 31.0999 105.5 30.5999 105.4 29.9999C105.3 29.4999 105.2 28.9999 105.2 28.5999C105.4 28.4999 105.5 28.4999 105.7 28.3999C105.7 29.0999 105.8 29.7999 106 30.4999C107.3 30.9999 108.7 30.9999 110 30.7999C110.3 30.0999 110.6 29.2999 110.8 28.5999C110.9 28.6999 111 28.6999 111.2 28.7999C111.2 28.7999 110.8 30.0999 110.8 30.1999C110.7 30.6999 110.7 31.1999 110.8 31.7999C111 32.7999 110.8 33.5999 110.2 34.6999C111.8 40.3999 112.8 43.6999 112.6 48.1999Z" fill="#FF7857"/>
<path d="M112.3 48.2003C109.8 48.9003 106.9 48.5003 104.6 47.2003C104.6 45.7003 104.8 44.3003 105.2 42.8003C105.1 44.2003 105 45.6003 104.9 47.0003C105.3 47.4003 105.9 47.6003 106.5 47.5003C106.6 46.4003 106.7 45.4003 107 44.3003C106.9 45.4003 106.9 46.5003 107 47.6003C108 48.3003 109.4 48.6003 110.6 48.3003C110.8 46.5003 110.8 44.6003 110.4 42.8003C110.7 44.6003 110.9 46.4003 110.9 48.2003C111.1 48.2003 111.7 48.1003 111.9 48.0003C111.9 46.4003 111.9 44.7003 111.7 43.1003C112.2 44.8003 112.4 46.5003 112.3 48.2003Z" fill="#DC514A"/>
<path d="M106.7 34.7002C106.3 35.9002 106.1 37.1002 106.1 38.4002C106.2 37.2002 106.6 36.1002 107 35.0002C106.9 35.7002 106.9 36.5002 106.9 37.2002C107 36.4002 107.3 35.7002 107.5 35.0002C108.2 35.0002 109 35.0002 109.7 35.1002C110.4 36.3002 111 37.6002 111.3 38.9002C111 37.4002 110.6 36.0002 109.9 34.6002C110.1 34.3002 110.4 34.0002 110.5 33.7002C109 34.1002 107.4 33.9002 106.1 33.2002C106.1 33.7002 106.3 34.3002 106.7 34.7002Z" fill="#DC514A"/>
<path d="M113.2 43.8001C113.5 39.3001 113.6 34.7001 113.3 30.3001C111.8 29.1001 110.2 28.1001 108.5 27.6001C108.2 27.6001 108 27.6001 107.7 27.7001C106 28.2001 104.4 29.0001 103 30.2001C102.8 33.6001 102.8 37.1001 103.2 40.5001C103.1 37.3001 103.1 34.0001 103.3 30.7001C103.7 31.0001 104 31.3001 104.4 31.7001C104.2 31.2001 103.9 30.9001 103.6 30.5001C103.9 30.6001 104.2 30.7001 104.5 30.7001C104.3 30.5001 104 30.3001 103.7 30.1001C104.8 29.3001 105.9 28.6001 107.1 28.1001C107 28.8001 107 29.4001 107 30.1001C107.3 29.5001 107.4 28.8001 107.5 28.1001C107.6 28.4001 107.8 28.6001 108 28.8001C108 28.5001 108.1 28.2001 108.1 27.9001C108.8 28.2001 109.4 28.7001 109.9 29.3001C109.7 28.8001 109.4 28.4001 109 28.0001C110.2 28.6001 111.3 29.3001 112.4 30.1001C111.9 30.3001 111.4 30.6001 111 30.9001C111.5 30.8001 111.9 30.8001 112.4 30.7001C112.2 31.0001 112 31.3001 111.9 31.6001C112.2 31.3001 112.4 31.1001 112.7 30.8001C113.3 35.0001 113.5 39.5001 113.2 43.8001Z" fill="#CDBFA1"/>
<path d="M111.8 34.7002C111.3 35.1002 110.9 35.7002 110.4 36.1002C109.9 36.5002 109.3 36.9002 108.6 37.2002C107.4 37.8002 106 38.2002 104.6 38.1002C105.8 37.8002 107 37.5002 108.1 36.9002C109.5 36.4002 110.7 35.6002 111.8 34.7002Z" fill="#CDBFA1"/>
<path d="M111.3 39.1001C109.6 40.9001 107.2 41.9001 104.8 42.0001C105.3 42.0001 105.9 41.7001 106.4 41.5001C107 41.3001 107.6 41.1001 108.2 40.8001C109.2 40.4001 110.3 39.8001 111.3 39.1001Z" fill="#CDBFA1"/>
<path d="M110.9 46.0999C109.1 45.6999 107.4 44.8999 105.9 43.8999C106.5 44.6999 107.2 45.2999 108.2 45.5999C109.1 45.9999 109.9 45.8999 110.9 46.0999Z" fill="#CDBFA1"/>
<path opacity="0.12" d="M106.5 48.2001C109.5 41.8001 110.9 36.9001 112.7 30.0001C112 29.4001 111.2 29.0001 110.3 28.6001C108.7 35.5001 107.5 41.1001 105.4 47.9001C105.8 47.9001 106.2 48.3001 106.5 48.2001Z" fill="url(#paint5_linear)"/>
<path d="M116.2 25.5998H51.6001V24.7998H116.2C116.8 24.7998 116.8 25.5998 116.2 25.5998Z" fill="#6CC8C1"/>
<path d="M116.5 25.1999C116.5 24.9999 116.4 24.8999 116.3 24.8999H51.6001V25.1999H116.5Z" fill="url(#paint6_linear)"/>
<path d="M80.5 24.7998C80.8 24.9998 80.9 25.2998 80.8 25.5998H81.6C81.6 25.2998 81.6 24.9998 81.5 24.7998H80.5Z" fill="#363347"/>
<path d="M92.3 24.7998C92.6 24.9998 92.7 25.2998 92.6 25.5998H93.4C93.4 25.2998 93.4 24.9998 93.3 24.7998H92.3Z" fill="#363347"/>
<path d="M108.4 24.7998C108.7 24.9998 108.8 25.2998 108.7 25.5998H109.5C109.5 25.2998 109.5 24.9998 109.4 24.7998H108.4Z" fill="#363347"/>
<path d="M55.8 26.9C55.8 26.6 56 26.2 56.3 26C56.6 25.8 56.9 25.6 57.1 25.3C57.3 24.9 57.3 24.5 57.1 24.2C56.9 23.9 56.5 23.6 56.1 23.6C55.8 23.5 55.4 23.6 55.1 23.7C54.8 23.9 54.6 24.2 54.5 24.5C54.5 24.8 54.6 25.3 55 25.4C55.1 25.4 55.1 25.4 55.1 25.4C55.2 25.3 55 25.1 55 24.9C55 24.7 55 24.5 55.1 24.4C55.3 24.1 55.7 24.1 56 24.3C56.3 24.5 56.4 24.9 56.3 25.2C56.2 25.5 55.9 25.8 55.7 26.1C55.5 26.4 55.3 26.7 55.3 27C55.5 26.9 55.6 26.9 55.8 26.9Z" fill="#363347"/>
<path d="M53.5 28.0002L55.6 26.7002L57.8 27.9002L57.6 28.1002L55.7 27.2002L53.6 28.1002L53.5 28.0002Z" fill="#363347"/>
<path d="M53.0999 27.8998L53.5999 27.5998C54.2999 27.3998 55.6999 27.2998 56.7999 27.2998C56.7999 27.2998 57.4999 27.5998 57.9999 27.8998C57.9999 27.8998 56.4999 35.4998 54.9999 35.4998C54.2999 35.3998 53.5999 33.4998 53.0999 27.8998Z" fill="#1E5BC6"/>
<path d="M57.8999 28.2998C57.4999 29.8998 56.2999 35.3998 54.9999 35.3998C54.2999 35.3998 53.5999 33.5998 53.0999 28.3998C53.8999 27.8998 57.2999 27.9998 57.8999 28.2998Z" fill="#252C3F"/>
<path d="M51.3999 34.7C51.4999 34.1 51.5999 31.7 51.7999 30C51.8999 28.9 52.1999 28.2 52.1999 28.2H52.2999C52.5999 28.2 52.8999 28.1 53.0999 28.1C53.1999 28.1 53.2999 28 53.3999 28C53.3999 29.6 53.3999 35 53.2999 35.6C53.1999 36.3 51.8999 42.5 51.8999 42.5L49.8999 42.3C50.0999 42.2 51.1999 35.7 51.3999 34.7Z" fill="#1E5BC6"/>
<path opacity="0.32" d="M52.6 30.5C52.7 29.7 52.9 28.9 52.6 28.2C52.8 28.2 53 28.1 53.1 28.1C53.2 28.1 53.3 28 53.4 28C53.4 29.6 53.4 35 53.3 35.6C53.2 36.3 51.9 42.5 51.9 42.5L51 42.3C51.2 41.9 52.3 32 52.6 30.5Z" fill="#878883"/>
<path d="M56.8 27.2998C56.8 27.2998 58.2 27.5998 59 27.9998C59 27.9998 58.3 32.9998 58.3 34.6998C58.3 36.2998 59.5 41.9998 59.5 41.9998C59.5 41.9998 59.4 42.3998 57.5 42.4998C56 42.5998 54.7 41.6998 54.7 40.4998C54.7 37.2998 54.7 32.3998 54.7 31.9998C54.6 31.4998 56.7 29.2998 56.8 27.2998Z" fill="#1E5BC6"/>
<path opacity="0.32" d="M56.8 27.2998C56.8 27.2998 58.2 27.5998 59 27.9998C59 27.9998 58.3 32.9998 58.3 34.6998C58.3 36.2998 59.5 41.9998 59.5 41.9998C59.5 41.9998 59.4 42.3998 57.5 42.4998C56 42.5998 54.7 41.6998 54.7 40.4998C54.7 37.2998 54.7 32.3998 54.7 31.9998C54.6 31.4998 56.7 29.2998 56.8 27.2998Z" fill="#878883"/>
<path opacity="0.55" d="M54.6 40.9999C54.6 40.8999 54.6 40.7999 54.5 40.7999C54.5 38.2999 54.5 33.7999 54.5 31.9999L54.7 31.8999V41.2999C54.7 41.0999 54.7 40.9999 54.6 40.9999Z" fill="#6D6E68"/>
<path d="M52.4998 34.4996C52.5998 34.1996 52.2998 28.1996 52.2998 28.1996C52.2998 28.1996 52.7998 27.7996 53.5998 27.5996C53.5998 27.5996 53.5998 27.6996 53.5998 27.9996L54.5998 30.8996V40.7996C54.5998 41.8996 53.1998 42.6996 51.8998 42.1996H51.7998C51.7998 42.0996 52.4998 34.7996 52.4998 34.4996Z" fill="#1E5BC6"/>
<path opacity="0.32" d="M52.4998 34.4996C52.5998 34.1996 52.2998 28.1996 52.2998 28.1996C52.2998 28.1996 52.7998 27.7996 53.5998 27.5996C53.5998 27.5996 53.5998 27.6996 53.5998 27.9996L54.5998 30.8996V40.7996C54.5998 41.8996 53.1998 42.6996 51.8998 42.1996H51.7998C51.7998 42.0996 52.4998 34.7996 52.4998 34.4996Z" fill="#878883"/>
<path d="M57.7999 37.6997C57.7999 37.6997 57.9999 38.1997 57.3999 38.1997C56.7999 38.1997 55.8999 38.2997 55.6999 38.1997C55.4999 38.0997 55.4999 37.6997 55.5999 37.6997H57.7999Z" fill="#1E5BC6"/>
<path d="M52.1999 37.6997L53.4999 37.7997C53.5999 37.7997 53.4999 38.0997 53.2999 38.1997C53.1999 38.2997 52.5999 38.2997 52.0999 38.1997C52.0999 38.0997 52.1999 37.8997 52.1999 37.6997Z" fill="#1E5BC6"/>
<path opacity="0.32" d="M57.3998 35.8996C57.0998 34.3996 56.7998 32.7996 57.1998 31.2996C57.4998 30.1996 58.1998 29.3996 58.8998 28.5996C58.6998 29.9996 58.1998 33.3996 58.2998 34.6996C58.2998 36.2996 59.4998 41.9996 59.4998 41.9996C59.4998 41.9996 59.3998 42.3996 57.3998 42.4996C57.2998 42.4996 56.8998 42.4996 56.9998 42.4996C57.9998 40.4996 57.6998 37.9996 57.3998 35.8996Z" fill="#878883"/>
<path opacity="0.32" d="M52.4998 34.4997C52.4998 34.3997 52.4998 34.3997 52.4998 34.3997C52.4998 34.3997 52.4998 34.3997 52.4998 34.2997C52.4998 34.2997 52.4998 34.2997 52.4998 34.1997C52.4998 34.1997 52.4998 34.1997 52.4998 34.0997V33.9997C52.4998 33.9997 52.4998 33.9997 52.4998 33.8997V33.7997V33.6997C52.4998 33.6997 52.4998 33.6997 52.4998 33.5997C52.4998 33.4997 52.4998 33.2997 52.4998 33.0997C52.4998 32.9997 52.4998 32.9997 52.4998 32.8997C52.4998 32.7997 52.4998 32.7997 52.4998 32.6997C52.4998 32.3997 52.4998 32.0997 52.4998 31.6997C52.6998 32.7997 53.1998 33.8997 53.0998 35.0997C52.9998 36.7997 52.9998 38.2997 52.9998 39.7997C52.9998 40.5997 52.9998 41.3997 53.1998 42.0997C52.7998 42.1997 52.2998 42.1997 51.8998 42.0997H51.7998C51.7998 42.0997 52.4998 34.7997 52.4998 34.4997Z" fill="#878883"/>
<path d="M53.6 27.5996C53.8 28.3996 54.5 30.7996 54.9 31.6996C54.8 31.7996 54.7 31.9996 54.7 32.0996C54.1 31.0996 53.4 29.6996 52.9 28.6996L53.2 28.3996L52.8 28.2996C52.7 28.0996 53.6 27.5996 53.6 27.5996Z" fill="#1E5BC6"/>
<path d="M54.5999 31.6998C54.5999 31.6998 56.3999 28.3998 56.7999 27.2998C56.9999 27.2998 57.7999 28.0998 57.6999 28.2998L56.9999 28.4998L57.4999 28.6998C56.6999 29.8998 55.3999 31.2998 54.5999 32.1998C54.5999 32.1998 54.4999 31.8998 54.5999 31.6998Z" fill="#1E5BC6"/>
<path d="M54.2 35.9C54.3105 35.9 54.4 35.8105 54.4 35.7C54.4 35.5895 54.3105 35.5 54.2 35.5C54.0895 35.5 54 35.5895 54 35.7C54 35.8105 54.0895 35.9 54.2 35.9Z" fill="#292C3B"/>
<path d="M54.2 37.1998C54.3105 37.1998 54.4 37.1103 54.4 36.9998C54.4 36.8893 54.3105 36.7998 54.2 36.7998C54.0895 36.7998 54 36.8893 54 36.9998C54 37.1103 54.0895 37.1998 54.2 37.1998Z" fill="#292C3B"/>
<path d="M54.2 34.4996C54.3105 34.4996 54.4 34.4101 54.4 34.2996C54.4 34.1892 54.3105 34.0996 54.2 34.0996C54.0895 34.0996 54 34.1892 54 34.2996C54 34.4101 54.0895 34.4996 54.2 34.4996Z" fill="#292C3B"/>
<path d="M54.2 33.2999C54.3105 33.2999 54.4 33.2104 54.4 33.0999C54.4 32.9894 54.3105 32.8999 54.2 32.8999C54.0895 32.8999 54 32.9894 54 33.0999C54 33.2104 54.0895 33.2999 54.2 33.2999Z" fill="#292C3B"/>
<path d="M54.2 38.4996C54.3105 38.4996 54.4 38.4101 54.4 38.2996C54.4 38.1892 54.3105 38.0996 54.2 38.0996C54.0895 38.0996 54 38.1892 54 38.2996C54 38.4101 54.0895 38.4996 54.2 38.4996Z" fill="#292C3B"/>
<path d="M54.2 39.7999C54.3105 39.7999 54.4 39.7104 54.4 39.5999C54.4 39.4894 54.3105 39.3999 54.2 39.3999C54.0895 39.3999 54 39.4894 54 39.5999C54 39.7104 54.0895 39.7999 54.2 39.7999Z" fill="#292C3B"/>
<path d="M57.9999 33.9999C57.9999 33.9999 57.4999 30.3999 57.5999 29.3999C57.6999 28.3999 58.4999 27.8999 58.8999 27.8999C59.2999 27.9999 60.5999 31.1999 60.9999 35.3999C61.3999 39.5999 61.4999 42.7999 61.4999 42.7999C61.4999 42.7999 60.3999 42.9999 59.1999 42.9999C59.1999 42.9999 58.5999 37.2999 58.4999 36.6999C58.3999 36.1999 57.9999 33.9999 57.9999 33.9999Z" fill="#1E5BC6"/>
<path opacity="0.32" d="M58.1999 34.3999C58.2999 35.7999 58.3999 36.8999 58.3999 36.7999C58.3999 36.1999 57.9999 33.9999 57.9999 33.9999C57.9999 33.9999 57.6999 31.2999 57.5999 29.8999C57.6999 30.2999 58.0999 33.3999 58.1999 34.3999Z" fill="#878883"/>
<path opacity="0.19" d="M61.6 43.6002C58.1 43.9002 53 43.1002 49.5 42.8002C49 38.6002 50.9 33.1002 51.1 28.9002C52.5 27.7002 53.3 27.4002 55 26.7002C55.4 26.7002 55.6 26.8002 56 26.7002C57.7 27.5002 59.3 27.7002 60.7 29.0002C61.2 33.0002 62.2 39.5002 61.6 43.6002Z" fill="#6CC8C1"/>
<path d="M60.5 39.9002C60.5 36.6002 60.5 33.2002 60.4 29.9002C60.2 30.2002 59.9 30.5002 59.6 30.8002C59.7 30.4002 59.8 30.1002 59.9 29.8002C59.5 30.0002 59.2 30.0002 58.9 30.1002C59.3 29.9002 59.6 29.6002 60 29.4002C58.8 28.5002 57.4 27.8002 55.9 27.3002C55.9 27.6002 55.9 27.8002 55.8 28.0002C55.7 27.7002 55.5 27.5002 55.4 27.2002C55.2 27.4002 55 27.7002 54.7 27.9002C54.8 27.7002 54.8 27.5002 54.8 27.2002C53.5 27.9002 52.3 28.8002 51.2 29.8002C51.4 29.9002 51.6 30.0002 51.8 30.1002C51.5 30.1002 51.3 30.1002 51 30.1002C51.1 30.3002 51.3 30.6002 51.5 30.8002C51.2 30.7002 51.5 31.8002 51.3 31.6002C51.1 33.1002 50.9 33.6002 50.9 35.1002C50.8 33.4002 51.1 30.6002 51.2 28.9002C52.6 27.8002 53.2 27.4002 54.9 26.8002C55.3 26.7002 55.6 26.8002 56 26.7002C57.6 27.4002 59.1 27.8002 60.5 28.9002C61 32.5002 60.9 36.5002 60.5 39.9002Z" fill="#CDBFA1"/>
<path d="M65.0999 28.2002C65.0999 28.2002 65.0999 28.0002 65.7999 27.9002C66.5999 27.7002 67.9999 27.7002 69.1999 27.7002C69.6999 27.7002 69.6999 28.0002 70.2999 28.2002C70.2999 28.2002 68.6999 35.6002 67.0999 35.6002C66.3999 35.6002 65.6999 33.7002 65.0999 28.2002Z" fill="url(#paint7_linear)"/>
<path d="M70.3 28.6C69.9 30.2 68.6 35.6 67.2 35.5C66.4 35.5 65.7 33.8 65.2 28.7C66.1 28.2 69.6 28.4 70.3 28.6Z" fill="url(#paint8_linear)"/>
<path d="M63.3999 34.8003C63.4999 34.2003 63.4999 32.0003 63.6999 30.4003C63.8999 29.1003 64.2999 28.5003 64.2999 28.5003H64.3999C64.6999 28.5003 64.9999 28.4003 65.2999 28.4003C65.3999 28.4003 65.4999 28.3003 65.5999 28.3003C65.5999 29.8003 65.5999 35.1003 65.4999 35.7003C65.3999 36.3003 64.0999 42.4003 64.0999 42.4003L61.8999 42.2003C61.8999 42.2003 63.1999 35.8003 63.3999 34.8003Z" fill="url(#paint9_linear)"/>
<path opacity="0.32" d="M64.6999 30.7002C64.8999 29.9002 64.9999 29.2002 64.6999 28.4002C64.8999 28.4002 65.0999 28.3002 65.2999 28.3002C65.3999 28.3002 65.4999 28.2002 65.5999 28.2002C65.5999 29.7002 65.5999 35.0002 65.4999 35.6002C65.3999 36.2002 64.0999 42.3002 64.0999 42.3002L62.8999 42.1002C63.0999 41.9002 64.2999 32.3002 64.6999 30.7002Z" fill="#878883"/>
<path d="M69.2 27.7002C69.2 27.7002 70.6 28.0002 71.4 28.4002C71.4 28.4002 70.6 33.3002 70.6 34.9002C70.6 36.5002 71.9 42.0002 71.9 42.0002C71.9 42.0002 71.7 42.6002 66.7 42.5002C66.7 42.5002 66.7 31.7002 66.7 31.1002C66.8 30.6002 69.1 29.6002 69.2 27.7002Z" fill="url(#paint10_linear)"/>
<path opacity="0.55" d="M66.8998 32V42.5H66.7998C66.7998 42.5 66.7998 34.7 66.7998 32.2L66.8998 32Z" fill="#6D6E68"/>
<path d="M64.4998 34.7001C64.5998 34.4001 64.2998 28.5001 64.2998 28.5001C64.2998 28.5001 64.5998 28.2001 65.1998 28.1001C65.2998 28.2001 65.4998 28.2001 65.6998 28.2001L66.7998 31.0001V42.5001C66.7998 42.5001 64.3998 42.3001 63.7998 42.0001C63.7998 42.0001 64.4998 34.9001 64.4998 34.7001Z" fill="url(#paint11_linear)"/>
<path d="M70.1999 37.8003C70.1999 37.8003 70.3999 39.3003 69.7999 39.3003C69.1999 39.3003 68.1999 39.4003 67.9999 39.3003C67.7999 39.2003 67.7999 37.8003 67.8999 37.8003H70.1999Z" fill="url(#paint12_linear)"/>
<path d="M64.1999 37.8003H65.5999C65.6999 37.8003 65.6999 39.1003 65.4999 39.3003C65.3999 39.4003 64.6999 39.4003 64.0999 39.3003C64.0999 38.9003 64.0999 38.3003 64.1999 37.8003Z" fill="url(#paint13_linear)"/>
<path d="M70.1999 37.8003C70.1999 37.8003 70.3999 38.3003 69.7999 38.3003C69.1999 38.3003 68.1999 38.4003 67.9999 38.3003C67.7999 38.2003 67.7999 37.8003 67.8999 37.9003L70.1999 37.8003Z" fill="url(#paint14_linear)"/>
<path d="M64.1999 37.8003L65.5999 37.9003C65.6999 37.9003 65.5999 38.2003 65.3999 38.3003C65.2999 38.4003 64.5999 38.4003 64.0999 38.3003C64.0999 38.1003 64.1999 38.0003 64.1999 37.8003Z" fill="url(#paint15_linear)"/>
<path opacity="0.32" d="M69.6999 36.0003C69.3999 34.6003 69.0999 33.0003 69.4999 31.5003C69.7999 30.5003 70.4999 29.7003 71.2999 28.8003C71.0999 30.1003 70.5999 33.5003 70.5999 34.8003C70.5999 36.4003 71.8999 41.9003 71.8999 41.9003C71.8999 41.9003 71.7999 42.3003 69.0999 42.4003C70.2999 40.5003 70.0999 38.0003 69.6999 36.0003Z" fill="#878883"/>
<path opacity="0.32" d="M65.3 42.3C64.7 42.2 64 42.1 63.7 42C63.7 42 64.4 34.9 64.5 34.6C64.5 34.5 64.5 33.3 64.4 32C64.6 33.1 65.1 34.2 65.1 35.3C65 36.8 65 38.3 65 39.8C65.1 40.7 65 41.5 65.3 42.3Z" fill="#878883"/>
<path d="M66.7 30.9001C66.7 30.9001 68.8 28.6001 69 27.6001C69 27.6001 70.4 27.8001 70.5 27.9001C70.5 28.0001 70.3 28.4001 70 29.0001C69.8 29.4001 69.5 29.6001 69 29.8001C69.3 29.9001 69.3 30.2001 69.1 30.4001C68.5 31.0001 67.8 31.7001 66.7 33.0001C66.8 33.0001 66.7 31.1001 66.7 30.9001Z" fill="url(#paint16_linear)"/>
<path opacity="0.55" d="M66.8998 32.9002C66.8998 33.0002 66.7998 33.0002 66.7998 33.1002C66.7998 33.1002 66.7998 31.8002 66.7998 31.2002C66.7998 31.1002 66.7998 31.1002 66.7998 31.0002C66.7998 31.0002 66.7998 30.9002 66.8998 30.8002L66.9998 30.7002L66.8998 32.9002Z" fill="#6D6E68"/>
<path d="M65.7 29.8999L65.4 29.7999C65.1 29.6999 65 28.1999 65 28.1999C65 28.0999 65.9 27.8999 65.9 27.8999C66 28.7999 66.7 30.8999 66.7 30.8999C66.7 31.3999 66.7 33.0999 66.7 33.0999C66.4 32.6999 66 32.0999 65.4 30.4999C65.3 29.8999 65.7 29.8999 65.7 29.8999Z" fill="url(#paint17_linear)"/>
<path d="M66.4 36.0001C66.5104 36.0001 66.6 35.9106 66.6 35.8001C66.6 35.6896 66.5104 35.6001 66.4 35.6001C66.2895 35.6001 66.2 35.6896 66.2 35.8001C66.2 35.9106 66.2895 36.0001 66.4 36.0001Z" fill="url(#paint18_linear)"/>
<path d="M66.4 37.2999C66.5104 37.2999 66.6 37.2104 66.6 37.0999C66.6 36.9894 66.5104 36.8999 66.4 36.8999C66.2895 36.8999 66.2 36.9894 66.2 37.0999C66.2 37.2104 66.2895 37.2999 66.4 37.2999Z" fill="url(#paint19_linear)"/>
<path d="M66.4 34.7003C66.5104 34.7003 66.6 34.6108 66.6 34.5003C66.6 34.3898 66.5104 34.3003 66.4 34.3003C66.2895 34.3003 66.2 34.3898 66.2 34.5003C66.2 34.6108 66.2895 34.7003 66.4 34.7003Z" fill="url(#paint20_linear)"/>
<path d="M66.4 33.4C66.5104 33.4 66.6 33.3105 66.6 33.2C66.6 33.0895 66.5104 33 66.4 33C66.2895 33 66.2 33.0895 66.2 33.2C66.2 33.3105 66.2895 33.4 66.4 33.4Z" fill="url(#paint21_linear)"/>
<path d="M66.4 38.5001C66.5104 38.5001 66.6 38.4106 66.6 38.3001C66.6 38.1896 66.5104 38.1001 66.4 38.1001C66.2895 38.1001 66.2 38.1896 66.2 38.3001C66.2 38.4106 66.2895 38.5001 66.4 38.5001Z" fill="url(#paint22_linear)"/>
<path d="M66.4 39.7999C66.5104 39.7999 66.6 39.7104 66.6 39.5999C66.6 39.4894 66.5104 39.3999 66.4 39.3999C66.2895 39.3999 66.2 39.4894 66.2 39.5999C66.2 39.7104 66.2895 39.7999 66.4 39.7999Z" fill="url(#paint23_linear)"/>
<path d="M70.3998 34.2002C70.3998 34.2002 69.8998 30.7002 69.9998 29.7002C70.0998 28.7002 70.9998 28.2002 71.3998 28.3002C71.7998 28.4002 73.1998 31.5002 73.6998 35.6002C74.1998 39.7002 74.1998 42.8002 74.1998 42.8002C74.1998 42.8002 72.8998 42.9002 71.5998 42.9002C71.5998 42.9002 70.8998 37.3002 70.7998 36.8002C70.7998 36.3002 70.3998 34.2002 70.3998 34.2002Z" fill="url(#paint24_linear)"/>
<path opacity="0.32" d="M70.6 34.5003C70.8 35.8003 70.8 36.9003 70.8 36.8003C70.7 36.3003 70.3 34.2003 70.3 34.2003C70.3 34.2003 70 31.6003 70 30.3003C70 30.6003 70.5 33.6003 70.6 34.5003Z" fill="#878883"/>
<path d="M68.1999 26.9C68.1999 26.6 68.3999 26.2 68.6999 26C68.9999 25.8 69.2999 25.6 69.4999 25.3C69.6999 24.9 69.6999 24.5 69.4999 24.2C69.2999 23.9 68.8999 23.6 68.4999 23.6C68.1999 23.5 67.7999 23.6 67.4999 23.7C67.1999 23.9 66.9999 24.2 66.8999 24.5C66.8999 24.8 66.9999 25.3 67.3999 25.4C67.4999 25.4 67.4999 25.4 67.4999 25.4C67.5999 25.3 67.3999 25.1 67.3999 24.9C67.3999 24.7 67.3999 24.5 67.4999 24.4C67.6999 24.1 68.0999 24.1 68.3999 24.3C68.6999 24.5 68.7999 24.9 68.6999 25.2C68.5999 25.5 68.2999 25.8 68.0999 26.1C67.8999 26.4 67.6999 26.7 67.6999 27C67.8999 27 67.9999 26.9 68.1999 26.9Z" fill="#363347"/>
<path d="M65.7998 28.0002L67.9998 26.7002L70.1998 27.9002L69.9998 28.1002L67.9998 27.2002L65.9998 28.2002L65.7998 28.0002Z" fill="#363347"/>
<path opacity="0.19" d="M74.3999 43.1002C70.8999 43.4002 65.2999 43.1002 61.8999 42.8002C61.3999 38.6002 63.2999 33.1002 63.4999 28.9002C64.8999 27.7002 65.6999 27.4002 67.3999 26.7002C67.7999 26.7002 67.9999 26.8002 68.3999 26.7002C70.0999 27.5002 71.6999 27.7002 73.0999 29.0002C73.4999 33.1002 75.0999 39.0002 74.3999 43.1002Z" fill="#6CC8C1"/>
<path d="M72.8999 39.9998C72.8999 36.6998 72.8999 33.2998 72.7999 29.9998C72.5999 30.2998 72.2999 30.5998 71.9999 30.8998C72.0999 30.4998 72.1999 30.1998 72.2999 29.8998C71.8999 30.0998 71.5999 30.0998 71.2999 30.1998C71.6999 29.9998 71.9999 29.6998 72.3999 29.4998C71.1999 28.5998 69.7999 27.8998 68.2999 27.3998C68.2999 27.6998 68.2999 27.8998 68.1999 28.0998C68.0999 27.7998 67.8999 27.5998 67.7999 27.2998C67.5999 27.4998 67.3999 27.7998 67.0999 27.9998C67.1999 27.7998 67.1999 27.5998 67.1999 27.2998C65.8999 27.9998 64.6999 28.8998 63.5999 29.8998C63.7999 29.9998 63.9999 30.0998 64.1999 30.1998C63.8999 30.1998 63.6999 30.1998 63.3999 30.1998C63.4999 30.3998 63.6999 30.6998 63.8999 30.8998C63.5999 30.7998 63.8999 31.8998 63.6999 31.6998C63.4999 33.1998 63.2999 33.6998 63.2999 35.1998C63.1999 33.4998 63.4999 30.6998 63.5999 28.9998C64.9999 27.8998 65.5999 27.4998 67.2999 26.8998C67.6999 26.7998 67.9999 26.8998 68.3999 26.7998C69.9999 27.4998 71.4999 27.8998 72.8999 28.9998C73.3999 32.4998 73.2999 36.4998 72.8999 39.9998Z" fill="#CDBFA1"/>
<defs>
<linearGradient id="paint0_linear" x1="113.936" y1="59.0879" x2="110.051" y2="90.4502" gradientUnits="userSpaceOnUse">
<stop stop-color="#FDD8A4"/>
<stop offset="0.4741" stop-color="#77654D"/>
<stop offset="0.8827"/>
</linearGradient>
<linearGradient id="paint1_linear" x1="114.859" y1="26.0085" x2="117.577" y2="24.6092" gradientUnits="userSpaceOnUse">
<stop stop-color="#C8E8BF"/>
<stop offset="0.1958" stop-color="#A2D1B2"/>
<stop offset="0.4013" stop-color="#81BDA7"/>
<stop offset="0.5134" stop-color="#74B5A3"/>
<stop offset="0.606" stop-color="#7DBAA6"/>
<stop offset="0.754" stop-color="#94C8AE"/>
<stop offset="0.938" stop-color="#BADFBA"/>
<stop offset="1" stop-color="#C8E8BF"/>
</linearGradient>
<linearGradient id="paint2_linear" x1="79.2965" y1="46.4132" x2="80.3453" y2="29.8342" gradientUnits="userSpaceOnUse">
<stop stop-color="#F5BA85"/>
<stop offset="0.6233" stop-color="#FCDDB1"/>
<stop offset="1" stop-color="#FFEFC7"/>
</linearGradient>
<linearGradient id="paint3_linear" x1="83.5687" y1="28.7232" x2="77.2436" y2="44.2403" gradientUnits="userSpaceOnUse">
<stop stop-color="#9BA87E"/>
<stop offset="0.7104" stop-color="#1F2119"/>
<stop offset="0.8827"/>
</linearGradient>
<linearGradient id="paint4_linear" x1="95.9572" y1="27.9703" x2="89.5303" y2="48.5252" gradientUnits="userSpaceOnUse">
<stop stop-color="#9BA87E"/>
<stop offset="0.7104" stop-color="#1F2119"/>
<stop offset="0.8827"/>
</linearGradient>
<linearGradient id="paint5_linear" x1="112.129" y1="27.9694" x2="105.771" y2="48.4265" gradientUnits="userSpaceOnUse">
<stop stop-color="#9BA87E"/>
<stop offset="0.7104" stop-color="#1F2119"/>
<stop offset="0.8827"/>
</linearGradient>
<linearGradient id="paint6_linear" x1="118.975" y1="20.6086" x2="55.6317" y2="28.7138" gradientUnits="userSpaceOnUse">
<stop stop-color="#87A37F"/>
<stop offset="0.2214" stop-color="#85A07D"/>
<stop offset="0.3789" stop-color="#7D9776"/>
<stop offset="0.5165" stop-color="#708769"/>
<stop offset="0.6427" stop-color="#5E7158"/>
<stop offset="0.7611" stop-color="#465542"/>
<stop offset="0.8738" stop-color="#293127"/>
<stop offset="0.9799" stop-color="#070907"/>
<stop offset="1"/>
</linearGradient>
<linearGradient id="paint7_linear" x1="70.3684" y1="31.6267" x2="65.1194" y2="31.6267" gradientUnits="userSpaceOnUse">
<stop stop-color="#2C2825"/>
<stop offset="1" stop-color="#3D3A37"/>
</linearGradient>
<linearGradient id="paint8_linear" x1="67.9663" y1="32.7371" x2="67.4243" y2="23.7617" gradientUnits="userSpaceOnUse">
<stop stop-color="#2C2825"/>
<stop offset="1" stop-color="#3D3A37"/>
</linearGradient>
<linearGradient id="paint9_linear" x1="63.7518" y1="28.4358" x2="63.7518" y2="42.7548" gradientUnits="userSpaceOnUse">
<stop stop-color="#2C2825"/>
<stop offset="1" stop-color="#3D3A37"/>
</linearGradient>
<linearGradient id="paint10_linear" x1="69.3074" y1="28.4357" x2="69.3074" y2="42.7547" gradientUnits="userSpaceOnUse">
<stop stop-color="#2C2825"/>
<stop offset="1" stop-color="#3D3A37"/>
</linearGradient>
<linearGradient id="paint11_linear" x1="65.2642" y1="28.4356" x2="65.2642" y2="42.7546" gradientUnits="userSpaceOnUse">
<stop stop-color="#2C2825"/>
<stop offset="1" stop-color="#3D3A37"/>
</linearGradient>
<linearGradient id="paint12_linear" x1="69.0086" y1="37.9237" x2="69.0086" y2="39.5751" gradientUnits="userSpaceOnUse">
<stop stop-color="#2C2825"/>
<stop offset="0.2251" stop-color="#2F2B28"/>
<stop offset="0.412" stop-color="#393633"/>
<stop offset="0.4652" stop-color="#3D3A37"/>
</linearGradient>
<linearGradient id="paint13_linear" x1="64.837" y1="37.9427" x2="64.837" y2="39.5725" gradientUnits="userSpaceOnUse">
<stop stop-color="#2C2825"/>
<stop offset="0.2251" stop-color="#2F2B28"/>
<stop offset="0.412" stop-color="#393633"/>
<stop offset="0.4652" stop-color="#3D3A37"/>
</linearGradient>
<linearGradient id="paint14_linear" x1="69.0086" y1="36.7539" x2="69.0086" y2="38.7813" gradientUnits="userSpaceOnUse">
<stop stop-color="#44413E"/>
<stop offset="1" stop-color="#3D3A37"/>
</linearGradient>
<linearGradient id="paint15_linear" x1="64.8755" y1="36.754" x2="64.8755" y2="38.7813" gradientUnits="userSpaceOnUse">
<stop stop-color="#44413E"/>
<stop offset="1" stop-color="#3D3A37"/>
</linearGradient>
<linearGradient id="paint16_linear" x1="68.6313" y1="28.2334" x2="68.6313" y2="33.004" gradientUnits="userSpaceOnUse">
<stop stop-color="#44413E"/>
<stop offset="1" stop-color="#3D3A37"/>
</linearGradient>
<linearGradient id="paint17_linear" x1="65.9451" y1="28.2332" x2="65.9451" y2="33.0037" gradientUnits="userSpaceOnUse">
<stop stop-color="#44413E"/>
<stop offset="1" stop-color="#3D3A37"/>
</linearGradient>
<linearGradient id="paint18_linear" x1="66.3593" y1="35.5597" x2="66.3593" y2="35.9956" gradientUnits="userSpaceOnUse">
<stop stop-color="#44413E"/>
<stop offset="1" stop-color="#3D3A37"/>
</linearGradient>
<linearGradient id="paint19_linear" x1="66.3593" y1="36.8324" x2="66.3593" y2="37.2684" gradientUnits="userSpaceOnUse">
<stop stop-color="#44413E"/>
<stop offset="1" stop-color="#3D3A37"/>
</linearGradient>
<linearGradient id="paint20_linear" x1="66.3593" y1="34.2855" x2="66.3593" y2="34.7214" gradientUnits="userSpaceOnUse">
<stop stop-color="#44413E"/>
<stop offset="1" stop-color="#3D3A37"/>
</linearGradient>
<linearGradient id="paint21_linear" x1="66.3593" y1="33.0108" x2="66.3593" y2="33.4467" gradientUnits="userSpaceOnUse">
<stop stop-color="#44413E"/>
<stop offset="1" stop-color="#3D3A37"/>
</linearGradient>
<linearGradient id="paint22_linear" x1="66.3593" y1="38.1056" x2="66.3593" y2="38.5416" gradientUnits="userSpaceOnUse">
<stop stop-color="#44413E"/>
<stop offset="1" stop-color="#3D3A37"/>
</linearGradient>
<linearGradient id="paint23_linear" x1="66.3593" y1="39.3784" x2="66.3593" y2="39.8143" gradientUnits="userSpaceOnUse">
<stop stop-color="#44413E"/>
<stop offset="1" stop-color="#3D3A37"/>
</linearGradient>
<linearGradient id="paint24_linear" x1="72.0934" y1="28.4357" x2="72.0934" y2="42.7547" gradientUnits="userSpaceOnUse">
<stop stop-color="#2C2825"/>
<stop offset="1" stop-color="#3D3A37"/>
</linearGradient>
</defs>
</svg>
