<?xml version="1.0" encoding="utf-8"?>
<!-- Generator: Adobe Illustrator 19.0.0, SVG Export Plug-In . SVG Version: 6.00 Build 0)  -->
<svg version="1.1" id="Layer_1" xmlns="http://www.w3.org/2000/svg" xmlns:xlink="http://www.w3.org/1999/xlink" x="0px" y="0px"
	 viewBox="0 0 167.2 101" style="enable-background:new 0 0 167.2 101;" xml:space="preserve">
<style type="text/css">
	.st0{fill:#FAFFFF;}
	.st1{fill:#75271A;}
	.st2{fill:#4C423F;}
	.st3{fill:#353131;}
	.st4{fill:#F9B087;}
	.st5{fill:#F39474;}
	.st6{fill:#FFFFFF;}
	.st7{fill:#EDECEB;}
	.st8{fill:#211E27;}
	.st9{fill:#359591;}
	.st10{fill:#9EE5DB;}
	.st11{fill:#7FD6CB;}
	.st12{fill:#F8A492;}
	.st13{fill:#FF98B9;}
	.st14{fill:none;stroke:#EF848E;stroke-width:0.1;stroke-miterlimit:10;}
	.st15{fill:#FCBB03;}
	.st16{fill:#5E7E8E;}
	.st17{fill:#3D576B;}
	.st18{fill:#6CC8C1;}
	.st19{fill:#4A6372;}
	.st20{fill:#E8F4FC;}
	.st21{fill:#FFDD00;}
	.st22{opacity:0.2;fill:#29235C;}
	.st23{opacity:0.5;fill:#FFFFFF;}
	.st24{fill:#FFEC00;}
	.st25{fill:none;}
	.st26{fill:#F3FBFF;}
	.st27{fill:#D1D3D4;}
	.st28{fill:#69CCC5;}
	.st29{fill:#F1F2F2;}
	.st30{fill:#5971AD;}
	.st31{fill:#FFF200;}
	.st32{fill:#F26899;}
	.st33{fill:#0FD6F5;}
	.st34{fill:#5C8097;}
	.st35{fill:#59ADA5;}
	.st36{fill:url(#SVGID_1_);}
	.st37{fill:#F5FCFB;}
	.st38{opacity:0.32;fill:#F5FCFB;}
	.st39{opacity:0.32;}
	.st40{fill:#CFD5DB;}
	.st41{fill:#F0F2F2;}
	.st42{fill:#363347;}
	.st43{fill:#4A485B;}
	.st44{opacity:0.55;fill:url(#XMLID_139_);}
	.st45{fill:#5B5A6B;}
	.st46{fill:#545366;}
	.st47{fill:#EEF0F2;}
	.st48{fill:#F4F7F9;}
	.st49{opacity:0.55;fill:url(#XMLID_140_);}
	.st50{opacity:0.55;fill:url(#XMLID_141_);}
</style>
<g>
	<path class="st0" d="M22.9,95.9c0,0-18.6-29-6.4-54.1s19.4,10.6,47.4-5.9s63.5-46.3,81.5-3.4S139.9,96,139.9,96L22.9,95.9z"/>
	<g>
		<g>
			<path class="st1" d="M68.6,47.4c-0.1,0-2.4,0.1-2.7,4.2c-0.3,4.2-4.2,4.2-3.3,8.5c0.9,4.3,6.3,2,6.3,2s8.4-3.4,4.7-8.4
				C70.1,48.8,68.6,47.4,68.6,47.4z"/>
			<path class="st2" d="M70.8,89c0.5,0.3,0.6,1.1,0.6,2.1c0,0.4,0,0.2,0,0.8c0,1.2,0.1,1.4,0,2c-0.1,0.4-0.2,0.7-0.4,1
				c-0.3,0.3-0.7,0.3-0.9,0.4c-0.3,0.1-0.8,0.1-1-0.1c-0.1-0.2,0-1.3,0.1-2.1c0.3-2.1,0.5-4,1.2-4.1C70.6,88.9,70.7,89,70.8,89z"/>
			<path class="st2" d="M67,89c-0.5,0.3-0.6,1.1-0.6,2.1c0,0.4,0,0.2,0,0.8c0,1.2-0.1,1.4,0,2c0.1,0.4,0.2,0.7,0.4,1
				c0.3,0.3,0.7,0.3,0.9,0.4c0.3,0.1,0.8,0.1,1-0.1c0.1-0.2,0-1.3-0.1-2.1c-0.3-2.1-0.5-4-1.2-4.1C67.2,88.9,67,89,67,89z"/>
			<path class="st3" d="M70.2,89c-0.3,1.8-0.7,4.8-0.7,5.4c0,0.2,0.1,0.4,0.1,0.4c0.1,0.1,0.2,0.2,0.8,0c0.2-0.1,0.5-0.2,0.9-0.4
				c-0.1,0.2-0.2,0.3-0.3,0.4c-0.3,0.3-0.7,0.3-0.9,0.4c-0.3,0.1-0.8,0.1-1-0.1c-0.1-0.2,0-1.3,0.1-2.1C69.4,91.1,69.6,89.4,70.2,89
				z"/>
			<path class="st3" d="M67.4,94.8c0.6,0.2,0.7,0,0.8,0c0.1-0.1,0.1-0.2,0.1-0.4c0-0.6-0.5-3.5-0.7-5.3c0.5,0.5,0.7,2.1,1,4
				c0.1,0.8,0.2,2,0.1,2.1c-0.2,0.2-0.6,0.2-1,0.1c-0.3,0-0.6-0.1-0.9-0.4c-0.2-0.2-0.3-0.3-0.3-0.5C66.9,94.6,67.2,94.8,67.4,94.8z
				"/>
			<path class="st4" d="M69.4,73.5c-0.7,1-0.1,2.1,0.3,4.5c0.3,2.3-0.2,1.8,0,5.8c0,0.7,0.2,4.6,0.1,6.3c0,0.5-0.1,0.7-0.1,1
				c-0.1,0.8-0.3,1-0.3,1.6c0,0.3,0,0.9,0.4,1c0.3,0.1,0.8-0.3,1.1-0.7c0.1-0.2,0.2-0.4,0.2-1.5c0-0.8,0-0.9,0-1.3
				c0-0.7,0.1-1.1,0.3-1.9c0,0,0.3-1.3,0.6-2.5c0.1-0.7,0.5-2.6,0.2-4.8c-0.1-0.8-0.3-1.3-0.3-2.4c0-0.7,0-1.1,0.1-2
				c0.3-2.5,0.4-3.8,0-4.1C71.4,72.1,70.1,72.6,69.4,73.5z"/>
			<path class="st5" d="M69.8,90c0.1-1.6-0.1-5.6-0.1-6.3c-0.2-4,0.4-3.4,0-5.8c-0.3-2.3-1-3.4-0.3-4.5c0.6-0.9,2-1.4,2.6-0.9
				c0.3,0.2,0.3,1.1,0.1,2.7c-0.2-0.1-0.5-0.2-0.8-0.3c-0.2,0-1.1-0.2-1.5,0.4c-0.1,0.2-0.1,0.4-0.1,0.8c0.1,0.9,0.2,1.4,0.3,1.9
				c0.1,0.4,0.2,1.1,0.1,2c0,0.4-0.1,0.5-0.1,1.1c0,0.3,0,0.7-0.1,1.5c0,0.8,0,1.5,0,1.7c0,1.9,0,2.2,0.1,3c0,2.6-0.1,1.5-0.1,2.8
				c0,0.2-0.3,1.8-0.4,2c-0.1,0.3-0.1,0.7,0.1,1.3c-0.3-0.2-0.3-0.8-0.3-1c0-0.6,0.1-0.8,0.3-1.6C69.7,90.7,69.8,90.5,69.8,90z"/>
			<path class="st5" d="M68.1,92.3c-0.1-0.2-0.4-1.8-0.4-2c0-1.3-0.1-0.2-0.1-2.8c0-0.8,0-1.2,0.1-3c0-0.3,0-0.9,0-1.7
				c0-0.9,0-1.3-0.1-1.5c-0.1-0.7-0.1-0.7-0.1-1.1c-0.1-0.9,0-1.6,0.1-2c0.1-0.5,0.2-0.9,0.3-1.9c0.1-0.5,0.1-0.7-0.1-0.8
				c-0.3-0.5-1.3-0.4-1.5-0.4c-0.3,0-0.6,0.2-0.8,0.3c-0.2-1.6-0.2-2.5,0.1-2.7c0.6-0.4,1.9,0,2.6,0.9c0.7,1,0.1,2.1-0.3,4.5
				c-0.3,2.3,0.2,1.8,0,5.8c0,0.7-0.2,4.6-0.1,6.3c0,0.5,0.1,0.7,0.1,1c0.1,0.8,0.3,1,0.3,1.6c0,0.3,0,0.9-0.3,1
				C68.2,93,68.2,92.6,68.1,92.3z"/>
			<path class="st4" d="M65.9,78.6c0-0.7,0-1.1-0.1-2c-0.1-0.5-0.1-1-0.1-1.4c0.2-0.1,0.5-0.2,0.8-0.3c0.2,0,1.1-0.2,1.5,0.4
				c0.1,0.2,0.1,0.4,0.1,0.8c-0.1,0.9-0.2,1.4-0.3,1.9c-0.1,0.4-0.2,1.1-0.1,2c0,0.4,0.1,0.5,0.1,1.1c0,0.3,0,0.7,0.1,1.5
				c0,0.8,0,1.5,0,1.7c0,1.9,0,2.2-0.1,3c0,2.6,0.1,1.5,0.1,2.8c0,0.2,0.3,1.8,0.4,2c0.1,0.3,0.1,0.7-0.1,1.3c0,0,0,0,0,0
				c-0.3,0.1-0.8-0.3-1.1-0.7c-0.1-0.2-0.2-0.4-0.2-1.5c0-0.8,0-0.9,0-1.3c0-0.7-0.1-1.1-0.3-1.9c0,0-0.3-1.3-0.6-2.5
				c-0.1-0.7-0.5-2.6-0.2-4.8C65.7,80.1,65.9,79.6,65.9,78.6z"/>
			<polygon class="st6" points="65.9,63.5 71.6,63.5 72.9,54 69.7,53.2 68.1,53.2 64.8,54 			"/>
			<path class="st7" d="M72.2,54.2c-0.3-0.1-0.9-0.3-2-0.5c-0.9-0.2-1.1-0.2-1.3-0.2c-0.3,0-0.6,0-1.1,0.1c-1.3,0.2-2.1,0.5-2.6,0.6
				c-0.2,0.1-0.3,0.1-0.5,0.2c-0.1,0.1-0.3,0.1-0.4,0.2c0.2-0.4,0.4-0.6,0.5-0.6c0,0,0,0,0,0l3.2-0.8h1.6l3.3,0.9l0,0
				c0.1,0,0.3,0.3,0.6,0.7c-0.1-0.1-0.3-0.2-0.5-0.3C72.9,54.4,72.6,54.3,72.2,54.2z"/>
			<path class="st8" d="M63.7,73.7c0.2-2.7,1.7-8.6,2.1-10c0.1-0.4,0.2-0.8,0.3-1c0.4-1.2,4.2-1.5,5.2,0c0.2,0.3,0.2,0.5,0.3,1
				c0.2,1.3,2.3,9.8,2.1,10C72.8,74.5,66.7,75.2,63.7,73.7z"/>
			<path class="st7" d="M72.4,56.4c0.1,0,0.7,1.1,1,1.8c-0.1,0-0.2,0.1-0.3,0.1c-0.3-0.6-0.6-1.1-0.7-1.4l-0.9,6.5h-0.5
				c0.5-2.8,0.8-5.1,1-5.9C72.2,56.7,72.3,56.4,72.4,56.4z"/>
			<path class="st7" d="M65.2,56.8c0.1,0,0.2,0.3,0.4,1.2c0.1,0.7,0.3,2.8,0.7,5.4h-0.4l-0.7-6c0,0,0,0,0,0c0,0.3-0.2,0.7-0.5,1.2
				c-0.1-0.1-0.2-0.1-0.3-0.2C64.7,57.8,65.1,56.8,65.2,56.8z"/>
			<path class="st7" d="M72.9,57.8C72.9,57.8,72.9,57.8,72.9,57.8C72.9,57.8,72.9,57.8,72.9,57.8z"/>
			<path class="st7" d="M72.9,57.8c-0.2-0.3-0.3-0.6-0.4-0.8l-0.9,6.5h-0.5c0.5-2.8,0.8-5.1,1-5.9c0.1-0.7,0.2-1.1,0.3-1.1
				c0,0.1,0.1,0.3,0.1,0.4C72.5,57,72.7,57.3,72.9,57.8z"/>
			<path class="st7" d="M64.6,54.2L64.6,54.2L64.6,54.2z"/>
			<path class="st7" d="M64.8,54.1C64.8,54.1,64.8,54.1,64.8,54.1C64.8,54.1,64.8,54.1,64.8,54.1z"/>
			<path class="st7" d="M64.7,54.1C64.7,54.1,64.7,54.1,64.7,54.1C64.7,54.1,64.7,54.1,64.7,54.1z"/>
			<path class="st7" d="M64.5,54.3L64.5,54.3L64.5,54.3z"/>
			<path class="st7" d="M64.7,54.1C64.7,54.1,64.7,54.1,64.7,54.1C64.7,54.1,64.7,54.1,64.7,54.1z"/>
			<path class="st7" d="M64.6,54.2L64.6,54.2C64.6,54.2,64.6,54.2,64.6,54.2z"/>
			<path class="st7" d="M64.7,54.2C64.7,54.2,64.7,54.2,64.7,54.2C64.7,54.2,64.7,54.2,64.7,54.2z"/>
			<path class="st7" d="M64.8,54C64.8,54,64.8,54,64.8,54C64.8,54,64.8,54,64.8,54z"/>
			<path class="st7" d="M64.8,54C64.8,54,64.8,54,64.8,54C64.8,54,64.8,54,64.8,54z"/>
			<path class="st7" d="M65.2,57.4c0-0.2,0-0.3,0.1-0.6c0.1,0.1,0.2,0.4,0.3,1.1c0.1,0.7,0.3,2.8,0.7,5.4h-0.4L65.2,57.4
				C65.2,57.4,65.2,57.4,65.2,57.4c0,0.3-0.2,0.7-0.5,1.2c-0.1-0.1-0.2-0.1-0.3-0.2l0,0c0.1,0.1,0.2,0.1,0.3,0.2
				C65,58.1,65.2,57.7,65.2,57.4z"/>
			<path class="st6" d="M64.7,54.1C64.7,54.1,64.7,54.1,64.7,54.1C64.7,54.1,64.7,54.1,64.7,54.1z"/>
			<path class="st6" d="M64.8,54C64.8,54,64.8,54,64.8,54C64.8,54,64.8,54,64.8,54z"/>
			<path class="st6" d="M64.8,54C64.8,54,64.8,54.1,64.8,54C64.8,54.1,64.8,54,64.8,54z"/>
			<path class="st6" d="M64.8,54C64.8,54,64.8,54,64.8,54C64.8,54,64.8,54,64.8,54z"/>
			<path class="st6" d="M64.8,54.1C64.8,54.1,64.8,54.1,64.8,54.1C64.8,54.1,64.8,54.1,64.8,54.1z"/>
			<path class="st6" d="M64.7,54.1C64.7,54.1,64.7,54.1,64.7,54.1C64.7,54.1,64.7,54.1,64.7,54.1z"/>
			<path class="st6" d="M64.7,54.2C64.7,54.2,64.7,54.2,64.7,54.2C64.7,54.2,64.7,54.2,64.7,54.2z"/>
			<path class="st6" d="M64.6,54.2C64.6,54.2,64.6,54.2,64.6,54.2C64.6,54.2,64.6,54.2,64.6,54.2z"/>
			<path class="st6" d="M64.6,54.2C64.6,54.3,64.6,54.3,64.6,54.2C64.6,54.3,64.6,54.3,64.6,54.2z"/>
			<path class="st6" d="M72.9,57.8C72.9,57.8,72.9,57.8,72.9,57.8C72.9,57.8,72.9,57.8,72.9,57.8z"/>
			<path class="st9" d="M65.9,63.5c0,0,0.3-3.8,0.3-5c0-1.6-0.2-3-0.3-3.9c0-0.3-0.1-0.6-0.1-0.9l0.7-0.2c0.1,0.3,0.1,0.7,0.1,1.1
				c0.1,0.6,0.2,1.3,0.2,2.2c0.6-0.1,1.3-0.2,2.1-0.2c0.7,0,1.3,0.1,1.9,0.1c0.1-0.9,0.1-1.6,0.2-2.2c0-0.4,0.1-0.7,0.1-1.1l0.7,0.2
				c0,0.3-0.1,0.6-0.1,0.9c-0.1,0.9-0.3,2.2-0.3,3.9c0,0.9,0,5,0,5s1.2,8.3,0.8,8.9c-0.9,1.6-6.6,1.4-7.2,0
				C64.8,71.7,65.9,63.5,65.9,63.5z"/>
			<path class="st10" d="M71,57.1c0,0-0.7-0.2-1.8-0.2c-1.4,0-2.4,0.3-2.4,0.3s-0.2-2.2-0.5-3.5l0.2-0.1c0.1,0.3,0.1,0.7,0.1,1.1
				c0.1,0.6,0.2,1.3,0.2,2.2c0.6-0.1,1.3-0.2,2.1-0.2c0.7,0,1.3,0.1,1.9,0.1c0.1-0.9,0.1-1.6,0.2-2.2c0-0.4,0.1-0.7,0.1-1.1l0.2,0.1
				c-0.1,0.3-0.1,0.7-0.2,1C71,56.5,71,57.1,71,57.1z"/>
			<path class="st10" d="M68.6,73.4c0.4,0,1.1-0.1,1.2-0.1c0.4-0.1,1-0.2,1.6-0.5c0.2-0.1,0.3-0.2,0.4-0.3c0.2-0.3,0.2-0.6,0.1-0.8
				c0-0.5,0-1.1-0.1-1.6c-0.1-0.7-0.1-1.4-0.2-2c-0.3-2.5-0.4-5.2-0.4-5.7c0-1.2,0-2,0-3.3c0.1-2.2,0.1-3.2,0.3-4
				c0.1-0.5,0.1-0.9,0.2-1.2l0.1,0c0,0.3-0.1,0.6-0.1,0.9c-0.1,0.9-0.3,2.2-0.3,3.9c0,0.9,0,5,0,5s1.2,8.3,0.8,8.9
				c-0.9,1.5-6,1.4-7.1,0.2C66.7,73.2,67.9,73.4,68.6,73.4z"/>
			<path class="st10" d="M65.8,63.7c0,0,0-0.2,0-0.2c0.9,0.1,1.9-0.3,3-0.3c1.1,0,2.2,0.1,2.8-0.1l0,0.5c0,0,0,0,0,0.1
				c-0.7,0.1-1.7,0.3-2.5,0.3C67.8,64.1,66.7,63.9,65.8,63.7z"/>
			<path class="st11" d="M65.9,63.5C65.9,63.5,65.9,63.5,65.9,63.5l-0.1-0.8c0.9,0.1,2,0.3,3,0.2c1.1,0,2.3-0.2,2.8-0.4l-0.1,0.8
				c0,0,0,0,0,0.1c-0.7,0.1-1.7,0.3-2.5,0.3C67.8,63.9,66.8,63.7,65.9,63.5z"/>
			<path class="st6" d="M63.8,56.6l0-0.2L63.8,56.6c0.1,0,0.2,0.1,0.3,0l0.2,0l-0.2,0.1c-0.1,0-0.1,0.1-0.1,0.2l0,0.2L64,57
				c0-0.1-0.1-0.1-0.2-0.1l-0.2,0l0.2-0.1C63.8,56.8,63.8,56.7,63.8,56.6z"/>
			<path class="st4" d="M72.9,54c0.4,0,3.7,5.5,4.2,8.2c0.1,0.4,0.2,0.6,0,0.8c-0.1,0.2-0.6,0.2-0.8,0.1c-0.2,0-3.6-5.4-3.7-6.4
				C72.4,55.8,72.4,54.1,72.9,54z"/>
			<path class="st4" d="M77.1,63.1c-0.2,0.4-6.4,1.7-7,1.6c-0.2,0-0.3-0.7-0.2-1c0.1-0.2,5.6-2.1,6.3-1.9
				C76.9,62.2,77.3,62.7,77.1,63.1z"/>
			<path class="st5" d="M75.8,62.2c0,0-1.6,0.2-5.9,1.8c0-0.1,0-0.2,0.1-0.2c0.1-0.2,3.7-1.4,5.4-1.8c-1.1-1.7-2.7-4.5-2.8-5.2
				c0-0.2-0.1-0.5-0.1-0.7c0.3,0.4,0.5,0.8,0.6,1.1C73.6,58.7,75.9,62.1,75.8,62.2z"/>
			<path class="st6" d="M72.9,54c0.2,0,1.1,1.3,2,3c-0.2,0.2-0.4,0.3-0.6,0.5c-0.4,0.3-0.8,0.6-1.2,0.8c-0.4-0.7-0.6-1.2-0.7-1.5
				C72.1,55.5,72.4,54.1,72.9,54z"/>
			<path class="st7" d="M73.4,58.2c-0.1,0-0.2,0.1-0.3,0.1c-0.1-0.2-0.2-0.3-0.3-0.5c0,0,0,0,0,0c0,0,0,0,0,0
				c-0.2-0.4-0.4-0.8-0.4-0.9c0-0.1-0.1-0.3-0.1-0.4c0,0,0,0,0,0C72.5,56.4,73.1,57.5,73.4,58.2z"/>
			<path class="st7" d="M72.9,54c0.1,0,0.3,0.3,0.7,0.7c-0.1-0.1-0.3-0.2-0.5-0.3c-0.1-0.1-0.3-0.1-0.5-0.2
				C72.7,54.1,72.8,54.1,72.9,54z"/>
			<path class="st4" d="M70.8,63.7c-0.2-0.2-0.5-0.1-0.8,0c-0.3,0.1-0.5,0.4-0.5,0.7c-0.1,0.3,0,1,0.2,1.2c0.3,0.3,1.1,0.1,1.5-0.2
				C71.7,65.1,71.3,64.1,70.8,63.7z"/>
			<path class="st4" d="M64.8,54c-0.3,0-3.2,5.5-3.7,8.3c-0.1,0.4-0.2,0.6,0,0.9c0.1,0.2,1.6-1.6,1.8-1.7c0.2,0,2.1-3.2,2.3-4.1
				C65.4,56.4,65,54,64.8,54z"/>
			<path class="st4" d="M63,61.3c0.1,0.5-3.8,4.5-4.4,4.2c0,0-0.6,0.1-0.7-0.2c-0.2-0.6,3.4-4.9,4-4.9C62.6,60.4,63,60.7,63,61.3z"
				/>
			<path class="st5" d="M62.4,61.7c0.4-0.5,1.4-2,1.9-3c0.3-0.6,0.6-1.3,1-2c0,0.3,0,0.5,0,0.7c-0.1,0.9-2.1,4.1-2.3,4.1
				c-0.7,1.1-3.7,4.2-4.3,3.9c0,0,1-0.4,0.5-0.5C60.2,64,62,62.2,62.4,61.7z"/>
			<path class="st6" d="M63,57.2c0.8-1.8,1.7-3.2,1.8-3.2c0.5,0,0.5,2.3,0.4,3.4c0,0.3-0.2,0.7-0.5,1.2c-0.3-0.2-0.7-0.5-1.1-0.8
				C63.4,57.6,63.2,57.4,63,57.2z"/>
			<path class="st7" d="M64.3,54.6c0.1-0.1,0.1-0.2,0.2-0.3l0,0c0,0,0-0.1,0.1-0.1l0,0c0,0,0,0,0,0l0,0c0,0,0,0,0,0c0,0,0,0,0,0
				c0,0,0,0,0,0c0,0,0,0,0,0c0,0,0,0,0,0c0,0,0,0,0,0c0,0,0,0,0,0c0,0,0,0,0,0c0,0,0,0,0,0c0,0,0,0,0,0c0,0,0,0,0,0c0,0,0,0,0,0
				c0,0,0,0,0,0c0.1,0,0.2,0.1,0.2,0.3c-0.1,0-0.2,0.1-0.3,0.1C64.6,54.5,64.5,54.6,64.3,54.6z"/>
			<path class="st7" d="M65.2,56.8C65.2,56.8,65.2,56.9,65.2,56.8c0,0.2,0,0.4,0,0.6c0,0.3-0.2,0.7-0.5,1.2
				c-0.1-0.1-0.2-0.1-0.3-0.2C64.7,57.8,65.1,56.8,65.2,56.8z"/>
			<path class="st4" d="M54.6,65.3c0,0.3,2.3,0.3,3.1,0.3c0.9,0,1.6-0.2,1.6-0.6s-0.7-0.6-1.6-0.6C56.8,64.5,54.6,65,54.6,65.3z"/>
			<path class="st5" d="M54.6,65.2c0.2,0.2,2.3,0.1,3.1,0.1c0.7,0,1.2-0.2,1.5-0.4c0.1,0.1,0.1,0.1,0.1,0.2c0,0.3-0.7,0.6-1.6,0.6
				S54.6,65.6,54.6,65.2C54.6,65.3,54.6,65.3,54.6,65.2z"/>
			<path class="st12" d="M68.4,54.7l0.1-6.1c0,0,2.8-1.7,3-0.1c0,0,1,4.4-1.3,4.2l0,1.3c0,0-0.5,0.9-1.1,1
				C68.5,55.2,68.4,54.7,68.4,54.7z"/>
			<path class="st1" d="M68.6,50.3c0,0,0.7-0.7,0.9-1.9c0,0,1,0.8,2.4,0.7c1.4-0.1,1.2-2.5,0.3-2.5c-0.9,0-2.7,1-2.7,1
				s-1.1-0.8-1.6,0.4c-0.5,1.3,0.3,2.4,0.3,2.4L68.6,50.3z"/>
			<g>
				<g>
					<path class="st1" d="M70.2,50.3C70.2,50.3,70.2,50.3,70.2,50.3c0,0.2,0,0.4-0.1,0.4c0,0,0,0,0,0C70.2,50.7,70.2,50.5,70.2,50.3
						z"/>
					<path class="st1" d="M70,50.2c-0.3,0-0.2,0.5,0,0.5C70.3,50.7,70.2,50.2,70,50.2z"/>
				</g>
				<g>
					<path class="st1" d="M71.1,50.2C71.1,50.2,71.1,50.2,71.1,50.2c0,0.2,0.1,0.4,0.2,0.4c0,0,0,0,0,0
						C71.1,50.6,71.1,50.4,71.1,50.2z"/>
					<path class="st1" d="M71.2,50c0.3-0.1,0.4,0.5,0.1,0.5C71.1,50.6,71,50.1,71.2,50z"/>
				</g>
				<path class="st1" d="M69.7,50c0.1,0,0.1-0.1,0.2-0.1c0.1,0,0.1-0.1,0.2-0.1c0,0,0-0.1,0-0.1c-0.1-0.1-0.2,0-0.3,0
					c-0.1,0-0.2,0.1-0.2,0.2C69.5,49.9,69.6,50,69.7,50z"/>
				<path class="st1" d="M71.4,49.8c-0.1,0-0.1,0-0.2,0c-0.1,0-0.2,0-0.2-0.1c0,0,0-0.1,0-0.1c0.1-0.1,0.2-0.1,0.3-0.1
					c0.1,0,0.2,0,0.3,0.1C71.6,49.6,71.5,49.8,71.4,49.8z"/>
				<g>
					<g>
						<path class="st1" d="M70,51.4c0.1,0.1,0.3,0.2,0.4,0.2c0.1,0,0.1,0,0.2,0c0,0,0,0,0,0c0,0,0,0,0,0c0,0,0,0,0,0l0,0
							c0,0,0,0,0,0c0,0,0,0,0,0l0,0c0-0.1-0.1-0.3-0.1-0.3c0.1,0,0.3,0.1,0.3,0c-0.1-0.5-0.2-1.1-0.4-1.6c0,0,0,0,0,0
							c0.1,0.5,0.3,1,0.3,1.5c-0.1,0-0.2-0.1-0.3,0c0,0,0.1,0.4,0.1,0.4c0,0,0,0,0,0C70.5,51.5,70.3,51.5,70,51.4
							C70,51.3,70,51.4,70,51.4z"/>
					</g>
				</g>
				<g>
					<path class="st1" d="M70.3,52.2c0.1,0,0.1,0,0.2,0c0.1,0,0.1-0.1,0.1-0.1c0,0,0,0,0,0c0,0.1-0.1,0.1-0.2,0.2
						C70.4,52.3,70.3,52.3,70.3,52.2C70.3,52.2,70.3,52.2,70.3,52.2z"/>
					<g>
						<path class="st1" d="M70.8,51.6c0,0,0,0.2-0.2,0.3c0,0-0.1,0.1-0.2,0.1c-0.1,0-0.2-0.1-0.2-0.2c0-0.1,0-0.2,0-0.2
							S70.5,51.7,70.8,51.6z"/>
						<path class="st13" d="M70.6,51.9c0,0-0.1,0.1-0.2,0.1c-0.1,0-0.2-0.1-0.2-0.2C70.4,51.8,70.6,51.8,70.6,51.9z"/>
					</g>
				</g>
			</g>
			<g>
				<path class="st12" d="M68.8,50.8c0,0-0.3-0.9-0.7-0.8c-0.4,0.1-0.3,1.3,0,1.5c0.4,0.3,0.6,0,0.6,0L68.8,50.8z"/>
				<path class="st1" d="M68.1,50.3C68.1,50.3,68.1,50.3,68.1,50.3c0.2,0.2,0.3,0.5,0.3,0.8c-0.1-0.1-0.2-0.2-0.3-0.2c0,0,0,0,0,0
					c0.1,0,0.2,0.1,0.3,0.2c0,0.1,0,0.2,0.1,0.3c0,0,0.1,0,0.1,0c0,0,0,0,0,0C68.6,51,68.5,50.4,68.1,50.3z"/>
			</g>
			<g>
				<path class="st14" d="M70.9,50.4c0.1,0.4,0.5,0.6,0.9,0.5c0.4-0.1,0.6-0.6,0.4-1c-0.1-0.4-0.5-0.6-0.9-0.5
					C71,49.6,70.8,50,70.9,50.4z"/>
				<path class="st14" d="M69.1,50.6c0.1,0.4,0.5,0.6,0.9,0.5c0.4-0.1,0.6-0.6,0.4-1c-0.1-0.4-0.5-0.6-0.9-0.5
					C69.1,49.7,68.9,50.1,69.1,50.6z"/>
				<line class="st14" x1="70.9" y1="50.3" x2="70.5" y2="50.3"/>
			</g>
		</g>
		<g>
			<path class="st15" d="M81,70.5L68,77.3l-4.2-6.6c-0.1-0.2,0-0.4,0.2-0.4h16.9C81,70.3,81.1,70.4,81,70.5z"/>
			<rect x="59.1" y="77.2" class="st16" width="2.1" height="2.1"/>
			<path class="st17" d="M61.1,82.3c-0.3,0-0.6-0.2-0.9-0.6c-0.3-0.4-0.4-1-0.4-1.8c0-0.8,0.2-1.5,0.4-1.8l0.2,0.1
				c-0.5,0.6-0.5,2.6,0,3.3c0.3,0.4,0.6,0.6,0.9,0.5c1-0.3,1.7-3.7,1.8-4.9c0-0.4,0.1-0.7,0.2-1.1c0.1-0.4,0.2-0.9,0.2-1.4
				c0-0.2,0-0.4,0-0.5c0.1-1,0.1-2,0.4-2.9c0.3-1.1,0.9-1.8,1.7-2.3l0.1,0.2c-1.7,1-1.9,3.2-2,5c0,0.2,0,0.4,0,0.5
				c0,0.5-0.1,0.9-0.2,1.4c-0.1,0.4-0.1,0.7-0.2,1.1c0,0.3-0.2,1.5-0.5,2.7c-0.4,1.4-0.9,2.2-1.4,2.4C61.3,82.2,61.2,82.3,61.1,82.3
				z"/>
			<g>
				<path class="st18" d="M71.7,66l0.6,0.4l0.2-0.3c0-0.1,0-0.2-0.1-0.2l-0.3-0.2c-0.1,0-0.2,0-0.2,0.1L71.7,66z"/>
				<path class="st19" d="M66.9,70.3h10l0,0c0-0.3-0.2-0.5-0.4-0.5h-9.2C67.1,69.8,66.9,70.1,66.9,70.3L66.9,70.3z"/>
				<path class="st20" d="M75.6,68.7c-0.1-0.1-0.1-0.1-0.2-0.2l0,0c-0.2-0.2-0.4-0.5-0.7-0.7v0c-0.2-0.2-0.4-0.3-0.5-0.4l0,0
					c-0.2-0.1-0.4-0.3-0.6-0.4l-1.8-1c-0.3-0.2-0.6-0.3-1-0.3h-3.3c-0.5,0-0.9,0.4-1,0.9l-0.1,0.8l-0.1,0.4l0,0l-0.1,0.6
					c0,0,0,0.3,0.1,0.5c0,0.1,0.1,0.2,0.2,0.3l0.7,0.5l0.2,0.2h9.2L75.6,68.7z M67.6,67.8c0,0-0.1,0-0.1,0c-0.1-0.1-0.1-0.2-0.1-0.4
					l0.1-0.6c0-0.2,0.1-0.3,0.2-0.3h3c0,0,0.1,0,0.1,0c0,0,0,0,0,0c0,0,0.1,0,0.1,0.1l0.4,0.6c0.2,0.2,0,0.6-0.2,0.6H67.6z"/>
				<path class="st18" d="M68.6,67.8h1.7l0,0c0-0.1-0.1-0.3-0.2-0.3h-1.2C68.7,67.6,68.6,67.7,68.6,67.8L68.6,67.8z"/>
				<path class="st18" d="M76.5,69.8h-9.2l-0.9-0.6c-0.1-0.1-0.1-0.2-0.2-0.3c0-0.2-0.1-0.4-0.1-0.5l0.1-0.6l0,0l1.2,1
					c0.1,0.1,0.3,0.2,0.4,0.2h6.8c0.2,0,0.3-0.2,0.3-0.4l-0.2-0.7c0.3,0.3,0.6,0.6,0.9,0.9L76.5,69.8z"/>
				<ellipse class="st21" cx="67.1" cy="69" rx="0.2" ry="0.2"/>
				<path class="st22" d="M76.5,69.8h-9.2l-0.2-0.2c8.3,0.2,8.3-1.2,8.3-1.2l0,0c0.1,0.1,0.1,0.1,0.2,0.2L76.5,69.8z"/>
				<path class="st23" d="M70.8,70.2h-2c0,0,0,0,0,0l0,0c0,0,0,0,0,0L70.8,70.2C70.8,70.1,70.8,70.1,70.8,70.2L70.8,70.2
					C70.8,70.2,70.8,70.2,70.8,70.2z"/>
				<path class="st18" d="M71.9,67.9c-0.5,0.4-3.2,0-4.1-0.1h3.3c0.2,0,0.3-0.4,0.2-0.6l-0.4-0.6c0,0-0.1-0.1-0.1-0.1
					C70.9,66.6,72.5,67.5,71.9,67.9z"/>
				<path class="st23" d="M74,67.5c0,0,1.1,1.2,0,1.2C74,68.7,74.4,68.5,74,67.5z"/>
				<path class="st18" d="M66.2,68.5l-0.6,0.3c0,0-0.1,0.1-0.1,0.1l0,0.2c0,0.1,0.1,0.1,0.1,0.1l0.6-0.2L66.2,68.5z"/>
			</g>
			<circle class="st19" cx="60.2" cy="78.3" r="0.6"/>
			<g>
				
					<rect x="69.5" y="66.5" transform="matrix(0.7071 -0.7071 0.7071 0.7071 -37.9433 73.5294)" class="st17" width="0.5" height="32.2"/>
				
					<rect x="69.5" y="66.5" transform="matrix(-0.7071 -0.7071 0.7071 -0.7071 60.7494 190.2954)" class="st17" width="0.5" height="32.2"/>
				<rect x="86.3" y="70.6" class="st17" width="4.8" height="0.4"/>
				<rect x="91.1" y="69.5" class="st17" width="0.4" height="1.5"/>
				<path class="st18" d="M86,71.8H50.8c-0.3,0-0.5-0.2-0.5-0.5V71c0-0.3,0.2-0.5,0.5-0.5H86c0.3,0,0.5,0.2,0.5,0.5v0.3
					C86.5,71.5,86.3,71.8,86,71.8z"/>
				<circle class="st18" cx="58.5" cy="93.9" r="0.5"/>
				<circle class="st18" cx="81.1" cy="93.9" r="0.5"/>
			</g>
			<path class="st21" d="M62.4,70.5l14.5,9.7l5.3-9.7c0.1-0.1,0-0.3-0.2-0.3H62.5C62.4,70.2,62.3,70.4,62.4,70.5z"/>
		</g>
	</g>
	<g>
		<path class="st17" d="M48.2,90.3c0,0,4.3-4.8,2.5-5.2s-2.9,0.7-2.9,0.7s-1.3-3-2.8-2c-1.4,1-3.6,5.8-3.2,6.6
			C42.1,91.4,48.2,90.3,48.2,90.3z"/>
		<path class="st21" d="M40.2,89.9l6.9-1.3c0,0,0-2.4-0.7-2.6s-5.9-1.8-6.7-0.7C39,86.5,40.2,89.9,40.2,89.9z"/>
		<g>
			<path class="st17" d="M44.8,88.2c0,0,4.9,0.3,5,1.7c0.2,1.4-0.3,3-0.3,3l-5.2-0.9L44.8,88.2z"/>
			<path class="st24" d="M49.9,90.7c0,0-2.3-1.5-4.6,0.9c-2.3,2.4-3,2.7-3,2.7h6.8L49.9,90.7z"/>
			<path class="st6" d="M42.5,86.4c0,0-3.9,5.2-2.5,7.5c0,0,3.1,1.5,5,0.3s0.5-7.3,0.5-7.3L42.5,86.4z"/>
			<g>
				<g>
					<rect x="43" y="89.2" class="st25" width="0.5" height="0.7"/>
					<rect x="46" y="89.2" class="st25" width="0.5" height="0.7"/>
					<rect x="47" y="89.2" class="st25" width="0.5" height="0.7"/>
					<rect x="44" y="89.2" class="st25" width="0.5" height="0.7"/>
					<rect x="45" y="89.2" class="st25" width="0.5" height="0.7"/>
					<rect x="48" y="89.2" class="st25" width="0.5" height="0.7"/>
					<polygon class="st25" points="39.4,89.2 39.5,89.7 39.5,89.2 					"/>
					<rect x="44" y="93.2" class="st25" width="0.5" height="0.7"/>
					<rect x="49" y="89.2" class="st25" width="0.5" height="0.7"/>
					<rect x="45" y="90.6" class="st25" width="0.5" height="0.7"/>
					<rect x="48" y="90.6" class="st25" width="0.5" height="0.7"/>
					<rect x="44" y="90.6" class="st25" width="0.5" height="0.7"/>
					<rect x="46" y="90.6" class="st25" width="0.5" height="0.7"/>
					<rect x="47" y="90.6" class="st25" width="0.5" height="0.7"/>
					<rect x="49" y="90.6" class="st25" width="0.5" height="0.7"/>
					<rect x="41" y="89.2" class="st25" width="0.5" height="0.7"/>
					<rect x="40" y="89.2" class="st25" width="0.5" height="0.7"/>
					<rect x="42" y="89.2" class="st25" width="0.5" height="0.7"/>
					<path class="st25" d="M40.5,93.2H40v0.3l0,0.3c0,0,0,0.1,0,0.1h0.5V93.2z"/>
					<rect x="42" y="93.2" class="st25" width="0.5" height="0.7"/>
					<rect x="41" y="93.2" class="st25" width="0.5" height="0.7"/>
					<rect x="48" y="87.9" class="st25" width="0.5" height="0.7"/>
					<rect x="49" y="87.9" class="st25" width="0.5" height="0.7"/>
					<path class="st25" d="M49,93.2V94h0.5c0,0,0-0.1,0-0.1l0-0.3v-0.3H49z"/>
					<polygon class="st25" points="50,88.6 50.2,88.6 50.3,87.9 50,87.9 					"/>
					<polygon class="st25" points="50,89.7 50.1,89.2 50,89.2 					"/>
					<rect x="47" y="87.9" class="st25" width="0.5" height="0.7"/>
					<rect x="42" y="87.9" class="st25" width="0.5" height="0.7"/>
					<rect x="41" y="87.9" class="st25" width="0.5" height="0.7"/>
					<rect x="43" y="87.9" class="st25" width="0.5" height="0.7"/>
					<rect x="40" y="87.9" class="st25" width="0.5" height="0.7"/>
					<rect x="43" y="93.2" class="st25" width="0.5" height="0.7"/>
					<rect x="44" y="87.9" class="st25" width="0.5" height="0.7"/>
					<rect x="46" y="87.9" class="st25" width="0.5" height="0.7"/>
					<rect x="45" y="87.9" class="st25" width="0.5" height="0.7"/>
					<polygon class="st25" points="39.5,87.9 39.3,87.9 39.4,88.6 39.5,88.6 					"/>
					<rect x="48" y="91.9" class="st25" width="0.5" height="0.7"/>
					<rect x="47" y="93.2" class="st25" width="0.5" height="0.7"/>
					<rect x="47" y="91.9" class="st25" width="0.5" height="0.7"/>
					<rect x="46" y="91.9" class="st25" width="0.5" height="0.7"/>
					<rect x="49" y="91.9" class="st25" width="0.5" height="0.7"/>
					<rect x="46" y="93.2" class="st25" width="0.5" height="0.7"/>
					<rect x="42" y="91.9" class="st25" width="0.5" height="0.7"/>
					<rect x="40" y="90.6" class="st25" width="0.5" height="0.7"/>
					<rect x="41" y="91.9" class="st25" width="0.5" height="0.7"/>
					<rect x="40" y="91.9" class="st25" width="0.5" height="0.7"/>
					<rect x="45" y="91.9" class="st25" width="0.5" height="0.7"/>
					<rect x="48" y="93.2" class="st25" width="0.5" height="0.7"/>
					<rect x="43" y="91.9" class="st25" width="0.5" height="0.7"/>
					<rect x="44" y="91.9" class="st25" width="0.5" height="0.7"/>
					<rect x="42" y="90.6" class="st25" width="0.5" height="0.7"/>
					<rect x="43" y="90.6" class="st25" width="0.5" height="0.7"/>
					<rect x="45" y="93.2" class="st25" width="0.5" height="0.7"/>
					<rect x="41" y="90.6" class="st25" width="0.5" height="0.7"/>
					<rect x="42.5" y="89.2" class="st18" width="0.5" height="0.7"/>
					<rect x="42.5" y="90.6" class="st18" width="0.5" height="0.7"/>
					<rect x="42.5" y="93.2" class="st18" width="0.5" height="0.7"/>
					<rect x="42.5" y="91.9" class="st18" width="0.5" height="0.7"/>
					<rect x="42.5" y="87.9" class="st18" width="0.5" height="0.7"/>
					<rect x="43.5" y="90.6" class="st18" width="0.5" height="0.7"/>
					<rect x="43.5" y="91.9" class="st18" width="0.5" height="0.7"/>
					<rect x="43.5" y="93.2" class="st18" width="0.5" height="0.7"/>
					<rect x="43.5" y="87.9" class="st18" width="0.5" height="0.7"/>
					<rect x="43.5" y="89.2" class="st18" width="0.5" height="0.7"/>
					<rect x="44.5" y="93.2" class="st18" width="0.5" height="0.7"/>
					<rect x="44.5" y="89.2" class="st18" width="0.5" height="0.7"/>
					<rect x="44.5" y="90.6" class="st18" width="0.5" height="0.7"/>
					<rect x="44.5" y="91.9" class="st18" width="0.5" height="0.7"/>
					<rect x="44.5" y="87.9" class="st18" width="0.5" height="0.7"/>
					<rect x="45.5" y="87.9" class="st18" width="0.5" height="0.7"/>
					<rect x="45.5" y="93.2" class="st18" width="0.5" height="0.7"/>
					<rect x="45.5" y="89.2" class="st18" width="0.5" height="0.7"/>
					<rect x="45.5" y="91.9" class="st18" width="0.5" height="0.7"/>
					<rect x="45.5" y="90.6" class="st18" width="0.5" height="0.7"/>
					<rect x="46.6" y="87.9" class="st18" width="0.5" height="0.7"/>
					<rect x="46.6" y="90.6" class="st18" width="0.5" height="0.7"/>
					<rect x="46.6" y="93.2" class="st18" width="0.5" height="0.7"/>
					<rect x="46.6" y="89.2" class="st18" width="0.5" height="0.7"/>
					<rect x="46.6" y="91.9" class="st18" width="0.5" height="0.7"/>
					<rect x="47.6" y="93.2" class="st18" width="0.5" height="0.7"/>
					<rect x="47.6" y="87.9" class="st18" width="0.5" height="0.7"/>
					<rect x="47.6" y="89.2" class="st18" width="0.5" height="0.7"/>
					<rect x="47.6" y="91.9" class="st18" width="0.5" height="0.7"/>
					<rect x="47.6" y="90.6" class="st18" width="0.5" height="0.7"/>
					<rect x="48.6" y="93.2" class="st18" width="0.5" height="0.7"/>
					<rect x="48.6" y="89.2" class="st18" width="0.5" height="0.7"/>
					<rect x="48.6" y="91.9" class="st18" width="0.5" height="0.7"/>
					<rect x="48.6" y="90.6" class="st18" width="0.5" height="0.7"/>
					<rect x="48.6" y="87.9" class="st18" width="0.5" height="0.7"/>
					<polygon class="st18" points="49.6,91.3 49.9,91.3 49.9,90.6 49.6,90.6 					"/>
					<polygon class="st18" points="49.6,89.2 49.6,89.9 50,89.9 50,89.7 50,89.2 					"/>
					<polygon class="st18" points="49.6,92.6 49.7,92.6 49.8,91.9 49.6,91.9 					"/>
					<polygon class="st18" points="49.6,93.5 49.6,93.2 49.6,93.2 					"/>
					<rect x="49.6" y="87.9" class="st18" width="0.5" height="0.7"/>
					<rect x="41.5" y="89.2" class="st18" width="0.5" height="0.7"/>
					<rect x="41.5" y="90.6" class="st18" width="0.5" height="0.7"/>
					<rect x="41.5" y="87.9" class="st18" width="0.5" height="0.7"/>
					<rect x="41.5" y="93.2" class="st18" width="0.5" height="0.7"/>
					<rect x="41.5" y="91.9" class="st18" width="0.5" height="0.7"/>
					<rect x="40.5" y="90.6" class="st18" width="0.5" height="0.7"/>
					<rect x="40.5" y="91.9" class="st18" width="0.5" height="0.7"/>
					<rect x="40.5" y="89.2" class="st18" width="0.5" height="0.7"/>
					<rect x="40.5" y="93.2" class="st18" width="0.5" height="0.7"/>
					<rect x="40.5" y="87.9" class="st18" width="0.5" height="0.7"/>
					<polygon class="st18" points="40,91.9 39.8,91.9 39.8,92.6 40,92.6 					"/>
					<polygon class="st18" points="39.9,93.2 40,93.5 40,93.2 					"/>
					<polygon class="st18" points="40,89.2 39.5,89.2 39.5,89.7 39.5,89.9 40,89.9 					"/>
					<rect x="39.5" y="87.9" class="st18" width="0.5" height="0.7"/>
					<polygon class="st18" points="40,90.6 39.6,90.6 39.7,91.3 40,91.3 					"/>
					<path class="st18" d="M48.6,94H48h-0.5H47h-0.5H46h-0.5H45h-0.5H44h-0.5H43h-0.5H42h-0.5H41h-0.5H40c0.1,0.2,0.2,0.4,0.4,0.4
						h8.6c0.2,0,0.4-0.2,0.4-0.4H49H48.6z"/>
					<polygon class="st18" points="49,92.6 48.6,92.6 48,92.6 47.6,92.6 47,92.6 46.6,92.6 46,92.6 45.5,92.6 45,92.6 44.5,92.6 
						44,92.6 43.5,92.6 43,92.6 42.5,92.6 42,92.6 41.5,92.6 41,92.6 40.5,92.6 40,92.6 39.8,92.6 39.9,93.2 40,93.2 40.5,93.2 
						41,93.2 41.5,93.2 42,93.2 42.5,93.2 43,93.2 43.5,93.2 44,93.2 44.5,93.2 45,93.2 45.5,93.2 46,93.2 46.6,93.2 47,93.2 
						47.6,93.2 48,93.2 48.6,93.2 49,93.2 49.6,93.2 49.6,93.2 49.7,92.6 49.6,92.6 					"/>
					<polygon class="st18" points="49,91.3 48.6,91.3 48,91.3 47.6,91.3 47,91.3 46.6,91.3 46,91.3 45.5,91.3 45,91.3 44.5,91.3 
						44,91.3 43.5,91.3 43,91.3 42.5,91.3 42,91.3 41.5,91.3 41,91.3 40.5,91.3 40,91.3 39.7,91.3 39.8,91.9 40,91.9 40.5,91.9 
						41,91.9 41.5,91.9 42,91.9 42.5,91.9 43,91.9 43.5,91.9 44,91.9 44.5,91.9 45,91.9 45.5,91.9 46,91.9 46.6,91.9 47,91.9 
						47.6,91.9 48,91.9 48.6,91.9 49,91.9 49.6,91.9 49.8,91.9 49.9,91.3 49.6,91.3 					"/>
					<polygon class="st18" points="49,89.9 48.6,89.9 48,89.9 47.6,89.9 47,89.9 46.6,89.9 46,89.9 45.5,89.9 45,89.9 44.5,89.9 
						44,89.9 43.5,89.9 43,89.9 42.5,89.9 42,89.9 41.5,89.9 41,89.9 40.5,89.9 40,89.9 39.5,89.9 39.6,90.6 40,90.6 40.5,90.6 
						41,90.6 41.5,90.6 42,90.6 42.5,90.6 43,90.6 43.5,90.6 44,90.6 44.5,90.6 45,90.6 45.5,90.6 46,90.6 46.6,90.6 47,90.6 
						47.6,90.6 48,90.6 48.6,90.6 49,90.6 49.6,90.6 49.9,90.6 50,89.9 49.6,89.9 					"/>
					<polygon class="st18" points="49.6,88.6 49,88.6 48.6,88.6 48,88.6 47.6,88.6 47,88.6 46.6,88.6 46,88.6 45.5,88.6 45,88.6 
						44.5,88.6 44,88.6 43.5,88.6 43,88.6 42.5,88.6 42,88.6 41.5,88.6 41,88.6 40.5,88.6 40,88.6 39.5,88.6 39.4,88.6 39.4,89.2 
						39.5,89.2 40,89.2 40.5,89.2 41,89.2 41.5,89.2 42,89.2 42.5,89.2 43,89.2 43.5,89.2 44,89.2 44.5,89.2 45,89.2 45.5,89.2 
						46,89.2 46.6,89.2 47,89.2 47.6,89.2 48,89.2 48.6,89.2 49,89.2 49.6,89.2 50,89.2 50.1,89.2 50.2,88.6 50,88.6 					"/>
					<polygon class="st18" points="39.2,87.4 39.3,87.9 39.5,87.9 40,87.9 40.5,87.9 41,87.9 41.5,87.9 42,87.9 42.5,87.9 43,87.9 
						43.5,87.9 44,87.9 44.5,87.9 45,87.9 45.5,87.9 46,87.9 46.6,87.9 47,87.9 47.6,87.9 48,87.9 48.6,87.9 49,87.9 49.6,87.9 
						50,87.9 50.3,87.9 50.3,87.4 					"/>
				</g>
				<path class="st18" d="M50.6,87.1c-0.1-0.1-0.2-0.2-0.3-0.2H39.2c-0.1,0-0.2,0.1-0.3,0.2c-0.1,0.1-0.1,0.2-0.1,0.3
					c0,0,0,0.1,0,0.1l0.1,0.4l0.7,6c0,0.1,0,0.2,0,0.2c0.1,0.4,0.4,0.7,0.8,0.7h8.6c0.4,0,0.7-0.3,0.8-0.7c0-0.1,0-0.2,0.1-0.3
					l0.7-6l0.1-0.4c0,0,0-0.1,0-0.1C50.7,87.3,50.7,87.2,50.6,87.1z M49.9,87.9l-0.7,5.8c0,0.1,0,0.1-0.1,0.1h-8.6
					c0,0-0.1,0-0.1-0.1l-0.7-5.8H49.9z"/>
				<path class="st18" d="M51.3,86.8L51.3,86.8c0,0.4-0.2,0.6-0.5,0.6H38.7c-0.3,0-0.5-0.2-0.5-0.5v-0.1c0,0,0-0.1,0-0.1
					c0.1-0.2,0.2-0.4,0.5-0.4h12.2c0.2,0,0.4,0.1,0.5,0.4C51.3,86.8,51.3,86.8,51.3,86.8z"/>
				<path class="st22" d="M50.7,87.4C50.7,87.4,50.7,87.5,50.7,87.4l-0.1,0.5H38.9l-0.1-0.4c0,0,0-0.1,0-0.1H50.7z"/>
				<path class="st22" d="M49.9,94.1c-0.1,0.4-0.4,0.7-0.8,0.7h-8.6c-0.4,0-0.7-0.3-0.8-0.7H49.9z"/>
			</g>
			<path class="st6" d="M42,86.4L42,86.4L42,86.4L42,86.4L42,86.4c0,0,3.8-1.7,4.5,0c0.2,0.6,0.4,1,0.4,1.3v0
				C47,89.8,42.1,86.4,42,86.4z"/>
			<path class="st22" d="M42,86.4L42,86.4c0,0,4.1,2.6,4.9,1.3C47,89.8,42.1,86.4,42,86.4z"/>
		</g>
	</g>
	<g id="XMLID_2648_">
		<g id="XMLID_10064_">
			<g id="XMLID_10125_">
				<g id="XMLID_10126_">
					<polygon id="XMLID_10152_" class="st26" points="115,71.1 115,94.2 115,94.2 115,95.4 95.6,95.4 95.6,71.1 					"/>
					<rect id="XMLID_10151_" x="97" y="71.7" class="st9" width="18.1" height="22.4"/>
					<g id="XMLID_10144_">
						<g id="XMLID_52_">
							<rect id="XMLID_53_" x="96.3" y="83.2" class="st26" width="18.8" height="1.3"/>
						</g>
					</g>
					<g id="XMLID_10139_">
						<g id="XMLID_35_">
							<rect id="XMLID_50_" x="113.8" y="71.1" class="st26" width="1.3" height="23.2"/>
						</g>
					</g>
					<g id="XMLID_10136_">
						<polygon id="XMLID_10138_" class="st27" points="110.9,82.3 105.8,82.3 105.5,82.3 100,82.3 97.1,83.2 105.5,83.2 105.8,83.2 
							113.8,83.2 						"/>
						<rect id="XMLID_10137_" x="100" y="72.4" class="st28" width="10.9" height="9.9"/>
					</g>
					<g id="XMLID_10129_">
						<rect id="XMLID_10135_" x="96.9" y="84.4" class="st9" width="16.8" height="9.7"/>
						<rect id="XMLID_10134_" x="98.3" y="85.7" class="st28" width="14.2" height="7.1"/>
						<path id="XMLID_10133_" class="st29" d="M112.5,85.7h-1.6c0,1.7-0.9,6.3-12.6,6.8v0.3h14.2V85.7z"/>
						<path id="XMLID_10130_" class="st6" d="M106.4,86.2h-2.2c-0.2,0-0.4,0.2-0.4,0.4c0,0.2,0.2,0.4,0.4,0.4h2.2
							c0.2,0,0.4-0.2,0.4-0.4C106.8,86.4,106.7,86.2,106.4,86.2z"/>
					</g>
					<g id="XMLID_10127_">
						<rect id="XMLID_93_" x="115" y="84.4" class="st30" width="0" height="9.7"/>
					</g>
				</g>
			</g>
		</g>
		<g id="XMLID_9656_">
			<g id="XMLID_9663_">
				<path id="XMLID_9665_" class="st31" d="M109.7,81.2h-8.5c-0.5,0-0.9,0.4-0.9,0.9c0,0.5,0.4,0.9,0.9,0.9h8.5
					c0.5,0,0.9-0.4,0.9-0.9C110.5,81.6,110.1,81.2,109.7,81.2z"/>
				<path id="XMLID_9664_" class="st27" d="M110.2,81.4c0.1,0.1,0.1,0.3,0.1,0.4c0,0.5-0.4,0.9-0.9,0.9h-8.5c-0.2,0-0.4-0.1-0.5-0.2
					c0.1,0.3,0.4,0.5,0.7,0.5h8.5c0.5,0,0.9-0.4,0.9-0.9C110.5,81.8,110.4,81.6,110.2,81.4z"/>
			</g>
			<g id="XMLID_9660_">
				<path id="XMLID_9662_" class="st32" d="M109.7,79.5h-8.5c-0.5,0-0.9,0.4-0.9,0.9s0.4,0.9,0.9,0.9h8.5c0.5,0,0.9-0.4,0.9-0.9
					S110.1,79.5,109.7,79.5z"/>
				<path id="XMLID_9661_" class="st27" d="M110.2,79.7c0.1,0.1,0.1,0.3,0.1,0.4c0,0.5-0.4,0.9-0.9,0.9h-8.5c-0.2,0-0.4-0.1-0.5-0.2
					c0.1,0.3,0.4,0.5,0.7,0.5h8.5c0.5,0,0.9-0.4,0.9-0.9C110.5,80.1,110.4,79.9,110.2,79.7z"/>
			</g>
			<g id="XMLID_9657_">
				<path id="XMLID_9659_" class="st33" d="M109.7,77.8h-8.5c-0.5,0-0.9,0.4-0.9,0.9s0.4,0.9,0.9,0.9h8.5c0.5,0,0.9-0.4,0.9-0.9
					S110.1,77.8,109.7,77.8z"/>
				<path id="XMLID_9658_" class="st27" d="M110.2,78c0.1,0.1,0.1,0.3,0.1,0.4c0,0.5-0.4,0.9-0.9,0.9h-8.5c-0.2,0-0.4-0.1-0.5-0.2
					c0.1,0.3,0.4,0.5,0.7,0.5h8.5c0.5,0,0.9-0.4,0.9-0.9C110.5,78.4,110.4,78.1,110.2,78z"/>
			</g>
			<g id="XMLID_97_">
				<path id="XMLID_131_" class="st32" d="M109.7,76.1h-8.5c-0.5,0-0.9,0.4-0.9,0.9s0.4,0.9,0.9,0.9h8.5c0.5,0,0.9-0.4,0.9-0.9
					S110.1,76.1,109.7,76.1z"/>
				<path id="XMLID_111_" class="st27" d="M110.2,76.3c0.1,0.1,0.1,0.3,0.1,0.4c0,0.5-0.4,0.9-0.9,0.9h-8.5c-0.2,0-0.4-0.1-0.5-0.2
					c0.1,0.3,0.4,0.5,0.7,0.5h8.5c0.5,0,0.9-0.4,0.9-0.9C110.5,76.7,110.4,76.4,110.2,76.3z"/>
			</g>
			<g id="XMLID_82_">
				<path id="XMLID_95_" class="st33" d="M109.7,74.4h-8.5c-0.5,0-0.9,0.4-0.9,0.9c0,0.5,0.4,0.9,0.9,0.9h8.5c0.5,0,0.9-0.4,0.9-0.9
					C110.5,74.8,110.1,74.4,109.7,74.4z"/>
				<path id="XMLID_83_" class="st27" d="M110.2,74.6c0.1,0.1,0.1,0.3,0.1,0.4c0,0.5-0.4,0.9-0.9,0.9h-8.5c-0.2,0-0.4-0.1-0.5-0.2
					c0.1,0.3,0.4,0.5,0.7,0.5h8.5c0.5,0,0.9-0.4,0.9-0.9C110.5,75,110.4,74.7,110.2,74.6z"/>
			</g>
		</g>
		<g id="XMLID_18_">
			<g id="XMLID_31_">
				<path id="XMLID_33_" class="st31" d="M109.5,70H101c-0.5,0-0.9,0.4-0.9,0.9c0,0.5,0.4,0.9,0.9,0.9h8.5c0.5,0,0.9-0.4,0.9-0.9
					C110.3,70.4,110,70,109.5,70z"/>
				<path id="XMLID_32_" class="st27" d="M110,70.2c0.1,0.1,0.1,0.3,0.1,0.4c0,0.5-0.4,0.9-0.9,0.9h-8.5c-0.2,0-0.4-0.1-0.5-0.2
					c0.1,0.3,0.4,0.5,0.7,0.5h8.5c0.5,0,0.9-0.4,0.9-0.9C110.3,70.6,110.2,70.4,110,70.2z"/>
			</g>
			<g id="XMLID_28_">
				<path id="XMLID_30_" class="st32" d="M109.5,68.3H101c-0.5,0-0.9,0.4-0.9,0.9c0,0.5,0.4,0.9,0.9,0.9h8.5c0.5,0,0.9-0.4,0.9-0.9
					C110.3,68.7,110,68.3,109.5,68.3z"/>
				<path id="XMLID_29_" class="st27" d="M110,68.5c0.1,0.1,0.1,0.3,0.1,0.4c0,0.5-0.4,0.9-0.9,0.9h-8.5c-0.2,0-0.4-0.1-0.5-0.2
					c0.1,0.3,0.4,0.5,0.7,0.5h8.5c0.5,0,0.9-0.4,0.9-0.9C110.3,68.9,110.2,68.7,110,68.5z"/>
			</g>
			<g id="XMLID_25_">
				<path id="XMLID_27_" class="st33" d="M109.5,66.6H101c-0.5,0-0.9,0.4-0.9,0.9s0.4,0.9,0.9,0.9h8.5c0.5,0,0.9-0.4,0.9-0.9
					S110,66.6,109.5,66.6z"/>
				<path id="XMLID_26_" class="st27" d="M110,66.8c0.1,0.1,0.1,0.3,0.1,0.4c0,0.5-0.4,0.9-0.9,0.9h-8.5c-0.2,0-0.4-0.1-0.5-0.2
					c0.1,0.3,0.4,0.5,0.7,0.5h8.5c0.5,0,0.9-0.4,0.9-0.9C110.3,67.2,110.2,67,110,66.8z"/>
			</g>
			<g id="XMLID_22_">
				<path id="XMLID_24_" class="st32" d="M109.5,64.9H101c-0.5,0-0.9,0.4-0.9,0.9s0.4,0.9,0.9,0.9h8.5c0.5,0,0.9-0.4,0.9-0.9
					S110,64.9,109.5,64.9z"/>
				<path id="XMLID_23_" class="st27" d="M110,65.1c0.1,0.1,0.1,0.3,0.1,0.4c0,0.5-0.4,0.9-0.9,0.9h-8.5c-0.2,0-0.4-0.1-0.5-0.2
					c0.1,0.3,0.4,0.5,0.7,0.5h8.5c0.5,0,0.9-0.4,0.9-0.9C110.3,65.5,110.2,65.3,110,65.1z"/>
			</g>
			<g id="XMLID_19_">
				<path id="XMLID_21_" class="st33" d="M109.5,63.2H101c-0.5,0-0.9,0.4-0.9,0.9c0,0.5,0.4,0.9,0.9,0.9h8.5c0.5,0,0.9-0.4,0.9-0.9
					C110.3,63.6,110,63.2,109.5,63.2z"/>
				<path id="XMLID_20_" class="st27" d="M110,63.4c0.1,0.1,0.1,0.3,0.1,0.4c0,0.5-0.4,0.9-0.9,0.9h-8.5c-0.2,0-0.4-0.1-0.5-0.2
					c0.1,0.3,0.4,0.5,0.7,0.5h8.5c0.5,0,0.9-0.4,0.9-0.9C110.3,63.8,110.2,63.5,110,63.4z"/>
			</g>
		</g>
		<g id="XMLID_34_">
			<g id="XMLID_47_">
				<path id="XMLID_49_" class="st31" d="M62.2,68.9h-8.5c-0.5,0-0.9,0.4-0.9,0.9c0,0.5,0.4,0.9,0.9,0.9h8.5c0.5,0,0.9-0.4,0.9-0.9
					C63,69.3,62.6,68.9,62.2,68.9z"/>
				<path id="XMLID_48_" class="st27" d="M62.7,69.1c0.1,0.1,0.1,0.3,0.1,0.4c0,0.5-0.4,0.9-0.9,0.9h-8.5c-0.2,0-0.4-0.1-0.5-0.2
					c0.1,0.3,0.4,0.5,0.7,0.5h8.5c0.5,0,0.9-0.4,0.9-0.9C63,69.5,62.9,69.3,62.7,69.1z"/>
			</g>
			<g id="XMLID_44_">
				<path id="XMLID_46_" class="st32" d="M62.2,67.2h-8.5c-0.5,0-0.9,0.4-0.9,0.9c0,0.5,0.4,0.9,0.9,0.9h8.5c0.5,0,0.9-0.4,0.9-0.9
					C63,67.6,62.6,67.2,62.2,67.2z"/>
				<path id="XMLID_45_" class="st27" d="M62.7,67.4c0.1,0.1,0.1,0.3,0.1,0.4c0,0.5-0.4,0.9-0.9,0.9h-8.5c-0.2,0-0.4-0.1-0.5-0.2
					c0.1,0.3,0.4,0.5,0.7,0.5h8.5c0.5,0,0.9-0.4,0.9-0.9C63,67.8,62.9,67.5,62.7,67.4z"/>
			</g>
			<g id="XMLID_41_">
				<path id="XMLID_43_" class="st33" d="M62.2,65.5h-8.5c-0.5,0-0.9,0.4-0.9,0.9c0,0.5,0.4,0.9,0.9,0.9h8.5c0.5,0,0.9-0.4,0.9-0.9
					C63,65.9,62.6,65.5,62.2,65.5z"/>
				<path id="XMLID_42_" class="st27" d="M62.7,65.7c0.1,0.1,0.1,0.3,0.1,0.4c0,0.5-0.4,0.9-0.9,0.9h-8.5c-0.2,0-0.4-0.1-0.5-0.2
					c0.1,0.3,0.4,0.5,0.7,0.5h8.5c0.5,0,0.9-0.4,0.9-0.9C63,66.1,62.9,65.8,62.7,65.7z"/>
			</g>
		</g>
	</g>
	<path class="st34" d="M20.9,97.2h127.3c0.7,0,1.2-0.4,1.2-0.8l0,0c0-0.4-0.6-0.8-1.2-0.8H20.9c-0.7,0-1.2,0.4-1.2,0.8l0,0
		C19.7,96.9,20.2,97.2,20.9,97.2z"/>
	<g>
		<ellipse class="st35" cx="129.6" cy="41" rx="0.9" ry="0.9"/>
		<path class="st18" d="M129.3,41.4H81.5v-0.8h47.8C129.8,40.6,129.8,41.4,129.3,41.4z"/>
		<linearGradient id="SVGID_1_" gradientUnits="userSpaceOnUse" x1="131.3767" y1="37.512" x2="84.51" y2="43.5089">
			<stop  offset="0" style="stop-color:#87A37F"/>
			<stop  offset="0.2214" style="stop-color:#85A07D"/>
			<stop  offset="0.3789" style="stop-color:#7D9776"/>
			<stop  offset="0.5165" style="stop-color:#708769"/>
			<stop  offset="0.6427" style="stop-color:#5E7158"/>
			<stop  offset="0.7611" style="stop-color:#465542"/>
			<stop  offset="0.8738" style="stop-color:#293127"/>
			<stop  offset="0.9799" style="stop-color:#070907"/>
			<stop  offset="1" style="stop-color:#000000"/>
		</linearGradient>
		<path class="st36" d="M129.6,41c0-0.2-0.1-0.3-0.2-0.3H81.5V41H129.6z"/>
	</g>
	<g>
		<path class="st37" d="M93.3,44c0,0,1.3,2.1,1.7,6.8c0.1,1.4-0.2,4.4-0.2,4.7l-1.4,0.3c0,0,0-4.1-0.7-5.8
			C92.2,48.2,92.3,43.2,93.3,44z"/>
		<path class="st37" d="M93.3,44c0,0,1.3,2.1,1.7,6.8c0.1,1.4-0.2,4.4-0.2,4.7l-1.4,0.3c0,0,0-4.1-0.7-5.8
			C92.2,48.2,92.3,43.2,93.3,44z"/>
		<path class="st38" d="M94.3,49.5c0-1.1-0.3-2.1-0.7-3.2c0,0.4,0.3,3.6,0.2,4.6c-0.2,1.6,0.2,3.1,0.1,4.7l0.2,0
			c0-0.8,0.1-1.6,0.2-2.5C94.5,52,94.4,50.7,94.3,49.5z"/>
		<g class="st39">
			<path class="st40" d="M94.5,55.1c0-0.1,0.1-0.2,0.1-0.3c0,0,0-0.1,0.1-0.1c0.2-0.2,0.1,0.1,0.1,0.2c0,0.2-0.1,0.5-0.1,0.7l-0.2,0
				c0-0.1,0-0.2,0-0.3C94.5,55.3,94.5,55.2,94.5,55.1z"/>
			<path class="st40" d="M94.1,54.8c0,0,0-0.2,0-0.2c0,0,0.1,0,0.1,0c0,0,0.1,0.7,0.1,0.9c0,0.1,0,0.1-0.1,0.2l-0.1,0
				c0-0.2,0-0.3,0-0.5C94.1,55.1,94.1,54.9,94.1,54.8z"/>
			<path class="st40" d="M93.9,54.9c0.1,0.3,0,0.6,0,0.9l0,0c-0.1-0.2-0.1-0.5-0.1-0.7C93.8,55,93.8,54.9,93.9,54.9z"/>
		</g>
		<polygon class="st37" points="94.9,56 94.9,55.5 93.6,55.7 93.7,56.2 		"/>
		<path class="st41" d="M91,56.1c0.3,0,1.1,0,1.5-0.1c0.2-2.6-0.2-7.9,0.1-12.3l-0.8-0.4c-0.7-0.2-1.9-0.2-3-0.2
			c0,0-0.7,0.4-1.3,0.6c0,0,0.4,9.2,1.4,12.5C89.7,56.2,90.3,56.2,91,56.1z"/>
		<g>
			<g id="XMLID_120_">
				<path id="XMLID_127_" class="st42" d="M90.2,41.5C90.2,41.5,90.2,41.6,90.2,41.5c0.1,0.4,0,0.7,0,1h0.4v-0.2
					c0-0.1,0-0.6-0.1-0.8c-0.1-0.2-0.2-0.3-0.3-0.5c-0.1-0.1-0.2-0.3-0.1-0.4c0.1-0.3,0.7-0.4,0.8-0.2h0.5c0-0.2-0.5-0.5-1.1-0.4
					c-0.3,0.1-0.5,0.2-0.6,0.5c-0.1,0.2,0,0.3,0,0.5C89.9,41.1,90.2,41.4,90.2,41.5z"/>
				<path id="XMLID_126_" class="st43" d="M93.3,44.8c-0.4-0.5-1.1-1.1-1.4-1.4c-0.3-0.3-0.6-0.9-0.8-1.2c0-0.1-0.2-0.2-0.3-0.2
					h-0.6c-0.1,0-0.2,0.1-0.3,0.1c-0.1,0.2-0.4,0.7-0.7,1c-0.3,0.3-1.5,1.2-2.1,1.6c-0.2,0.1-0.1,0.3,0,0.4l0.1,0
					c0.1,0.1,0.3,0.1,0.4,0c0.6-0.4,2.4-1.8,2.9-1.8c0.4,0,1.7,1.1,2.4,1.8C93,45,93.2,44.9,93.3,44.8z"/>
				<linearGradient id="XMLID_139_" gradientUnits="userSpaceOnUse" x1="90.1813" y1="41.1175" x2="90.1813" y2="44.6783">
					<stop  offset="4.278070e-002" style="stop-color:#C1B0A0"/>
					<stop  offset="1" style="stop-color:#B09E90"/>
				</linearGradient>
				<path id="XMLID_125_" class="st44" d="M93.3,44.8c-0.4-0.5-1.1-1.1-1.4-1.4c-0.3-0.3-0.6-0.9-0.8-1.2c0-0.1-0.2-0.2-0.3-0.2
					h-0.6c-0.1,0-0.2,0.1-0.3,0.1c-0.1,0.2-0.4,0.7-0.7,1c-0.3,0.3-1.5,1.2-2.1,1.6c-0.1,0.1,1.9-1.2,2.1-1.5c0.2-0.3,0.5-0.7,0.7-1
					c0.1-0.1,0.2-0.1,0.3-0.1h0.6c0.1,0,0.2,0.1,0.3,0.2c0.2,0.3,0.5,0.9,0.8,1.2C92.1,43.8,92.8,44.4,93.3,44.8
					C93.3,44.8,93.3,44.8,93.3,44.8z"/>
				<path id="XMLID_124_" class="st45" d="M90.9,42c0,0-0.1,0-0.1,0h-0.6c-0.1,0-0.2,0-0.2,0.1c0,0,0.1,0.1,0.1,0.1c0,0,0.1,0,0.1,0
					h0.6c0.1,0,0.1,0,0.1,0C90.9,42.1,90.9,42.1,90.9,42z"/>
				<path id="XMLID_123_" class="st45" d="M92.9,45.1c-0.4-0.5-1.4-1.6-1.8-2c-0.1-0.1-0.4-0.2-0.6-0.2c-0.3,0-0.6,0.1-0.7,0.2
					c-0.7,0.5-2.3,2.1-2.2,2c0.6-0.4,2.4-1.8,2.9-1.8C91,43.3,92.2,44.5,92.9,45.1C92.9,45.1,92.9,45.1,92.9,45.1z"/>
				<path id="XMLID_122_" class="st46" d="M93.3,44.8c-0.4-0.5-1.1-1.1-1.4-1.4c-0.3-0.3-0.6-0.9-0.8-1.2c0-0.1-0.2-0.2-0.3-0.2
					h-0.3c0.2,0.2,0.2,0.5,0.2,0.8c0,0.2,0,0.5,0,0.7c0.6,0.3,1.5,1.2,2.1,1.7C93,45,93.2,44.9,93.3,44.8z"/>
				<path id="XMLID_121_" class="st42" d="M90.9,40.3c0,0,0,0.1,0,0.2h0.5v-0.2l-0.2-0.2L90.9,40.3z"/>
			</g>
		</g>
		<path class="st37" d="M87.4,50.9c0,1-0.5,3.6-0.8,5.5c0.4,0.1,0.9,0.1,1.3,0.1c0.9,0.1,1.8,0.1,2.7,0.1c0.2-0.5,0.3-1,0.4-1.5
			c0-3.7-0.1-8.9-0.2-9.3c0-0.6-1.5-1.7-2.1-2.8c0,0-1.4,0.3-2.2,0.7C86.7,43.8,87.4,49.2,87.4,50.9z"/>
		<path class="st37" d="M88.5,45.1c0.7-0.1,1.7-0.3,1.7-0.3c-0.5-0.5-1-1.1-1.4-1.7c0,0-0.2,0-0.8,0.2
			C88.1,43.8,88.4,44.9,88.5,45.1z"/>
		<path class="st47" d="M90.9,55.9c0.1-0.2,0.1-0.5,0.2-0.7c0-3.7-0.1-8.9-0.2-9.3c0-0.1-0.4-0.7-0.2-0.5
			C90.7,45.5,90.9,55.4,90.9,55.9z"/>
		<path class="st37" d="M87.4,50.9c0,1-0.5,3.6-0.8,5.5c0.4,0.1,0.9,0.1,1.3,0.1c0.1,0,0.3,0,0.4,0c0.1,0,0.1-0.1,0.2-0.1
			c0.4-0.3,0.4-5.8,0.2-7.6c-0.3-0.5-0.5-1-0.6-1.3c-0.4-1.3-0.8-2.6-1.4-3.9c0,0-0.1,0-0.1,0.1C86.7,43.8,87.4,49.2,87.4,50.9z"/>
		<path class="st37" d="M91.5,56.7c0.1,0,0.3,0,0.4,0c0.6,0,1.2,0,1.8-0.1c-0.2-2.3-0.5-5.5-0.5-5.7c-0.1-0.3,0.2-5.3,0.2-6.5
			c0-0.2-0.1-0.3-0.2-0.4c-0.3-0.2-0.7-0.4-1.2-0.6l-1.1,2.4l0.2,9.1C91.1,54.8,91.2,55.6,91.5,56.7z"/>
		<path class="st37" d="M91.3,46.8c0,0,0,1.3,0.3,1.3s1.3,0.1,1.4-0.1c0.1-0.2,0.1-1.3,0.1-1.3L91.3,46.8z"/>
		<path class="st37" d="M91.3,46.8c0,0,0,0,0,0.1c0,0.1,0,0.2,0,0.3c0.9,0.1,1.7,0,1.7,0c0-0.2,0-0.5,0-0.5L91.3,46.8z"/>
		<path class="st48" d="M93,47.1c0-0.2,0-0.4,0-0.4l-1.7,0c0,0,0,0.2,0,0.4C91.9,47.1,92.5,47.2,93,47.1z"/>
		<path class="st37" d="M90.1,46.8c0,0,0,1.3-0.3,1.3c-0.3,0-1.3,0.1-1.4-0.1c-0.1-0.2-0.1-1.3-0.1-1.3L90.1,46.8z"/>
		<path class="st37" d="M90.1,46.8c0,0,0,0,0,0.1c0,0.1,0,0.2,0,0.3c-0.9,0.1-1.7,0-1.7,0c0-0.2,0-0.5,0-0.5L90.1,46.8z"/>
		<path class="st48" d="M88.3,47.1c0-0.2,0-0.4,0-0.4l1.7,0c0,0,0,0.2,0,0.4C89.5,47.1,88.9,47.2,88.3,47.1z"/>
		<path class="st37" d="M88.9,43.1c0,0-0.7,0.1-0.8,0.2c0,0.1,0.4,1.6,0.4,1.8c0,0,1.5-0.3,1.6-0.3C90.2,44.8,89.4,43.7,88.9,43.1z"
			/>
		<path class="st37" d="M91.3,44.9c0,0,0.8-1.4,0.7-1.6c0,0,0.5,0.1,0.6,0.5c0.2,0.5,0.1,1.3,0.1,1.3S91.7,45,91.3,44.9z"/>
		<path class="st37" d="M91.3,44.8c0,0,0.6-1.3,0.5-1.6c0,0,0.4,0.2,0.6,0.5s0.2,1.3,0.2,1.3S91.7,44.9,91.3,44.8z"/>
		<path class="st37" d="M86.9,43.7c0,0-0.7,0.1-0.9,1.2c-0.2,1.2-1.9,7.3-1.7,8.2c0.2,0.9,1.6,1.9,1.8,2.9l1.5-0.2
			c0,0-0.5-4.3,0.1-7.3C87.8,47.9,87,44.7,86.9,43.7z"/>
		<path class="st38" d="M87.2,51.8c0-0.8,0.1-1.5,0.2-2.3c0-0.1-0.1-0.3-0.1-0.4c0-0.6,0.1-1.2,0-1.8c-0.2,0.4-0.4,0.8-0.5,1.3
			c-0.2,0.5-0.1,1.1-0.1,1.6c-0.1,0.9,0.1,1.8,0.1,2.7c0.1,0.6,0.2,1.3,0.3,1.9c0,0.3,0.2,0.7,0.3,1.1l0.1,0c0.1-0.6-0.1-1.4-0.2-2
			C87.2,53.2,87.1,52.5,87.2,51.8z"/>
		<path class="st38" d="M86.9,44.9c-0.3,0.4-1,2.1-1,2.6c0,1.5-0.4,2.9-0.5,4.4c0,0.7,0,1.5,0.3,2.2c0.3,0.7,1,1.1,1.3,1.8
			c0,0,0,0,0,0.1l0,0c-0.9-2.1-0.8-2.7-1-4.4C85.7,49.5,86.7,46.9,86.9,44.9z"/>
		<g class="st39">
			<path class="st40" d="M86.5,55.4c0-0.1-0.1-0.2-0.2-0.3c0,0-0.1,0-0.1-0.1c-0.2-0.2-0.1,0.1,0,0.2c0.1,0.2,0.2,0.4,0.3,0.6l0.2,0
				c0-0.1-0.1-0.2-0.1-0.3C86.6,55.6,86.5,55.5,86.5,55.4z"/>
			<path class="st40" d="M86.9,55c0,0-0.1-0.2-0.1-0.2c0,0-0.1,0-0.1,0c0,0,0,0.7,0.1,0.9c0,0.1,0.1,0.1,0.1,0.2l0.1,0
				c0-0.2,0-0.3-0.1-0.5C86.9,55.3,86.9,55.2,86.9,55z"/>
			<path class="st40" d="M87.1,55c-0.1,0.3,0.1,0.6,0.2,0.9l0,0c0-0.2,0-0.5-0.1-0.7C87.2,55.1,87.2,55,87.1,55z"/>
		</g>
		<polygon class="st37" points="87.7,56.3 87.6,55.8 86.1,55.9 86.2,56.5 		"/>
	</g>
	<g>
		<path class="st37" d="M105.8,44.2c0,0,1.3,2.1,1.7,6.8c0.1,1.4-0.2,4.4-0.2,4.7l-1.4,0.3c0,0,0-4.1-0.7-5.8
			C104.6,48.4,104.7,43.3,105.8,44.2z"/>
		<path class="st37" d="M105.8,44.2c0,0,1.3,2.1,1.7,6.8c0.1,1.4-0.2,4.4-0.2,4.7l-1.4,0.3c0,0,0-4.1-0.7-5.8
			C104.6,48.4,104.7,43.3,105.8,44.2z"/>
		<path class="st38" d="M106.8,49.7c0-1.1-0.3-2.1-0.7-3.2c0,0.4,0.3,3.6,0.2,4.6c-0.2,1.6,0.2,3.1,0.1,4.7l0.2,0
			c0-0.8,0.1-1.6,0.2-2.5C107,52.1,106.8,50.9,106.8,49.7z"/>
		<g class="st39">
			<path class="st40" d="M106.9,55.3c0-0.1,0.1-0.2,0.1-0.3c0,0,0-0.1,0.1-0.1c0.2-0.2,0.1,0.1,0.1,0.2c0,0.2-0.1,0.5-0.1,0.7
				l-0.2,0c0-0.1,0-0.2,0-0.3C106.9,55.5,106.9,55.4,106.9,55.3z"/>
			<path class="st40" d="M106.5,55c0,0,0-0.2,0-0.2c0,0,0.1,0,0.1,0c0,0,0.1,0.7,0.1,0.9c0,0.1,0,0.1-0.1,0.2l-0.1,0
				c0-0.2,0-0.3,0-0.5C106.5,55.2,106.5,55.1,106.5,55z"/>
			<path class="st40" d="M106.3,55.1c0.1,0.3,0,0.6,0,0.9l0,0c-0.1-0.2-0.1-0.5-0.1-0.7C106.2,55.1,106.2,55.1,106.3,55.1z"/>
		</g>
		<polygon class="st37" points="107.4,56.2 107.3,55.7 106,55.9 106.1,56.4 		"/>
		<path class="st41" d="M103.4,56.3c0.3,0,1.1,0,1.5-0.1c0.2-2.6-0.2-7.9,0.1-12.3l-0.8-0.4c-0.7-0.2-1.9-0.2-3-0.2
			c0,0-0.7,0.4-1.3,0.6c0,0,0.4,9.2,1.4,12.5C102.1,56.4,102.8,56.4,103.4,56.3z"/>
		<g>
			<g id="XMLID_110_">
				<path id="XMLID_118_" class="st42" d="M102.6,41.7C102.6,41.7,102.6,41.7,102.6,41.7c0.1,0.4,0,0.7,0,1h0.4v-0.2
					c0-0.1,0-0.6-0.1-0.8c-0.1-0.2-0.2-0.3-0.3-0.5c-0.1-0.1-0.2-0.3-0.1-0.4c0.1-0.3,0.7-0.4,0.8-0.2h0.5c0-0.2-0.5-0.5-1.1-0.4
					c-0.3,0.1-0.5,0.2-0.6,0.5c-0.1,0.2,0,0.3,0,0.5C102.3,41.3,102.6,41.6,102.6,41.7z"/>
				<path id="XMLID_117_" class="st43" d="M105.7,44.9c-0.4-0.5-1.1-1.1-1.4-1.4c-0.3-0.3-0.6-0.9-0.8-1.2c0-0.1-0.2-0.2-0.3-0.2
					h-0.6c-0.1,0-0.2,0.1-0.3,0.1c-0.1,0.2-0.4,0.7-0.7,1c-0.3,0.3-1.5,1.2-2.1,1.6c-0.2,0.1-0.1,0.3,0,0.4l0.1,0
					c0.1,0.1,0.3,0.1,0.4,0c0.6-0.4,2.4-1.8,2.9-1.8c0.4,0,1.7,1.1,2.4,1.8C105.4,45.2,105.6,45.1,105.7,44.9z"/>
				<linearGradient id="XMLID_140_" gradientUnits="userSpaceOnUse" x1="102.598" y1="41.3012" x2="102.598" y2="44.862">
					<stop  offset="4.278070e-002" style="stop-color:#C1B0A0"/>
					<stop  offset="1" style="stop-color:#B09E90"/>
				</linearGradient>
				<path id="XMLID_116_" class="st49" d="M105.7,44.9c-0.4-0.5-1.1-1.1-1.4-1.4c-0.3-0.3-0.6-0.9-0.8-1.2c0-0.1-0.2-0.2-0.3-0.2
					h-0.6c-0.1,0-0.2,0.1-0.3,0.1c-0.1,0.2-0.4,0.7-0.7,1c-0.3,0.3-1.5,1.2-2.1,1.6c-0.1,0.1,1.9-1.2,2.1-1.5c0.2-0.3,0.5-0.7,0.7-1
					c0.1-0.1,0.2-0.1,0.3-0.1h0.6c0.1,0,0.2,0.1,0.3,0.2c0.2,0.3,0.5,0.9,0.8,1.2C104.5,44,105.2,44.6,105.7,44.9
					C105.7,45,105.7,45,105.7,44.9z"/>
				<path id="XMLID_115_" class="st45" d="M103.4,42.2c0,0-0.1,0-0.1,0h-0.6c-0.1,0-0.2,0-0.2,0.1c0,0,0.1,0.1,0.1,0.1
					c0,0,0.1,0,0.1,0h0.6c0.1,0,0.1,0,0.1,0C103.4,42.3,103.4,42.3,103.4,42.2z"/>
				<path id="XMLID_114_" class="st45" d="M105.3,45.3c-0.4-0.5-1.4-1.6-1.8-2c-0.1-0.1-0.4-0.2-0.6-0.2c-0.3,0-0.6,0.1-0.7,0.2
					c-0.7,0.5-2.3,2.1-2.2,2c0.6-0.4,2.4-1.8,2.9-1.8C103.4,43.5,104.6,44.7,105.3,45.3C105.3,45.3,105.3,45.3,105.3,45.3z"/>
				<path id="XMLID_113_" class="st46" d="M105.7,44.9c-0.4-0.5-1.1-1.1-1.4-1.4c-0.3-0.3-0.6-0.9-0.8-1.2c0-0.1-0.2-0.2-0.3-0.2
					h-0.3c0.2,0.2,0.2,0.5,0.2,0.8c0,0.2,0,0.5,0,0.7c0.6,0.3,1.5,1.2,2.1,1.7C105.4,45.2,105.6,45.1,105.7,44.9z"/>
				<path id="XMLID_112_" class="st42" d="M103.4,40.5c0,0,0,0.1,0,0.2h0.5v-0.2l-0.2-0.2L103.4,40.5z"/>
			</g>
		</g>
		<path class="st37" d="M99.8,51.1c0,1-0.5,3.6-0.8,5.5c0.4,0.1,0.9,0.1,1.3,0.1c0.9,0.1,1.8,0.1,2.7,0.1c0.2-0.5,0.3-1,0.4-1.5
			c0-3.7-0.1-8.9-0.2-9.3c0-0.6-1.5-1.7-2.1-2.8c0,0-1.4,0.3-2.2,0.7C99.1,44,99.8,49.4,99.8,51.1z"/>
		<path class="st37" d="M100.9,45.3c0.7-0.1,1.7-0.3,1.7-0.3c-0.5-0.5-1-1.1-1.4-1.7c0,0-0.2,0-0.8,0.2
			C100.5,44,100.8,45.1,100.9,45.3z"/>
		<path class="st47" d="M103.3,56.1c0.1-0.2,0.1-0.5,0.2-0.7c0-3.7-0.1-8.9-0.2-9.3c0-0.1-0.4-0.7-0.2-0.5
			C103.2,45.6,103.3,55.6,103.3,56.1z"/>
		<path class="st37" d="M99.8,51.1c0,1-0.5,3.6-0.8,5.5c0.4,0.1,0.9,0.1,1.3,0.1c0.1,0,0.3,0,0.4,0c0.1,0,0.1-0.1,0.2-0.1
			c0.4-0.3,0.4-5.8,0.2-7.6c-0.3-0.5-0.5-1-0.6-1.3c-0.4-1.3-0.8-2.6-1.4-3.9c0,0-0.1,0-0.1,0.1C99.1,44,99.8,49.4,99.8,51.1z"/>
		<path class="st37" d="M104,56.9c0.1,0,0.3,0,0.4,0c0.6,0,1.2,0,1.8-0.1c-0.2-2.3-0.5-5.5-0.5-5.7c-0.1-0.3,0.2-5.3,0.2-6.5
			c0-0.2-0.1-0.3-0.2-0.4c-0.3-0.2-0.7-0.4-1.2-0.6l-1.1,2.4l0.2,9.1C103.5,55,103.6,55.8,104,56.9z"/>
		<path class="st37" d="M103.7,46.9c0,0,0,1.3,0.3,1.3c0.3,0,1.3,0.1,1.4-0.1c0.1-0.2,0.1-1.3,0.1-1.3L103.7,46.9z"/>
		<path class="st37" d="M103.7,46.9c0,0,0,0,0,0.1c0,0.1,0,0.2,0,0.3c0.9,0.1,1.7,0,1.7,0c0-0.2,0-0.5,0-0.5L103.7,46.9z"/>
		<path class="st48" d="M105.4,47.3c0-0.2,0-0.4,0-0.4l-1.7,0c0,0,0,0.2,0,0.4C104.3,47.3,104.9,47.3,105.4,47.3z"/>
		<path class="st37" d="M102.5,46.9c0,0,0,1.3-0.3,1.3c-0.3,0-1.3,0.1-1.4-0.1c-0.1-0.2-0.1-1.3-0.1-1.3L102.5,46.9z"/>
		<path class="st37" d="M102.5,46.9c0,0,0,0,0,0.1c0,0.1,0,0.2,0,0.3c-0.9,0.1-1.7,0-1.7,0c0-0.2,0-0.5,0-0.5L102.5,46.9z"/>
		<path class="st48" d="M100.8,47.3c0-0.2,0-0.4,0-0.4l1.7,0c0,0,0,0.2,0,0.4C101.9,47.3,101.3,47.3,100.8,47.3z"/>
		<path class="st37" d="M101.3,43.3c0,0-0.7,0.1-0.8,0.2c0,0.1,0.4,1.6,0.4,1.8c0,0,1.5-0.3,1.6-0.3C102.6,45,101.8,43.9,101.3,43.3
			z"/>
		<path class="st37" d="M103.7,45.1c0,0,0.8-1.4,0.7-1.6c0,0,0.5,0.1,0.6,0.5c0.2,0.5,0.1,1.3,0.1,1.3S104.1,45.2,103.7,45.1z"/>
		<path class="st37" d="M103.8,45c0,0,0.6-1.3,0.5-1.6c0,0,0.4,0.2,0.6,0.5c0.2,0.3,0.2,1.3,0.2,1.3S104.1,45.1,103.8,45z"/>
		<path class="st37" d="M99.4,43.9c0,0-0.7,0.1-0.9,1.2c-0.2,1.2-1.9,7.3-1.7,8.2c0.2,0.9,1.6,1.9,1.8,2.9L100,56
			c0,0-0.5-4.3,0.1-7.3C100.3,48.1,99.4,44.9,99.4,43.9z"/>
		<path class="st38" d="M99.6,52c0-0.8,0.1-1.5,0.2-2.3c0-0.1-0.1-0.3-0.1-0.4c0-0.6,0.1-1.2,0-1.8c-0.2,0.4-0.4,0.8-0.5,1.3
			c-0.2,0.5-0.1,1.1-0.1,1.6c-0.1,0.9,0.1,1.8,0.1,2.7c0.1,0.6,0.2,1.3,0.3,1.9c0,0.3,0.2,0.7,0.3,1.1l0.1,0c0.1-0.6-0.1-1.4-0.2-2
			C99.6,53.4,99.6,52.7,99.6,52z"/>
		<path class="st38" d="M99.3,45.1c-0.3,0.4-1,2.1-1,2.6c0,1.5-0.4,2.9-0.5,4.4c0,0.7,0,1.5,0.3,2.2c0.3,0.7,1,1.1,1.3,1.8
			c0,0,0,0,0,0.1l0,0c-0.9-2.1-0.8-2.7-1-4.4C98.1,49.7,99.2,47.1,99.3,45.1z"/>
		<g class="st39">
			<path class="st40" d="M98.9,55.6c0-0.1-0.1-0.2-0.2-0.3c0,0-0.1,0-0.1-0.1c-0.2-0.2-0.1,0.1,0,0.2c0.1,0.2,0.2,0.4,0.3,0.6l0.2,0
				c0-0.1-0.1-0.2-0.1-0.3C99,55.8,99,55.7,98.9,55.6z"/>
			<path class="st40" d="M99.3,55.2c0,0-0.1-0.2-0.1-0.2c0,0-0.1,0-0.1,0c0,0,0,0.7,0.1,0.9c0,0.1,0.1,0.1,0.1,0.2l0.1,0
				c0-0.2,0-0.3-0.1-0.5C99.3,55.5,99.3,55.3,99.3,55.2z"/>
			<path class="st40" d="M99.5,55.2c-0.1,0.3,0.1,0.6,0.2,0.9l0,0c0-0.2,0-0.5-0.1-0.7C99.6,55.3,99.6,55.2,99.5,55.2z"/>
		</g>
		<polygon class="st37" points="100.1,56.5 100,55.9 98.5,56.1 98.7,56.6 		"/>
	</g>
	<g>
		<path class="st37" d="M118.2,44.4c0,0,1.3,2.1,1.7,6.8c0.1,1.4-0.2,4.4-0.2,4.7l-1.4,0.3c0,0,0-4.1-0.7-5.8
			C117,48.6,117.2,43.5,118.2,44.4z"/>
		<path class="st37" d="M118.2,44.4c0,0,1.3,2.1,1.7,6.8c0.1,1.4-0.2,4.4-0.2,4.7l-1.4,0.3c0,0,0-4.1-0.7-5.8
			C117,48.6,117.2,43.5,118.2,44.4z"/>
		<path class="st38" d="M119.2,49.9c0-1.1-0.3-2.1-0.7-3.2c0,0.4,0.3,3.6,0.2,4.6c-0.2,1.6,0.2,3.1,0.1,4.7l0.2,0
			c0-0.8,0.1-1.6,0.2-2.5C119.4,52.3,119.2,51.1,119.2,49.9z"/>
		<g class="st39">
			<path class="st40" d="M119.3,55.5c0-0.1,0.1-0.2,0.1-0.3c0,0,0-0.1,0.1-0.1c0.2-0.2,0.1,0.1,0.1,0.2c0,0.2-0.1,0.5-0.1,0.7
				l-0.2,0c0-0.1,0-0.2,0-0.3C119.3,55.7,119.3,55.6,119.3,55.5z"/>
			<path class="st40" d="M118.9,55.2c0,0,0-0.2,0-0.2c0,0,0.1,0,0.1,0c0,0,0.1,0.7,0.1,0.9c0,0.1,0,0.1-0.1,0.2l-0.1,0
				c0-0.2,0-0.3,0-0.5C118.9,55.4,118.9,55.3,118.9,55.2z"/>
			<path class="st40" d="M118.7,55.2c0.1,0.3,0,0.6,0,0.9l0,0c-0.1-0.2-0.1-0.5-0.1-0.7C118.6,55.3,118.6,55.2,118.7,55.2z"/>
		</g>
		<polygon class="st37" points="119.8,56.4 119.8,55.8 118.4,56.1 118.5,56.6 		"/>
		<path class="st41" d="M115.8,56.5c0.3,0,1.1,0,1.5-0.1c0.2-2.6-0.2-7.9,0.1-12.3l-0.8-0.4c-0.7-0.2-1.9-0.2-3-0.2
			c0,0-0.7,0.4-1.3,0.6c0,0,0.4,9.2,1.4,12.5C114.5,56.6,115.2,56.6,115.8,56.5z"/>
		<g>
			<g id="XMLID_101_">
				<path id="XMLID_108_" class="st42" d="M115,41.9C115,41.9,115,41.9,115,41.9c0.1,0.4,0,0.7,0,1h0.4v-0.2c0-0.1,0-0.6-0.1-0.8
					c-0.1-0.2-0.2-0.3-0.3-0.5c-0.1-0.1-0.2-0.3-0.1-0.4c0.1-0.3,0.7-0.4,0.8-0.2h0.5c0-0.2-0.5-0.5-1.1-0.4
					c-0.3,0.1-0.5,0.2-0.6,0.5c-0.1,0.2,0,0.3,0,0.5C114.7,41.4,115,41.8,115,41.9z"/>
				<path id="XMLID_107_" class="st43" d="M118.1,45.1c-0.4-0.5-1.1-1.1-1.4-1.4c-0.3-0.3-0.6-0.9-0.8-1.2c0-0.1-0.2-0.2-0.3-0.2
					H115c-0.1,0-0.2,0.1-0.3,0.1c-0.1,0.2-0.4,0.7-0.7,1c-0.3,0.3-1.5,1.2-2.1,1.6c-0.2,0.1-0.1,0.3,0,0.4l0.1,0
					c0.1,0.1,0.3,0.1,0.4,0c0.6-0.4,2.4-1.8,2.9-1.8c0.4,0,1.7,1.1,2.4,1.8C117.9,45.4,118,45.2,118.1,45.1z"/>
				<linearGradient id="XMLID_141_" gradientUnits="userSpaceOnUse" x1="115.0146" y1="41.4848" x2="115.0146" y2="45.0456">
					<stop  offset="4.278070e-002" style="stop-color:#C1B0A0"/>
					<stop  offset="1" style="stop-color:#B09E90"/>
				</linearGradient>
				<path id="XMLID_106_" class="st50" d="M118.1,45.1c-0.4-0.5-1.1-1.1-1.4-1.4c-0.3-0.3-0.6-0.9-0.8-1.2c0-0.1-0.2-0.2-0.3-0.2
					H115c-0.1,0-0.2,0.1-0.3,0.1c-0.1,0.2-0.4,0.7-0.7,1c-0.3,0.3-1.5,1.2-2.1,1.6c-0.1,0.1,1.9-1.2,2.1-1.5c0.2-0.3,0.5-0.7,0.7-1
					c0.1-0.1,0.2-0.1,0.3-0.1h0.6c0.1,0,0.2,0.1,0.3,0.2c0.2,0.3,0.5,0.9,0.8,1.2C117,44.1,117.7,44.8,118.1,45.1
					C118.1,45.1,118.1,45.1,118.1,45.1z"/>
				<path id="XMLID_105_" class="st45" d="M115.8,42.4c0,0-0.1,0-0.1,0H115c-0.1,0-0.2,0-0.2,0.1c0,0,0.1,0.1,0.1,0.1
					c0,0,0.1,0,0.1,0h0.6c0.1,0,0.1,0,0.1,0C115.8,42.5,115.8,42.4,115.8,42.4z"/>
				<path id="XMLID_104_" class="st45" d="M117.8,45.5c-0.4-0.5-1.4-1.6-1.8-2c-0.1-0.1-0.4-0.2-0.6-0.2c-0.3,0-0.6,0.1-0.7,0.2
					c-0.7,0.5-2.3,2.1-2.2,2c0.6-0.4,2.4-1.8,2.9-1.8C115.8,43.7,117,44.8,117.8,45.5C117.7,45.5,117.7,45.5,117.8,45.5z"/>
				<path id="XMLID_103_" class="st46" d="M118.1,45.1c-0.4-0.5-1.1-1.1-1.4-1.4c-0.3-0.3-0.6-0.9-0.8-1.2c0-0.1-0.2-0.2-0.3-0.2
					h-0.3c0.2,0.2,0.2,0.5,0.2,0.8c0,0.2,0,0.5,0,0.7c0.6,0.3,1.5,1.2,2.1,1.7C117.9,45.4,118,45.2,118.1,45.1z"/>
				<path id="XMLID_102_" class="st42" d="M115.8,40.7c0,0,0,0.1,0,0.2h0.5v-0.2l-0.2-0.2L115.8,40.7z"/>
			</g>
		</g>
		<path class="st37" d="M112.2,51.3c0,1-0.5,3.6-0.8,5.5c0.4,0.1,0.9,0.1,1.3,0.1c0.9,0.1,1.8,0.1,2.7,0.1c0.2-0.5,0.3-1,0.4-1.5
			c0-3.7-0.1-8.9-0.2-9.3c0-0.6-1.5-1.7-2.1-2.8c0,0-1.4,0.3-2.2,0.7C111.5,44.2,112.3,49.6,112.2,51.3z"/>
		<path class="st37" d="M113.4,45.5c0.7-0.1,1.7-0.3,1.7-0.3c-0.5-0.5-1-1.1-1.4-1.7c0,0-0.2,0-0.8,0.2
			C112.9,44.2,113.2,45.3,113.4,45.5z"/>
		<path class="st47" d="M115.8,56.3c0.1-0.2,0.1-0.5,0.2-0.7c0-3.7-0.1-8.9-0.2-9.3c0-0.1-0.4-0.7-0.2-0.5
			C115.6,45.8,115.7,55.8,115.8,56.3z"/>
		<path class="st37" d="M112.2,51.3c0,1-0.5,3.6-0.8,5.5c0.4,0.1,0.9,0.1,1.3,0.1c0.1,0,0.3,0,0.4,0c0.1,0,0.1-0.1,0.2-0.1
			c0.4-0.3,0.4-5.8,0.2-7.6c-0.3-0.5-0.5-1-0.6-1.3c-0.4-1.3-0.8-2.6-1.4-3.9c0,0-0.1,0-0.1,0.1C111.5,44.2,112.3,49.6,112.2,51.3z"
			/>
		<path class="st37" d="M116.4,57c0.1,0,0.3,0,0.4,0c0.6,0,1.2,0,1.8-0.1c-0.2-2.3-0.5-5.5-0.5-5.7c-0.1-0.3,0.2-5.3,0.2-6.5
			c0-0.2-0.1-0.3-0.2-0.4c-0.3-0.2-0.7-0.4-1.2-0.6l-1.1,2.4l0.2,9.1C115.9,55.2,116,55.9,116.4,57z"/>
		<path class="st37" d="M116.1,47.1c0,0,0,1.3,0.3,1.3c0.3,0,1.3,0.1,1.4-0.1c0.1-0.2,0.1-1.3,0.1-1.3L116.1,47.1z"/>
		<path class="st37" d="M116.1,47.1c0,0,0,0,0,0.1c0,0.1,0,0.2,0,0.3c0.9,0.1,1.7,0,1.7,0c0-0.2,0-0.5,0-0.5L116.1,47.1z"/>
		<path class="st48" d="M117.9,47.4c0-0.2,0-0.4,0-0.4l-1.7,0c0,0,0,0.2,0,0.4C116.7,47.5,117.3,47.5,117.9,47.4z"/>
		<path class="st37" d="M114.9,47.1c0,0,0,1.3-0.3,1.3c-0.3,0-1.3,0.1-1.4-0.1c-0.1-0.2-0.1-1.3-0.1-1.3L114.9,47.1z"/>
		<path class="st37" d="M114.9,47.1c0,0,0,0,0,0.1c0,0.1,0,0.2,0,0.3c-0.9,0.1-1.7,0-1.7,0c0-0.2,0-0.5,0-0.5L114.9,47.1z"/>
		<path class="st48" d="M113.2,47.4c0-0.2,0-0.4,0-0.4l1.7,0c0,0,0,0.2,0,0.4C114.3,47.5,113.7,47.5,113.2,47.4z"/>
		<path class="st37" d="M113.8,43.5c0,0-0.7,0.1-0.8,0.2c0,0.1,0.4,1.6,0.4,1.8c0,0,1.5-0.3,1.6-0.3C115,45.1,114.2,44.1,113.8,43.5
			z"/>
		<path class="st37" d="M116.1,45.3c0,0,0.8-1.4,0.7-1.6c0,0,0.5,0.1,0.6,0.5c0.2,0.5,0.1,1.3,0.1,1.3S116.5,45.3,116.1,45.3z"/>
		<path class="st37" d="M116.2,45.2c0,0,0.6-1.3,0.5-1.6c0,0,0.4,0.2,0.6,0.5s0.2,1.3,0.2,1.3S116.6,45.2,116.2,45.2z"/>
		<path class="st37" d="M111.8,44.1c0,0-0.7,0.1-0.9,1.2c-0.2,1.2-1.9,7.3-1.7,8.2c0.2,0.9,1.6,1.9,1.8,2.9l1.5-0.2
			c0,0-0.5-4.3,0.1-7.3C112.7,48.2,111.8,45,111.8,44.1z"/>
		<path class="st38" d="M112,52.2c0-0.8,0.1-1.5,0.2-2.3c0-0.1-0.1-0.3-0.1-0.4c0-0.6,0.1-1.2,0-1.8c-0.2,0.4-0.4,0.8-0.5,1.3
			c-0.2,0.5-0.1,1.1-0.1,1.6c-0.1,0.9,0.1,1.8,0.1,2.7c0.1,0.6,0.2,1.3,0.3,1.9c0,0.3,0.2,0.7,0.3,1.1l0.1,0c0.1-0.6-0.1-1.4-0.2-2
			C112,53.5,112,52.9,112,52.2z"/>
		<path class="st38" d="M111.7,45.3c-0.3,0.4-1,2.1-1,2.6c0,1.5-0.4,2.9-0.5,4.4c0,0.7,0,1.5,0.3,2.2c0.3,0.7,1,1.1,1.3,1.8
			c0,0,0,0,0,0.1l0,0c-0.9-2.1-0.8-2.7-1-4.4C110.6,49.9,111.6,47.3,111.7,45.3z"/>
		<g class="st39">
			<path class="st40" d="M111.3,55.8c0-0.1-0.1-0.2-0.2-0.3c0,0-0.1,0-0.1-0.1c-0.2-0.2-0.1,0.1,0,0.2c0.1,0.2,0.2,0.4,0.3,0.6
				l0.2,0c0-0.1-0.1-0.2-0.1-0.3C111.4,56,111.4,55.9,111.3,55.8z"/>
			<path class="st40" d="M111.7,55.4c0,0-0.1-0.2-0.1-0.2c0,0-0.1,0-0.1,0c0,0,0,0.7,0.1,0.9c0,0.1,0.1,0.1,0.1,0.2l0.1,0
				c0-0.2,0-0.3-0.1-0.5C111.8,55.6,111.7,55.5,111.7,55.4z"/>
			<path class="st40" d="M112,55.4c-0.1,0.3,0.1,0.6,0.2,0.9l0,0c0-0.2,0-0.5-0.1-0.7C112.1,55.5,112,55.4,112,55.4z"/>
		</g>
		<polygon class="st37" points="112.5,56.7 112.4,56.1 111,56.3 111.1,56.8 		"/>
	</g>
</g>
</svg>
