<svg width="164" height="88" viewBox="0 0 164 88" fill="none" xmlns="http://www.w3.org/2000/svg">
<path d="M12.5 85.9001C12.5 85.9001 -9.20005 56.9001 4.99995 31.8001C19.2 6.70009 27.7 42.4001 60.5 25.9001C93.2999 9.40009 134.8 -20.3999 155.8 22.5001C176.8 65.4001 149.4 85.9001 149.4 85.9001H12.5Z" fill="#FAFFFF"/>
<path d="M137.183 27.5732C137.306 27.5732 140.13 27.696 140.498 32.73C140.866 37.8868 145.655 37.8868 144.55 43.1664C143.445 48.446 136.815 45.622 136.815 45.622C136.815 45.622 126.501 41.4475 131.044 35.3084C135.341 29.2922 137.183 27.5732 137.183 27.5732Z" fill="#75271A"/>
<path d="M135.832 78.6496C136.446 79.0179 136.569 80.0002 136.569 81.228C136.569 81.7191 136.569 81.4735 136.569 82.2102C136.569 83.6836 136.692 83.9292 136.569 84.6658C136.446 85.157 136.323 85.5253 136.078 85.8937C135.709 86.262 135.218 86.262 134.973 86.3848C134.604 86.5076 133.991 86.5076 133.745 86.262C133.622 86.0164 133.745 84.6658 133.868 83.6836C134.236 81.1052 134.482 78.7724 135.341 78.6496C135.587 78.404 135.709 78.5268 135.832 78.6496Z" fill="#4C423F"/>
<path d="M139.148 78.6496C139.762 79.0179 139.884 80.0002 139.884 81.228C139.884 81.7191 139.884 81.4735 139.884 82.2102C139.884 83.6836 140.007 83.9292 139.884 84.6658C139.762 85.157 139.639 85.5253 139.393 85.8937C139.025 86.262 138.534 86.262 138.288 86.3848C137.92 86.5076 137.306 86.5076 137.06 86.262C136.938 86.0164 137.06 84.6658 137.183 83.6836C137.551 81.1052 137.797 78.7724 138.657 78.6496C138.902 78.404 139.025 78.5268 139.148 78.6496Z" fill="#4C423F"/>
<path d="M135.096 78.5271C134.727 80.7372 134.236 84.4206 134.236 85.1573C134.236 85.4028 134.359 85.6484 134.359 85.6484C134.482 85.7712 134.604 85.894 135.341 85.6484C135.587 85.5256 135.955 85.4028 136.446 85.1573C136.323 85.4028 136.201 85.5256 136.078 85.6484C135.709 86.0167 135.218 86.0167 134.973 86.1395C134.604 86.2623 133.991 86.2623 133.745 86.0167C133.622 85.7712 133.745 84.4206 133.868 83.4383C134.113 81.1055 134.359 79.0182 135.096 78.5271Z" fill="#353131"/>
<path d="M138.533 85.7712C137.797 86.0168 137.674 85.7712 137.551 85.7712C137.428 85.6484 137.428 85.5257 137.428 85.2801C137.428 84.5434 138.042 80.9828 138.288 78.7727C137.674 79.3866 137.428 81.3511 137.06 83.6839C136.937 84.6662 136.815 86.1396 136.937 86.2623C137.183 86.5079 137.674 86.5079 138.165 86.3851C138.533 86.3851 138.902 86.2623 139.27 85.894C139.516 85.6484 139.639 85.5257 139.639 85.2801C139.27 85.5257 138.779 85.6484 138.533 85.7712Z" fill="#353131"/>
<path d="M133.745 59.6188C132.886 60.8466 133.745 62.1972 134.236 65.1439C134.727 67.9679 133.991 67.354 134.359 72.2652C134.359 73.1247 134.727 77.9131 134.605 80.0004C134.605 80.6143 134.605 80.8599 134.482 81.2282C134.359 82.2105 134.113 82.456 134.236 83.1927C134.236 83.5611 134.359 84.2977 134.727 84.4205C135.096 84.5433 135.71 84.0522 136.078 83.5611C136.201 83.3155 136.323 83.0699 136.323 81.7193C136.323 80.7371 136.201 80.6143 136.201 80.1232C136.201 79.2637 136.323 78.7726 136.569 77.7904C136.569 77.7904 136.937 76.1942 137.183 74.7208C137.306 73.8614 137.674 71.5285 137.306 68.8274C137.183 67.8451 136.937 67.2312 136.937 66.0034C136.937 65.1439 136.937 64.6528 137.06 63.5478C137.306 60.4783 137.429 58.8821 136.937 58.5138C136.201 57.8999 134.482 58.5138 133.745 59.6188Z" fill="#F9B087"/>
<path d="M134.604 79.8777C134.727 77.7905 134.359 73.002 134.359 72.1426C133.991 67.2313 134.727 67.968 134.236 65.0213C133.745 62.1973 133.008 60.8467 133.745 59.4961C134.482 58.3911 136.201 57.7772 136.815 58.2683C137.183 58.5139 137.183 59.6189 137.06 61.5834C136.815 61.4606 136.446 61.3378 136.078 61.2151C135.832 61.2151 134.727 61.0923 134.236 61.7062C134.113 61.9518 134.113 62.1973 134.236 62.6884C134.359 63.7935 134.482 64.4074 134.604 65.0213C134.727 65.5124 134.85 66.3719 134.85 67.4769C134.85 67.968 134.727 68.0908 134.727 68.8275C134.727 69.1958 134.727 69.6869 134.727 70.6692C134.727 71.6514 134.727 72.5109 134.727 72.7565C134.85 75.0893 134.85 75.4576 134.85 76.4399C134.973 79.6322 134.85 78.2816 134.85 79.8777C134.85 80.1233 134.482 82.0878 134.482 82.3334C134.359 82.7017 134.359 83.1928 134.727 83.9295C134.359 83.684 134.236 82.9473 134.236 82.7017C134.236 81.965 134.359 81.7195 134.482 80.7372C134.604 80.7372 134.604 80.4917 134.604 79.8777Z" fill="#F39474"/>
<path d="M137.674 82.7019C137.797 82.4564 138.165 80.4919 138.165 80.2463C138.165 78.6502 138.288 80.0008 138.288 76.8085C138.288 75.8262 138.288 75.3351 138.165 73.125C138.165 72.7567 138.165 72.02 138.165 71.0378C138.165 69.9327 138.165 69.4416 138.288 69.1961C138.411 68.3366 138.411 68.3366 138.411 67.8455C138.534 66.7404 138.411 65.881 138.288 65.3899C138.165 64.7759 138.043 64.2848 137.92 63.057C137.797 62.4431 137.797 62.1975 138.043 62.0748C138.411 61.4609 139.639 61.5836 139.884 61.5836C140.253 61.5836 140.621 61.8292 140.866 61.952C141.112 59.9875 141.112 58.8825 140.744 58.6369C140.007 58.1458 138.411 58.6369 137.551 59.7419C136.692 60.9697 137.429 62.3203 137.92 65.2671C138.288 68.091 137.674 67.4771 137.92 72.3884C137.92 73.2478 138.165 78.0363 138.043 80.1235C138.043 80.7375 137.92 80.983 137.92 81.3514C137.797 82.3336 137.551 82.5792 137.551 83.3158C137.551 83.6842 137.551 84.4209 137.92 84.5437C137.551 83.5614 137.551 83.0703 137.674 82.7019Z" fill="#F39474"/>
<path d="M140.498 65.7577C140.498 64.8982 140.498 64.4071 140.621 63.3021C140.744 62.6882 140.744 62.0743 140.744 61.5832C140.498 61.4604 140.13 61.3376 139.761 61.2148C139.516 61.2148 138.411 60.9693 137.92 61.706C137.797 61.9515 137.797 62.1971 137.797 62.6882C137.92 63.7932 138.042 64.4071 138.165 65.021C138.288 65.5122 138.411 66.3716 138.288 67.4766C138.288 67.9678 138.165 68.0905 138.165 68.8272C138.165 69.1956 138.165 69.6867 138.042 70.6689C138.042 71.6512 138.042 72.5107 138.042 72.7562C138.042 75.0891 138.042 75.4574 138.165 76.4396C138.165 79.6319 138.042 78.2814 138.042 79.8775C138.042 80.1231 137.674 82.0876 137.551 82.3331C137.429 82.7015 137.429 83.1926 137.674 83.9293C138.042 84.0521 138.656 83.5609 139.025 83.0698C139.147 82.8242 139.27 82.5787 139.27 81.2281C139.27 80.2458 139.27 80.1231 139.27 79.6319C139.27 78.7725 139.393 78.2814 139.639 77.2991C139.639 77.2991 140.007 75.703 140.375 74.2296C140.498 73.3701 140.989 71.0373 140.621 68.3361C140.621 67.7222 140.498 67.1083 140.498 65.7577Z" fill="#F9B087"/>
<path d="M140.375 47.218H133.499L131.781 35.6766L135.832 34.5715H137.797L141.726 35.6766L140.375 47.218Z" fill="white"/>
<path d="M132.763 35.7993C133.131 35.6766 133.868 35.431 135.219 35.1854C136.324 34.9399 136.569 34.9399 136.815 34.9399C137.183 34.9399 137.551 34.9399 138.165 35.0627C139.761 35.3082 140.744 35.6766 141.358 35.7993C141.603 35.9221 141.726 35.9221 141.971 36.0449C142.094 36.1677 142.34 36.1677 142.463 36.2905C142.217 35.7993 141.971 35.5538 141.849 35.5538L137.92 34.5715H135.955L131.903 35.6766C131.781 35.6766 131.535 36.0449 131.167 36.536C131.29 36.4133 131.535 36.2905 131.781 36.1677C131.903 36.0449 132.149 35.9221 132.763 35.7993Z" fill="#EDECEB"/>
<path d="M143.077 59.7416C142.831 56.4265 140.989 49.1825 140.498 47.4635C140.375 46.9724 140.253 46.4813 140.13 46.2357C139.639 44.7624 134.973 44.394 133.745 46.2357C133.5 46.6041 133.5 46.8496 133.377 47.4635C133.131 49.0597 130.553 59.4961 130.798 59.7416C132.026 60.8467 139.393 61.5833 143.077 59.7416Z" fill="#211E27"/>
<path d="M132.395 38.6233C132.272 38.6233 131.535 39.9739 131.167 40.8333C131.29 40.8333 131.412 40.9561 131.535 40.9561C131.903 40.2194 132.272 39.6055 132.395 39.2372L133.5 47.2179H134.113C133.5 43.7801 133.131 40.9561 132.886 39.9739C132.64 38.9916 132.517 38.6233 132.395 38.6233Z" fill="#EDECEB"/>
<path d="M141.235 39.1143C141.112 39.1143 140.989 39.4826 140.744 40.5876C140.621 41.4471 140.375 44.0255 139.884 47.2178H140.375L141.235 39.8509C141.235 40.2193 141.48 40.7104 141.849 41.3243C141.972 41.2015 142.094 41.2015 142.217 41.0787C141.849 40.2193 141.358 39.1143 141.235 39.1143Z" fill="#EDECEB"/>
<path d="M131.781 40.2194C132.026 39.8511 132.149 39.4828 132.272 39.2372L133.377 47.2179H133.991C133.377 43.7801 133.008 40.9561 132.763 39.9739C132.64 39.1144 132.517 38.6233 132.394 38.6233C132.394 38.7461 132.272 38.9916 132.272 39.1144C132.272 39.36 132.149 39.7283 131.781 40.2194Z" fill="#EDECEB"/>
<path d="M141.235 39.8509C141.235 39.6054 141.235 39.4826 141.112 39.1143C140.989 39.237 140.867 39.6054 140.744 40.4648C140.621 41.3243 140.375 43.9027 139.884 47.095H140.375L141.235 39.8509C141.235 39.7282 141.235 39.8509 141.235 39.8509C141.235 40.2193 141.48 40.7104 141.849 41.3243C141.972 41.2015 142.094 41.2015 142.217 41.0787C142.094 41.2015 141.972 41.2015 141.849 41.3243C141.603 40.7104 141.358 40.0965 141.235 39.8509Z" fill="#EDECEB"/>
<path d="M140.375 47.2178C140.375 47.2178 140.007 42.5521 140.007 41.0787C140.007 39.1142 140.252 37.3953 140.375 36.2903C140.375 35.9219 140.498 35.5536 140.498 35.1852L139.639 34.9397C139.516 35.308 139.516 35.7991 139.516 36.2903C139.393 37.0269 139.27 37.8864 139.27 38.9914C138.533 38.8687 137.674 38.7459 136.692 38.7459C135.832 38.7459 135.096 38.8687 134.359 38.8687C134.236 37.7636 134.236 36.9042 134.113 36.1675C134.113 35.6764 133.991 35.308 133.991 34.8169L133.131 35.0625C133.131 35.4308 133.254 35.7991 133.254 36.1675C133.377 37.2725 133.622 38.8687 133.622 40.9559C133.622 42.061 133.622 47.095 133.622 47.095C133.622 47.095 132.149 57.2858 132.64 58.0225C133.745 59.987 140.744 59.7414 141.48 58.0225C141.726 57.2858 140.375 47.2178 140.375 47.2178Z" fill="#359591"/>
<path d="M134.113 39.3603C134.113 39.3603 134.973 39.1147 136.323 39.1147C138.042 39.1147 139.27 39.4831 139.27 39.4831C139.27 39.4831 139.516 36.7819 139.884 35.1857L139.638 35.063C139.516 35.4313 139.516 35.9224 139.516 36.4136C139.393 37.1502 139.27 38.0097 139.27 39.1147C138.533 38.992 137.674 38.8692 136.692 38.8692C135.832 38.8692 135.095 38.992 134.359 38.992C134.236 37.8869 134.236 37.0275 134.113 36.2908C134.113 35.7996 133.99 35.4313 133.99 34.9402L133.745 35.063C133.868 35.4313 133.868 35.9224 133.99 36.2908C134.113 38.7464 134.113 39.3603 134.113 39.3603Z" fill="#9EE5DB"/>
<path d="M137.06 59.3732C136.569 59.3732 135.71 59.2504 135.587 59.2504C135.096 59.1276 134.359 59.0048 133.622 58.6365C133.377 58.5137 133.254 58.3909 133.131 58.2681C132.886 57.8998 132.886 57.5314 133.008 57.2859C133.008 56.672 133.008 55.9353 133.131 55.3214C133.254 54.4619 133.254 53.6025 133.377 52.8658C133.745 49.7963 133.868 46.4812 133.868 45.8673C133.868 44.3939 133.868 43.4117 133.868 41.8155C133.745 39.1143 133.745 37.8865 133.499 36.9043C133.377 36.2904 133.377 35.7993 133.254 35.4309H133.131C133.131 35.7993 133.254 36.1676 133.254 36.5359C133.377 37.641 133.622 39.2371 133.622 41.3244C133.622 42.4294 133.622 47.4634 133.622 47.4634C133.622 47.4634 132.149 57.6542 132.64 58.3909C133.745 60.2326 140.007 60.1099 141.357 58.6365C139.516 59.1276 138.042 59.3732 137.06 59.3732Z" fill="#9EE5DB"/>
<path d="M140.498 47.4632V47.2177C139.393 47.3405 138.165 46.8493 136.815 46.8493C135.464 46.8493 134.113 46.9721 133.377 46.7266V47.3405C133.377 47.3405 133.377 47.3405 133.377 47.4632C134.236 47.586 135.464 47.8316 136.446 47.8316C138.165 47.9544 139.393 47.8316 140.498 47.4632Z" fill="#9EE5DB"/>
<path d="M140.498 47.3406C140.498 47.2178 140.375 47.2178 140.498 47.3406L140.621 46.3584C139.516 46.4811 138.165 46.7267 136.937 46.6039C135.587 46.6039 134.113 46.3584 133.5 46.1128L133.622 47.095C133.622 47.095 133.622 47.095 133.622 47.2178C134.482 47.3406 135.71 47.5862 136.692 47.5862C138.165 47.7089 139.27 47.5862 140.498 47.3406Z" fill="#7FD6CB"/>
<path d="M142.954 38.8688V38.6233V38.8688C142.831 38.8688 142.708 38.9916 142.585 38.8688H142.34L142.585 38.9916C142.708 38.9916 142.708 39.1144 142.708 39.2372V39.4828L142.831 39.2372C142.831 39.1144 142.954 39.1144 143.076 39.1144H143.322L143.076 38.9916C143.076 38.9916 142.954 38.9916 142.954 38.8688Z" fill="white"/>
<path d="M131.78 35.6765C131.289 35.6765 127.238 42.4295 126.624 45.7445C126.501 46.2357 126.378 46.4812 126.624 46.7268C126.746 46.9723 127.36 46.9723 127.606 46.8496C127.852 46.8496 132.026 40.2194 132.149 38.9916C132.517 37.8866 132.394 35.6765 131.78 35.6765Z" fill="#F9B087"/>
<path d="M127.606 46.9726C127.115 47.2181 120.116 43.6575 119.625 43.1663C119.38 42.9208 119.871 42.1841 120.239 42.0613C120.485 41.9385 127.238 44.3942 127.729 45.1308C128.22 45.9903 128.097 46.727 127.606 46.9726Z" fill="#F9B087"/>
<path d="M131.78 35.6765C131.535 35.6765 130.43 37.2727 129.325 39.3599C129.57 39.6055 129.816 39.7283 130.061 39.9738C130.553 40.3422 131.044 40.7105 131.535 40.9561C132.026 40.0966 132.271 39.4827 132.394 39.1144C132.885 37.3954 132.394 35.6765 131.78 35.6765Z" fill="white"/>
<path d="M131.167 40.7106C131.29 40.7106 131.412 40.8333 131.535 40.8333C131.658 40.5878 131.781 40.465 131.903 40.2194C132.149 39.7283 132.395 39.2372 132.395 39.1144C132.395 38.9916 132.517 38.7461 132.517 38.6233C132.272 38.6233 131.658 39.8511 131.167 40.7106Z" fill="#EDECEB"/>
<path d="M131.781 35.6765C131.658 35.6765 131.412 36.0449 130.921 36.536C131.044 36.4132 131.289 36.2904 131.535 36.1676C131.658 36.0449 131.903 36.0449 132.149 35.9221C132.149 35.7993 132.026 35.6765 131.781 35.6765Z" fill="#EDECEB"/>
<path d="M121.221 42.7978C121.221 42.5523 120.853 42.3067 120.485 42.1839C119.994 42.0611 119.748 42.1839 119.503 42.4295C119.257 42.675 118.766 43.2889 118.766 43.7801C118.766 44.2712 119.748 44.7623 120.362 44.7623C120.976 44.7623 121.344 43.5345 121.221 42.7978Z" fill="#F9B087"/>
<path d="M141.971 37.0271C141.603 37.1499 140.866 44.7623 141.48 48.2002C141.603 48.6913 141.603 48.9369 141.726 49.1824C141.849 49.3052 142.708 46.604 142.954 46.4813C143.199 46.3585 143.936 41.8156 143.69 40.7106C143.445 39.36 142.094 36.9044 141.971 37.0271Z" fill="#F9B087"/>
<path d="M143.076 45.9901C143.322 46.604 140.989 52.8658 140.129 52.8658C140.129 52.8658 139.516 53.2342 139.393 52.9886C138.902 52.4975 140.989 45.8673 141.603 45.499C142.217 45.1306 142.708 45.3762 143.076 45.9901Z" fill="#F9B087"/>
<path d="M142.463 46.8496C142.708 46.1129 143.077 43.9028 143.199 42.5522C143.322 41.6928 143.322 40.7105 143.445 39.7283C143.568 40.0966 143.691 40.3422 143.691 40.5877C143.936 41.6928 143.199 46.2357 142.954 46.3584C142.708 47.8318 140.744 52.8658 140.007 52.8658C140.007 52.8658 140.867 51.8836 140.375 52.0064C141.112 50.4102 142.34 47.5862 142.463 46.8496Z" fill="#F39474"/>
<path d="M143.568 40.3422C142.954 38.0094 142.217 36.1677 142.094 36.0449C141.48 35.9221 140.989 38.7461 140.866 40.0967C140.866 40.465 140.989 40.9561 141.235 41.6928C141.726 41.57 142.217 41.3245 142.708 40.9561C143.077 40.7106 143.322 40.465 143.568 40.3422Z" fill="white"/>
<path d="M142.34 36.4132C142.217 36.2905 142.217 36.1677 142.094 36.0449C142.094 36.0449 142.094 35.9221 141.971 35.9221C141.849 35.9221 141.726 36.0449 141.726 36.2905C141.849 36.2905 141.971 36.4132 142.094 36.4132C142.094 36.1677 142.217 36.2905 142.34 36.4132Z" fill="#EDECEB"/>
<path d="M140.989 39.3599C140.866 39.6054 140.866 39.851 140.866 40.0965C140.866 40.4649 140.989 40.956 141.235 41.6927C141.358 41.6927 141.48 41.5699 141.603 41.5699C141.358 40.5877 141.112 39.3599 140.989 39.3599Z" fill="#EDECEB"/>
<path d="M137.306 36.5358L137.183 29.0462C137.183 29.0462 133.745 26.9589 133.5 28.9234C133.5 28.9234 132.272 34.3258 135.096 34.0802V35.6764C135.096 35.6764 135.71 36.7814 136.446 36.9042C137.306 37.027 137.306 36.5358 137.306 36.5358Z" fill="#F8A492"/>
<path d="M137.06 31.1337C137.06 31.1337 136.201 30.2742 135.955 28.8009C135.955 28.8009 134.727 29.7831 133.009 29.6603C131.29 29.5376 131.535 26.5908 132.64 26.5908C133.745 26.5908 135.955 27.8186 135.955 27.8186C135.955 27.8186 137.306 26.8364 137.92 28.3097C138.534 29.9059 137.551 31.2565 137.551 31.2565L137.06 31.1337Z" fill="#75271A"/>
<path d="M135.218 31.1333C135.218 31.3789 135.218 31.6244 135.341 31.6244C135.096 31.6244 135.096 31.2561 135.218 31.1333Z" fill="#75271A"/>
<path d="M135.464 30.8877C135.833 30.8877 135.71 31.5016 135.464 31.5016C135.096 31.5016 135.096 30.8877 135.464 30.8877Z" fill="#75271A"/>
<path d="M134.114 31.0107C134.114 31.0107 133.991 31.0107 134.114 31.0107C134.114 31.2563 133.991 31.5019 133.868 31.5019C133.991 31.5019 134.114 31.1335 134.114 31.0107Z" fill="#75271A"/>
<path d="M133.868 30.7653C133.5 30.6425 133.377 31.3792 133.745 31.3792C134.113 31.502 134.236 30.7653 133.868 30.7653Z" fill="#75271A"/>
<path d="M135.709 30.6424C135.587 30.6424 135.587 30.5196 135.464 30.5196C135.341 30.5196 135.341 30.3968 135.218 30.3968V30.2741C135.341 30.1513 135.464 30.2741 135.587 30.2741C135.709 30.2741 135.832 30.3968 135.832 30.5196C135.955 30.5196 135.832 30.6424 135.709 30.6424Z" fill="#75271A"/>
<path d="M133.745 30.3969C133.868 30.3969 133.868 30.3969 133.991 30.3969C134.113 30.3969 134.236 30.3969 134.236 30.2741V30.1513C134.113 30.0286 133.991 30.0286 133.868 30.0286C133.745 30.0286 133.622 30.0286 133.5 30.1513C133.5 30.2741 133.622 30.3969 133.745 30.3969Z" fill="#75271A"/>
<path d="M135.341 32.3612C135.219 32.484 134.973 32.6068 134.85 32.6068C134.727 32.6068 134.727 32.6068 134.605 32.6068C134.605 32.484 134.727 32.2384 134.727 32.2384C134.605 32.2384 134.359 32.3612 134.359 32.2384C134.482 31.6245 134.605 30.8878 134.85 30.2739C134.727 30.8878 134.482 31.5017 134.482 32.1156C134.605 32.1156 134.727 31.9929 134.85 32.1156L134.727 32.6068C134.85 32.6068 135.096 32.484 135.341 32.3612Z" fill="#75271A"/>
<path d="M134.973 33.3435C134.85 33.3435 134.85 33.3435 134.727 33.3435C134.604 33.3435 134.604 33.2207 134.604 33.2207C134.604 33.3435 134.727 33.3435 134.85 33.4663C134.85 33.5891 134.973 33.4663 134.973 33.3435C135.096 33.4663 135.096 33.3435 134.973 33.3435Z" fill="#75271A"/>
<path d="M134.359 32.7295C134.359 32.7295 134.359 32.9751 134.605 33.0978C134.605 33.0978 134.727 33.2206 134.85 33.2206C134.973 33.2206 135.096 33.0978 135.096 32.9751C135.096 32.8523 135.096 32.7295 135.096 32.7295C135.096 32.7295 134.727 32.8523 134.359 32.7295Z" fill="#75271A"/>
<path d="M134.604 33.098C134.604 33.098 134.727 33.2207 134.85 33.2207C134.973 33.2207 135.096 33.098 135.096 32.9752C134.85 32.8524 134.727 32.9752 134.604 33.098Z" fill="#FF98B9"/>
<path d="M136.815 31.6248C136.815 31.6248 137.183 30.5198 137.674 30.6426C138.165 30.7654 138.043 32.2387 137.674 32.4843C137.183 32.8526 136.937 32.4843 136.937 32.4843L136.815 31.6248Z" fill="#F8A492"/>
<path d="M137.674 31.0112C137.429 31.2568 137.306 31.6251 137.306 31.9935C137.429 31.8707 137.551 31.7479 137.674 31.7479C137.551 31.7479 137.429 31.8707 137.306 31.9935C137.306 32.1163 137.306 32.239 137.183 32.3618H137.06C137.06 31.9935 137.183 31.2568 137.674 31.0112Z" fill="#75271A"/>
<path d="M134.236 31.2562C134.113 31.7473 133.622 31.9929 133.131 31.8701C132.64 31.7473 132.394 31.1334 132.64 30.6423C132.763 30.1511 133.254 29.9056 133.745 30.0284C134.236 30.1511 134.482 30.765 134.236 31.2562Z" stroke="#EF848E" stroke-width="0.1" stroke-miterlimit="10"/>
<path d="M136.569 31.379C136.446 31.8701 135.955 32.1157 135.464 31.9929C134.973 31.8701 134.727 31.2562 134.973 30.7651C135.096 30.2739 135.587 30.0284 136.078 30.1512C136.446 30.2739 136.692 30.8878 136.569 31.379Z" stroke="#EF848E" stroke-width="0.1" stroke-miterlimit="10"/>
<path d="M134.359 31.0105H134.85" stroke="#EF848E" stroke-width="0.1" stroke-miterlimit="10"/>
<path d="M139.762 51.5154C139.639 51.3926 138.657 51.3926 138.288 51.5154C137.92 51.6382 137.674 53.971 137.92 53.8483C138.043 53.8483 138.043 53.8483 138.288 53.1116C138.288 53.1116 138.043 54.4622 138.411 54.4622C138.657 54.4622 139.025 52.7432 139.025 52.7432C139.025 52.7432 138.902 53.3571 139.27 53.4799C139.762 53.6027 140.621 52.3749 140.621 52.3749L139.762 51.5154Z" fill="#F9B087"/>
<path d="M147.619 85.5256H58.3577L57.2527 59.2505H70.2674L72.3547 76.0715H88.3162L91.1402 59.2505H148.602L147.619 85.5256Z" fill="#6CC8C1"/>
<path d="M148.356 69.3186H89.7896V69.5642H148.356V69.3186Z" fill="#CCD9E2"/>
<path d="M136.509 85.5877L135.569 59.3284L135.324 59.3371L136.263 85.5965L136.509 85.5877Z" fill="#F5FBFF"/>
<path d="M116.456 59.2714L116.211 59.262L115.198 85.5187L115.443 85.5281L116.456 59.2714Z" fill="#F5FBFF"/>
<path d="M95.8279 59.2683L95.5825 59.2588L94.5695 85.5155L94.8149 85.5249L95.8279 59.2683Z" fill="#F5FBFF"/>
<path d="M63.9817 85.5469L63.0422 59.2876L62.7968 59.2964L63.7362 85.5557L63.9817 85.5469Z" fill="#F5FBFF"/>
<path d="M136.311 85.5384L135.371 59.2791L135.126 59.2878L136.065 85.5472L136.311 85.5384Z" fill="#CCD9E2"/>
<path d="M116.211 59.2695L115.965 59.26L114.952 85.5167L115.198 85.5262L116.211 59.2695Z" fill="#CCD9E2"/>
<path d="M95.7053 59.2709L95.46 59.2615L94.4469 85.5182L94.6923 85.5276L95.7053 59.2709Z" fill="#CCD9E2"/>
<path d="M63.7836 85.4976L62.8442 59.2383L62.5988 59.2471L63.5382 85.5064L63.7836 85.4976Z" fill="#CCD9E2"/>
<path d="M71.7406 69.564H57.6208V69.8095H71.7406V69.564Z" fill="#F5FBFF"/>
<path d="M148.233 69.073H89.667V69.3186H148.233V69.073Z" fill="#F5FBFF"/>
<path d="M57.2526 59.2504H69.5307L72.1091 76.6853H88.6845L91.3857 59.2504H149.215L149.461 57.2859H90.2807L88.0706 75.703H72.8458L70.7585 57.2859H57.0071L57.2526 59.2504Z" fill="#CCD9E2"/>
<path opacity="0.18" d="M148.602 59.2505V61.5833L90.8948 62.1972L91.3859 59.2505H148.602Z" fill="#0C123A"/>
<path d="M147.619 85.5257L147.865 79.0183L147.988 75.7032C147.988 74.5982 148.11 73.4932 148.11 72.3881L148.601 59.2506V59.1278H148.724H149.215L149.093 59.2506L149.338 57.1633L149.461 57.2861H119.871H105.137H101.454H97.7702L90.4033 57.1633L97.7702 57.0405H101.454H105.137H119.871H149.461H149.584V57.1633L149.338 59.2506V59.3734H149.215H148.601L148.724 59.2506L148.233 72.3881C148.233 73.4932 148.11 74.5982 148.11 75.7032L147.988 79.0183L147.619 85.5257Z" fill="#CCD9E2"/>
<path opacity="0.18" d="M88.6846 76.6854L87.8251 78.4043L69.8991 78.7726L66.9524 62.1972L57.3755 62.5656L57.2527 59.2505H69.5308L72.1092 76.6854H88.6846Z" fill="#0C123A"/>
<path d="M132.64 61.7063L123.923 85.1574H116.679L119.748 61.8291L132.64 61.7063ZM110.294 62.0746L111.645 85.2802H116.433L118.643 61.9519L110.294 62.0746Z" fill="url(#paint0_linear)"/>
<path d="M39.8178 44.6396H27.6625C27.2941 44.6396 27.0486 44.394 27.0486 44.0257V43.6574C27.0486 43.289 27.2941 43.0435 27.6625 43.0435H39.8178C40.1861 43.0435 40.4317 43.289 40.4317 43.6574V44.0257C40.5545 44.2713 40.1861 44.6396 39.8178 44.6396Z" fill="#FFDD00"/>
<path opacity="0.57" d="M39.8178 42.9201H27.6625C27.2941 42.9201 27.0486 42.6746 27.0486 42.3062V41.9379C27.0486 41.5695 27.2941 41.324 27.6625 41.324H39.8178C40.1861 41.324 40.4317 41.5695 40.4317 41.9379V42.3062C40.5545 42.6746 40.1861 42.9201 39.8178 42.9201Z" fill="#E8F4FC"/>
<path d="M40.3089 41.2015H27.908C27.4169 41.2015 27.0486 40.8332 27.0486 40.342V39.8509C27.0486 39.3598 27.4169 38.9915 27.908 38.9915H40.3089C40.8 38.9915 41.1684 39.3598 41.1684 39.8509V40.342C41.1684 40.8332 40.8 41.2015 40.3089 41.2015Z" fill="#6CC8C1"/>
<path d="M38.0991 44.7622H9V85.4027H38.0991V44.7622Z" fill="#9DB5C4"/>
<path d="M41.7824 44.7622H12.6833V85.4027H41.7824V44.7622Z" fill="white"/>
<path d="M41.7824 44.7622H12.6833V85.4027H41.7824V44.7622Z" fill="#E8F4FC"/>
<path d="M41.7824 78.7725H12.6833V79.3864H41.7824V78.7725Z" fill="#B3C6D4"/>
<path d="M41.7824 78.7725H12.6833V79.018H41.7824V78.7725Z" fill="#9BB5C4"/>
<path d="M41.7824 44.7622H12.6833V52.743H41.7824V44.7622Z" fill="#F5FBFF"/>
<path d="M41.7824 52.0061H12.6833V52.4972H41.7824V52.0061Z" fill="#B3C6D4"/>
<path d="M41.7824 52.0061H12.6833V52.2517H41.7824V52.0061Z" fill="#9DB5C4"/>
<path d="M41.7824 44.7622H12.6833V46.6039H41.7824V44.7622Z" fill="#F5FBFF"/>
<path d="M15.5074 47.0947H21.2781C21.7692 47.0947 22.1376 47.4631 22.1376 47.9542V51.0237C22.1376 51.2693 21.892 51.5148 21.6464 51.5148H15.0163C14.7707 51.5148 14.5251 51.2693 14.5251 51.0237V47.9542C14.6479 47.4631 15.0163 47.0947 15.5074 47.0947Z" fill="#359591"/>
<path d="M15.5077 47.0947H21.4011C21.8923 47.0947 22.1378 47.4631 22.1378 47.8314V50.287C22.1378 50.5326 22.015 50.6554 21.7695 50.6554H15.0165C14.771 50.6554 14.6482 50.5326 14.6482 50.287V47.8314C14.6482 47.4631 15.0165 47.0947 15.5077 47.0947Z" fill="#3D576B"/>
<path d="M27.0488 50.7785C27.8625 50.7785 28.5222 50.1189 28.5222 49.3052C28.5222 48.4914 27.8625 47.8318 27.0488 47.8318C26.2351 47.8318 25.5754 48.4914 25.5754 49.3052C25.5754 50.1189 26.2351 50.7785 27.0488 50.7785Z" fill="#B9CFD6"/>
<path d="M26.6805 47.8318C26.1894 48.0773 25.9438 48.5685 25.9438 49.1824C25.9438 50.0418 26.5577 50.6557 27.4172 50.6557C27.54 50.6557 27.6627 50.6557 27.7855 50.6557C27.54 50.7785 27.4172 50.7785 27.1716 50.7785C26.3121 50.7785 25.6982 50.1646 25.6982 49.3052C25.6982 48.5685 26.0666 48.0773 26.6805 47.8318Z" fill="#ABC1C6"/>
<path d="M27.0486 50.41C27.6589 50.41 28.1537 49.9153 28.1537 49.305C28.1537 48.6947 27.6589 48.2 27.0486 48.2C26.4383 48.2 25.9436 48.6947 25.9436 49.305C25.9436 49.9153 26.4383 50.41 27.0486 50.41Z" fill="#3D576B"/>
<path d="M27.0486 50.41C27.6589 50.41 28.1537 49.9153 28.1537 49.305C28.1537 48.6947 27.6589 48.2 27.0486 48.2C26.4383 48.2 25.9436 48.6947 25.9436 49.305C25.9436 49.9153 26.4383 50.41 27.0486 50.41Z" fill="#3D576B"/>
<path d="M26.8031 48.2C26.6803 48.3227 26.5575 48.5683 26.5575 48.8139C26.5575 49.4278 27.0486 49.9189 27.6625 49.9189C27.7853 49.9189 27.7853 49.9189 27.9081 49.9189C27.6625 50.1644 27.417 50.2872 27.0486 50.2872C26.4347 50.2872 25.9436 49.7961 25.9436 49.1822C26.0664 48.8138 26.4347 48.3227 26.8031 48.2Z" fill="#184670"/>
<path d="M19.1909 47.4634H21.5237C21.5237 47.4634 21.6465 47.4634 21.6465 47.5862V48.3229C21.6465 48.3229 21.6465 48.4456 21.5237 48.4456H19.1909C19.1909 48.4456 19.0681 48.4456 19.0681 48.3229L19.1909 47.4634C19.0681 47.5862 19.0681 47.4634 19.1909 47.4634Z" fill="#CCD9E2"/>
<path d="M38.4675 47.0947H40.3092C40.432 47.0947 40.5548 47.2175 40.5548 47.3403V47.8314C40.5548 47.9542 40.432 48.077 40.3092 48.077H38.4675C38.3447 48.077 38.2219 47.9542 38.2219 47.8314V47.3403C38.2219 47.2175 38.3447 47.0947 38.4675 47.0947Z" fill="#D82156"/>
<path d="M38.4675 47.0947H40.1864C40.3092 47.0947 40.432 47.2175 40.432 47.3403V47.7086C40.432 47.8314 40.3092 47.9542 40.1864 47.9542H38.4675C38.3447 47.9542 38.2219 47.8314 38.2219 47.7086V47.3403C38.2219 47.2175 38.3447 47.0947 38.4675 47.0947Z" fill="#6CC8C1"/>
<path d="M38.4672 47.0947H38.59V47.5859C38.59 47.7086 38.7128 47.8314 38.8356 47.8314H40.4317C40.4317 47.9542 40.3089 47.9542 40.1861 47.9542H38.3444C38.2217 47.9542 38.0989 47.8314 38.0989 47.7086V47.2175C38.2217 47.2175 38.3444 47.0947 38.4672 47.0947Z" fill="#359591"/>
<path d="M29.6272 47.4634H30.4866C30.6094 47.4634 30.6094 47.4634 30.6094 47.5862V47.8317C30.6094 47.9545 30.6094 47.9545 30.4866 47.9545H29.6272C29.5044 47.9545 29.5044 47.8317 29.5044 47.8317L29.6272 47.4634C29.5044 47.4634 29.5044 47.4634 29.6272 47.4634Z" fill="#6CC8C1"/>
<path d="M29.6272 48.323H30.4866C30.6094 48.323 30.6094 48.323 30.6094 48.4458V48.6913C30.6094 48.8141 30.6094 48.8141 30.4866 48.8141H29.6272C29.5044 48.8141 29.5044 48.8141 29.5044 48.6913L29.6272 48.323C29.5044 48.323 29.5044 48.323 29.6272 48.323Z" fill="#6CC8C1"/>
<path d="M29.6272 49.1821H30.4866C30.6094 49.1821 30.6094 49.1821 30.6094 49.3049V49.5505C30.6094 49.6733 30.6094 49.6733 30.4866 49.6733H29.6272C29.5044 49.6733 29.5044 49.6733 29.5044 49.5505L29.6272 49.1821C29.5044 49.1821 29.5044 49.1821 29.6272 49.1821Z" fill="#6CC8C1"/>
<path d="M29.6272 50.042H30.4866C30.6094 50.042 30.6094 50.042 30.6094 50.1648V50.2876C30.6094 50.4103 30.6094 50.4103 30.4866 50.4103H29.6272C29.5044 50.4103 29.5044 50.4103 29.5044 50.2876L29.6272 50.042C29.5044 50.042 29.5044 50.042 29.6272 50.042Z" fill="#6CC8C1"/>
<path d="M29.6272 50.9011H30.4866C30.6094 50.9011 30.6094 50.9011 30.6094 51.0239V51.2695C30.6094 51.3923 30.6094 51.3922 30.4866 51.3922H29.6272C29.5044 51.3922 29.5044 51.3923 29.5044 51.2695L29.6272 50.9011C29.5044 50.9011 29.5044 50.9011 29.6272 50.9011Z" fill="#6CC8C1"/>
<path d="M23.7336 47.4634H24.5931C24.7159 47.4634 24.7159 47.4634 24.7159 47.5862V47.8317C24.7159 47.9545 24.7159 47.9545 24.5931 47.9545H23.7336C23.6108 47.9545 23.6108 47.9545 23.6108 47.8317L23.7336 47.4634C23.6108 47.4634 23.6108 47.4634 23.7336 47.4634Z" fill="#6CC8C1"/>
<path d="M23.7336 48.323H24.5931C24.7159 48.323 24.7159 48.323 24.7159 48.4458V48.6913C24.7159 48.8141 24.7159 48.8141 24.5931 48.8141H23.7336C23.6108 48.8141 23.6108 48.8141 23.6108 48.6913L23.7336 48.323C23.6108 48.323 23.6108 48.323 23.7336 48.323Z" fill="#6CC8C1"/>
<path d="M23.7336 49.1821H24.5931C24.7159 49.1821 24.7159 49.1821 24.7159 49.3049V49.5505C24.7159 49.6733 24.7159 49.6733 24.5931 49.6733H23.7336C23.6108 49.6733 23.6108 49.6733 23.6108 49.5505L23.7336 49.1821C23.6108 49.1821 23.6108 49.1821 23.7336 49.1821Z" fill="#6CC8C1"/>
<path d="M23.7336 50.042H24.5931C24.7159 50.042 24.7159 50.042 24.7159 50.1648V50.2876C24.7159 50.4103 24.7159 50.4103 24.5931 50.4103H23.7336C23.6108 50.4103 23.6108 50.4103 23.6108 50.2876L23.7336 50.042C23.6108 50.042 23.6108 50.042 23.7336 50.042Z" fill="#6CC8C1"/>
<path d="M23.7336 50.9011H24.5931C24.7159 50.9011 24.7159 50.9011 24.7159 51.0239V51.2695C24.7159 51.3923 24.7159 51.3922 24.5931 51.3922H23.7336C23.6108 51.3922 23.6108 51.3923 23.6108 51.2695L23.7336 50.9011C23.6108 50.9011 23.6108 50.9011 23.7336 50.9011Z" fill="#6CC8C1"/>
<path d="M39.818 50.9011C40.1571 50.9011 40.4319 50.6263 40.4319 50.2872C40.4319 49.9482 40.1571 49.6733 39.818 49.6733C39.479 49.6733 39.2041 49.9482 39.2041 50.2872C39.2041 50.6263 39.479 50.9011 39.818 50.9011Z" fill="#3D576B"/>
<path d="M41.7824 84.7888H12.6833V85.4027H41.7824V84.7888Z" fill="#B3C6D4"/>
<path d="M16.3669 80.8596H22.7515C22.997 80.8596 23.1198 80.9824 23.1198 81.228V85.4025H15.9985V81.228C15.9985 81.1052 16.1213 80.8596 16.3669 80.8596Z" fill="#B3C6D4"/>
<path d="M16.9807 81.5964H22.1375C22.2603 81.5964 22.5059 81.7192 22.5059 81.9648V85.4026H16.7352V81.9648C16.6124 81.7192 16.7352 81.5964 16.9807 81.5964Z" fill="#8BA6B6"/>
<path d="M17.3489 82.3333H21.8917C21.8917 82.3333 22.0145 82.3333 22.0145 82.456V82.5788C22.0145 82.5788 22.0145 82.7016 21.8917 82.7016H17.3489C17.3489 82.7016 17.2261 82.7016 17.2261 82.5788L17.3489 82.3333C17.2261 82.3333 17.2261 82.3333 17.3489 82.3333Z" fill="#A7BCC9"/>
<path d="M17.3489 83.1926H21.8917C21.8917 83.1926 22.0145 83.1926 22.0145 83.3154V83.4382C22.0145 83.4382 22.0145 83.561 21.8917 83.561H17.3489C17.3489 83.561 17.2261 83.561 17.2261 83.4382L17.3489 83.1926C17.2261 83.1926 17.2261 83.1926 17.3489 83.1926Z" fill="#A7BCC9"/>
<path d="M17.3489 84.052H21.8917C21.8917 84.052 22.0145 84.052 22.0145 84.1748V84.2976C22.0145 84.2976 22.0145 84.4203 21.8917 84.4203H17.3489C17.3489 84.4203 17.2261 84.4203 17.2261 84.2976L17.3489 84.052C17.2261 84.1748 17.2261 84.052 17.3489 84.052Z" fill="#A7BCC9"/>
<path d="M41.7824 46.113H12.6833V46.4814H41.7824V46.113Z" fill="#B3C6D4"/>
<path d="M41.7824 45.99H12.6833V46.2355H41.7824V45.99Z" fill="#9DB5C4"/>
<path d="M15.5077 47.0947C15.6304 47.2175 15.6304 47.4631 15.7532 47.7086C16.2443 49.182 17.7177 49.9187 18.3316 50.0415C18.7 50.1642 19.4366 50.287 20.91 50.287C21.2784 50.287 21.6467 50.287 22.1378 50.287V50.6554H14.6482V47.9542C14.6482 47.4631 15.0165 47.0947 15.5077 47.0947Z" fill="#144566"/>
<path d="M27.7838 48.7622C27.6306 48.5383 27.3703 48.45 27.2024 48.5648C27.0346 48.6797 27.0226 48.9543 27.1758 49.1782C27.329 49.402 27.5892 49.4904 27.7571 49.3755C27.925 49.2606 27.9369 48.986 27.7838 48.7622Z" fill="#29748E"/>
<path d="M39.818 50.9014C40.1571 50.9014 40.4319 50.6265 40.4319 50.2875C40.4319 49.9484 40.1571 49.6736 39.818 49.6736C39.479 49.6736 39.2041 49.9484 39.2041 50.2875C39.2041 50.6265 39.479 50.9014 39.818 50.9014Z" fill="#3D576B"/>
<path d="M39.6952 49.5505C39.5724 49.6733 39.5724 49.7961 39.5724 50.0417C39.5724 50.41 39.818 50.6556 40.1863 50.6556H40.3091C40.1863 50.7783 40.0636 50.9011 39.818 50.9011C39.4497 50.9011 39.2041 50.6556 39.2041 50.2872C39.2041 49.9189 39.3269 49.6733 39.6952 49.5505Z" fill="#2D4351"/>
<path d="M40.2886 49.9797C40.2133 49.8669 40.0608 49.8367 39.948 49.912C39.8353 49.9874 39.805 50.1399 39.8804 50.2527C39.9557 50.3654 40.1082 50.3957 40.221 50.3203C40.3337 50.2449 40.364 50.0924 40.2886 49.9797Z" fill="#678699"/>
<path d="M37.7309 50.6559C37.9343 50.6559 38.0992 50.491 38.0992 50.2875C38.0992 50.0841 37.9343 49.9192 37.7309 49.9192C37.5275 49.9192 37.3625 50.0841 37.3625 50.2875C37.3625 50.491 37.5275 50.6559 37.7309 50.6559Z" fill="#B3C6D4"/>
<path d="M37.6078 49.7966C37.4851 49.9194 37.4851 49.9194 37.4851 50.0422C37.4851 50.2878 37.7306 50.4105 37.8534 50.4105H37.9762C37.8534 50.5333 37.7306 50.5333 37.6078 50.5333C37.3623 50.5333 37.2395 50.2878 37.2395 50.165C37.3623 50.0422 37.4851 49.7966 37.6078 49.7966Z" fill="#A6BCC9"/>
<path d="M38.0518 49.9997C37.9764 49.887 37.8696 49.8261 37.8132 49.8638C37.7569 49.9015 37.7723 50.0235 37.8476 50.1362C37.923 50.2489 38.0298 50.3098 38.0862 50.2721C38.1426 50.2344 38.1272 50.1125 38.0518 49.9997Z" fill="#CCD9E2"/>
<path d="M36.1347 50.6559C36.3381 50.6559 36.503 50.491 36.503 50.2875C36.503 50.0841 36.3381 49.9192 36.1347 49.9192C35.9313 49.9192 35.7664 50.0841 35.7664 50.2875C35.7664 50.491 35.9313 50.6559 36.1347 50.6559Z" fill="#B3C6D4"/>
<path d="M36.0117 49.7952C35.8889 49.9179 35.8889 49.918 35.8889 50.0407C35.8889 50.2863 36.1344 50.4091 36.2572 50.4091H36.38C36.2572 50.5319 36.1344 50.5318 36.0117 50.5318C35.7661 50.5318 35.6433 50.2863 35.6433 50.1635C35.7661 50.0407 35.8889 49.7952 36.0117 49.7952Z" fill="#A6BCC9"/>
<path d="M36.4256 49.9841C36.3502 49.8714 36.2434 49.8105 36.187 49.8482C36.1306 49.8859 36.1461 50.0078 36.2214 50.1206C36.2968 50.2333 36.4036 50.2942 36.46 50.2565C36.5163 50.2188 36.5009 50.0968 36.4256 49.9841Z" fill="#CCD9E2"/>
<path d="M34.5385 50.6559C34.7419 50.6559 34.9068 50.491 34.9068 50.2875C34.9068 50.0841 34.7419 49.9192 34.5385 49.9192C34.3351 49.9192 34.1702 50.0841 34.1702 50.2875C34.1702 50.491 34.3351 50.6559 34.5385 50.6559Z" fill="#B3C6D4"/>
<path d="M34.4155 49.7961C34.2927 49.9189 34.2927 49.9189 34.2927 50.0417C34.2927 50.2873 34.5382 50.41 34.661 50.41H34.7838C34.661 50.5328 34.5382 50.5328 34.4155 50.5328C34.1699 50.5328 34.0471 50.2873 34.0471 50.1645C34.0471 50.0417 34.2927 49.7961 34.4155 49.7961Z" fill="#A6BCC9"/>
<path d="M34.8692 50.0708C34.7938 49.958 34.687 49.8972 34.6306 49.9349C34.5742 49.9726 34.5897 50.0945 34.665 50.2072C34.7404 50.32 34.8472 50.3808 34.9036 50.3431C34.96 50.3054 34.9445 50.1835 34.8692 50.0708Z" fill="#CCD9E2"/>
<path d="M38.9585 47.218H40.1863C40.1863 47.218 40.3091 47.218 40.3091 47.3408C40.3091 47.3408 40.3091 47.4636 40.1863 47.4636H38.9585C38.9585 47.4636 38.9585 47.4636 38.9585 47.218C38.9585 47.3408 38.9585 47.218 38.9585 47.218Z" fill="#CCD9E2"/>
<path d="M41.7824 85.0344H12.6833V85.28H41.7824V85.0344Z" fill="#8BA6B6"/>
<path opacity="0.07" d="M16.1212 73.984C16.1212 77.7902 19.1907 80.9825 23.1197 80.9825H41.7824V85.4027H12.6833V44.7622H16.244L16.1212 73.984Z" fill="#082B72"/>
<path d="M27.049 75.703C33.2197 75.703 38.2221 70.7007 38.2221 64.53C38.2221 58.3593 33.2197 53.3569 27.049 53.3569C20.8783 53.3569 15.876 58.3593 15.876 64.53C15.876 70.7007 20.8783 75.703 27.049 75.703Z" fill="#B3C6D4"/>
<path d="M27.049 75.703C33.2197 75.703 38.2221 70.7007 38.2221 64.53C38.2221 58.3593 33.2197 53.3569 27.049 53.3569C20.8783 53.3569 15.876 58.3593 15.876 64.53C15.876 70.7007 20.8783 75.703 27.049 75.703Z" fill="#6CC8C1"/>
<path opacity="0.3" d="M24.9618 53.6023C20.2961 54.9529 16.981 59.2502 16.981 64.2842C16.981 70.4233 22.015 75.4573 28.1541 75.4573C28.8907 75.4573 29.6274 75.3345 30.2413 75.2117C29.2591 75.4573 28.1541 75.7028 27.049 75.7028C20.91 75.7028 15.876 70.6688 15.876 64.5298C15.9988 59.1274 19.805 54.5845 24.9618 53.6023Z" fill="white"/>
<path d="M27.0487 73.3699C31.931 73.3699 35.8889 69.412 35.8889 64.5297C35.8889 59.6473 31.931 55.6895 27.0487 55.6895C22.1664 55.6895 18.2085 59.6473 18.2085 64.5297C18.2085 69.412 22.1664 73.3699 27.0487 73.3699Z" fill="#3D576B"/>
<path d="M27.0487 71.6513C31.3207 71.6513 34.7839 68.2431 34.7839 64.0389C34.7839 59.8347 31.3207 56.4265 27.0487 56.4265C22.7766 56.4265 19.3135 59.8347 19.3135 64.0389C19.3135 68.2431 22.7766 71.6513 27.0487 71.6513Z" fill="#144B63"/>
<path d="M27.0488 70.4235C30.0325 70.4235 32.4512 67.565 32.4512 64.0389C32.4512 60.5128 30.0325 57.6543 27.0488 57.6543C24.0652 57.6543 21.6465 60.5128 21.6465 64.0389C21.6465 67.565 24.0652 70.4235 27.0488 70.4235Z" fill="#3D576B"/>
<path d="M24.9615 67.2313C26.0665 66.9857 27.6627 66.3718 29.9955 66.4946C31.7144 66.4946 33.065 66.8629 34.0473 67.2313C32.8195 69.8097 30.1183 71.6514 27.0488 71.6514C23.7337 71.6514 20.9097 69.5641 19.8047 66.6174C22.0147 67.5996 23.7337 67.5996 24.9615 67.2313Z" fill="#61AFBC"/>
<path opacity="0.18" d="M24.5931 56.7947C23.9792 57.8997 23.6108 59.2503 23.6108 60.6009C23.6108 65.021 27.1715 68.5816 31.5916 68.5816C32.3283 68.5816 32.9422 68.4588 33.5561 68.3361C32.2055 70.4233 29.7499 71.7739 27.1715 71.7739C22.8741 71.7739 19.4363 68.3361 19.4363 64.1615C19.4363 60.7237 21.5236 57.8997 24.5931 56.7947Z" fill="#0C123A"/>
<path opacity="0.27" d="M32.172 60.3351C31.2167 58.7732 29.7388 57.9373 28.8711 58.468C28.0033 58.9988 28.0744 60.6952 29.0297 62.2571C29.9851 63.819 31.463 64.6549 32.3307 64.1242C33.1984 63.5935 33.1274 61.897 32.172 60.3351Z" fill="white"/>
<path d="M33.8018 56.6719C33.9246 56.4264 34.1701 56.4264 34.4157 56.5492C34.784 56.9175 35.1524 57.2858 35.5207 57.6542C35.8891 58.1453 36.2574 58.6364 36.3802 59.2503C36.503 59.4959 36.3802 59.7415 36.1346 59.7415C35.8891 59.8642 35.7663 59.7415 35.6435 59.4959C35.398 59.0048 35.1524 58.5137 34.7841 58.0225C34.5385 57.6542 34.1701 57.2858 33.8018 57.0403C33.679 57.1631 33.679 56.9175 33.8018 56.6719Z" fill="#CCD9E2"/>
<path d="M33.4333 72.0194C34.2927 71.2827 34.9067 70.546 35.5206 69.5638C35.8889 68.9499 36.8711 67.2309 36.9939 64.7753C36.9939 63.9159 36.9939 63.0564 36.8711 62.1969C36.8711 61.9514 36.9939 61.8286 37.1167 61.7058C37.3623 61.7058 37.6078 61.8286 37.6078 62.0741C37.7306 63.0564 37.8534 63.9159 37.8534 64.8981C37.7306 67.4765 36.7484 69.3182 36.2572 70.0549C35.6433 71.0371 34.9066 71.8966 34.0472 72.6333C33.9244 72.7561 33.5561 72.7561 33.4333 72.6333C33.1877 72.3877 33.3105 72.1422 33.4333 72.0194Z" fill="#CCD9E2"/>
<path d="M84.7556 69.8099C84.7556 69.8099 90.0351 63.9165 87.8251 63.4253C85.615 62.9342 84.2644 64.2848 84.2644 64.2848C84.2644 64.2848 82.6683 60.6014 80.8266 61.8292C79.1077 63.057 76.4065 68.9505 76.8976 69.9327C77.2659 71.0377 84.7556 69.8099 84.7556 69.8099Z" fill="#3D576B"/>
<path d="M74.9334 69.3189L83.4053 67.7227C83.4053 67.7227 83.4053 64.776 82.5458 64.5304C81.6863 64.2849 75.3017 62.3204 74.3195 63.671C73.46 65.0216 74.9334 69.3189 74.9334 69.3189Z" fill="#FFDD00"/>
<path d="M80.5809 67.2314C80.5809 67.2314 86.5972 67.5998 86.72 69.3187C86.9655 71.0376 86.3516 73.0021 86.3516 73.0021L79.967 71.8971L80.5809 67.2314Z" fill="#3D576B"/>
<path d="M86.8431 70.3011C86.8431 70.3011 84.0191 68.4594 81.1951 71.4061C78.3712 74.3529 77.5117 74.7212 77.5117 74.7212H85.8608L86.8431 70.3011Z" fill="#FFEC00"/>
<path d="M77.7572 64.8987C77.7572 64.8987 72.9687 71.2833 74.6876 74.1072C74.6876 74.1072 78.4939 75.9489 80.8267 74.4756C83.1595 73.0022 81.4406 65.5126 81.4406 65.5126L77.7572 64.8987Z" fill="white"/>
<path d="M78.3712 68.4595H77.7573V69.3189H78.3712V68.4595Z" fill="#6CC8C1"/>
<path d="M78.3712 70.0557H77.7573V70.9151H78.3712V70.0557Z" fill="#6CC8C1"/>
<path d="M78.3712 73.3708H77.7573V74.2303H78.3712V73.3708Z" fill="#6CC8C1"/>
<path d="M78.3712 71.7747H77.7573V72.6341H78.3712V71.7747Z" fill="#6CC8C1"/>
<path d="M78.3712 66.7405H77.7573V67.5999H78.3712V66.7405Z" fill="#6CC8C1"/>
<path d="M79.599 70.0557H78.9851V70.9151H79.599V70.0557Z" fill="#6CC8C1"/>
<path d="M79.599 71.7747H78.9851V72.6341H79.599V71.7747Z" fill="#6CC8C1"/>
<path d="M79.599 73.3708H78.9851V74.2303H79.599V73.3708Z" fill="#6CC8C1"/>
<path d="M79.599 66.7405H78.9851V67.5999H79.599V66.7405Z" fill="#6CC8C1"/>
<path d="M79.599 68.4595H78.9851V69.3189H79.599V68.4595Z" fill="#6CC8C1"/>
<path d="M80.8268 73.3708H80.2129V74.2303H80.8268V73.3708Z" fill="#6CC8C1"/>
<path d="M80.8268 68.4595H80.2129V69.3189H80.8268V68.4595Z" fill="#6CC8C1"/>
<path d="M80.8268 70.0557H80.2129V70.9151H80.8268V70.0557Z" fill="#6CC8C1"/>
<path d="M80.8268 71.7747H80.2129V72.6341H80.8268V71.7747Z" fill="#6CC8C1"/>
<path d="M80.8268 66.7405H80.2129V67.5999H80.8268V66.7405Z" fill="#6CC8C1"/>
<path d="M82.0546 66.7405H81.4407V67.5999H82.0546V66.7405Z" fill="#6CC8C1"/>
<path d="M82.0546 73.3708H81.4407V74.2303H82.0546V73.3708Z" fill="#6CC8C1"/>
<path d="M82.0546 68.4595H81.4407V69.3189H82.0546V68.4595Z" fill="#6CC8C1"/>
<path d="M82.0546 71.7747H81.4407V72.6341H82.0546V71.7747Z" fill="#6CC8C1"/>
<path d="M82.0546 70.0557H81.4407V70.9151H82.0546V70.0557Z" fill="#6CC8C1"/>
<path d="M83.4049 66.7405H82.791V67.5999H83.4049V66.7405Z" fill="#6CC8C1"/>
<path d="M83.4049 70.0557H82.791V70.9151H83.4049V70.0557Z" fill="#6CC8C1"/>
<path d="M83.4049 73.3708H82.791V74.2303H83.4049V73.3708Z" fill="#6CC8C1"/>
<path d="M83.4049 68.4595H82.791V69.3189H83.4049V68.4595Z" fill="#6CC8C1"/>
<path d="M83.4049 71.7747H82.791V72.6341H83.4049V71.7747Z" fill="#6CC8C1"/>
<path d="M84.6327 73.3708H84.0188V74.2303H84.6327V73.3708Z" fill="#6CC8C1"/>
<path d="M84.6327 66.7405H84.0188V67.5999H84.6327V66.7405Z" fill="#6CC8C1"/>
<path d="M84.6327 68.4595H84.0188V69.3189H84.6327V68.4595Z" fill="#6CC8C1"/>
<path d="M84.6327 71.7747H84.0188V72.6341H84.6327V71.7747Z" fill="#6CC8C1"/>
<path d="M84.6327 70.0557H84.0188V70.9151H84.6327V70.0557Z" fill="#6CC8C1"/>
<path d="M85.8605 73.3708H85.2466V74.2303H85.8605V73.3708Z" fill="#6CC8C1"/>
<path d="M85.8605 68.4595H85.2466V69.3189H85.8605V68.4595Z" fill="#6CC8C1"/>
<path d="M85.8605 71.7747H85.2466V72.6341H85.8605V71.7747Z" fill="#6CC8C1"/>
<path d="M85.8605 70.0557H85.2466V70.9151H85.8605V70.0557Z" fill="#6CC8C1"/>
<path d="M85.8605 66.7405H85.2466V67.5999H85.8605V66.7405Z" fill="#6CC8C1"/>
<path d="M86.4746 70.9151H86.8429V70.0557H86.4746V70.9151Z" fill="#6CC8C1"/>
<path d="M86.4746 68.4595V69.3189H86.9657V68.9506V68.4595H86.4746Z" fill="#6CC8C1"/>
<path d="M86.4746 72.6341H86.5974L86.7202 71.7747H86.4746V72.6341Z" fill="#6CC8C1"/>
<path d="M87.0885 66.7405H86.4746V67.5999H87.0885V66.7405Z" fill="#6CC8C1"/>
<path d="M77.1432 68.4595H76.5293V69.3189H77.1432V68.4595Z" fill="#6CC8C1"/>
<path d="M77.1432 70.0557H76.5293V70.9151H77.1432V70.0557Z" fill="#6CC8C1"/>
<path d="M77.1432 66.7405H76.5293V67.5999H77.1432V66.7405Z" fill="#6CC8C1"/>
<path d="M77.1432 73.3708H76.5293V74.2303H77.1432V73.3708Z" fill="#6CC8C1"/>
<path d="M77.1432 71.7747H76.5293V72.6341H77.1432V71.7747Z" fill="#6CC8C1"/>
<path d="M75.9154 70.0557H75.3015V70.9151H75.9154V70.0557Z" fill="#6CC8C1"/>
<path d="M75.9154 71.7747H75.3015V72.6341H75.9154V71.7747Z" fill="#6CC8C1"/>
<path d="M75.9154 68.4595H75.3015V69.3189H75.9154V68.4595Z" fill="#6CC8C1"/>
<path d="M75.9154 73.3708H75.3015V74.2303H75.9154V73.3708Z" fill="#6CC8C1"/>
<path d="M75.9154 66.7405H75.3015V67.5999H75.9154V66.7405Z" fill="#6CC8C1"/>
<path d="M74.6877 71.7747H74.4421V72.6341H74.6877V71.7747Z" fill="#6CC8C1"/>
<path d="M74.5649 73.3708L74.6877 73.7392V73.3708H74.5649Z" fill="#6CC8C1"/>
<path d="M74.6879 68.4595H74.074V68.9506V69.3189H74.6879V68.4595Z" fill="#6CC8C1"/>
<path d="M74.6879 66.7405H74.074V67.5999H74.6879V66.7405Z" fill="#6CC8C1"/>
<path d="M74.6877 70.0557H74.1965L74.3193 70.9151H74.6877V70.0557Z" fill="#6CC8C1"/>
<path d="M85.2467 74.2302H84.6328H84.0189H83.405H82.7911H82.1772H81.5632H80.9493H80.3354H79.7215H79.1076H78.4937H77.8798H77.2659H76.652H76.0381H75.4242H74.8103C74.9331 74.4758 75.0559 74.7213 75.3014 74.7213H85.8606C86.1061 74.7213 86.3517 74.4758 86.3517 74.2302H85.7378H85.2467Z" fill="#6CC8C1"/>
<path d="M85.738 72.634H85.2469H84.5102H84.019H83.2824H82.7912H82.0546H81.4407H80.8267H80.2128H79.5989H78.985H78.3711H77.7572H77.1433H76.5294H75.9155H75.3016H74.6877H74.4421L74.5649 73.3707H74.6877H75.3016H75.9155H76.5294H77.1433H77.7572H78.3711H78.985H79.5989H80.2128H80.8267H81.4407H82.0546H82.7912H83.2824H84.019H84.5102H85.2469H85.738H86.4747L86.5974 72.634H86.4747H85.738Z" fill="#6CC8C1"/>
<path d="M85.738 70.9153H85.2468H84.5101H84.019H83.2823H82.7912H82.0545H81.4406H80.8267H80.2128H79.5989H78.985H78.3711H77.7572H77.1433H76.5294H75.9155H75.3016H74.6877H74.3193L74.4421 71.7747H74.6877H75.3016H75.9155H76.5294H77.1433H77.7572H78.3711H78.985H79.5989H80.2128H80.8267H81.4406H82.0545H82.7912H83.2823H84.019H84.5101H85.2468H85.738H86.4746H86.7202L86.843 70.9153H86.4746H85.738Z" fill="#6CC8C1"/>
<path d="M85.7382 69.3191H85.247H84.5103H84.0192H83.2825H82.7914H82.0547H81.4408H80.8269H80.213H79.5991H78.9852H78.3713H77.7574H77.1435H76.5296H75.9157H75.3018H74.6879H74.074L74.1968 70.0558H74.6879H75.3018H75.9157H76.5296H77.1435H77.7574H78.3713H78.9852H79.5991H80.213H80.8269H81.4408H82.0547H82.7914H83.2825H84.0192H84.5103H85.247H85.7382H86.4748H86.8432L86.966 69.3191H86.4748H85.7382Z" fill="#6CC8C1"/>
<path d="M86.4746 67.7229H85.7379H85.2468H84.5101H84.019H83.2823H82.7912H82.0545H81.4406H80.8267H80.2128H79.5989H78.9849H78.371H77.7571H77.1432H76.5293H75.9154H75.3015H74.6876H74.0737H73.9509V68.4596H74.0737H74.6876H75.3015H75.9154H76.5293H77.1432H77.7571H78.371H78.9849H79.5989H80.2128H80.8267H81.4406H82.0545H82.7912H83.2823H84.019H84.5101H85.2468H85.7379H86.4746H86.9657H87.0885L87.2113 67.7229H86.9657H86.4746Z" fill="#6CC8C1"/>
<path d="M73.7053 66.2495L73.8281 66.7406H74.0737H74.6876H75.3015H75.9154H76.5293H77.1432H77.7571H78.371H78.9849H79.5988H80.2127H80.8266H81.4405H82.0544H82.7911H83.2822H84.0189H84.51H85.2467H85.7378H86.4745H86.9657H87.334V66.2495H73.7053Z" fill="#6CC8C1"/>
<path d="M87.7023 65.7583C87.5795 65.6355 87.4567 65.5127 87.3339 65.5127H73.7052C73.5825 65.5127 73.4597 65.6355 73.3369 65.7583C73.2141 65.881 73.2141 66.0038 73.2141 66.1266V66.2494L73.3369 66.7405L74.1964 74.1074C74.1964 74.2301 74.1964 74.3529 74.1964 74.3529C74.3191 74.844 74.6875 75.2124 75.1786 75.2124H85.7378C86.2289 75.2124 86.5972 74.844 86.72 74.3529C86.72 74.2301 86.72 74.1074 86.8428 73.9846L87.7023 66.6177L87.825 66.1266V66.0038C87.825 66.0038 87.825 65.881 87.7023 65.7583ZM86.8428 66.8633L85.9833 73.9846C85.9833 74.1074 85.9833 74.1074 85.8605 74.1074H75.3014C75.3014 74.1074 75.1786 74.1074 75.1786 73.9846L74.3191 66.8633H86.8428Z" fill="#6CC8C1"/>
<path d="M88.5618 65.5126C88.5618 66.0037 88.3162 66.2493 87.9479 66.2493H72.9686C72.6003 66.2493 72.3547 66.0037 72.3547 65.6354V65.5126V65.3898C72.4775 65.1442 72.6003 64.8987 72.9686 64.8987H87.9479C88.1935 64.8987 88.439 65.0215 88.5618 65.3898C88.5618 65.3898 88.5618 65.3898 88.5618 65.5126Z" fill="#6CC8C1"/>
<path opacity="0.2" d="M87.8253 66.2495L87.7025 66.8634H73.2143L73.0916 66.3723V66.2495H87.8253Z" fill="#29235C"/>
<path opacity="0.2" d="M86.843 74.4756C86.7202 74.9667 86.3519 75.3351 85.8607 75.3351H75.3016C74.8105 75.3351 74.4421 74.9667 74.3193 74.4756H86.843Z" fill="#29235C"/>
<path d="M77.1433 64.8986C77.1433 64.8986 81.809 62.8114 82.6684 64.8986C82.914 65.6353 83.1596 66.1264 83.1596 66.4948C83.2823 69.1959 77.2661 65.0214 77.1433 64.8986Z" fill="white"/>
<path opacity="0.2" d="M77.1433 64.8987C77.1433 64.8987 82.1773 68.091 83.1596 66.4948C83.2823 69.196 77.2661 65.0215 77.1433 64.8987Z" fill="#29235C"/>
<path d="M147.3 87.9H10.3999C9.69986 87.9 9.09985 87.5 9.09985 87.1C9.09985 86.7 9.69986 86.3 10.3999 86.3H147.2C147.9 86.3 148.5 86.7 148.5 87.1C148.6 87.5 148 87.9 147.3 87.9Z" fill="#5C8097"/>
<path d="M125.641 11.1205C126.252 11.1205 126.746 10.6257 126.746 10.0154C126.746 9.40514 126.252 8.9104 125.641 8.9104C125.031 8.9104 124.536 9.40514 124.536 10.0154C124.536 10.6257 125.031 11.1205 125.641 11.1205Z" fill="url(#paint1_linear)"/>
<path opacity="0.19" d="M87.5794 31.8703C83.2821 32.2387 79.4759 31.8703 75.1786 31.502C74.5647 26.3452 74.4419 21.434 74.8102 16.1544C76.5292 14.681 78.4936 13.3304 80.5809 12.5938C81.072 12.5938 81.3176 12.7165 81.8087 12.5938C83.896 13.576 85.8605 14.5582 87.5794 16.0316C88.0705 21.0656 88.3161 26.8363 87.5794 31.8703Z" fill="#6CC8C1"/>
<path d="M81.4407 16.0313C82.3002 15.663 83.0369 14.9263 83.6508 14.0668C82.9141 14.0668 82.1774 14.0668 81.5635 14.0668C80.704 14.0668 79.7218 14.0668 78.9851 13.6985C79.3534 14.9263 80.3357 15.7858 81.4407 16.0313Z" fill="#F19679"/>
<path d="M81.4404 12.8394C81.4404 12.4711 81.686 11.98 82.0543 11.7344C82.4226 11.4888 82.791 11.2433 83.0365 10.8749C83.2821 10.3838 83.2821 9.8927 83.0365 9.52436C82.791 9.15601 82.2999 8.78767 81.8087 8.78767C81.4404 8.66489 80.9493 8.78767 80.5809 8.91045C80.2126 9.15601 79.967 9.52436 79.8442 9.8927C79.8442 10.261 79.967 10.8749 80.4581 10.9977C80.5809 10.9977 80.5809 10.9977 80.5809 10.9977C80.7037 10.8749 80.4581 10.6294 80.4581 10.3838C80.4581 10.1383 80.4581 9.8927 80.5809 9.76992C80.8265 9.40158 81.3176 9.40158 81.686 9.64714C82.0543 9.8927 82.1771 10.3838 82.0543 10.7522C81.9315 11.1205 81.5632 11.4889 81.3176 11.8572C81.072 12.2255 80.8265 12.5939 80.8265 12.9622C81.072 12.9622 81.1948 12.8394 81.4404 12.8394Z" fill="#363347"/>
<path d="M78.4937 14.1899L81.1948 12.5938L83.896 14.0671L83.6504 14.3127L81.1948 13.2077L78.7392 14.4355L78.4937 14.1899Z" fill="#363347"/>
<path d="M87.4569 27.2049C86.843 27.3277 86.229 27.2049 85.6151 27.2049C85.4924 27.2049 85.4924 27.2049 85.3696 27.2049C85.3696 28.0644 85.3696 29.0466 85.3696 29.9061C82.914 30.2744 80.2128 30.2744 77.7572 29.9061C77.7572 29.1694 77.7572 28.1871 77.6344 27.5732C77.5116 27.5732 77.5116 27.5732 77.3888 27.5732C76.6521 27.5732 75.7927 27.4504 75.056 27.3277C74.8104 23.767 74.8104 20.0836 75.056 16.4002C76.161 15.2951 77.3888 14.4357 78.7394 13.8218C79.3533 14.5585 80.09 15.1724 80.8267 15.7863C81.8089 15.4179 82.7912 14.804 83.4051 13.9446C84.7557 14.4357 85.8607 15.1724 86.843 16.1546C87.4569 19.7153 87.5796 23.5215 87.4569 27.2049Z" fill="url(#paint2_linear)"/>
<path d="M78.494 14.4355C78.6167 15.5406 79.1079 16.6456 79.7218 17.5051C80.0901 17.0139 80.5812 16.5228 81.0724 16.0317C81.6863 16.4 82.0546 16.8912 82.5457 17.3823C83.0369 16.4 83.528 15.5406 83.8963 14.4355C83.6508 15.5406 83.2824 16.6456 82.6685 17.6279C82.3002 17.1367 81.6863 16.6456 81.1951 16.1545C80.704 16.7684 80.2129 17.2595 79.7218 17.8734C78.8623 17.0139 78.494 15.6634 78.494 14.4355ZM77.6345 18.8557C77.5117 21.6796 77.5117 24.5036 77.5117 27.3275C77.5117 27.3275 77.5117 27.4503 77.5117 27.5731C77.6345 27.5731 77.6345 27.5731 77.7573 27.5731C78.0028 24.5036 77.8801 21.9252 77.6345 18.8557ZM85.6152 27.2048C85.4925 24.3808 85.4925 21.5568 85.4925 18.7329C85.3697 21.5568 85.3697 24.3808 85.3697 27.2048C85.4925 27.2048 85.6152 27.2048 85.6152 27.2048ZM81.3179 18.3645C81.1951 22.1707 81.1951 26.0997 81.4407 29.9059C81.5635 26.0997 81.5635 22.1707 81.3179 18.3645Z" fill="#F19679"/>
<path d="M81.195 17.1367C81.3178 17.1367 81.4406 17.2595 81.4406 17.3823C81.4406 17.5051 81.3178 17.6278 81.195 17.7506C81.0722 17.7506 80.8267 17.6278 80.8267 17.5051C80.8267 17.3823 81.0722 17.1367 81.195 17.1367Z" fill="#FCA746"/>
<path d="M87.2112 28.9236C87.2112 24.8719 87.2112 20.6973 87.0884 16.6456C86.8428 17.0139 86.4745 17.3822 86.1062 17.7506C86.2289 17.2595 86.3517 16.8911 86.4745 16.5228C85.9834 16.7683 85.615 16.7683 85.2467 16.8911C85.7378 16.6456 86.1062 16.2772 86.5973 16.0317C85.1239 14.9266 83.405 14.0672 81.5633 13.4533C81.5633 13.8216 81.5633 14.0672 81.4405 14.3127C81.3177 13.9444 81.0721 13.6988 80.9494 13.3305C80.7038 13.576 80.4582 13.9444 80.0899 14.1899C80.2127 13.9444 80.2127 13.6988 80.2127 13.3305C78.6165 14.1899 77.1432 15.295 75.7926 16.5228C76.0381 16.6456 76.2837 16.7683 76.5293 16.8911C76.1609 16.8911 75.9153 16.8911 75.547 16.8911C75.6698 17.1367 75.9153 17.505 76.1609 17.7506C75.7926 17.6278 75.547 17.3822 75.1787 17.0139C74.9331 18.8556 74.8103 20.5745 74.6875 22.539C74.5648 20.4518 74.5648 18.4873 74.6875 16.4C76.4065 15.0494 78.1254 13.576 80.2127 12.9621C80.7038 12.8394 81.0721 12.9621 81.5633 12.8394C83.5278 13.6988 85.3695 14.8038 87.0884 16.0317C87.8251 20.329 87.7023 24.6263 87.2112 28.9236Z" fill="#CDBFA1"/>
<path d="M86.3518 22.4161C82.7912 23.03 78.985 21.6794 76.7749 18.9783C77.7571 20.6972 79.1077 22.0478 80.8267 22.6617C82.6684 23.2756 84.5101 23.1528 86.3518 22.4161Z" fill="#CDBFA1"/>
<path d="M85.7379 24.5034C83.2823 25.3629 80.4583 25.2401 78.1255 24.3806C79.2305 25.3629 80.3355 25.9768 81.8089 25.9768C83.1595 25.854 84.6329 25.4856 85.7379 24.5034Z" fill="#CDBFA1"/>
<path d="M77.8799 29.9059C79.9672 24.5036 80.8266 19.8379 82.5455 14.3127C84.0189 14.6811 85.3695 15.6633 86.7201 16.5228C85.2467 21.6796 84.0189 25.363 81.5633 30.1515" fill="url(#paint3_linear)"/>
<path opacity="0.19" d="M101.208 40.588C97.7704 40.9564 94.2097 40.9564 90.7719 40.588C89.1757 32.3617 88.6846 24.1354 89.1757 15.7863C90.8946 14.4357 92.9819 13.3307 95.0692 12.7168C95.4375 12.594 95.5603 12.594 95.9286 12.594C97.8931 13.0851 100.226 14.804 102.19 16.2774C102.804 24.2582 102.436 32.73 101.208 40.588Z" fill="#6CC8C1"/>
<path d="M95.6834 18.9786C96.7885 17.3824 97.5251 15.6635 98.139 13.8218C96.5429 13.9446 94.9467 13.8218 93.3506 13.8218C93.7189 14.804 93.9645 16.0318 94.4556 17.0141C94.7012 17.628 95.0695 18.3647 95.6834 18.9786Z" fill="#C1A435"/>
<path d="M95.8061 12.8394C95.8061 12.4711 96.0517 11.98 96.42 11.7344C96.7884 11.4888 97.1567 11.2433 97.4023 10.8749C97.6478 10.3838 97.6478 9.8927 97.4023 9.52436C97.1567 9.15601 96.6656 8.78767 96.1745 8.78767C95.8061 8.66489 95.315 8.78767 94.9467 8.91045C94.5783 9.15601 94.3327 9.52436 94.21 9.8927C94.21 10.261 94.3327 10.8749 94.8239 10.9977C94.9466 10.9977 94.9467 10.9977 94.9467 10.9977C95.0694 10.8749 94.8239 10.6294 94.8239 10.3838C94.8239 10.1383 94.8239 9.8927 94.9467 9.76992C95.1922 9.40158 95.6833 9.40158 96.0517 9.64714C96.42 9.8927 96.5428 10.3838 96.42 10.7522C96.2972 11.1205 95.9289 11.4889 95.6833 11.8572C95.4378 12.2255 95.1922 12.5939 95.1922 12.9622C95.4378 12.9622 95.5606 12.8394 95.8061 12.8394Z" fill="#363347"/>
<path d="M92.9822 14.1899L95.5606 12.5938L98.2618 14.0671L98.0162 14.3127L95.5606 13.2077L93.105 14.4355L92.9822 14.1899Z" fill="#363347"/>
<path d="M102.313 25.1176C102.068 25.1176 101.945 25.1176 101.699 25.1176C101.945 22.1709 101.945 19.1014 101.699 16.2774C100.472 15.2951 99.3666 14.5585 98.016 13.8218C97.2793 15.6635 96.4199 17.1369 95.5604 18.6102C94.7009 17.2596 93.8415 15.6635 93.2276 13.8218C91.9997 14.4357 90.7719 15.1724 89.6669 16.1546C89.5441 19.2241 89.4213 22.4164 89.6669 25.486C89.5441 25.486 89.4213 25.486 89.1758 25.6087C89.2986 26.0999 89.2986 26.4682 89.4213 26.9593C89.5441 26.9593 89.6669 26.9593 89.6669 26.9593C89.6669 27.2049 89.6669 27.5732 89.7897 27.8188C90.2808 27.9416 90.7719 28.0644 91.2631 28.0644C91.3858 28.0644 91.3858 28.0644 91.5086 28.0644C91.7542 31.5022 91.9997 34.9401 92.2453 38.3779C94.7009 38.7463 96.911 38.9918 99.3666 38.6235C99.7349 35.0629 100.103 31.5022 100.349 27.8188H100.472C100.84 27.696 101.208 27.696 101.577 27.5732C101.577 27.2049 101.699 26.8365 101.699 26.4682C101.822 26.4682 101.945 26.591 102.191 26.591C102.191 26.0999 102.313 25.6087 102.313 25.1176Z" fill="#E8CF4F"/>
<path d="M92.8591 18.4874C93.3502 18.3647 93.8413 18.2419 94.3325 18.1191C93.9641 18.4874 93.7186 18.733 93.3502 19.1013C93.9641 20.9431 94.578 22.662 95.1919 24.5037C94.7008 22.662 94.0869 20.8203 93.473 19.1013C93.8413 18.733 94.2097 18.3647 94.4552 17.9963C93.8413 17.9963 93.2274 18.1191 92.7363 18.2419C92.2452 17.2596 91.7541 16.1546 91.2629 15.1724C91.8768 16.4002 92.2452 17.3824 92.8591 18.4874Z" fill="#C1A435"/>
<path d="M98.6302 18.4874C98.139 18.3647 97.6479 18.2419 97.1568 18.1191C97.4023 18.4874 97.7707 18.733 98.139 19.1013C97.4024 20.9431 96.7884 22.662 96.0518 24.5037C96.5429 22.662 97.2796 20.8203 98.0163 19.1013C97.6479 18.733 97.4024 18.3647 97.034 17.9963C97.6479 17.9963 98.2618 18.1191 98.7529 18.2419C99.2441 17.2596 99.858 16.1546 100.349 15.1724C99.7352 16.4002 99.2441 17.3824 98.6302 18.4874Z" fill="#C1A435"/>
<path d="M96.0514 38.2554C95.6831 31.8708 95.5603 25.609 95.5603 19.2244C95.8059 25.609 95.9286 31.9936 96.0514 38.2554Z" fill="#C1A435"/>
<path d="M91.5085 28.0645C91.3858 28.0645 91.3858 28.0645 91.263 28.0645C91.1402 24.6267 91.1402 21.066 91.263 17.5054C91.3858 21.066 91.3858 24.5039 91.5085 28.0645Z" fill="#C1A435"/>
<path d="M100.471 27.8187H100.349C100.471 24.872 100.471 21.9253 100.226 18.9785C100.471 21.9253 100.594 24.872 100.471 27.8187Z" fill="#C1A435"/>
<path d="M91.7544 27.9418C92.3683 27.3279 92.8594 26.714 93.2278 25.9773C93.5961 26.2229 93.8417 26.4684 93.9645 26.8368C93.7189 26.5912 93.5961 26.4684 93.3505 26.2229C92.8594 26.8368 92.2455 27.5734 91.7544 28.1873C91.8772 28.1873 91.7544 28.0646 91.7544 27.9418Z" fill="#C1A435"/>
<path d="M99.9806 27.9418C99.4894 27.3279 98.9983 26.714 98.5072 25.9773C98.1388 26.2229 97.8933 26.4684 97.7705 26.8368C98.0161 26.5912 98.1389 26.4684 98.3844 26.2229C98.7528 26.8368 99.3667 27.5734 99.8578 28.1873C99.8578 28.1873 99.9806 28.0646 99.9806 27.9418Z" fill="#C1A435"/>
<path d="M90.7718 26.9594C90.5262 26.9594 90.1579 26.8366 89.9123 26.8366C90.1579 26.8366 90.4035 26.8366 90.649 26.8366C90.649 26.3455 90.649 25.8544 90.5262 25.3633C90.2807 25.3633 90.0351 25.486 89.7896 25.486C90.0351 25.3633 90.4035 25.2405 90.649 25.2405C90.8946 25.7316 90.8946 26.3455 90.7718 26.9594Z" fill="#C1A435"/>
<path d="M101.7 25.1177C101.454 25.1177 101.086 25.1177 101.086 25.1177C101.086 25.486 101.086 25.7316 101.086 26.0999C101.208 26.2227 101.331 26.2227 101.577 26.3455C101.331 26.3455 101.208 26.2227 100.963 26.2227C100.963 25.8543 100.963 25.3632 101.086 24.9949C101.208 24.9949 101.454 24.9949 101.7 25.1177Z" fill="#C1A435"/>
<path d="M101.577 32.8529C102.068 27.3278 102.191 21.6798 101.945 16.2775C100.226 14.8041 98.2617 13.5763 96.1745 12.9624C95.8061 12.9624 95.5606 12.9624 95.1922 13.0852C93.1049 13.6991 91.1405 14.6813 89.4215 16.1547C89.0532 20.3293 89.0532 24.6266 89.4215 28.8011C89.2987 24.8721 89.4215 20.8204 89.7899 16.7686C90.281 17.137 90.6493 17.5053 91.1404 17.9964C90.8949 17.3825 90.5265 17.0142 90.1582 16.523C90.5265 16.6458 90.8949 16.7686 91.2632 16.7686C91.0177 16.523 90.6493 16.2775 90.281 16.0319C91.6316 15.0497 92.9822 14.1902 94.5783 13.5763C94.4555 14.4358 94.4555 15.1725 94.4555 16.0319C94.8239 15.2952 94.9467 14.4358 95.1922 13.5763C95.315 13.9446 95.5606 14.1902 95.8061 14.4358C95.8061 14.0674 95.9289 13.6991 95.9289 13.3307C96.7884 13.6991 97.5251 14.313 98.139 15.0497C97.8934 14.4358 97.525 13.9447 97.0339 13.4535C98.5073 14.1902 99.8579 15.0497 101.208 16.0319C100.595 16.2775 99.9807 16.6458 99.4895 17.0142C100.103 16.8914 100.595 16.8914 101.208 16.7686C100.963 17.137 100.717 17.5053 100.595 17.8736C100.963 17.5053 101.208 17.2597 101.577 16.8914C101.945 22.0482 102.068 27.5733 101.577 32.8529Z" fill="#CDBFA1"/>
<path d="M100.103 21.6799C99.4893 22.1711 98.9981 22.9077 98.3842 23.3989C97.7703 23.89 97.0336 24.3811 96.1742 24.7495C94.7008 25.4861 92.9819 25.9773 91.2629 25.8545C92.7363 25.4861 94.2097 25.1178 95.5603 24.3811C97.2792 23.7672 98.7526 22.785 100.103 21.6799Z" fill="#CDBFA1"/>
<path d="M99.3665 27.082C97.2792 29.2921 94.3325 30.5199 91.2629 30.6427C91.8768 30.6427 92.6135 30.2743 93.2274 30.0288C93.9641 29.7832 94.7008 29.5376 95.4375 29.1693C96.7881 28.6782 98.1387 27.9415 99.3665 27.082Z" fill="#CDBFA1"/>
<path d="M98.7526 35.6768C96.5425 35.1856 94.4552 34.2034 92.6135 32.9756C93.3502 33.9578 94.2097 34.6945 95.3147 35.0629C96.5425 35.554 97.5248 35.4312 98.7526 35.6768Z" fill="#CDBFA1"/>
<path d="M93.3504 38.2555C97.1566 30.3975 98.9983 24.504 101.331 16.0322C100.472 15.2955 99.4894 14.8044 98.5072 14.3132C96.4199 22.7851 94.9465 29.6608 92.1226 38.0099C92.6137 38.0099 92.982 38.2555 93.3504 38.2555Z" fill="url(#paint4_linear)"/>
<path opacity="0.19" d="M121.59 40.588C118.152 40.9564 114.591 40.9564 111.153 40.588C109.434 32.3617 108.821 24.1354 109.066 15.7863C110.785 14.4357 112.872 13.3307 114.96 12.7168C115.328 12.594 115.451 12.594 115.819 12.594C117.906 13.0851 120.239 14.804 122.081 16.2774C122.818 24.2582 122.695 32.73 121.59 40.588Z" fill="#6CC8C1"/>
<path d="M112.504 14.1902C113.241 15.1724 114.346 15.6636 115.574 15.6636C116.679 15.6636 117.906 15.1724 118.766 14.4357L119.257 14.8041L118.152 17.7508L112.872 17.3825L112.259 14.4357L112.504 14.1902Z" fill="#DC514A"/>
<path d="M115.573 12.8394C115.573 12.4711 115.819 11.98 116.187 11.7344C116.556 11.4888 116.924 11.2433 117.17 10.8749C117.415 10.3838 117.292 9.8927 117.047 9.52436C116.801 9.15601 116.31 8.78767 115.819 8.78767C115.451 8.66489 114.96 8.78767 114.591 8.91045C114.223 9.15601 113.977 9.52436 113.854 9.8927C113.854 10.261 114.1 10.8749 114.468 10.9977C114.591 10.9977 114.591 10.9977 114.591 10.9977C114.714 10.8749 114.468 10.6294 114.468 10.3838C114.468 10.1383 114.468 9.8927 114.591 9.76992C114.837 9.40158 115.328 9.40158 115.696 9.64714C116.065 9.8927 116.187 10.3838 116.065 10.7522C115.942 11.1205 115.696 11.4889 115.328 11.8572C115.082 12.2255 114.837 12.5939 114.837 12.9622C115.328 12.9622 115.451 12.8394 115.573 12.8394Z" fill="#363347"/>
<path d="M109.557 15.9088L115.328 12.5938L121.835 16.2772L121.59 16.5227L115.451 13.2077L109.68 16.1544L109.557 15.9088Z" fill="#363347"/>
<path d="M120.73 15.7864H110.048V15.9092H120.73V15.7864Z" fill="#363347"/>
<path d="M121.099 38.2554C117.906 39.4832 113.855 38.7465 110.908 37.2732C110.908 31.9936 111.767 28.3102 113.486 21.4345C112.504 20.4522 112.381 19.3472 112.381 17.9966C112.381 17.2599 112.381 16.646 112.259 15.9093C112.136 15.2954 112.013 14.6815 112.013 14.1904C112.259 14.0676 112.381 14.0676 112.627 13.9448C112.627 14.8043 112.75 15.6638 112.995 16.5232C114.591 17.1371 116.31 17.1371 117.906 16.8916C118.275 16.0321 118.643 15.0498 118.889 14.1904C119.011 14.3132 119.134 14.3132 119.38 14.4359C119.38 14.4359 118.889 16.0321 118.889 16.1549C118.766 16.7688 118.766 17.3827 118.889 18.1194C119.134 19.3472 118.889 20.3294 118.152 21.68C120.117 28.6785 121.344 32.7303 121.099 38.2554Z" fill="#FF7857"/>
<path d="M120.73 38.2549C117.661 39.1144 114.1 38.6233 111.276 37.0271C111.276 35.1854 111.522 33.4665 112.013 31.6248C111.89 33.3437 111.767 35.0626 111.644 36.7816C112.136 37.2727 112.872 37.5182 113.609 37.3955C113.732 36.0449 113.855 34.8171 114.223 33.4665C114.1 34.8171 114.1 36.1676 114.223 37.5182C115.451 38.3777 117.17 38.746 118.643 38.3777C118.889 36.1677 118.889 33.8348 118.397 31.6248C118.766 33.8348 119.011 36.0449 119.011 38.2549C119.257 38.2549 119.994 38.1321 120.239 38.0094C120.239 36.0449 120.239 33.9576 119.994 31.9931C120.607 34.0804 120.853 36.1676 120.73 38.2549Z" fill="#DC514A"/>
<path d="M113.855 21.6801C113.363 23.1535 113.118 24.6268 113.118 26.223C113.241 24.7496 113.732 23.399 114.223 22.0484C114.1 22.9079 114.1 23.8901 114.1 24.7496C114.223 23.7674 114.591 22.9079 114.837 22.0484C115.696 22.0484 116.679 22.0484 117.538 22.1712C118.397 23.6446 119.134 25.2407 119.503 26.8369C119.134 24.9952 118.643 23.2762 117.784 21.5573C118.029 21.189 118.397 20.8206 118.52 20.4523C116.679 20.9434 114.714 20.6978 113.118 19.8384C113.118 20.4523 113.363 21.189 113.855 21.6801Z" fill="#DC514A"/>
<path d="M121.835 32.8529C122.203 27.3278 122.326 21.6798 121.958 16.2775C120.116 14.8041 118.152 13.5763 116.064 12.9624C115.696 12.9624 115.45 12.9624 115.082 13.0852C112.995 13.6991 111.03 14.6813 109.311 16.1547C109.066 20.3293 109.066 24.6266 109.557 28.8011C109.434 24.8721 109.434 20.8204 109.68 16.7686C110.171 17.137 110.539 17.5053 111.03 17.9964C110.785 17.3825 110.416 17.0142 110.048 16.523C110.416 16.6458 110.785 16.7686 111.153 16.7686C110.908 16.523 110.539 16.2775 110.171 16.0319C111.521 15.0497 112.872 14.1902 114.345 13.5763C114.223 14.4358 114.223 15.1725 114.223 16.0319C114.591 15.2952 114.714 14.4358 114.837 13.5763C114.959 13.9446 115.205 14.1902 115.45 14.4358C115.45 14.0674 115.573 13.6991 115.573 13.3307C116.433 13.6991 117.169 14.313 117.783 15.0497C117.538 14.4358 117.169 13.9447 116.678 13.4535C118.152 14.1902 119.502 15.0497 120.853 16.0319C120.239 16.2775 119.625 16.6458 119.134 17.0142C119.748 16.8914 120.239 16.8914 120.853 16.7686C120.607 17.137 120.362 17.5053 120.239 17.8736C120.607 17.5053 120.853 17.2597 121.221 16.8914C121.958 22.0482 122.203 27.5733 121.835 32.8529Z" fill="#CDBFA1"/>
<path d="M120.116 21.6799C119.502 22.1711 119.011 22.9077 118.397 23.3989C117.783 23.89 117.047 24.3811 116.187 24.7495C114.714 25.4861 112.995 25.9773 111.276 25.8545C112.749 25.4861 114.223 25.1178 115.573 24.3811C117.292 23.7672 118.766 22.785 120.116 21.6799Z" fill="#CDBFA1"/>
<path d="M119.502 27.082C117.415 29.2921 114.468 30.5199 111.522 30.6427C112.136 30.6427 112.872 30.2743 113.486 30.0288C114.223 29.7832 114.96 29.5376 115.696 29.1693C116.924 28.6782 118.275 27.9415 119.502 27.082Z" fill="#CDBFA1"/>
<path d="M119.011 35.6768C116.801 35.1856 114.714 34.2034 112.872 32.9756C113.609 33.9578 114.468 34.6945 115.696 35.0629C116.801 35.554 117.784 35.4312 119.011 35.6768Z" fill="#CDBFA1"/>
<path opacity="0.12" d="M113.609 38.2552C117.293 30.3973 119.011 24.381 121.222 15.9091C120.362 15.1724 119.38 14.6813 118.275 14.1902C116.31 22.6621 114.837 29.5378 112.259 37.8869C112.75 37.8869 113.241 38.378 113.609 38.2552Z" fill="url(#paint5_linear)"/>
<path d="M125.519 10.5067H46.2026V9.52441H125.519C126.256 9.52441 126.256 10.5067 125.519 10.5067Z" fill="#6CC8C1"/>
<path d="M125.887 10.0153C125.887 9.76975 125.765 9.64697 125.642 9.64697H46.2026V10.0153H125.887Z" fill="url(#paint6_linear)"/>
<path d="M81.686 9.52441C82.0544 9.76998 82.1772 10.1383 82.0544 10.5067H83.0366C83.0366 10.1383 83.0366 9.76998 82.9138 9.52441H81.686Z" fill="#363347"/>
<path d="M96.1743 9.52441C96.5427 9.76998 96.6654 10.1383 96.5427 10.5067H97.5249C97.5249 10.1383 97.5249 9.76998 97.4021 9.52441H96.1743Z" fill="#363347"/>
<path d="M115.942 9.52441C116.31 9.76998 116.433 10.1383 116.31 10.5067H117.292C117.292 10.1383 117.292 9.76998 117.169 9.52441H115.942Z" fill="#363347"/>
<path d="M51.3596 12.1026C51.3596 11.7343 51.6051 11.2432 51.9735 10.9976C52.3418 10.752 52.7102 10.5065 52.9557 10.1381C53.2013 9.64701 53.2013 9.15589 52.9557 8.78754C52.7102 8.4192 52.219 8.05086 51.7279 8.05086C51.3596 7.92808 50.8685 8.05086 50.5001 8.17364C50.1318 8.4192 49.8862 8.78754 49.7634 9.15589C49.7634 9.52423 49.8862 10.1381 50.3773 10.2609C50.5001 10.2609 50.5001 10.2609 50.5001 10.2609C50.6229 10.1381 50.3773 9.89257 50.3773 9.64701C50.3773 9.40145 50.3773 9.15589 50.5001 9.03311C50.7457 8.66476 51.2368 8.66476 51.6051 8.91032C51.9735 9.15589 52.0963 9.64701 51.9735 10.0154C51.8507 10.3837 51.4824 10.752 51.2368 11.1204C50.9912 11.4887 50.7457 11.8571 50.7457 12.2254C50.9912 12.1026 51.114 12.1026 51.3596 12.1026Z" fill="#363347"/>
<path d="M48.5354 13.4531L51.1138 11.8569L53.815 13.3303L53.5694 13.5759L51.2366 12.4708L48.6582 13.5759L48.5354 13.4531Z" fill="#363347"/>
<path d="M48.0442 13.3307L48.6581 12.9623C49.5176 12.7168 51.2365 12.594 52.5871 12.594C52.5871 12.594 53.4465 12.9623 54.0605 13.3307C54.0605 13.3307 52.2187 22.662 50.377 22.662C49.5176 22.5392 48.6581 20.2064 48.0442 13.3307Z" fill="#1E5BC6"/>
<path d="M53.9377 13.8218C53.4465 15.7863 51.9732 22.5393 50.377 22.5393C49.5176 22.5393 48.6581 20.3292 48.0442 13.9446C49.0264 13.3307 53.201 13.4535 53.9377 13.8218Z" fill="#252C3F"/>
<path d="M45.9569 21.6799C46.0797 20.9432 46.2025 17.9965 46.4481 15.9092C46.5709 14.5586 46.9392 13.6992 46.9392 13.6992H47.062C47.4303 13.6992 47.7987 13.5764 48.0442 13.5764C48.167 13.5764 48.2898 13.4536 48.4126 13.4536C48.4126 15.4181 48.4126 22.0483 48.2898 22.785C48.167 23.6444 46.5709 31.2568 46.5709 31.2568L44.1152 31.0113C44.3608 30.8885 45.7114 22.9077 45.9569 21.6799Z" fill="#1E5BC6"/>
<path opacity="0.32" d="M47.4306 16.5231C47.5533 15.5409 47.7989 14.5586 47.4306 13.6992C47.6761 13.6992 47.9217 13.5764 48.0445 13.5764C48.1672 13.5764 48.29 13.4536 48.4128 13.4536C48.4128 15.4181 48.4128 22.0483 48.29 22.785C48.1672 23.6444 46.5711 31.2568 46.5711 31.2568L45.4661 31.0113C45.7116 30.5201 47.0622 18.3648 47.4306 16.5231Z" fill="#878883"/>
<path d="M52.587 12.594C52.587 12.594 54.306 12.9623 55.2882 13.4535C55.2882 13.4535 54.4288 19.5925 54.4288 21.6798C54.4288 23.6443 55.9021 30.6428 55.9021 30.6428C55.9021 30.6428 55.7793 31.1339 53.4465 31.2567C51.6048 31.3795 50.0086 30.2744 50.0086 28.8011C50.0086 24.8721 50.0086 18.8558 50.0086 18.3647C49.8859 17.7508 52.4643 15.0496 52.587 12.594Z" fill="#1E5BC6"/>
<path opacity="0.32" d="M52.587 12.594C52.587 12.594 54.306 12.9623 55.2882 13.4535C55.2882 13.4535 54.4288 19.5925 54.4288 21.6798C54.4288 23.6443 55.9021 30.6428 55.9021 30.6428C55.9021 30.6428 55.7793 31.1339 53.4465 31.2567C51.6048 31.3795 50.0086 30.2744 50.0086 28.8011C50.0086 24.8721 50.0086 18.8558 50.0086 18.3647C49.8859 17.7508 52.4643 15.0496 52.587 12.594Z" fill="#878883"/>
<path opacity="0.55" d="M49.8862 29.4152C49.8862 29.2925 49.8862 29.1697 49.7634 29.1697C49.7634 26.1002 49.7634 20.575 49.7634 18.365L50.009 18.2422V29.7836C50.009 29.538 50.009 29.4152 49.8862 29.4152Z" fill="#6D6E68"/>
<path d="M47.3072 21.4343C47.43 21.0659 47.0617 13.6991 47.0617 13.6991C47.0617 13.6991 47.6756 13.208 48.6578 12.9624C48.6578 12.9624 48.6578 13.0852 48.6578 13.4535L49.8856 17.0142V29.1695C49.8856 30.5201 48.1667 31.5023 46.5705 30.8884H46.4478C46.4478 30.7656 47.3072 21.8026 47.3072 21.4343Z" fill="#1E5BC6"/>
<path opacity="0.32" d="M47.3072 21.4343C47.43 21.0659 47.0617 13.6991 47.0617 13.6991C47.0617 13.6991 47.6756 13.208 48.6578 12.9624C48.6578 12.9624 48.6578 13.0852 48.6578 13.4535L49.8856 17.0142V29.1695C49.8856 30.5201 48.1667 31.5023 46.5705 30.8884H46.4478C46.4478 30.7656 47.3072 21.8026 47.3072 21.4343Z" fill="#878883"/>
<path d="M53.8148 25.363C53.8148 25.363 54.0604 25.9769 53.3237 25.9769C52.587 25.9769 51.4819 26.0997 51.2364 25.9769C50.9908 25.8542 50.9908 25.363 51.1136 25.363H53.8148Z" fill="#1E5BC6"/>
<path d="M46.9392 25.363L48.5353 25.4858C48.6581 25.4858 48.5353 25.8542 48.2898 25.9769C48.167 26.0997 47.4303 26.0997 46.8164 25.9769C46.8164 25.8542 46.9392 25.6086 46.9392 25.363Z" fill="#1E5BC6"/>
<path opacity="0.32" d="M53.3237 23.1532C52.9553 21.3115 52.587 19.347 53.0781 17.5053C53.4464 16.1547 54.3059 15.1724 55.1654 14.1902C54.9198 15.9091 54.3059 20.0837 54.4287 21.6798C54.4287 23.6443 55.902 30.6428 55.902 30.6428C55.902 30.6428 55.7793 31.1339 53.3237 31.2567C53.2009 31.2567 52.7097 31.2567 52.8325 31.2567C54.0603 28.8011 53.692 25.7316 53.3237 23.1532Z" fill="#878883"/>
<path opacity="0.32" d="M47.3072 21.4342C47.3072 21.3114 47.3072 21.3114 47.3072 21.3114C47.3072 21.3114 47.3072 21.3114 47.3072 21.1886C47.3072 21.1886 47.3072 21.1886 47.3072 21.0659C47.3072 21.0659 47.3072 21.0659 47.3072 20.9431V20.8203C47.3072 20.8203 47.3072 20.8203 47.3072 20.6975V20.5747V20.452C47.3072 20.452 47.3072 20.452 47.3072 20.3292C47.3072 20.2064 47.3072 19.9608 47.3072 19.7153C47.3072 19.5925 47.3072 19.5925 47.3072 19.4697C47.3072 19.3469 47.3072 19.3469 47.3072 19.2241C47.3072 18.8558 47.3072 18.4875 47.3072 17.9963C47.5528 19.3469 48.1667 20.6975 48.0439 22.1709C47.9211 24.2582 47.9211 26.0999 47.9211 27.9416C47.9211 28.9238 47.9211 29.9061 48.1667 30.7655C47.6756 30.8883 47.0617 30.8883 46.5705 30.7655H46.4478C46.4478 30.7655 47.3072 21.8025 47.3072 21.4342Z" fill="#878883"/>
<path d="M48.6583 12.9624C48.9038 13.9446 49.7633 16.8914 50.2544 17.9964C50.1316 18.1192 50.0089 18.3648 50.0089 18.4875C49.2722 17.2597 48.4127 15.5408 47.7988 14.313L48.1671 13.9447L47.676 13.8219C47.5532 13.5763 48.6583 12.9624 48.6583 12.9624Z" fill="#1E5BC6"/>
<path d="M49.8859 17.9964C49.8859 17.9964 52.0959 13.9446 52.5871 12.594C52.8326 12.594 53.8149 13.5762 53.6921 13.8218L52.8326 14.0674L53.4465 14.3129C52.4643 15.7863 50.8681 17.5052 49.8859 18.6103C49.8859 18.6103 49.7631 18.2419 49.8859 17.9964Z" fill="#1E5BC6"/>
<path d="M49.3947 23.1532C49.5303 23.1532 49.6403 23.0433 49.6403 22.9077C49.6403 22.7721 49.5303 22.6621 49.3947 22.6621C49.2591 22.6621 49.1492 22.7721 49.1492 22.9077C49.1492 23.0433 49.2591 23.1532 49.3947 23.1532Z" fill="#292C3B"/>
<path d="M49.3947 24.7494C49.5303 24.7494 49.6403 24.6395 49.6403 24.5039C49.6403 24.3682 49.5303 24.2583 49.3947 24.2583C49.2591 24.2583 49.1492 24.3682 49.1492 24.5039C49.1492 24.6395 49.2591 24.7494 49.3947 24.7494Z" fill="#292C3B"/>
<path d="M49.3947 21.4345C49.5303 21.4345 49.6403 21.3245 49.6403 21.1889C49.6403 21.0533 49.5303 20.9434 49.3947 20.9434C49.2591 20.9434 49.1492 21.0533 49.1492 21.1889C49.1492 21.3245 49.2591 21.4345 49.3947 21.4345Z" fill="#292C3B"/>
<path d="M49.3947 19.9611C49.5303 19.9611 49.6403 19.8511 49.6403 19.7155C49.6403 19.5799 49.5303 19.47 49.3947 19.47C49.2591 19.47 49.1492 19.5799 49.1492 19.7155C49.1492 19.8511 49.2591 19.9611 49.3947 19.9611Z" fill="#292C3B"/>
<path d="M49.3947 26.3456C49.5303 26.3456 49.6403 26.2357 49.6403 26.1001C49.6403 25.9644 49.5303 25.8545 49.3947 25.8545C49.2591 25.8545 49.1492 25.9644 49.1492 26.1001C49.1492 26.2357 49.2591 26.3456 49.3947 26.3456Z" fill="#292C3B"/>
<path d="M49.3947 27.9418C49.5303 27.9418 49.6403 27.8319 49.6403 27.6962C49.6403 27.5606 49.5303 27.4507 49.3947 27.4507C49.2591 27.4507 49.1492 27.5606 49.1492 27.6962C49.1492 27.8319 49.2591 27.9418 49.3947 27.9418Z" fill="#292C3B"/>
<path d="M54.0606 20.8204C54.0606 20.8204 53.4467 16.4003 53.5695 15.1725C53.6922 13.9447 54.6745 13.3308 55.1656 13.3308C55.6567 13.4536 57.2529 17.3826 57.744 22.5394C58.2351 27.6962 58.3579 31.6251 58.3579 31.6251C58.3579 31.6251 57.0073 31.8707 55.5339 31.8707C55.5339 31.8707 54.7973 24.8722 54.6745 24.1355C54.5517 23.5216 54.0606 20.8204 54.0606 20.8204Z" fill="#1E5BC6"/>
<path opacity="0.32" d="M54.306 21.3115C54.4288 23.0304 54.5516 24.381 54.5516 24.2583C54.5516 23.5216 54.0605 20.8204 54.0605 20.8204C54.0605 20.8204 53.6921 17.5053 53.5693 15.7864C53.6921 16.2775 54.1832 20.0837 54.306 21.3115Z" fill="#878883"/>
<path opacity="0.19" d="M58.4805 32.6069C54.1832 32.9752 47.9214 31.993 43.624 31.6246C43.0101 26.4678 45.343 19.7149 45.5885 14.5581C47.3075 13.0847 48.2897 12.7164 50.377 11.8569C50.8681 11.8569 51.1137 11.9797 51.6048 11.8569C53.6921 12.8392 55.6565 13.0847 57.3755 14.6809C57.9894 19.5921 59.2172 27.5729 58.4805 32.6069Z" fill="#6CC8C1"/>
<path d="M57.13 28.064C57.13 24.0122 57.13 19.8377 57.0072 15.7859C56.7617 16.1543 56.3933 16.5226 56.025 16.8909C56.1478 16.3998 56.2706 16.0315 56.3933 15.6631C55.9022 15.9087 55.5339 15.9087 55.1655 16.0315C55.6567 15.7859 56.025 15.4176 56.5161 15.172C55.0428 14.067 53.3238 13.2075 51.4821 12.5936C51.4821 12.962 51.4821 13.2075 51.3593 13.4531C51.2366 13.0847 50.991 12.8392 50.8682 12.4708C50.6226 12.7164 50.3771 13.0847 50.0087 13.3303C50.1315 13.0847 50.1315 12.8392 50.1315 12.4708C48.5354 13.3303 47.062 14.4353 45.7114 15.6631C45.957 15.7859 46.2025 15.9087 46.4481 16.0315C46.0798 16.0315 45.8342 16.0315 45.4659 16.0315C45.5886 16.277 45.8342 16.6454 46.0798 16.8909C45.7114 16.7682 46.0798 18.1188 45.8342 17.8732C45.5886 19.7149 45.3431 20.3288 45.3431 22.1705C45.2203 20.0832 45.5886 16.6454 45.7114 14.5581C47.4303 13.2075 48.167 12.7164 50.2543 11.9797C50.7454 11.8569 51.1138 11.9797 51.6049 11.8569C53.5694 12.7164 55.4111 13.2075 57.13 14.5581C57.7439 18.9782 57.6212 23.8895 57.13 28.064Z" fill="#CDBFA1"/>
<path d="M62.7776 13.6989C62.7776 13.6989 62.7776 13.4533 63.6371 13.3305C64.6193 13.085 66.3382 13.085 67.8116 13.085C68.4255 13.085 68.4255 13.4533 69.1622 13.6989C69.1622 13.6989 67.1977 22.7846 65.2332 22.7846C64.3737 22.7846 63.5143 20.4518 62.7776 13.6989Z" fill="url(#paint7_linear)"/>
<path d="M69.1622 14.1898C68.6711 16.1543 67.0749 22.7844 65.356 22.6616C64.3738 22.6616 63.5143 20.5744 62.9004 14.3125C64.0054 13.6986 68.3028 13.9442 69.1622 14.1898Z" fill="url(#paint8_linear)"/>
<path d="M60.6903 21.8028C60.8131 21.0661 60.8131 18.3649 61.0587 16.4004C61.3042 14.8043 61.7954 14.0676 61.7954 14.0676H61.9182C62.2865 14.0676 62.6548 13.9448 63.0232 13.9448C63.146 13.9448 63.2687 13.822 63.3915 13.822C63.3915 15.6637 63.3915 22.1711 63.2687 22.9078C63.146 23.6445 61.5498 31.1341 61.5498 31.1341L58.8486 30.8886C58.8486 30.8886 60.4448 23.0306 60.6903 21.8028Z" fill="url(#paint9_linear)"/>
<path opacity="0.32" d="M62.2865 16.7687C62.532 15.7865 62.6548 14.927 62.2865 13.9448C62.532 13.9448 62.7776 13.822 63.0232 13.822C63.1459 13.822 63.2687 13.6992 63.3915 13.6992C63.3915 15.5409 63.3915 22.0483 63.2687 22.785C63.1459 23.5217 61.5498 31.0113 61.5498 31.0113L60.0764 30.7658C60.322 30.5202 61.7953 18.7332 62.2865 16.7687Z" fill="#878883"/>
<path d="M67.8115 13.085C67.8115 13.085 69.5304 13.4533 70.5126 13.9444C70.5126 13.9444 69.5304 19.9607 69.5304 21.9252C69.5304 23.8897 71.1266 30.6426 71.1266 30.6426C71.1266 30.6426 70.881 31.3793 64.7419 31.2565C64.7419 31.2565 64.7419 17.9962 64.7419 17.2595C64.8647 16.6456 67.6887 15.4178 67.8115 13.085Z" fill="url(#paint10_linear)"/>
<path opacity="0.55" d="M64.9875 18.3645V31.2565H64.8647C64.8647 31.2565 64.8647 21.6796 64.8647 18.6101L64.9875 18.3645Z" fill="#6D6E68"/>
<path d="M62.0409 21.6795C62.1636 21.3111 61.7953 14.0671 61.7953 14.0671C61.7953 14.0671 62.1636 13.6987 62.9003 13.5759C63.0231 13.6987 63.2687 13.6987 63.5142 13.6987L64.8648 17.1366V31.2564C64.8648 31.2564 61.9181 31.0108 61.1814 30.6425C61.1814 30.6425 62.0409 21.925 62.0409 21.6795Z" fill="url(#paint11_linear)"/>
<path d="M69.0396 25.4856C69.0396 25.4856 69.2852 27.3273 68.5485 27.3273C67.8118 27.3273 66.584 27.4501 66.3384 27.3273C66.0929 27.2045 66.0929 25.4856 66.2157 25.4856H69.0396Z" fill="url(#paint12_linear)"/>
<path d="M61.6726 25.4856H63.3915C63.5143 25.4856 63.5143 27.0817 63.2687 27.3273C63.146 27.4501 62.2865 27.4501 61.5498 27.3273C61.5498 26.8362 61.5498 26.0995 61.6726 25.4856Z" fill="url(#paint13_linear)"/>
<path d="M69.0396 25.4856C69.0396 25.4856 69.2852 26.0995 68.5485 26.0995C67.8118 26.0995 66.584 26.2223 66.3384 26.0995C66.0929 25.9767 66.0929 25.4856 66.2157 25.6084L69.0396 25.4856Z" fill="url(#paint14_linear)"/>
<path d="M61.6726 25.4856L63.3915 25.6084C63.5143 25.6084 63.3915 25.9767 63.146 26.0995C63.0232 26.2223 62.1637 26.2223 61.5498 26.0995C61.5498 25.8539 61.6726 25.7312 61.6726 25.4856Z" fill="url(#paint15_linear)"/>
<path opacity="0.32" d="M68.4254 23.2758C68.0571 21.5568 67.6887 19.5923 68.1798 17.7506C68.5482 16.5228 69.4077 15.5406 70.3899 14.4355C70.1443 16.0317 69.5304 20.2062 69.5304 21.8024C69.5304 23.7669 71.1266 30.5198 71.1266 30.5198C71.1266 30.5198 71.0038 31.011 67.6887 31.1337C69.1621 28.8009 68.9165 25.7314 68.4254 23.2758Z" fill="#878883"/>
<path opacity="0.32" d="M63.0233 31.0109C62.2867 30.8881 61.4272 30.7654 61.0588 30.6426C61.0588 30.6426 61.9183 21.9251 62.0411 21.5568C62.0411 21.434 62.0411 19.9607 61.9183 18.3645C62.1639 19.7151 62.7778 21.0657 62.7778 22.4163C62.655 24.258 62.655 26.0997 62.655 27.9414C62.7778 29.0464 62.655 30.0287 63.0233 31.0109Z" fill="#878883"/>
<path d="M64.7419 17.0139C64.7419 17.0139 67.3203 14.19 67.5659 12.9622C67.5659 12.9622 69.2848 13.2077 69.4076 13.3305C69.4076 13.4533 69.1621 13.9444 68.7937 14.6811C68.5482 15.1722 68.1798 15.4178 67.5659 15.6633C67.9342 15.7861 67.9342 16.1545 67.6887 16.4C66.952 17.1367 66.0925 17.9962 64.7419 19.5923C64.8647 19.5923 64.7419 17.2595 64.7419 17.0139Z" fill="url(#paint16_linear)"/>
<path opacity="0.55" d="M64.9875 19.4697C64.9875 19.5925 64.8647 19.5925 64.8647 19.7153C64.8647 19.7153 64.8647 18.1191 64.8647 17.3825C64.8647 17.2597 64.8647 17.2597 64.8647 17.1369C64.8647 17.1369 64.8647 17.0141 64.9875 16.8913L65.1103 16.7686L64.9875 19.4697Z" fill="#6D6E68"/>
<path d="M63.5145 15.7862L63.1462 15.6634C62.7778 15.5406 62.655 13.6989 62.655 13.6989C62.655 13.5761 63.7601 13.3306 63.7601 13.3306C63.8828 14.4356 64.7423 17.014 64.7423 17.014C64.7423 17.6279 64.7423 19.7152 64.7423 19.7152C64.374 19.224 63.8828 18.4874 63.1462 16.5229C63.0234 15.7862 63.5145 15.7862 63.5145 15.7862Z" fill="url(#paint17_linear)"/>
<path d="M64.3737 23.2758C64.5094 23.2758 64.6193 23.1659 64.6193 23.0302C64.6193 22.8946 64.5094 22.7847 64.3737 22.7847C64.2381 22.7847 64.1282 22.8946 64.1282 23.0302C64.1282 23.1659 64.2381 23.2758 64.3737 23.2758Z" fill="url(#paint18_linear)"/>
<path d="M64.3737 24.872C64.5094 24.872 64.6193 24.762 64.6193 24.6264C64.6193 24.4908 64.5094 24.3809 64.3737 24.3809C64.2381 24.3809 64.1282 24.4908 64.1282 24.6264C64.1282 24.762 64.2381 24.872 64.3737 24.872Z" fill="url(#paint19_linear)"/>
<path d="M64.3737 21.6796C64.5094 21.6796 64.6193 21.5697 64.6193 21.434C64.6193 21.2984 64.5094 21.1885 64.3737 21.1885C64.2381 21.1885 64.1282 21.2984 64.1282 21.434C64.1282 21.5697 64.2381 21.6796 64.3737 21.6796Z" fill="url(#paint20_linear)"/>
<path d="M64.3737 20.0832C64.5094 20.0832 64.6193 19.9732 64.6193 19.8376C64.6193 19.702 64.5094 19.592 64.3737 19.592C64.2381 19.592 64.1282 19.702 64.1282 19.8376C64.1282 19.9732 64.2381 20.0832 64.3737 20.0832Z" fill="url(#paint21_linear)"/>
<path d="M64.3737 26.3454C64.5094 26.3454 64.6193 26.2354 64.6193 26.0998C64.6193 25.9642 64.5094 25.8542 64.3737 25.8542C64.2381 25.8542 64.1282 25.9642 64.1282 26.0998C64.1282 26.2354 64.2381 26.3454 64.3737 26.3454Z" fill="url(#paint22_linear)"/>
<path d="M64.3737 27.9416C64.5094 27.9416 64.6193 27.8316 64.6193 27.696C64.6193 27.5604 64.5094 27.4504 64.3737 27.4504C64.2381 27.4504 64.1282 27.5604 64.1282 27.696C64.1282 27.8316 64.2381 27.9416 64.3737 27.9416Z" fill="url(#paint23_linear)"/>
<path d="M69.2847 21.0656C69.2847 21.0656 68.6708 16.7683 68.7936 15.5405C68.9164 14.3127 70.0214 13.6988 70.5125 13.8216C71.0036 13.9444 72.7226 17.7506 73.3365 22.7846C73.9504 27.8186 73.9504 31.6248 73.9504 31.6248C73.9504 31.6248 72.3542 31.7476 70.7581 31.7476C70.7581 31.7476 69.8986 24.8718 69.7758 24.2579C69.7758 23.644 69.2847 21.0656 69.2847 21.0656Z" fill="url(#paint24_linear)"/>
<path opacity="0.32" d="M69.5306 21.4339C69.7762 23.03 69.7762 24.3806 69.7762 24.2579C69.6534 23.6439 69.1623 21.0656 69.1623 21.0656C69.1623 21.0656 68.7939 17.8733 68.7939 16.2771C68.7939 16.6454 69.4078 20.3289 69.5306 21.4339Z" fill="#878883"/>
<path d="M66.5839 12.1026C66.5839 11.7343 66.8295 11.2432 67.1978 10.9976C67.5662 10.752 67.9345 10.5065 68.1801 10.1381C68.4257 9.64701 68.4257 9.15589 68.1801 8.78754C67.9345 8.4192 67.4434 8.05086 66.9523 8.05086C66.5839 7.92808 66.0928 8.05086 65.7245 8.17364C65.3561 8.4192 65.1106 8.78754 64.9878 9.15589C64.9878 9.52423 65.1106 10.1381 65.6017 10.2609C65.7245 10.2609 65.7245 10.2609 65.7245 10.2609C65.8473 10.1381 65.6017 9.89257 65.6017 9.64701C65.6017 9.40145 65.6017 9.15589 65.7245 9.03311C65.97 8.66476 66.4612 8.66476 66.8295 8.91032C67.1978 9.15589 67.3206 9.64701 67.1978 10.0154C67.0751 10.3837 66.7067 10.752 66.4612 11.1204C66.2156 11.4887 65.97 11.8571 65.97 12.2254C66.2156 12.2254 66.3384 12.1026 66.5839 12.1026Z" fill="#363347"/>
<path d="M63.637 13.4531L66.3381 11.8569L69.0393 13.3303L68.7938 13.5759L66.3381 12.4708L63.8825 13.6986L63.637 13.4531Z" fill="#363347"/>
<path opacity="0.19" d="M74.1962 31.993C69.8989 32.3613 63.0232 31.993 58.8486 31.6246C58.2347 26.4678 60.5676 19.7149 60.8131 14.5581C62.5321 13.0847 63.5143 12.7164 65.6016 11.8569C66.0927 11.8569 66.3383 11.9797 66.8294 11.8569C68.9167 12.8392 70.8812 13.0847 72.6001 14.6809C73.0912 19.7149 75.0557 26.959 74.1962 31.993Z" fill="#6CC8C1"/>
<path d="M72.3544 28.1868C72.3544 24.135 72.3544 19.9605 72.2316 15.9087C71.9861 16.2771 71.6177 16.6454 71.2494 17.0138C71.3721 16.5226 71.4949 16.1543 71.6177 15.7859C71.1266 16.0315 70.7582 16.0315 70.3899 16.1543C70.881 15.9087 71.2494 15.5404 71.7405 15.2948C70.2671 14.1898 68.5482 13.3303 66.7065 12.7164C66.7065 13.0848 66.7065 13.3303 66.5837 13.5759C66.4609 13.2075 66.2154 12.962 66.0926 12.5936C65.847 12.8392 65.6014 13.2075 65.2331 13.4531C65.3559 13.2075 65.3559 12.962 65.3559 12.5936C63.7597 13.4531 62.2864 14.5581 60.9358 15.7859C61.1813 15.9087 61.4269 16.0315 61.6725 16.1543C61.3041 16.1543 61.0586 16.1543 60.6902 16.1543C60.813 16.3998 61.0586 16.7682 61.3041 17.0138C60.9358 16.891 61.3041 18.2416 61.0586 17.996C60.813 19.8377 60.5674 20.4516 60.5674 22.2933C60.4447 20.2061 60.813 16.7682 60.9358 14.6809C62.6547 13.3303 63.3914 12.8392 65.4787 12.1025C65.9698 11.9797 66.3381 12.1025 66.8293 11.9797C68.7937 12.8392 70.6355 13.3303 72.3544 14.6809C72.9683 18.9782 72.8455 23.8895 72.3544 28.1868Z" fill="#CDBFA1"/>
<defs>
<linearGradient id="paint0_linear" x1="122.74" y1="51.6237" x2="117.969" y2="90.1305" gradientUnits="userSpaceOnUse">
<stop stop-color="#FDD8A4"/>
<stop offset="0.4741" stop-color="#77654D"/>
<stop offset="0.8827"/>
</linearGradient>
<linearGradient id="paint1_linear" x1="123.872" y1="11.0084" x2="127.209" y2="9.29028" gradientUnits="userSpaceOnUse">
<stop stop-color="#C8E8BF"/>
<stop offset="0.1958" stop-color="#A2D1B2"/>
<stop offset="0.4013" stop-color="#81BDA7"/>
<stop offset="0.5134" stop-color="#74B5A3"/>
<stop offset="0.606" stop-color="#7DBAA6"/>
<stop offset="0.754" stop-color="#94C8AE"/>
<stop offset="0.938" stop-color="#BADFBA"/>
<stop offset="1" stop-color="#C8E8BF"/>
</linearGradient>
<linearGradient id="paint2_linear" x1="80.2085" y1="36.0616" x2="81.4962" y2="15.7057" gradientUnits="userSpaceOnUse">
<stop stop-color="#F5BA85"/>
<stop offset="0.6233" stop-color="#FCDDB1"/>
<stop offset="1" stop-color="#FFEFC7"/>
</linearGradient>
<linearGradient id="paint3_linear" x1="85.454" y1="14.341" x2="77.688" y2="33.393" gradientUnits="userSpaceOnUse">
<stop stop-color="#9BA87E"/>
<stop offset="0.7104" stop-color="#1F2119"/>
<stop offset="0.8827"/>
</linearGradient>
<linearGradient id="paint4_linear" x1="100.664" y1="13.4171" x2="92.7734" y2="38.6545" gradientUnits="userSpaceOnUse">
<stop stop-color="#9BA87E"/>
<stop offset="0.7104" stop-color="#1F2119"/>
<stop offset="0.8827"/>
</linearGradient>
<linearGradient id="paint5_linear" x1="120.52" y1="13.4158" x2="112.714" y2="38.5332" gradientUnits="userSpaceOnUse">
<stop stop-color="#9BA87E"/>
<stop offset="0.7104" stop-color="#1F2119"/>
<stop offset="0.8827"/>
</linearGradient>
<linearGradient id="paint6_linear" x1="128.926" y1="4.3781" x2="51.1527" y2="14.3298" gradientUnits="userSpaceOnUse">
<stop stop-color="#87A37F"/>
<stop offset="0.2214" stop-color="#85A07D"/>
<stop offset="0.3789" stop-color="#7D9776"/>
<stop offset="0.5165" stop-color="#708769"/>
<stop offset="0.6427" stop-color="#5E7158"/>
<stop offset="0.7611" stop-color="#465542"/>
<stop offset="0.8738" stop-color="#293127"/>
<stop offset="0.9799" stop-color="#070907"/>
<stop offset="1"/>
</linearGradient>
<linearGradient id="paint7_linear" x1="69.2463" y1="17.9059" x2="62.8015" y2="17.9059" gradientUnits="userSpaceOnUse">
<stop stop-color="#2C2825"/>
<stop offset="1" stop-color="#3D3A37"/>
</linearGradient>
<linearGradient id="paint8_linear" x1="66.2969" y1="19.2693" x2="65.6314" y2="8.24926" gradientUnits="userSpaceOnUse">
<stop stop-color="#2C2825"/>
<stop offset="1" stop-color="#3D3A37"/>
</linearGradient>
<linearGradient id="paint9_linear" x1="61.1224" y1="13.9884" x2="61.1224" y2="31.5694" gradientUnits="userSpaceOnUse">
<stop stop-color="#2C2825"/>
<stop offset="1" stop-color="#3D3A37"/>
</linearGradient>
<linearGradient id="paint10_linear" x1="67.9433" y1="13.988" x2="67.9433" y2="31.569" gradientUnits="userSpaceOnUse">
<stop stop-color="#2C2825"/>
<stop offset="1" stop-color="#3D3A37"/>
</linearGradient>
<linearGradient id="paint11_linear" x1="62.9794" y1="13.9879" x2="62.9794" y2="31.5688" gradientUnits="userSpaceOnUse">
<stop stop-color="#2C2825"/>
<stop offset="1" stop-color="#3D3A37"/>
</linearGradient>
<linearGradient id="paint12_linear" x1="67.5769" y1="25.6371" x2="67.5769" y2="27.6647" gradientUnits="userSpaceOnUse">
<stop stop-color="#2C2825"/>
<stop offset="0.2251" stop-color="#2F2B28"/>
<stop offset="0.412" stop-color="#393633"/>
<stop offset="0.4652" stop-color="#3D3A37"/>
</linearGradient>
<linearGradient id="paint13_linear" x1="62.4548" y1="25.6604" x2="62.4548" y2="27.6615" gradientUnits="userSpaceOnUse">
<stop stop-color="#2C2825"/>
<stop offset="0.2251" stop-color="#2F2B28"/>
<stop offset="0.412" stop-color="#393633"/>
<stop offset="0.4652" stop-color="#3D3A37"/>
</linearGradient>
<linearGradient id="paint14_linear" x1="67.5769" y1="24.2008" x2="67.5769" y2="26.6901" gradientUnits="userSpaceOnUse">
<stop stop-color="#44413E"/>
<stop offset="1" stop-color="#3D3A37"/>
</linearGradient>
<linearGradient id="paint15_linear" x1="62.5021" y1="24.2009" x2="62.5021" y2="26.6901" gradientUnits="userSpaceOnUse">
<stop stop-color="#44413E"/>
<stop offset="1" stop-color="#3D3A37"/>
</linearGradient>
<linearGradient id="paint16_linear" x1="67.1132" y1="13.7397" x2="67.1132" y2="19.5971" gradientUnits="userSpaceOnUse">
<stop stop-color="#44413E"/>
<stop offset="1" stop-color="#3D3A37"/>
</linearGradient>
<linearGradient id="paint17_linear" x1="63.8154" y1="13.7398" x2="63.8154" y2="19.597" gradientUnits="userSpaceOnUse">
<stop stop-color="#44413E"/>
<stop offset="1" stop-color="#3D3A37"/>
</linearGradient>
<linearGradient id="paint18_linear" x1="64.3238" y1="22.7351" x2="64.3238" y2="23.2703" gradientUnits="userSpaceOnUse">
<stop stop-color="#44413E"/>
<stop offset="1" stop-color="#3D3A37"/>
</linearGradient>
<linearGradient id="paint19_linear" x1="64.3238" y1="24.298" x2="64.3238" y2="24.8333" gradientUnits="userSpaceOnUse">
<stop stop-color="#44413E"/>
<stop offset="1" stop-color="#3D3A37"/>
</linearGradient>
<linearGradient id="paint20_linear" x1="64.3238" y1="21.1703" x2="64.3238" y2="21.7055" gradientUnits="userSpaceOnUse">
<stop stop-color="#44413E"/>
<stop offset="1" stop-color="#3D3A37"/>
</linearGradient>
<linearGradient id="paint21_linear" x1="64.3238" y1="19.6053" x2="64.3238" y2="20.1405" gradientUnits="userSpaceOnUse">
<stop stop-color="#44413E"/>
<stop offset="1" stop-color="#3D3A37"/>
</linearGradient>
<linearGradient id="paint22_linear" x1="64.3238" y1="25.861" x2="64.3238" y2="26.3963" gradientUnits="userSpaceOnUse">
<stop stop-color="#44413E"/>
<stop offset="1" stop-color="#3D3A37"/>
</linearGradient>
<linearGradient id="paint23_linear" x1="64.3238" y1="27.424" x2="64.3238" y2="27.9592" gradientUnits="userSpaceOnUse">
<stop stop-color="#44413E"/>
<stop offset="1" stop-color="#3D3A37"/>
</linearGradient>
<linearGradient id="paint24_linear" x1="71.3641" y1="13.9879" x2="71.3641" y2="31.5689" gradientUnits="userSpaceOnUse">
<stop stop-color="#2C2825"/>
<stop offset="1" stop-color="#3D3A37"/>
</linearGradient>
</defs>
</svg>
