<svg xmlns="http://www.w3.org/2000/svg" viewBox="0 0 1920 220" width="1920" height="220">
	<style>
		tspan { white-space:pre }
		.shp0 { fill: #13b0a7 } 
		.shp1 { opacity: 0.078;fill: #ffffff } 
	</style>
	<g id="Reviews">
		<path id="Rectangle 53 copy 2" class="shp0" d="M0 0L1920 0L1920 220L0 220L0 0Z" />
		<path id="Ellipse 1 copy 16" class="shp1" d="M198.7 419.93C135.51 450.95 59.12 424.89 28.09 361.74C-2.94 298.59 23.13 222.26 86.33 191.24C149.52 160.24 225.9 186.29 256.93 249.44C287.96 312.59 261.89 388.92 198.7 419.93Z" />
		<path id="Ellipse 1 copy 17" class="shp1" d="M303.85 296.6C260.31 317.98 207.68 300.02 186.29 256.49C164.91 212.97 182.88 160.36 226.42 138.98C269.96 117.61 322.6 135.57 343.98 179.09C365.36 222.62 347.4 275.23 303.85 296.6Z" />
		<path id="Ellipse 1 copy 18" class="shp1" d="M506.19 61.66C537.05 46.78 550.12 9.72 535.37 -21.12C520.63 -51.95 483.65 -64.88 452.79 -50C421.93 -35.12 408.86 1.94 423.61 32.78C438.35 63.61 475.32 76.54 506.19 61.66Z" />
		<path id="Ellipse 1 copy 22" class="shp1" d="M575.7 31.61C598 20.85 607.45 -5.93 596.79 -28.22C586.13 -50.51 559.41 -59.85 537.1 -49.1C514.8 -38.34 505.35 -11.55 516.01 10.73C526.67 33.02 553.39 42.36 575.7 31.61Z" />
		<path id="Ellipse 1 copy 23" class="shp1" d="M239.94 60.15C231.01 64.53 220.23 60.85 215.84 51.93C211.46 43.01 215.14 32.22 224.07 27.84C232.99 23.46 243.78 27.14 248.16 36.06C252.54 44.99 248.86 55.77 239.94 60.15Z" />
		<path id="Ellipse 1 copy 19" class="shp1" d="M1628.25 180.29C1697.66 154.43 1774.92 189.71 1800.83 259.08C1826.74 328.46 1791.48 405.67 1722.08 431.53C1652.68 457.39 1575.41 422.12 1549.5 352.74C1523.59 283.36 1558.85 206.16 1628.25 180.29Z" />
		<path id="Ellipse 1 copy 20" class="shp1" d="M1845.13 295.78C1807.84 335.21 1745.62 336.94 1706.15 299.65C1666.69 262.37 1664.92 200.18 1702.21 160.75C1739.5 121.32 1801.72 119.59 1841.19 156.87C1880.66 194.16 1882.42 256.35 1845.13 295.78Z" />
		<path id="Ellipse 1 copy 21" class="shp1" d="M1451.11 65.43C1429.05 76.27 1402.4 67.17 1391.57 45.11C1380.75 23.05 1389.84 -3.61 1411.89 -14.45C1433.94 -25.28 1460.6 -16.18 1471.43 5.88C1482.25 27.94 1473.16 54.6 1451.11 65.43Z" />
	</g>
</svg>