<svg xmlns="http://www.w3.org/2000/svg" viewBox="0 0 1600 220" width="1600" height="220">
	<style>
		tspan { white-space:pre }
		.shp0 { fill: #f6f8fc } 
		.shp1 { opacity: 0.051;fill: #13b0a7 } 
		.shp2 { opacity: 0.078;fill: #738bcd } 
	</style>
	<g id="Banner">
		<path id="Rectangle 4 copy 7" class="shp0" d="M0 0L1600 0L1600 220L0 220L0 0Z" />
		<path id="Ellipse 19" class="shp1" d="M1456.03 125.7C1531.34 134.98 1584.88 203.46 1575.62 278.65C1566.36 353.84 1497.8 407.28 1422.49 398C1347.18 388.72 1293.63 320.24 1302.9 245.05C1312.16 169.86 1380.72 116.43 1456.03 125.7Z" />
		<path id="Ellipse 19 copy 2" class="shp2" d="M1643.25 44.34C1704.5 51.88 1748.05 107.58 1740.51 168.73C1732.98 229.89 1677.22 273.35 1615.96 265.8C1554.71 258.26 1511.16 202.56 1518.7 141.41C1526.23 80.25 1581.99 36.79 1643.25 44.34Z" />
		<path id="Ellipse 19 copy" class="shp1" d="M1268 22C1282.91 22 1295 33.86 1295 48.5C1295 63.13 1282.91 75 1268 75C1253.09 75 1241 63.13 1241 48.5C1241 33.86 1253.09 22 1268 22Z" />
		<path id="Ellipse 19 copy 4" class="shp1" d="M19.01 -29C72.02 -29 115 13.98 115 67C115 120.02 72.02 163 19.01 163C-34.01 163 -76.99 120.02 -76.99 67C-76.99 13.98 -34.01 -29 19.01 -29Z" />
		<path id="Ellipse 19 copy 5" class="shp2" d="M139.51 151C159.11 151 175.01 166.89 175.01 186.49C175.01 206.1 159.11 221.99 139.51 221.99C119.9 221.99 104 206.1 104 186.49C104 166.89 119.9 151 139.51 151Z" />
	</g>
</svg>