<svg width="281" height="265" viewBox="0 0 281 265" fill="none" xmlns="http://www.w3.org/2000/svg">
<path d="M82.3529 112.574C41.8252 138.67 54.8765 177.222 54.8765 177.222C54.8765 177.222 9.19697 184.042 1.98441 218.442C-5.22814 253.138 9.54043 264.703 9.54043 264.703L264.041 265C264.041 265 303.538 169.511 261.98 124.436C220.765 79.9537 123.224 86.4778 82.3529 112.574Z" fill="#FAFFFF"/>
<path d="M172.481 253.168C173.652 254.381 173.418 256.808 173.652 256.808C174.121 257.213 175.058 254.786 175.058 254.786L173.652 250.538C173.652 250.538 170.841 248.111 167.561 245.077C166.623 245.886 165.686 246.695 164.983 247.706C168.263 249.931 171.075 251.954 172.481 253.168Z" fill="#F8A492"/>
<path d="M173.886 250.74C173.886 250.74 174.121 250.336 175.058 250.74C175.995 251.145 178.338 254.381 178.338 254.381L177.635 254.988C177.635 254.988 175.761 252.561 175.526 252.763C175.292 252.965 177.166 255.595 176.932 255.999C176.698 256.404 174.589 258.426 173.886 258.426C173.183 258.426 173.652 256.606 173.652 256.606C173.652 256.606 175.058 255.797 175.058 255.392C174.823 255.19 173.886 250.74 173.886 250.74Z" fill="#09434C"/>
<path d="M157.485 257.415C157.251 259.033 155.143 260.449 155.143 260.854C155.143 261.46 157.72 260.449 157.72 260.449L160.297 256.606C160.297 256.606 160.297 253.167 160.531 249.122C159.125 249.122 157.954 249.122 156.548 249.324C157.251 252.358 157.72 255.595 157.485 257.415Z" fill="#F8A492"/>
<path d="M160.531 256.404C160.531 256.404 161 256.202 161.234 257.011C161.703 257.82 160.531 261.663 160.531 261.663H159.594C159.594 261.663 160.297 258.831 160.063 258.831C159.828 258.831 158.891 261.663 158.423 261.865C157.954 262.067 154.674 262.067 154.206 261.663C153.737 261.258 155.611 260.247 155.611 260.247C155.611 260.247 157.251 260.449 157.486 260.247C157.72 260.247 160.531 256.404 160.531 256.404Z" fill="#09434C"/>
<path d="M157.486 208.871L151.863 206.444L152.097 208.467C152.097 208.467 146.943 228.289 148.115 231.323C150.926 238.402 167.795 250.134 167.795 250.134L171.075 247.504C171.075 247.504 158.189 232.132 158.189 229.3C158.189 226.468 162.406 209.883 162.406 209.883L157.486 208.871Z" fill="#EFC700"/>
<path opacity="0.51" d="M158.188 229.502C158.188 226.671 162.406 210.085 162.406 210.085L157.486 209.073L151.863 206.646L152.097 208.669C152.097 208.669 151.394 211.703 150.457 215.546C153.268 217.164 153.503 230.109 155.143 240.223L160.297 233.75C158.891 231.727 158.188 230.311 158.188 229.502Z" fill="#531C2E"/>
<path d="M151.863 206.444C151.863 206.444 152.097 209.882 152.097 210.287C152.097 210.691 157.017 247.908 155.377 253.976H161.234C161.234 253.976 167.56 219.996 167.56 214.332C167.56 208.669 164.514 205.028 164.514 205.028L151.863 206.444Z" fill="#FFDD00"/>
<path d="M164.514 205.028L151.629 206.444C151.629 206.444 151.863 209.882 151.863 210.287C151.863 210.287 151.863 210.894 152.097 211.703C154.674 210.894 157.72 209.882 159.36 209.073C162.64 207.657 163.577 206.039 165.217 206.039C164.983 205.432 164.514 205.028 164.514 205.028Z" fill="#F7604B"/>
<path d="M160.532 177.115C160.532 177.115 161.938 181.363 161.235 183.79C160.532 186.622 158.189 189.858 158.189 189.858L165.921 183.588L163.812 175.699L160.532 177.115Z" fill="#F8A492"/>
<path d="M166.623 182.374C166.623 182.374 160.298 182.577 155.846 186.42C151.395 190.263 151.395 190.06 151.395 191.476C151.395 192.892 150.926 199.365 150.926 203.005C150.926 206.646 150.458 208.871 150.926 208.871C154.909 209.478 161.235 204.826 165.218 205.433C165.218 205.433 168.732 200.781 168.029 198.96C167.326 197.14 168.498 195.926 168.732 192.69C169.201 189.454 170.138 182.374 166.623 182.374Z" fill="#ACF0FD"/>
<path d="M164.983 192.083C167.092 189.453 168.966 185.004 165.452 184.397C165.452 184.397 163.343 189.858 159.829 192.285C157.955 193.499 154.206 194.712 151.16 195.521C151.16 197.342 150.926 199.567 150.926 201.589C154.44 199.769 163.109 194.308 164.983 192.083Z" fill="#69BFDB"/>
<path d="M165.452 184.194C165.452 184.194 161.938 183.385 158.658 185.61C155.378 187.633 149.52 193.296 148.818 193.296C147.412 193.499 143.195 193.499 143.195 193.499C143.195 193.499 142.023 194.106 141.789 197.746C141.789 199.567 147.88 200.376 149.755 200.376C151.863 200.174 162.875 194.106 164.983 191.678C167.326 189.049 168.966 185.004 165.452 184.194Z" fill="#CCF7FF"/>
<path d="M143.663 193.499C143.897 193.499 143.897 193.499 144.132 193.499C144.6 195.724 144.132 198.151 143.663 199.365C143.194 199.162 142.96 198.96 142.492 198.758C142.257 197.544 142.492 196.128 142.492 196.128L143.663 193.499Z" fill="#69BFDB"/>
<path d="M158.658 169.025C158.658 169.025 157.486 169.631 156.784 171.249C156.081 172.868 156.549 179.947 158.189 180.554C159.829 180.958 162.641 179.947 165.921 176.711C169.435 173.07 164.281 166.597 158.658 169.025Z" fill="#F8A492"/>
<path d="M157.017 170.44C157.017 170.44 158.423 170.845 158.657 173.07C158.892 175.295 161.234 175.902 162.172 176.711C163.109 177.722 163.577 179.745 166.623 178.936C169.669 178.127 169.2 175.497 168.497 173.677C167.794 171.856 165.217 169.227 162.874 168.418C160.532 167.406 155.377 168.216 157.017 170.44Z" fill="#75271A"/>
<path d="M164.28 169.025C165.92 170.239 167.56 171.857 168.029 173.273C168.732 175.093 169.2 177.722 166.155 178.531C164.983 178.734 164.28 178.734 163.812 178.531C164.515 178.936 165.217 179.341 166.857 178.936C169.903 178.127 169.435 175.497 168.732 173.677C168.029 172.059 166.155 170.036 164.28 169.025Z" fill="#6D1B11"/>
<path d="M167.092 171.856C167.092 171.856 167.56 173.475 168.732 173.677C169.903 173.879 170.606 173.879 170.84 173.07C171.075 172.463 172.48 172.665 171.778 171.452C171.075 170.238 170.84 169.429 169.669 169.429C168.498 169.429 168.029 169.834 167.092 170.036C166.155 170.441 167.092 171.856 167.092 171.856Z" fill="#75271A"/>
<path d="M143.429 194.105C143.429 194.105 131.949 192.083 130.075 191.88C128.2 191.678 121.64 192.083 121.64 192.487C121.875 192.892 126.092 193.094 126.092 193.296C126.092 193.296 125.623 194.105 125.858 194.51C126.092 194.914 126.326 194.914 126.56 195.319C126.795 195.724 127.263 195.724 127.498 195.926C127.732 196.128 128.903 196.33 129.606 196.128C130.309 195.926 130.543 195.117 131.715 195.117C132.652 195.117 142.492 197.948 142.492 197.948L143.429 194.105Z" fill="#F8A492"/>
<path d="M138.977 198.151C138.977 198.151 142.492 199.971 143.194 199.769C143.663 199.567 144.834 193.297 143.897 192.69C143.194 192.285 140.383 192.487 140.149 192.892C139.914 193.094 138.274 197.746 138.977 198.151Z" fill="#ACF0FD"/>
<path d="M156.848 172.867C156.848 172.867 155.533 176.477 155.533 176.878C155.796 177.079 156.585 176.878 156.585 176.878C156.585 176.878 157.636 176.678 157.636 176.878C157.636 177.079 158.424 176.678 158.424 176.678L158.95 176.477L156.848 172.867Z" fill="#F8A492"/>
<path d="M157.251 174.688C157.251 174.688 157.485 174.688 157.251 174.688C157.251 175.092 157.251 175.497 157.719 175.497C157.251 175.497 157.251 174.89 157.251 174.688Z" fill="#75271A"/>
<path d="M157.719 174.283C158.422 174.283 158.422 175.295 157.719 175.295C157.25 175.497 157.25 174.283 157.719 174.283Z" fill="#75271A"/>
<path d="M158.188 173.879C157.953 173.879 157.953 173.879 157.719 173.676C157.485 173.676 157.485 173.676 157.25 173.474V173.272C157.485 173.07 157.719 173.07 157.953 173.272C158.188 173.272 158.422 173.474 158.422 173.676C158.656 173.676 158.422 173.879 158.188 173.879Z" fill="#75271A"/>
<path d="M158.423 178.531C158.188 178.531 158.188 178.531 157.954 178.531C157.72 178.531 157.72 178.328 157.72 178.328C157.72 178.531 157.954 178.733 157.954 178.733C158.188 178.733 158.423 178.733 158.423 178.531Z" fill="#75271A"/>
<path d="M156.783 176.508C156.548 176.508 155.611 176.71 155.845 176.508C156.08 175.497 156.314 174.283 156.783 173.272C156.548 174.283 156.08 175.294 156.08 176.306C156.314 176.306 156.548 176.306 156.783 176.306" fill="#75271A"/>
<path d="M157.25 177.52C157.25 177.52 157.25 177.924 157.485 178.126C157.485 178.126 157.719 178.329 157.953 178.329C158.188 178.329 158.422 178.126 158.422 177.924C158.422 177.722 158.422 177.52 158.422 177.52C158.422 177.52 157.953 177.722 157.25 177.52Z" fill="#75271A"/>
<path d="M157.719 178.126C157.719 178.126 157.954 178.328 158.188 178.328C158.422 178.328 158.657 178.126 158.657 177.924C158.188 177.722 157.954 177.722 157.719 178.126Z" fill="#FF98B9"/>
<path d="M63.7954 255.564C63.7954 255.564 62.6519 256.545 62.6519 256.937C62.6519 257.329 62.6519 261.449 63.1093 261.841C63.5667 262.234 65.1675 262.43 64.4815 262.822C64.0241 263.215 61.5085 263.018 59.679 263.018C59.2216 263.018 58.5355 259.291 58.3068 258.899C58.0781 258.114 56.9347 256.348 57.1634 255.956C57.3921 255.76 58.3068 255.171 59.2216 254.583C60.1363 253.994 61.0511 252.817 61.0511 252.817L63.7954 255.564Z" fill="#FFC6BD"/>
<path d="M80.64 257.811L79.4686 260.75C79.4686 261.17 79 262.22 79 262.64C79 264.11 86.7313 261.38 84.857 260.54C84.6227 260.54 84.1542 259.91 84.1542 259.49C84.1542 258.651 84.857 257.601 84.857 257.601L80.64 257.811Z" fill="#FFC6BD"/>
<path d="M90.9478 205.635L93.7592 211.905C93.7592 211.905 95.6335 226.67 94.4621 235.57C93.9935 239.211 84.3878 259.235 84.3878 259.235L79.7021 258.628L86.0278 235.165L83.685 226.266L80.405 208.466L90.9478 205.635Z" fill="#211E27"/>
<path d="M77.8278 206.039L75.4849 212.916L71.9707 233.749L59.7878 253.369C59.7878 253.369 61.6621 255.796 63.5364 256.201L80.8735 236.379L90.2449 211.702L90.0106 206.241L77.8278 206.039Z" fill="#1C1921"/>
<path d="M96.7666 203.43C95.6035 200.977 93.7425 196.685 93.5099 196.48L91.6489 186.464L85.8333 185.851C85.8333 185.851 88.1595 196.685 88.3921 197.093C88.6247 197.502 93.7425 206.497 95.8361 209.767C95.8361 207.723 96.3013 205.475 96.7666 203.43Z" fill="#F8A492"/>
<path d="M93.3459 193.461L86.7443 194.051C86.7443 194.051 86.5166 189.33 86.5166 187.166C86.5166 184.412 86.9719 181.067 87.4272 181.067C88.5654 181.264 89.7036 181.658 90.6142 182.641C93.5735 186.182 93.3459 193.461 93.3459 193.461Z" fill="#D9F9F7"/>
<path d="M58.903 254.184C58.903 254.184 61.3344 261.048 62.4396 261.452C62.6606 261.452 64.2079 261.856 64.65 262.462C64.65 262.866 64.4289 263.067 63.9868 263.067H58.903C58.903 263.067 58.2399 260.039 57.7978 258.626C57.7978 258.626 56.2505 255.194 56.4716 254.992C56.9136 254.79 58.903 254.184 58.903 254.184Z" fill="#454745"/>
<path d="M78.3167 263.067L79.2205 260.334C79.2205 260.334 81.0282 261.017 81.9321 261.017C82.8359 260.79 84.6437 260.334 84.6437 260.334C88.2591 261.473 91.1967 262.156 90.5188 263.067H78.3167Z" fill="#454745"/>
<path d="M78.7211 180.645C78.7211 180.645 73.9361 181.459 72.979 182.069C71.7828 182.68 72.2613 185.122 72.2613 185.122C72.2613 185.122 76.5679 202.624 76.3286 205.474C76.0893 208.526 75.3716 213.004 75.3716 213.004C75.3716 213.004 89.0091 213.818 94.0334 211.986C94.0334 211.986 92.3586 205.067 92.3586 203.235C92.3586 201.403 91.4016 183.494 90.6839 182.476C89.9661 181.459 88.7698 181.052 86.138 180.441C83.9847 180.238 78.7211 180.645 78.7211 180.645Z" fill="#DEFFFE"/>
<path d="M78.598 181.067L81.7333 182.605L80.2862 184.484L77.6333 181.067H78.598Z" fill="#BFD8D8"/>
<path d="M81.7334 182.366L83.1977 185.851L83.7834 182.776L83.1977 182.571L81.7334 179.701V182.366Z" fill="#FFC6BD"/>
<path d="M82.4167 184.484L85.2355 213.184H86.5168L83.1855 184.69L82.9292 185.723L82.4167 184.484Z" fill="#BFD8D8"/>
<path d="M84.9792 180.384L82.4167 182.662L84.4098 184.484L85.8334 180.384H84.9792Z" fill="#BFD8D8"/>
<path d="M89.2499 189.951H85.8333V190.634H89.2499V189.951Z" fill="white"/>
<path d="M94.7167 192.001L91.9834 192.229V194.051L94.7167 193.823V192.001Z" fill="#BFD8D8"/>
<path d="M82.7488 183.79C81.5774 183.992 79.9374 182.172 79.0002 180.756C79.0002 180.756 79.2345 179.744 79.2345 178.531C79.2345 177.722 79.4688 176.913 79.4688 176.306C79.4688 176.104 85.0917 177.52 85.0917 177.52C85.0917 177.52 84.3888 179.138 84.3888 180.351C84.3888 180.554 84.3888 180.554 84.3888 180.756C84.8574 181.363 84.1545 183.385 82.7488 183.79Z" fill="#F8A492"/>
<path d="M84.6227 180.553C84.6227 180.553 84.6227 180.756 84.6227 180.553C84.3884 180.553 84.1541 180.553 84.1541 180.553C80.8741 180.351 80.1713 176.913 79.937 176.104C80.8742 176.306 85.3256 177.317 85.3256 177.317C85.3256 177.317 84.6227 178.935 84.6227 180.149C84.6227 180.351 84.6227 180.553 84.6227 180.553Z" fill="#EF8978"/>
<path d="M78.5306 170.642C78.062 172.26 79.4677 177.115 81.1077 178.126C83.2163 179.542 86.7305 179.542 88.1362 177.317C89.542 175.294 87.4334 169.226 85.7934 168.215C83.4505 166.799 79.2334 168.215 78.5306 170.642Z" fill="#F8A492"/>
<path d="M84.3874 173.07C84.3874 173.07 84.3874 173.272 84.3874 173.07C84.3874 173.474 84.6216 173.879 84.1531 173.879C84.6216 173.879 84.6217 173.474 84.3874 173.07Z" fill="#75271A"/>
<path d="M83.9185 172.867C83.2157 172.867 83.4499 174.081 84.1528 173.879C84.6214 173.879 84.3871 172.867 83.9185 172.867Z" fill="#75271A"/>
<path d="M86.4951 172.867C86.4951 173.272 86.7294 173.474 87.198 173.676C86.7294 173.676 86.4951 173.069 86.4951 172.867Z" fill="#75271A"/>
<path d="M86.7304 172.463C87.4332 172.261 87.6675 173.272 87.1989 173.474C86.4961 173.676 86.2618 172.463 86.7304 172.463Z" fill="#75271A"/>
<path d="M83.2156 172.463C83.4499 172.463 83.4499 172.261 83.6842 172.261C83.9185 172.261 83.9185 172.058 84.1527 172.058V171.856C83.9185 171.654 83.6842 171.856 83.4499 171.856C83.2156 172.058 82.9813 172.058 82.9813 172.261C82.747 172.463 82.9813 172.665 83.2156 172.463Z" fill="#75271A"/>
<path d="M86.964 171.856C86.7297 171.856 86.7297 171.856 86.4954 171.856C86.2611 171.856 86.0269 171.856 86.0269 171.654V171.451C86.2611 171.249 86.4954 171.249 86.7297 171.249C86.964 171.249 87.1983 171.249 87.4326 171.451C87.4326 171.654 87.4326 171.856 86.964 171.856Z" fill="#75271A"/>
<path d="M84.6211 176.103C84.6211 176.103 84.8554 176.306 85.0897 176.306C85.3239 176.306 85.324 176.306 85.5582 176.103C85.5582 176.306 85.3239 176.306 85.0897 176.306C84.8554 176.508 84.6211 176.306 84.6211 176.103Z" fill="#75271A"/>
<path d="M84.8555 175.092C85.0898 175.294 85.5583 175.497 85.7926 175.497C86.0269 175.497 86.0269 175.497 86.2612 175.497C86.2612 175.294 86.0269 174.89 86.0269 174.89C86.2612 174.89 86.7298 175.092 86.7298 174.89C86.4955 173.878 86.0269 172.665 85.324 171.654C85.5583 172.665 86.0269 173.676 86.4955 174.688C86.2612 174.688 86.0269 174.688 85.7926 174.688L86.0269 175.497C85.7926 175.294 85.324 175.294 84.8555 175.092Z" fill="#75271A"/>
<path d="M86.027 175.294C86.027 175.294 85.7928 175.699 85.5585 175.901C85.3242 175.901 85.3242 176.103 85.0899 175.901C84.8556 175.901 84.6213 175.699 84.6213 175.497C84.6213 175.294 84.6213 175.092 84.6213 175.092C84.6213 175.092 85.3242 175.497 86.027 175.294Z" fill="#75271A"/>
<path d="M85.5582 175.901C85.324 175.901 85.3239 176.103 85.0897 175.901C84.8554 175.901 84.6211 175.699 84.6211 175.496C85.0897 175.496 85.5582 175.496 85.5582 175.901Z" fill="#FF98B9"/>
<path d="M86.9648 169.631C86.7305 169.226 86.2619 168.822 86.0276 168.822C85.7933 168.822 85.5591 169.428 85.0905 169.631C84.1534 169.833 83.6848 169.226 82.2791 169.428C80.4048 169.631 79.9362 171.047 80.4048 173.271C80.8734 175.294 79.4676 175.699 79.4676 175.699C79.4676 175.699 77.5934 171.653 78.7648 170.035C79.9362 168.417 82.9819 167.203 85.5591 168.215C86.2619 168.215 86.9648 169.631 86.9648 169.631Z" fill="#75271A"/>
<path d="M80.4049 174.486C80.4049 174.486 78.9992 173.07 78.0621 173.474C77.3592 173.879 78.5306 176.104 79.4678 176.306C80.4049 176.508 80.8735 175.699 80.8735 175.699L80.4049 174.486Z" fill="#F8A492"/>
<path d="M78.5305 174.081C79.2334 174.283 79.7019 174.89 79.9362 175.295C79.7019 175.092 79.4677 175.092 78.9991 175.295C79.2334 175.295 79.4677 175.295 79.7019 175.497C79.9362 175.699 79.9362 175.699 80.1705 175.901H80.4048C80.1705 175.092 79.4677 174.081 78.5305 174.081Z" fill="#75271A"/>
<path d="M86.7315 168.62C86.2629 168.62 83.2172 169.227 81.8115 169.833C80.64 170.44 78.5315 172.463 78.5315 172.665C78.5315 172.867 76.8915 168.822 80.64 167.406C84.8572 165.99 86.7315 168.62 86.7315 168.62Z" fill="#359591"/>
<path d="M78.7659 172.463C78.7659 172.463 80.6402 169.226 82.0459 168.215C83.4516 167.406 86.4973 166.395 88.8401 166.799C90.4801 167.204 86.9658 169.429 86.9658 169.429C86.9658 169.429 86.7316 169.024 86.263 168.822C85.0916 168.62 83.4516 169.226 82.2801 169.631C81.1087 170.44 78.7659 172.463 78.7659 172.463Z" fill="#FFC727"/>
<path d="M78.7659 172.463C78.7659 172.463 80.6402 169.226 82.0459 168.215C83.4516 167.406 86.4973 166.395 88.8401 166.799C90.4801 167.204 86.9658 169.429 86.9658 169.429C86.9658 169.429 86.7316 169.024 86.263 168.822C85.0916 168.62 83.4516 169.226 82.2801 169.631C81.1087 170.44 78.7659 172.463 78.7659 172.463Z" fill="#6CC8C1"/>
<path d="M160.063 175.497C160.063 175.497 161 173.676 161.937 174.081C162.874 174.283 162.406 176.71 161.468 177.115C160.531 177.519 160.063 176.912 160.063 176.912V175.497Z" fill="#F8A492"/>
<path d="M161.938 174.688C161.235 175.092 161.001 175.699 161.001 176.306C161.235 176.103 161.469 175.901 161.703 176.103C161.469 176.103 161.235 176.103 161.001 176.306C161.001 176.508 160.766 176.71 160.766 176.71H160.532C160.532 176.103 161.001 174.89 161.938 174.688Z" fill="#75271A"/>
<path d="M243 155.472H188.177V264.494H243V155.472Z" fill="#6CC8C1"/>
<path d="M209.732 149H206.217V264.495H209.732V149Z" fill="#359591"/>
<path d="M209.732 149C209.732 149.202 209.732 264.494 209.732 264.494H243V155.27L209.732 149Z" fill="#7FD6CB"/>
<path opacity="0.57" d="M236.441 162.148L217.932 158.709C217.932 160.327 216.292 161.541 214.652 161.541C214.418 161.541 214.184 161.541 213.95 161.541L213.715 193.499C215.355 193.701 216.761 194.915 216.761 196.331L235.27 198.353C235.27 196.735 236.91 195.522 238.55 195.522C238.784 195.522 238.784 195.522 239.018 195.522L239.252 164.979C237.612 164.777 236.441 163.563 236.441 162.148ZM237.612 194.51C235.972 194.712 234.567 195.926 234.098 197.14L217.932 195.319C217.464 194.106 216.527 193.094 215.121 192.488L215.355 162.552C216.995 162.35 218.635 161.338 219.104 159.923L235.27 162.957C235.504 164.17 236.441 165.182 237.847 165.586L237.612 194.51Z" fill="#BED9EC"/>
<path opacity="0.57" d="M235.972 217.771L231.052 217.366C231.052 218.985 229.647 220.198 227.772 220.198H227.538V257.011C229.412 257.011 230.818 258.224 230.818 259.842H235.738C235.738 258.224 237.144 257.011 239.018 257.011V220.603C237.378 220.4 235.972 219.187 235.972 217.771ZM237.612 255.999C235.972 256.404 234.801 257.415 234.332 258.831H231.755C231.287 257.415 230.115 256.404 228.475 255.999V221.21C230.115 220.805 231.521 219.794 231.99 218.58L234.567 218.782C235.035 219.996 235.972 221.007 237.378 221.614L237.612 255.999Z" fill="#BED9EC"/>
<path opacity="0.57" d="M222.149 216.76L217.932 216.355C217.932 217.973 216.526 219.187 214.652 219.187H214.418L214.652 256.809C216.526 256.809 217.932 258.022 217.932 259.64H221.915C221.915 258.022 223.321 256.809 225.195 256.809V219.389C223.555 219.389 222.149 218.176 222.149 216.76ZM224.023 256C222.383 256.404 221.212 257.415 220.743 258.831H219.103C218.635 257.618 217.463 256.404 215.823 256.202L215.589 220.603C216.526 220.401 217.229 219.996 217.932 219.592C218.401 219.187 218.869 218.58 219.103 217.973L221.212 218.176C221.681 219.389 222.618 220.401 224.023 221.007V256Z" fill="#BED9EC"/>
<path d="M217.228 209.073C218.004 209.073 218.634 208.077 218.634 206.848C218.634 205.62 218.004 204.624 217.228 204.624C216.452 204.624 215.822 205.62 215.822 206.848C215.822 208.077 216.452 209.073 217.228 209.073Z" fill="#F7CC7F"/>
<path d="M219.805 206.039V207.86H216.994C216.994 207.657 216.759 207.253 216.759 206.848C216.759 206.646 216.759 206.242 216.759 206.039H219.805Z" fill="#F47458"/>
<path d="M219.805 210.287C220.969 210.287 221.913 208.747 221.913 206.848C221.913 204.949 220.969 203.41 219.805 203.41C218.64 203.41 217.696 204.949 217.696 206.848C217.696 208.747 218.64 210.287 219.805 210.287Z" fill="#FAE0B2"/>
<path d="M220.274 210.287C221.438 210.287 222.382 208.747 222.382 206.848C222.382 204.949 221.438 203.41 220.274 203.41C219.109 203.41 218.165 204.949 218.165 206.848C218.165 208.747 219.109 210.287 220.274 210.287Z" fill="#FAE0B2"/>
<path d="M261.828 265H11.4281C10.2141 265 9 264.25 9 263.5C9 262.75 10.2141 262 11.4281 262H261.525C262.739 262 263.953 262.75 263.953 263.5C264.256 264.25 263.042 265 261.828 265Z" fill="#5C8097"/>
<path opacity="0.19" d="M96.8061 223.434C88.3718 223.03 80.6404 221.614 72.4404 219.996C72.6747 211.096 73.8461 202.601 75.7204 193.903C79.469 191.881 83.6861 190.06 88.1375 189.049C89.0747 189.251 89.5432 189.453 90.4804 189.251C94.4632 191.274 97.9775 193.499 101.023 196.533C100.789 205.23 99.8518 215.141 96.8061 223.434Z" fill="#6CC8C1"/>
<path d="M89.0749 195.117C90.9491 194.712 92.5891 193.701 93.7606 192.285C92.3549 192.083 90.9491 192.083 89.5434 191.881C87.9034 191.678 86.0292 191.476 84.3892 190.667C85.3263 192.69 86.9663 194.308 89.0749 195.117Z" fill="#F19679"/>
<path d="M89.7774 189.655C89.7774 188.846 90.4803 188.24 91.1832 188.037C91.886 187.835 92.8232 187.431 93.2917 186.824C93.9946 186.217 93.9946 185.206 93.526 184.397C93.0574 183.587 92.3546 182.981 91.4175 182.778C90.7146 182.576 89.7775 182.576 89.0746 182.778C88.3717 182.981 87.6689 183.587 87.4346 184.397C87.2003 185.003 87.4346 186.217 88.3717 186.419C88.606 186.419 88.606 186.419 88.8403 186.419C89.3089 186.217 88.8403 185.812 88.8403 185.408C88.8403 185.003 88.8403 184.599 89.3089 184.194C90.0117 183.79 90.9489 183.79 91.6517 184.194C92.3546 184.599 92.3546 185.408 92.1203 186.217C91.886 186.824 91.1832 187.431 90.4803 187.835C89.7775 188.24 89.3089 189.049 89.3089 189.655C89.3089 189.655 89.5432 189.655 89.7774 189.655Z" fill="#363347"/>
<path d="M83.9204 191.273L89.5433 189.251L94.4632 192.487L93.7604 192.689L89.5433 190.262L84.1547 191.678L83.9204 191.273Z" fill="#363347"/>
<path d="M97.9771 215.344C96.8057 215.344 95.6343 215.141 94.2286 214.939C93.9943 214.939 93.9943 214.939 93.76 214.939C93.5257 216.557 93.2914 217.973 93.0571 219.591C88.1372 219.591 82.7486 218.984 78.0629 217.771C78.2972 216.557 78.5315 214.939 78.5315 213.726C78.2972 213.726 78.2972 213.726 78.0629 213.726C76.4229 213.523 74.7829 213.119 73.3772 212.714C73.8458 206.444 74.7829 200.376 76.4229 194.106C78.7658 192.488 81.5772 191.274 84.3886 190.465C85.56 191.881 86.7314 193.094 88.1372 194.308C90.2457 193.903 92.3543 193.094 93.76 191.881C96.3371 193.094 98.2114 194.51 100.086 196.331C100.086 202.803 99.3828 209.276 97.9771 215.344Z" fill="url(#paint0_linear)"/>
<path d="M83.6862 191.678C83.6862 193.499 84.1547 195.522 85.3262 197.14C86.2633 196.331 87.4347 195.522 88.3719 194.915C89.309 195.724 90.2461 196.533 90.949 197.544C92.3547 196.128 93.2919 194.51 94.229 192.892C93.5261 194.712 92.3547 196.533 90.949 198.151C90.2461 197.14 89.309 196.128 88.3719 195.319C87.2004 196.128 86.029 196.937 84.8576 197.949C83.9205 196.128 83.4519 193.903 83.6862 191.678ZM80.8748 198.96C79.9376 203.814 79.0005 208.467 78.2976 213.321C78.2976 213.321 78.2976 213.523 78.2976 213.726C78.5319 213.726 78.5319 213.726 78.7662 213.726C79.9376 208.669 80.6405 204.219 80.8748 198.96ZM94.4633 214.939C94.9318 210.085 95.6347 205.23 96.5718 200.376C95.4004 205.23 94.6976 210.085 93.9947 214.939C94.229 214.939 94.229 214.939 94.4633 214.939ZM88.1376 198.96C86.7319 205.433 85.7947 212.107 85.0919 218.782C86.4976 212.31 87.669 205.635 88.1376 198.96Z" fill="#F19679"/>
<path d="M88.3724 196.937C88.6066 196.937 88.8409 197.139 88.8409 197.544C88.8409 197.746 88.6066 197.948 88.3724 198.151C88.1381 198.151 87.6695 197.948 87.6695 197.746C87.4352 197.139 87.9038 196.937 88.3724 196.937Z" fill="#FCA746"/>
<path d="M97.0402 218.377C98.2116 211.298 99.1488 204.421 100.086 197.342C99.383 197.948 98.6802 198.353 97.9773 198.96C98.2116 198.151 98.6802 197.544 98.9145 196.937C97.9773 197.139 97.2745 197.139 96.3373 197.342C97.2745 196.937 98.2116 196.532 99.383 196.33C96.8059 194.105 93.5259 192.285 90.2459 190.667C90.0117 191.274 90.0116 191.678 89.7774 192.285C89.5431 191.678 89.3088 191.071 89.0745 190.667C88.6059 191.071 87.9031 191.678 87.2002 191.88C87.4345 191.476 87.6688 191.071 87.6688 190.464C84.1545 191.678 81.1088 193.094 78.0631 194.712C78.5317 195.117 79.0002 195.319 79.4688 195.521C78.766 195.521 78.2974 195.319 77.5945 195.319C77.8288 195.926 78.0631 196.532 78.5317 196.937C77.8288 196.532 77.3602 196.128 76.8917 195.521C75.9545 198.555 75.2517 201.589 74.5488 204.623C74.7831 201.185 75.2517 197.544 76.1888 194.105C79.9374 192.083 83.686 190.06 88.1374 189.453C89.0745 189.251 90.0116 189.655 90.9488 189.655C94.4631 191.678 97.9773 193.903 101.023 196.532C100.554 203.814 99.1488 211.298 97.0402 218.377Z" fill="#CDBFA1"/>
<path d="M97.0397 207.05C89.7769 207.253 82.7483 204.016 78.9998 198.96C80.4055 201.994 82.7483 204.825 86.0283 206.241C89.5426 207.657 93.2911 208.062 97.0397 207.05Z" fill="#CDBFA1"/>
<path d="M95.4003 210.489C90.246 211.298 84.8574 210.691 80.406 208.466C82.2803 210.286 84.3889 211.702 87.2003 211.905C90.0117 212.309 92.8231 211.905 95.4003 210.489Z" fill="#CDBFA1"/>
<path d="M78.2976 217.771C83.6862 209.073 86.9662 201.387 91.6519 192.285C94.4633 193.296 96.8061 195.117 99.149 196.937C94.6976 205.432 91.4176 211.298 85.0919 218.984" fill="url(#paint1_linear)"/>
<path d="M91.4177 184.194C92.1206 184.801 92.1206 185.408 91.8863 186.014L93.7606 186.217C93.9949 185.61 93.9949 185.003 93.7606 184.599L91.4177 184.194Z" fill="#363347"/>
<path d="M68.75 194.973L75.9884 196.784C75.9884 196.784 77.3894 193.967 77.6229 191.151C77.8564 188.535 74.1204 181.695 72.9529 182.499C70.3845 184.31 68.75 194.973 68.75 194.973Z" fill="#D9F9F7"/>
<path d="M90.9437 212.622C90.0093 212.008 88.6076 210.983 88.6076 210.983C87.2058 210.574 68.75 204.838 68.75 202.995C68.75 202.38 69.9181 193.367 69.9181 193.367L75.7585 194.801L74.8241 201.561C75.2913 201.766 86.9722 207.296 86.9722 207.296C86.9722 207.296 90.2429 208.73 90.4765 208.73C90.7101 208.73 90.9437 208.525 92.8127 208.32C93.2799 208.32 94.2144 208.525 94.2144 208.525C94.2144 208.525 95.1489 208.935 95.1489 209.14C95.1489 209.345 94.9152 209.55 94.6816 209.55C94.448 209.55 94.2144 209.345 93.9808 209.345C93.7472 209.345 93.2799 209.754 93.2799 209.959C93.2799 210.164 94.448 210.574 95.3825 210.779C95.8497 210.983 96.0833 211.393 96.0833 211.803C96.0833 212.008 95.8497 212.008 95.8497 212.212C95.8497 212.417 95.6161 212.827 95.3825 213.032C95.3825 213.237 95.1489 213.851 94.9153 214.056C94.9153 214.056 94.9153 214.056 94.9153 214.261C94.6816 214.466 94.448 214.671 93.9808 214.466C93.5135 214.261 93.0463 214.261 93.0463 214.261C93.0463 213.441 91.8782 213.237 90.9437 212.622Z" fill="#F8A492"/>
<path d="M68.5468 192.684L68.0667 194.734L76.2297 196.784L76.95 194.939L68.5468 192.684Z" fill="#BFD8D8"/>
<path d="M146.299 21C140.399 21 135.599 16.2897 135.599 10.5C135.599 4.71028 140.399 0 146.299 0C152.198 0 156.998 4.71028 156.998 10.5C157.098 16.1916 152.198 21 146.299 21ZM146.299 0.392521C140.599 0.392521 135.999 4.90654 135.999 10.5C135.999 16.0935 140.599 20.6075 146.299 20.6075C151.998 20.6075 156.598 16.0935 156.598 10.5C156.598 4.90654 151.998 0.392521 146.299 0.392521Z" fill="#359591"/>
<path d="M135 17.4674C134.1 17.4674 133.1 17.3692 132.2 17.173C131.3 16.9767 130.4 16.6823 129.7 16.2898L129.4 16.0935L131.2 12.3645L131.5 12.5608C132 12.8552 132.5 13.0515 133.1 13.2477C133.7 13.444 134.2 13.444 134.8 13.444C135.2 13.444 135.6 13.3459 135.9 13.2477C136.1 13.1496 136.2 13.0515 136.2 12.8552C136.2 12.7571 136.2 12.3645 135 12.3645H132.9V9.32249L134.3 7.85053H130.2V3.92529H140.499V6.96735L138.399 9.02809C139.199 9.32249 139.799 9.71501 140.299 10.3038C140.899 10.9907 141.199 11.8739 141.199 12.7571C141.199 13.5421 140.999 14.3272 140.499 15.0141C139.999 15.701 139.299 16.2898 138.399 16.7804C137.499 17.173 136.3 17.4674 135 17.4674Z" fill="#359591"/>
<path d="M140.199 4.1215V6.77103L137.8 9.12617C138.799 9.32244 139.599 9.81309 140.099 10.4019C140.599 10.9907 140.899 11.7757 140.899 12.6589C140.899 13.4439 140.699 14.1308 140.299 14.8178C139.899 15.5047 139.199 15.9953 138.299 16.3879C137.4 16.7804 136.3 16.9766 135 16.9766C134.1 16.9766 133.2 16.8785 132.3 16.6822C131.4 16.486 130.6 16.1916 129.9 15.7991L131.4 12.6589C131.9 12.9533 132.5 13.1495 133.1 13.3458C133.7 13.5421 134.3 13.5421 134.9 13.5421C135.4 13.5421 135.8 13.4439 136.1 13.2477C136.4 13.0514 136.6 12.8551 136.6 12.5608C136.6 11.972 136.1 11.6776 135.1 11.6776H133.3V9.02804L135.2 7.16356H130.6V3.92524H140.199V4.1215ZM140.899 3.53271H140.199H130.6H129.9V4.21963V7.45795V8.14487H130.6H133.6L132.8 8.92991L132.6 9.12617V9.42057V12.0701V12.757H133.3H135C135.7 12.757 135.9 12.9533 135.9 12.9533C135.9 12.9533 135.9 12.9533 135.9 13.0514C135.9 13.0514 135.9 13.1495 135.8 13.2477C135.6 13.3458 135.3 13.4439 134.9 13.4439C134.4 13.4439 133.9 13.3458 133.3 13.2477C132.8 13.1495 132.2 12.8551 131.8 12.6589L131.2 12.2664L130.9 12.9533L129.3 15.7009L129 16.2897L129.5 16.5841C130.2 16.9766 131.1 17.271 132.1 17.4673C133 17.6636 134 17.7617 135 17.7617C136.4 17.7617 137.6 17.5654 138.599 17.0748C139.599 16.5841 140.399 15.9953 140.799 15.2103C141.299 14.4252 141.499 13.6402 141.499 12.757C141.499 11.6776 141.199 10.7944 140.499 10.0093C140.099 9.51869 139.599 9.12617 138.899 8.83178L140.599 7.16356L140.799 6.96729V6.6729V4.02337V3.53271H140.899Z" fill="#D7EAF0"/>
<defs>
<linearGradient id="paint0_linear" x1="81.232" y1="228.873" x2="87.294" y2="194.164" gradientUnits="userSpaceOnUse">
<stop stop-color="#F5BA85"/>
<stop offset="0.6233" stop-color="#FCDDB1"/>
<stop offset="1" stop-color="#FFEFC7"/>
</linearGradient>
<linearGradient id="paint1_linear" x1="97.4628" y1="193.113" x2="81.1631" y2="225.822" gradientUnits="userSpaceOnUse">
<stop stop-color="#9BA87E"/>
<stop offset="0.7104" stop-color="#1F2119"/>
<stop offset="0.8827"/>
</linearGradient>
</defs>
</svg>
