<svg width="300" height="257" viewBox="0 0 300 257" fill="none" xmlns="http://www.w3.org/2000/svg">
<path d="M277.33 253C277.33 253 317.31 199.09 291.084 152.43C264.859 105.77 249.454 172.135 189.301 141.462C129.148 110.789 53.0393 55.392 14.5266 135.142C-23.9861 214.891 26.2638 253 26.2638 253H277.33Z" fill="#FAFFFF"/>
<g opacity="0.06">
<g opacity="0.06">
<g opacity="0.06">
<path opacity="0.06" d="M119.107 99.0879H117.821V86.5716L118.556 85.0771L119.107 86.5716V99.0879Z" fill="#D7EAF0"/>
<path opacity="0.06" d="M119.107 99.0876H118.74V86.5714L118.556 85.0769L119.107 86.5714V99.0876Z" fill="#7FA9B5"/>
</g>
<g opacity="0.06">
<path opacity="0.06" d="M156.592 103.945H103.121V255.821H156.592V103.945Z" fill="#D7EAF0"/>
<path opacity="0.06" d="M156.591 107.494H142.443V255.635H156.591V107.494Z" fill="#7FA9B5"/>
<path opacity="0.06" d="M150.712 91.989H126.824V103.945H150.712V91.989Z" fill="#D7EAF0"/>
<path opacity="0.06" d="M150.896 91.989H144.097V103.945H150.896V91.989Z" fill="#7FA9B5"/>
<path opacity="0.06" d="M140.238 98.5276H130.683V103.758H140.238V98.5276Z" fill="#7FA9B5"/>
<path opacity="0.06" d="M131.786 98.5276H130.683V103.758H131.786V98.5276Z" fill="#B8D9DE"/>
<path opacity="0.06" d="M129.213 98.7141H112.125V103.945H129.213V98.7141Z" fill="#D7EAF0"/>
<path opacity="0.06" d="M129.03 98.7141H125.171V103.945H129.03V98.7141Z" fill="#B8D9DE"/>
<path opacity="0.06" d="M127.744 242.931H123.517V255.821H127.744V242.931Z" fill="#66929B"/>
<path opacity="0.06" d="M121.863 242.931H117.637V255.821H121.863V242.931Z" fill="#66929B"/>
<path opacity="0.06" d="M139.32 209.492H136.747V213.042H139.32V209.492Z" fill="#66929B"/>
<path opacity="0.06" d="M139.32 204.448H136.747V207.811H139.32V204.448Z" fill="#66929B"/>
<path opacity="0.06" d="M139.32 199.218H136.747V202.58H139.32V199.218Z" fill="#66929B"/>
<path opacity="0.06" d="M139.32 224.998H136.747V228.547H139.32V224.998Z" fill="#66929B"/>
<path opacity="0.06" d="M139.32 219.767H136.747V223.316H139.32V219.767Z" fill="#66929B"/>
<path opacity="0.06" d="M139.32 214.723H136.747V218.272H139.32V214.723Z" fill="#66929B"/>
<path opacity="0.06" d="M139.32 168.394H136.747V171.943H139.32V168.394Z" fill="#66929B"/>
<path opacity="0.06" d="M139.32 173.625H136.747V177.174H139.32V173.625Z" fill="#66929B"/>
<path opacity="0.06" d="M139.32 230.228H136.747V233.591H139.32V230.228Z" fill="#66929B"/>
<path opacity="0.06" d="M139.32 194.174H136.747V197.723H139.32V194.174Z" fill="#66929B"/>
<path opacity="0.06" d="M139.32 163.35H136.747V166.713H139.32V163.35Z" fill="#66929B"/>
<path opacity="0.06" d="M139.32 188.943H136.747V192.306H139.32V188.943Z" fill="#66929B"/>
<path opacity="0.06" d="M139.32 183.899H136.747V187.449H139.32V183.899Z" fill="#66929B"/>
<path opacity="0.06" d="M139.32 178.668H136.747V182.031H139.32V178.668Z" fill="#66929B"/>
<path opacity="0.06" d="M119.107 214.723H116.535V218.272H119.107V214.723Z" fill="#66929B"/>
<path opacity="0.06" d="M119.107 199.218H116.535V202.58H119.107V199.218Z" fill="#66929B"/>
<path opacity="0.06" d="M119.107 209.492H116.535V213.042H119.107V209.492Z" fill="#66929B"/>
<path opacity="0.06" d="M119.107 204.448H116.535V207.811H119.107V204.448Z" fill="#66929B"/>
<path opacity="0.06" d="M119.107 188.943H116.535V192.306H119.107V188.943Z" fill="#66929B"/>
<path opacity="0.06" d="M119.107 194.174H116.535V197.723H119.107V194.174Z" fill="#66929B"/>
<path opacity="0.06" d="M119.107 230.228H116.535V233.591H119.107V230.228Z" fill="#66929B"/>
<path opacity="0.06" d="M119.107 219.767H116.535V223.316H119.107V219.767Z" fill="#66929B"/>
<path opacity="0.06" d="M129.213 230.228H126.641V233.591H129.213V230.228Z" fill="#66929B"/>
<path opacity="0.06" d="M139.32 158.12H136.747V161.482H139.32V158.12Z" fill="#66929B"/>
<path opacity="0.06" d="M119.107 224.998H116.535V228.547H119.107V224.998Z" fill="#66929B"/>
<path opacity="0.06" d="M134.174 230.228H131.602V233.591H134.174V230.228Z" fill="#66929B"/>
<path opacity="0.06" d="M124.068 142.615H121.496V145.977H124.068V142.615Z" fill="#66929B"/>
<path opacity="0.06" d="M113.963 127.296H111.39V130.845H113.963V127.296Z" fill="#66929B"/>
<path opacity="0.06" d="M129.213 122.065H126.641V125.615H129.213V122.065Z" fill="#66929B"/>
<path opacity="0.06" d="M124.068 132.34H121.496V135.703H124.068V132.34Z" fill="#66929B"/>
<path opacity="0.06" d="M124.068 122.065H121.496V125.615H124.068V122.065Z" fill="#66929B"/>
<path opacity="0.06" d="M113.963 122.065H111.39V125.615H113.963V122.065Z" fill="#66929B"/>
<path opacity="0.06" d="M139.32 152.889H136.747V156.439H139.32V152.889Z" fill="#66929B"/>
<path opacity="0.06" d="M119.107 122.065H116.535V125.615H119.107V122.065Z" fill="#66929B"/>
<path opacity="0.06" d="M119.107 132.34H116.535V135.703H119.107V132.34Z" fill="#66929B"/>
<path opacity="0.06" d="M113.963 158.12H111.39V161.482H113.963V158.12Z" fill="#66929B"/>
<path opacity="0.06" d="M119.107 183.899H116.535V187.449H119.107V183.899Z" fill="#66929B"/>
<path opacity="0.06" d="M113.963 163.35H111.39V166.713H113.963V163.35Z" fill="#66929B"/>
<path opacity="0.06" d="M119.107 152.889H116.535V156.439H119.107V152.889Z" fill="#66929B"/>
<path opacity="0.06" d="M124.068 147.845H121.496V151.207H124.068V147.845Z" fill="#66929B"/>
<path opacity="0.06" d="M124.068 152.889H121.496V156.439H124.068V152.889Z" fill="#66929B"/>
<path opacity="0.06" d="M124.068 137.571H121.496V140.933H124.068V137.571Z" fill="#66929B"/>
<path opacity="0.06" d="M129.213 137.571H126.641V140.933H129.213V137.571Z" fill="#66929B"/>
<path opacity="0.06" d="M129.213 127.296H126.641V130.845H129.213V127.296Z" fill="#66929B"/>
<path opacity="0.06" d="M119.107 127.296H116.535V130.845H119.107V127.296Z" fill="#66929B"/>
<path opacity="0.06" d="M124.068 127.296H121.496V130.845H124.068V127.296Z" fill="#66929B"/>
<path opacity="0.06" d="M129.213 147.845H126.641V151.207H129.213V147.845Z" fill="#66929B"/>
<path opacity="0.06" d="M134.174 122.065H131.602V125.615H134.174V122.065Z" fill="#66929B"/>
<path opacity="0.06" d="M129.213 142.615H126.641V145.977H129.213V142.615Z" fill="#66929B"/>
<path opacity="0.06" d="M139.32 127.296H136.747V130.845H139.32V127.296Z" fill="#66929B"/>
<path opacity="0.06" d="M139.32 122.065H136.747V125.615H139.32V122.065Z" fill="#66929B"/>
<path opacity="0.06" d="M134.174 127.296H131.602V130.845H134.174V127.296Z" fill="#66929B"/>
<path opacity="0.06" d="M129.213 132.34H126.641V135.703H129.213V132.34Z" fill="#66929B"/>
<path opacity="0.06" d="M129.213 163.35H126.641V166.713H129.213V163.35Z" fill="#66929B"/>
<path opacity="0.06" d="M129.213 178.668H126.641V182.031H129.213V178.668Z" fill="#66929B"/>
<path opacity="0.06" d="M129.213 173.625H126.641V177.174H129.213V173.625Z" fill="#66929B"/>
<path opacity="0.06" d="M129.213 183.899H126.641V187.449H129.213V183.899Z" fill="#66929B"/>
<path opacity="0.06" d="M129.213 168.394H126.641V171.943H129.213V168.394Z" fill="#66929B"/>
<path opacity="0.06" d="M129.213 188.943H126.641V192.306H129.213V188.943Z" fill="#66929B"/>
<path opacity="0.06" d="M129.213 199.218H126.641V202.58H129.213V199.218Z" fill="#66929B"/>
<path opacity="0.06" d="M129.213 194.174H126.641V197.723H129.213V194.174Z" fill="#66929B"/>
<path opacity="0.06" d="M124.068 168.394H121.496V171.943H124.068V168.394Z" fill="#66929B"/>
<path opacity="0.06" d="M124.068 178.668H121.496V182.031H124.068V178.668Z" fill="#66929B"/>
<path opacity="0.06" d="M124.068 173.625H121.496V177.174H124.068V173.625Z" fill="#66929B"/>
<path opacity="0.06" d="M124.068 183.899H121.496V187.449H124.068V183.899Z" fill="#66929B"/>
<path opacity="0.06" d="M129.213 204.448H126.641V207.811H129.213V204.448Z" fill="#66929B"/>
<path opacity="0.06" d="M124.068 163.35H121.496V166.713H124.068V163.35Z" fill="#66929B"/>
<path opacity="0.06" d="M113.963 168.394H111.39V171.943H113.963V168.394Z" fill="#66929B"/>
<path opacity="0.06" d="M129.213 209.492H126.641V213.042H129.213V209.492Z" fill="#66929B"/>
<path opacity="0.06" d="M113.963 152.889H111.39V156.439H113.963V152.889Z" fill="#66929B"/>
<path opacity="0.06" d="M124.068 188.943H121.496V192.306H124.068V188.943Z" fill="#66929B"/>
<path opacity="0.06" d="M124.068 230.228H121.496V233.591H124.068V230.228Z" fill="#66929B"/>
<path opacity="0.06" d="M129.213 214.723H126.641V218.272H129.213V214.723Z" fill="#66929B"/>
<path opacity="0.06" d="M129.213 219.767H126.641V223.316H129.213V219.767Z" fill="#66929B"/>
<path opacity="0.06" d="M134.174 152.889H131.602V156.439H134.174V152.889Z" fill="#66929B"/>
<path opacity="0.06" d="M124.068 224.998H121.496V228.547H124.068V224.998Z" fill="#66929B"/>
<path opacity="0.06" d="M119.107 173.625H116.535V177.174H119.107V173.625Z" fill="#66929B"/>
<path opacity="0.06" d="M134.174 188.943H131.602V192.306H134.174V188.943Z" fill="#66929B"/>
<path opacity="0.06" d="M134.174 163.35H131.602V166.713H134.174V163.35Z" fill="#66929B"/>
<path opacity="0.06" d="M134.174 158.12H131.602V161.482H134.174V158.12Z" fill="#66929B"/>
<path opacity="0.06" d="M134.174 183.899H131.602V187.449H134.174V183.899Z" fill="#66929B"/>
<path opacity="0.06" d="M129.213 152.889H126.641V156.439H129.213V152.889Z" fill="#66929B"/>
<path opacity="0.06" d="M134.174 178.668H131.602V182.031H134.174V178.668Z" fill="#66929B"/>
<path opacity="0.06" d="M134.174 173.625H131.602V177.174H134.174V173.625Z" fill="#66929B"/>
<path opacity="0.06" d="M129.213 158.12H126.641V161.482H129.213V158.12Z" fill="#66929B"/>
<path opacity="0.06" d="M119.107 168.394H116.535V171.943H119.107V168.394Z" fill="#66929B"/>
<path opacity="0.06" d="M119.107 178.668H116.535V182.031H119.107V178.668Z" fill="#66929B"/>
<path opacity="0.06" d="M119.107 163.35H116.535V166.713H119.107V163.35Z" fill="#66929B"/>
<path opacity="0.06" d="M124.068 158.12H121.496V161.482H124.068V158.12Z" fill="#66929B"/>
<path opacity="0.06" d="M119.107 158.12H116.535V161.482H119.107V158.12Z" fill="#66929B"/>
<path opacity="0.06" d="M134.174 194.174H131.602V197.723H134.174V194.174Z" fill="#66929B"/>
<path opacity="0.06" d="M124.068 209.492H121.496V213.042H124.068V209.492Z" fill="#66929B"/>
<path opacity="0.06" d="M129.213 224.998H126.641V228.547H129.213V224.998Z" fill="#66929B"/>
<path opacity="0.06" d="M124.068 219.767H121.496V223.316H124.068V219.767Z" fill="#66929B"/>
<path opacity="0.06" d="M124.068 214.723H121.496V218.272H124.068V214.723Z" fill="#66929B"/>
<path opacity="0.06" d="M124.068 199.218H121.496V202.58H124.068V199.218Z" fill="#66929B"/>
<path opacity="0.06" d="M124.068 204.448H121.496V207.811H124.068V204.448Z" fill="#66929B"/>
<path opacity="0.06" d="M124.068 194.174H121.496V197.723H124.068V194.174Z" fill="#66929B"/>
<path opacity="0.06" d="M134.174 224.998H131.602V228.547H134.174V224.998Z" fill="#66929B"/>
<path opacity="0.06" d="M134.174 204.448H131.602V207.811H134.174V204.448Z" fill="#66929B"/>
<path opacity="0.06" d="M134.174 199.218H131.602V202.58H134.174V199.218Z" fill="#66929B"/>
<path opacity="0.06" d="M134.174 209.492H131.602V213.042H134.174V209.492Z" fill="#66929B"/>
<path opacity="0.06" d="M134.174 214.723H131.602V218.272H134.174V214.723Z" fill="#66929B"/>
<path opacity="0.06" d="M134.174 219.767H131.602V223.316H134.174V219.767Z" fill="#66929B"/>
<path opacity="0.06" d="M134.174 168.394H131.602V171.943H134.174V168.394Z" fill="#66929B"/>
<path opacity="0.06" d="M134.174 240.503H131.602V244.052H134.174V240.503Z" fill="#66929B"/>
<path opacity="0.06" d="M139.32 240.503H136.747V244.052H139.32V240.503Z" fill="#66929B"/>
<path opacity="0.06" d="M113.963 240.503H111.39V244.052H113.963V240.503Z" fill="#66929B"/>
<path opacity="0.06" d="M109.001 194.174H106.428V197.723H109.001V194.174Z" fill="#66929B"/>
<path opacity="0.06" d="M109.001 199.218H106.428V202.58H109.001V199.218Z" fill="#66929B"/>
<path opacity="0.06" d="M109.001 188.943H106.428V192.306H109.001V188.943Z" fill="#66929B"/>
<path opacity="0.06" d="M109.001 183.899H106.428V187.449H109.001V183.899Z" fill="#66929B"/>
<path opacity="0.06" d="M109.001 178.668H106.428V182.031H109.001V178.668Z" fill="#66929B"/>
<path opacity="0.06" d="M109.001 204.448H106.428V207.811H109.001V204.448Z" fill="#66929B"/>
<path opacity="0.06" d="M109.001 224.998H106.428V228.547H109.001V224.998Z" fill="#66929B"/>
<path opacity="0.06" d="M109.001 230.228H106.428V233.591H109.001V230.228Z" fill="#66929B"/>
<path opacity="0.06" d="M109.001 209.492H106.428V213.042H109.001V209.492Z" fill="#66929B"/>
<path opacity="0.06" d="M109.001 235.272H106.428V238.635H109.001V235.272Z" fill="#66929B"/>
<path opacity="0.06" d="M109.001 240.503H106.428V244.052H109.001V240.503Z" fill="#66929B"/>
<path opacity="0.06" d="M109.001 219.767H106.428V223.316H109.001V219.767Z" fill="#66929B"/>
<path opacity="0.06" d="M109.001 214.723H106.428V218.272H109.001V214.723Z" fill="#66929B"/>
<path opacity="0.06" d="M113.963 245.546H111.39V249.096H113.963V245.546Z" fill="#66929B"/>
<path opacity="0.06" d="M119.107 111.791H116.535V115.154H119.107V111.791Z" fill="#66929B"/>
<path opacity="0.06" d="M113.963 111.791H111.39V115.154H113.963V111.791Z" fill="#66929B"/>
<path opacity="0.06" d="M124.068 111.791H121.496V115.154H124.068V111.791Z" fill="#66929B"/>
<path opacity="0.06" d="M109.001 111.791H106.428V115.154H109.001V111.791Z" fill="#66929B"/>
<path opacity="0.06" d="M139.32 111.791H136.747V115.154H139.32V111.791Z" fill="#66929B"/>
<path opacity="0.06" d="M129.213 111.791H126.641V115.154H129.213V111.791Z" fill="#66929B"/>
<path opacity="0.06" d="M134.174 111.791H131.602V115.154H134.174V111.791Z" fill="#66929B"/>
<path opacity="0.06" d="M139.32 245.546H136.747V249.096H139.32V245.546Z" fill="#66929B"/>
<path opacity="0.06" d="M134.174 245.546H131.602V249.096H134.174V245.546Z" fill="#66929B"/>
<path opacity="0.06" d="M109.001 245.546H106.428V249.096H109.001V245.546Z" fill="#66929B"/>
<path opacity="0.06" d="M109.001 173.625H106.428V177.174H109.001V173.625Z" fill="#66929B"/>
<path opacity="0.06" d="M113.963 214.723H111.39V218.272H113.963V214.723Z" fill="#66929B"/>
<path opacity="0.06" d="M139.32 235.272H136.747V238.635H139.32V235.272Z" fill="#66929B"/>
<path opacity="0.06" d="M113.963 183.899H111.39V187.449H113.963V183.899Z" fill="#66929B"/>
<path opacity="0.06" d="M113.963 194.174H111.39V197.723H113.963V194.174Z" fill="#66929B"/>
<path opacity="0.06" d="M113.963 199.218H111.39V202.58H113.963V199.218Z" fill="#66929B"/>
<path opacity="0.06" d="M113.963 188.943H111.39V192.306H113.963V188.943Z" fill="#66929B"/>
<path opacity="0.06" d="M134.174 235.272H131.602V238.635H134.174V235.272Z" fill="#66929B"/>
<path opacity="0.06" d="M109.001 168.394H106.428V171.943H109.001V168.394Z" fill="#66929B"/>
<path opacity="0.06" d="M113.963 178.668H111.39V182.031H113.963V178.668Z" fill="#66929B"/>
<path opacity="0.06" d="M113.963 230.228H111.39V233.591H113.963V230.228Z" fill="#66929B"/>
<path opacity="0.06" d="M113.963 209.492H111.39V213.042H113.963V209.492Z" fill="#66929B"/>
<path opacity="0.06" d="M113.963 224.998H111.39V228.547H113.963V224.998Z" fill="#66929B"/>
<path opacity="0.06" d="M113.963 235.272H111.39V238.635H113.963V235.272Z" fill="#66929B"/>
<path opacity="0.06" d="M113.963 219.767H111.39V223.316H113.963V219.767Z" fill="#66929B"/>
<path opacity="0.06" d="M113.963 173.625H111.39V177.174H113.963V173.625Z" fill="#66929B"/>
<path opacity="0.06" d="M113.963 204.448H111.39V207.811H113.963V204.448Z" fill="#66929B"/>
<path opacity="0.06" d="M109.001 122.065H106.428V125.615H109.001V122.065Z" fill="#66929B"/>
<path opacity="0.06" d="M119.107 137.571H116.535V140.933H119.107V137.571Z" fill="#66929B"/>
<g opacity="0.06">
<path opacity="0.06" d="M134.174 132.34H131.602V135.703H134.174V132.34Z" fill="#66929B"/>
<path opacity="0.06" d="M139.32 132.34H136.747V135.703H139.32V132.34Z" fill="#66929B"/>
<path opacity="0.06" d="M113.962 132.34H111.39V135.703H113.962V132.34Z" fill="#66929B"/>
<path opacity="0.06" d="M109.001 132.341H106.428V135.703H109.001V132.341Z" fill="#66929B"/>
</g>
<g opacity="0.06">
<path opacity="0.06" d="M134.174 137.571H131.602V140.933H134.174V137.571Z" fill="#66929B"/>
<path opacity="0.06" d="M139.32 137.571H136.747V140.933H139.32V137.571Z" fill="#66929B"/>
<path opacity="0.06" d="M113.962 137.571H111.39V140.933H113.962V137.571Z" fill="#66929B"/>
<path opacity="0.06" d="M109.001 137.571H106.428V140.933H109.001V137.571Z" fill="#66929B"/>
</g>
<g opacity="0.06">
<path opacity="0.06" d="M134.174 142.615H131.602V145.977H134.174V142.615Z" fill="#66929B"/>
<path opacity="0.06" d="M139.32 142.615H136.747V145.977H139.32V142.615Z" fill="#66929B"/>
<path opacity="0.06" d="M113.962 142.615H111.39V145.977H113.962V142.615Z" fill="#66929B"/>
<path opacity="0.06" d="M109.001 142.615H106.428V145.978H109.001V142.615Z" fill="#66929B"/>
</g>
<g opacity="0.06">
<path opacity="0.06" d="M134.174 147.845H131.602V151.207H134.174V147.845Z" fill="#66929B"/>
<path opacity="0.06" d="M139.32 147.845H136.747V151.207H139.32V147.845Z" fill="#66929B"/>
<path opacity="0.06" d="M113.962 147.845H111.39V151.207H113.962V147.845Z" fill="#66929B"/>
<path opacity="0.06" d="M109.001 147.845H106.428V151.207H109.001V147.845Z" fill="#66929B"/>
</g>
<path opacity="0.06" d="M109.001 127.296H106.428V130.845H109.001V127.296Z" fill="#66929B"/>
<path opacity="0.06" d="M109.001 117.021H106.428V120.571H109.001V117.021Z" fill="#66929B"/>
<path opacity="0.06" d="M113.963 117.021H111.39V120.571H113.963V117.021Z" fill="#66929B"/>
<path opacity="0.06" d="M109.001 163.35H106.428V166.713H109.001V163.35Z" fill="#66929B"/>
<path opacity="0.06" d="M109.001 152.889H106.428V156.439H109.001V152.889Z" fill="#66929B"/>
<path opacity="0.06" d="M119.107 142.615H116.535V145.977H119.107V142.615Z" fill="#66929B"/>
<path opacity="0.06" d="M119.107 117.021H116.535V120.571H119.107V117.021Z" fill="#66929B"/>
<path opacity="0.06" d="M109.001 158.12H106.428V161.482H109.001V158.12Z" fill="#66929B"/>
<path opacity="0.06" d="M119.107 147.845H116.535V151.207H119.107V147.845Z" fill="#66929B"/>
<path opacity="0.06" d="M129.213 117.021H126.641V120.571H129.213V117.021Z" fill="#66929B"/>
<path opacity="0.06" d="M139.32 117.021H136.747V120.571H139.32V117.021Z" fill="#66929B"/>
<path opacity="0.06" d="M134.174 117.021H131.602V120.571H134.174V117.021Z" fill="#66929B"/>
<path opacity="0.06" d="M124.068 117.021H121.496V120.571H124.068V117.021Z" fill="#66929B"/>
<g opacity="0.06">
<path opacity="0.06" d="M153.835 111.791H151.079V115.154H153.835V111.791Z" fill="#52738A"/>
<path opacity="0.06" d="M153.835 224.998H151.079V228.547H153.835V224.998Z" fill="#52738A"/>
<path opacity="0.06" d="M153.835 240.503H151.079V244.052H153.835V240.503Z" fill="#52738A"/>
<path opacity="0.06" d="M153.835 230.228H151.079V233.591H153.835V230.228Z" fill="#52738A"/>
<path opacity="0.06" d="M153.835 235.272H151.079V238.635H153.835V235.272Z" fill="#52738A"/>
<path opacity="0.06" d="M148.874 240.503H146.118V244.052H148.874V240.503Z" fill="#52738A"/>
<path opacity="0.06" d="M153.835 199.218H151.079V202.58H153.835V199.218Z" fill="#52738A"/>
<path opacity="0.06" d="M153.835 188.943H151.079V192.306H153.835V188.943Z" fill="#52738A"/>
<path opacity="0.06" d="M153.835 204.449H151.079V207.811H153.835V204.449Z" fill="#52738A"/>
<path opacity="0.06" d="M153.835 194.174H151.079V197.723H153.835V194.174Z" fill="#52738A"/>
<path opacity="0.06" d="M153.835 209.493H151.079V213.042H153.835V209.493Z" fill="#52738A"/>
<path opacity="0.06" d="M153.835 214.723H151.079V218.273H153.835V214.723Z" fill="#52738A"/>
<path opacity="0.06" d="M153.835 219.767H151.079V223.316H153.835V219.767Z" fill="#52738A"/>
<path opacity="0.06" d="M148.874 111.792H146.118V115.154H148.874V111.792Z" fill="#52738A"/>
<path opacity="0.06" d="M148.874 245.547H146.118V255.635H148.874V245.547Z" fill="#52738A"/>
<path opacity="0.06" d="M153.835 245.547H151.079V255.635H153.835V245.547Z" fill="#52738A"/>
<path opacity="0.06" d="M153.835 158.12H151.079V161.482H153.835V158.12Z" fill="#52738A"/>
<path opacity="0.06" d="M153.835 163.351H151.079V166.713H153.835V163.351Z" fill="#52738A"/>
<path opacity="0.06" d="M153.835 168.394H151.079V171.944H153.835V168.394Z" fill="#52738A"/>
<path opacity="0.06" d="M153.835 183.9H151.079V187.449H153.835V183.9Z" fill="#52738A"/>
<path opacity="0.06" d="M153.835 152.889H151.079V156.439H153.835V152.889Z" fill="#52738A"/>
<path opacity="0.06" d="M153.835 178.669H151.079V182.032H153.835V178.669Z" fill="#52738A"/>
<path opacity="0.06" d="M153.835 173.625H151.079V177.174H153.835V173.625Z" fill="#52738A"/>
<path opacity="0.06" d="M153.835 117.022H151.079V120.571H153.835V117.022Z" fill="#52738A"/>
<path opacity="0.06" d="M153.835 127.296H151.079V130.845H153.835V127.296Z" fill="#52738A"/>
<path opacity="0.06" d="M153.835 122.065H151.079V125.615H153.835V122.065Z" fill="#52738A"/>
<path opacity="0.06" d="M153.835 132.34H151.079V135.703H153.835V132.34Z" fill="#52738A"/>
<path opacity="0.06" d="M153.835 142.615H151.079V145.977H153.835V142.615Z" fill="#52738A"/>
<path opacity="0.06" d="M153.835 147.845H151.079V151.208H153.835V147.845Z" fill="#52738A"/>
<path opacity="0.06" d="M153.835 137.571H151.079V140.933H153.835V137.571Z" fill="#52738A"/>
<path opacity="0.06" d="M148.874 204.449H146.118V207.811H148.874V204.449Z" fill="#52738A"/>
<path opacity="0.06" d="M148.874 219.767H146.118V223.316H148.874V219.767Z" fill="#52738A"/>
<path opacity="0.06" d="M148.874 209.493H146.118V213.042H148.874V209.493Z" fill="#52738A"/>
<path opacity="0.06" d="M148.874 214.723H146.118V218.273H148.874V214.723Z" fill="#52738A"/>
<path opacity="0.06" d="M148.874 224.998H146.118V228.547H148.874V224.998Z" fill="#52738A"/>
<path opacity="0.06" d="M148.874 235.272H146.118V238.635H148.874V235.272Z" fill="#52738A"/>
<path opacity="0.06" d="M148.874 230.228H146.118V233.591H148.874V230.228Z" fill="#52738A"/>
<path opacity="0.06" d="M148.874 178.669H146.118V182.032H148.874V178.669Z" fill="#52738A"/>
<path opacity="0.06" d="M148.874 173.625H146.118V177.174H148.874V173.625Z" fill="#52738A"/>
<path opacity="0.06" d="M148.874 183.9H146.118V187.449H148.874V183.9Z" fill="#52738A"/>
<path opacity="0.06" d="M148.874 188.943H146.118V192.306H148.874V188.943Z" fill="#52738A"/>
<path opacity="0.06" d="M148.874 199.218H146.118V202.58H148.874V199.218Z" fill="#52738A"/>
<path opacity="0.06" d="M148.874 194.174H146.118V197.723H148.874V194.174Z" fill="#52738A"/>
<path opacity="0.06" d="M148.874 168.394H146.118V171.944H148.874V168.394Z" fill="#52738A"/>
<path opacity="0.06" d="M148.874 163.351H146.118V166.713H148.874V163.351Z" fill="#52738A"/>
<path opacity="0.06" d="M148.874 147.845H146.118V151.208H148.874V147.845Z" fill="#52738A"/>
<path opacity="0.06" d="M148.874 132.34H146.118V135.703H148.874V132.34Z" fill="#52738A"/>
<path opacity="0.06" d="M148.874 137.571H146.118V140.933H148.874V137.571Z" fill="#52738A"/>
<path opacity="0.06" d="M148.874 142.615H146.118V145.977H148.874V142.615Z" fill="#52738A"/>
<path opacity="0.06" d="M148.874 152.889H146.118V156.439H148.874V152.889Z" fill="#52738A"/>
<path opacity="0.06" d="M148.874 158.12H146.118V161.482H148.874V158.12Z" fill="#52738A"/>
<path opacity="0.06" d="M148.874 122.065H146.118V125.615H148.874V122.065Z" fill="#52738A"/>
<path opacity="0.06" d="M148.874 117.022H146.118V120.571H148.874V117.022Z" fill="#52738A"/>
<path opacity="0.06" d="M148.874 127.296H146.118V130.845H148.874V127.296Z" fill="#52738A"/>
</g>
</g>
</g>
<g opacity="0.06">
<path opacity="0.06" d="M266.657 72H236.155V79.2856H266.657V72Z" fill="#D7EAF0"/>
<path opacity="0.06" d="M266.657 72H245.893V79.2856H266.657V72Z" fill="#7FA9B5"/>
<path opacity="0.06" d="M241.667 75.1758H239.646V79.2856H241.667V75.1758Z" fill="#7FA9B5"/>
<path opacity="0.06" d="M240.197 75.1758H239.646V79.2856H240.197V75.1758Z" fill="#B8D9DE"/>
<path opacity="0.06" d="M271.067 78.7256H231.745V88.6265H271.067V78.7256Z" fill="#D7EAF0"/>
<path opacity="0.06" d="M271.066 78.7256H243.688V88.6265H271.066V78.7256Z" fill="#7FA9B5"/>
<path opacity="0.06" d="M238.176 84.1426H235.971V88.626H238.176V84.1426Z" fill="#7FA9B5"/>
<path opacity="0.06" d="M236.522 84.1426H235.971V88.626H236.522V84.1426Z" fill="#B8D9DE"/>
<path opacity="0.06" d="M276.763 88.0662H227.151V255.635H276.763V88.0662Z" fill="#D7EAF0"/>
<path opacity="0.06" d="M276.763 88.0662H241.483V255.635H276.763V88.0662Z" fill="#7FA9B5"/>
<path opacity="0.06" d="M274.925 92.1753H243.321V95.1642H274.925V92.1753Z" fill="#52738A"/>
<path opacity="0.06" d="M240.014 92.1753H228.254V95.1642H240.014V92.1753Z" fill="#66929B"/>
<path opacity="0.06" d="M274.925 98.7136H243.321V101.703H274.925V98.7136Z" fill="#52738A"/>
<path opacity="0.06" d="M240.014 98.7136H228.254V101.703H240.014V98.7136Z" fill="#66929B"/>
<path opacity="0.06" d="M274.925 105.065H243.321V108.054H274.925V105.065Z" fill="#52738A"/>
<path opacity="0.06" d="M240.014 105.065H228.254V108.054H240.014V105.065Z" fill="#66929B"/>
<path opacity="0.06" d="M274.925 111.604H243.321V114.592H274.925V111.604Z" fill="#52738A"/>
<path opacity="0.06" d="M240.014 111.604H228.254V114.592H240.014V111.604Z" fill="#66929B"/>
<path opacity="0.06" d="M274.925 118.142H243.321V121.131H274.925V118.142Z" fill="#52738A"/>
<path opacity="0.06" d="M240.014 118.142H228.254V121.131H240.014V118.142Z" fill="#66929B"/>
<path opacity="0.06" d="M274.925 124.68H243.321V127.669H274.925V124.68Z" fill="#52738A"/>
<path opacity="0.06" d="M240.014 124.68H228.254V127.669H240.014V124.68Z" fill="#66929B"/>
<path opacity="0.06" d="M274.925 131.219H243.321V134.208H274.925V131.219Z" fill="#52738A"/>
<path opacity="0.06" d="M240.014 131.219H228.254V134.208H240.014V131.219Z" fill="#66929B"/>
<path opacity="0.06" d="M274.925 137.571H243.321V140.56H274.925V137.571Z" fill="#52738A"/>
<path opacity="0.06" d="M240.014 137.571H228.254V140.56H240.014V137.571Z" fill="#66929B"/>
<path opacity="0.06" d="M274.925 144.109H243.321V147.098H274.925V144.109Z" fill="#52738A"/>
<path opacity="0.06" d="M240.014 144.109H228.254V147.098H240.014V144.109Z" fill="#66929B"/>
<path opacity="0.06" d="M274.925 150.647H243.321V153.636H274.925V150.647Z" fill="#52738A"/>
<path opacity="0.06" d="M240.014 150.647H228.254V153.636H240.014V150.647Z" fill="#66929B"/>
<path opacity="0.06" d="M274.925 157.185H243.321V160.174H274.925V157.185Z" fill="#52738A"/>
<path opacity="0.06" d="M240.014 157.185H228.254V160.174H240.014V157.185Z" fill="#66929B"/>
<path opacity="0.06" d="M274.925 163.724H243.321V166.713H274.925V163.724Z" fill="#52738A"/>
<path opacity="0.06" d="M240.014 163.724H228.254V166.713H240.014V163.724Z" fill="#66929B"/>
<path opacity="0.06" d="M274.925 170.075H243.321V173.064H274.925V170.075Z" fill="#52738A"/>
<path opacity="0.06" d="M240.014 170.075H228.254V173.064H240.014V170.075Z" fill="#66929B"/>
<path opacity="0.06" d="M274.925 176.614H243.321V179.602H274.925V176.614Z" fill="#52738A"/>
<path opacity="0.06" d="M240.014 176.614H228.254V179.602H240.014V176.614Z" fill="#66929B"/>
<path opacity="0.06" d="M274.925 183.152H243.321V186.141H274.925V183.152Z" fill="#52738A"/>
<path opacity="0.06" d="M240.014 183.152H228.254V186.141H240.014V183.152Z" fill="#66929B"/>
<path opacity="0.06" d="M274.925 189.69H243.321V192.679H274.925V189.69Z" fill="#52738A"/>
<path opacity="0.06" d="M240.014 189.69H228.254V192.679H240.014V189.69Z" fill="#66929B"/>
<path opacity="0.06" d="M274.925 196.228H243.321V199.217H274.925V196.228Z" fill="#52738A"/>
<path opacity="0.06" d="M240.014 196.228H228.254V199.217H240.014V196.228Z" fill="#66929B"/>
<path opacity="0.06" d="M274.925 202.58H243.321V205.569H274.925V202.58Z" fill="#52738A"/>
<path opacity="0.06" d="M240.014 202.58H228.254V205.569H240.014V202.58Z" fill="#66929B"/>
<path opacity="0.06" d="M274.925 209.118H243.321V212.107H274.925V209.118Z" fill="#52738A"/>
<path opacity="0.06" d="M240.014 209.118H228.254V212.107H240.014V209.118Z" fill="#66929B"/>
<path opacity="0.06" d="M274.925 215.656H243.321V218.645H274.925V215.656Z" fill="#52738A"/>
<path opacity="0.06" d="M240.014 215.656H228.254V218.645H240.014V215.656Z" fill="#66929B"/>
<path opacity="0.06" d="M274.925 222.195H243.321V225.184H274.925V222.195Z" fill="#52738A"/>
<path opacity="0.06" d="M240.014 222.195H228.254V225.184H240.014V222.195Z" fill="#66929B"/>
<path opacity="0.06" d="M274.925 228.733H243.321V231.909H274.925V228.733Z" fill="#52738A"/>
<path opacity="0.06" d="M240.014 228.733H228.254V231.909H240.014V228.733Z" fill="#66929B"/>
<path opacity="0.06" d="M274.925 235.085H243.321V238.074H274.925V235.085Z" fill="#52738A"/>
<path opacity="0.06" d="M240.014 235.085H228.254V238.074H240.014V235.085Z" fill="#66929B"/>
<path opacity="0.06" d="M258.388 243.492H254.346V255.821H258.388V243.492Z" fill="#52738A"/>
<path opacity="0.06" d="M263.533 243.492H259.49V255.821H263.533V243.492Z" fill="#52738A"/>
<path opacity="0.06" d="M264.635 242.184H253.059V245.36H264.635V242.184Z" fill="#96BDBD"/>
</g>
<g opacity="0.06">
<g opacity="0.06">
<path opacity="0.06" d="M205.835 108.428H175.333V114.966H205.835V108.428Z" fill="#B5CFE8"/>
<path opacity="0.06" d="M206.019 108.428H199.956V114.966H206.019V108.428Z" fill="#7FA9B5"/>
<path opacity="0.06" d="M207.489 105.439H173.496V109.922H207.489V105.439Z" fill="#D7EAF0"/>
</g>
<g opacity="0.06">
<path opacity="0.06" d="M213.186 117.021H168.167V123.559H213.186V117.021Z" fill="#B5CFE8"/>
<path opacity="0.06" d="M213.002 117.021H204.182V123.559H213.002V117.021Z" fill="#7FA9B5"/>
<path opacity="0.06" d="M215.574 112.911H165.595V118.702H215.574V112.911Z" fill="#D7EAF0"/>
</g>
<path opacity="0.06" d="M219.616 125.801H161.736V222.008H219.616V125.801Z" fill="#D7EAF0"/>
<path opacity="0.06" d="M219.616 125.801H208.224V222.008H219.616V125.801Z" fill="#7FA9B5"/>
<path opacity="0.06" d="M229.355 223.129H151.814V255.634H229.355V223.129Z" fill="#D7EAF0"/>
<path opacity="0.06" d="M229.355 213.788H151.814V226.678H229.355V213.788Z" fill="#B5CFE8"/>
<g opacity="0.06">
<path opacity="0.06" d="M162.838 213.976H156.591V255.821H162.838V213.976Z" fill="#52738A"/>
<path opacity="0.06" d="M174.23 213.975H167.983V255.821H174.23V213.975Z" fill="#52738A"/>
<path opacity="0.06" d="M185.439 213.975H179.192V255.821H185.439V213.975Z" fill="#52738A"/>
<path opacity="0.06" d="M196.832 213.975H190.584V255.821H196.832V213.975Z" fill="#52738A"/>
<path opacity="0.06" d="M208.04 213.975H201.793V255.821H208.04V213.975Z" fill="#52738A"/>
</g>
<path opacity="0.06" d="M229.171 212.667H214.104V255.633H229.171V212.667Z" fill="#7FA9B5"/>
<path opacity="0.06" d="M225.129 213.975H218.882V255.821H225.129V213.975Z" fill="#52738A"/>
<path opacity="0.7" d="M229.355 213.788H151.814V221.261H229.355V213.788Z" fill="#B5CFE8"/>
<path opacity="0.06" d="M231.376 212.667H149.792V218.458H231.376V212.667Z" fill="#D7EAF0"/>
<g opacity="0.06">
<path opacity="0.06" d="M168.535 129.538H164.308V139.812H168.535V129.538Z" fill="#B5CFE8"/>
<path opacity="0.06" d="M175.701 129.537H171.474V139.812H175.701V129.537Z" fill="#B5CFE8"/>
<path opacity="0.06" d="M183.05 129.537H178.824V139.812H183.05V129.537Z" fill="#B5CFE8"/>
<path opacity="0.06" d="M190.217 129.537H185.991V139.812H190.217V129.537Z" fill="#B5CFE8"/>
<path opacity="0.06" d="M197.383 129.537H193.156V139.812H197.383V129.537Z" fill="#B5CFE8"/>
<path opacity="0.06" d="M204.733 129.537H200.507V139.812H204.733V129.537Z" fill="#B5CFE8"/>
<path opacity="0.06" d="M216.125 129.537H211.899V139.812H216.125V129.537Z" fill="#52738A"/>
</g>
<g opacity="0.06">
<path opacity="0.06" d="M168.535 143.174H164.308V153.449H168.535V143.174Z" fill="#B5CFE8"/>
<path opacity="0.06" d="M175.701 143.174H171.474V153.449H175.701V143.174Z" fill="#B5CFE8"/>
<path opacity="0.06" d="M183.05 143.174H178.824V153.449H183.05V143.174Z" fill="#B5CFE8"/>
<path opacity="0.06" d="M190.217 143.174H185.991V153.449H190.217V143.174Z" fill="#B5CFE8"/>
<path opacity="0.06" d="M197.383 143.174H193.156V153.449H197.383V143.174Z" fill="#B5CFE8"/>
<path opacity="0.06" d="M204.733 143.174H200.507V153.449H204.733V143.174Z" fill="#B5CFE8"/>
<path opacity="0.06" d="M216.125 143.174H211.899V153.449H216.125V143.174Z" fill="#52738A"/>
</g>
<g opacity="0.06">
<path opacity="0.06" d="M168.535 156.812H164.308V167.086H168.535V156.812Z" fill="#B5CFE8"/>
<path opacity="0.06" d="M175.701 156.812H171.474V167.086H175.701V156.812Z" fill="#B5CFE8"/>
<path opacity="0.06" d="M183.05 156.812H178.824V167.086H183.05V156.812Z" fill="#B5CFE8"/>
<path opacity="0.06" d="M190.217 156.812H185.991V167.086H190.217V156.812Z" fill="#B5CFE8"/>
<path opacity="0.06" d="M197.383 156.812H193.156V167.086H197.383V156.812Z" fill="#B5CFE8"/>
<path opacity="0.06" d="M204.733 156.812H200.507V167.086H204.733V156.812Z" fill="#B5CFE8"/>
<path opacity="0.06" d="M216.125 156.812H211.899V167.086H216.125V156.812Z" fill="#52738A"/>
</g>
<g opacity="0.06">
<path opacity="0.06" d="M168.535 170.449H164.308V180.724H168.535V170.449Z" fill="#B5CFE8"/>
<path opacity="0.06" d="M175.701 170.449H171.474V180.723H175.701V170.449Z" fill="#B5CFE8"/>
<path opacity="0.06" d="M183.05 170.449H178.824V180.723H183.05V170.449Z" fill="#B5CFE8"/>
<path opacity="0.06" d="M190.217 170.449H185.991V180.723H190.217V170.449Z" fill="#B5CFE8"/>
<path opacity="0.06" d="M197.383 170.449H193.156V180.723H197.383V170.449Z" fill="#B5CFE8"/>
<path opacity="0.06" d="M204.733 170.449H200.507V180.723H204.733V170.449Z" fill="#B5CFE8"/>
<path opacity="0.06" d="M216.125 170.449H211.899V180.723H216.125V170.449Z" fill="#52738A"/>
</g>
<g opacity="0.06">
<path opacity="0.06" d="M168.535 183.899H164.308V194.173H168.535V183.899Z" fill="#B5CFE8"/>
<path opacity="0.06" d="M175.701 183.899H171.474V194.173H175.701V183.899Z" fill="#B5CFE8"/>
<path opacity="0.06" d="M183.05 183.899H178.824V194.173H183.05V183.899Z" fill="#B5CFE8"/>
<path opacity="0.06" d="M190.217 183.899H185.991V194.173H190.217V183.899Z" fill="#B5CFE8"/>
<path opacity="0.06" d="M197.383 183.899H193.156V194.173H197.383V183.899Z" fill="#B5CFE8"/>
<path opacity="0.06" d="M204.733 183.899H200.507V194.173H204.733V183.899Z" fill="#B5CFE8"/>
<path opacity="0.06" d="M216.125 183.899H211.899V194.173H216.125V183.899Z" fill="#52738A"/>
</g>
<g opacity="0.06">
<path opacity="0.06" d="M168.535 197.536H164.308V207.811H168.535V197.536Z" fill="#B5CFE8"/>
<path opacity="0.06" d="M175.701 197.536H171.474V207.811H175.701V197.536Z" fill="#B5CFE8"/>
<path opacity="0.06" d="M183.05 197.536H178.824V207.811H183.05V197.536Z" fill="#B5CFE8"/>
<path opacity="0.06" d="M190.217 197.536H185.991V207.811H190.217V197.536Z" fill="#B5CFE8"/>
<path opacity="0.06" d="M197.383 197.536H193.156V207.811H197.383V197.536Z" fill="#B5CFE8"/>
<path opacity="0.06" d="M204.733 197.536H200.507V207.811H204.733V197.536Z" fill="#B5CFE8"/>
<path opacity="0.06" d="M216.125 197.536H211.899V207.811H216.125V197.536Z" fill="#52738A"/>
</g>
<path opacity="0.7" d="M178.824 130.658H183.051V129.537H178.824V130.658ZM171.474 130.658H175.701V129.537H171.474V130.658ZM211.899 129.537V130.658H216.125V129.537H211.899ZM164.308 130.658H168.535V129.537H164.308V130.658ZM185.991 130.658H190.217V129.537H185.991V130.658ZM200.507 130.658H204.733V129.537H200.507V130.658ZM193.157 130.658H197.383V129.537H193.157V130.658Z" fill="#B5CFE8"/>
<path opacity="0.7" d="M185.991 144.295H190.217V143.174H185.991V144.295ZM178.824 144.295H183.051V143.174H178.824V144.295ZM171.474 144.295H175.701V143.174H171.474V144.295ZM164.308 144.295H168.535V143.174H164.308V144.295ZM211.899 143.174V144.295H216.125V143.174H211.899ZM193.157 144.295H197.383V143.174H193.157V144.295ZM200.507 144.295H204.733V143.174H200.507V144.295Z" fill="#B5CFE8"/>
<path opacity="0.7" d="M171.474 157.745H175.701V156.625H171.474V157.745ZM178.824 157.745H183.051V156.625H178.824V157.745ZM164.308 157.745H168.535V156.625H164.308V157.745ZM200.507 157.745H204.733V156.625H200.507V157.745ZM211.899 156.811V157.932H216.125V156.811H211.899ZM185.991 157.745H190.217V156.625H185.991V157.745ZM193.157 157.745H197.383V156.625H193.157V157.745Z" fill="#B5CFE8"/>
<path opacity="0.7" d="M171.474 171.383H175.701V170.449H171.474V171.383ZM185.991 171.383H190.217V170.449H185.991V171.383ZM164.308 171.383H168.535V170.449H164.308V171.383ZM178.824 171.383H183.051V170.449H178.824V171.383ZM211.899 170.449V171.57H216.125V170.449H211.899ZM200.507 171.383H204.733V170.449H200.507V171.383ZM193.157 171.383H197.383V170.449H193.157V171.383Z" fill="#B5CFE8"/>
<path opacity="0.7" d="M171.474 185.02H175.701V183.899H171.474V185.02ZM178.824 185.02H183.051V183.899H178.824V185.02ZM164.308 185.02H168.535V183.899H164.308V185.02ZM185.991 185.02H190.217V183.899H185.991V185.02ZM211.899 183.899V185.02H216.125V183.899H211.899ZM193.157 185.02H197.383V183.899H193.157V185.02ZM200.507 185.02H204.733V183.899H200.507V185.02Z" fill="#B5CFE8"/>
<path opacity="0.7" d="M178.824 198.657H183.051V197.536H178.824V198.657ZM185.991 198.657H190.217V197.536H185.991V198.657ZM164.308 198.657H168.535V197.536H164.308V198.657ZM171.474 198.657H175.701V197.536H171.474V198.657ZM211.899 197.536V198.657H216.125V197.536H211.899ZM200.507 198.657H204.733V197.536H200.507V198.657ZM193.157 198.657H197.383V197.536H193.157V198.657Z" fill="#B5CFE8"/>
<path opacity="0.7" d="M219.616 125.801H161.736V130.284H219.616V125.801Z" fill="#B5CFE8"/>
<path opacity="0.06" d="M222.74 121.691H158.429V127.482H222.74V121.691Z" fill="#D7EAF0"/>
</g>
<g opacity="0.06">
<g opacity="0.06">
<g opacity="0.06">
<path opacity="0.06" d="M50.7528 93.8569H49.4666V120.01H50.7528V93.8569Z" fill="#D7EAF0"/>
<path opacity="0.06" d="M50.753 93.8567H50.3855V120.01H50.753V93.8567Z" fill="#7FA9B5"/>
</g>
<g opacity="0.06">
<path opacity="0.06" d="M82.7246 110.857H55.8975V119.637H82.7246V110.857Z" fill="#D7EAF0"/>
<path opacity="0.06" d="M82.541 110.857H75.0073V119.637H82.541V110.857Z" fill="#7FA9B5"/>
<path opacity="0.06" d="M66.5549 113.659H63.0637V119.637H66.5549V113.659Z" fill="#7FA9B5"/>
<path opacity="0.06" d="M63.9825 113.659H63.0637V119.637H63.9825V113.659Z" fill="#B8D9DE"/>
</g>
<g opacity="0.06">
<path opacity="0.06" d="M98.1597 127.483H25.3958V134.395H98.1597V127.483Z" fill="#66929B"/>
<path opacity="0.06" d="M98.1594 141.867H25.3955V148.779H98.1594V141.867Z" fill="#66929B"/>
<path opacity="0.06" d="M98.1594 156.064H25.3955V162.976H98.1594V156.064Z" fill="#66929B"/>
<path opacity="0.06" d="M98.1594 170.449H25.3955V177.361H98.1594V170.449Z" fill="#66929B"/>
<path opacity="0.06" d="M98.1594 184.646H25.3955V191.558H98.1594V184.646Z" fill="#66929B"/>
<path opacity="0.06" d="M98.1594 199.031H25.3955V205.943H98.1594V199.031Z" fill="#66929B"/>
<path opacity="0.06" d="M98.1594 213.228H25.3955V220.14H98.1594V213.228Z" fill="#66929B"/>
<path opacity="0.06" d="M98.1594 227.613H25.3955V234.525H98.1594V227.613Z" fill="#66929B"/>
</g>
<path opacity="0.06" d="M99.6297 191.558H23.9258V198.844H99.6297V191.558Z" fill="#D7EAF0"/>
<path opacity="0.06" d="M99.6297 119.263H23.9258V127.483H99.6297V119.263Z" fill="#D7EAF0"/>
<path opacity="0.06" d="M99.6297 177.361H23.9258V184.646H99.6297V177.361Z" fill="#D7EAF0"/>
<path opacity="0.06" d="M99.6297 205.943H23.9258V213.229H99.6297V205.943Z" fill="#D7EAF0"/>
<path opacity="0.06" d="M99.6297 220.14H23.9258V227.426H99.6297V220.14Z" fill="#D7EAF0"/>
<path opacity="0.06" d="M99.6297 134.582H23.9258V141.867H99.6297V134.582Z" fill="#D7EAF0"/>
<path opacity="0.06" d="M99.6297 162.977H23.9258V170.262H99.6297V162.977Z" fill="#D7EAF0"/>
<path opacity="0.06" d="M99.6297 234.525H23.9258V253.953H99.6297V234.525Z" fill="#B8C7D6"/>
<path opacity="0.06" d="M99.6297 148.779H23.9258V156.064H99.6297V148.779Z" fill="#D7EAF0"/>
<path opacity="0.06" d="M99.6298 220.14H82.7251V227.426H99.6298V220.14Z" fill="#7FA9B5"/>
<path opacity="0.06" d="M99.6298 119.263H82.7251V127.483H99.6298V119.263Z" fill="#7FA9B5"/>
<path opacity="0.06" d="M99.6298 191.558H82.7251V198.844H99.6298V191.558Z" fill="#7FA9B5"/>
<path opacity="0.06" d="M99.6298 177.361H82.7251V184.646H99.6298V177.361Z" fill="#7FA9B5"/>
<path opacity="0.06" d="M99.6298 205.943H82.7251V213.229H99.6298V205.943Z" fill="#7FA9B5"/>
<path opacity="0.6" d="M99.6298 234.525H82.7251V253.953H99.6298V234.525Z" fill="#7FA9B5"/>
<path opacity="0.06" d="M99.6298 134.582H82.7251V141.867H99.6298V134.582Z" fill="#7FA9B5"/>
<path opacity="0.06" d="M99.6298 148.779H82.7251V156.064H99.6298V148.779Z" fill="#7FA9B5"/>
<path opacity="0.06" d="M99.6298 162.977H82.7251V170.262H99.6298V162.977Z" fill="#7FA9B5"/>
</g>
<g opacity="0.06">
<path opacity="0.06" d="M54.6115 241.623H50.5691V253.953H54.6115V241.623Z" fill="#52738A"/>
<path opacity="0.06" d="M59.9401 241.623H55.8977V253.953H59.9401V241.623Z" fill="#52738A"/>
<path opacity="0.06" d="M61.0426 240.315H49.4666V243.491H61.0426V240.315Z" fill="#D7EAF0"/>
</g>
</g>
</g>
<path d="M233.581 247.975C233.581 247.975 232.663 248.909 232.663 249.282C232.663 249.656 232.663 253.392 233.03 253.766C233.398 254.139 234.5 254.326 234.133 254.7C233.949 255.074 231.744 254.887 230.274 254.887C229.906 254.887 229.355 251.524 229.171 250.964C228.988 250.216 228.069 248.722 228.253 248.162C228.436 247.975 229.171 247.414 229.906 246.854C230.641 246.293 231.376 245.173 231.376 245.173L233.581 247.975Z" fill="#FFC6BD"/>
<path d="M246.26 250.403L245.341 252.832C245.341 253.205 244.974 254.14 244.974 254.513C244.974 255.821 250.854 253.392 249.567 252.832C249.384 252.832 249.016 252.271 249.016 251.898C249.016 251.151 249.567 250.403 249.567 250.403H246.26Z" fill="#FFC6BD"/>
<path d="M254.345 203.701L256.366 209.305C256.366 209.305 257.652 222.569 256.917 230.415C256.55 233.777 249.384 251.524 249.384 251.524L245.709 250.964L250.486 229.854L248.649 221.821L246.076 205.943L254.345 203.701Z" fill="#211E27"/>
<path d="M244.422 203.887L242.585 210.051L239.829 228.732L230.458 246.106C230.458 246.106 231.928 248.347 233.397 248.721L246.627 231.161L253.793 209.117L253.61 204.26L244.422 203.887Z" fill="#1C1921"/>
<path d="M258.939 201.272C258.02 199.031 256.55 195.294 256.366 195.108L254.896 186.328L250.486 185.767C250.486 185.767 252.324 195.294 252.508 195.855C252.691 196.228 256.55 204.261 258.204 207.063C258.204 205.195 258.387 203.14 258.939 201.272Z" fill="#F8A492"/>
<path d="M256.366 193.053L251.221 193.613C251.221 193.613 251.038 189.317 251.038 187.262C251.038 184.833 251.405 181.657 251.773 181.657C252.508 181.844 253.61 182.218 254.161 183.152C256.366 186.328 256.366 193.053 256.366 193.053Z" fill="#D9F9F7"/>
<path d="M229.906 246.854C229.906 246.854 231.928 253.019 232.663 253.392C232.846 253.392 234.133 253.766 234.316 254.326C234.316 254.7 234.133 254.887 233.765 254.887H229.723C229.723 254.887 229.171 252.085 228.988 250.964C228.988 250.964 227.701 247.975 227.885 247.788C228.253 247.414 229.906 246.854 229.906 246.854Z" fill="#454745"/>
<path d="M244.79 254.887L245.525 252.645C245.525 252.645 246.995 253.205 247.73 253.205C248.465 253.019 249.751 252.645 249.751 252.645C252.507 253.579 254.896 254.139 254.345 254.887H244.79Z" fill="#454745"/>
<path d="M244.974 181.284C244.974 181.284 242.217 181.657 241.482 182.218C240.747 182.778 238.175 185.58 238.175 185.58C238.175 185.58 243.32 200.712 243.136 203.327C242.952 205.943 242.401 210.052 242.401 210.052C242.401 210.052 252.507 210.613 256.366 209.118C256.366 209.118 255.08 202.954 255.08 201.459C255.08 199.778 254.345 183.899 253.977 182.965C253.426 182.218 252.507 181.657 250.67 181.284C248.832 180.91 244.974 181.284 244.974 181.284Z" fill="#DEFFFE"/>
<path d="M234.868 190.998L239.461 194.547C239.461 194.547 241.483 192.679 242.401 190.437C243.504 188.196 243.136 181.657 242.034 181.844C239.645 182.591 234.868 190.998 234.868 190.998Z" fill="#D9F9F7"/>
<path d="M244.973 181.284L247.362 182.965L246.26 185.02L244.238 181.47L244.973 181.284Z" fill="#BFD8D8"/>
<path d="M247.363 182.965L248.281 185.954L248.465 183.339L248.281 183.152L247.363 180.537V182.965Z" fill="#FFC6BD"/>
<path d="M247.913 185.02L249.751 210.053H250.67L248.281 185.207V186.141L247.913 185.02Z" fill="#BFD8D8"/>
<path d="M249.567 181.097L248.097 182.965L249.383 184.273L250.118 181.284L249.567 181.097Z" fill="#BFD8D8"/>
<path d="M253.242 189.503H250.302V190.064H253.242V189.503Z" fill="white"/>
<path d="M256.917 191.371L254.712 191.558V193.053L256.917 192.866V191.371Z" fill="#BFD8D8"/>
<path d="M248.098 183.899C247.179 184.086 245.893 182.404 245.158 181.284C245.158 181.284 245.341 180.35 245.341 179.229C245.341 178.668 245.525 177.921 245.525 177.174C245.525 176.987 249.751 178.295 249.751 178.295C249.751 178.295 249.2 179.602 249.2 180.91C249.2 181.097 249.2 181.097 249.2 181.097C249.568 181.844 249.016 183.712 248.098 183.899Z" fill="#F8A492"/>
<path d="M249.384 181.284C249.2 181.284 249.017 181.284 249.017 181.284C246.444 181.097 245.893 178.108 245.893 177.361C246.628 177.548 249.935 178.482 249.935 178.482C249.935 178.482 249.384 179.789 249.384 181.097C249.384 181.097 249.384 181.097 249.384 181.284Z" fill="#EF8978"/>
<path d="M244.973 172.317C244.606 173.811 245.708 178.108 246.811 178.855C248.465 180.163 251.037 180.163 252.14 178.108C253.242 176.24 251.588 170.822 250.302 170.075C248.465 168.954 245.341 170.075 244.973 172.317Z" fill="#F8A492"/>
<path d="M249.2 174.559C249.2 174.933 249.384 175.12 249.016 175.306C249.384 175.306 249.384 174.746 249.2 174.559Z" fill="#75271A"/>
<path d="M248.832 174.372C248.281 174.372 248.465 175.306 249.016 175.306C249.567 175.119 249.383 174.185 248.832 174.372Z" fill="#75271A"/>
<path d="M250.854 174.185C250.854 174.559 251.038 174.746 251.405 174.933C251.038 174.933 250.854 174.559 250.854 174.185Z" fill="#75271A"/>
<path d="M251.037 173.812C251.588 173.625 251.772 174.559 251.221 174.746C250.853 174.933 250.67 173.998 251.037 173.812Z" fill="#75271A"/>
<path d="M248.465 173.998C248.649 173.998 248.649 173.811 248.832 173.811C249.016 173.811 249.016 173.624 249.2 173.624V173.438C249.016 173.251 248.832 173.438 248.649 173.438C248.465 173.624 248.281 173.624 248.281 173.811C248.097 173.811 248.281 173.998 248.465 173.998Z" fill="#75271A"/>
<path d="M251.221 173.251C251.038 173.251 251.038 173.251 250.854 173.251C250.67 173.251 250.486 173.251 250.486 173.064V172.877C250.67 172.691 250.854 172.691 251.038 172.691C251.221 172.691 251.405 172.691 251.589 172.877C251.589 173.064 251.405 173.251 251.221 173.251Z" fill="#75271A"/>
<path d="M249.384 177.174C249.384 177.174 249.567 177.361 249.751 177.361C249.935 177.361 249.935 177.361 250.119 177.174C250.119 177.361 249.935 177.361 249.751 177.361C249.567 177.547 249.567 177.361 249.384 177.174Z" fill="#75271A"/>
<path d="M249.567 176.24C249.751 176.427 250.119 176.614 250.302 176.614C250.486 176.614 250.486 176.614 250.67 176.614C250.67 176.427 250.486 176.053 250.486 176.053C250.486 176.053 251.037 176.24 251.037 176.053C250.854 175.119 250.486 173.998 249.935 173.251C250.119 174.185 250.486 175.119 250.67 175.867C250.486 175.867 250.302 175.867 250.119 175.867C250.119 175.867 250.302 176.427 250.302 176.614C250.302 176.614 250.119 176.427 249.567 176.24Z" fill="#75271A"/>
<path d="M250.486 176.427C250.486 176.427 250.303 176.8 250.119 176.8C249.935 176.8 249.935 176.8 249.751 176.8C249.568 176.8 249.384 176.614 249.384 176.427C249.384 176.24 249.384 176.053 249.384 176.053C249.384 176.053 249.935 176.614 250.486 176.427Z" fill="#75271A"/>
<path d="M250.118 176.987C249.935 176.987 249.935 176.987 249.751 176.987C249.567 176.987 249.383 176.8 249.383 176.614C249.751 176.614 250.118 176.614 250.118 176.987Z" fill="#FF98B9"/>
<path d="M251.221 171.383C251.037 171.01 250.67 170.636 250.486 170.636C250.302 170.636 250.118 171.196 249.751 171.383C249.016 171.57 248.648 171.01 247.546 171.196C246.076 171.383 245.708 172.691 246.076 174.559C246.443 176.24 245.341 176.614 245.341 176.614C245.341 176.614 243.871 172.878 244.79 171.57C245.708 170.076 248.097 168.955 249.935 169.889C250.853 170.076 251.221 171.383 251.221 171.383Z" fill="#75271A"/>
<path d="M246.26 175.68C246.26 175.68 245.158 174.372 244.606 174.746C244.055 175.119 244.974 176.987 245.709 177.361C246.444 177.548 246.628 176.801 246.628 176.801L246.26 175.68Z" fill="#F8A492"/>
<path d="M244.79 175.306C245.341 175.493 245.709 175.866 245.893 176.427C245.709 176.24 245.525 176.24 245.158 176.427C245.341 176.427 245.525 176.427 245.709 176.614C245.893 176.8 245.893 176.8 246.076 176.987C246.076 176.987 246.26 176.987 246.076 176.987C246.076 176.24 245.525 175.306 244.79 175.306Z" fill="#75271A"/>
<path d="M251.036 170.448C250.669 170.448 248.28 171.009 247.361 171.569C246.443 172.129 244.789 173.998 244.789 173.998C244.789 173.998 243.503 170.448 246.443 169.327C249.566 168.02 251.036 170.448 251.036 170.448Z" fill="#359591"/>
<path d="M244.974 173.998C244.974 173.998 246.444 171.009 247.546 170.262C248.465 169.515 251.037 168.581 252.691 168.954C253.977 169.328 251.405 171.383 251.405 171.383C251.405 171.383 251.221 171.009 250.854 170.822C250.119 170.635 248.649 171.196 247.914 171.57C246.627 172.13 244.974 173.998 244.974 173.998Z" fill="#FFC727"/>
<path d="M244.974 173.998C244.974 173.998 246.444 171.009 247.546 170.262C248.465 169.515 251.037 168.581 252.691 168.954C253.977 169.328 251.405 171.383 251.405 171.383C251.405 171.383 251.221 171.009 250.854 170.822C250.119 170.635 248.649 171.196 247.914 171.57C246.627 172.13 244.974 173.998 244.974 173.998Z" fill="#6CC8C1"/>
<path d="M259.49 198.657H239.094V216.591H259.49V198.657Z" fill="#E8E8E9"/>
<path d="M259.489 198.657H251.772V216.591H259.489V198.657Z" fill="#DADADC"/>
<path d="M244.607 212.294C244.239 211.547 243.504 210.239 243.504 210.239C242.769 209.492 231.377 199.404 232.112 197.723C232.295 197.163 235.97 190.251 235.97 190.251L239.645 193.053L236.705 198.284C237.073 198.657 243.504 206.69 243.504 206.69C243.504 206.69 245.342 208.745 245.525 208.932C245.709 208.932 245.893 208.932 247.363 209.305C247.73 209.492 248.281 209.866 248.281 209.866C248.281 209.866 248.833 210.426 248.833 210.613C248.833 210.8 248.465 210.8 248.465 210.8C248.281 210.8 248.098 210.426 247.914 210.426C247.73 210.426 247.363 210.613 247.179 210.613C247.179 210.613 247.73 211.36 248.465 211.921C248.649 212.107 248.833 212.481 248.649 212.855C248.649 213.042 248.465 212.855 248.465 213.228C248.281 213.415 248.098 213.602 247.914 213.789C247.73 213.976 247.546 214.349 247.363 214.536C247.179 214.723 246.811 214.723 246.628 214.536C246.26 214.162 246.076 213.976 246.076 213.976C245.709 213.602 244.974 213.041 244.607 212.294Z" fill="#F8A492"/>
<path d="M235.603 189.503L234.5 191.184L239.461 195.107L240.564 193.613L235.603 189.503Z" fill="#BFD8D8"/>
<path d="M290.566 257H34.434C33.1234 257 32 256.5 32 256C32 255.5 33.1234 255 34.434 255H290.566C291.877 255 293 255.5 293 256C293 256.625 292.064 257 290.566 257Z" fill="#5C8097"/>
<path d="M210.797 238.821L208.408 241.063C208.408 241.063 207.489 240.129 205.652 239.942C203.814 239.755 177.722 241.997 177.722 241.997C177.722 241.997 174.231 241.436 172.945 241.063C171.659 240.689 83.4599 239.942 83.4599 239.942L82.3574 241.249C82.3574 241.249 80.52 239.942 77.7638 239.568C75.0076 239.195 50.3854 237.887 50.3854 237.887C50.3854 237.887 48.9154 239.195 47.9967 238.821C47.078 238.447 43.7705 235.458 43.7705 235.458L47.2617 217.898L69.4951 214.536L97.4247 213.228L179.376 216.03L210.062 217.711L212.451 230.788L210.797 238.821Z" fill="black"/>
<path d="M193.525 204.822C193.525 204.822 194.076 202.767 193.892 202.767C193.708 202.58 188.747 200.899 188.196 200.525C187.645 200.152 166.697 179.976 162.839 180.35C158.98 180.723 166.33 193.427 166.33 193.427L188.931 207.25L193.525 204.822Z" fill="#99E2E9"/>
<path d="M28.3357 228.547C28.3357 228.547 25.212 229.107 25.212 230.601C25.212 232.096 23.3745 237.887 32.7456 237.327C41.933 236.953 33.4806 227.799 28.3357 228.547Z" fill="#2E2E2E"/>
<path d="M212.267 211.734L213.92 212.668C213.92 212.668 215.941 217.338 215.941 219.206C215.941 221.074 215.941 226.492 215.574 227.052C215.207 227.613 212.267 227.426 212.267 227.426L209.694 227.052C209.694 227.052 210.245 212.855 212.267 211.734Z" fill="white"/>
<path d="M31.2758 200.899C30.9083 199.778 34.3995 188.382 34.3995 188.382H31.6433C32.562 185.207 33.8482 182.405 35.3182 180.723C35.3182 180.723 35.8695 176.613 45.6081 177.547L74.8239 176.987L141.892 177.734C141.892 177.734 161.736 176.987 165.595 181.284L188.747 203.327C188.747 203.327 193.341 204.074 194.076 202.393L213.369 210.986C213.369 210.986 214.104 211.173 214.288 212.481C214.288 212.481 212.267 212.855 212.083 214.909C211.899 216.964 211.716 226.492 212.267 226.678C212.818 226.865 215.942 226.678 216.126 226.118C216.126 226.118 216.309 226.492 215.942 226.865C215.574 227.239 214.472 227.426 213.737 227.613C213.002 227.613 206.019 227.799 206.019 227.799C206.019 227.799 200.323 220.14 190.585 221.821C180.662 223.316 177.539 228.92 176.069 233.964C174.599 239.008 174.599 241.25 172.577 241.436C170.556 241.623 82.5413 241.436 82.5413 241.436C82.5413 241.436 81.255 239.568 81.6225 238.634C81.99 237.513 81.6225 218.832 64.1665 219.953C46.7106 221.261 47.9968 238.821 47.9968 238.821L31.092 237.327C31.092 237.327 30.1733 236.206 30.1733 234.711C30.1733 233.03 30.1733 229.667 30.1733 229.667C30.1733 229.667 27.6008 230.415 27.6008 227.986V215.47C27.6008 215.47 27.7846 208.558 29.0708 200.712H31.2758V200.899Z" fill="#359591"/>
<path d="M172.393 192.492C172.393 192.492 165.227 185.02 163.573 184.273C161.919 183.339 159.531 181.471 155.305 181.471C151.262 181.471 147.587 181.097 147.587 181.097H143.177C143.177 181.097 141.891 180.91 141.707 182.031C141.34 183.152 141.707 200.899 141.707 200.899C141.707 200.899 141.707 202.02 142.259 202.206C142.994 202.393 171.474 202.767 171.474 202.767L172.393 192.492Z" fill="#99E2E9"/>
<path d="M214.656 225.931C214.656 225.931 219.8 226.865 219.8 228.733C219.8 230.601 219.8 237.887 219.8 237.887C219.8 237.887 219.065 241.063 215.758 241.063C212.267 241.25 208.408 241.063 208.408 241.063C208.408 241.063 210.613 230.041 205.652 227.986C204.733 227.612 214.656 225.931 214.656 225.931Z" fill="#393B3A"/>
<path d="M31.2754 200.899H28.8867C29.438 196.602 30.3567 192.119 31.4592 188.383H34.2154C34.2154 188.383 30.9079 199.778 31.2754 200.899Z" fill="#BA1F25"/>
<path d="M191.871 256.194C200.091 256.194 206.755 249.42 206.755 241.063C206.755 232.706 200.091 225.931 191.871 225.931C183.651 225.931 176.988 232.706 176.988 241.063C176.988 249.42 183.651 256.194 191.871 256.194Z" fill="#27262C"/>
<path d="M191.688 252.645C197.979 252.645 203.08 247.459 203.08 241.063C203.08 234.666 197.979 229.48 191.688 229.48C185.396 229.48 180.295 234.666 180.295 241.063C180.295 247.459 185.396 252.645 191.688 252.645Z" fill="#C3BFBE"/>
<path d="M195.73 233.403L193.158 236.392C193.158 236.392 192.79 237.139 192.055 237.139C191.504 237.139 190.953 236.579 190.953 236.579L188.197 233.403C188.197 233.403 187.829 233.029 188.197 232.656C188.564 232.282 189.85 231.908 191.688 231.908C193.525 231.908 196.281 232.282 195.73 233.403Z" fill="#27262C"/>
<path d="M195.73 248.722L193.158 245.733C193.158 245.733 192.79 244.985 192.055 244.985C191.504 244.985 190.953 245.546 190.953 245.546L188.197 248.722C188.197 248.722 187.829 249.095 188.197 249.469C188.564 249.842 189.85 250.216 191.688 250.216C193.525 250.403 196.281 249.842 195.73 248.722Z" fill="#27262C"/>
<path d="M184.154 237.326L187.094 239.942C187.094 239.942 187.829 240.315 187.829 241.062C187.829 241.623 187.277 242.183 187.277 242.183L184.154 244.985C184.154 244.985 183.786 245.359 183.419 244.985C183.051 244.612 182.684 243.304 182.684 241.436C182.5 239.381 183.051 236.579 184.154 237.326Z" fill="#27262C"/>
<path d="M199.221 237.326L196.281 239.942C196.281 239.942 195.546 240.315 195.546 241.062C195.546 241.623 196.097 242.183 196.097 242.183L199.221 244.985C199.221 244.985 199.589 245.359 199.956 244.985C200.324 244.612 200.691 243.304 200.691 241.436C200.691 239.381 200.324 236.579 199.221 237.326Z" fill="#27262C"/>
<path d="M64.1667 255.26C72.3867 255.26 79.0503 248.486 79.0503 240.129C79.0503 231.772 72.3867 224.997 64.1667 224.997C55.9468 224.997 49.2832 231.772 49.2832 240.129C49.2832 248.486 55.9468 255.26 64.1667 255.26Z" fill="#27262C"/>
<path d="M64.1663 251.711C70.4581 251.711 75.5586 246.525 75.5586 240.129C75.5586 233.732 70.4581 228.546 64.1663 228.546C57.8744 228.546 52.7739 233.732 52.7739 240.129C52.7739 246.525 57.8744 251.711 64.1663 251.711Z" fill="#C3BFBE"/>
<path d="M68.2084 232.469L65.636 235.458C65.636 235.458 65.2685 236.205 64.5335 236.205C63.9823 236.205 63.431 235.645 63.431 235.645L60.6748 232.469C60.6748 232.469 60.3073 232.095 60.6748 231.722C61.0423 231.348 62.3285 230.975 64.166 230.975C66.0035 230.975 68.7597 231.348 68.2084 232.469Z" fill="#27262C"/>
<path d="M68.2084 247.788L65.636 244.799C65.636 244.799 65.2685 244.052 64.5335 244.052C63.9823 244.052 63.431 244.612 63.431 244.612L60.6748 247.788C60.6748 247.788 60.3073 248.161 60.6748 248.535C61.0423 248.909 62.3285 249.282 64.166 249.282C66.0035 249.469 68.7597 248.909 68.2084 247.788Z" fill="#27262C"/>
<path d="M56.4492 236.392L59.3892 239.008C59.3892 239.008 60.1242 239.381 60.1242 240.129C60.1242 240.689 59.5729 241.249 59.5729 241.249L56.4492 244.052C56.4492 244.052 56.0817 244.425 55.7142 244.052C55.3467 243.678 54.9792 242.37 54.9792 240.502C54.9792 238.447 55.5305 235.645 56.4492 236.392Z" fill="#27262C"/>
<path d="M71.7003 236.392L68.7604 239.008C68.7604 239.008 68.0254 239.381 68.0254 240.129C68.0254 240.689 68.5766 241.249 68.5766 241.249L71.7003 244.052C71.7003 244.052 72.0678 244.425 72.4353 244.052C72.8028 243.678 73.1703 242.37 73.1703 240.502C73.1703 238.447 72.6191 235.645 71.7003 236.392Z" fill="#27262C"/>
<path d="M136.93 239.755H170.74C172.026 239.755 172.394 239.195 172.394 239.008C172.577 238.074 173.129 236.393 174.047 234.151C175.517 230.228 177.539 224.811 178.09 220.327C179.009 213.228 177.722 193.053 177.722 192.866H177.355C177.355 193.053 178.641 213.228 177.722 220.327C177.171 224.811 175.15 230.228 173.68 234.151C172.945 236.393 172.21 238.074 172.026 239.008C172.026 239.008 171.659 239.382 170.74 239.382H137.114C136.93 239.195 136.379 238.821 136.379 238.261C136.379 237.327 136.93 178.482 136.93 177.921H136.563C136.563 178.482 136.012 237.514 136.012 238.261C136.012 239.195 136.93 239.569 136.93 239.755Z" fill="#7FD6CB"/>
<path d="M168.719 201.273C168.719 202.58 169.821 203.701 171.107 203.701C172.394 203.701 173.496 202.58 173.496 201.273V194.361C173.496 193.053 172.394 191.932 171.107 191.932C169.821 191.932 168.719 193.053 168.719 194.361V201.273Z" fill="#D8D8D6"/>
<path d="M137.665 211.547C137.665 212.668 138.4 213.415 139.503 213.415H139.687C140.789 213.415 141.524 212.668 141.524 211.547V206.69C141.524 205.569 140.605 204.635 139.687 204.635H139.503C138.4 204.635 137.665 205.569 137.665 206.69V211.547Z" fill="#D8D8D6"/>
<path d="M138.584 211.173C138.584 211.547 138.951 211.734 139.135 211.734C139.503 211.734 139.686 211.36 139.686 211.173V206.129C139.686 205.756 139.319 205.569 139.135 205.569C138.768 205.569 138.584 205.942 138.584 206.129V211.173Z" fill="white"/>
<path d="M34.0317 202.02L38.6254 186.888C39.3604 184.833 40.0954 183.525 42.1166 183.525H128.294C130.315 183.525 131.969 185.02 131.969 186.888V202.02C131.969 203.888 130.315 205.756 128.294 205.756H37.5229C35.6855 205.756 34.0317 204.074 34.0317 202.02ZM42.1166 184.086C40.4629 184.086 39.7279 185.207 38.9929 187.262L34.3992 202.206C34.3992 203.888 35.8692 205.382 37.5229 205.382H128.294C129.948 205.382 131.602 203.888 131.602 202.02V186.888C131.602 185.207 130.132 183.899 128.294 183.899H42.1166V184.086Z" fill="#7FD6CB"/>
<path d="M167.983 200.338C167.983 201.646 169.086 202.767 170.372 202.767C171.658 202.767 172.761 201.646 172.761 200.338V193.426C172.761 192.119 171.658 190.998 170.372 190.998C169.086 190.998 167.983 192.119 167.983 193.426V200.338Z" fill="#E5E5E3"/>
<path d="M151.7 21.4C145.8 21.4 141 16.6 141 10.7C141 4.8 145.8 0 151.7 0C157.6 0 162.4 4.8 162.4 10.7C162.4 16.6 157.6 21.4 151.7 21.4ZM151.7 0.400002C146 0.400002 141.4 5 141.4 10.7C141.4 16.4 146 21 151.7 21C157.4 21 162 16.4 162 10.7C162 5 157.4 0.400002 151.7 0.400002Z" fill="#359591"/>
<path d="M139.7 17.7001V8.1001H137.4V4.1001H144.7V17.7001H139.7Z" fill="#359591"/>
<path d="M144.3 4.50005V17.4001H139.9V7.80005H137.7V4.50005H144.3ZM145 3.80005H144.3H137.7H137V4.50005V7.80005V8.50005H137.7H139.2V17.5V18.2001H139.9H144.3H145V17.5V4.50005V3.80005V3.80005Z" fill="#D7EAF0"/>
</svg>
