<svg width="300" height="260" viewBox="0 0 300 260" fill="none" xmlns="http://www.w3.org/2000/svg">
<path d="M22.6703 255C22.6703 255 -17.3095 200.073 8.91574 152.532C35.141 104.992 50.5461 172.609 110.699 141.358C170.852 110.106 246.961 53.6635 285.473 134.918C323.986 216.172 273.736 255 273.736 255H22.6703Z" fill="#FAFFFF"/>
<path d="M84.6577 191.889H66.5017C65.9515 191.889 65.5847 191.508 65.5847 190.936V190.364C65.5847 189.792 65.9515 189.411 66.5017 189.411H84.6577C85.2078 189.411 85.5746 189.792 85.5746 190.364V190.936C85.5746 191.508 85.2078 191.889 84.6577 191.889Z" fill="#FFDD00"/>
<path opacity="0.57" d="M84.6577 189.411H66.5017C65.9515 189.411 65.5847 189.029 65.5847 188.457V187.886C65.5847 187.314 65.9515 186.932 66.5017 186.932H84.6577C85.2078 186.932 85.5746 187.314 85.5746 187.886V188.457C85.5746 188.839 85.2078 189.411 84.6577 189.411Z" fill="#E8F4FC"/>
<path d="M85.2076 186.742H66.6849C65.9513 186.742 65.4011 186.17 65.4011 185.408V184.645C65.4011 183.882 65.9513 183.311 66.6849 183.311H85.2076C85.9412 183.311 86.4914 183.882 86.4914 184.645V185.408C86.4914 186.17 85.9412 186.742 85.2076 186.742Z" fill="#6CC8C1"/>
<path d="M227.888 166.535C228.071 166.535 232.289 166.725 232.839 174.542C233.389 182.549 240.542 182.549 238.891 190.746C237.241 198.944 227.337 194.559 227.337 194.559C227.337 194.559 211.932 188.077 218.718 178.545C225.137 169.013 227.888 166.535 227.888 166.535Z" fill="#75271A"/>
<path d="M223.853 245.651C222.936 246.223 222.752 247.748 222.752 249.654C222.752 250.417 222.752 250.036 222.752 251.179C222.752 253.467 222.569 253.848 222.752 254.992C222.936 255.755 223.119 256.327 223.486 256.899C224.036 257.471 224.77 257.471 225.137 257.661C225.687 257.852 226.604 257.852 226.97 257.471C227.154 257.089 226.97 254.992 226.787 253.467C226.237 249.464 225.87 245.842 224.586 245.651C224.403 245.46 224.036 245.651 223.853 245.651Z" fill="#4C423F"/>
<path d="M231.005 245.651C231.922 246.223 232.106 247.748 232.106 249.654C232.106 250.417 232.106 250.036 232.106 251.179C232.106 253.467 232.289 253.848 232.106 254.992C231.922 255.755 231.739 256.327 231.372 256.899C230.822 257.471 230.088 257.471 229.721 257.661C229.171 257.852 228.254 257.852 227.887 257.471C227.704 257.089 227.887 254.992 228.071 253.467C228.621 249.464 228.988 245.842 230.272 245.651C230.455 245.46 230.822 245.651 231.005 245.651Z" fill="#4C423F"/>
<path d="M224.953 245.651C225.504 249.082 226.237 254.802 226.237 255.946C226.237 256.327 226.054 256.708 226.054 256.708C225.87 256.899 225.687 257.089 224.587 256.708C224.22 256.517 223.67 256.327 222.936 255.946C223.119 256.327 223.303 256.517 223.486 256.708C224.036 257.28 224.77 257.28 225.137 257.471C225.687 257.661 226.604 257.661 226.971 257.28C227.154 256.899 226.971 254.802 226.787 253.277C226.421 249.654 226.054 246.413 224.953 245.651Z" fill="#353131"/>
<path d="M230.089 256.899C228.988 257.28 228.805 256.899 228.621 256.899C228.438 256.708 228.438 256.517 228.438 256.136C228.438 254.992 229.355 249.464 229.722 246.032C228.805 246.985 228.438 250.035 227.888 253.658C227.704 255.183 227.521 257.47 227.704 257.661C228.071 258.042 228.805 258.042 229.538 257.852C230.088 257.852 230.639 257.661 231.189 257.089C231.556 256.708 231.739 256.517 231.739 256.136C231.005 256.517 230.455 256.708 230.089 256.899Z" fill="#353131"/>
<path d="M226.42 216.101C227.704 218.008 226.604 220.105 225.87 224.68C225.32 229.065 226.237 228.112 225.87 235.737C225.87 237.072 225.503 244.507 225.687 247.748C225.687 248.701 225.87 249.082 225.87 249.654C226.054 251.179 226.42 251.561 226.42 252.704C226.42 253.276 226.42 254.42 225.687 254.611C225.137 254.802 224.22 254.039 223.669 253.276C223.486 252.895 223.303 252.514 223.303 250.417C223.303 248.892 223.303 248.701 223.303 247.938C223.303 246.604 223.119 245.841 222.752 244.316C222.752 244.316 222.202 241.838 221.652 239.55C221.469 238.216 220.735 234.593 221.285 230.399C221.469 228.874 221.835 227.921 221.835 225.824C221.835 224.489 221.835 223.727 221.652 222.011C221.102 217.245 220.919 214.767 221.652 214.195C222.752 213.623 225.32 214.385 226.42 216.101Z" fill="#F9B087"/>
<path d="M225.687 247.557C225.503 244.507 225.87 236.881 225.87 235.547C226.237 227.921 225.137 229.065 225.87 224.489C226.42 220.105 227.704 218.008 226.42 215.911C225.32 214.195 222.753 213.242 221.652 214.195C221.102 214.576 221.102 216.292 221.469 219.342C221.836 219.152 222.386 218.961 222.936 218.77C223.303 218.77 224.953 218.389 225.687 219.533C225.87 219.914 225.87 220.295 225.87 221.058C225.687 222.774 225.503 223.727 225.32 224.68C225.137 225.443 224.953 226.777 225.137 228.493C225.137 229.256 225.32 229.446 225.32 230.59C225.32 231.162 225.32 231.924 225.503 233.45C225.503 234.975 225.503 236.309 225.503 236.691C225.503 240.313 225.503 240.885 225.32 242.41C225.32 247.366 225.503 245.269 225.503 247.748C225.503 248.129 226.054 251.179 226.237 251.561C226.42 252.133 226.42 252.895 226.054 254.039C226.604 253.658 226.604 252.514 226.604 252.133C226.604 250.989 226.42 250.607 226.054 249.082C225.87 248.892 225.87 248.51 225.687 247.557Z" fill="#F39474"/>
<path d="M228.805 252.133C228.988 251.752 229.538 248.701 229.538 248.32C229.538 245.842 229.722 247.939 229.722 242.982C229.722 241.457 229.722 240.694 229.538 237.263C229.538 236.691 229.538 235.547 229.538 234.022C229.538 232.306 229.538 231.543 229.722 231.162C229.905 229.828 229.905 229.828 229.905 229.065C230.088 227.349 229.905 226.015 229.722 225.252C229.538 224.299 229.355 223.537 229.171 221.63C228.988 220.677 228.988 220.296 229.355 220.105C229.905 219.152 231.739 219.342 232.106 219.342C232.656 219.342 233.206 219.724 233.573 219.914C233.94 216.864 233.94 215.148 233.389 214.767C232.289 214.004 229.905 214.767 228.621 216.483C227.337 218.389 228.438 220.486 229.171 225.062C229.722 229.446 228.805 228.493 229.171 236.119C229.171 237.453 229.538 244.888 229.355 248.129C229.355 249.083 229.171 249.464 229.171 250.036C228.988 251.561 228.621 251.942 228.621 253.086C228.621 253.658 228.621 254.802 229.171 254.992C228.621 253.467 228.621 252.514 228.805 252.133Z" fill="#F39474"/>
<path d="M232.839 225.824C232.839 224.489 232.839 223.727 233.023 222.011C233.206 221.058 233.206 220.105 233.206 219.342C232.839 219.152 232.289 218.961 231.739 218.77C231.372 218.77 229.722 218.389 228.988 219.533C228.805 219.914 228.805 220.295 228.805 221.058C228.988 222.774 229.171 223.727 229.355 224.68C229.538 225.443 229.722 226.777 229.538 228.493C229.538 229.256 229.355 229.446 229.355 230.59C229.355 231.162 229.355 231.925 229.171 233.45C229.171 234.975 229.171 236.309 229.171 236.691C229.171 240.313 229.171 240.885 229.355 242.41C229.355 247.366 229.171 245.269 229.171 247.748C229.171 248.129 228.621 251.179 228.438 251.561C228.254 252.133 228.254 252.895 228.621 254.039C229.171 254.23 230.088 253.467 230.639 252.704C230.822 252.323 231.005 251.942 231.005 249.845C231.005 248.32 231.005 248.129 231.005 247.366C231.005 246.032 231.189 245.269 231.556 243.744C231.556 243.744 232.106 241.266 232.656 238.978C232.839 237.644 233.573 234.022 233.023 229.827C233.206 228.684 233.023 227.921 232.839 225.824Z" fill="#F9B087"/>
<path d="M232.839 197.037H222.386L220.001 179.117L225.87 177.401H228.988L234.856 179.117L232.839 197.037Z" fill="white"/>
<path d="M221.286 179.308C221.836 179.117 222.936 178.736 224.953 178.354C226.604 177.973 226.971 177.973 227.338 177.973C227.888 177.973 228.438 177.973 229.355 178.164C231.739 178.545 233.206 179.117 234.123 179.308C234.49 179.498 234.673 179.498 235.04 179.689C235.223 179.879 235.59 179.879 235.774 180.07C235.407 179.308 235.04 178.926 234.857 178.926L228.988 177.401H225.87L219.818 179.117C219.635 179.117 219.268 179.689 218.718 180.451C218.901 180.261 219.268 180.07 219.635 179.879C220.002 179.689 220.552 179.498 221.286 179.308Z" fill="#EDECEB"/>
<path d="M236.874 216.483C236.507 211.335 233.756 200.087 233.022 197.419C232.839 196.656 232.656 195.893 232.472 195.512C231.739 193.224 224.77 192.652 222.936 195.512C222.569 196.084 222.569 196.465 222.386 197.419C222.019 199.897 218.168 216.101 218.534 216.483C220.368 218.198 231.372 219.342 236.874 216.483Z" fill="#211E27"/>
<path d="M220.919 183.692C220.735 183.692 219.635 185.789 219.085 187.124C219.268 187.124 219.452 187.315 219.635 187.315C220.185 186.171 220.735 185.218 220.919 184.646L222.569 197.037H223.486C222.569 191.699 222.019 187.315 221.652 185.789C221.285 184.264 221.102 183.692 220.919 183.692Z" fill="#EDECEB"/>
<path d="M234.123 184.455C233.94 184.455 233.756 185.027 233.389 186.743C233.206 188.077 232.839 192.08 232.106 197.037H232.839L234.123 185.599C234.123 186.171 234.49 186.933 235.04 187.886C235.223 187.696 235.407 187.696 235.59 187.505C235.04 186.171 234.306 184.455 234.123 184.455Z" fill="#EDECEB"/>
<path d="M220.001 186.171C220.368 185.599 220.552 185.027 220.735 184.646L222.386 197.037H223.303C222.386 191.699 221.835 187.315 221.469 185.789C221.285 184.455 221.102 183.692 220.918 183.692C220.918 183.883 220.735 184.264 220.735 184.455C220.735 184.646 220.368 185.408 220.001 186.171Z" fill="#EDECEB"/>
<path d="M234.123 185.408C234.123 185.027 234.123 184.836 233.94 184.264C233.756 184.455 233.573 185.027 233.389 186.361C233.206 187.696 232.839 191.699 232.106 196.656H232.839L234.123 185.408C234.123 185.98 234.49 186.743 235.04 187.696C235.223 187.505 235.407 187.505 235.59 187.315C235.407 187.505 235.223 187.505 235.04 187.696C234.49 186.743 234.306 185.98 234.123 185.408Z" fill="#EDECEB"/>
<path d="M232.839 197.037C232.839 197.037 232.289 189.793 232.289 187.505C232.289 184.455 232.656 181.786 232.839 180.07C232.839 179.498 233.023 178.926 233.023 178.354L231.739 177.973C231.555 178.545 231.556 179.308 231.556 180.07C231.372 181.214 231.189 182.549 231.189 184.264C230.088 184.074 228.805 183.883 227.337 183.883C226.054 183.883 224.953 184.074 223.853 184.074C223.67 182.358 223.67 181.023 223.486 179.88C223.486 179.117 223.303 178.545 223.303 177.782L222.019 178.164C222.019 178.736 222.202 179.308 222.202 179.88C222.386 181.595 222.753 184.074 222.753 187.315C222.753 189.03 222.753 196.847 222.753 196.847C222.753 196.847 220.552 212.67 221.285 213.814C222.936 216.864 233.389 216.483 234.49 213.814C234.857 212.67 232.839 197.037 232.839 197.037Z" fill="#359591"/>
<path d="M223.486 184.836C223.486 184.836 224.77 184.455 226.787 184.455C229.355 184.455 231.189 185.027 231.189 185.027C231.189 185.027 231.556 180.833 232.106 178.354L231.739 178.164C231.556 178.736 231.556 179.498 231.556 180.261C231.372 181.405 231.189 182.739 231.189 184.455C230.088 184.264 228.805 184.074 227.337 184.074C226.054 184.074 224.953 184.264 223.853 184.264C223.67 182.549 223.67 181.214 223.486 180.07C223.486 179.308 223.303 178.736 223.303 177.973L222.936 178.164C223.119 178.736 223.119 179.498 223.303 180.07C223.486 183.883 223.486 184.836 223.486 184.836Z" fill="#9EE5DB"/>
<path d="M227.888 215.91C227.154 215.91 225.87 215.72 225.687 215.72C224.953 215.529 223.853 215.339 222.753 214.767C222.386 214.576 222.202 214.385 222.019 214.195C221.652 213.623 221.652 213.051 221.836 212.67C221.836 211.716 221.836 210.572 222.019 209.619C222.202 208.285 222.202 206.95 222.386 205.806C222.936 201.04 223.119 195.893 223.119 194.94C223.119 192.652 223.119 191.127 223.119 188.649C222.936 184.455 222.936 182.548 222.569 181.023C222.386 180.07 222.386 179.307 222.202 178.735H222.019C222.019 179.307 222.202 179.879 222.202 180.451C222.386 182.167 222.753 184.645 222.753 187.886C222.753 189.602 222.753 197.418 222.753 197.418C222.753 197.418 220.552 213.241 221.285 214.385C222.936 217.245 232.289 217.054 234.306 214.767C231.372 215.529 229.355 215.91 227.888 215.91Z" fill="#9EE5DB"/>
<path d="M233.023 197.418V197.037C231.372 197.228 229.538 196.465 227.521 196.465C225.503 196.465 223.486 196.656 222.386 196.274V197.228C222.386 197.228 222.386 197.228 222.386 197.418C223.669 197.609 225.503 197.99 226.971 197.99C229.355 198.181 231.372 197.8 233.023 197.418Z" fill="#9EE5DB"/>
<path d="M232.839 197.228C232.839 197.037 232.839 197.037 232.839 197.228L233.023 195.703C231.372 195.893 229.355 196.274 227.521 196.084C225.503 196.084 223.303 195.703 222.386 195.321L222.569 196.846C222.569 196.846 222.569 196.846 222.569 197.037C223.853 197.228 225.687 197.609 227.154 197.609C229.355 197.8 231.189 197.609 232.839 197.228Z" fill="#7FD6CB"/>
<path d="M236.691 184.074V183.692V184.074C236.507 184.074 236.324 184.264 236.14 184.074H235.774L236.14 184.264C236.324 184.264 236.324 184.455 236.324 184.646V185.027L236.507 184.646C236.507 184.455 236.691 184.455 236.874 184.455H237.241L236.874 184.264C236.691 184.264 236.691 184.074 236.691 184.074Z" fill="white"/>
<path d="M220.002 179.117C219.268 179.117 213.216 189.602 212.299 194.749C212.116 195.512 211.932 195.893 212.299 196.274C212.483 196.656 213.4 196.656 213.766 196.465C214.133 196.465 220.368 186.17 220.552 184.264C220.919 182.358 220.919 179.117 220.002 179.117Z" fill="#F9B087"/>
<path d="M212.299 196.465C212.666 197.228 224.036 199.706 225.137 199.516C225.503 199.516 225.687 198.181 225.503 197.609C225.32 197.228 215.233 193.606 213.95 193.987C212.666 194.559 212.116 195.512 212.299 196.465Z" fill="#F9B087"/>
<path d="M214.866 194.749C214.866 194.749 217.801 195.131 225.687 198.181C225.687 197.99 225.687 197.8 225.503 197.8C225.32 197.418 218.718 195.131 215.6 194.368C217.617 191.127 220.552 185.789 220.735 184.455C220.735 184.074 220.918 183.502 220.918 183.12C220.368 183.883 220.001 184.645 219.818 185.217C218.901 187.886 214.683 194.368 214.866 194.749Z" fill="#F39474"/>
<path d="M220.002 179.117C219.635 179.117 217.984 181.595 216.334 184.836C216.701 185.217 217.067 185.408 217.434 185.789C218.168 186.361 218.901 186.933 219.635 187.314C220.368 185.98 220.735 185.027 220.919 184.455C221.469 181.786 220.919 179.117 220.002 179.117Z" fill="white"/>
<path d="M219.085 186.933C219.268 186.933 219.452 187.124 219.635 187.124C219.818 186.743 220.002 186.552 220.185 186.171C220.552 185.408 220.919 184.646 220.919 184.455C220.919 184.264 221.102 183.883 221.102 183.692C220.735 183.502 219.635 185.599 219.085 186.933Z" fill="#EDECEB"/>
<path d="M220.002 179.117C219.818 179.117 219.452 179.689 218.718 180.451C218.901 180.261 219.268 180.07 219.635 179.879C219.818 179.689 220.185 179.689 220.552 179.498C220.369 179.307 220.185 179.117 220.002 179.117Z" fill="#EDECEB"/>
<path d="M223.853 197.609C224.22 197.228 224.77 197.419 225.32 197.609C225.87 197.8 226.237 198.372 226.237 198.944C226.42 199.516 226.237 200.85 225.87 201.231C225.32 201.803 223.853 201.422 223.119 200.85C222.202 200.088 223.119 198.372 223.853 197.609Z" fill="#F9B087"/>
<path d="M234.856 179.117C235.407 179.117 240.725 189.602 241.642 194.94C241.825 195.703 242.009 196.084 241.642 196.656C241.459 197.037 238.708 193.605 238.341 193.415C237.974 193.415 234.49 187.314 234.123 185.599C233.939 183.501 234.49 179.117 234.856 179.117Z" fill="#F9B087"/>
<path d="M238.158 192.843C237.974 193.796 245.127 201.422 246.227 200.85C246.227 200.85 247.327 201.041 247.511 200.469C247.878 199.325 241.275 191.127 240.175 191.127C238.891 191.127 238.158 191.89 238.158 192.843Z" fill="#F9B087"/>
<path d="M239.258 193.796C238.525 192.843 236.691 189.984 235.774 188.077C235.223 186.933 234.673 185.599 233.94 184.264C233.94 184.836 233.94 185.218 233.94 185.599C234.123 187.315 237.791 193.415 238.158 193.415C239.442 195.512 244.943 201.422 246.044 200.85C246.044 200.85 244.21 200.088 245.127 199.897C243.293 198.181 239.992 194.75 239.258 193.796Z" fill="#F39474"/>
<path d="M238.157 185.217C236.69 181.786 235.04 179.117 234.856 179.117C233.939 179.117 233.939 183.501 234.123 185.599C234.123 186.17 234.489 186.933 235.04 187.886C235.59 187.505 236.323 186.933 237.057 186.361C237.424 185.789 237.791 185.408 238.157 185.217Z" fill="white"/>
<path d="M235.774 180.261C235.59 180.07 235.59 179.88 235.407 179.689C235.407 179.689 235.407 179.498 235.223 179.498C235.04 179.498 234.857 179.689 234.857 180.07C235.04 180.07 235.223 180.261 235.407 180.261C235.223 179.88 235.59 180.07 235.774 180.261Z" fill="#EDECEB"/>
<path d="M234.123 184.455C234.123 184.836 234.123 185.217 234.123 185.599C234.123 186.171 234.49 186.933 235.04 187.886C235.223 187.696 235.407 187.696 235.59 187.505C235.04 186.171 234.306 184.455 234.123 184.455Z" fill="#EDECEB"/>
<path d="M253.746 200.659C253.746 201.231 249.528 201.231 248.061 201.231C246.41 201.231 245.126 200.85 245.126 200.087C245.126 199.516 246.41 198.944 248.061 198.944C249.528 199.134 253.746 199.897 253.746 200.659Z" fill="#F9B087"/>
<path d="M253.563 200.469C253.196 200.85 249.345 200.66 247.878 200.66C246.594 200.66 245.677 200.278 245.127 199.897C244.943 200.088 244.943 200.088 244.943 200.278C244.943 200.85 246.227 201.422 247.878 201.422C249.528 201.231 253.746 201.231 253.563 200.469C253.563 200.469 253.746 200.469 253.563 200.469Z" fill="#F39474"/>
<path d="M228.254 180.451L228.071 168.822C228.071 168.822 222.936 165.581 222.569 168.631C222.569 168.631 220.735 177.02 224.953 176.638V179.117C224.953 179.117 225.87 180.832 226.971 181.023C228.254 181.214 228.254 180.451 228.254 180.451Z" fill="#F8A492"/>
<path d="M227.887 172.063C227.887 172.063 226.603 170.729 226.236 168.441C226.236 168.441 224.402 169.966 221.835 169.776C219.267 169.585 219.634 165.01 221.285 165.01C222.935 165.01 226.236 166.916 226.236 166.916C226.236 166.916 228.254 165.391 229.171 167.678C230.088 170.157 228.62 172.254 228.62 172.254L227.887 172.063Z" fill="#75271A"/>
<path d="M225.137 171.873C225.137 171.873 225.137 172.063 225.137 171.873C225.137 172.254 225.137 172.635 225.32 172.635C224.953 172.635 224.953 172.254 225.137 171.873Z" fill="#75271A"/>
<path d="M225.32 171.682C225.87 171.682 225.687 172.635 225.32 172.635C224.77 172.635 224.953 171.682 225.32 171.682Z" fill="#75271A"/>
<path d="M223.303 171.873C223.303 172.254 223.12 172.635 222.936 172.635C223.303 172.635 223.303 172.063 223.303 171.873Z" fill="#75271A"/>
<path d="M223.119 171.491C222.569 171.301 222.386 172.445 222.936 172.445C223.303 172.445 223.486 171.491 223.119 171.491Z" fill="#75271A"/>
<path d="M225.87 171.301C225.687 171.301 225.687 171.11 225.504 171.11C225.32 171.11 225.32 170.919 225.137 170.919V170.729C225.32 170.538 225.503 170.729 225.687 170.729C225.87 170.729 226.054 170.919 226.054 171.11C226.237 171.11 226.054 171.301 225.87 171.301Z" fill="#75271A"/>
<path d="M222.753 170.92C222.936 170.92 222.936 170.92 223.119 170.92C223.303 170.92 223.486 170.92 223.486 170.729V170.538C223.303 170.348 223.119 170.348 222.936 170.348C222.753 170.348 222.569 170.348 222.386 170.538C222.569 170.729 222.569 170.92 222.753 170.92Z" fill="#75271A"/>
<path d="M225.32 173.97C225.137 174.16 224.77 174.351 224.587 174.351C224.403 174.351 224.403 174.351 224.22 174.351C224.22 174.16 224.403 173.779 224.403 173.779C224.22 173.779 223.853 173.97 223.853 173.779C224.036 172.826 224.22 171.682 224.587 170.729C224.403 171.682 224.036 172.635 224.036 173.588C224.22 173.588 224.403 173.398 224.587 173.588L224.403 174.351C224.587 174.16 224.77 174.16 225.32 173.97Z" fill="#75271A"/>
<path d="M224.77 175.495C224.586 175.495 224.586 175.495 224.403 175.495C224.22 175.495 224.22 175.304 224.22 175.304C224.22 175.495 224.403 175.495 224.587 175.685C224.587 175.685 224.77 175.685 224.77 175.495Z" fill="#75271A"/>
<path d="M223.853 174.542C223.853 174.542 223.853 174.923 224.22 175.113C224.22 175.113 224.403 175.304 224.587 175.304C224.77 175.304 224.953 175.113 224.953 174.923C224.953 174.732 224.953 174.542 224.953 174.542C224.953 174.542 224.403 174.732 223.853 174.542Z" fill="#75271A"/>
<path d="M224.22 175.113C224.22 175.113 224.403 175.304 224.587 175.304C224.77 175.304 224.953 175.113 224.953 174.923C224.587 174.732 224.22 174.732 224.22 175.113Z" fill="#FF98B9"/>
<path d="M227.521 172.826C227.521 172.826 228.071 171.11 228.805 171.3C229.538 171.491 229.355 173.779 228.805 174.16C228.071 174.732 227.704 174.16 227.704 174.16L227.521 172.826Z" fill="#F8A492"/>
<path d="M228.805 171.873C228.438 172.254 228.254 172.826 228.254 173.398C228.438 173.207 228.621 173.017 228.805 173.017C228.621 173.017 228.438 173.207 228.254 173.398C228.254 173.589 228.254 173.779 228.071 173.97H227.888C227.888 173.398 228.071 172.254 228.805 171.873Z" fill="#75271A"/>
<path d="M223.67 172.254C223.486 173.016 222.753 173.397 222.019 173.207C221.285 173.016 220.919 172.063 221.285 171.3C221.652 170.538 222.202 170.157 222.936 170.347C223.67 170.538 223.853 171.3 223.67 172.254Z" stroke="#EF848E" stroke-width="0.1" stroke-miterlimit="10"/>
<path d="M227.154 172.444C226.971 173.207 226.237 173.588 225.503 173.398C224.77 173.207 224.403 172.254 224.77 171.491C224.953 170.729 225.687 170.347 226.42 170.538C226.971 170.729 227.337 171.682 227.154 172.444Z" stroke="#EF848E" stroke-width="0.1" stroke-miterlimit="10"/>
<path d="M223.853 171.872H224.587" stroke="#EF848E" stroke-width="0.1" stroke-miterlimit="10"/>
<path d="M205.33 210.382L228.988 223.346L236.69 210.764C236.874 210.382 236.69 210.001 236.324 210.001H205.33C205.147 210.001 205.147 210.382 205.33 210.382Z" fill="#FCBB03"/>
<path d="M245.31 223.155H241.459V227.159H245.31V223.155Z" fill="#5E7E8E"/>
<path d="M241.642 232.878C242.193 232.878 242.743 232.497 243.293 231.734C243.843 230.972 244.027 229.828 244.027 228.303C244.027 226.778 243.66 225.443 243.293 224.871L242.926 225.062C243.843 226.206 243.843 230.019 242.926 231.353C242.376 232.116 241.826 232.497 241.276 232.306C239.442 231.734 238.158 225.253 237.975 222.965C237.975 222.202 237.791 221.63 237.608 220.868C237.424 220.105 237.241 219.152 237.241 218.199C237.241 217.818 237.241 217.436 237.241 217.246C237.058 215.339 237.058 213.433 236.507 211.717C235.957 209.62 234.857 208.285 233.39 207.332L233.206 207.714C236.324 209.62 236.691 213.814 236.874 217.246C236.874 217.627 236.874 218.008 236.874 218.199C236.874 219.152 237.058 219.915 237.241 220.868C237.424 221.63 237.424 222.202 237.608 222.965C237.608 223.537 237.975 225.824 238.525 228.112C239.258 230.781 240.175 232.306 241.092 232.688C241.276 232.878 241.459 232.878 241.642 232.878Z" fill="#3D576B"/>
<path d="M222.203 201.994L221.102 202.757L220.736 202.185C220.736 201.994 220.736 201.803 220.919 201.803L221.469 201.422C221.653 201.422 221.836 201.422 221.836 201.613L222.203 201.994Z" fill="#6CC8C1"/>
<path d="M231.006 210.191H212.666C212.666 209.619 213.033 209.238 213.4 209.238H230.272C230.639 209.238 231.006 209.619 231.006 210.191Z" fill="#4A6372"/>
<path d="M213.4 209.238H230.272L230.639 208.857L231.923 207.904C232.106 207.713 232.106 207.523 232.289 207.332C232.289 206.951 232.473 206.569 232.473 206.379L232.289 205.235L232.106 204.472L231.923 202.947C231.556 201.994 230.822 201.231 230.089 201.231H224.037C223.487 201.231 222.753 201.422 222.203 201.803L218.902 203.71C218.535 203.9 218.168 204.091 217.801 204.472C217.435 204.663 217.068 205.044 216.884 205.235C216.518 205.616 215.967 205.997 215.601 206.569C215.417 206.76 215.417 206.76 215.234 206.951L213.4 209.238ZM223.303 205.426C222.936 205.426 222.753 204.663 222.936 204.282L223.67 203.138L223.853 202.947H224.037H229.539C229.722 202.947 229.905 203.138 229.905 203.519L230.089 204.663C230.089 205.044 230.089 205.235 229.905 205.426H229.722H223.303V205.426Z" fill="#E8F4FC"/>
<path d="M227.888 205.425H224.771C224.771 205.235 224.954 204.853 225.137 204.853H227.338C227.705 204.853 227.888 205.044 227.888 205.425Z" fill="#6CC8C1"/>
<path d="M213.4 209.238H230.272L231.923 208.095C232.106 207.904 232.106 207.713 232.289 207.523C232.289 207.141 232.473 206.76 232.473 206.569L232.289 205.426L230.089 207.332C229.905 207.523 229.539 207.713 229.355 207.713H216.701C216.334 207.713 216.151 207.332 216.151 206.951L216.518 205.616C215.967 206.188 215.417 206.76 214.867 207.332L213.4 209.238Z" fill="#6CC8C1"/>
<path d="M230.639 207.904C230.842 207.904 231.006 207.733 231.006 207.523C231.006 207.312 230.842 207.141 230.639 207.141C230.437 207.141 230.272 207.312 230.272 207.523C230.272 207.733 230.437 207.904 230.639 207.904Z" fill="#FFDD00"/>
<path opacity="0.2" d="M213.4 209.238H230.272L230.639 208.857C215.417 209.238 215.417 206.569 215.417 206.569C215.234 206.76 215.234 206.76 215.05 206.951L213.4 209.238Z" fill="#29235C"/>
<path opacity="0.5" d="M223.854 209.811H227.521H223.854C223.854 209.619 223.854 209.619 223.854 209.811Z" fill="white"/>
<path d="M221.836 205.426C222.753 206.188 227.704 205.426 229.355 205.235H223.303C222.936 205.235 222.753 204.472 222.936 204.091L223.67 202.947L223.853 202.757C223.67 202.947 220.735 204.663 221.836 205.426Z" fill="#6CC8C1"/>
<path opacity="0.5" d="M218.168 204.663C218.168 204.663 216.151 206.951 218.168 206.951C218.168 206.951 217.251 206.569 218.168 204.663Z" fill="white"/>
<path d="M232.289 206.569L233.39 207.141L233.573 207.332V207.713C233.573 207.904 233.39 207.904 233.39 207.904L232.289 207.523V206.569Z" fill="#6CC8C1"/>
<path d="M243.293 226.396C243.9 226.396 244.393 225.884 244.393 225.252C244.393 224.62 243.9 224.108 243.293 224.108C242.685 224.108 242.192 224.62 242.192 225.252C242.192 225.884 242.685 226.396 243.293 226.396Z" fill="#4A6372"/>
<path d="M204.53 254.795L205.178 255.469L246.935 212.062L246.286 211.388L204.53 254.795Z" fill="#3D576B"/>
<path d="M205.215 211.386L204.566 212.06L246.323 255.467L246.971 254.793L205.215 211.386Z" fill="#3D576B"/>
<path d="M195.427 210.573H186.624V211.336H195.427V210.573Z" fill="#3D576B"/>
<path d="M186.624 208.476H185.891V211.335H186.624V208.476Z" fill="#3D576B"/>
<path d="M195.977 212.861H260.715C261.265 212.861 261.632 212.479 261.632 211.907V211.336C261.632 210.764 261.265 210.382 260.715 210.382H195.977C195.427 210.382 195.06 210.764 195.06 211.336V211.907C195.06 212.479 195.427 212.861 195.977 212.861Z" fill="#6CC8C1"/>
<path d="M246.411 255.945C246.917 255.945 247.328 255.519 247.328 254.992C247.328 254.466 246.917 254.039 246.411 254.039C245.904 254.039 245.494 254.466 245.494 254.992C245.494 255.519 245.904 255.945 246.411 255.945Z" fill="#6CC8C1"/>
<path d="M205.147 255.945C205.653 255.945 206.064 255.519 206.064 254.992C206.064 254.466 205.653 254.039 205.147 254.039C204.641 254.039 204.23 254.466 204.23 254.992C204.23 255.519 204.641 255.945 205.147 255.945Z" fill="#6CC8C1"/>
<path d="M245.127 210.382H257.231C257.781 210.382 258.331 209.81 258.331 209.238V208.667C258.331 208.095 257.781 207.523 257.231 207.523H245.127C244.577 207.523 244.027 208.095 244.027 208.667V209.238C243.843 209.81 244.393 210.382 245.127 210.382Z" fill="white"/>
<path d="M245.127 202.375H257.231C257.781 202.375 258.331 201.804 258.331 201.232V200.66C258.331 200.088 257.781 199.516 257.231 199.516H245.127C244.577 199.516 244.027 200.088 244.027 200.66V201.232C243.843 201.804 244.393 202.375 245.127 202.375Z" fill="white"/>
<path d="M243.843 207.332H256.497C257.047 207.332 257.598 206.76 257.598 206.188V205.617C257.598 205.045 257.047 204.473 256.497 204.473H243.843C243.293 204.473 242.743 205.045 242.743 205.617V206.188C242.743 206.76 243.293 207.332 243.843 207.332Z" fill="#FFDD00"/>
<path d="M244.76 204.282H257.598C258.148 204.282 258.698 203.9 258.698 203.138V202.566C258.698 201.994 258.331 201.422 257.598 201.422H244.76C244.21 201.422 243.66 201.803 243.66 202.566V203.138C243.66 203.9 244.21 204.282 244.76 204.282Z" fill="#5E7E8E"/>
<path d="M239.258 210.382L212.666 228.874L202.946 210.382C202.763 210.192 202.946 209.81 203.313 209.81H239.258C239.441 210.001 239.441 210.192 239.258 210.382Z" fill="#FFDD00"/>
<path d="M81.9067 192.08H38.4424V255.183H81.9067V192.08Z" fill="#9DB5C4"/>
<path d="M87.4086 192.08H43.9443V255.183H87.4086V192.08Z" fill="white"/>
<path d="M87.4086 192.08H43.9443V255.183H87.4086V192.08Z" fill="#E8F4FC"/>
<path d="M87.4086 245.079H43.9443V246.032H87.4086V245.079Z" fill="#B3C6D4"/>
<path d="M87.4086 245.079H43.9443V245.46H87.4086V245.079Z" fill="#9BB5C4"/>
<path d="M87.4086 192.08H43.9443V204.472H87.4086V192.08Z" fill="#F5FBFF"/>
<path d="M87.4086 203.519H43.9443V204.281H87.4086V203.519Z" fill="#B3C6D4"/>
<path d="M87.4086 203.519H43.9443V203.9H87.4086V203.519Z" fill="#9DB5C4"/>
<path d="M87.4086 192.08H43.9443V194.94H87.4086V192.08Z" fill="#F5FBFF"/>
<path d="M48.1622 195.893H56.7817C57.5153 195.893 58.0655 196.465 58.0655 197.228V201.994C58.0655 202.375 57.6987 202.756 57.3319 202.756H47.4286C47.0618 202.756 46.6951 202.375 46.6951 201.994V197.228C46.8785 196.465 47.4286 195.893 48.1622 195.893Z" fill="#359591"/>
<path d="M48.1624 195.893H56.9653C57.6989 195.893 58.0657 196.465 58.0657 197.037V200.85C58.0657 201.231 57.8823 201.422 57.5155 201.422H47.4288C47.062 201.422 46.8787 201.231 46.8787 200.85V197.037C46.8787 196.465 47.4288 195.893 48.1624 195.893Z" fill="#3D576B"/>
<path d="M65.585 201.613C66.8004 201.613 67.7857 200.588 67.7857 199.325C67.7857 198.061 66.8004 197.037 65.585 197.037C64.3696 197.037 63.3843 198.061 63.3843 199.325C63.3843 200.588 64.3696 201.613 65.585 201.613Z" fill="#B9CFD6"/>
<path d="M64.8514 197.037C64.1178 197.418 63.7511 198.181 63.7511 199.134C63.7511 200.469 64.668 201.422 65.9518 201.422C66.1352 201.422 66.3186 201.422 66.502 201.422C66.1352 201.612 65.9518 201.613 65.585 201.613C64.3012 201.613 63.3843 200.659 63.3843 199.325C63.3843 198.181 63.9344 197.418 64.8514 197.037Z" fill="#ABC1C6"/>
<path d="M65.5844 201.04C66.496 201.04 67.2349 200.272 67.2349 199.325C67.2349 198.377 66.496 197.609 65.5844 197.609C64.6728 197.609 63.9338 198.377 63.9338 199.325C63.9338 200.272 64.6728 201.04 65.5844 201.04Z" fill="#3D576B"/>
<path d="M65.5844 201.04C66.496 201.04 67.2349 200.272 67.2349 199.325C67.2349 198.377 66.496 197.609 65.5844 197.609C64.6728 197.609 63.9338 198.377 63.9338 199.325C63.9338 200.272 64.6728 201.04 65.5844 201.04Z" fill="#3D576B"/>
<path d="M65.2176 197.609C65.0342 197.8 64.8508 198.181 64.8508 198.562C64.8508 199.515 65.5844 200.278 66.5014 200.278C66.6847 200.278 66.6848 200.278 66.8681 200.278C66.5014 200.659 66.1346 200.85 65.5844 200.85C64.6674 200.85 63.9338 200.087 63.9338 199.134C63.9338 198.371 64.484 197.8 65.2176 197.609Z" fill="#184670"/>
<path d="M53.6641 196.465H57.1486C57.1486 196.465 57.332 196.465 57.332 196.656V197.8C57.332 197.8 57.332 197.99 57.1486 197.99H53.6641C53.6641 197.99 53.4807 197.99 53.4807 197.8L53.6641 196.465C53.4807 196.465 53.4807 196.656 53.6641 196.465Z" fill="#CCD9E2"/>
<path d="M82.4569 195.893H85.2078C85.3912 195.893 85.5746 196.084 85.5746 196.275V197.037C85.5746 197.228 85.3912 197.418 85.2078 197.418H82.4569C82.2735 197.418 82.0901 197.228 82.0901 197.037V196.275C82.2735 196.084 82.2735 195.893 82.4569 195.893Z" fill="#D82156"/>
<path d="M82.4569 195.893H85.0244C85.2078 195.893 85.3912 196.084 85.3912 196.275V196.847C85.3912 197.037 85.2078 197.228 85.0244 197.228H82.4569C82.2735 197.228 82.0901 197.037 82.0901 196.847V196.275C82.2735 196.084 82.2735 195.893 82.4569 195.893Z" fill="#6CC8C1"/>
<path d="M82.4569 195.893H82.6403V196.656C82.6403 196.847 82.8237 197.037 83.0071 197.037H85.3912C85.3912 197.228 85.2078 197.228 85.0244 197.228H82.2735C82.0901 197.228 81.9067 197.037 81.9067 196.847V196.084C82.2735 196.084 82.2735 195.893 82.4569 195.893Z" fill="#359591"/>
<path d="M69.2525 196.465H70.5362C70.7196 196.465 70.7196 196.465 70.7196 196.656V197.037C70.7196 197.228 70.7196 197.228 70.5362 197.228H69.2525C69.0691 197.228 69.0691 197.228 69.0691 197.037L69.2525 196.465C69.0691 196.465 69.0691 196.465 69.2525 196.465Z" fill="#6CC8C1"/>
<path d="M69.2525 197.8H70.5362C70.7196 197.8 70.7196 197.8 70.7196 197.99V198.371C70.7196 198.562 70.7196 198.562 70.5362 198.562H69.2525C69.0691 198.562 69.0691 198.562 69.0691 198.371L69.2525 197.8C69.0691 197.8 69.0691 197.8 69.2525 197.8Z" fill="#6CC8C1"/>
<path d="M69.2525 199.134H70.5362C70.7196 199.134 70.7196 199.134 70.7196 199.325V199.706C70.7196 199.897 70.7196 199.897 70.5362 199.897H69.2525C69.0691 199.897 69.0691 199.897 69.0691 199.706L69.2525 199.134C69.0691 199.134 69.0691 199.134 69.2525 199.134Z" fill="#6CC8C1"/>
<path d="M69.2525 200.469H70.5362C70.7196 200.469 70.7196 200.469 70.7196 200.66V201.041C70.7196 201.232 70.7196 201.232 70.5362 201.232H69.2525C69.0691 201.232 69.0691 201.232 69.0691 201.041L69.2525 200.469C69.0691 200.469 69.0691 200.469 69.2525 200.469Z" fill="#6CC8C1"/>
<path d="M69.2525 201.803H70.5362C70.7196 201.803 70.7196 201.803 70.7196 201.994V202.375C70.7196 202.566 70.7196 202.566 70.5362 202.566H69.2525C69.0691 202.566 69.0691 202.566 69.0691 202.375L69.2525 201.803C69.0691 201.803 69.0691 201.803 69.2525 201.803Z" fill="#6CC8C1"/>
<path d="M60.4495 196.465H61.7333C61.9167 196.465 61.9167 196.465 61.9167 196.656V197.037C61.9167 197.228 61.9167 197.228 61.7333 197.228H60.4495C60.2661 197.228 60.2661 197.228 60.2661 197.037L60.4495 196.465C60.4495 196.465 60.2661 196.465 60.4495 196.465Z" fill="#6CC8C1"/>
<path d="M60.4493 197.8H61.733C61.9164 197.8 61.9164 197.8 61.9164 197.99V198.371C61.9164 198.562 61.9164 198.562 61.733 198.562H60.4493C60.2659 198.562 60.2659 198.562 60.2659 198.371L60.4493 197.8C60.4493 197.8 60.2659 197.8 60.4493 197.8Z" fill="#6CC8C1"/>
<path d="M60.4493 199.134H61.733C61.9164 199.134 61.9164 199.134 61.9164 199.325V199.706C61.9164 199.897 61.9164 199.897 61.733 199.897H60.4493C60.2659 199.897 60.2659 199.897 60.2659 199.706L60.4493 199.134C60.4493 199.134 60.2659 199.134 60.4493 199.134Z" fill="#6CC8C1"/>
<path d="M60.4493 200.469H61.733C61.9164 200.469 61.9164 200.469 61.9164 200.66V201.041C61.9164 201.232 61.9164 201.232 61.733 201.232H60.4493C60.2659 201.232 60.2659 201.232 60.2659 201.041L60.4493 200.469C60.4493 200.469 60.2659 200.469 60.4493 200.469Z" fill="#6CC8C1"/>
<path d="M60.4493 201.803H61.733C61.9164 201.803 61.9164 201.803 61.9164 201.994V202.375C61.9164 202.566 61.9164 202.566 61.733 202.566H60.4493C60.2659 202.566 60.2659 202.566 60.2659 202.375L60.4493 201.803C60.4493 201.803 60.2659 201.803 60.4493 201.803Z" fill="#6CC8C1"/>
<path d="M84.4743 201.612C84.9808 201.612 85.3913 201.186 85.3913 200.659C85.3913 200.133 84.9808 199.706 84.4743 199.706C83.9679 199.706 83.5574 200.133 83.5574 200.659C83.5574 201.186 83.9679 201.612 84.4743 201.612Z" fill="#3D576B"/>
<path d="M87.4086 254.229H43.9443V255.183H87.4086V254.229Z" fill="#B3C6D4"/>
<path d="M49.4459 248.32H58.9824C59.3492 248.32 59.5326 248.51 59.5326 248.892V255.373H48.8958V248.892C48.8958 248.51 49.0792 248.32 49.4459 248.32Z" fill="#B3C6D4"/>
<path d="M50.3629 249.464H58.0655C58.2489 249.464 58.6156 249.654 58.6156 250.036V255.373H49.8127V250.036C49.8127 249.654 50.1795 249.464 50.3629 249.464Z" fill="#8BA6B6"/>
<path d="M50.9131 250.607H57.6987C57.6987 250.607 57.8821 250.607 57.8821 250.798V250.988C57.8821 250.988 57.8821 251.179 57.6987 251.179H50.9131C50.9131 251.179 50.7297 251.179 50.7297 250.988L50.9131 250.607C50.9131 250.607 50.7297 250.607 50.9131 250.607Z" fill="#A7BCC9"/>
<path d="M50.9131 251.942H57.6987C57.6987 251.942 57.8821 251.942 57.8821 252.132V252.323C57.8821 252.323 57.8821 252.514 57.6987 252.514H50.9131C50.9131 252.514 50.7297 252.514 50.7297 252.323L50.9131 251.942C50.9131 251.942 50.7297 251.942 50.9131 251.942Z" fill="#A7BCC9"/>
<path d="M50.9131 253.277H57.6987C57.6987 253.277 57.8821 253.277 57.8821 253.467V253.658C57.8821 253.658 57.8821 253.849 57.6987 253.849H50.9131C50.9131 253.849 50.7297 253.849 50.7297 253.658L50.9131 253.277C50.9131 253.277 50.7297 253.277 50.9131 253.277Z" fill="#A7BCC9"/>
<path d="M87.4086 194.177H43.9443V194.749H87.4086V194.177Z" fill="#B3C6D4"/>
<path d="M87.4086 194.177H43.9443V194.559H87.4086V194.177Z" fill="#9DB5C4"/>
<path d="M48.1624 195.893C48.3458 196.084 48.3458 196.465 48.5292 196.847C49.2628 199.134 51.4635 200.278 52.3805 200.469C52.9307 200.659 54.031 200.85 56.2317 200.85C56.7819 200.85 57.3321 200.85 58.0657 200.85V201.422H46.8787V197.228C46.8787 196.465 47.4288 195.893 48.1624 195.893Z" fill="#144566"/>
<path d="M66.5779 198.449C66.3491 198.102 65.9603 197.965 65.7096 198.143C65.4588 198.321 65.4409 198.748 65.6697 199.095C65.8985 199.443 66.2873 199.58 66.5381 199.402C66.7888 199.223 66.8067 198.797 66.5779 198.449Z" fill="#29748E"/>
<path d="M84.4743 201.612C84.9808 201.612 85.3913 201.186 85.3913 200.659C85.3913 200.133 84.9808 199.706 84.4743 199.706C83.9679 199.706 83.5574 200.133 83.5574 200.659C83.5574 201.186 83.9679 201.612 84.4743 201.612Z" fill="#3D576B"/>
<path d="M84.291 199.706C84.1076 199.897 84.1075 200.087 84.1075 200.469C84.1075 201.041 84.4743 201.422 85.0245 201.422H85.2079C85.0245 201.612 84.8411 201.803 84.4743 201.803C83.9242 201.803 83.5574 201.422 83.5574 200.85C83.5574 200.278 83.9242 199.897 84.291 199.706Z" fill="#2D4351"/>
<path d="M85.2529 200.34C85.1403 200.165 84.9125 200.118 84.7441 200.235C84.5757 200.352 84.5305 200.589 84.6431 200.764C84.7557 200.939 84.9834 200.986 85.1518 200.869C85.3202 200.752 85.3655 200.515 85.2529 200.34Z" fill="#678699"/>
<path d="M81.3566 201.231C81.6604 201.231 81.9068 200.975 81.9068 200.659C81.9068 200.343 81.6604 200.087 81.3566 200.087C81.0527 200.087 80.8064 200.343 80.8064 200.659C80.8064 200.975 81.0527 201.231 81.3566 201.231Z" fill="#B3C6D4"/>
<path d="M81.3566 200.087C81.1732 200.278 81.1732 200.278 81.1732 200.468C81.1732 200.85 81.54 201.04 81.7234 201.04H81.9068C81.7234 201.231 81.54 201.231 81.3566 201.231C80.9898 201.231 80.8064 200.85 80.8064 200.659C80.8064 200.468 80.9898 200.087 81.3566 200.087Z" fill="#A6BCC9"/>
<path d="M81.7605 200.477C81.6479 200.302 81.4883 200.207 81.4041 200.266C81.3199 200.325 81.343 200.514 81.4556 200.689C81.5681 200.864 81.7277 200.958 81.8119 200.9C81.8961 200.841 81.8731 200.652 81.7605 200.477Z" fill="#CCD9E2"/>
<path d="M78.9723 201.231C79.2762 201.231 79.5225 200.975 79.5225 200.659C79.5225 200.343 79.2762 200.087 78.9723 200.087C78.6684 200.087 78.4221 200.343 78.4221 200.659C78.4221 200.975 78.6684 201.231 78.9723 201.231Z" fill="#B3C6D4"/>
<path d="M78.789 200.088C78.6056 200.279 78.6056 200.279 78.6056 200.469C78.6056 200.851 78.9723 201.041 79.1557 201.041H79.3391C79.1557 201.232 78.9723 201.232 78.789 201.232C78.4222 201.232 78.2388 200.851 78.2388 200.66C78.4222 200.469 78.6056 200.088 78.789 200.088Z" fill="#A6BCC9"/>
<path d="M79.331 200.452C79.2184 200.277 79.0589 200.183 78.9747 200.241C78.8905 200.3 78.9135 200.489 79.0261 200.664C79.1387 200.839 79.2982 200.934 79.3824 200.875C79.4666 200.817 79.4436 200.627 79.331 200.452Z" fill="#CCD9E2"/>
<path d="M76.5883 201.231C76.8921 201.231 77.1384 200.975 77.1384 200.659C77.1384 200.343 76.8921 200.087 76.5883 200.087C76.2844 200.087 76.0381 200.343 76.0381 200.659C76.0381 200.975 76.2844 201.231 76.5883 201.231Z" fill="#B3C6D4"/>
<path d="M76.4047 200.088C76.2213 200.279 76.2213 200.279 76.2213 200.469C76.2213 200.851 76.5881 201.041 76.7715 201.041H76.9549C76.7715 201.232 76.5881 201.232 76.4047 201.232C76.0379 201.232 75.8545 200.851 75.8545 200.66C76.0379 200.469 76.2213 200.088 76.4047 200.088Z" fill="#A6BCC9"/>
<path d="M76.904 200.429C76.7914 200.254 76.6319 200.159 76.5477 200.218C76.4635 200.276 76.4865 200.465 76.5991 200.641C76.7117 200.816 76.8712 200.91 76.9554 200.852C77.0396 200.793 77.0166 200.604 76.904 200.429Z" fill="#CCD9E2"/>
<path d="M83.3741 196.084H85.2081C85.2081 196.084 85.3914 196.084 85.3914 196.275C85.3914 196.275 85.3914 196.465 85.2081 196.465H83.3741C83.1907 196.465 83.1907 196.275 83.3741 196.084C83.1907 196.084 83.1907 196.275 83.3741 196.084Z" fill="#CCD9E2"/>
<path d="M87.4086 254.801H43.9443V255.183H87.4086V254.801Z" fill="#8BA6B6"/>
<path opacity="0.07" d="M49.0793 237.644C49.0793 243.554 53.6642 248.51 59.5328 248.51H87.4086V255.373H43.9443V192.271H49.2627L49.0793 237.644Z" fill="#082B72"/>
<path d="M65.5846 240.313C74.8016 240.313 82.2734 232.546 82.2734 222.964C82.2734 213.383 74.8016 205.616 65.5846 205.616C56.3676 205.616 48.8958 213.383 48.8958 222.964C48.8958 232.546 56.3676 240.313 65.5846 240.313Z" fill="#B3C6D4"/>
<path d="M65.5846 240.313C74.8016 240.313 82.2734 232.546 82.2734 222.964C82.2734 213.383 74.8016 205.616 65.5846 205.616C56.3676 205.616 48.8958 213.383 48.8958 222.964C48.8958 232.546 56.3676 240.313 65.5846 240.313Z" fill="#6CC8C1"/>
<path opacity="0.3" d="M62.2838 205.997C55.3148 208.094 50.3632 214.767 50.3632 222.583C50.3632 232.115 57.8823 239.932 67.052 239.932C68.1524 239.932 69.2527 239.741 70.1697 239.55C68.7025 239.932 67.052 240.313 65.4015 240.313C56.2318 240.313 48.7126 232.496 48.7126 222.964C48.896 214.576 54.5812 207.522 62.2838 205.997Z" fill="white"/>
<path d="M65.585 236.69C72.8775 236.69 78.7893 230.545 78.7893 222.964C78.7893 215.383 72.8775 209.238 65.585 209.238C58.2924 209.238 52.3806 215.383 52.3806 222.964C52.3806 230.545 58.2924 236.69 65.585 236.69Z" fill="#3D576B"/>
<path d="M65.5846 234.022C71.9655 234.022 77.1384 228.73 77.1384 222.202C77.1384 215.674 71.9655 210.382 65.5846 210.382C59.2036 210.382 54.0308 215.674 54.0308 222.202C54.0308 228.73 59.2036 234.022 65.5846 234.022Z" fill="#144B63"/>
<path d="M65.5845 232.115C70.041 232.115 73.6538 227.677 73.6538 222.202C73.6538 216.727 70.041 212.289 65.5845 212.289C61.1279 212.289 57.5151 216.727 57.5151 222.202C57.5151 227.677 61.1279 232.115 65.5845 232.115Z" fill="#3D576B"/>
<path d="M62.2836 227.158C63.9341 226.777 66.3183 225.824 69.8027 226.014C72.3702 226.014 74.3876 226.586 75.8547 227.158C74.0208 231.162 69.9861 234.021 65.4013 234.021C60.4497 234.021 56.2316 230.78 54.5811 226.205C57.8821 227.54 60.4497 227.54 62.2836 227.158Z" fill="#61AFBC"/>
<path opacity="0.18" d="M61.7333 210.954C60.8163 212.669 60.2661 214.766 60.2661 216.864C60.2661 223.727 65.5846 229.255 72.1867 229.255C73.2871 229.255 74.2041 229.065 75.121 228.874C73.1037 232.115 69.4358 234.212 65.5846 234.212C59.1658 234.212 54.0308 228.874 54.0308 222.392C54.0308 217.054 57.1484 212.669 61.7333 210.954Z" fill="#0C123A"/>
<path opacity="0.27" d="M73.1325 216.418C71.7056 213.993 69.4981 212.695 68.202 213.519C66.9059 214.343 67.012 216.977 68.4389 219.402C69.8659 221.827 72.0734 223.125 73.3695 222.301C74.6656 221.477 74.5595 218.843 73.1325 216.418Z" fill="white"/>
<path d="M75.4879 210.763C75.6713 210.382 76.0381 210.382 76.4049 210.572C76.955 211.144 77.5052 211.716 78.0554 212.288C78.6056 213.051 79.1558 213.813 79.3392 214.767C79.5225 215.148 79.3392 215.529 78.9724 215.529C78.6056 215.72 78.4222 215.529 78.2388 215.148C77.872 214.385 77.5052 213.623 76.955 212.86C76.5883 212.288 76.0381 211.716 75.4879 211.335C75.3045 211.526 75.3045 211.144 75.4879 210.763Z" fill="#CCD9E2"/>
<path d="M74.9376 234.593C76.2214 233.449 77.1383 232.306 78.0553 230.78C78.6055 229.827 80.0726 227.158 80.256 223.345C80.256 222.011 80.256 220.676 80.0726 219.342C80.0726 218.961 80.256 218.77 80.4394 218.579C80.8062 218.579 81.173 218.77 81.173 219.151C81.3564 220.676 81.5398 222.011 81.5398 223.536C81.3564 227.54 79.8892 230.399 79.1557 231.543C78.2387 233.068 77.1383 234.403 75.8546 235.546C75.6712 235.737 75.121 235.737 74.9376 235.546C74.5708 235.165 74.7542 234.784 74.9376 234.593Z" fill="#CCD9E2"/>
<path d="M95.111 252.705L94.3774 234.784C94.3774 233.45 93.2771 232.497 92.1767 232.497H91.9933V230.59H87.4085V232.497H87.2251C85.9413 232.497 85.0243 233.45 85.0243 234.784L84.2908 252.705C84.2908 254.039 85.2077 255.183 86.4915 255.183H92.7269C94.194 255.183 95.2944 254.039 95.111 252.705Z" fill="#6CC8C1"/>
<path d="M92.1766 229.827C91.9932 228.874 91.443 228.112 90.526 228.112H89.0589C88.1419 228.112 87.4083 228.874 87.4083 229.827H87.225C87.0416 229.827 86.8582 230.018 86.8582 230.209C86.8582 230.399 87.0416 230.59 87.225 230.59H92.1766C92.36 230.59 92.5434 230.399 92.5434 230.209C92.5434 230.018 92.36 229.827 92.1766 229.827Z" fill="#FFDD00"/>
<path d="M89.7926 252.895C91.8183 252.895 93.4605 251.785 93.4605 250.416C93.4605 249.048 91.8183 247.938 89.7926 247.938C87.7669 247.938 86.1248 249.048 86.1248 250.416C86.1248 251.785 87.7669 252.895 89.7926 252.895Z" fill="white"/>
<path d="M91.6266 247.366C92.4369 247.366 93.0937 246.854 93.0937 246.222C93.0937 245.591 92.4369 245.079 91.6266 245.079C90.8163 245.079 90.1594 245.591 90.1594 246.222C90.1594 246.854 90.8163 247.366 91.6266 247.366Z" fill="white"/>
<path d="M90.3723 243.738C90.7767 243.713 91.0894 243.436 91.0708 243.121C91.0522 242.806 90.7093 242.571 90.3049 242.597C89.9006 242.622 89.5878 242.899 89.6064 243.214C89.625 243.529 89.9679 243.764 90.3723 243.738Z" fill="white"/>
<path d="M92.3602 237.262H87.2252C86.8584 237.262 86.675 237.072 86.675 236.69V236.309C86.675 235.928 86.8584 235.737 87.2252 235.737H92.3602C92.727 235.737 92.9104 235.928 92.9104 236.309V236.69C92.9104 237.072 92.727 237.262 92.3602 237.262Z" fill="white"/>
<path d="M104.281 235.356L102.263 233.64C101.897 233.259 101.53 233.068 100.98 233.068H96.5781C95.4778 233.068 94.7442 233.831 94.5608 234.975L93.4604 253.086C93.4604 254.23 94.194 255.183 95.4778 255.183H102.997C104.097 255.183 105.014 254.23 105.014 253.086V236.881C104.831 236.309 104.647 235.737 104.281 235.356ZM103.364 246.223C103.364 246.795 102.63 246.985 102.447 246.413L100.063 239.741C99.8792 239.36 100.063 239.169 100.246 238.978L102.63 237.834C102.997 237.644 103.18 238.025 103.18 238.406V246.223H103.364Z" fill="#E8F4FC"/>
<path d="M100.796 233.068H96.0278V232.877C96.0278 232.305 96.578 231.733 97.1282 231.733H99.6957C100.246 231.733 100.796 232.305 100.796 232.877V233.068Z" fill="#6CC8C1"/>
<path d="M100.246 231.734H96.9446V231.352C96.9446 230.59 97.4948 230.018 98.2283 230.018H98.9619C99.6955 230.018 100.246 230.59 100.246 231.352V231.734V231.734Z" fill="#6CC8C1"/>
<path d="M96.2114 240.122L95.2944 251.56C95.2944 251.942 95.4778 252.132 95.8446 252.132H102.263C102.63 252.132 102.814 251.751 102.814 251.37L98.7789 239.931C98.7789 239.741 98.5955 239.55 98.2287 239.55H96.7616C96.3948 239.741 96.2114 239.931 96.2114 240.122Z" fill="#B6CCCA"/>
<path d="M101.163 236.119H96.578C96.3946 236.119 96.0278 235.928 96.0278 235.547V235.356C96.0278 235.165 96.2112 234.784 96.578 234.784H101.163C101.346 234.784 101.713 234.975 101.713 235.356V235.547C101.713 235.928 101.53 236.119 101.163 236.119Z" fill="#FFDD00"/>
<path d="M100.613 250.989H96.5782C96.3948 250.989 96.2114 250.798 96.2114 250.607V250.417C96.2114 250.226 96.3948 250.035 96.5782 250.035H100.613C100.796 250.035 100.98 250.226 100.98 250.417V250.607C100.796 250.989 100.796 250.989 100.613 250.989Z" fill="#FFDD00"/>
<path d="M99.1457 249.654H96.5782C96.3948 249.654 96.2114 249.463 96.2114 249.273V249.082C96.2114 248.892 96.3948 248.701 96.5782 248.701H99.1457C99.3291 248.701 99.5125 248.892 99.5125 249.082V249.273C99.5125 249.463 99.3291 249.654 99.1457 249.654Z" fill="#FFDD00"/>
<path d="M154.714 246.985C154.714 246.985 163.334 236.881 159.666 236.119C155.998 235.356 153.797 237.644 153.797 237.644C153.797 237.644 151.046 231.353 148.112 233.259C145.178 235.356 140.96 245.46 141.51 247.367C142.243 249.082 154.714 246.985 154.714 246.985Z" fill="#3D576B"/>
<path d="M138.575 246.032L152.696 243.173C152.696 243.173 152.696 238.216 151.229 237.644C149.762 237.072 139.309 233.831 137.658 236.309C136.008 238.788 138.575 246.032 138.575 246.032Z" fill="#FFDD00"/>
<path d="M147.745 242.41C147.745 242.41 157.648 242.982 158.015 246.032C158.382 249.083 157.465 252.514 157.465 252.514L146.828 250.608L147.745 242.41Z" fill="#3D576B"/>
<path d="M158.198 247.748C158.198 247.748 153.43 244.507 148.845 249.654C144.26 254.611 142.61 255.564 142.61 255.564H156.548L158.198 247.748Z" fill="#FFEC00"/>
<path d="M143.16 238.406C143.16 238.406 135.274 249.464 138.025 254.23C138.025 254.23 144.26 257.471 148.295 254.992C152.329 252.514 149.395 239.55 149.395 239.55L143.16 238.406Z" fill="white"/>
<path d="M144.077 244.507H143.16V246.032H144.077V244.507Z" fill="#6CC8C1"/>
<path d="M144.077 247.367H143.16V248.892H144.077V247.367Z" fill="#6CC8C1"/>
<path d="M144.077 253.086H143.16V254.611H144.077V253.086Z" fill="#6CC8C1"/>
<path d="M144.077 250.227H143.16V251.752H144.077V250.227Z" fill="#6CC8C1"/>
<path d="M144.077 241.838H143.16V243.363H144.077V241.838Z" fill="#6CC8C1"/>
<path d="M146.094 247.367H145.177V248.892H146.094V247.367Z" fill="#6CC8C1"/>
<path d="M146.094 250.227H145.177V251.752H146.094V250.227Z" fill="#6CC8C1"/>
<path d="M146.094 253.086H145.177V254.611H146.094V253.086Z" fill="#6CC8C1"/>
<path d="M146.094 241.838H145.177V243.363H146.094V241.838Z" fill="#6CC8C1"/>
<path d="M146.094 244.507H145.177V246.032H146.094V244.507Z" fill="#6CC8C1"/>
<path d="M148.112 253.086H147.195V254.611H148.112V253.086Z" fill="#6CC8C1"/>
<path d="M148.112 244.507H147.195V246.032H148.112V244.507Z" fill="#6CC8C1"/>
<path d="M148.112 247.367H147.195V248.892H148.112V247.367Z" fill="#6CC8C1"/>
<path d="M148.112 250.227H147.195V251.752H148.112V250.227Z" fill="#6CC8C1"/>
<path d="M148.112 241.838H147.195V243.363H148.112V241.838Z" fill="#6CC8C1"/>
<path d="M150.313 241.838H149.396V243.363H150.313V241.838Z" fill="#6CC8C1"/>
<path d="M150.313 253.086H149.396V254.611H150.313V253.086Z" fill="#6CC8C1"/>
<path d="M150.313 244.507H149.396V246.032H150.313V244.507Z" fill="#6CC8C1"/>
<path d="M150.313 250.227H149.396V251.752H150.313V250.227Z" fill="#6CC8C1"/>
<path d="M150.313 247.367H149.396V248.892H150.313V247.367Z" fill="#6CC8C1"/>
<path d="M152.33 241.838H151.413V243.363H152.33V241.838Z" fill="#6CC8C1"/>
<path d="M152.33 247.367H151.413V248.892H152.33V247.367Z" fill="#6CC8C1"/>
<path d="M152.33 253.086H151.413V254.611H152.33V253.086Z" fill="#6CC8C1"/>
<path d="M152.33 244.507H151.413V246.032H152.33V244.507Z" fill="#6CC8C1"/>
<path d="M152.33 250.227H151.413V251.752H152.33V250.227Z" fill="#6CC8C1"/>
<path d="M154.347 253.086H153.43V254.611H154.347V253.086Z" fill="#6CC8C1"/>
<path d="M154.347 241.838H153.43V243.363H154.347V241.838Z" fill="#6CC8C1"/>
<path d="M154.347 244.507H153.43V246.032H154.347V244.507Z" fill="#6CC8C1"/>
<path d="M154.347 250.227H153.43V251.752H154.347V250.227Z" fill="#6CC8C1"/>
<path d="M154.347 247.367H153.43V248.892H154.347V247.367Z" fill="#6CC8C1"/>
<path d="M156.364 253.086H155.447V254.611H156.364V253.086Z" fill="#6CC8C1"/>
<path d="M156.364 244.507H155.447V246.032H156.364V244.507Z" fill="#6CC8C1"/>
<path d="M156.364 250.227H155.447V251.752H156.364V250.227Z" fill="#6CC8C1"/>
<path d="M156.364 247.367H155.447V248.892H156.364V247.367Z" fill="#6CC8C1"/>
<path d="M156.364 241.838H155.447V243.363H156.364V241.838Z" fill="#6CC8C1"/>
<path d="M157.465 248.892H158.015L158.198 247.367H157.465V248.892Z" fill="#6CC8C1"/>
<path d="M157.465 244.507V246.032H158.382L158.565 245.461V244.507H157.465Z" fill="#6CC8C1"/>
<path d="M157.465 251.752H157.831L158.015 250.227H157.465V251.752Z" fill="#6CC8C1"/>
<path d="M157.465 253.658L157.648 253.086H157.465V253.658Z" fill="#6CC8C1"/>
<path d="M158.382 241.838H157.465V243.363H158.382V241.838Z" fill="#6CC8C1"/>
<path d="M142.06 244.507H141.143V246.032H142.06V244.507Z" fill="#6CC8C1"/>
<path d="M142.06 247.367H141.143V248.892H142.06V247.367Z" fill="#6CC8C1"/>
<path d="M142.06 241.838H141.143V243.363H142.06V241.838Z" fill="#6CC8C1"/>
<path d="M142.06 253.086H141.143V254.611H142.06V253.086Z" fill="#6CC8C1"/>
<path d="M142.06 250.227H141.143V251.752H142.06V250.227Z" fill="#6CC8C1"/>
<path d="M140.042 247.367H139.125V248.892H140.042V247.367Z" fill="#6CC8C1"/>
<path d="M140.042 250.227H139.125V251.752H140.042V250.227Z" fill="#6CC8C1"/>
<path d="M140.042 244.507H139.125V246.032H140.042V244.507Z" fill="#6CC8C1"/>
<path d="M140.042 253.086H139.125V254.611H140.042V253.086Z" fill="#6CC8C1"/>
<path d="M140.042 241.838H139.125V243.363H140.042V241.838Z" fill="#6CC8C1"/>
<path d="M138.025 250.227H137.475L137.658 251.752H138.025V250.227Z" fill="#6CC8C1"/>
<path d="M137.842 253.086L138.025 253.658V253.086H137.842Z" fill="#6CC8C1"/>
<path d="M138.025 244.507H136.925V245.461L137.108 246.032H138.025V244.507Z" fill="#6CC8C1"/>
<path d="M137.842 241.838H136.925V243.363H137.842V241.838Z" fill="#6CC8C1"/>
<path d="M138.025 247.367H137.292L137.475 248.892H138.025V247.367Z" fill="#6CC8C1"/>
<path d="M155.448 254.611H154.347H153.43H152.33H151.413H150.312H149.396H148.295H147.378H146.278H145.177H144.077H143.16H142.06H141.143H140.042H139.125H138.208C138.392 255.183 138.759 255.374 139.125 255.374H156.731C157.098 255.374 157.465 254.993 157.648 254.611H156.731H155.448Z" fill="#6CC8C1"/>
<path d="M156.364 251.752H155.447H154.347H153.43H152.329H151.412H150.312H149.395H148.295H147.194H146.094H145.177H144.077H143.16H142.059H141.142H140.042H139.125H138.025H137.658L137.841 253.086H138.025H139.125H140.042H141.142H142.059H143.16H144.077H145.177H146.094H147.194H148.295H149.395H150.312H151.412H152.329H153.43H154.347H155.447H156.364H157.464H157.648L157.831 251.752H157.464H156.364Z" fill="#6CC8C1"/>
<path d="M156.364 248.892H155.447H154.347H153.43H152.33H151.413H150.312H149.395H148.295H147.195H146.094H145.177H144.077H143.16H142.06H141.143H140.042H139.125H138.025H137.475V250.227H138.025H139.125H140.042H141.143H142.06H143.16H144.077H145.177H146.094H147.195H148.295H149.395H150.312H151.413H152.33H153.43H154.347H155.447H156.364H157.465H158.015V248.892H157.465H156.364Z" fill="#6CC8C1"/>
<path d="M156.364 246.032H155.447H154.347H153.43H152.33H151.413H150.312H149.395H148.295H147.195H146.094H145.177H144.077H143.16H142.06H141.143H140.042H139.125H138.025H137.108L137.291 247.367H138.025H139.125H140.042H141.143H142.06H143.16H144.077H145.177H146.094H147.195H148.295H149.395H150.312H151.413H152.33H153.43H154.347H155.447H156.364H157.465H158.198L158.382 246.032H157.465H156.364Z" fill="#6CC8C1"/>
<path d="M157.465 243.173H156.364H155.447H154.347H153.43H152.33H151.413H150.312H149.395H148.295H147.195H146.094H145.177H144.077H143.16H142.06H141.143H140.042H139.125H138.025H136.925H136.741L136.925 244.507H138.025H139.125H140.042H141.143H142.06H143.16H144.077H145.177H146.094H147.195H148.295H149.395H150.312H151.413H152.33H153.43H154.347H155.447H156.364H157.465H158.565L158.748 243.173H158.565H157.465Z" fill="#6CC8C1"/>
<path d="M136.374 240.695L136.558 241.838H136.924H138.025H139.125H140.042H141.143H142.059H143.16H144.077H145.177H146.094H147.194H148.295H149.395H150.312H151.413H152.33H153.43H154.347H155.447H156.364H157.465H158.565H158.932L159.115 240.695H136.374Z" fill="#6CC8C1"/>
<path d="M159.665 239.932C159.482 239.741 159.299 239.551 159.115 239.551H136.558C136.374 239.551 136.191 239.741 136.008 239.932C135.824 240.122 135.824 240.313 135.824 240.694V240.885L136.008 241.838L137.475 254.421C137.475 254.611 137.475 254.802 137.658 254.993C137.842 255.946 138.575 256.518 139.309 256.518H156.914C157.648 256.518 158.198 255.946 158.565 254.993C158.565 254.802 158.565 254.611 158.748 254.421L160.216 241.838L160.399 240.885V240.694C159.849 240.504 159.849 240.122 159.665 239.932ZM158.198 241.838L156.731 254.039C156.731 254.23 156.731 254.23 156.548 254.23H138.942C138.942 254.23 138.759 254.23 138.759 254.039L137.291 241.838H158.198Z" fill="#6CC8C1"/>
<path d="M161.133 239.55V239.741C161.133 240.313 160.766 240.694 160.216 240.694H135.457C134.907 240.694 134.541 240.313 134.541 239.741V239.55V239.36C134.724 238.978 135.091 238.597 135.457 238.597H160.216C160.582 238.597 160.949 238.978 161.133 239.36C161.133 239.36 161.133 239.36 161.133 239.55Z" fill="#6CC8C1"/>
<path opacity="0.2" d="M159.849 240.695C159.849 240.695 159.849 240.885 159.849 240.695L159.665 241.838H135.641L135.458 240.885V240.695H159.849Z" fill="#29235C"/>
<path opacity="0.2" d="M158.198 254.992C158.015 255.946 157.281 256.518 156.548 256.518H138.942C138.208 256.518 137.658 255.946 137.292 254.992H158.198Z" fill="#29235C"/>
<path d="M142.06 238.597C142.06 238.597 149.762 234.975 151.229 238.597C151.78 239.741 151.963 240.694 151.963 241.266C152.146 245.842 142.243 238.597 142.06 238.597Z" fill="white"/>
<path opacity="0.2" d="M142.06 238.597C142.243 238.597 150.496 244.126 151.963 241.266C152.146 245.842 142.243 238.597 142.06 238.597Z" fill="#29235C"/>
<path d="M269.622 260H19.378C18.0976 260 17 259 17 258C17 257 18.0976 256 19.378 256H269.622C270.902 256 272 257 272 258C272 259 270.902 260 269.622 260Z" fill="#5C8097"/>
<path d="M187.358 181.023C188.27 181.023 189.009 180.255 189.009 179.307C189.009 178.359 188.27 177.591 187.358 177.591C186.447 177.591 185.708 178.359 185.708 179.307C185.708 180.255 186.447 181.023 187.358 181.023Z" fill="url(#paint0_linear)"/>
<path opacity="0.19" d="M130.506 213.051C124.088 213.623 118.402 213.051 111.984 212.479C111.067 204.472 110.883 196.847 111.433 188.649C114.001 186.361 116.935 184.264 120.053 183.12C120.787 183.12 121.153 183.311 121.887 183.12C125.005 184.645 127.939 186.171 130.506 188.458C131.24 196.275 131.607 205.235 130.506 213.051Z" fill="#6CC8C1"/>
<path d="M121.336 188.649C122.62 188.077 123.72 186.933 124.637 185.599C123.537 185.599 122.437 185.599 121.52 185.599C120.236 185.599 118.769 185.599 117.668 185.027C118.219 186.743 119.686 188.077 121.336 188.649Z" fill="#F19679"/>
<path d="M121.153 183.692C121.153 183.12 121.52 182.358 122.07 181.976C122.62 181.595 123.17 181.214 123.537 180.642C123.904 179.879 123.904 179.117 123.537 178.545C123.17 177.973 122.437 177.401 121.703 177.401C121.153 177.21 120.42 177.401 119.869 177.592C119.319 177.973 118.952 178.545 118.769 179.117C118.769 179.689 118.952 180.642 119.686 180.833C119.869 180.833 119.869 180.833 119.869 180.833C120.053 180.642 119.686 180.261 119.686 179.879C119.686 179.498 119.686 179.117 119.869 178.926C120.236 178.354 120.97 178.354 121.52 178.735C122.07 179.117 122.254 179.879 122.07 180.451C121.887 181.023 121.337 181.595 120.97 182.167C120.603 182.739 120.236 183.311 120.236 183.883C120.786 183.692 120.97 183.692 121.153 183.692Z" fill="#363347"/>
<path d="M116.935 185.789L120.786 183.12L125.004 185.599L124.638 185.98L120.97 184.264L117.302 185.98L116.935 185.789Z" fill="#363347"/>
<path d="M130.323 205.807C129.406 205.997 128.489 205.807 127.572 205.807C127.389 205.807 127.389 205.807 127.205 205.807C127.205 207.141 127.205 208.666 127.205 210.001C123.537 210.573 119.503 210.573 115.835 210.001C115.835 208.857 115.835 207.332 115.652 206.379C115.468 206.379 115.468 206.379 115.285 206.379C114.184 206.379 112.901 206.188 111.8 205.997C111.433 200.469 111.433 194.75 111.8 189.03C113.451 187.315 115.285 185.98 117.302 185.027C118.219 186.171 119.319 187.124 120.42 188.077C121.887 187.505 123.354 186.552 124.271 185.217C126.288 185.98 127.939 187.124 129.406 188.649C130.323 194.178 130.506 200.088 130.323 205.807Z" fill="url(#paint1_linear)"/>
<path d="M116.935 186.17C117.118 187.886 117.852 189.602 118.769 190.936C119.319 190.174 120.053 189.411 120.786 188.648C121.703 189.22 122.253 189.983 122.987 190.746C123.72 189.22 124.454 187.886 125.004 186.17C124.637 187.886 124.087 189.602 123.17 191.127C122.62 190.364 121.703 189.602 120.97 188.839C120.236 189.792 119.502 190.555 118.769 191.508C117.485 189.983 116.935 188.077 116.935 186.17ZM115.651 192.843C115.468 197.227 115.468 201.612 115.468 205.997C115.468 205.997 115.468 206.188 115.468 206.378C115.651 206.378 115.651 206.378 115.835 206.378C116.201 201.612 116.018 197.609 115.651 192.843ZM127.572 205.806C127.388 201.421 127.388 197.037 127.388 192.652C127.205 197.037 127.205 201.421 127.205 205.806C127.388 205.806 127.572 205.806 127.572 205.806ZM120.97 192.08C120.786 197.99 120.786 204.09 121.153 210C121.52 204.281 121.52 198.181 120.97 192.08Z" fill="#F19679"/>
<path d="M120.97 190.364C121.153 190.364 121.336 190.555 121.336 190.746C121.336 190.936 121.153 191.127 120.97 191.318C120.786 191.318 120.419 191.127 120.419 190.936C120.419 190.555 120.603 190.174 120.97 190.364Z" fill="#FCA746"/>
<path d="M129.956 208.476C129.956 202.185 129.956 195.703 129.773 189.412C129.406 189.984 128.856 190.555 128.305 191.127C128.489 190.365 128.672 189.793 128.856 189.221C128.122 189.602 127.572 189.602 127.022 189.793C127.755 189.412 128.305 188.84 129.039 188.458C126.838 186.743 124.271 185.408 121.52 184.455C121.52 185.027 121.52 185.408 121.337 185.789C121.153 185.217 120.786 184.836 120.603 184.264C120.236 184.646 119.869 185.217 119.319 185.599C119.503 185.217 119.503 184.836 119.503 184.264C117.118 185.599 114.918 187.315 112.9 189.221C113.267 189.412 113.634 189.602 114.001 189.793C113.451 189.793 113.084 189.793 112.534 189.793C112.717 190.174 113.084 190.746 113.451 191.127C112.9 190.937 112.534 190.555 111.983 189.984C111.617 192.843 111.433 195.512 111.25 198.562C111.066 195.321 111.066 192.271 111.25 189.03C113.817 186.933 116.385 184.646 119.503 183.692C120.236 183.502 120.786 183.692 121.52 183.502C124.454 184.836 127.205 186.552 129.773 188.458C130.873 195.131 130.506 201.994 129.956 208.476Z" fill="#CDBFA1"/>
<path d="M128.672 198.562C123.354 199.515 117.669 197.418 114.367 193.224C115.835 195.893 117.852 197.99 120.419 198.943C123.17 199.706 125.921 199.706 128.672 198.562Z" fill="#CDBFA1"/>
<path d="M127.755 201.612C124.087 202.947 119.869 202.756 116.385 201.422C118.035 202.947 119.686 203.9 121.887 203.9C123.904 203.9 126.105 203.137 127.755 201.612Z" fill="#CDBFA1"/>
<path d="M129.223 189.221C127.022 197.228 124.087 204.853 120.42 212.479C118.402 212.479 116.385 212.098 114.551 211.716C117.669 203.328 120.603 194.368 123.171 185.789C125.188 186.552 127.205 187.886 129.223 189.221Z" fill="url(#paint2_linear)"/>
<path opacity="0.19" d="M150.863 226.777C145.728 227.349 140.409 227.349 135.274 226.777C132.89 214.004 132.157 201.231 132.89 188.267C135.458 186.17 138.575 184.454 141.693 183.501C142.243 183.311 142.427 183.311 142.977 183.311C145.911 184.073 149.396 186.742 152.33 189.03C153.247 201.421 152.697 214.385 150.863 226.777Z" fill="#6CC8C1"/>
<path d="M142.61 193.034C144.261 190.555 145.361 187.886 146.278 185.027C143.894 185.217 141.51 185.027 139.126 185.027C139.676 186.552 140.043 188.458 140.777 189.983C140.96 191.127 141.693 192.08 142.61 193.034Z" fill="#C1A435"/>
<path d="M142.793 183.692C142.793 183.12 143.16 182.358 143.71 181.976C144.26 181.595 144.811 181.214 145.177 180.642C145.544 179.879 145.544 179.117 145.177 178.545C144.811 177.973 144.077 177.401 143.343 177.401C142.793 177.21 142.06 177.401 141.51 177.592C140.959 177.973 140.593 178.545 140.409 179.117C140.409 179.689 140.593 180.642 141.326 180.833C141.51 180.833 141.51 180.833 141.51 180.833C141.693 180.642 141.326 180.261 141.326 179.879C141.326 179.498 141.326 179.117 141.51 178.926C141.876 178.354 142.61 178.354 143.16 178.735C143.71 179.117 143.894 179.879 143.71 180.451C143.527 181.023 142.977 181.595 142.61 182.167C142.243 182.739 141.876 183.311 141.876 183.883C142.243 183.692 142.427 183.692 142.793 183.692Z" fill="#363347"/>
<path d="M138.392 185.789L142.427 183.12L146.461 185.599L146.094 185.98L142.427 184.264L138.759 185.98L138.392 185.789Z" fill="#363347"/>
<path d="M152.513 202.566C152.146 202.566 151.963 202.566 151.596 202.566C151.963 197.99 151.963 193.224 151.596 188.839C149.762 187.314 148.112 186.17 146.094 185.027C144.994 187.886 143.71 190.174 142.427 192.462C141.143 190.365 139.859 187.886 138.942 185.027C137.108 185.98 135.274 187.124 133.624 188.649C133.44 193.415 133.257 198.372 133.624 203.138C133.44 203.138 133.257 203.138 132.89 203.328C133.074 204.091 133.074 204.663 133.257 205.425C133.44 205.425 133.624 205.425 133.624 205.425C133.624 205.807 133.624 206.378 133.807 206.76C134.541 206.95 135.274 207.141 136.008 207.141C136.191 207.141 136.191 207.141 136.375 207.141C136.741 212.479 137.108 217.817 137.475 223.155C141.143 223.727 144.444 224.108 148.112 223.536C148.662 218.008 149.212 212.479 149.579 206.76H149.762C150.313 206.569 150.863 206.569 151.413 206.378C151.413 205.807 151.596 205.235 151.596 204.663C151.78 204.663 151.963 204.853 152.33 204.853C152.33 204.091 152.513 203.328 152.513 202.566Z" fill="#E8CF4F"/>
<path d="M138.392 192.271C139.126 192.08 139.859 191.89 140.593 191.699C140.042 192.271 139.676 192.652 139.125 193.224C140.042 196.084 140.959 198.753 141.876 201.612C141.143 198.753 140.226 195.893 139.309 193.224C139.859 192.652 140.409 192.08 140.776 191.508C139.859 191.508 138.942 191.699 138.209 191.89C137.475 190.364 136.741 188.649 136.008 187.124C136.741 189.03 137.475 190.746 138.392 192.271Z" fill="#C1A435"/>
<path d="M147.012 192.271C146.278 192.08 145.545 191.89 144.811 191.699C145.178 192.271 145.728 192.652 146.278 193.224C145.178 196.084 144.261 198.753 143.161 201.612C143.894 198.753 144.995 195.893 146.095 193.224C145.545 192.652 145.178 192.08 144.628 191.508C145.545 191.508 146.462 191.699 147.195 191.89C147.929 190.364 148.846 188.649 149.579 187.124C148.662 189.03 147.929 190.746 147.012 192.271Z" fill="#C1A435"/>
<path d="M143.16 223.155C142.61 213.242 142.427 203.519 142.427 193.605C142.793 203.328 142.977 213.432 143.16 223.155Z" fill="#C1A435"/>
<path d="M136.375 207.141C136.191 207.141 136.191 207.141 136.008 207.141C135.825 201.803 135.825 196.274 136.008 190.746C136.191 196.274 136.191 201.612 136.375 207.141Z" fill="#C1A435"/>
<path d="M149.763 206.76H149.579C149.763 202.184 149.763 197.609 149.396 193.034C149.763 197.609 149.946 202.375 149.763 206.76Z" fill="#C1A435"/>
<path d="M136.742 207.141C137.659 206.188 138.392 205.235 138.942 204.091C139.493 204.472 139.859 204.853 140.043 205.425C139.676 205.044 139.493 204.853 139.126 204.472C138.392 205.425 137.475 206.569 136.742 207.522C136.925 207.332 136.742 207.141 136.742 207.141Z" fill="#C1A435"/>
<path d="M149.029 207.141C148.295 206.188 147.562 205.235 146.828 204.091C146.278 204.472 145.911 204.853 145.728 205.425C146.095 205.044 146.278 204.853 146.645 204.472C147.195 205.425 148.112 206.569 148.845 207.522C148.845 207.332 149.029 207.141 149.029 207.141Z" fill="#C1A435"/>
<path d="M135.274 205.425C134.907 205.425 134.357 205.234 133.991 205.234C134.357 205.234 134.724 205.234 135.091 205.234C135.091 204.472 135.091 203.709 134.907 202.946C134.541 202.946 134.174 203.137 133.807 203.137C134.174 202.946 134.724 202.756 135.091 202.756C135.458 203.518 135.274 204.472 135.274 205.425Z" fill="#C1A435"/>
<path d="M151.597 202.565C151.23 202.565 150.68 202.565 150.68 202.565C150.68 203.137 150.68 203.519 150.68 204.091C150.863 204.281 151.047 204.281 151.413 204.472C151.047 204.472 150.863 204.281 150.496 204.281C150.496 203.709 150.496 202.947 150.68 202.375C150.863 202.565 151.23 202.565 151.597 202.565Z" fill="#C1A435"/>
<path d="M151.413 214.576C152.147 205.997 152.33 197.227 151.964 188.839C149.396 186.552 146.462 184.645 143.344 183.692C142.794 183.692 142.427 183.692 141.877 183.883C138.759 184.836 135.825 186.361 133.257 188.649C132.707 195.13 132.707 201.803 133.257 208.285C133.074 202.184 133.257 195.893 133.808 189.602C134.541 190.174 135.091 190.746 135.825 191.508C135.458 190.555 134.908 189.983 134.358 189.221C134.908 189.411 135.458 189.602 136.008 189.602C135.641 189.22 135.091 188.839 134.541 188.458C136.558 186.933 138.576 185.598 140.96 184.645C140.776 185.98 140.776 187.123 140.776 188.458C141.327 187.314 141.51 185.98 141.877 184.645C142.06 185.217 142.427 185.598 142.794 185.98C142.794 185.408 142.977 184.836 142.977 184.264C144.261 184.836 145.361 185.789 146.278 186.933C145.912 185.98 145.361 185.217 144.628 184.454C146.828 185.598 148.846 186.933 150.863 188.458C149.946 188.839 149.029 189.411 148.296 189.983C149.213 189.792 149.946 189.792 150.863 189.602C150.496 190.174 150.13 190.746 149.946 191.318C150.496 190.746 150.863 190.364 151.413 189.792C151.964 197.99 152.147 206.569 151.413 214.576Z" fill="#CDBFA1"/>
<path d="M149.212 197.418C148.295 198.181 147.562 199.325 146.645 200.087C145.728 200.85 144.627 201.613 143.344 202.184C141.143 203.328 138.575 204.091 136.008 203.9C138.209 203.328 140.409 202.756 142.427 201.613C144.994 200.469 147.195 198.944 149.212 197.418Z" fill="#CDBFA1"/>
<path d="M148.112 205.807C144.994 209.238 140.593 211.145 136.008 211.335C136.925 211.335 138.025 210.763 138.942 210.382C140.042 210.001 141.143 209.619 142.243 209.048C144.261 208.094 146.278 207.141 148.112 205.807Z" fill="#CDBFA1"/>
<path d="M147.195 218.961C143.894 218.198 140.776 216.673 138.025 214.767C139.126 216.292 140.41 217.436 142.06 218.008C143.894 218.77 145.361 218.77 147.195 218.961Z" fill="#CDBFA1"/>
<path d="M137.475 226.586C143.16 214.385 147.562 201.422 151.046 188.458C149.763 187.314 148.295 186.552 146.828 185.789C143.711 198.943 140.043 213.623 135.825 226.586C136.558 226.586 136.742 226.777 137.475 226.586Z" fill="url(#paint3_linear)"/>
<path opacity="0.19" d="M181.306 226.777C176.171 227.349 170.853 227.349 165.718 226.777C163.15 214.004 162.233 201.231 162.6 188.267C165.168 186.17 168.285 184.454 171.403 183.501C171.953 183.311 172.136 183.311 172.687 183.311C175.804 184.073 179.289 186.742 182.04 189.03C183.14 201.421 182.957 214.385 181.306 226.777Z" fill="#6CC8C1"/>
<path d="M167.735 185.598C168.836 187.124 170.486 187.886 172.32 187.886C173.971 187.886 175.804 187.124 177.088 185.98L177.822 186.552L176.171 191.127L168.285 190.555L167.368 185.98L167.735 185.598Z" fill="#DC514A"/>
<path d="M172.32 183.692C172.32 183.12 172.687 182.358 173.237 181.976C173.788 181.595 174.338 181.214 174.705 180.642C175.071 179.879 174.888 179.117 174.521 178.545C174.154 177.973 173.421 177.401 172.687 177.401C172.137 177.21 171.403 177.401 170.853 177.592C170.303 177.973 169.936 178.545 169.753 179.117C169.753 179.689 170.12 180.642 170.67 180.833C170.853 180.833 170.853 180.833 170.853 180.833C171.037 180.642 170.67 180.261 170.67 179.879C170.67 179.498 170.67 179.117 170.853 178.926C171.22 178.354 171.954 178.354 172.504 178.735C173.054 179.117 173.237 179.879 173.054 180.451C172.871 181.023 172.504 181.595 171.954 182.167C171.587 182.739 171.22 183.311 171.22 183.883C171.954 183.692 172.137 183.692 172.32 183.692Z" fill="#363347"/>
<path d="M163.334 188.458L171.954 183.12L181.673 188.84L181.307 189.221L172.137 184.264L163.517 188.649L163.334 188.458Z" fill="#363347"/>
<path d="M180.023 188.077H164.067V188.268H180.023V188.077Z" fill="#363347"/>
<path d="M180.573 223.155C175.805 225.061 169.753 223.918 165.351 221.63C165.351 213.432 166.635 207.713 169.202 197.037C167.735 195.512 167.552 193.796 167.552 191.699C167.552 190.555 167.552 189.602 167.368 188.458C167.185 187.505 167.002 186.552 167.002 185.789C167.368 185.599 167.552 185.599 167.919 185.408C167.919 186.742 168.102 188.077 168.469 189.411C170.853 190.365 173.42 190.365 175.805 189.983C176.355 188.649 176.905 187.124 177.272 185.789C177.455 185.98 177.638 185.98 178.005 186.171C178.005 186.171 177.272 188.649 177.272 188.84C177.088 189.793 177.088 190.746 177.272 191.89C177.638 193.796 177.272 195.321 176.171 197.418C179.106 208.094 180.94 214.576 180.573 223.155Z" fill="#FF7857"/>
<path d="M180.022 223.155C175.438 224.49 170.119 223.727 165.901 221.249C165.901 218.389 166.268 215.72 167.001 212.86C166.818 215.529 166.635 218.198 166.451 220.867C167.185 221.63 168.285 222.011 169.386 221.821C169.569 219.723 169.752 217.817 170.303 215.72C170.119 217.817 170.119 219.914 170.303 222.011C172.136 223.346 174.704 223.918 176.905 223.346C177.272 219.914 177.272 216.292 176.538 212.86C177.088 216.292 177.455 219.723 177.455 223.155C177.822 223.155 178.922 222.964 179.289 222.774C179.289 219.723 179.289 216.483 178.922 213.432C179.839 216.483 180.206 219.914 180.022 223.155Z" fill="#DC514A"/>
<path d="M169.752 197.228C169.019 199.515 168.652 201.803 168.652 204.282C168.835 201.994 169.569 199.897 170.303 197.8C170.119 199.134 170.119 200.659 170.119 201.994C170.303 200.469 170.853 199.134 171.22 197.8C172.503 197.8 173.97 197.8 175.254 197.99C176.538 200.278 177.638 202.756 178.189 205.235C177.638 202.375 176.905 199.706 175.621 197.037C175.988 196.465 176.538 195.893 176.721 195.321C173.971 196.084 171.036 195.703 168.652 194.368C168.652 195.512 169.019 196.465 169.752 197.228Z" fill="#DC514A"/>
<path d="M181.673 214.576C182.223 205.997 182.406 197.227 181.856 188.839C179.105 186.552 176.171 184.645 173.053 183.692C172.503 183.692 172.136 183.692 171.586 183.883C168.469 184.836 165.534 186.361 162.967 188.649C162.6 195.13 162.6 201.803 163.334 208.285C163.15 202.184 163.15 195.893 163.517 189.602C164.251 190.174 164.801 190.746 165.534 191.508C165.167 190.555 164.617 189.983 164.067 189.221C164.617 189.411 165.167 189.602 165.718 189.602C165.351 189.22 164.801 188.839 164.251 188.458C166.268 186.933 168.285 185.598 170.486 184.645C170.303 185.98 170.303 187.123 170.303 188.458C170.853 187.314 171.036 185.98 171.219 184.645C171.403 185.217 171.77 185.598 172.136 185.98C172.136 185.408 172.32 184.836 172.32 184.264C173.604 184.836 174.704 185.789 175.621 186.933C175.254 185.98 174.704 185.217 173.97 184.454C176.171 185.598 178.188 186.933 180.206 188.458C179.289 188.839 178.372 189.411 177.638 189.983C178.555 189.792 179.289 189.792 180.206 189.602C179.839 190.174 179.472 190.746 179.289 191.318C179.839 190.746 180.206 190.364 180.756 189.792C181.856 197.99 182.223 206.569 181.673 214.576Z" fill="#CDBFA1"/>
<path d="M179.105 197.418C178.188 198.181 177.455 199.325 176.538 200.087C175.621 200.85 174.521 201.613 173.237 202.184C171.036 203.328 168.469 204.091 165.901 203.9C168.102 203.328 170.303 202.756 172.32 201.613C174.887 200.469 177.088 198.944 179.105 197.418Z" fill="#CDBFA1"/>
<path d="M178.005 205.807C174.888 209.238 170.486 211.145 166.085 211.335C167.002 211.335 168.102 210.763 169.019 210.382C170.119 210.001 171.22 209.619 172.32 209.048C174.337 208.094 176.355 207.141 178.005 205.807Z" fill="#CDBFA1"/>
<path d="M177.455 218.961C174.154 218.198 171.036 216.673 168.285 214.767C169.386 216.292 170.669 217.436 172.503 218.008C174.154 218.77 175.621 218.77 177.455 218.961Z" fill="#CDBFA1"/>
<path d="M167.918 226.586C173.42 214.385 177.638 201.422 180.939 188.458C179.656 187.314 178.188 186.552 176.538 185.789C173.604 198.943 170.302 213.623 166.268 226.586C167.001 226.586 167.185 226.777 167.918 226.586Z" fill="url(#paint4_linear)"/>
<path d="M187.358 180.07H90.1594V178.545H187.358C188.092 178.545 188.092 180.07 187.358 180.07Z" fill="#6CC8C1"/>
<path d="M187.725 179.308C187.725 178.926 187.541 178.736 187.358 178.736H90.1594V179.308H187.725Z" fill="url(#paint5_linear)"/>
<path d="M121.703 178.545C122.253 178.926 122.436 179.498 122.253 180.07H123.72C123.72 179.498 123.72 178.926 123.537 178.545H121.703Z" fill="#363347"/>
<path d="M143.16 178.545C143.71 178.926 143.894 179.498 143.71 180.07H145.177C145.177 179.498 145.177 178.926 144.994 178.545H143.16Z" fill="#363347"/>
<path d="M172.87 178.545C173.42 178.926 173.604 179.498 173.42 180.07H174.887C174.887 179.498 174.887 178.926 174.704 178.545H172.87Z" fill="#363347"/>
<path d="M153.7 21.4C147.8 21.4 143 16.6 143 10.7C143 4.8 147.8 0 153.7 0C159.6 0 164.4 4.8 164.4 10.7C164.4 16.6 159.6 21.4 153.7 21.4ZM153.7 0.4C148 0.4 143.4 5 143.4 10.7C143.4 16.4 148 21 153.7 21C159.4 21 164 16.4 164 10.7C163.9 5 159.3 0.4 153.7 0.4Z" fill="#359591"/>
<path d="M137.3 17.1999V13.9999L142.1 9.5999C142.5 9.2999 142.7 8.99991 142.8 8.69991C142.9 8.49991 143 8.2999 143 8.0999C143 7.8999 142.9 7.6999 142.8 7.5999C142.6 7.4999 142.4 7.3999 142.1 7.3999C141.8 7.3999 141.5 7.49991 141.2 7.69991C140.9 7.89991 140.7 8.0999 140.5 8.3999L140.4 8.69991L136.5 6.7999L136.7 6.4999C137.2 5.4999 138 4.69991 139 4.19991C140 3.59991 141.2 3.3999 142.6 3.3999C143.7 3.3999 144.6 3.5999 145.4 3.8999C146.2 4.2999 146.9 4.7999 147.4 5.3999C147.9 6.0999 148.1 6.79991 148.1 7.69991C148.1 8.49991 147.9 9.1999 147.6 9.7999C147.3 10.4999 146.7 11.1999 145.8 11.9999L144.6 13.0999H148.4V17.0999H137.3V17.1999Z" fill="#359591"/>
<path d="M142.5 3.5999C143.5 3.5999 144.4 3.7999 145.2 4.0999C146 4.3999 146.6 4.8999 147 5.4999C147.4 6.0999 147.7 6.7999 147.7 7.5999C147.7 8.2999 147.5 8.9999 147.2 9.5999C146.9 10.1999 146.3 10.8999 145.4 11.6999L143.6 13.3999H148V16.7999H137.7V14.0999L142.4 9.7999C142.8 9.3999 143.1 9.0999 143.2 8.7999C143.3 8.4999 143.4 8.2999 143.4 7.9999C143.4 7.6999 143.3 7.3999 143.1 7.2999C142.9 7.0999 142.6 6.9999 142.2 6.9999C141.8 6.9999 141.4 7.0999 141.1 7.2999C140.8 7.4999 140.5 7.7999 140.3 8.1999L137 6.5999C137.5 5.6999 138.2 4.8999 139.2 4.3999C140 3.8999 141.2 3.5999 142.5 3.5999ZM142.5 2.8999C141 2.8999 139.8 3.1999 138.7 3.7999C137.6 4.3999 136.8 5.1999 136.3 6.2999L136 6.8999L136.6 7.1999L139.9 8.7999L140.5 9.0999L140.8 8.4999C140.9 8.1999 141.1 7.9999 141.3 7.8999C141.5 7.7999 141.8 7.6999 142.1 7.6999C142.3 7.6999 142.5 7.6999 142.6 7.7999C142.6 7.7999 142.7 7.8999 142.7 7.9999C142.7 8.1999 142.7 8.2999 142.6 8.4999C142.5 8.5999 142.4 8.8999 141.9 9.2999L137.2 13.5999L137 13.7999V14.0999V16.7999V17.4999H137.7H148H148.7V16.7999V13.3999V12.6999H148H145.4L146 12.1999C146.9 11.2999 147.6 10.5999 147.9 9.8999C148.2 9.1999 148.4 8.3999 148.4 7.5999C148.4 6.6999 148.1 5.7999 147.6 5.0999C147.1 4.3999 146.4 3.7999 145.5 3.4999C144.6 3.0999 143.6 2.8999 142.5 2.8999Z" fill="#D7EAF0"/>
<defs>
<linearGradient id="paint0_linear" x1="184.684" y1="180.734" x2="189.748" y2="178.226" gradientUnits="userSpaceOnUse">
<stop stop-color="#C8E8BF"/>
<stop offset="0.1958" stop-color="#A2D1B2"/>
<stop offset="0.4013" stop-color="#81BDA7"/>
<stop offset="0.5134" stop-color="#74B5A3"/>
<stop offset="0.606" stop-color="#7DBAA6"/>
<stop offset="0.754" stop-color="#94C8AE"/>
<stop offset="0.938" stop-color="#BADFBA"/>
<stop offset="1" stop-color="#C8E8BF"/>
</linearGradient>
<linearGradient id="paint1_linear" x1="119.465" y1="219.635" x2="121.542" y2="188.038" gradientUnits="userSpaceOnUse">
<stop stop-color="#F5BA85"/>
<stop offset="0.6233" stop-color="#FCDDB1"/>
<stop offset="1" stop-color="#FFEFC7"/>
</linearGradient>
<linearGradient id="paint2_linear" x1="127.257" y1="185.739" x2="113.775" y2="217.555" gradientUnits="userSpaceOnUse">
<stop stop-color="#9BA87E"/>
<stop offset="0.7104" stop-color="#1F2119"/>
<stop offset="0.8827"/>
</linearGradient>
<linearGradient id="paint3_linear" x1="150.022" y1="184.219" x2="135.974" y2="227.442" gradientUnits="userSpaceOnUse">
<stop stop-color="#9BA87E"/>
<stop offset="0.7104" stop-color="#1F2119"/>
<stop offset="0.8827"/>
</linearGradient>
<linearGradient id="paint4_linear" x1="179.68" y1="184.219" x2="165.781" y2="227.235" gradientUnits="userSpaceOnUse">
<stop stop-color="#9BA87E"/>
<stop offset="0.7104" stop-color="#1F2119"/>
<stop offset="0.8827"/>
</linearGradient>
<linearGradient id="paint5_linear" x1="191.455" y1="171.977" x2="96.1466" y2="183.709" gradientUnits="userSpaceOnUse">
<stop stop-color="#87A37F"/>
<stop offset="0.2214" stop-color="#85A07D"/>
<stop offset="0.3789" stop-color="#7D9776"/>
<stop offset="0.5165" stop-color="#708769"/>
<stop offset="0.6427" stop-color="#5E7158"/>
<stop offset="0.7611" stop-color="#465542"/>
<stop offset="0.8738" stop-color="#293127"/>
<stop offset="0.9799" stop-color="#070907"/>
<stop offset="1"/>
</linearGradient>
</defs>
</svg>
