<svg width="300" height="265" viewBox="0 0 300 265" fill="none" xmlns="http://www.w3.org/2000/svg">
<path d="M89.3529 112.574C48.8252 138.67 61.8765 177.222 61.8765 177.222C61.8765 177.222 16.197 184.042 8.98441 218.442C1.77186 253.138 16.5404 264.703 16.5404 264.703L271.041 265C271.041 265 310.538 169.511 268.98 124.436C227.765 79.9537 130.224 86.4778 89.3529 112.574Z" fill="#FAFFFF"/>
<path d="M196.801 247.512C198.515 249.288 198.172 252.84 198.515 252.84C199.2 253.432 200.572 249.88 200.572 249.88L198.515 243.664C198.515 243.664 194.401 240.112 189.601 235.672C188.229 236.856 186.858 238.04 185.829 239.52C190.629 242.776 194.743 245.736 196.801 247.512Z" fill="#F8A492"/>
<path d="M198.858 243.96C198.858 243.96 199.201 243.368 200.572 243.96C201.943 244.552 205.372 249.288 205.372 249.288L204.343 250.176C204.343 250.176 201.601 246.624 201.258 246.92C200.915 247.216 203.658 251.064 203.315 251.656C202.972 252.248 199.886 255.208 198.858 255.208C197.829 255.208 198.515 252.544 198.515 252.544C198.515 252.544 200.572 251.36 200.572 250.768C200.229 250.472 198.858 243.96 198.858 243.96Z" fill="#09434C"/>
<path d="M174.857 253.728C174.514 256.096 171.428 258.168 171.428 258.76C171.428 259.648 175.2 258.168 175.2 258.168L178.971 252.544C178.971 252.544 178.971 247.512 179.314 241.592C177.257 241.592 175.542 241.592 173.485 241.888C174.514 246.328 175.2 251.064 174.857 253.728Z" fill="#F8A492"/>
<path d="M179.314 252.248C179.314 252.248 180 251.952 180.343 253.136C181.028 254.32 179.314 259.944 179.314 259.944H177.943C177.943 259.944 178.971 255.8 178.628 255.8C178.285 255.8 176.914 259.944 176.228 260.24C175.543 260.536 170.743 260.536 170.057 259.944C169.371 259.352 172.114 257.872 172.114 257.872C172.114 257.872 174.514 258.168 174.857 257.872C175.2 257.872 179.314 252.248 179.314 252.248Z" fill="#09434C"/>
<path d="M174.858 182.689L166.629 179.137L166.972 182.097C166.972 182.097 159.429 211.105 161.143 215.545C165.258 225.905 189.943 243.073 189.943 243.073L194.743 239.225C194.743 239.225 175.886 216.729 175.886 212.585C175.886 208.441 182.058 184.169 182.058 184.169L174.858 182.689Z" fill="#EFC700"/>
<path opacity="0.51" d="M175.886 212.88C175.886 208.736 182.057 184.464 182.057 184.464L174.857 182.984L166.628 179.432L166.971 182.392C166.971 182.392 165.943 186.832 164.571 192.456C168.686 194.824 169.028 213.768 171.428 228.568L178.971 219.096C176.914 216.136 175.886 214.064 175.886 212.88Z" fill="#531C2E"/>
<path d="M166.629 179.136C166.629 179.136 166.972 184.168 166.972 184.76C166.972 185.352 174.171 239.816 171.772 248.696H180.343C180.343 248.696 189.6 198.968 189.6 190.68C189.6 182.392 185.143 177.064 185.143 177.064L166.629 179.136Z" fill="#FFDD00"/>
<path d="M185.143 177.064L166.286 179.136C166.286 179.136 166.628 184.168 166.628 184.76C166.628 184.76 166.628 185.648 166.971 186.832C170.743 185.648 175.2 184.168 177.6 182.984C182.4 180.912 183.771 178.544 186.171 178.544C185.828 177.656 185.143 177.064 185.143 177.064Z" fill="#F7604B"/>
<path d="M179.315 136.216C179.315 136.216 181.372 142.432 180.344 145.984C179.315 150.128 175.887 154.864 175.887 154.864L187.201 145.688L184.115 134.144L179.315 136.216Z" fill="#F8A492"/>
<path d="M188.229 143.912C188.229 143.912 178.972 144.208 172.458 149.832C165.944 155.456 165.944 155.16 165.944 157.232C165.944 159.304 165.258 168.776 165.258 174.104C165.258 179.432 164.572 182.688 165.258 182.688C171.086 183.576 180.344 176.768 186.172 177.656C186.172 177.656 191.315 170.848 190.286 168.184C189.258 165.52 190.972 163.744 191.315 159.008C192.001 154.272 193.372 143.912 188.229 143.912Z" fill="#ACF0FD"/>
<path d="M185.829 158.12C188.915 154.272 191.657 147.76 186.515 146.872C186.515 146.872 183.429 154.864 178.286 158.416C175.543 160.192 170.058 161.968 165.6 163.152C165.6 165.816 165.258 169.072 165.258 172.032C170.4 169.368 183.086 161.376 185.829 158.12Z" fill="#69BFDB"/>
<path d="M186.515 146.576C186.515 146.576 181.372 145.392 176.572 148.648C171.772 151.608 163.201 159.896 162.172 159.896C160.115 160.192 153.944 160.192 153.944 160.192C153.944 160.192 152.229 161.08 151.886 166.408C151.886 169.072 160.801 170.256 163.544 170.256C166.629 169.96 182.743 161.08 185.829 157.528C189.258 153.68 191.658 147.76 186.515 146.576Z" fill="#CCF7FF"/>
<path d="M154.629 160.192C154.972 160.192 154.972 160.192 155.315 160.192C156 163.448 155.315 167 154.629 168.776C153.943 168.48 153.6 168.184 152.915 167.888C152.572 166.112 152.915 164.04 152.915 164.04L154.629 160.192Z" fill="#69BFDB"/>
<path d="M176.572 124.376C176.572 124.376 174.858 125.264 173.83 127.632C172.801 130 173.487 140.36 175.887 141.248C178.287 141.84 182.401 140.36 187.201 135.624C192.344 130.296 184.801 120.824 176.572 124.376Z" fill="#F8A492"/>
<path d="M174.172 126.448C174.172 126.448 176.229 127.04 176.572 130.296C176.914 133.552 180.343 134.44 181.714 135.624C183.086 137.104 183.771 140.064 188.229 138.88C192.686 137.696 192 133.848 190.971 131.184C189.943 128.52 186.171 124.672 182.743 123.488C179.314 122.008 171.772 123.192 174.172 126.448Z" fill="#75271A"/>
<path d="M184.8 124.377C187.2 126.153 189.6 128.521 190.286 130.593C191.315 133.257 192 137.105 187.543 138.289C185.829 138.585 184.8 138.585 184.115 138.289C185.143 138.881 186.172 139.473 188.572 138.881C193.029 137.697 192.343 133.849 191.315 131.185C190.286 128.817 187.543 125.857 184.8 124.377Z" fill="#6D1B11"/>
<path d="M188.915 128.52C188.915 128.52 189.6 130.889 191.315 131.185C193.029 131.481 194.058 131.48 194.4 130.296C194.743 129.408 196.8 129.705 195.772 127.929C194.743 126.153 194.4 124.969 192.686 124.969C190.972 124.969 190.286 125.56 188.915 125.856C187.543 126.448 188.915 128.52 188.915 128.52Z" fill="#75271A"/>
<path d="M154.286 161.08C154.286 161.08 137.486 158.12 134.743 157.824C132.001 157.528 122.401 158.12 122.401 158.712C122.743 159.304 128.915 159.6 128.915 159.896C128.915 159.896 128.229 161.08 128.572 161.672C128.915 162.264 129.258 162.264 129.601 162.856C129.943 163.448 130.629 163.448 130.972 163.744C131.315 164.04 133.029 164.336 134.058 164.04C135.086 163.744 135.429 162.56 137.143 162.56C138.515 162.56 152.915 166.704 152.915 166.704L154.286 161.08Z" fill="#F8A492"/>
<path d="M147.772 167C147.772 167 152.915 169.664 153.943 169.368C154.629 169.072 156.343 159.896 154.972 159.008C153.943 158.416 149.829 158.712 149.486 159.304C149.143 159.6 146.743 166.408 147.772 167Z" fill="#ACF0FD"/>
<path d="M173.923 130C173.923 130 172 135.283 172 135.87C172.385 136.163 173.538 135.87 173.538 135.87C173.538 135.87 175.077 135.576 175.077 135.87C175.077 136.163 176.231 135.576 176.231 135.576L177 135.283L173.923 130Z" fill="#F8A492"/>
<path d="M174.513 132.664C174.513 132.664 174.856 132.664 174.513 132.664C174.513 133.256 174.513 133.848 175.199 133.848C174.513 133.848 174.513 132.96 174.513 132.664Z" fill="#75271A"/>
<path d="M175.198 132.072C176.227 132.072 176.227 133.552 175.198 133.552C174.513 133.848 174.513 132.072 175.198 132.072Z" fill="#75271A"/>
<path d="M175.884 131.48C175.541 131.48 175.541 131.48 175.198 131.184C174.856 131.184 174.856 131.184 174.513 130.888V130.592C174.856 130.296 175.198 130.296 175.541 130.592C175.884 130.592 176.227 130.888 176.227 131.184C176.57 131.184 176.227 131.48 175.884 131.48Z" fill="#75271A"/>
<path d="M176.228 138.288C175.885 138.288 175.885 138.288 175.542 138.288C175.199 138.288 175.199 137.992 175.199 137.992C175.199 138.288 175.542 138.584 175.542 138.584C175.885 138.584 176.228 138.584 176.228 138.288Z" fill="#75271A"/>
<path d="M173.828 135.328C173.485 135.328 172.114 135.624 172.456 135.328C172.799 133.848 173.142 132.072 173.828 130.592C173.485 132.072 172.799 133.552 172.799 135.032C173.142 135.032 173.485 135.032 173.828 135.032" fill="#75271A"/>
<path d="M174.513 136.808C174.513 136.808 174.513 137.4 174.856 137.696C174.856 137.696 175.198 137.992 175.541 137.992C175.884 137.992 176.227 137.696 176.227 137.4C176.227 137.104 176.227 136.808 176.227 136.808C176.227 136.808 175.541 137.104 174.513 136.808Z" fill="#75271A"/>
<path d="M175.199 137.696C175.199 137.696 175.542 137.992 175.885 137.992C176.228 137.992 176.571 137.696 176.571 137.4C175.885 137.104 175.542 137.104 175.199 137.696Z" fill="#FF98B9"/>
<path d="M37.7494 251.019C37.7494 251.019 36.0761 252.455 36.0761 253.029C36.0761 253.603 36.076 259.632 36.7454 260.206C37.4147 260.78 39.7574 261.067 38.7534 261.641C38.0841 262.215 34.4027 261.928 31.7254 261.928C31.056 261.928 30.052 256.474 29.7173 255.9C29.3827 254.751 27.7093 252.167 28.044 251.593C28.3787 251.306 29.7174 250.445 31.056 249.584C32.3947 248.723 33.7334 247 33.7334 247L37.7494 251.019Z" fill="#FFC6BD"/>
<path d="M62.3999 254.307L60.6857 258.609C60.6857 259.224 60 260.761 60 261.375C60 263.526 71.314 259.531 68.5712 258.302C68.2284 258.302 67.5427 257.38 67.5427 256.766C67.5427 255.536 68.5712 254 68.5712 254L62.3999 254.307Z" fill="#FFC6BD"/>
<path d="M77.4847 177.952L81.5989 187.128C81.5989 187.128 84.3418 208.736 82.6275 221.76C81.9418 227.088 67.8847 256.392 67.8847 256.392L61.0276 255.504L70.2847 221.168L66.8561 208.144L62.0561 182.096L77.4847 177.952Z" fill="#211E27"/>
<path d="M58.2847 178.544L54.8561 188.608L49.7133 219.096L31.8848 247.808C31.8848 247.808 34.6276 251.36 37.3705 251.952L62.7418 222.944L76.456 186.832L76.1132 178.84L58.2847 178.544Z" fill="#1C1921"/>
<path d="M86 174.726C84.2979 171.137 81.5745 164.855 81.2341 164.556L78.5106 149.897L70 149C70 149 73.4043 164.855 73.7447 165.453C74.0851 166.051 81.5745 179.214 84.6383 184C84.6383 181.009 85.3191 177.718 86 174.726Z" fill="#F8A492"/>
<path d="M80.9941 160.136L71.3332 161C71.3332 161 71 154.091 71 150.924C71 146.894 71.6663 142 72.3325 142C73.9982 142.288 75.6639 142.864 76.9965 144.303C81.3272 149.485 80.9941 160.136 80.9941 160.136Z" fill="#D9F9F7"/>
<path d="M30.5898 249C30.5898 249 34.148 259.045 35.7653 259.636C36.0888 259.636 38.3531 260.227 39 261.114C39 261.705 38.6765 262 38.0296 262H30.5898C30.5898 262 29.6194 257.568 28.9724 255.5C28.9724 255.5 26.7082 250.477 27.0316 250.182C27.6786 249.886 30.5898 249 30.5898 249Z" fill="#454745"/>
<path d="M59 262L60.3227 258C60.3227 258 62.9682 259 64.2909 259C65.6136 258.667 68.2591 258 68.2591 258C73.5499 259.667 77.8488 260.667 76.8567 262H59Z" fill="#454745"/>
<path d="M59.5918 141.381C59.5918 141.381 52.5892 142.573 51.1887 143.466C49.4381 144.36 50.1383 147.933 50.1383 147.933C50.1383 147.933 56.4406 173.547 56.0905 177.716C55.7404 182.184 54.69 188.736 54.69 188.736C54.69 188.736 74.6473 189.927 82 187.247C82 187.247 79.5491 177.121 79.5491 174.44C79.5491 171.76 78.1486 145.551 77.0982 144.062C76.0478 142.573 74.2972 141.977 70.4458 141.083C67.2946 140.786 59.5918 141.381 59.5918 141.381Z" fill="#DEFFFE"/>
<path d="M59.4118 142L64 144.25L61.8824 147L58 142H59.4118Z" fill="#BFD8D8"/>
<path d="M64 143.9L66.1428 149L67 144.5L66.1428 144.2L64 140V143.9Z" fill="#FFC6BD"/>
<path d="M65 147L69.125 189H71L66.125 147.302L65.75 148.813L65 147Z" fill="#BFD8D8"/>
<path d="M68.75 141L65 144.333L67.9167 147L70 141H68.75Z" fill="#BFD8D8"/>
<path d="M75 155H70V156H75V155Z" fill="white"/>
<path d="M83 158L79 158.333V161L83 160.667V158Z" fill="#BFD8D8"/>
<path d="M65.4859 145.984C63.7717 146.28 61.3717 143.616 60.0002 141.544C60.0002 141.544 60.3431 140.064 60.3431 138.288C60.3431 137.104 60.6859 135.92 60.6859 135.032C60.6859 134.736 68.9145 136.808 68.9145 136.808C68.9145 136.808 67.8859 139.176 67.8859 140.952C67.8859 141.248 67.8859 141.248 67.8859 141.544C68.5717 142.432 67.5431 145.392 65.4859 145.984Z" fill="#F8A492"/>
<path d="M68.2282 141.248C68.2282 141.248 68.2282 141.544 68.2282 141.248C67.8854 141.248 67.5425 141.248 67.5425 141.248C62.7425 140.952 61.7139 135.92 61.3711 134.736C62.7425 135.032 69.2568 136.512 69.2568 136.512C69.2568 136.512 68.2282 138.88 68.2282 140.656C68.2282 140.952 68.2282 141.248 68.2282 141.248Z" fill="#EF8978"/>
<path d="M59.3129 126.744C58.6272 129.112 60.6843 136.216 63.0843 137.696C66.17 139.768 71.3128 139.768 73.37 136.512C75.4271 133.552 72.3414 124.672 69.9414 123.192C66.5129 121.12 60.3415 123.192 59.3129 126.744Z" fill="#F8A492"/>
<path d="M67.8839 130.297C67.8839 130.297 67.8839 130.593 67.8839 130.297C67.8839 130.889 68.2267 131.481 67.541 131.481C68.2267 131.481 68.2267 130.889 67.8839 130.297Z" fill="#75271A"/>
<path d="M67.1977 130C66.1691 130 66.512 131.776 67.5406 131.48C68.2263 131.48 67.8834 130 67.1977 130Z" fill="#75271A"/>
<path d="M70.9685 130C70.9685 130.592 71.3114 130.888 71.9971 131.184C71.3114 131.184 70.9685 130.296 70.9685 130Z" fill="#75271A"/>
<path d="M71.3128 129.408C72.3414 129.112 72.6842 130.592 71.9985 130.888C70.9699 131.184 70.6271 129.408 71.3128 129.408Z" fill="#75271A"/>
<path d="M66.1692 129.408C66.5121 129.408 66.5121 129.112 66.8549 129.112C67.1978 129.112 67.1978 128.816 67.5406 128.816V128.52C67.1978 128.224 66.8549 128.52 66.5121 128.52C66.1692 128.816 65.8263 128.816 65.8263 129.112C65.4835 129.408 65.8264 129.704 66.1692 129.408Z" fill="#75271A"/>
<path d="M71.6546 128.52C71.3118 128.52 71.3118 128.52 70.9689 128.52C70.626 128.52 70.2832 128.52 70.2832 128.224V127.928C70.6261 127.632 70.9689 127.632 71.3118 127.632C71.6546 127.632 71.9975 127.632 72.3403 127.928C72.3403 128.224 72.3403 128.52 71.6546 128.52Z" fill="#75271A"/>
<path d="M68.2258 134.736C68.2258 134.736 68.5687 135.032 68.9115 135.032C69.2544 135.032 69.2544 135.032 69.5973 134.736C69.5973 135.032 69.2544 135.032 68.9115 135.032C68.5687 135.328 68.2258 135.032 68.2258 134.736Z" fill="#75271A"/>
<path d="M68.5688 133.256C68.9117 133.552 69.5974 133.848 69.9403 133.848C70.2831 133.848 70.2831 133.848 70.626 133.848C70.626 133.552 70.2831 132.96 70.2831 132.96C70.626 132.96 71.3117 133.256 71.3117 132.96C70.9688 131.48 70.2831 129.704 69.2545 128.224C69.5974 129.704 70.2831 131.184 70.9688 132.664C70.626 132.664 70.2831 132.664 69.9403 132.664L70.2831 133.848C69.9403 133.552 69.2546 133.552 68.5688 133.256Z" fill="#75271A"/>
<path d="M70.283 133.552C70.283 133.552 69.9401 134.144 69.5973 134.44C69.2544 134.44 69.2544 134.736 68.9115 134.44C68.5687 134.44 68.2258 134.144 68.2258 133.848C68.2258 133.552 68.2258 133.256 68.2258 133.256C68.2258 133.256 69.2544 133.848 70.283 133.552Z" fill="#75271A"/>
<path d="M69.5973 134.44C69.2544 134.44 69.2544 134.736 68.9115 134.44C68.5687 134.44 68.2258 134.144 68.2258 133.848C68.9115 133.848 69.5973 133.848 69.5973 134.44Z" fill="#FF98B9"/>
<path d="M71.6557 125.264C71.3128 124.672 70.6271 124.08 70.2842 124.08C69.9414 124.08 69.5985 124.968 68.9128 125.264C67.5414 125.56 66.8557 124.672 64.7985 124.968C62.0557 125.264 61.37 127.336 62.0557 130.592C62.7414 133.552 60.6842 134.144 60.6842 134.144C60.6842 134.144 57.9414 128.224 59.6557 125.856C61.37 123.488 65.8271 121.712 69.5985 123.192C70.6271 123.192 71.6557 125.264 71.6557 125.264Z" fill="#75271A"/>
<path d="M62.0558 132.368C62.0558 132.368 59.9987 130.296 58.6272 130.888C57.5987 131.48 59.3129 134.736 60.6844 135.032C62.0558 135.328 62.7415 134.144 62.7415 134.144L62.0558 132.368Z" fill="#F8A492"/>
<path d="M59.313 131.776C60.3416 132.072 61.0273 132.96 61.3701 133.552C61.0273 133.256 60.6844 133.256 59.9987 133.552C60.3415 133.552 60.6844 133.552 61.0273 133.848C61.3701 134.144 61.3701 134.144 61.713 134.44H62.0558C61.713 133.256 60.6844 131.776 59.313 131.776Z" fill="#75271A"/>
<path d="M71.3141 123.784C70.6284 123.784 66.1713 124.672 64.1141 125.56C62.3999 126.448 59.3142 129.408 59.3142 129.704C59.3142 130 56.9142 124.08 62.3999 122.008C68.5713 119.936 71.3141 123.784 71.3141 123.784Z" fill="#359591"/>
<path d="M59.6572 129.408C59.6572 129.408 62.4001 124.672 64.4572 123.192C66.5144 122.008 70.9715 120.528 74.4 121.12C76.8 121.712 71.6572 124.968 71.6572 124.968C71.6572 124.968 71.3143 124.376 70.6286 124.08C68.9143 123.784 66.5143 124.672 64.8001 125.264C63.0858 126.448 59.6572 129.408 59.6572 129.408Z" fill="#FFC727"/>
<path d="M59.6572 129.408C59.6572 129.408 62.4001 124.672 64.4572 123.192C66.5144 122.008 70.9715 120.528 74.4 121.12C76.8 121.712 71.6572 124.968 71.6572 124.968C71.6572 124.968 71.3143 124.376 70.6286 124.08C68.9143 123.784 66.5143 124.672 64.8001 125.264C63.0858 126.448 59.6572 129.408 59.6572 129.408Z" fill="#6CC8C1"/>
<path d="M178.628 133.848C178.628 133.848 180 131.184 181.371 131.776C182.743 132.072 182.057 135.624 180.686 136.216C179.314 136.808 178.628 135.92 178.628 135.92V133.848Z" fill="#F8A492"/>
<path d="M181.372 132.664C180.344 133.256 180.001 134.144 180.001 135.032C180.343 134.736 180.686 134.44 181.029 134.736C180.686 134.736 180.343 134.736 180.001 135.032C180.001 135.328 179.658 135.624 179.658 135.624H179.315C179.315 134.736 180.001 132.96 181.372 132.664Z" fill="#75271A"/>
<path d="M299.999 104.544H219.771V264.088H299.999V104.544Z" fill="#6CC8C1"/>
<path d="M251.314 95.0723H246.171V264.088H251.314V95.0723Z" fill="#359591"/>
<path d="M251.314 95.0723C251.314 95.3683 251.314 264.088 251.314 264.088H300V104.248L251.314 95.0723Z" fill="#7FD6CB"/>
<path opacity="0.57" d="M290.401 114.313L263.315 109.281C263.315 111.649 260.915 113.425 258.515 113.425C258.173 113.425 257.83 113.425 257.487 113.425L257.144 160.193C259.544 160.489 261.601 162.265 261.601 164.337L288.687 167.297C288.687 164.929 291.087 163.153 293.487 163.153C293.83 163.153 293.83 163.153 294.172 163.153L294.515 118.457C292.115 118.161 290.401 116.385 290.401 114.313ZM292.115 161.673C289.715 161.969 287.658 163.745 286.973 165.521L263.315 162.857C262.63 161.081 261.258 159.601 259.201 158.713L259.544 114.905C261.944 114.609 264.344 113.129 265.03 111.057L288.687 115.497C289.03 117.273 290.401 118.753 292.458 119.345L292.115 161.673Z" fill="#BED9EC"/>
<path opacity="0.57" d="M289.715 195.713L282.515 195.121C282.515 197.489 280.458 199.265 277.715 199.265H277.372V253.137C280.115 253.137 282.172 254.913 282.172 257.281H289.372C289.372 254.913 291.429 253.137 294.172 253.137V199.857C291.772 199.561 289.715 197.785 289.715 195.713ZM292.115 251.657C289.715 252.249 288.001 253.729 287.315 255.801H283.543C282.858 253.729 281.144 252.249 278.744 251.657V200.745C281.144 200.153 283.201 198.673 283.886 196.897L287.658 197.193C288.343 198.969 289.715 200.449 291.772 201.337L292.115 251.657Z" fill="#BED9EC"/>
<path opacity="0.57" d="M269.486 194.233L263.315 193.641C263.315 196.009 261.258 197.785 258.515 197.785H258.172L258.515 252.841C261.258 252.841 263.315 254.617 263.315 256.985H269.143C269.143 254.617 271.2 252.841 273.943 252.841V198.081C271.543 198.081 269.486 196.305 269.486 194.233ZM272.229 251.657C269.829 252.249 268.115 253.729 267.429 255.801H265.029C264.343 254.025 262.629 252.249 260.229 251.953L259.886 199.857C261.258 199.561 262.286 198.969 263.315 198.377C264 197.785 264.686 196.897 265.029 196.009L268.115 196.305C268.8 198.081 270.172 199.561 272.229 200.449V251.657Z" fill="#BED9EC"/>
<path d="M262.285 182.984C263.421 182.984 264.342 181.526 264.342 179.728C264.342 177.93 263.421 176.472 262.285 176.472C261.149 176.472 260.228 177.93 260.228 179.728C260.228 181.526 261.149 182.984 262.285 182.984Z" fill="#F7CC7F"/>
<path d="M266.056 178.544V181.208H261.941C261.941 180.912 261.599 180.32 261.599 179.728C261.599 179.432 261.599 178.84 261.599 178.544H266.056Z" fill="#F47458"/>
<path d="M266.055 184.76C267.76 184.76 269.141 182.507 269.141 179.728C269.141 176.949 267.76 174.696 266.055 174.696C264.351 174.696 262.97 176.949 262.97 179.728C262.97 182.507 264.351 184.76 266.055 184.76Z" fill="#FAE0B2"/>
<path d="M266.741 184.76C268.446 184.76 269.827 182.507 269.827 179.728C269.827 176.949 268.446 174.696 266.741 174.696C265.037 174.696 263.656 176.949 263.656 179.728C263.656 182.507 265.037 184.76 266.741 184.76Z" fill="#FAE0B2"/>
<path d="M285.547 265H2.74235C1.37117 265 0 264 0 263C0 262 1.37117 261 2.74235 261H285.204C286.576 261 287.947 262 287.947 263C288.29 264 286.918 265 285.547 265Z" fill="#5C8097"/>
<path opacity="0.19" d="M86.0577 204C73.7148 203.408 62.4006 201.336 50.4006 198.968C50.7435 185.944 52.4578 173.512 55.2006 160.784C60.6863 157.824 66.8577 155.16 73.372 153.68C74.7434 153.976 75.4291 154.272 76.8006 153.976C82.6291 156.936 87.7719 160.192 92.2291 164.632C91.8862 177.36 90.5148 191.864 86.0577 204Z" fill="#6CC8C1"/>
<path d="M74.7436 162.56C77.4864 161.968 79.8864 160.488 81.6007 158.416C79.5436 158.12 77.4864 158.12 75.4293 157.824C73.0293 157.528 70.2865 157.232 67.8865 156.048C69.2579 159.008 71.6579 161.376 74.7436 162.56Z" fill="#F19679"/>
<path d="M75.7717 154.568C75.7717 153.384 76.8003 152.496 77.8288 152.2C78.8574 151.904 80.2288 151.312 80.9145 150.424C81.9431 149.536 81.9431 148.056 81.2574 146.872C80.5717 145.688 79.5431 144.8 78.1717 144.504C77.1431 144.208 75.7717 144.208 74.7432 144.504C73.7146 144.8 72.686 145.688 72.3431 146.872C72.0003 147.76 72.3431 149.536 73.7146 149.832C74.0574 149.832 74.0574 149.832 74.4003 149.832C75.086 149.536 74.4003 148.944 74.4003 148.352C74.4003 147.76 74.4003 147.168 75.086 146.576C76.1146 145.984 77.486 145.984 78.5146 146.576C79.5431 147.168 79.5431 148.352 79.2003 149.536C78.8574 150.424 77.8288 151.312 76.8003 151.904C75.7717 152.496 75.086 153.68 75.086 154.568C75.086 154.568 75.4288 154.568 75.7717 154.568Z" fill="#363347"/>
<path d="M67.2004 156.936L75.429 153.976L82.629 158.712L81.6004 159.008L75.429 155.456L67.5433 157.528L67.2004 156.936Z" fill="#363347"/>
<path d="M87.7714 192.16C86.0571 192.16 84.3428 191.864 82.2857 191.568C81.9428 191.568 81.9428 191.568 81.6 191.568C81.2571 193.936 80.9142 196.008 80.5714 198.376C73.3714 198.376 65.4857 197.488 58.6286 195.712C58.9715 193.936 59.3143 191.568 59.3143 189.792C58.9715 189.792 58.9715 189.792 58.6286 189.792C56.2286 189.496 53.8286 188.904 51.7715 188.312C52.4572 179.136 53.8286 170.256 56.2286 161.08C59.6572 158.712 63.7715 156.936 67.8857 155.752C69.6 157.824 71.3143 159.6 73.3714 161.376C76.4571 160.784 79.5428 159.6 81.6 157.824C85.3714 159.6 88.1142 161.672 90.8571 164.336C90.8571 173.808 89.8285 183.28 87.7714 192.16Z" fill="url(#paint0_linear)"/>
<path d="M66.8576 157.528C66.8576 160.192 67.5433 163.152 69.2576 165.52C70.629 164.336 72.3433 163.152 73.7147 162.264C75.0862 163.448 76.4576 164.632 77.4862 166.112C79.5433 164.04 80.9147 161.672 82.2861 159.304C81.2576 161.968 79.5433 164.632 77.4862 167C76.4576 165.52 75.0862 164.04 73.7147 162.856C72.0005 164.04 70.2862 165.224 68.5719 166.704C67.2005 164.04 66.5148 160.784 66.8576 157.528ZM62.7434 168.184C61.3719 175.288 60.0005 182.096 58.9719 189.2C58.9719 189.2 58.9719 189.496 58.9719 189.792C59.3148 189.792 59.3148 189.792 59.6577 189.792C61.3719 182.392 62.4005 175.88 62.7434 168.184ZM82.629 191.568C83.3147 184.464 84.3433 177.36 85.7147 170.256C84.0004 177.36 82.9719 184.464 81.9433 191.568C82.2861 191.568 82.2861 191.568 82.629 191.568ZM73.3719 168.184C71.3148 177.656 69.9433 187.424 68.9148 197.192C70.9719 187.72 72.6862 177.952 73.3719 168.184Z" fill="#F19679"/>
<path d="M73.7155 165.224C74.0583 165.224 74.4012 165.52 74.4012 166.112C74.4012 166.408 74.0583 166.704 73.7155 167C73.3726 167 72.6869 166.704 72.6869 166.408C72.344 165.52 73.0298 165.224 73.7155 165.224Z" fill="#FCA746"/>
<path d="M86.4003 196.6C88.1145 186.24 89.486 176.176 90.8574 165.816C89.8288 166.704 88.8002 167.296 87.7717 168.184C88.1145 167 88.8003 166.112 89.1431 165.224C87.7717 165.52 86.7431 165.52 85.3717 165.816C86.7431 165.224 88.1145 164.632 89.8288 164.336C86.0574 161.08 81.2574 158.416 76.4574 156.048C76.1146 156.936 76.1146 157.528 75.7717 158.416C75.4289 157.528 75.086 156.64 74.7432 156.048C74.0575 156.64 73.0289 157.528 72.0003 157.824C72.3432 157.232 72.686 156.64 72.686 155.752C67.5432 157.528 63.0861 159.6 58.6289 161.968C59.3146 162.56 60.0003 162.856 60.6861 163.152C59.6575 163.152 58.9718 162.856 57.9432 162.856C58.2861 163.744 58.6289 164.632 59.3147 165.224C58.2861 164.632 57.6004 164.04 56.9146 163.152C55.5432 167.592 54.5147 172.032 53.4861 176.472C53.8289 171.44 54.5147 166.112 55.8861 161.08C61.3718 158.12 66.8575 155.16 73.3717 154.272C74.7432 153.976 76.1146 154.568 77.486 154.568C82.6288 157.528 87.7717 160.784 92.2288 164.632C91.5431 175.288 89.486 186.24 86.4003 196.6Z" fill="#CDBFA1"/>
<path d="M86.3997 180.024C75.7711 180.32 65.4855 175.584 59.9998 168.184C62.0569 172.624 65.4855 176.768 70.2854 178.84C75.4283 180.912 80.914 181.504 86.3997 180.024Z" fill="#CDBFA1"/>
<path d="M84.0002 185.056C76.4573 186.24 68.5716 185.352 62.0574 182.096C64.8002 184.76 67.8859 186.832 72.0002 187.128C76.1145 187.72 80.2287 187.128 84.0002 185.056Z" fill="#CDBFA1"/>
<path d="M58.9719 195.712C66.8576 182.984 71.6576 171.736 78.5147 158.416C82.629 159.896 86.0575 162.56 89.4861 165.224C82.9718 177.656 78.1719 186.24 68.9148 197.488" fill="url(#paint1_linear)"/>
<path d="M78.1724 146.576C79.2009 147.464 79.2009 148.352 78.8581 149.24L81.6009 149.536C81.9438 148.648 81.9438 147.76 81.6009 147.168L78.1724 146.576Z" fill="#363347"/>
<path d="M45 162.35L55.5927 165C55.5927 165 57.643 160.878 57.9847 156.756C58.3264 152.928 52.8591 142.918 51.1506 144.096C47.3919 146.746 45 162.35 45 162.35Z" fill="#D9F9F7"/>
<path d="M77.4786 188.178C76.1111 187.279 74.0598 185.78 74.0598 185.78C72.0085 185.18 45 176.787 45 174.089C45 173.19 46.7094 160 46.7094 160L55.2564 162.098L53.8889 171.991C54.5726 172.29 71.6667 180.384 71.6667 180.384C71.6667 180.384 76.453 182.482 76.7949 182.482C77.1367 182.482 77.4786 182.183 80.2137 181.883C80.8974 181.883 82.2649 182.183 82.2649 182.183C82.2649 182.183 83.6325 182.782 83.6325 183.082C83.6325 183.382 83.2906 183.681 82.9487 183.681C82.6068 183.681 82.265 183.382 81.9231 183.382C81.5812 183.382 80.8974 183.981 80.8974 184.281C80.8974 184.581 82.6068 185.18 83.9743 185.48C84.6581 185.78 85 186.379 85 186.979C85 187.279 84.6581 187.279 84.6581 187.578C84.6581 187.878 84.3162 188.478 83.9743 188.777C83.9743 189.077 83.6325 189.977 83.2906 190.276C83.2906 190.276 83.2906 190.276 83.2906 190.576C82.9487 190.876 82.6068 191.176 81.9231 190.876C81.2393 190.576 80.5555 190.576 80.5555 190.576C80.5555 189.377 78.8461 189.077 77.4786 188.178Z" fill="#F8A492"/>
<path d="M44.7027 159L44 162L55.946 165L57 162.3L44.7027 159Z" fill="#BFD8D8"/>
<path d="M153.299 21C147.399 21 142.599 16.2897 142.599 10.5C142.599 4.71028 147.399 0 153.299 0C159.198 0 163.998 4.71028 163.998 10.5C164.098 16.1916 159.198 21 153.299 21ZM153.299 0.392521C147.599 0.392521 142.999 4.90654 142.999 10.5C142.999 16.0935 147.599 20.6075 153.299 20.6075C158.998 20.6075 163.598 16.0935 163.598 10.5C163.598 4.90654 158.998 0.392521 153.299 0.392521Z" fill="#359591"/>
<path d="M142 17.4674C141.1 17.4674 140.1 17.3692 139.2 17.173C138.3 16.9767 137.4 16.6823 136.7 16.2898L136.4 16.0935L138.2 12.3645L138.5 12.5608C139 12.8552 139.5 13.0515 140.1 13.2477C140.7 13.444 141.2 13.444 141.8 13.444C142.2 13.444 142.6 13.3459 142.9 13.2477C143.1 13.1496 143.2 13.0515 143.2 12.8552C143.2 12.7571 143.2 12.3645 142 12.3645H139.9V9.32249L141.3 7.85053H137.2V3.92529H147.499V6.96735L145.399 9.02809C146.199 9.32249 146.799 9.71501 147.299 10.3038C147.899 10.9907 148.199 11.8739 148.199 12.7571C148.199 13.5421 147.999 14.3272 147.499 15.0141C146.999 15.701 146.299 16.2898 145.399 16.7804C144.499 17.173 143.3 17.4674 142 17.4674Z" fill="#359591"/>
<path d="M147.199 4.1215V6.77103L144.8 9.12617C145.799 9.32244 146.599 9.81309 147.099 10.4019C147.599 10.9907 147.899 11.7757 147.899 12.6589C147.899 13.4439 147.699 14.1308 147.299 14.8178C146.899 15.5047 146.199 15.9953 145.299 16.3879C144.4 16.7804 143.3 16.9766 142 16.9766C141.1 16.9766 140.2 16.8785 139.3 16.6822C138.4 16.486 137.6 16.1916 136.9 15.7991L138.4 12.6589C138.9 12.9533 139.5 13.1495 140.1 13.3458C140.7 13.5421 141.3 13.5421 141.9 13.5421C142.4 13.5421 142.8 13.4439 143.1 13.2477C143.4 13.0514 143.6 12.8551 143.6 12.5608C143.6 11.972 143.1 11.6776 142.1 11.6776H140.3V9.02804L142.2 7.16356H137.6V3.92524H147.199V4.1215ZM147.899 3.53271H147.199H137.6H136.9V4.21963V7.45795V8.14487H137.6H140.6L139.8 8.92991L139.6 9.12617V9.42057V12.0701V12.757H140.3H142C142.7 12.757 142.9 12.9533 142.9 12.9533C142.9 12.9533 142.9 12.9533 142.9 13.0514C142.9 13.0514 142.9 13.1495 142.8 13.2477C142.6 13.3458 142.3 13.4439 141.9 13.4439C141.4 13.4439 140.9 13.3458 140.3 13.2477C139.8 13.1495 139.2 12.8551 138.8 12.6589L138.2 12.2664L137.9 12.9533L136.3 15.7009L136 16.2897L136.5 16.5841C137.2 16.9766 138.1 17.271 139.1 17.4673C140 17.6636 141 17.7617 142 17.7617C143.4 17.7617 144.6 17.5654 145.599 17.0748C146.599 16.5841 147.399 15.9953 147.799 15.2103C148.299 14.4252 148.499 13.6402 148.499 12.757C148.499 11.6776 148.199 10.7944 147.499 10.0093C147.099 9.51869 146.599 9.12617 145.899 8.83178L147.599 7.16356L147.799 6.96729V6.6729V4.02337V3.53271H147.899Z" fill="#D7EAF0"/>
<defs>
<linearGradient id="paint0_linear" x1="63.2663" y1="211.959" x2="72.1376" y2="161.165" gradientUnits="userSpaceOnUse">
<stop stop-color="#F5BA85"/>
<stop offset="0.6233" stop-color="#FCDDB1"/>
<stop offset="1" stop-color="#FFEFC7"/>
</linearGradient>
<linearGradient id="paint1_linear" x1="87.0185" y1="159.628" x2="63.1653" y2="207.495" gradientUnits="userSpaceOnUse">
<stop stop-color="#9BA87E"/>
<stop offset="0.7104" stop-color="#1F2119"/>
<stop offset="0.8827"/>
</linearGradient>
</defs>
</svg>
